%TF.GenerationSoftware,KiCad,Pcbnew,9.0.3*%
%TF.CreationDate,2025-10-27T19:17:52+08:00*%
%TF.ProjectId,Acelerografo,4163656c-6572-46f6-9772-61666f2e6b69,rev?*%
%TF.SameCoordinates,Original*%
%TF.FileFunction,Copper,L4,Bot*%
%TF.FilePolarity,Positive*%
%FSLAX46Y46*%
G04 Gerber Fmt 4.6, Leading zero omitted, Abs format (unit mm)*
G04 Created by KiCad (PCBNEW 9.0.3) date 2025-10-27 19:17:52*
%MOMM*%
%LPD*%
G01*
G04 APERTURE LIST*
G04 Aperture macros list*
%AMRoundRect*
0 Rectangle with rounded corners*
0 $1 Rounding radius*
0 $2 $3 $4 $5 $6 $7 $8 $9 X,Y pos of 4 corners*
0 Add a 4 corners polygon primitive as box body*
4,1,4,$2,$3,$4,$5,$6,$7,$8,$9,$2,$3,0*
0 Add four circle primitives for the rounded corners*
1,1,$1+$1,$2,$3*
1,1,$1+$1,$4,$5*
1,1,$1+$1,$6,$7*
1,1,$1+$1,$8,$9*
0 Add four rect primitives between the rounded corners*
20,1,$1+$1,$2,$3,$4,$5,0*
20,1,$1+$1,$4,$5,$6,$7,0*
20,1,$1+$1,$6,$7,$8,$9,0*
20,1,$1+$1,$8,$9,$2,$3,0*%
G04 Aperture macros list end*
%TA.AperFunction,ComponentPad*%
%ADD10C,1.400000*%
%TD*%
%TA.AperFunction,ComponentPad*%
%ADD11RoundRect,0.249999X0.850001X-0.850001X0.850001X0.850001X-0.850001X0.850001X-0.850001X-0.850001X0*%
%TD*%
%TA.AperFunction,ComponentPad*%
%ADD12C,2.200000*%
%TD*%
%TA.AperFunction,ComponentPad*%
%ADD13C,3.500000*%
%TD*%
%TA.AperFunction,ComponentPad*%
%ADD14C,2.000000*%
%TD*%
%TA.AperFunction,ComponentPad*%
%ADD15R,1.600000X2.000000*%
%TD*%
%TA.AperFunction,ComponentPad*%
%ADD16O,1.600000X2.000000*%
%TD*%
%TA.AperFunction,ComponentPad*%
%ADD17R,1.700000X1.700000*%
%TD*%
%TA.AperFunction,ComponentPad*%
%ADD18C,1.700000*%
%TD*%
%TA.AperFunction,ComponentPad*%
%ADD19C,3.000000*%
%TD*%
%TA.AperFunction,ComponentPad*%
%ADD20C,6.000000*%
%TD*%
%TA.AperFunction,ViaPad*%
%ADD21C,0.600000*%
%TD*%
%TA.AperFunction,Conductor*%
%ADD22C,0.200000*%
%TD*%
%TA.AperFunction,Conductor*%
%ADD23C,0.400000*%
%TD*%
G04 APERTURE END LIST*
D10*
%TO.P,W1,1,A*%
%TO.N,/_DSPIC_RX*%
X119250000Y-140500000D03*
%TO.P,W1,2,B*%
%TO.N,/DSPIC_RX*%
X116710000Y-140500000D03*
%TD*%
D11*
%TO.P,J1,1,Pin_1*%
%TO.N,/FUENTE_12V*%
X185160000Y-67600000D03*
D12*
%TO.P,J1,2,Pin_2*%
%TO.N,GND*%
X185160000Y-65060000D03*
%TD*%
D10*
%TO.P,W2,1,A*%
%TO.N,+12V*%
X174500000Y-72150000D03*
%TO.P,W2,2,B*%
%TO.N,/FUENTE_12V*%
X174500000Y-69610000D03*
%TD*%
D13*
%TO.P,U3,*%
%TO.N,*%
X171250000Y-99750000D03*
X171250000Y-114500000D03*
X186000000Y-99750000D03*
X186000000Y-114500000D03*
D14*
%TO.P,U3,1,INT1*%
%TO.N,/ADXL_INT1*%
X176085000Y-113605000D03*
%TO.P,U3,2,INT2*%
%TO.N,/ADXL_INT2*%
X178625000Y-113605000D03*
%TO.P,U3,3,DRDY*%
%TO.N,/ADXL_DRDY*%
X181165000Y-113605000D03*
%TO.P,U3,4,VDDIO*%
%TO.N,VCC*%
X176085000Y-116145000D03*
%TO.P,U3,5,VDD*%
X178625000Y-116145000D03*
%TO.P,U3,6,GND*%
%TO.N,GND*%
X181165000Y-116145000D03*
%TO.P,U3,7,CS/SCL*%
%TO.N,/SPI2_ADXL355Z_CS*%
X176085000Y-98105000D03*
%TO.P,U3,8,SCLK/GND*%
%TO.N,/SPI2_SCK*%
X178625000Y-98105000D03*
%TO.P,U3,9,MOSI/SDA*%
%TO.N,/SPI2_MOSI*%
X181165000Y-98105000D03*
%TO.P,U3,10,VIP8A*%
%TO.N,unconnected-(U3-VIP8A-Pad10)*%
X176085000Y-100645000D03*
%TO.P,U3,11,VIP8D*%
%TO.N,unconnected-(U3-VIP8D-Pad11)*%
X178625000Y-100645000D03*
%TO.P,U3,12,MISO/SDA*%
%TO.N,/SPI2_MISO*%
X181165000Y-100645000D03*
%TD*%
D15*
%TO.P,BT1,1,+*%
%TO.N,Net-(BT1-+)*%
X164400000Y-133200000D03*
D16*
%TO.P,BT1,2,-*%
%TO.N,GND*%
X184900000Y-133200000D03*
%TD*%
D17*
%TO.P,J3,1,~{MCLR}/VPP*%
%TO.N,/MCLR*%
X129350000Y-147500000D03*
D18*
%TO.P,J3,2,VDD*%
%TO.N,VCC*%
X126810000Y-147500000D03*
%TO.P,J3,3,VSS*%
%TO.N,GND*%
X124270000Y-147500000D03*
%TO.P,J3,4,PGD/ICSPDAT*%
%TO.N,/DSPIC_TX*%
X121730000Y-147500000D03*
%TO.P,J3,5,PGC/ICSPCLK*%
%TO.N,/_DSPIC_RX*%
X119190000Y-147500000D03*
%TO.P,J3,6,PGM/LVP*%
%TO.N,unconnected-(J3-PGM{slash}LVP-Pad6)*%
X116650000Y-147500000D03*
%TD*%
D14*
%TO.P,5V1,1,1*%
%TO.N,+5V*%
X141800000Y-63700000D03*
%TD*%
D10*
%TO.P,W3,1,A*%
%TO.N,/RESETMICRO*%
X126750000Y-140500000D03*
%TO.P,W3,2,B*%
%TO.N,/MCLR*%
X129290000Y-140500000D03*
%TD*%
D11*
%TO.P,J2,1,Pin_1*%
%TO.N,/FUENTE_EXT12V*%
X185160000Y-75500000D03*
D12*
%TO.P,J2,2,Pin_2*%
%TO.N,GND*%
X185160000Y-72960000D03*
%TD*%
D14*
%TO.P,3V3,1,1*%
%TO.N,VCC*%
X176000000Y-119600000D03*
%TD*%
D19*
%TO.P,J5,*%
%TO.N,*%
X133464000Y-118120000D03*
X133464000Y-97800000D03*
D17*
%TO.P,J5,1,Pin_1*%
%TO.N,/GPS_1PPS*%
X104000000Y-97800000D03*
D18*
%TO.P,J5,2,Pin_2*%
%TO.N,VCC*%
X104000000Y-100340000D03*
%TO.P,J5,3,Pin_3*%
%TO.N,GND*%
X104000000Y-102880000D03*
%TO.P,J5,4,Pin_4*%
%TO.N,/DSPIC_TX*%
X104000000Y-105420000D03*
%TO.P,J5,5,Pin_5*%
%TO.N,/DSPIC_RX*%
X104000000Y-107960000D03*
%TO.P,J5,6,Pin_6*%
%TO.N,unconnected-(J5-Pin_6-Pad6)*%
X104000000Y-110500000D03*
%TO.P,J5,7,Pin_7*%
%TO.N,unconnected-(J5-Pin_7-Pad7)*%
X104000000Y-113040000D03*
%TO.P,J5,8,Pin_8*%
%TO.N,VCC*%
X104000000Y-115580000D03*
%TO.P,J5,9,Pin_9*%
%TO.N,unconnected-(J5-Pin_9-Pad9)*%
X104000000Y-118120000D03*
%TD*%
D20*
%TO.P,J6,*%
%TO.N,*%
X125530000Y-90270000D03*
X183530000Y-90270000D03*
D17*
%TO.P,J6,1,3V3*%
%TO.N,unconnected-(J6-3V3-Pad1)*%
X178660000Y-89000000D03*
D18*
%TO.P,J6,2,5V*%
%TO.N,+5V*%
X178660000Y-91540000D03*
%TO.P,J6,3,SDA_I2C1/GPIO8*%
%TO.N,unconnected-(J6-SDA_I2C1{slash}GPIO8-Pad3)*%
X176120000Y-89000000D03*
%TO.P,J6,4,5V*%
%TO.N,+5V*%
X176120000Y-91540000D03*
%TO.P,J6,5,SCL_I2C1/GPIO9*%
%TO.N,unconnected-(J6-SCL_I2C1{slash}GPIO9-Pad5)*%
X173580000Y-89000000D03*
%TO.P,J6,6,GND*%
%TO.N,GND*%
X173580000Y-91540000D03*
%TO.P,J6,7,GPCLK0/GPIO7*%
%TO.N,unconnected-(J6-GPCLK0{slash}GPIO7-Pad7)*%
X171040000Y-89000000D03*
%TO.P,J6,8,GPIO15/UART_TXD*%
%TO.N,unconnected-(J6-GPIO15{slash}UART_TXD-Pad8)*%
X171040000Y-91540000D03*
%TO.P,J6,9,GND*%
%TO.N,GND*%
X168500000Y-89000000D03*
%TO.P,J6,10,GPIO16/UART_RXD*%
%TO.N,unconnected-(J6-GPIO16{slash}UART_RXD-Pad10)*%
X168500000Y-91540000D03*
%TO.P,J6,11,GPIO0*%
%TO.N,/RPI_INT1*%
X165960000Y-89000000D03*
%TO.P,J6,12,GPIO1/PCM_CLK/PWM0*%
%TO.N,unconnected-(J6-GPIO1{slash}PCM_CLK{slash}PWM0-Pad12)*%
X165960000Y-91540000D03*
%TO.P,J6,13,GPIO2*%
%TO.N,/RPI_INT2*%
X163420000Y-89000000D03*
%TO.P,J6,14,GND*%
%TO.N,GND*%
X163420000Y-91540000D03*
%TO.P,J6,15,GPIO3*%
%TO.N,unconnected-(J6-GPIO3-Pad15)*%
X160880000Y-89000000D03*
%TO.P,J6,16,GPIO4*%
%TO.N,unconnected-(J6-GPIO4-Pad16)*%
X160880000Y-91540000D03*
%TO.P,J6,17,3V3*%
%TO.N,unconnected-(J6-3V3-Pad17)*%
X158340000Y-89000000D03*
%TO.P,J6,18,GPIO5*%
%TO.N,unconnected-(J6-GPIO5-Pad18)*%
X158340000Y-91540000D03*
%TO.P,J6,19,MOSI_SPI0/GPIO12*%
%TO.N,/SPI1_MOSI*%
X155800000Y-89000000D03*
%TO.P,J6,20,GND*%
%TO.N,GND*%
X155800000Y-91540000D03*
%TO.P,J6,21,MISO_SPI0/GPIO13*%
%TO.N,/SPI1_MISO*%
X153260000Y-89000000D03*
%TO.P,J6,22,GPIO6*%
%TO.N,unconnected-(J6-GPIO6-Pad22)*%
X153260000Y-91540000D03*
%TO.P,J6,23,SCLK_SPI0/GPIO14*%
%TO.N,/SPI1_SCK*%
X150720000Y-89000000D03*
%TO.P,J6,24,~{CE0}_SPI0/GPIO10*%
%TO.N,/SPI1_DSPIC_SS*%
X150720000Y-91540000D03*
%TO.P,J6,25,GND*%
%TO.N,GND*%
X148180000Y-89000000D03*
%TO.P,J6,26,~{CE1}_SPI0/GPIO11*%
%TO.N,unconnected-(J6-~{CE1}_SPI0{slash}GPIO11-Pad26)*%
X148180000Y-91540000D03*
%TO.P,J6,27,ID_SD_I2C0*%
%TO.N,unconnected-(J6-ID_SD_I2C0-Pad27)*%
X145640000Y-89000000D03*
%TO.P,J6,28,ID_SC_I2C0*%
%TO.N,unconnected-(J6-ID_SC_I2C0-Pad28)*%
X145640000Y-91540000D03*
%TO.P,J6,29,GPCLK1/GPIO21*%
%TO.N,unconnected-(J6-GPCLK1{slash}GPIO21-Pad29)*%
X143100000Y-89000000D03*
%TO.P,J6,30,GND*%
%TO.N,GND*%
X143100000Y-91540000D03*
%TO.P,J6,31,GPCLK2/GPIO22*%
%TO.N,unconnected-(J6-GPCLK2{slash}GPIO22-Pad31)*%
X140560000Y-89000000D03*
%TO.P,J6,32,GPIO26/PWM0*%
%TO.N,/TEST2*%
X140560000Y-91540000D03*
%TO.P,J6,33,GPIO23/PWM1*%
%TO.N,unconnected-(J6-GPIO23{slash}PWM1-Pad33)*%
X138020000Y-89000000D03*
%TO.P,J6,34,GND*%
%TO.N,GND*%
X138020000Y-91540000D03*
%TO.P,J6,35,GPIO24/PWM1/PCM_FS*%
%TO.N,unconnected-(J6-GPIO24{slash}PWM1{slash}PCM_FS-Pad35)*%
X135480000Y-89000000D03*
%TO.P,J6,36,GPIO27*%
%TO.N,/ONOFF*%
X135480000Y-91540000D03*
%TO.P,J6,37,GPIO25*%
%TO.N,unconnected-(J6-GPIO25-Pad37)*%
X132940000Y-89000000D03*
%TO.P,J6,38,GPIO28/PCM_DIN*%
%TO.N,/RESETMICRO*%
X132940000Y-91540000D03*
%TO.P,J6,39,GND*%
%TO.N,GND*%
X130400000Y-89000000D03*
%TO.P,J6,40,GPIO29/PCM_DOUT*%
%TO.N,unconnected-(J6-GPIO29{slash}PCM_DOUT-Pad40)*%
X130400000Y-91540000D03*
%TD*%
D21*
%TO.N,GND*%
X155300000Y-134000000D03*
X160300000Y-133900000D03*
X159100000Y-147100000D03*
X157800000Y-134000000D03*
X160600000Y-74900000D03*
X185900000Y-80000000D03*
X155000000Y-74600000D03*
X156500000Y-147000000D03*
X151500000Y-72300000D03*
X146000000Y-130200000D03*
X136500000Y-85800000D03*
X151500000Y-73100000D03*
X139600000Y-116300000D03*
X160500000Y-105000000D03*
X150210000Y-146690000D03*
X107600000Y-103200000D03*
X162000000Y-83000000D03*
X139100000Y-85700000D03*
X161700000Y-75800000D03*
X156600000Y-134100000D03*
X157800000Y-147000000D03*
X107600000Y-94800000D03*
X107600000Y-122100000D03*
X138400000Y-71900000D03*
X160600000Y-74000000D03*
X148800000Y-114900000D03*
X166000000Y-75800000D03*
X137900000Y-85700000D03*
X160400000Y-146900000D03*
X160600000Y-75700000D03*
X138300000Y-66500000D03*
X151500000Y-74600000D03*
X151200000Y-133100000D03*
X163000000Y-75800000D03*
X157500000Y-104900000D03*
X159100000Y-133900000D03*
%TO.N,/VIN*%
X156500000Y-82000000D03*
X166100000Y-79600000D03*
%TO.N,Net-(D6-K)*%
X166100000Y-78100000D03*
X171000000Y-81500000D03*
%TO.N,/MCLR*%
X137100000Y-130500000D03*
%TO.N,Net-(D10-A)*%
X159010000Y-75590000D03*
X170100000Y-85300000D03*
X161900000Y-68200000D03*
%TO.N,+5V*%
X156200000Y-63500000D03*
X156100000Y-64600000D03*
X153700000Y-64600000D03*
X153700000Y-63500000D03*
X155000000Y-63500000D03*
X155100000Y-64600000D03*
%TO.N,VCC*%
X151600000Y-148050000D03*
X152410000Y-129890000D03*
X136900000Y-114800000D03*
X120100000Y-117600000D03*
X103200000Y-122800000D03*
%TO.N,/SPI2_ADXL355Z_CS*%
X158800000Y-123300000D03*
%TO.N,/TEST1*%
X143520000Y-116920000D03*
X160500000Y-114400000D03*
%TO.N,/SPI2_MISO*%
X149600000Y-132400000D03*
X158800000Y-130400000D03*
%TO.N,/_DSPIC_RX*%
X143500000Y-126400000D03*
%TO.N,/DSPIC_TX*%
X123000000Y-126900000D03*
X123000000Y-122400000D03*
%TO.N,/SPI2_DS3234_CS*%
X146600000Y-137100000D03*
X147400000Y-130800000D03*
%TO.N,/SPI2_MOSI*%
X153700000Y-116700000D03*
X152750000Y-133850000D03*
%TO.N,/ADXL_INT1*%
X161900000Y-124200000D03*
%TO.N,/DS3231_SQW*%
X139700000Y-121200000D03*
X154020000Y-142720000D03*
%TO.N,/GPS_1PPS*%
X129000000Y-111500000D03*
%TO.N,/ADXL_INT2*%
X161000000Y-121500000D03*
%TO.N,/ADXL_DRDY*%
X159600000Y-122200000D03*
%TO.N,/SPI2_SCK*%
X153680000Y-126520000D03*
%TO.N,/TEST2*%
X155800000Y-112900000D03*
%TO.N,/RESETMICRO*%
X117500000Y-113700000D03*
X117500000Y-115600000D03*
%TO.N,/SPI1_DSPIC_SS*%
X132800000Y-124400000D03*
%TD*%
D22*
%TO.N,/VIN*%
X156500000Y-82000000D02*
X165100000Y-82000000D01*
X165100000Y-82000000D02*
X166100000Y-81000000D01*
X166100000Y-81000000D02*
X166100000Y-79600000D01*
%TO.N,Net-(D6-K)*%
X166100000Y-78100000D02*
X169500000Y-78100000D01*
X169500000Y-78100000D02*
X170900000Y-79500000D01*
X170900000Y-81400000D02*
X171000000Y-81500000D01*
X170900000Y-79500000D02*
X170900000Y-81400000D01*
%TO.N,/MCLR*%
X129290000Y-140500000D02*
X134500000Y-140500000D01*
X134500000Y-140500000D02*
X137100000Y-137900000D01*
X137100000Y-137900000D02*
X137100000Y-130500000D01*
%TO.N,Net-(D10-A)*%
X170100000Y-85300000D02*
X156900000Y-85300000D01*
X156900000Y-85300000D02*
X155100000Y-83500000D01*
X159500000Y-75100000D02*
X159500000Y-70600000D01*
X155100000Y-83500000D02*
X155100000Y-77000000D01*
X159500000Y-70600000D02*
X161900000Y-68200000D01*
X159010000Y-75590000D02*
X159500000Y-75100000D01*
X155100000Y-77000000D02*
X156510000Y-75590000D01*
X156510000Y-75590000D02*
X159010000Y-75590000D01*
%TO.N,/SPI2_ADXL355Z_CS*%
X168100000Y-109300000D02*
X170200000Y-109300000D01*
X158800000Y-120100000D02*
X160700000Y-118200000D01*
X174400000Y-99790000D02*
X176085000Y-98105000D01*
X170200000Y-109300000D02*
X174400000Y-105100000D01*
X160700000Y-118200000D02*
X165200000Y-118200000D01*
X167200000Y-110200000D02*
X168100000Y-109300000D01*
X158800000Y-123300000D02*
X158800000Y-120100000D01*
X165200000Y-118200000D02*
X167200000Y-116200000D01*
X174400000Y-105100000D02*
X174400000Y-99790000D01*
X167200000Y-116200000D02*
X167200000Y-110200000D01*
%TO.N,/TEST1*%
X143520000Y-115480000D02*
X145000000Y-114000000D01*
X158300000Y-114000000D02*
X160100000Y-114000000D01*
X145000000Y-114000000D02*
X156700000Y-114000000D01*
X156700000Y-114000000D02*
X158300000Y-114000000D01*
X143520000Y-116920000D02*
X143520000Y-115480000D01*
X160100000Y-114000000D02*
X160500000Y-114400000D01*
%TO.N,/SPI2_MISO*%
X158700000Y-130400000D02*
X158800000Y-130400000D01*
X156700000Y-132400000D02*
X158700000Y-130400000D01*
X149600000Y-132400000D02*
X156700000Y-132400000D01*
%TO.N,/_DSPIC_RX*%
X119250000Y-128650000D02*
X122100000Y-125800000D01*
X119190000Y-140560000D02*
X119250000Y-140500000D01*
X119250000Y-140500000D02*
X119250000Y-128650000D01*
X119190000Y-147500000D02*
X119190000Y-140560000D01*
X142900000Y-125800000D02*
X143500000Y-126400000D01*
X122100000Y-125800000D02*
X142900000Y-125800000D01*
D23*
%TO.N,/DSPIC_RX*%
X116710000Y-113810000D02*
X116710000Y-140500000D01*
X110740000Y-107960000D02*
X110800000Y-107900000D01*
X104000000Y-107960000D02*
X110740000Y-107960000D01*
X110800000Y-107900000D02*
X116710000Y-113810000D01*
D22*
%TO.N,/DSPIC_TX*%
X121730000Y-130570000D02*
X123000000Y-129300000D01*
X119100000Y-122400000D02*
X123000000Y-122400000D01*
X123000000Y-129300000D02*
X123000000Y-126900000D01*
X104000000Y-105420000D02*
X114120000Y-105420000D01*
X121730000Y-147500000D02*
X121730000Y-130570000D01*
X118700000Y-122000000D02*
X119100000Y-122400000D01*
X114120000Y-105420000D02*
X118700000Y-110000000D01*
X118700000Y-110000000D02*
X118700000Y-122000000D01*
%TO.N,/SPI2_DS3234_CS*%
X146600000Y-131600000D02*
X147400000Y-130800000D01*
X146600000Y-137100000D02*
X146600000Y-131600000D01*
%TO.N,/SPI2_MOSI*%
X165200000Y-112900000D02*
X165200000Y-99800000D01*
X152750000Y-133850000D02*
X149350000Y-133850000D01*
X148600000Y-133100000D02*
X148600000Y-121800000D01*
X169500000Y-95500000D02*
X180000000Y-95500000D01*
X181165000Y-96665000D02*
X181165000Y-98105000D01*
X155500000Y-115500000D02*
X162600000Y-115500000D01*
X148600000Y-121800000D02*
X153700000Y-116700000D01*
X155500000Y-115500000D02*
X154900000Y-115500000D01*
X149350000Y-133850000D02*
X148600000Y-133100000D01*
X162600000Y-115500000D02*
X165200000Y-112900000D01*
X165200000Y-99800000D02*
X169500000Y-95500000D01*
X154900000Y-115500000D02*
X153700000Y-116700000D01*
X180000000Y-95500000D02*
X181165000Y-96665000D01*
%TO.N,/ADXL_INT1*%
X174200000Y-117200000D02*
X174200000Y-115490000D01*
X174200000Y-115490000D02*
X176085000Y-113605000D01*
X167200000Y-124200000D02*
X174200000Y-117200000D01*
X161900000Y-124200000D02*
X167200000Y-124200000D01*
%TO.N,/DS3231_SQW*%
X142200000Y-121200000D02*
X144800000Y-123800000D01*
X144800000Y-123800000D02*
X144800000Y-140700000D01*
X146800000Y-142700000D02*
X154000000Y-142700000D01*
X139700000Y-121200000D02*
X142200000Y-121200000D01*
X144800000Y-140700000D02*
X146800000Y-142700000D01*
X154000000Y-142700000D02*
X154020000Y-142720000D01*
%TO.N,/GPS_1PPS*%
X115300000Y-97800000D02*
X104000000Y-97800000D01*
X129000000Y-111500000D02*
X115300000Y-97800000D01*
%TO.N,/ADXL_INT2*%
X173500000Y-116400000D02*
X173500000Y-112400000D01*
X174200000Y-111700000D02*
X177900000Y-111700000D01*
X162600000Y-119900000D02*
X170000000Y-119900000D01*
X170000000Y-119900000D02*
X173500000Y-116400000D01*
X173500000Y-112400000D02*
X174200000Y-111700000D01*
X178625000Y-112425000D02*
X178625000Y-113605000D01*
X161000000Y-121500000D02*
X162600000Y-119900000D01*
X177900000Y-111700000D02*
X178625000Y-112425000D01*
%TO.N,/ADXL_DRDY*%
X168300000Y-116500000D02*
X168300000Y-111600000D01*
X159600000Y-120200000D02*
X160800000Y-119000000D01*
X179900000Y-110700000D02*
X181165000Y-111965000D01*
X168300000Y-111600000D02*
X169200000Y-110700000D01*
X165800000Y-119000000D02*
X168300000Y-116500000D01*
X160800000Y-119000000D02*
X165800000Y-119000000D01*
X159600000Y-122200000D02*
X159600000Y-120200000D01*
X169200000Y-110700000D02*
X179900000Y-110700000D01*
X181165000Y-111965000D02*
X181165000Y-113605000D01*
%TO.N,/SPI2_SCK*%
X156000000Y-126500000D02*
X157900000Y-124600000D01*
X170500000Y-96400000D02*
X176920000Y-96400000D01*
X153680000Y-126520000D02*
X153700000Y-126500000D01*
X160900000Y-117000000D02*
X163800000Y-117000000D01*
X166200000Y-114600000D02*
X166200000Y-100700000D01*
X166200000Y-100700000D02*
X170500000Y-96400000D01*
X153700000Y-126500000D02*
X156000000Y-126500000D01*
X157900000Y-120000000D02*
X160900000Y-117000000D01*
X163800000Y-117000000D02*
X166200000Y-114600000D01*
X176920000Y-96400000D02*
X178625000Y-98105000D01*
X157900000Y-124600000D02*
X157900000Y-120000000D01*
%TO.N,/TEST2*%
X153900000Y-86800000D02*
X142500000Y-86800000D01*
X155800000Y-112900000D02*
X155800000Y-101600000D01*
X141711000Y-87589000D02*
X141711000Y-90389000D01*
X154600000Y-87500000D02*
X153900000Y-86800000D01*
X142500000Y-86800000D02*
X141711000Y-87589000D01*
X141711000Y-90389000D02*
X140560000Y-91540000D01*
X155800000Y-101600000D02*
X154600000Y-100400000D01*
X154600000Y-100400000D02*
X154600000Y-87500000D01*
%TO.N,/RESETMICRO*%
X117500000Y-115600000D02*
X117500000Y-113700000D01*
D23*
%TO.N,/SPI1_DSPIC_SS*%
X149400000Y-95800000D02*
X150720000Y-94480000D01*
X132800000Y-124400000D02*
X132700000Y-124400000D01*
X130100000Y-121800000D02*
X130100000Y-115800000D01*
X150720000Y-94480000D02*
X150720000Y-91540000D01*
X132300000Y-103700000D02*
X140200000Y-95800000D01*
X130100000Y-115800000D02*
X132300000Y-113600000D01*
X132300000Y-113600000D02*
X132300000Y-103700000D01*
X132700000Y-124400000D02*
X130100000Y-121800000D01*
X140200000Y-95800000D02*
X149400000Y-95800000D01*
%TD*%
M02*
