M48
; DRILL file {KiCad 9.0.3} date 2025-10-27T19:17:55+0800
; FORMAT={-:-/ absolute / metric / decimal}
; #@! TF.CreationDate,2025-10-27T19:17:55+08:00
; #@! TF.GenerationSoftware,Kicad,Pcbnew,9.0.3
; #@! TF.FileFunction,Plated,1,4,PTH
FMAT,2
METRIC
; #@! TA.AperFunction,Plated,PTH,ViaDrill
T1C0.300
; #@! TA.AperFunction,Plated,PTH,ComponentDrill
T2C0.800
; #@! TA.AperFunction,Plated,PTH,ComponentDrill
T3C0.850
; #@! TA.AperFunction,Plated,PTH,ComponentDrill
T4C1.000
; #@! TA.AperFunction,Plated,PTH,ComponentDrill
T5C1.100
; #@! TA.AperFunction,Plated,PTH,ComponentDrill
T6C2.286
; #@! TA.AperFunction,Plated,PTH,ComponentDrill
T7C2.750
; #@! TA.AperFunction,Plated,PTH,ComponentDrill
T8C3.100
%
G90
G05
T1
X103.2Y-122.8
X107.6Y-94.8
X107.6Y-103.2
X107.6Y-122.1
X117.5Y-113.7
X117.5Y-115.6
X120.1Y-117.6
X123.0Y-122.4
X123.0Y-126.9
X129.0Y-111.5
X132.8Y-124.4
X136.5Y-85.8
X136.9Y-114.8
X137.1Y-130.5
X137.9Y-85.7
X138.3Y-66.5
X138.4Y-71.9
X139.1Y-85.7
X139.6Y-116.3
X139.7Y-121.2
X143.5Y-126.4
X143.52Y-116.92
X146.0Y-130.2
X146.6Y-137.1
X147.4Y-130.8
X148.8Y-114.9
X149.6Y-132.4
X150.21Y-146.69
X151.2Y-133.1
X151.5Y-72.3
X151.5Y-73.1
X151.5Y-74.6
X151.6Y-148.05
X152.41Y-129.89
X152.75Y-133.85
X153.68Y-126.52
X153.7Y-63.5
X153.7Y-64.6
X153.7Y-116.7
X154.02Y-142.72
X155.0Y-63.5
X155.0Y-74.6
X155.1Y-64.6
X155.3Y-134.0
X155.8Y-112.9
X156.1Y-64.6
X156.2Y-63.5
X156.5Y-82.0
X156.5Y-147.0
X156.6Y-134.1
X157.5Y-104.9
X157.8Y-134.0
X157.8Y-147.0
X158.8Y-123.3
X158.8Y-130.4
X159.01Y-75.59
X159.1Y-133.9
X159.1Y-147.1
X159.6Y-122.2
X160.3Y-133.9
X160.4Y-146.9
X160.5Y-105.0
X160.5Y-114.4
X160.6Y-74.0
X160.6Y-74.9
X160.6Y-75.7
X161.0Y-121.5
X161.7Y-75.8
X161.9Y-68.2
X161.9Y-124.2
X162.0Y-83.0
X163.0Y-75.8
X166.0Y-75.8
X166.1Y-78.1
X166.1Y-79.6
X170.1Y-85.3
X171.0Y-81.5
X185.9Y-80.0
T2
X116.71Y-140.5
X119.25Y-140.5
X126.75Y-140.5
X129.29Y-140.5
X174.5Y-69.61
X174.5Y-72.15
T3
X164.4Y-133.2
X184.9Y-133.2
T4
X104.0Y-97.8
X104.0Y-100.34
X104.0Y-102.88
X104.0Y-105.42
X104.0Y-107.96
X104.0Y-110.5
X104.0Y-113.04
X104.0Y-115.58
X104.0Y-118.12
X116.65Y-147.5
X119.19Y-147.5
X121.73Y-147.5
X124.27Y-147.5
X126.81Y-147.5
X129.35Y-147.5
X130.4Y-89.0
X130.4Y-91.54
X132.94Y-89.0
X132.94Y-91.54
X135.48Y-89.0
X135.48Y-91.54
X138.02Y-89.0
X138.02Y-91.54
X140.56Y-89.0
X140.56Y-91.54
X141.8Y-63.7
X143.1Y-89.0
X143.1Y-91.54
X145.64Y-89.0
X145.64Y-91.54
X148.18Y-89.0
X148.18Y-91.54
X150.72Y-89.0
X150.72Y-91.54
X153.26Y-89.0
X153.26Y-91.54
X155.8Y-89.0
X155.8Y-91.54
X158.34Y-89.0
X158.34Y-91.54
X160.88Y-89.0
X160.88Y-91.54
X163.42Y-89.0
X163.42Y-91.54
X165.96Y-89.0
X165.96Y-91.54
X168.5Y-89.0
X168.5Y-91.54
X171.04Y-89.0
X171.04Y-91.54
X173.58Y-89.0
X173.58Y-91.54
X176.0Y-119.6
X176.12Y-89.0
X176.12Y-91.54
X178.66Y-89.0
X178.66Y-91.54
T5
X176.085Y-98.105
X176.085Y-100.645
X176.085Y-113.605
X176.085Y-116.145
X178.625Y-98.105
X178.625Y-100.645
X178.625Y-113.605
X178.625Y-116.145
X181.165Y-98.105
X181.165Y-100.645
X181.165Y-113.605
X181.165Y-116.145
X185.16Y-65.06
X185.16Y-67.6
X185.16Y-72.96
X185.16Y-75.5
T6
X133.464Y-97.8
X133.464Y-118.12
T7
X125.53Y-90.27
X183.53Y-90.27
T8
X171.25Y-99.75
X171.25Y-114.5
X186.0Y-99.75
X186.0Y-114.5
M30
