G04*
G04 #@! TF.GenerationSoftware,Altium Limited,Altium Designer,24.0.1 (36)*
G04*
G04 Layer_Color=8388736*
%FSLAX25Y25*%
%MOIN*%
G70*
G04*
G04 #@! TF.SameCoordinates,8BFE6F63-70C4-421D-ACC2-915F9C03592B*
G04*
G04*
G04 #@! TF.FilePolarity,Negative*
G04*
G01*
G75*
G04:AMPARAMS|DCode=43|XSize=139.76mil|YSize=104.72mil|CornerRadius=12.05mil|HoleSize=0mil|Usage=FLASHONLY|Rotation=270.000|XOffset=0mil|YOffset=0mil|HoleType=Round|Shape=RoundedRectangle|*
%AMROUNDEDRECTD43*
21,1,0.13976,0.08063,0,0,270.0*
21,1,0.11567,0.10472,0,0,270.0*
1,1,0.02409,-0.04031,-0.05784*
1,1,0.02409,-0.04031,0.05784*
1,1,0.02409,0.04031,0.05784*
1,1,0.02409,0.04031,-0.05784*
%
%ADD43ROUNDEDRECTD43*%
G04:AMPARAMS|DCode=44|XSize=63.98mil|YSize=31.5mil|CornerRadius=4.72mil|HoleSize=0mil|Usage=FLASHONLY|Rotation=180.000|XOffset=0mil|YOffset=0mil|HoleType=Round|Shape=RoundedRectangle|*
%AMROUNDEDRECTD44*
21,1,0.06398,0.02205,0,0,180.0*
21,1,0.05453,0.03150,0,0,180.0*
1,1,0.00945,-0.02726,0.01102*
1,1,0.00945,0.02726,0.01102*
1,1,0.00945,0.02726,-0.01102*
1,1,0.00945,-0.02726,-0.01102*
%
%ADD44ROUNDEDRECTD44*%
G04:AMPARAMS|DCode=45|XSize=169.29mil|YSize=102.36mil|CornerRadius=11.81mil|HoleSize=0mil|Usage=FLASHONLY|Rotation=0.000|XOffset=0mil|YOffset=0mil|HoleType=Round|Shape=RoundedRectangle|*
%AMROUNDEDRECTD45*
21,1,0.16929,0.07874,0,0,0.0*
21,1,0.14567,0.10236,0,0,0.0*
1,1,0.02362,0.07284,-0.03937*
1,1,0.02362,-0.07284,-0.03937*
1,1,0.02362,-0.07284,0.03937*
1,1,0.02362,0.07284,0.03937*
%
%ADD45ROUNDEDRECTD45*%
G04:AMPARAMS|DCode=46|XSize=41.34mil|YSize=39.37mil|CornerRadius=5.51mil|HoleSize=0mil|Usage=FLASHONLY|Rotation=0.000|XOffset=0mil|YOffset=0mil|HoleType=Round|Shape=RoundedRectangle|*
%AMROUNDEDRECTD46*
21,1,0.04134,0.02835,0,0,0.0*
21,1,0.03032,0.03937,0,0,0.0*
1,1,0.01102,0.01516,-0.01417*
1,1,0.01102,-0.01516,-0.01417*
1,1,0.01102,-0.01516,0.01417*
1,1,0.01102,0.01516,0.01417*
%
%ADD46ROUNDEDRECTD46*%
G04:AMPARAMS|DCode=47|XSize=40.95mil|YSize=35.43mil|CornerRadius=5.12mil|HoleSize=0mil|Usage=FLASHONLY|Rotation=0.000|XOffset=0mil|YOffset=0mil|HoleType=Round|Shape=RoundedRectangle|*
%AMROUNDEDRECTD47*
21,1,0.04095,0.02520,0,0,0.0*
21,1,0.03071,0.03543,0,0,0.0*
1,1,0.01024,0.01535,-0.01260*
1,1,0.01024,-0.01535,-0.01260*
1,1,0.01024,-0.01535,0.01260*
1,1,0.01024,0.01535,0.01260*
%
%ADD47ROUNDEDRECTD47*%
G04:AMPARAMS|DCode=48|XSize=62.99mil|YSize=43.31mil|CornerRadius=6.89mil|HoleSize=0mil|Usage=FLASHONLY|Rotation=270.000|XOffset=0mil|YOffset=0mil|HoleType=Round|Shape=RoundedRectangle|*
%AMROUNDEDRECTD48*
21,1,0.06299,0.02953,0,0,270.0*
21,1,0.04921,0.04331,0,0,270.0*
1,1,0.01378,-0.01476,-0.02461*
1,1,0.01378,-0.01476,0.02461*
1,1,0.01378,0.01476,0.02461*
1,1,0.01378,0.01476,-0.02461*
%
%ADD48ROUNDEDRECTD48*%
G04:AMPARAMS|DCode=49|XSize=41.34mil|YSize=39.37mil|CornerRadius=5.51mil|HoleSize=0mil|Usage=FLASHONLY|Rotation=270.000|XOffset=0mil|YOffset=0mil|HoleType=Round|Shape=RoundedRectangle|*
%AMROUNDEDRECTD49*
21,1,0.04134,0.02835,0,0,270.0*
21,1,0.03032,0.03937,0,0,270.0*
1,1,0.01102,-0.01417,-0.01516*
1,1,0.01102,-0.01417,0.01516*
1,1,0.01102,0.01417,0.01516*
1,1,0.01102,0.01417,-0.01516*
%
%ADD49ROUNDEDRECTD49*%
G04:AMPARAMS|DCode=50|XSize=47.24mil|YSize=59.06mil|CornerRadius=7.38mil|HoleSize=0mil|Usage=FLASHONLY|Rotation=270.000|XOffset=0mil|YOffset=0mil|HoleType=Round|Shape=RoundedRectangle|*
%AMROUNDEDRECTD50*
21,1,0.04724,0.04429,0,0,270.0*
21,1,0.03248,0.05906,0,0,270.0*
1,1,0.01476,-0.02215,-0.01624*
1,1,0.01476,-0.02215,0.01624*
1,1,0.01476,0.02215,0.01624*
1,1,0.01476,0.02215,-0.01624*
%
%ADD50ROUNDEDRECTD50*%
G04:AMPARAMS|DCode=51|XSize=181.1mil|YSize=161.42mil|CornerRadius=17.72mil|HoleSize=0mil|Usage=FLASHONLY|Rotation=90.000|XOffset=0mil|YOffset=0mil|HoleType=Round|Shape=RoundedRectangle|*
%AMROUNDEDRECTD51*
21,1,0.18110,0.12598,0,0,90.0*
21,1,0.14567,0.16142,0,0,90.0*
1,1,0.03543,0.06299,0.07284*
1,1,0.03543,0.06299,-0.07284*
1,1,0.03543,-0.06299,-0.07284*
1,1,0.03543,-0.06299,0.07284*
%
%ADD51ROUNDEDRECTD51*%
G04:AMPARAMS|DCode=52|XSize=48.23mil|YSize=23.62mil|CornerRadius=3.94mil|HoleSize=0mil|Usage=FLASHONLY|Rotation=90.000|XOffset=0mil|YOffset=0mil|HoleType=Round|Shape=RoundedRectangle|*
%AMROUNDEDRECTD52*
21,1,0.04823,0.01575,0,0,90.0*
21,1,0.04035,0.02362,0,0,90.0*
1,1,0.00787,0.00787,0.02018*
1,1,0.00787,0.00787,-0.02018*
1,1,0.00787,-0.00787,-0.02018*
1,1,0.00787,-0.00787,0.02018*
%
%ADD52ROUNDEDRECTD52*%
G04:AMPARAMS|DCode=53|XSize=40.95mil|YSize=35.43mil|CornerRadius=5.12mil|HoleSize=0mil|Usage=FLASHONLY|Rotation=270.000|XOffset=0mil|YOffset=0mil|HoleType=Round|Shape=RoundedRectangle|*
%AMROUNDEDRECTD53*
21,1,0.04095,0.02520,0,0,270.0*
21,1,0.03071,0.03543,0,0,270.0*
1,1,0.01024,-0.01260,-0.01535*
1,1,0.01024,-0.01260,0.01535*
1,1,0.01024,0.01260,0.01535*
1,1,0.01024,0.01260,-0.01535*
%
%ADD53ROUNDEDRECTD53*%
G04:AMPARAMS|DCode=54|XSize=79.72mil|YSize=29.53mil|CornerRadius=4.53mil|HoleSize=0mil|Usage=FLASHONLY|Rotation=90.000|XOffset=0mil|YOffset=0mil|HoleType=Round|Shape=RoundedRectangle|*
%AMROUNDEDRECTD54*
21,1,0.07972,0.02047,0,0,90.0*
21,1,0.07067,0.02953,0,0,90.0*
1,1,0.00906,0.01024,0.03533*
1,1,0.00906,0.01024,-0.03533*
1,1,0.00906,-0.01024,-0.03533*
1,1,0.00906,-0.01024,0.03533*
%
%ADD54ROUNDEDRECTD54*%
G04:AMPARAMS|DCode=55|XSize=75.59mil|YSize=44.09mil|CornerRadius=5.98mil|HoleSize=0mil|Usage=FLASHONLY|Rotation=90.000|XOffset=0mil|YOffset=0mil|HoleType=Round|Shape=RoundedRectangle|*
%AMROUNDEDRECTD55*
21,1,0.07559,0.03213,0,0,90.0*
21,1,0.06362,0.04409,0,0,90.0*
1,1,0.01197,0.01606,0.03181*
1,1,0.01197,0.01606,-0.03181*
1,1,0.01197,-0.01606,-0.03181*
1,1,0.01197,-0.01606,0.03181*
%
%ADD55ROUNDEDRECTD55*%
G04:AMPARAMS|DCode=56|XSize=66.93mil|YSize=41.34mil|CornerRadius=5.71mil|HoleSize=0mil|Usage=FLASHONLY|Rotation=180.000|XOffset=0mil|YOffset=0mil|HoleType=Round|Shape=RoundedRectangle|*
%AMROUNDEDRECTD56*
21,1,0.06693,0.02992,0,0,180.0*
21,1,0.05551,0.04134,0,0,180.0*
1,1,0.01142,-0.02776,0.01496*
1,1,0.01142,0.02776,0.01496*
1,1,0.01142,0.02776,-0.01496*
1,1,0.01142,-0.02776,-0.01496*
%
%ADD56ROUNDEDRECTD56*%
G04:AMPARAMS|DCode=57|XSize=131.89mil|YSize=66.93mil|CornerRadius=8.27mil|HoleSize=0mil|Usage=FLASHONLY|Rotation=270.000|XOffset=0mil|YOffset=0mil|HoleType=Round|Shape=RoundedRectangle|*
%AMROUNDEDRECTD57*
21,1,0.13189,0.05039,0,0,270.0*
21,1,0.11535,0.06693,0,0,270.0*
1,1,0.01654,-0.02520,-0.05768*
1,1,0.01654,-0.02520,0.05768*
1,1,0.01654,0.02520,0.05768*
1,1,0.01654,0.02520,-0.05768*
%
%ADD57ROUNDEDRECTD57*%
G04:AMPARAMS|DCode=58|XSize=60.24mil|YSize=40.95mil|CornerRadius=5.67mil|HoleSize=0mil|Usage=FLASHONLY|Rotation=0.000|XOffset=0mil|YOffset=0mil|HoleType=Round|Shape=RoundedRectangle|*
%AMROUNDEDRECTD58*
21,1,0.06024,0.02961,0,0,0.0*
21,1,0.04890,0.04095,0,0,0.0*
1,1,0.01134,0.02445,-0.01480*
1,1,0.01134,-0.02445,-0.01480*
1,1,0.01134,-0.02445,0.01480*
1,1,0.01134,0.02445,0.01480*
%
%ADD58ROUNDEDRECTD58*%
G04:AMPARAMS|DCode=59|XSize=58.66mil|YSize=41.73mil|CornerRadius=5.75mil|HoleSize=0mil|Usage=FLASHONLY|Rotation=0.000|XOffset=0mil|YOffset=0mil|HoleType=Round|Shape=RoundedRectangle|*
%AMROUNDEDRECTD59*
21,1,0.05866,0.03024,0,0,0.0*
21,1,0.04717,0.04173,0,0,0.0*
1,1,0.01150,0.02358,-0.01512*
1,1,0.01150,-0.02358,-0.01512*
1,1,0.01150,-0.02358,0.01512*
1,1,0.01150,0.02358,0.01512*
%
%ADD59ROUNDEDRECTD59*%
G04:AMPARAMS|DCode=60|XSize=75.59mil|YSize=44.09mil|CornerRadius=5.98mil|HoleSize=0mil|Usage=FLASHONLY|Rotation=0.000|XOffset=0mil|YOffset=0mil|HoleType=Round|Shape=RoundedRectangle|*
%AMROUNDEDRECTD60*
21,1,0.07559,0.03213,0,0,0.0*
21,1,0.06362,0.04409,0,0,0.0*
1,1,0.01197,0.03181,-0.01606*
1,1,0.01197,-0.03181,-0.01606*
1,1,0.01197,-0.03181,0.01606*
1,1,0.01197,0.03181,0.01606*
%
%ADD60ROUNDEDRECTD60*%
G04:AMPARAMS|DCode=61|XSize=51.58mil|YSize=48.42mil|CornerRadius=6.42mil|HoleSize=0mil|Usage=FLASHONLY|Rotation=180.000|XOffset=0mil|YOffset=0mil|HoleType=Round|Shape=RoundedRectangle|*
%AMROUNDEDRECTD61*
21,1,0.05158,0.03559,0,0,180.0*
21,1,0.03874,0.04842,0,0,180.0*
1,1,0.01284,-0.01937,0.01780*
1,1,0.01284,0.01937,0.01780*
1,1,0.01284,0.01937,-0.01780*
1,1,0.01284,-0.01937,-0.01780*
%
%ADD61ROUNDEDRECTD61*%
G04:AMPARAMS|DCode=62|XSize=25.59mil|YSize=25.59mil|CornerRadius=4.13mil|HoleSize=0mil|Usage=FLASHONLY|Rotation=90.000|XOffset=0mil|YOffset=0mil|HoleType=Round|Shape=RoundedRectangle|*
%AMROUNDEDRECTD62*
21,1,0.02559,0.01732,0,0,90.0*
21,1,0.01732,0.02559,0,0,90.0*
1,1,0.00827,0.00866,0.00866*
1,1,0.00827,0.00866,-0.00866*
1,1,0.00827,-0.00866,-0.00866*
1,1,0.00827,-0.00866,0.00866*
%
%ADD62ROUNDEDRECTD62*%
G04:AMPARAMS|DCode=63|XSize=124.02mil|YSize=104.33mil|CornerRadius=12.01mil|HoleSize=0mil|Usage=FLASHONLY|Rotation=180.000|XOffset=0mil|YOffset=0mil|HoleType=Round|Shape=RoundedRectangle|*
%AMROUNDEDRECTD63*
21,1,0.12402,0.08032,0,0,180.0*
21,1,0.10000,0.10433,0,0,180.0*
1,1,0.02402,-0.05000,0.04016*
1,1,0.02402,0.05000,0.04016*
1,1,0.02402,0.05000,-0.04016*
1,1,0.02402,-0.05000,-0.04016*
%
%ADD63ROUNDEDRECTD63*%
G04:AMPARAMS|DCode=64|XSize=90.55mil|YSize=86.61mil|CornerRadius=10.24mil|HoleSize=0mil|Usage=FLASHONLY|Rotation=0.000|XOffset=0mil|YOffset=0mil|HoleType=Round|Shape=RoundedRectangle|*
%AMROUNDEDRECTD64*
21,1,0.09055,0.06614,0,0,0.0*
21,1,0.07008,0.08661,0,0,0.0*
1,1,0.02047,0.03504,-0.03307*
1,1,0.02047,-0.03504,-0.03307*
1,1,0.02047,-0.03504,0.03307*
1,1,0.02047,0.03504,0.03307*
%
%ADD64ROUNDEDRECTD64*%
G04:AMPARAMS|DCode=65|XSize=28.35mil|YSize=27.56mil|CornerRadius=4.33mil|HoleSize=0mil|Usage=FLASHONLY|Rotation=180.000|XOffset=0mil|YOffset=0mil|HoleType=Round|Shape=RoundedRectangle|*
%AMROUNDEDRECTD65*
21,1,0.02835,0.01890,0,0,180.0*
21,1,0.01968,0.02756,0,0,180.0*
1,1,0.00866,-0.00984,0.00945*
1,1,0.00866,0.00984,0.00945*
1,1,0.00866,0.00984,-0.00945*
1,1,0.00866,-0.00984,-0.00945*
%
%ADD65ROUNDEDRECTD65*%
G04:AMPARAMS|DCode=66|XSize=28.35mil|YSize=27.56mil|CornerRadius=4.33mil|HoleSize=0mil|Usage=FLASHONLY|Rotation=90.000|XOffset=0mil|YOffset=0mil|HoleType=Round|Shape=RoundedRectangle|*
%AMROUNDEDRECTD66*
21,1,0.02835,0.01890,0,0,90.0*
21,1,0.01968,0.02756,0,0,90.0*
1,1,0.00866,0.00945,0.00984*
1,1,0.00866,0.00945,-0.00984*
1,1,0.00866,-0.00945,-0.00984*
1,1,0.00866,-0.00945,0.00984*
%
%ADD66ROUNDEDRECTD66*%
G04:AMPARAMS|DCode=67|XSize=48.23mil|YSize=23.62mil|CornerRadius=3.94mil|HoleSize=0mil|Usage=FLASHONLY|Rotation=0.000|XOffset=0mil|YOffset=0mil|HoleType=Round|Shape=RoundedRectangle|*
%AMROUNDEDRECTD67*
21,1,0.04823,0.01575,0,0,0.0*
21,1,0.04035,0.02362,0,0,0.0*
1,1,0.00787,0.02018,-0.00787*
1,1,0.00787,-0.02018,-0.00787*
1,1,0.00787,-0.02018,0.00787*
1,1,0.00787,0.02018,0.00787*
%
%ADD67ROUNDEDRECTD67*%
G04:AMPARAMS|DCode=68|XSize=90.55mil|YSize=86.61mil|CornerRadius=10.24mil|HoleSize=0mil|Usage=FLASHONLY|Rotation=270.000|XOffset=0mil|YOffset=0mil|HoleType=Round|Shape=RoundedRectangle|*
%AMROUNDEDRECTD68*
21,1,0.09055,0.06614,0,0,270.0*
21,1,0.07008,0.08661,0,0,270.0*
1,1,0.02047,-0.03307,-0.03504*
1,1,0.02047,-0.03307,0.03504*
1,1,0.02047,0.03307,0.03504*
1,1,0.02047,0.03307,-0.03504*
%
%ADD68ROUNDEDRECTD68*%
%ADD69C,0.12795*%
%ADD70C,0.07087*%
%ADD71O,0.06693X0.08268*%
%ADD72R,0.06693X0.08268*%
%ADD73O,0.06299X0.07480*%
G04:AMPARAMS|DCode=74|XSize=62.99mil|YSize=74.8mil|CornerRadius=9.35mil|HoleSize=0mil|Usage=FLASHONLY|Rotation=180.000|XOffset=0mil|YOffset=0mil|HoleType=Round|Shape=RoundedRectangle|*
%AMROUNDEDRECTD74*
21,1,0.06299,0.05610,0,0,180.0*
21,1,0.04429,0.07480,0,0,180.0*
1,1,0.01870,-0.02215,0.02805*
1,1,0.01870,0.02215,0.02805*
1,1,0.01870,0.02215,-0.02805*
1,1,0.01870,-0.02215,-0.02805*
%
%ADD74ROUNDEDRECTD74*%
G04:AMPARAMS|DCode=75|XSize=70.87mil|YSize=70.87mil|CornerRadius=10.34mil|HoleSize=0mil|Usage=FLASHONLY|Rotation=180.000|XOffset=0mil|YOffset=0mil|HoleType=Round|Shape=RoundedRectangle|*
%AMROUNDEDRECTD75*
21,1,0.07087,0.05020,0,0,180.0*
21,1,0.05020,0.07087,0,0,180.0*
1,1,0.02067,-0.02510,0.02510*
1,1,0.02067,0.02510,0.02510*
1,1,0.02067,0.02510,-0.02510*
1,1,0.02067,-0.02510,-0.02510*
%
%ADD75ROUNDEDRECTD75*%
%ADD76C,0.11236*%
%ADD77C,0.13205*%
%ADD78C,0.06906*%
%ADD79C,0.06693*%
%ADD80R,0.06693X0.06693*%
%ADD81O,0.08268X0.06693*%
%ADD82R,0.08268X0.06693*%
%ADD83O,0.07480X0.06299*%
G04:AMPARAMS|DCode=84|XSize=62.99mil|YSize=74.8mil|CornerRadius=7.87mil|HoleSize=0mil|Usage=FLASHONLY|Rotation=90.000|XOffset=0mil|YOffset=0mil|HoleType=Round|Shape=RoundedRectangle|*
%AMROUNDEDRECTD84*
21,1,0.06299,0.05906,0,0,90.0*
21,1,0.04724,0.07480,0,0,90.0*
1,1,0.01575,0.02953,0.02362*
1,1,0.01575,0.02953,-0.02362*
1,1,0.01575,-0.02953,-0.02362*
1,1,0.01575,-0.02953,0.02362*
%
%ADD84ROUNDEDRECTD84*%
D43*
X235106Y281890D02*
D03*
D44*
X224429Y274390D02*
D03*
Y279390D02*
D03*
Y284390D02*
D03*
Y289390D02*
D03*
X245783D02*
D03*
Y284390D02*
D03*
Y279390D02*
D03*
Y274390D02*
D03*
D45*
X172433Y321158D02*
D03*
X201567D02*
D03*
Y281000D02*
D03*
X172433D02*
D03*
X118933Y321158D02*
D03*
X148067D02*
D03*
D46*
X20000Y203701D02*
D03*
Y210000D02*
D03*
X27547Y101850D02*
D03*
Y108150D02*
D03*
X227000Y174850D02*
D03*
Y181150D02*
D03*
X213898Y174850D02*
D03*
Y181150D02*
D03*
X85000Y89232D02*
D03*
Y82932D02*
D03*
D47*
X20000Y195197D02*
D03*
Y189606D02*
D03*
X170000Y67295D02*
D03*
Y61705D02*
D03*
X149000Y273705D02*
D03*
Y279295D02*
D03*
X154500Y273705D02*
D03*
Y279295D02*
D03*
D48*
X27547Y58465D02*
D03*
X9831D02*
D03*
Y91535D02*
D03*
X27547D02*
D03*
D49*
X210150Y11000D02*
D03*
X203850D02*
D03*
D50*
X213898Y163945D02*
D03*
Y157055D02*
D03*
X227000Y163945D02*
D03*
Y157055D02*
D03*
D51*
X290000Y88622D02*
D03*
Y20906D02*
D03*
D52*
X85000Y106650D02*
D03*
Y97500D02*
D03*
D53*
X192705Y11000D02*
D03*
X198295D02*
D03*
X301795Y123000D02*
D03*
X296205D02*
D03*
X107472Y125000D02*
D03*
X101882D02*
D03*
X258402Y272890D02*
D03*
X252811D02*
D03*
D54*
X186500Y19449D02*
D03*
X191500D02*
D03*
X196500D02*
D03*
X201500D02*
D03*
X206500D02*
D03*
X211500D02*
D03*
X216500D02*
D03*
X221500D02*
D03*
X226500D02*
D03*
X231500D02*
D03*
Y56551D02*
D03*
X226500D02*
D03*
X221500D02*
D03*
X216500D02*
D03*
X211500D02*
D03*
X206500D02*
D03*
X201500D02*
D03*
X196500D02*
D03*
X191500D02*
D03*
X186500D02*
D03*
D55*
X190508Y125000D02*
D03*
X179484D02*
D03*
D56*
X141189Y271984D02*
D03*
Y281000D02*
D03*
Y290016D02*
D03*
D57*
X114811Y281000D02*
D03*
D58*
X216500Y313681D02*
D03*
Y320532D02*
D03*
D59*
X223768Y313799D02*
D03*
Y320413D02*
D03*
D60*
X242606Y309390D02*
D03*
Y320413D02*
D03*
X233606D02*
D03*
Y309390D02*
D03*
X264606Y290402D02*
D03*
Y279378D02*
D03*
X255606Y290402D02*
D03*
Y279378D02*
D03*
D61*
X244110Y298390D02*
D03*
X232102D02*
D03*
D62*
X222606Y296618D02*
D03*
Y300161D02*
D03*
X226115Y296618D02*
D03*
Y300161D02*
D03*
X218106Y296618D02*
D03*
Y293075D02*
D03*
Y275847D02*
D03*
Y279390D02*
D03*
D63*
X263000Y323504D02*
D03*
Y300276D02*
D03*
D64*
X241768Y332390D02*
D03*
X224445D02*
D03*
D65*
X218106Y284390D02*
D03*
Y288012D02*
D03*
D66*
X224429Y268390D02*
D03*
X228051D02*
D03*
D67*
X262158Y266913D02*
D03*
X253008D02*
D03*
D68*
X306000Y284213D02*
D03*
Y266890D02*
D03*
X288000Y284213D02*
D03*
Y266890D02*
D03*
D69*
X266430Y142020D02*
D03*
Y200091D02*
D03*
X321549D02*
D03*
Y142020D02*
D03*
D70*
X283990Y196567D02*
D03*
X303990D02*
D03*
X293989D02*
D03*
X303990Y206567D02*
D03*
X293989D02*
D03*
X283990D02*
D03*
Y145543D02*
D03*
X293989D02*
D03*
X303990D02*
D03*
X283990Y135543D02*
D03*
X293989D02*
D03*
X303990D02*
D03*
X113504Y237788D02*
D03*
X123504D02*
D03*
X133504D02*
D03*
X143504D02*
D03*
X153504D02*
D03*
X163504D02*
D03*
X173504D02*
D03*
X183504D02*
D03*
X193504D02*
D03*
X203504D02*
D03*
X213504D02*
D03*
X223504D02*
D03*
X233504D02*
D03*
X243504D02*
D03*
X253504D02*
D03*
X263504D02*
D03*
X273504D02*
D03*
X283504D02*
D03*
X293504D02*
D03*
X303504D02*
D03*
X113504Y247787D02*
D03*
X123504D02*
D03*
X133504D02*
D03*
X143504D02*
D03*
X153504D02*
D03*
X163504D02*
D03*
X173504D02*
D03*
X183504D02*
D03*
X193504D02*
D03*
X203504D02*
D03*
X213504D02*
D03*
X223504D02*
D03*
X233504D02*
D03*
X243504D02*
D03*
X253504D02*
D03*
X263504D02*
D03*
X273504D02*
D03*
X283504D02*
D03*
X293504D02*
D03*
X10000Y130000D02*
D03*
Y140000D02*
D03*
Y150000D02*
D03*
Y160000D02*
D03*
Y170000D02*
D03*
Y180000D02*
D03*
Y190000D02*
D03*
Y200000D02*
D03*
Y210000D02*
D03*
D71*
X100000Y40000D02*
D03*
X50000D02*
D03*
D72*
X90000D02*
D03*
X60000D02*
D03*
D73*
X50000Y10000D02*
D03*
X60000D02*
D03*
X70000D02*
D03*
X80000D02*
D03*
X90000D02*
D03*
D74*
X100000D02*
D03*
D75*
X303504Y247787D02*
D03*
D76*
X125945Y130000D02*
D03*
Y210000D02*
D03*
D77*
X322677Y241803D02*
D03*
X322835Y11811D02*
D03*
X11811D02*
D03*
X94331Y241803D02*
D03*
D78*
X290000Y40000D02*
D03*
Y69528D02*
D03*
D79*
X230000Y110000D02*
D03*
X220000D02*
D03*
X210000D02*
D03*
X200000D02*
D03*
X190000D02*
D03*
X180000D02*
D03*
X170000D02*
D03*
X160000D02*
D03*
X150000D02*
D03*
X140000D02*
D03*
X130000D02*
D03*
X120000D02*
D03*
X110000D02*
D03*
X100000D02*
D03*
X230000Y80000D02*
D03*
X220000D02*
D03*
X210000D02*
D03*
X200000D02*
D03*
X190000D02*
D03*
X180000D02*
D03*
X170000D02*
D03*
X160000D02*
D03*
X150000D02*
D03*
X140000D02*
D03*
X130000D02*
D03*
X120000D02*
D03*
X110000D02*
D03*
D80*
X100000D02*
D03*
D81*
X288000Y299000D02*
D03*
D82*
Y309000D02*
D03*
D83*
X319000Y309000D02*
D03*
Y336000D02*
D03*
D84*
Y299000D02*
D03*
Y326000D02*
D03*
M02*
