G04*
G04 #@! TF.GenerationSoftware,Altium Limited,Altium Designer,24.0.1 (36)*
G04*
G04 Layer_Color=32768*
%FSLAX25Y25*%
%MOIN*%
G70*
G04*
G04 #@! TF.SameCoordinates,8BFE6F63-70C4-421D-ACC2-915F9C03592B*
G04*
G04*
G04 #@! TF.FilePolarity,Positive*
G04*
G01*
G75*
%ADD111C,0.07874*%
D111*
X338583Y340537D02*
G03*
X337430Y343321I-3937J0D01*
G01*
X333478Y347272D02*
G03*
X330694Y348425I-2784J-2784D01*
G01*
X338583Y340537D02*
G03*
X337430Y343321I-3937J0D01*
G01*
X334646Y185827D02*
G03*
X338583Y189764I0J3937D01*
G01*
X334646Y185827D02*
G03*
X338583Y189764I0J3937D01*
G01*
X333478Y347272D02*
G03*
X330694Y348425I-2784J-2784D01*
G01*
X196830Y171055D02*
G03*
X169271Y198614I-27559J0D01*
G01*
X338583Y152362D02*
G03*
X334646Y156299I-3937J0D01*
G01*
X338583Y152362D02*
G03*
X334646Y156299I-3937J0D01*
G01*
X337430Y3122D02*
G03*
X338583Y5906I-2784J2784D01*
G01*
X337430Y3122D02*
G03*
X338583Y5906I-2784J2784D01*
G01*
X328740Y-3937D02*
G03*
X331524Y-2784I0J3937D01*
G01*
X169271Y143496D02*
G03*
X196830Y171055I0J27559D01*
G01*
X328740Y-3937D02*
G03*
X331524Y-2784I0J3937D01*
G01*
X74803Y348425D02*
G03*
X72019Y347272I0J-3937D01*
G01*
X74803Y348425D02*
G03*
X72019Y347272I0J-3937D01*
G01*
X68052Y343305D02*
G03*
X66899Y340521I2784J-2784D01*
G01*
X68052Y343305D02*
G03*
X66899Y340521I2784J-2784D01*
G01*
X5911Y232289D02*
G03*
X3127Y231136I0J-3937D01*
G01*
X169271Y198614D02*
G03*
X141712Y171055I0J-27559D01*
G01*
D02*
G03*
X169271Y143496I27559J0D01*
G01*
X3122Y-2784D02*
G03*
X5906Y-3937I2784J2784D01*
G01*
X5911Y232289D02*
G03*
X3127Y231136I0J-3937D01*
G01*
X-2784Y225225D02*
G03*
X-3937Y222441I2784J-2784D01*
G01*
X-2784Y225225D02*
G03*
X-3937Y222441I2784J-2784D01*
G01*
X3122Y-2784D02*
G03*
X5906Y-3937I2784J2784D01*
G01*
X-3937Y5906D02*
G03*
X-2784Y3122I3937J0D01*
G01*
X-3937Y5906D02*
G03*
X-2784Y3122I3937J0D01*
G01*
X333478Y347272D02*
X337430Y343321D01*
X338583Y189764D02*
X338583Y340537D01*
X318898Y185827D02*
X334646D01*
X338583Y152362D02*
X338583Y5906D01*
X318898Y156299D02*
X334646D01*
X331524Y-2784D02*
X337430Y3122D01*
X318898Y156299D02*
Y185827D01*
X74803Y348425D02*
X330694D01*
X68052Y343305D02*
X72019Y347272D01*
X66899Y233884D02*
Y340521D01*
X65304Y232289D02*
X66899Y233884D01*
X5911Y232289D02*
X65304D01*
X-2784Y225225D02*
X3127Y231136D01*
X5906Y-3937D02*
X328740D01*
X-3937Y5906D02*
Y222441D01*
X-2784Y3122D02*
X3122Y-2784D01*
M02*
