M48
;Layer_Color=9474304
;FILE_FORMAT=2:4
INCH,TZ
;TYPE=PLATED
T01F00S00C0.0118
T02F00S00C0.0157
T03F00S00C0.0280
T04F00S00C0.0315
T05F00S00C0.0354
T06F00S00C0.0374
T07F00S00C0.1240
;TYPE=NON_PLATED
T08F00S00C0.0591
T09F00S00C0.1024
T10F00S00C0.1220
%
T01
X3000Y1000
X1000Y3000
X14500Y1000
X25000
Y3000
X28500Y1000
X29000
X29500
X32500Y4000
Y10000
X29000Y8862
X27500Y9750
Y12000
X23000
X23500Y14500
X24500Y17500
X28399Y16011
X29399
X30399
X25000Y9000
X24350Y6300
X25000Y5500
X18800Y4750
X18000Y5500
X17500Y5800
X16000Y6000
X14500Y4500
X11500
X12500Y7050
X11500Y9000
X10500Y10000
Y12000
X12000
X13500
X14000Y9500
X16000
X19000
Y7000
X18650Y3150
X18500Y12000
X17500
X20000
X20500Y14250
X21000Y10000
X8000Y12000
X9000Y6550
X11000Y15500
Y18500
X7500
X5250Y15750
X2000Y18000
Y11000
X4000
X2755Y7500
X6000Y6500
X2000Y22500
X9503
X8113Y24250
X7500Y27000
Y29500
Y32000
X10500Y30000
X15500
Y28500
Y26000
X18000
X19000Y26500
Y27500
Y28500
Y29500
Y30500
Y31500
X21273Y30981
X21273Y30627
X21568Y30450
X21568Y30804
X21568Y31159
X21863Y30982
Y30627
X22159Y30450
Y30804
Y31159
X22454Y30982
Y30627
X22611Y30289
X21924Y29903
X22011Y26989
X21550Y26950
Y26439
X21811Y26689
X22061Y26439
X21500Y21500
X22000Y20750
X19500Y20500
X18000Y22500
X14000
X13000Y26000
X15500Y34000
X24500
X26000
X27500
X29000
X30500
X32000Y31500
X33000Y31000
X32500Y25500
Y22500
X28000
X28399Y18900
X29399
X30399
X23000Y22500
X24061Y26889
X24411
X24761
X26511Y26939
X26111Y27389
X27311Y27589
X27261Y28789
X26461Y29239
X26111
X25761
X25411
X25061
X24711
X24361
X23711Y28589
X23311
Y28189
Y27789
X23711
Y28189
X23361Y32427
T02
X20150Y2700
X25300Y12250
X30400Y9800
X21650Y5100
X17000Y5750
X2500Y14300
Y19000
X3200Y19500
X3130Y20370
X7500Y19500
X18300Y27700
Y28100
Y28500
X27050Y26300
T03
X14807Y32116
T04
X23000Y8000
Y11000
X22000
X21000
X20000
X19000
X18000
X17000
X16000
X15000
X14000
X13000
X12000
X11000
X10000
Y8000
X11000
X12000
X13000
X14000
X15000
X16000
X17000
X18000
X19000
X20000
X21000
X22000
T05
X28399Y13554
Y14554
X29399
X30399
Y13554
X29399
X10000Y4000
X9000
X6000
X5000
X1000Y13000
Y14000
Y15000
Y16000
Y17000
Y18000
Y19000
Y20000
Y21000
X28399Y20657
Y19657
X29399
X30399
Y20657
X29399
X28800Y29900
Y30900
T06
X5000Y1000
X6000
X7000
X8000
X9000
X10000
X11350Y23779
X12350
X13350
X14350
X15350
X16350
X17350
X18350
X19350
X20350
X21350
X22350
Y24779
X21350
X20350
X19350
X18350
X17350
X16350
X15350
X14350
X13350
X12350
X11350
X23350
Y23779
X24350
X25350
X26350
X27350
X28350
X29350
X30350
Y24779
X29350
X28350
X27350
X26350
X25350
X24350
X31900Y29900
Y30900
Y32600
Y33600
T07
X26643Y14202
X32155
Y20009
X26643
T08
X29000Y4000
Y6953
T09
X12594Y13000
Y21000
T10
X1181Y1181
X32283
X9433Y24180
X32268
M30
