M48
; DRILL file {KiCad 9.0.3} date 2025-11-17T14:25:09+0800
; FORMAT={-:-/ absolute / metric / decimal}
; #@! TF.CreationDate,2025-11-17T14:25:09+08:00
; #@! TF.GenerationSoftware,Kicad,Pcbnew,9.0.3
; #@! TF.FileFunction,Plated,1,4,PTH
FMAT,2
METRIC
; #@! TA.AperFunction,Plated,PTH,ViaDrill
T1C0.150
; #@! TA.AperFunction,Plated,PTH,ViaDrill
T2C0.200
; #@! TA.AperFunction,Plated,PTH,ViaDrill
T3C0.300
; #@! TA.AperFunction,Plated,PTH,ComponentDrill
T4C0.800
; #@! TA.AperFunction,Plated,PTH,ComponentDrill
T5C1.000
; #@! TA.AperFunction,Plated,PTH,ComponentDrill
T6C1.200
; #@! TA.AperFunction,Plated,PTH,ComponentDrill
T7C1.300
; #@! TA.AperFunction,Plated,PTH,ComponentDrill
T8C1.520
; #@! TA.AperFunction,Plated,PTH,ComponentDrill
T9C1.900
%
G90
G05
T1
X106.735Y-55.41
X114.111Y-59.9
X119.2Y-74.475
X119.35Y-76.25
X119.4Y-55.387
X120.1Y-51.605
X122.375Y-77.575
X122.85Y-73.8
T2
X104.915Y-51.915
X107.915Y-57.082
X113.6Y-54.162
X119.5Y-50.487
X120.125Y-70.725
T3
X61.6Y-66.2
X62.2Y-65.2
X63.19Y-64.71
X66.4Y-68.2
X67.3Y-49.1
X70.615Y-70.485
X72.4Y-73.9
X72.7Y-49.9
X72.7Y-77.3
X73.8Y-73.9
X73.9Y-60.2
X74.5Y-66.5
X74.9Y-68.2
X75.1Y-50.2
X75.3Y-53.8
X75.3Y-61.275
X75.4Y-75.55
X76.6Y-61.1
X77.5Y-72.475
X77.7Y-74.8
X78.2Y-61.2
X78.725Y-73.5
X80.3Y-42.4
X80.8Y-46.7
X80.8Y-52.1
X82.9Y-46.6
X83.1Y-51.8
X83.1Y-74.7
X84.2Y-74.7
X84.325Y-62.875
X84.4Y-74.0
X84.6Y-60.9
X84.7Y-59.8
X84.8Y-64.2
X84.9Y-93.4
X84.9Y-94.2
X84.9Y-95.0
X85.6Y-93.4
X85.6Y-94.2
X85.7Y-95.0
X86.1Y-74.9
X86.2Y-102.4
X86.5Y-95.0
X86.6Y-67.3
X87.2Y-102.4
X87.7Y-74.9
X88.1Y-71.4
X88.3Y-102.4
X88.345Y-44.255
X88.55Y-39.25
X88.9Y-57.9
X89.9Y-102.4
X90.0Y-44.3
X90.1Y-55.7
X90.4Y-72.8
X90.5Y-97.0
X91.35Y-41.775
X93.2Y-42.4
X93.8Y-67.1
X95.0Y-52.5
X96.5Y-56.8
X96.8Y-48.1
X97.1Y-54.8
X97.125Y-38.9
X97.5Y-94.1
X97.7Y-70.6
X98.0Y-56.8
X98.045Y-60.7
X98.6Y-83.5
X98.9Y-97.0
X99.625Y-56.725
X99.8Y-83.5
X100.35Y-55.086
X101.195Y-60.6
X101.2Y-56.8
X101.55Y-45.675
X102.4Y-41.4
X102.4Y-43.1
X102.628Y-60.537
X103.441Y-51.6
X103.6Y-56.8
X104.098Y-80.602
X104.2Y-72.7
X104.2Y-76.9
X105.9Y-44.3
X106.79Y-62.4
X106.9Y-52.8
X108.0Y-77.7
X108.1Y-59.1
X108.1Y-65.0
X108.3Y-62.8
X109.9Y-48.2
X110.1Y-40.1
X110.55Y-62.65
X110.6Y-45.8
X110.6Y-57.8
X111.1Y-81.9
X111.9Y-78.5
X112.025Y-48.225
X112.1Y-67.45
X113.6Y-78.6
X113.6Y-51.05
X113.8Y-48.4
X114.5Y-44.5
X114.794Y-55.122
X115.0Y-58.0
X115.1Y-70.4
X115.2Y-56.6
X115.3Y-50.5
X115.4Y-53.1
X115.7Y-63.7
X115.875Y-48.325
X117.484Y-69.356
X117.6Y-39.9
X117.8Y-64.1
X119.3Y-64.0
X119.4Y-45.5
X119.4Y-52.9
X119.4Y-56.5
X119.5Y-72.4
X119.8Y-53.6
X119.898Y-52.277
X119.9Y-58.2
X120.9Y-60.1
X120.9Y-99.9
X121.0Y-64.0
X121.6Y-44.3
X121.6Y-49.9
X122.5Y-60.0
X122.5Y-64.0
X124.0Y-51.7
X124.1Y-44.4
X124.1Y-49.8
X124.6Y-64.9
X125.8Y-42.5
X127.1Y-65.4
X128.0Y-42.3
X128.0Y-44.7
X128.0Y-47.0
X129.1Y-48.9
X129.7Y-65.4
X130.8Y-91.8
X130.8Y-92.7
X131.7Y-91.8
X131.8Y-92.7
X132.2Y-100.0
X132.4Y-85.5
X132.9Y-94.9
X134.0Y-56.2
X134.0Y-85.4
X134.1Y-54.3
X134.3Y-42.5
X134.3Y-43.8
X134.3Y-45.1
X135.007Y-78.694
X135.4Y-42.5
X135.4Y-43.8
X135.5Y-45.1
X136.1Y-84.5
X136.519Y-73.692
X137.025Y-70.925
X137.1Y-94.6
X137.825Y-90.775
X138.0Y-46.2
X139.6Y-43.3
X140.0Y-53.8
X140.0Y-58.5
X140.0Y-72.0
X140.7Y-103.0
X140.9Y-90.1
X141.8Y-102.0
X141.8Y-103.0
X141.859Y-81.424
X142.9Y-46.2
X143.0Y-102.0
X143.1Y-103.0
X143.262Y-44.938
X143.4Y-89.5
X144.0Y-47.5
X144.3Y-49.9
X144.5Y-48.9
X144.5Y-53.1
X144.6Y-103.0
X145.2Y-84.3
X145.3Y-67.3
X145.9Y-88.7
X146.1Y-103.0
X147.7Y-103.0
X148.9Y-59.3
X149.1Y-52.9
X149.2Y-103.1
X151.182Y-76.617
T4
X138.043Y-75.861
X138.043Y-78.401
T5
X61.986Y-96.291
X65.627Y-63.082
X89.797Y-82.042
X89.797Y-89.662
X107.337Y-96.417
X125.948Y-70.616
X126.016Y-78.021
X126.05Y-74.361
X152.656Y-102.4
T6
X72.017Y-82.042
X72.017Y-89.662
X79.638Y-82.042
T7
X64.55Y-53.25
X64.55Y-58.33
X64.7Y-83.32
X64.7Y-88.4
X153.35Y-71.315
X153.35Y-76.395
X153.35Y-81.475
X153.4Y-90.77
X153.4Y-95.85
T8
X151.575Y-50.53
X151.575Y-61.77
T9
X155.575Y-50.53
X155.575Y-61.77
M30
