%TF.GenerationSoftware,KiCad,Pcbnew,9.0.3*%
%TF.CreationDate,2025-11-17T14:25:06+08:00*%
%TF.ProjectId,piezometer,7069657a-6f6d-4657-9465-722e6b696361,rev?*%
%TF.SameCoordinates,Original*%
%TF.FileFunction,Copper,L2,Inr*%
%TF.FilePolarity,Positive*%
%FSLAX46Y46*%
G04 Gerber Fmt 4.6, Leading zero omitted, Abs format (unit mm)*
G04 Created by KiCad (PCBNEW 9.0.3) date 2025-11-17 14:25:06*
%MOMM*%
%LPD*%
G01*
G04 APERTURE LIST*
G04 Aperture macros list*
%AMRoundRect*
0 Rectangle with rounded corners*
0 $1 Rounding radius*
0 $2 $3 $4 $5 $6 $7 $8 $9 X,Y pos of 4 corners*
0 Add a 4 corners polygon primitive as box body*
4,1,4,$2,$3,$4,$5,$6,$7,$8,$9,$2,$3,0*
0 Add four circle primitives for the rounded corners*
1,1,$1+$1,$2,$3*
1,1,$1+$1,$4,$5*
1,1,$1+$1,$6,$7*
1,1,$1+$1,$8,$9*
0 Add four rect primitives between the rounded corners*
20,1,$1+$1,$2,$3,$4,$5,0*
20,1,$1+$1,$4,$5,$6,$7,0*
20,1,$1+$1,$6,$7,$8,$9,0*
20,1,$1+$1,$8,$9,$2,$3,0*%
G04 Aperture macros list end*
%TA.AperFunction,ComponentPad*%
%ADD10C,2.000000*%
%TD*%
%TA.AperFunction,ComponentPad*%
%ADD11RoundRect,0.250000X-1.050000X1.050000X-1.050000X-1.050000X1.050000X-1.050000X1.050000X1.050000X0*%
%TD*%
%TA.AperFunction,ComponentPad*%
%ADD12C,2.600000*%
%TD*%
%TA.AperFunction,ComponentPad*%
%ADD13C,2.200000*%
%TD*%
%TA.AperFunction,ComponentPad*%
%ADD14R,1.800000X1.800000*%
%TD*%
%TA.AperFunction,ComponentPad*%
%ADD15C,1.800000*%
%TD*%
%TA.AperFunction,ComponentPad*%
%ADD16C,2.280000*%
%TD*%
%TA.AperFunction,ComponentPad*%
%ADD17C,2.850000*%
%TD*%
%TA.AperFunction,WasherPad*%
%ADD18C,1.400000*%
%TD*%
%TA.AperFunction,ComponentPad*%
%ADD19RoundRect,0.250000X1.050000X-1.050000X1.050000X1.050000X-1.050000X1.050000X-1.050000X-1.050000X0*%
%TD*%
%TA.AperFunction,ComponentPad*%
%ADD20C,1.400000*%
%TD*%
%TA.AperFunction,ViaPad*%
%ADD21C,0.600000*%
%TD*%
%TA.AperFunction,ViaPad*%
%ADD22C,0.400000*%
%TD*%
%TA.AperFunction,ViaPad*%
%ADD23C,0.300000*%
%TD*%
%TA.AperFunction,ViaPad*%
%ADD24C,0.250000*%
%TD*%
%TA.AperFunction,ViaPad*%
%ADD25C,0.500000*%
%TD*%
G04 APERTURE END LIST*
D10*
%TO.N,/RS485_TX*%
%TO.C,TX1*%
X125948000Y-70616000D03*
%TD*%
D11*
%TO.N,/Vin_A*%
%TO.C,J4*%
X64550000Y-53250000D03*
D12*
%TO.N,Net-(D6-A1)*%
X64550000Y-58330000D03*
%TD*%
D13*
%TO.N,/Vin*%
%TO.C,K2*%
X79637500Y-82042500D03*
%TO.N,unconnected-(K2-Pad12)*%
X72017500Y-89662500D03*
%TO.N,/LOAD*%
X72017500Y-82042500D03*
D14*
%TO.N,6V*%
X89797500Y-82042500D03*
D15*
%TO.N,Net-(D7-K)*%
X89797500Y-89662500D03*
%TD*%
D10*
%TO.N,6V*%
%TO.C,6V1*%
X107337000Y-96417000D03*
%TD*%
%TO.N,/Vin*%
%TO.C,TP1*%
X152656000Y-102400000D03*
%TD*%
D16*
%TO.N,GND*%
%TO.C,U4*%
X151575000Y-61770000D03*
X151575000Y-50530000D03*
D17*
X155575000Y-61770000D03*
X155575000Y-50530000D03*
%TD*%
D10*
%TO.N,/RS485_RX*%
%TO.C,RX1*%
X126016000Y-78021000D03*
%TD*%
%TO.N,AVDD_5V0*%
%TO.C,A5V1*%
X65627000Y-63082000D03*
%TD*%
D18*
%TO.N,*%
%TO.C,J3*%
X118485000Y-95457500D03*
X118485000Y-87957500D03*
%TD*%
D10*
%TO.N,/RS485_RE*%
%TO.C,RE1*%
X126050000Y-74361000D03*
%TD*%
D19*
%TO.N,GND*%
%TO.C,J2*%
X153350000Y-81475000D03*
D12*
%TO.N,/B*%
X153350000Y-76395000D03*
%TO.N,/A*%
X153350000Y-71315000D03*
%TD*%
D20*
%TO.N,Net-(JP1-A)*%
%TO.C,JP1*%
X138043000Y-75861000D03*
%TO.N,/A*%
X138043000Y-78401000D03*
%TD*%
D10*
%TO.N,VCC_3V3*%
%TO.C,3V3*%
X61986000Y-96291000D03*
%TD*%
D19*
%TO.N,/Vin*%
%TO.C,J1*%
X153400000Y-95850000D03*
D12*
%TO.N,GND*%
X153400000Y-90770000D03*
%TD*%
D11*
%TO.N,/LOAD*%
%TO.C,J5*%
X64700000Y-83320000D03*
D12*
%TO.N,GND*%
X64700000Y-88400000D03*
%TD*%
D21*
%TO.N,GND*%
X143262500Y-44937500D03*
X110600000Y-57800000D03*
X131700000Y-91800000D03*
X140700000Y-103000000D03*
X111900000Y-78500000D03*
X115700000Y-63700000D03*
X136100000Y-84500000D03*
X86200000Y-102400000D03*
X90000000Y-44300000D03*
X115200000Y-56600000D03*
X97500000Y-94100000D03*
X119300000Y-64000000D03*
X110600000Y-45800000D03*
X144600000Y-103000000D03*
X129100000Y-48900000D03*
X142900000Y-46200000D03*
X117800000Y-64100000D03*
X115400000Y-53100000D03*
X131800000Y-92700000D03*
X115300000Y-50500000D03*
X137825000Y-90775000D03*
X143000000Y-102000000D03*
D22*
X80300000Y-42400000D03*
D21*
X137100000Y-94600000D03*
X145300000Y-67300000D03*
X149100000Y-52900000D03*
X134000000Y-85400000D03*
X87200000Y-102400000D03*
X132900000Y-94900000D03*
X128000000Y-44700000D03*
D23*
X113600030Y-54162420D03*
D21*
X104200000Y-76900000D03*
X93800000Y-67100000D03*
X140900000Y-90100000D03*
X87700000Y-74900000D03*
X108000000Y-77700000D03*
X119500000Y-72400000D03*
X88100000Y-71400000D03*
X108300000Y-62800000D03*
X114794379Y-55121623D03*
X127100000Y-65400000D03*
X122500000Y-64000000D03*
X130800000Y-92700000D03*
X83100000Y-74700000D03*
X88300000Y-102400000D03*
D22*
X93200000Y-42400000D03*
D21*
X130800000Y-91800000D03*
X144000000Y-47500000D03*
X90500000Y-97000000D03*
X128000000Y-42300000D03*
X149200000Y-103100000D03*
X111100000Y-81900000D03*
X98600000Y-83500000D03*
X145900000Y-88700000D03*
X119400000Y-45500000D03*
X86100000Y-74900000D03*
X141800000Y-102000000D03*
X124100000Y-44400000D03*
X113600000Y-78600000D03*
X90400000Y-72800000D03*
X128000000Y-47000000D03*
X132200000Y-100000000D03*
X143100000Y-103000000D03*
X144500000Y-53100000D03*
X121000000Y-64000000D03*
X124600000Y-64900000D03*
X140000000Y-58500000D03*
X135007000Y-78694000D03*
X124000000Y-51700000D03*
X105900000Y-44300000D03*
X84200000Y-74700000D03*
X145200000Y-84300000D03*
X89900000Y-102400000D03*
X143400000Y-89500000D03*
X115000000Y-58000000D03*
X120900000Y-99900000D03*
D22*
X88550000Y-39250000D03*
D21*
X137025000Y-70925000D03*
X97700000Y-70600000D03*
X84400000Y-74000000D03*
X110100000Y-40100000D03*
X114500000Y-44500000D03*
X129700000Y-65400000D03*
X132400000Y-85500000D03*
X146100000Y-103000000D03*
D22*
X97125000Y-38900000D03*
D21*
X147700000Y-103000000D03*
X141800000Y-103000000D03*
X98900000Y-97000000D03*
X148900000Y-59300000D03*
X140000000Y-53800000D03*
X104097600Y-80602400D03*
X121600000Y-44300000D03*
X113600030Y-51050000D03*
%TO.N,AVDD_5V0*%
X62200000Y-65200000D03*
X76600000Y-61100000D03*
X61600000Y-66200000D03*
X95000000Y-52500000D03*
X63190000Y-64710000D03*
X84700000Y-59800000D03*
%TO.N,VCC_3V3*%
X85600000Y-94200000D03*
X85600000Y-93400000D03*
X122500000Y-60000000D03*
X144300000Y-49900000D03*
X134100000Y-54300000D03*
X117600000Y-39900000D03*
X88345000Y-44255000D03*
X99625000Y-56725000D03*
X120900000Y-60100000D03*
X86500000Y-95000000D03*
X141859000Y-81424000D03*
D24*
X119400000Y-55387500D03*
D21*
X98000000Y-56800000D03*
X96500000Y-56800000D03*
X106900000Y-52800000D03*
X140000000Y-72000000D03*
X134000000Y-56200000D03*
X86600000Y-67300000D03*
X84900000Y-93400000D03*
X102400000Y-43100000D03*
X84900000Y-95000000D03*
X115875100Y-48324900D03*
D23*
X107914534Y-57081753D03*
D21*
X101200000Y-56800000D03*
X136519000Y-73692000D03*
X84900000Y-94200000D03*
X124100000Y-49800000D03*
X121600000Y-49900000D03*
X85700000Y-95000000D03*
X104200000Y-72700000D03*
X144500000Y-48900000D03*
X109900000Y-48200000D03*
X112024970Y-48224970D03*
D25*
%TO.N,ESP_LDO_VO1*%
X119400000Y-52900000D03*
D21*
X117484375Y-69355625D03*
X115100000Y-70400000D03*
X110550000Y-62650000D03*
D23*
X120125000Y-70725000D03*
D21*
%TO.N,ESP_VDD_HP*%
X135500000Y-45100000D03*
X113800000Y-48400000D03*
X134300000Y-42500000D03*
D23*
X119500000Y-50487300D03*
D21*
X108100000Y-59100000D03*
X134300000Y-45100000D03*
X135400000Y-43800000D03*
X134300000Y-43800000D03*
X135400000Y-42500000D03*
X119900000Y-58200000D03*
%TO.N,VREF_2V5*%
X75300000Y-61275000D03*
X84325000Y-62875000D03*
X80800000Y-52100000D03*
%TO.N,ESP_LDO_VO2*%
X119898248Y-52277000D03*
X119800000Y-53600000D03*
X119400000Y-56500000D03*
D24*
%TO.N,ESP_LDO_VO3*%
X114111000Y-59900000D03*
X120100000Y-51605300D03*
D21*
%TO.N,/RESET*%
X91350000Y-41775000D03*
X101550000Y-45675000D03*
%TO.N,AGND*%
X78725000Y-73500000D03*
X75300000Y-53800000D03*
X77500000Y-72475000D03*
X72400000Y-73900000D03*
X84800000Y-64200000D03*
X78200000Y-61200000D03*
X67300000Y-49100000D03*
X75400000Y-75550000D03*
X74900000Y-68200000D03*
X84600000Y-60900000D03*
X72700000Y-49900000D03*
X82900000Y-46600000D03*
X74500000Y-66500000D03*
X73800000Y-73900000D03*
X80800000Y-46700000D03*
X83100000Y-51800000D03*
X90100000Y-55700000D03*
X75100000Y-50200000D03*
X73900000Y-60200000D03*
X88900000Y-57900000D03*
X70615000Y-70485000D03*
X96800000Y-48100000D03*
X66400000Y-68200000D03*
X77700000Y-74800000D03*
%TO.N,/ADC_DIN*%
X98045000Y-60700000D03*
X100350000Y-55086001D03*
%TO.N,/ADC_DADY*%
X103440520Y-51600000D03*
X101195000Y-60600000D03*
%TO.N,/ADC_CS*%
X102628000Y-60537400D03*
D23*
X104915072Y-51915072D03*
D25*
%TO.N,/RTC_MFP*%
X103600000Y-56800000D03*
D24*
X106734600Y-55409600D03*
D21*
%TO.N,/control*%
X97100000Y-54800000D03*
X99800000Y-83500000D03*
%TO.N,/BOOT_GPIO35*%
X102400000Y-41400000D03*
X125800000Y-42500000D03*
D24*
%TO.N,/FLASH_D*%
X122375000Y-77575000D03*
X122850000Y-73800000D03*
D21*
%TO.N,/RS485_RE*%
X112100000Y-67450000D03*
D24*
%TO.N,/FLASH_CK*%
X119350000Y-76250000D03*
X119200000Y-74475000D03*
D21*
%TO.N,/RS485_RX*%
X106790000Y-62400000D03*
%TO.N,/EN_DCDC*%
X138000000Y-46200000D03*
X139600000Y-43300000D03*
%TO.N,/RS485_TX*%
X108100000Y-65000000D03*
%TO.N,/Vin_A*%
X72700000Y-77300000D03*
%TO.N,/A*%
X151182000Y-76616500D03*
%TD*%
%TA.AperFunction,Conductor*%
%TO.N,AGND*%
G36*
X96925706Y-45119685D02*
G01*
X96933062Y-45124796D01*
X97250400Y-45362800D01*
X97292221Y-45418771D01*
X97300000Y-45462000D01*
X97300000Y-53144315D01*
X97280315Y-53211354D01*
X97258381Y-53236994D01*
X96435236Y-53968679D01*
X96372053Y-53998505D01*
X96352855Y-54000000D01*
X92100000Y-54000000D01*
X92099999Y-54000000D01*
X92099998Y-54000001D01*
X91000000Y-54999999D01*
X91000000Y-64133637D01*
X90980315Y-64200676D01*
X90944783Y-64236811D01*
X90731239Y-64379174D01*
X90664540Y-64399982D01*
X90662456Y-64400000D01*
X81600000Y-64400000D01*
X81599999Y-64400000D01*
X81599997Y-64400001D01*
X80900000Y-64899999D01*
X80900000Y-79170728D01*
X80886909Y-79226182D01*
X80736245Y-79527511D01*
X80734273Y-79531454D01*
X80686686Y-79582613D01*
X80623364Y-79600000D01*
X59279500Y-79600000D01*
X59212461Y-79580315D01*
X59166706Y-79527511D01*
X59155500Y-79476000D01*
X59155500Y-77234108D01*
X72199500Y-77234108D01*
X72199500Y-77365891D01*
X72233608Y-77493187D01*
X72266554Y-77550250D01*
X72299500Y-77607314D01*
X72392686Y-77700500D01*
X72506814Y-77766392D01*
X72634108Y-77800500D01*
X72634110Y-77800500D01*
X72765890Y-77800500D01*
X72765892Y-77800500D01*
X72893186Y-77766392D01*
X73007314Y-77700500D01*
X73100500Y-77607314D01*
X73166392Y-77493186D01*
X73200500Y-77365892D01*
X73200500Y-77234108D01*
X73166392Y-77106814D01*
X73100500Y-76992686D01*
X73007314Y-76899500D01*
X72950250Y-76866554D01*
X72893187Y-76833608D01*
X72829539Y-76816554D01*
X72765892Y-76799500D01*
X72634108Y-76799500D01*
X72506812Y-76833608D01*
X72392686Y-76899500D01*
X72392683Y-76899502D01*
X72299502Y-76992683D01*
X72299500Y-76992686D01*
X72233608Y-77106812D01*
X72199500Y-77234108D01*
X59155500Y-77234108D01*
X59155500Y-66134108D01*
X61099500Y-66134108D01*
X61099500Y-66265891D01*
X61133608Y-66393187D01*
X61166554Y-66450250D01*
X61199500Y-66507314D01*
X61292686Y-66600500D01*
X61406814Y-66666392D01*
X61534108Y-66700500D01*
X61534110Y-66700500D01*
X61665890Y-66700500D01*
X61665892Y-66700500D01*
X61793186Y-66666392D01*
X61907314Y-66600500D01*
X62000500Y-66507314D01*
X62066392Y-66393186D01*
X62100500Y-66265892D01*
X62100500Y-66134108D01*
X62066392Y-66006814D01*
X62000500Y-65892686D01*
X62000498Y-65892684D01*
X61996436Y-65885648D01*
X61998409Y-65884508D01*
X61977463Y-65830328D01*
X61991501Y-65761883D01*
X62040315Y-65711894D01*
X62108407Y-65696230D01*
X62133125Y-65700236D01*
X62134108Y-65700500D01*
X62134111Y-65700500D01*
X62265890Y-65700500D01*
X62265892Y-65700500D01*
X62393186Y-65666392D01*
X62507314Y-65600500D01*
X62600500Y-65507314D01*
X62666392Y-65393186D01*
X62700500Y-65265892D01*
X62700500Y-65220089D01*
X62720185Y-65153050D01*
X62772989Y-65107295D01*
X62842147Y-65097351D01*
X62886498Y-65112701D01*
X62996814Y-65176392D01*
X63124108Y-65210500D01*
X63124110Y-65210500D01*
X63255890Y-65210500D01*
X63255892Y-65210500D01*
X63383186Y-65176392D01*
X63497314Y-65110500D01*
X63590500Y-65017314D01*
X63656392Y-64903186D01*
X63690500Y-64775892D01*
X63690500Y-64644108D01*
X63656392Y-64516814D01*
X63590500Y-64402686D01*
X63497314Y-64309500D01*
X63440250Y-64276554D01*
X63383187Y-64243608D01*
X63319539Y-64226554D01*
X63255892Y-64209500D01*
X63124108Y-64209500D01*
X62996812Y-64243608D01*
X62882686Y-64309500D01*
X62882683Y-64309502D01*
X62789502Y-64402683D01*
X62789500Y-64402686D01*
X62723608Y-64516812D01*
X62689500Y-64644108D01*
X62689500Y-64689910D01*
X62669815Y-64756949D01*
X62617011Y-64802704D01*
X62547853Y-64812648D01*
X62503500Y-64797297D01*
X62393189Y-64733609D01*
X62393186Y-64733608D01*
X62265892Y-64699500D01*
X62134108Y-64699500D01*
X62006812Y-64733608D01*
X61892686Y-64799500D01*
X61892683Y-64799502D01*
X61799502Y-64892683D01*
X61799500Y-64892686D01*
X61733608Y-65006812D01*
X61699500Y-65134108D01*
X61699500Y-65265891D01*
X61733608Y-65393187D01*
X61767959Y-65452684D01*
X61799500Y-65507314D01*
X61799501Y-65507315D01*
X61803564Y-65514352D01*
X61801591Y-65515491D01*
X61822536Y-65569676D01*
X61808495Y-65638120D01*
X61759679Y-65688108D01*
X61691587Y-65703768D01*
X61666879Y-65699764D01*
X61665892Y-65699500D01*
X61534108Y-65699500D01*
X61406812Y-65733608D01*
X61292686Y-65799500D01*
X61292683Y-65799502D01*
X61199502Y-65892683D01*
X61199500Y-65892686D01*
X61133608Y-66006812D01*
X61099500Y-66134108D01*
X59155500Y-66134108D01*
X59155500Y-62987513D01*
X64426500Y-62987513D01*
X64426500Y-63176486D01*
X64456059Y-63363118D01*
X64514454Y-63542836D01*
X64600240Y-63711199D01*
X64711310Y-63864073D01*
X64844927Y-63997690D01*
X64997801Y-64108760D01*
X65046625Y-64133637D01*
X65166163Y-64194545D01*
X65166165Y-64194545D01*
X65166168Y-64194547D01*
X65262497Y-64225846D01*
X65345881Y-64252940D01*
X65532514Y-64282500D01*
X65532519Y-64282500D01*
X65721486Y-64282500D01*
X65908118Y-64252940D01*
X66087832Y-64194547D01*
X66256199Y-64108760D01*
X66409073Y-63997690D01*
X66542690Y-63864073D01*
X66653760Y-63711199D01*
X66739547Y-63542832D01*
X66797940Y-63363118D01*
X66801381Y-63341391D01*
X66827500Y-63176486D01*
X66827500Y-62987513D01*
X66801028Y-62820379D01*
X66801028Y-62820378D01*
X66799243Y-62809108D01*
X83824500Y-62809108D01*
X83824500Y-62940891D01*
X83858608Y-63068187D01*
X83891554Y-63125250D01*
X83924500Y-63182314D01*
X84017686Y-63275500D01*
X84131814Y-63341392D01*
X84259108Y-63375500D01*
X84259110Y-63375500D01*
X84390890Y-63375500D01*
X84390892Y-63375500D01*
X84518186Y-63341392D01*
X84632314Y-63275500D01*
X84725500Y-63182314D01*
X84791392Y-63068186D01*
X84825500Y-62940892D01*
X84825500Y-62809108D01*
X84791392Y-62681814D01*
X84725500Y-62567686D01*
X84632314Y-62474500D01*
X84575250Y-62441554D01*
X84518187Y-62408608D01*
X84454539Y-62391554D01*
X84390892Y-62374500D01*
X84259108Y-62374500D01*
X84131812Y-62408608D01*
X84017686Y-62474500D01*
X84017683Y-62474502D01*
X83924502Y-62567683D01*
X83924500Y-62567686D01*
X83858608Y-62681812D01*
X83824500Y-62809108D01*
X66799243Y-62809108D01*
X66797940Y-62800881D01*
X66759252Y-62681814D01*
X66739547Y-62621168D01*
X66739545Y-62621165D01*
X66739545Y-62621163D01*
X66653759Y-62452800D01*
X66542690Y-62299927D01*
X66409073Y-62166310D01*
X66256199Y-62055240D01*
X66087836Y-61969454D01*
X65908118Y-61911059D01*
X65721486Y-61881500D01*
X65721481Y-61881500D01*
X65532519Y-61881500D01*
X65532514Y-61881500D01*
X65345881Y-61911059D01*
X65166163Y-61969454D01*
X64997800Y-62055240D01*
X64910579Y-62118610D01*
X64844927Y-62166310D01*
X64844925Y-62166312D01*
X64844924Y-62166312D01*
X64711312Y-62299924D01*
X64711312Y-62299925D01*
X64711310Y-62299927D01*
X64663610Y-62365579D01*
X64600240Y-62452800D01*
X64514454Y-62621163D01*
X64456059Y-62800881D01*
X64426500Y-62987513D01*
X59155500Y-62987513D01*
X59155500Y-61209108D01*
X74799500Y-61209108D01*
X74799500Y-61340891D01*
X74833608Y-61468187D01*
X74866554Y-61525250D01*
X74899500Y-61582314D01*
X74992686Y-61675500D01*
X75106814Y-61741392D01*
X75234108Y-61775500D01*
X75234110Y-61775500D01*
X75365890Y-61775500D01*
X75365892Y-61775500D01*
X75493186Y-61741392D01*
X75607314Y-61675500D01*
X75700500Y-61582314D01*
X75766392Y-61468186D01*
X75800500Y-61340892D01*
X75800500Y-61209108D01*
X75766392Y-61081814D01*
X75766390Y-61081811D01*
X75766391Y-61081811D01*
X75738849Y-61034108D01*
X76099500Y-61034108D01*
X76099500Y-61165891D01*
X76133608Y-61293187D01*
X76161151Y-61340892D01*
X76199500Y-61407314D01*
X76292686Y-61500500D01*
X76406814Y-61566392D01*
X76534108Y-61600500D01*
X76534110Y-61600500D01*
X76665890Y-61600500D01*
X76665892Y-61600500D01*
X76793186Y-61566392D01*
X76907314Y-61500500D01*
X77000500Y-61407314D01*
X77066392Y-61293186D01*
X77100500Y-61165892D01*
X77100500Y-61034108D01*
X77066392Y-60906814D01*
X77000500Y-60792686D01*
X76907314Y-60699500D01*
X76850250Y-60666554D01*
X76793187Y-60633608D01*
X76729539Y-60616554D01*
X76665892Y-60599500D01*
X76534108Y-60599500D01*
X76406812Y-60633608D01*
X76292686Y-60699500D01*
X76292683Y-60699502D01*
X76199502Y-60792683D01*
X76199500Y-60792686D01*
X76133608Y-60906812D01*
X76099500Y-61034108D01*
X75738849Y-61034108D01*
X75700502Y-60967689D01*
X75700497Y-60967683D01*
X75607316Y-60874502D01*
X75607314Y-60874500D01*
X75550250Y-60841554D01*
X75493187Y-60808608D01*
X75429539Y-60791554D01*
X75365892Y-60774500D01*
X75234108Y-60774500D01*
X75106812Y-60808608D01*
X74992686Y-60874500D01*
X74992683Y-60874502D01*
X74899502Y-60967683D01*
X74899500Y-60967686D01*
X74833608Y-61081812D01*
X74799500Y-61209108D01*
X59155500Y-61209108D01*
X59155500Y-58211902D01*
X63049500Y-58211902D01*
X63049500Y-58448097D01*
X63086446Y-58681368D01*
X63159433Y-58905996D01*
X63266657Y-59116433D01*
X63405483Y-59307510D01*
X63572490Y-59474517D01*
X63763567Y-59613343D01*
X63767791Y-59615495D01*
X63974003Y-59720566D01*
X63974005Y-59720566D01*
X63974008Y-59720568D01*
X64094412Y-59759689D01*
X64198631Y-59793553D01*
X64431903Y-59830500D01*
X64431908Y-59830500D01*
X64668097Y-59830500D01*
X64901368Y-59793553D01*
X65084320Y-59734108D01*
X84199500Y-59734108D01*
X84199500Y-59865891D01*
X84233608Y-59993187D01*
X84266554Y-60050250D01*
X84299500Y-60107314D01*
X84392686Y-60200500D01*
X84506814Y-60266392D01*
X84634108Y-60300500D01*
X84634110Y-60300500D01*
X84765890Y-60300500D01*
X84765892Y-60300500D01*
X84893186Y-60266392D01*
X85007314Y-60200500D01*
X85100500Y-60107314D01*
X85166392Y-59993186D01*
X85200500Y-59865892D01*
X85200500Y-59734108D01*
X85166392Y-59606814D01*
X85100500Y-59492686D01*
X85007314Y-59399500D01*
X84950250Y-59366554D01*
X84893187Y-59333608D01*
X84795793Y-59307512D01*
X84765892Y-59299500D01*
X84634108Y-59299500D01*
X84506812Y-59333608D01*
X84392686Y-59399500D01*
X84392683Y-59399502D01*
X84299502Y-59492683D01*
X84299500Y-59492686D01*
X84233608Y-59606812D01*
X84199500Y-59734108D01*
X65084320Y-59734108D01*
X65125992Y-59720568D01*
X65336433Y-59613343D01*
X65527510Y-59474517D01*
X65694517Y-59307510D01*
X65833343Y-59116433D01*
X65940568Y-58905992D01*
X66013553Y-58681368D01*
X66050500Y-58448097D01*
X66050500Y-58211902D01*
X66013553Y-57978631D01*
X65940566Y-57754003D01*
X65833342Y-57543566D01*
X65694517Y-57352490D01*
X65527510Y-57185483D01*
X65336433Y-57046657D01*
X65125996Y-56939433D01*
X64901368Y-56866446D01*
X64668097Y-56829500D01*
X64668092Y-56829500D01*
X64431908Y-56829500D01*
X64431903Y-56829500D01*
X64198631Y-56866446D01*
X63974003Y-56939433D01*
X63763566Y-57046657D01*
X63680080Y-57107314D01*
X63572490Y-57185483D01*
X63572488Y-57185485D01*
X63572487Y-57185485D01*
X63405485Y-57352487D01*
X63405485Y-57352488D01*
X63405483Y-57352490D01*
X63345862Y-57434550D01*
X63266657Y-57543566D01*
X63159433Y-57754003D01*
X63086446Y-57978631D01*
X63049500Y-58211902D01*
X59155500Y-58211902D01*
X59155500Y-52145730D01*
X63049500Y-52145730D01*
X63049500Y-54354269D01*
X63052353Y-54384699D01*
X63052353Y-54384701D01*
X63090140Y-54492686D01*
X63097207Y-54512882D01*
X63177850Y-54622150D01*
X63287118Y-54702793D01*
X63329845Y-54717744D01*
X63415299Y-54747646D01*
X63445730Y-54750500D01*
X63445734Y-54750500D01*
X65654270Y-54750500D01*
X65684699Y-54747646D01*
X65684701Y-54747646D01*
X65748790Y-54725219D01*
X65812882Y-54702793D01*
X65922150Y-54622150D01*
X66002793Y-54512882D01*
X66042467Y-54399500D01*
X66047646Y-54384701D01*
X66047646Y-54384699D01*
X66050500Y-54354269D01*
X66050500Y-52145730D01*
X66047646Y-52115300D01*
X66047646Y-52115298D01*
X66030723Y-52066936D01*
X66019235Y-52034108D01*
X80299500Y-52034108D01*
X80299500Y-52165892D01*
X80316554Y-52229539D01*
X80333608Y-52293187D01*
X80341475Y-52306812D01*
X80399500Y-52407314D01*
X80492686Y-52500500D01*
X80591521Y-52557563D01*
X80605944Y-52565890D01*
X80606814Y-52566392D01*
X80734108Y-52600500D01*
X80734110Y-52600500D01*
X80865890Y-52600500D01*
X80865892Y-52600500D01*
X80993186Y-52566392D01*
X81107314Y-52500500D01*
X81173706Y-52434108D01*
X94499500Y-52434108D01*
X94499500Y-52565891D01*
X94533608Y-52693187D01*
X94566554Y-52750250D01*
X94599500Y-52807314D01*
X94692686Y-52900500D01*
X94806814Y-52966392D01*
X94934108Y-53000500D01*
X94934110Y-53000500D01*
X95065890Y-53000500D01*
X95065892Y-53000500D01*
X95193186Y-52966392D01*
X95307314Y-52900500D01*
X95400500Y-52807314D01*
X95466392Y-52693186D01*
X95500500Y-52565892D01*
X95500500Y-52434108D01*
X95466392Y-52306814D01*
X95400500Y-52192686D01*
X95307314Y-52099500D01*
X95250250Y-52066554D01*
X95193187Y-52033608D01*
X95129539Y-52016554D01*
X95065892Y-51999500D01*
X94934108Y-51999500D01*
X94806812Y-52033608D01*
X94692686Y-52099500D01*
X94692683Y-52099502D01*
X94599502Y-52192683D01*
X94599500Y-52192686D01*
X94533608Y-52306812D01*
X94499500Y-52434108D01*
X81173706Y-52434108D01*
X81200500Y-52407314D01*
X81213023Y-52385622D01*
X81225520Y-52363980D01*
X81266390Y-52293189D01*
X81266392Y-52293186D01*
X81300500Y-52165892D01*
X81300500Y-52034108D01*
X81266392Y-51906814D01*
X81200500Y-51792686D01*
X81107314Y-51699500D01*
X81050250Y-51666554D01*
X80993187Y-51633608D01*
X80929539Y-51616554D01*
X80865892Y-51599500D01*
X80734108Y-51599500D01*
X80606812Y-51633608D01*
X80492686Y-51699500D01*
X80492683Y-51699502D01*
X80399502Y-51792683D01*
X80399500Y-51792686D01*
X80333608Y-51906812D01*
X80308773Y-51999500D01*
X80299500Y-52034108D01*
X66019235Y-52034108D01*
X66013294Y-52017130D01*
X66002793Y-51987118D01*
X65922150Y-51877850D01*
X65812882Y-51797207D01*
X65812880Y-51797206D01*
X65684700Y-51752353D01*
X65654270Y-51749500D01*
X65654266Y-51749500D01*
X63445734Y-51749500D01*
X63445730Y-51749500D01*
X63415300Y-51752353D01*
X63415298Y-51752353D01*
X63287119Y-51797206D01*
X63287117Y-51797207D01*
X63177850Y-51877850D01*
X63097207Y-51987117D01*
X63097206Y-51987119D01*
X63052353Y-52115298D01*
X63052353Y-52115300D01*
X63049500Y-52145730D01*
X59155500Y-52145730D01*
X59155500Y-45224000D01*
X59175185Y-45156961D01*
X59227989Y-45111206D01*
X59279500Y-45100000D01*
X96858667Y-45100000D01*
X96925706Y-45119685D01*
G37*
%TD.AperFunction*%
%TD*%
%TA.AperFunction,Conductor*%
%TO.N,GND*%
G36*
X157794759Y-37645185D02*
G01*
X157815401Y-37661819D01*
X158713181Y-38559598D01*
X158746666Y-38620921D01*
X158749500Y-38647279D01*
X158749500Y-103402720D01*
X158729815Y-103469759D01*
X158713181Y-103490401D01*
X157815401Y-104388181D01*
X157754078Y-104421666D01*
X157727720Y-104424500D01*
X60177279Y-104424500D01*
X60110240Y-104404815D01*
X60089598Y-104388181D01*
X59191819Y-103490401D01*
X59158334Y-103429078D01*
X59155500Y-103402720D01*
X59155500Y-101282597D01*
X60349500Y-101282597D01*
X60349500Y-101542402D01*
X60390140Y-101798993D01*
X60470422Y-102046076D01*
X60588368Y-102277554D01*
X60608686Y-102305519D01*
X60741069Y-102487729D01*
X60924771Y-102671431D01*
X61134949Y-102824134D01*
X61259753Y-102887725D01*
X61366423Y-102942077D01*
X61366425Y-102942077D01*
X61366428Y-102942079D01*
X61613507Y-103022360D01*
X61745706Y-103043297D01*
X61870098Y-103063000D01*
X61870103Y-103063000D01*
X62129902Y-103063000D01*
X62243298Y-103045039D01*
X62386493Y-103022360D01*
X62633572Y-102942079D01*
X62865051Y-102824134D01*
X63075229Y-102671431D01*
X63258931Y-102487729D01*
X63391318Y-102305513D01*
X151455500Y-102305513D01*
X151455500Y-102494486D01*
X151485059Y-102681118D01*
X151543454Y-102860836D01*
X151609649Y-102990749D01*
X151629240Y-103029199D01*
X151740310Y-103182073D01*
X151873927Y-103315690D01*
X152026801Y-103426760D01*
X152080424Y-103454082D01*
X152195163Y-103512545D01*
X152195165Y-103512545D01*
X152195168Y-103512547D01*
X152291497Y-103543846D01*
X152374881Y-103570940D01*
X152561514Y-103600500D01*
X152561519Y-103600500D01*
X152750486Y-103600500D01*
X152937118Y-103570940D01*
X153116832Y-103512547D01*
X153285199Y-103426760D01*
X153438073Y-103315690D01*
X153571690Y-103182073D01*
X153682760Y-103029199D01*
X153768547Y-102860832D01*
X153826940Y-102681118D01*
X153841253Y-102590749D01*
X153856500Y-102494486D01*
X153856500Y-102305513D01*
X153826940Y-102118881D01*
X153790089Y-102005468D01*
X153768547Y-101939168D01*
X153768545Y-101939165D01*
X153768545Y-101939163D01*
X153682759Y-101770799D01*
X153668096Y-101750618D01*
X153668095Y-101750617D01*
X153618676Y-101682597D01*
X154624500Y-101682597D01*
X154624500Y-101942402D01*
X154665140Y-102198993D01*
X154745422Y-102446076D01*
X154770089Y-102494486D01*
X154860246Y-102671428D01*
X154863368Y-102677554D01*
X154984335Y-102844051D01*
X155016069Y-102887729D01*
X155199771Y-103071431D01*
X155409949Y-103224134D01*
X155557445Y-103299287D01*
X155641423Y-103342077D01*
X155641425Y-103342077D01*
X155641428Y-103342079D01*
X155888507Y-103422360D01*
X156020706Y-103443297D01*
X156145098Y-103463000D01*
X156145103Y-103463000D01*
X156404902Y-103463000D01*
X156518298Y-103445039D01*
X156661493Y-103422360D01*
X156908572Y-103342079D01*
X157140051Y-103224134D01*
X157350229Y-103071431D01*
X157533931Y-102887729D01*
X157686634Y-102677551D01*
X157804579Y-102446072D01*
X157884860Y-102198993D01*
X157915511Y-102005468D01*
X157925500Y-101942402D01*
X157925500Y-101682597D01*
X157894094Y-101484310D01*
X157884860Y-101426007D01*
X157804579Y-101178928D01*
X157804577Y-101178925D01*
X157804577Y-101178923D01*
X157726661Y-101026006D01*
X157686634Y-100947449D01*
X157533931Y-100737271D01*
X157350229Y-100553569D01*
X157140051Y-100400866D01*
X157067764Y-100364034D01*
X156908576Y-100282922D01*
X156661493Y-100202640D01*
X156404902Y-100162000D01*
X156404897Y-100162000D01*
X156145103Y-100162000D01*
X156145098Y-100162000D01*
X155888506Y-100202640D01*
X155641423Y-100282922D01*
X155409945Y-100400868D01*
X155199774Y-100553566D01*
X155199768Y-100553571D01*
X155016071Y-100737268D01*
X155016066Y-100737274D01*
X154863368Y-100947445D01*
X154745422Y-101178923D01*
X154665140Y-101426006D01*
X154624500Y-101682597D01*
X153618676Y-101682597D01*
X153571690Y-101617927D01*
X153438073Y-101484310D01*
X153285199Y-101373240D01*
X153116836Y-101287454D01*
X152937118Y-101229059D01*
X152750486Y-101199500D01*
X152750481Y-101199500D01*
X152561519Y-101199500D01*
X152561514Y-101199500D01*
X152374881Y-101229059D01*
X152195163Y-101287454D01*
X152026800Y-101373240D01*
X151954175Y-101426006D01*
X151873927Y-101484310D01*
X151873925Y-101484312D01*
X151873924Y-101484312D01*
X151740312Y-101617924D01*
X151740312Y-101617925D01*
X151740310Y-101617927D01*
X151693324Y-101682597D01*
X151629240Y-101770800D01*
X151543454Y-101939163D01*
X151485059Y-102118881D01*
X151455500Y-102305513D01*
X63391318Y-102305513D01*
X63411634Y-102277551D01*
X63418752Y-102263579D01*
X63428551Y-102244351D01*
X63529577Y-102046076D01*
X63529577Y-102046075D01*
X63529579Y-102046072D01*
X63609860Y-101798993D01*
X63632539Y-101655798D01*
X63650500Y-101542402D01*
X63650500Y-101282597D01*
X63628947Y-101146521D01*
X63609860Y-101026007D01*
X63529579Y-100778928D01*
X63529577Y-100778925D01*
X63529577Y-100778923D01*
X63455862Y-100634251D01*
X63411634Y-100547449D01*
X63258931Y-100337271D01*
X63075229Y-100153569D01*
X62865051Y-100000866D01*
X62792764Y-99964034D01*
X62633576Y-99882922D01*
X62386493Y-99802640D01*
X62129902Y-99762000D01*
X62129897Y-99762000D01*
X61870103Y-99762000D01*
X61870098Y-99762000D01*
X61613506Y-99802640D01*
X61366423Y-99882922D01*
X61134945Y-100000868D01*
X60924774Y-100153566D01*
X60924768Y-100153571D01*
X60741071Y-100337268D01*
X60741066Y-100337274D01*
X60588368Y-100547445D01*
X60470422Y-100778923D01*
X60390140Y-101026006D01*
X60349500Y-101282597D01*
X59155500Y-101282597D01*
X59155500Y-96196513D01*
X60785500Y-96196513D01*
X60785500Y-96385486D01*
X60815059Y-96572118D01*
X60873454Y-96751836D01*
X60937653Y-96877832D01*
X60959240Y-96920199D01*
X61070310Y-97073073D01*
X61203927Y-97206690D01*
X61356801Y-97317760D01*
X61386103Y-97332690D01*
X61525163Y-97403545D01*
X61525165Y-97403545D01*
X61525168Y-97403547D01*
X61621497Y-97434846D01*
X61704881Y-97461940D01*
X61891514Y-97491500D01*
X61891519Y-97491500D01*
X62080486Y-97491500D01*
X62267118Y-97461940D01*
X62446832Y-97403547D01*
X62615199Y-97317760D01*
X62768073Y-97206690D01*
X62901690Y-97073073D01*
X63012760Y-96920199D01*
X63098547Y-96751832D01*
X63156940Y-96572118D01*
X63166544Y-96511481D01*
X63186500Y-96385486D01*
X63186500Y-96322513D01*
X106136500Y-96322513D01*
X106136500Y-96511486D01*
X106166059Y-96698118D01*
X106224454Y-96877836D01*
X106263399Y-96954269D01*
X106310240Y-97046199D01*
X106421310Y-97199073D01*
X106554927Y-97332690D01*
X106707801Y-97443760D01*
X106787347Y-97484290D01*
X106876163Y-97529545D01*
X106876165Y-97529545D01*
X106876168Y-97529547D01*
X106972497Y-97560846D01*
X107055881Y-97587940D01*
X107242514Y-97617500D01*
X107242519Y-97617500D01*
X107431486Y-97617500D01*
X107618118Y-97587940D01*
X107797832Y-97529547D01*
X107966199Y-97443760D01*
X108119073Y-97332690D01*
X108252690Y-97199073D01*
X108363760Y-97046199D01*
X108449547Y-96877832D01*
X108507940Y-96698118D01*
X108537500Y-96511486D01*
X108537500Y-96322513D01*
X108507940Y-96135881D01*
X108467000Y-96009882D01*
X108449547Y-95956168D01*
X108449545Y-95956165D01*
X108449545Y-95956163D01*
X108363759Y-95787800D01*
X108252690Y-95634927D01*
X108119073Y-95501310D01*
X107966199Y-95390240D01*
X107936897Y-95375310D01*
X107924128Y-95368804D01*
X117584500Y-95368804D01*
X117584500Y-95546195D01*
X117619103Y-95720158D01*
X117619106Y-95720167D01*
X117686983Y-95884040D01*
X117686990Y-95884053D01*
X117785535Y-96031534D01*
X117785538Y-96031538D01*
X117910961Y-96156961D01*
X117910965Y-96156964D01*
X118058446Y-96255509D01*
X118058459Y-96255516D01*
X118181363Y-96306423D01*
X118222334Y-96323394D01*
X118222336Y-96323394D01*
X118222341Y-96323396D01*
X118396304Y-96357999D01*
X118396307Y-96358000D01*
X118396309Y-96358000D01*
X118573693Y-96358000D01*
X118573694Y-96357999D01*
X118631682Y-96346464D01*
X118747658Y-96323396D01*
X118747661Y-96323394D01*
X118747666Y-96323394D01*
X118911547Y-96255513D01*
X119059035Y-96156964D01*
X119184464Y-96031535D01*
X119283013Y-95884047D01*
X119350894Y-95720166D01*
X119385500Y-95546191D01*
X119385500Y-95368809D01*
X119385500Y-95368806D01*
X119385499Y-95368804D01*
X119350896Y-95194841D01*
X119350893Y-95194832D01*
X119283016Y-95030959D01*
X119283009Y-95030946D01*
X119184464Y-94883465D01*
X119184461Y-94883461D01*
X119059038Y-94758038D01*
X119059034Y-94758035D01*
X119040619Y-94745730D01*
X151899500Y-94745730D01*
X151899500Y-96954269D01*
X151902353Y-96984699D01*
X151902353Y-96984701D01*
X151947206Y-97112880D01*
X151947207Y-97112882D01*
X152027850Y-97222150D01*
X152137118Y-97302793D01*
X152179845Y-97317744D01*
X152265299Y-97347646D01*
X152295730Y-97350500D01*
X152295734Y-97350500D01*
X154504270Y-97350500D01*
X154534699Y-97347646D01*
X154534701Y-97347646D01*
X154598790Y-97325219D01*
X154662882Y-97302793D01*
X154772150Y-97222150D01*
X154852793Y-97112882D01*
X154876126Y-97046199D01*
X154897646Y-96984701D01*
X154897646Y-96984699D01*
X154900500Y-96954269D01*
X154900500Y-94745730D01*
X154897646Y-94715300D01*
X154897646Y-94715298D01*
X154864006Y-94619163D01*
X154852793Y-94587118D01*
X154772150Y-94477850D01*
X154662882Y-94397207D01*
X154662880Y-94397206D01*
X154534700Y-94352353D01*
X154504270Y-94349500D01*
X154504266Y-94349500D01*
X152295734Y-94349500D01*
X152295730Y-94349500D01*
X152265300Y-94352353D01*
X152265298Y-94352353D01*
X152137119Y-94397206D01*
X152137117Y-94397207D01*
X152027850Y-94477850D01*
X151947207Y-94587117D01*
X151947206Y-94587119D01*
X151902353Y-94715298D01*
X151902353Y-94715300D01*
X151899500Y-94745730D01*
X119040619Y-94745730D01*
X118911553Y-94659490D01*
X118911540Y-94659483D01*
X118747667Y-94591606D01*
X118747658Y-94591603D01*
X118573694Y-94557000D01*
X118573691Y-94557000D01*
X118396309Y-94557000D01*
X118396306Y-94557000D01*
X118222341Y-94591603D01*
X118222332Y-94591606D01*
X118058459Y-94659483D01*
X118058446Y-94659490D01*
X117910965Y-94758035D01*
X117910961Y-94758038D01*
X117785538Y-94883461D01*
X117785535Y-94883465D01*
X117686990Y-95030946D01*
X117686983Y-95030959D01*
X117619106Y-95194832D01*
X117619103Y-95194841D01*
X117584500Y-95368804D01*
X107924128Y-95368804D01*
X107797836Y-95304454D01*
X107618118Y-95246059D01*
X107431486Y-95216500D01*
X107431481Y-95216500D01*
X107242519Y-95216500D01*
X107242514Y-95216500D01*
X107055881Y-95246059D01*
X106876163Y-95304454D01*
X106707800Y-95390240D01*
X106693679Y-95400500D01*
X106554927Y-95501310D01*
X106554925Y-95501312D01*
X106554924Y-95501312D01*
X106421312Y-95634924D01*
X106421312Y-95634925D01*
X106421310Y-95634927D01*
X106401786Y-95661800D01*
X106310240Y-95787800D01*
X106224454Y-95956163D01*
X106166059Y-96135881D01*
X106136500Y-96322513D01*
X63186500Y-96322513D01*
X63186500Y-96196513D01*
X63156940Y-96009881D01*
X63098545Y-95830163D01*
X63012759Y-95661800D01*
X62901690Y-95508927D01*
X62768073Y-95375310D01*
X62615199Y-95264240D01*
X62579517Y-95246059D01*
X62446836Y-95178454D01*
X62267118Y-95120059D01*
X62080486Y-95090500D01*
X62080481Y-95090500D01*
X61891519Y-95090500D01*
X61891514Y-95090500D01*
X61704881Y-95120059D01*
X61525163Y-95178454D01*
X61356800Y-95264240D01*
X61301451Y-95304454D01*
X61203927Y-95375310D01*
X61203925Y-95375312D01*
X61203924Y-95375312D01*
X61070312Y-95508924D01*
X61070312Y-95508925D01*
X61070310Y-95508927D01*
X61043236Y-95546191D01*
X60959240Y-95661800D01*
X60873454Y-95830163D01*
X60815059Y-96009881D01*
X60785500Y-96196513D01*
X59155500Y-96196513D01*
X59155500Y-93334108D01*
X84399500Y-93334108D01*
X84399500Y-93465891D01*
X84433608Y-93593187D01*
X84466554Y-93650250D01*
X84499500Y-93707314D01*
X84499502Y-93707316D01*
X84504505Y-93712319D01*
X84537990Y-93773642D01*
X84533006Y-93843334D01*
X84504505Y-93887681D01*
X84499502Y-93892683D01*
X84499500Y-93892686D01*
X84433608Y-94006812D01*
X84399500Y-94134108D01*
X84399500Y-94265891D01*
X84433608Y-94393187D01*
X84444039Y-94411253D01*
X84499500Y-94507314D01*
X84499502Y-94507316D01*
X84504505Y-94512319D01*
X84537990Y-94573642D01*
X84533006Y-94643334D01*
X84504505Y-94687681D01*
X84499502Y-94692683D01*
X84499500Y-94692686D01*
X84433608Y-94806812D01*
X84399500Y-94934108D01*
X84399500Y-95065891D01*
X84433608Y-95193187D01*
X84447068Y-95216500D01*
X84499500Y-95307314D01*
X84592686Y-95400500D01*
X84691521Y-95457563D01*
X84700999Y-95463035D01*
X84706814Y-95466392D01*
X84834108Y-95500500D01*
X84834110Y-95500500D01*
X84965890Y-95500500D01*
X84965892Y-95500500D01*
X85093186Y-95466392D01*
X85207314Y-95400500D01*
X85212319Y-95395495D01*
X85273642Y-95362010D01*
X85343334Y-95366994D01*
X85387681Y-95395495D01*
X85392686Y-95400500D01*
X85491521Y-95457563D01*
X85500999Y-95463035D01*
X85506814Y-95466392D01*
X85634108Y-95500500D01*
X85634110Y-95500500D01*
X85765890Y-95500500D01*
X85765892Y-95500500D01*
X85893186Y-95466392D01*
X86007314Y-95400500D01*
X86012319Y-95395495D01*
X86073642Y-95362010D01*
X86143334Y-95366994D01*
X86187681Y-95395495D01*
X86192686Y-95400500D01*
X86291521Y-95457563D01*
X86300999Y-95463035D01*
X86306814Y-95466392D01*
X86434108Y-95500500D01*
X86434110Y-95500500D01*
X86565890Y-95500500D01*
X86565892Y-95500500D01*
X86693186Y-95466392D01*
X86807314Y-95400500D01*
X86900500Y-95307314D01*
X86966392Y-95193186D01*
X87000500Y-95065892D01*
X87000500Y-94934108D01*
X86966392Y-94806814D01*
X86900500Y-94692686D01*
X86807314Y-94599500D01*
X86733702Y-94557000D01*
X86693187Y-94533608D01*
X86629539Y-94516554D01*
X86565892Y-94499500D01*
X86434108Y-94499500D01*
X86306814Y-94533608D01*
X86306813Y-94533608D01*
X86306811Y-94533609D01*
X86306810Y-94533609D01*
X86225346Y-94580643D01*
X86157446Y-94597116D01*
X86091419Y-94574263D01*
X86048228Y-94519342D01*
X86041587Y-94449789D01*
X86055958Y-94411257D01*
X86066392Y-94393186D01*
X86100500Y-94265892D01*
X86100500Y-94134108D01*
X86066392Y-94006814D01*
X86000500Y-93892686D01*
X85995495Y-93887681D01*
X85962010Y-93826358D01*
X85966994Y-93756666D01*
X85995495Y-93712319D01*
X86000500Y-93707314D01*
X86066392Y-93593186D01*
X86100500Y-93465892D01*
X86100500Y-93334108D01*
X86066392Y-93206814D01*
X86000500Y-93092686D01*
X85907314Y-92999500D01*
X85850250Y-92966554D01*
X85793187Y-92933608D01*
X85729539Y-92916554D01*
X85665892Y-92899500D01*
X85534108Y-92899500D01*
X85406814Y-92933608D01*
X85406813Y-92933608D01*
X85406811Y-92933609D01*
X85406810Y-92933609D01*
X85312000Y-92988348D01*
X85244100Y-93004821D01*
X85188000Y-92988348D01*
X85093189Y-92933609D01*
X85093186Y-92933608D01*
X84965892Y-92899500D01*
X84834108Y-92899500D01*
X84706812Y-92933608D01*
X84592686Y-92999500D01*
X84592683Y-92999502D01*
X84499502Y-93092683D01*
X84499500Y-93092686D01*
X84433608Y-93206812D01*
X84399500Y-93334108D01*
X59155500Y-93334108D01*
X59155500Y-89560148D01*
X70717000Y-89560148D01*
X70717000Y-89764851D01*
X70749022Y-89967034D01*
X70812281Y-90161723D01*
X70905215Y-90344113D01*
X71025528Y-90509713D01*
X71170286Y-90654471D01*
X71319666Y-90763000D01*
X71335890Y-90774787D01*
X71452107Y-90834003D01*
X71518276Y-90867718D01*
X71518278Y-90867718D01*
X71518281Y-90867720D01*
X71622637Y-90901627D01*
X71712965Y-90930977D01*
X71814057Y-90946988D01*
X71915148Y-90963000D01*
X71915149Y-90963000D01*
X72119851Y-90963000D01*
X72119852Y-90963000D01*
X72322034Y-90930977D01*
X72516719Y-90867720D01*
X72699110Y-90774787D01*
X72826311Y-90682371D01*
X72864713Y-90654471D01*
X72864715Y-90654468D01*
X72864719Y-90654466D01*
X73009466Y-90509719D01*
X73009468Y-90509715D01*
X73009471Y-90509713D01*
X73062232Y-90437090D01*
X73129787Y-90344110D01*
X73222720Y-90161719D01*
X73285977Y-89967034D01*
X73318000Y-89764852D01*
X73318000Y-89575889D01*
X88697000Y-89575889D01*
X88697000Y-89749111D01*
X88724098Y-89920201D01*
X88777627Y-90084945D01*
X88856268Y-90239288D01*
X88958086Y-90379428D01*
X89080572Y-90501914D01*
X89220712Y-90603732D01*
X89375055Y-90682373D01*
X89539799Y-90735902D01*
X89710889Y-90763000D01*
X89710890Y-90763000D01*
X89884110Y-90763000D01*
X89884111Y-90763000D01*
X90055201Y-90735902D01*
X90219945Y-90682373D01*
X90374288Y-90603732D01*
X90514428Y-90501914D01*
X90636914Y-90379428D01*
X90738732Y-90239288D01*
X90817373Y-90084945D01*
X90870902Y-89920201D01*
X90898000Y-89749111D01*
X90898000Y-89575889D01*
X90870902Y-89404799D01*
X90817373Y-89240055D01*
X90738732Y-89085712D01*
X90636914Y-88945572D01*
X90514428Y-88823086D01*
X90374288Y-88721268D01*
X90219945Y-88642627D01*
X90055201Y-88589098D01*
X90055199Y-88589097D01*
X90055198Y-88589097D01*
X89923771Y-88568281D01*
X89884111Y-88562000D01*
X89710889Y-88562000D01*
X89671228Y-88568281D01*
X89539802Y-88589097D01*
X89375052Y-88642628D01*
X89220711Y-88721268D01*
X89140756Y-88779359D01*
X89080572Y-88823086D01*
X89080570Y-88823088D01*
X89080569Y-88823088D01*
X88958088Y-88945569D01*
X88958088Y-88945570D01*
X88958086Y-88945572D01*
X88932429Y-88980886D01*
X88856268Y-89085711D01*
X88777628Y-89240052D01*
X88724097Y-89404802D01*
X88699493Y-89560148D01*
X88697000Y-89575889D01*
X73318000Y-89575889D01*
X73318000Y-89560148D01*
X73285977Y-89357966D01*
X73222720Y-89163281D01*
X73222718Y-89163278D01*
X73222718Y-89163276D01*
X73189003Y-89097107D01*
X73129787Y-88980890D01*
X73104125Y-88945569D01*
X73009471Y-88815286D01*
X72864713Y-88670528D01*
X72699113Y-88550215D01*
X72699112Y-88550214D01*
X72699110Y-88550213D01*
X72642153Y-88521191D01*
X72516723Y-88457281D01*
X72322034Y-88394022D01*
X72147495Y-88366378D01*
X72119852Y-88362000D01*
X71915148Y-88362000D01*
X71890829Y-88365851D01*
X71712965Y-88394022D01*
X71518276Y-88457281D01*
X71335886Y-88550215D01*
X71170286Y-88670528D01*
X71025528Y-88815286D01*
X70905215Y-88980886D01*
X70812281Y-89163276D01*
X70749022Y-89357965D01*
X70717000Y-89560148D01*
X59155500Y-89560148D01*
X59155500Y-87868804D01*
X117584500Y-87868804D01*
X117584500Y-88046195D01*
X117619103Y-88220158D01*
X117619106Y-88220167D01*
X117686983Y-88384040D01*
X117686990Y-88384053D01*
X117785535Y-88531534D01*
X117785538Y-88531538D01*
X117910961Y-88656961D01*
X117910965Y-88656964D01*
X118058446Y-88755509D01*
X118058459Y-88755516D01*
X118181363Y-88806423D01*
X118222334Y-88823394D01*
X118222336Y-88823394D01*
X118222341Y-88823396D01*
X118396304Y-88857999D01*
X118396307Y-88858000D01*
X118396309Y-88858000D01*
X118573693Y-88858000D01*
X118573694Y-88857999D01*
X118631682Y-88846464D01*
X118747658Y-88823396D01*
X118747661Y-88823394D01*
X118747666Y-88823394D01*
X118911547Y-88755513D01*
X119059035Y-88656964D01*
X119184464Y-88531535D01*
X119283013Y-88384047D01*
X119350894Y-88220166D01*
X119385500Y-88046191D01*
X119385500Y-87868809D01*
X119385500Y-87868806D01*
X119385499Y-87868804D01*
X119350896Y-87694841D01*
X119350893Y-87694832D01*
X119283016Y-87530959D01*
X119283009Y-87530946D01*
X119184464Y-87383465D01*
X119184461Y-87383461D01*
X119059038Y-87258038D01*
X119059034Y-87258035D01*
X118911553Y-87159490D01*
X118911540Y-87159483D01*
X118747667Y-87091606D01*
X118747658Y-87091603D01*
X118573694Y-87057000D01*
X118573691Y-87057000D01*
X118396309Y-87057000D01*
X118396306Y-87057000D01*
X118222341Y-87091603D01*
X118222332Y-87091606D01*
X118058459Y-87159483D01*
X118058446Y-87159490D01*
X117910965Y-87258035D01*
X117910961Y-87258038D01*
X117785538Y-87383461D01*
X117785535Y-87383465D01*
X117686990Y-87530946D01*
X117686983Y-87530959D01*
X117619106Y-87694832D01*
X117619103Y-87694841D01*
X117584500Y-87868804D01*
X59155500Y-87868804D01*
X59155500Y-82215730D01*
X63199500Y-82215730D01*
X63199500Y-84424269D01*
X63202353Y-84454699D01*
X63202353Y-84454701D01*
X63247206Y-84582880D01*
X63247207Y-84582882D01*
X63327850Y-84692150D01*
X63437118Y-84772793D01*
X63479845Y-84787744D01*
X63565299Y-84817646D01*
X63595730Y-84820500D01*
X63595734Y-84820500D01*
X65804270Y-84820500D01*
X65834699Y-84817646D01*
X65834701Y-84817646D01*
X65898790Y-84795219D01*
X65962882Y-84772793D01*
X66072150Y-84692150D01*
X66152793Y-84582882D01*
X66175219Y-84518790D01*
X66197646Y-84454701D01*
X66197646Y-84454699D01*
X66200500Y-84424269D01*
X66200500Y-83434108D01*
X99299500Y-83434108D01*
X99299500Y-83565891D01*
X99333608Y-83693187D01*
X99366554Y-83750250D01*
X99399500Y-83807314D01*
X99492686Y-83900500D01*
X99606814Y-83966392D01*
X99734108Y-84000500D01*
X99734110Y-84000500D01*
X99865890Y-84000500D01*
X99865892Y-84000500D01*
X99993186Y-83966392D01*
X100107314Y-83900500D01*
X100200500Y-83807314D01*
X100266392Y-83693186D01*
X100300500Y-83565892D01*
X100300500Y-83434108D01*
X100266392Y-83306814D01*
X100200500Y-83192686D01*
X100107314Y-83099500D01*
X100050250Y-83066554D01*
X99993187Y-83033608D01*
X99929539Y-83016554D01*
X99865892Y-82999500D01*
X99734108Y-82999500D01*
X99606812Y-83033608D01*
X99492686Y-83099500D01*
X99492683Y-83099502D01*
X99399502Y-83192683D01*
X99399500Y-83192686D01*
X99333608Y-83306812D01*
X99299500Y-83434108D01*
X66200500Y-83434108D01*
X66200500Y-82215730D01*
X66197646Y-82185300D01*
X66197646Y-82185298D01*
X66152793Y-82057119D01*
X66152790Y-82057113D01*
X66117216Y-82008912D01*
X66117214Y-82008910D01*
X66072150Y-81947850D01*
X66061714Y-81940148D01*
X70717000Y-81940148D01*
X70717000Y-82144851D01*
X70749022Y-82347034D01*
X70812281Y-82541723D01*
X70905215Y-82724113D01*
X71025528Y-82889713D01*
X71170286Y-83034471D01*
X71303655Y-83131367D01*
X71335890Y-83154787D01*
X71452107Y-83214003D01*
X71518276Y-83247718D01*
X71518278Y-83247718D01*
X71518281Y-83247720D01*
X71622637Y-83281627D01*
X71712965Y-83310977D01*
X71814057Y-83326988D01*
X71915148Y-83343000D01*
X71915149Y-83343000D01*
X72119851Y-83343000D01*
X72119852Y-83343000D01*
X72322034Y-83310977D01*
X72516719Y-83247720D01*
X72699110Y-83154787D01*
X72792340Y-83087052D01*
X72864713Y-83034471D01*
X72864715Y-83034468D01*
X72864719Y-83034466D01*
X73009466Y-82889719D01*
X73009468Y-82889715D01*
X73009471Y-82889713D01*
X73062232Y-82817090D01*
X73129787Y-82724110D01*
X73222720Y-82541719D01*
X73285977Y-82347034D01*
X73318000Y-82144852D01*
X73318000Y-81940148D01*
X78337000Y-81940148D01*
X78337000Y-82144851D01*
X78369022Y-82347034D01*
X78432281Y-82541723D01*
X78525215Y-82724113D01*
X78645528Y-82889713D01*
X78790286Y-83034471D01*
X78923655Y-83131367D01*
X78955890Y-83154787D01*
X79072107Y-83214003D01*
X79138276Y-83247718D01*
X79138278Y-83247718D01*
X79138281Y-83247720D01*
X79242637Y-83281627D01*
X79332965Y-83310977D01*
X79434057Y-83326988D01*
X79535148Y-83343000D01*
X79535149Y-83343000D01*
X79739851Y-83343000D01*
X79739852Y-83343000D01*
X79942034Y-83310977D01*
X79951043Y-83308050D01*
X79992603Y-83294545D01*
X80136719Y-83247720D01*
X80319110Y-83154787D01*
X80412340Y-83087052D01*
X80484713Y-83034471D01*
X80484715Y-83034468D01*
X80484719Y-83034466D01*
X80629466Y-82889719D01*
X80629468Y-82889715D01*
X80629471Y-82889713D01*
X80682232Y-82817090D01*
X80749787Y-82724110D01*
X80842720Y-82541719D01*
X80905977Y-82347034D01*
X80938000Y-82144852D01*
X80938000Y-81940148D01*
X80905977Y-81737966D01*
X80903816Y-81731316D01*
X80876627Y-81647637D01*
X80842720Y-81543281D01*
X80842718Y-81543278D01*
X80842718Y-81543276D01*
X80809003Y-81477107D01*
X80749787Y-81360890D01*
X80742056Y-81350249D01*
X80629471Y-81195286D01*
X80556932Y-81122747D01*
X88697000Y-81122747D01*
X88697000Y-82962252D01*
X88708631Y-83020729D01*
X88708632Y-83020730D01*
X88752947Y-83087052D01*
X88819269Y-83131367D01*
X88819270Y-83131368D01*
X88877747Y-83142999D01*
X88877750Y-83143000D01*
X88877752Y-83143000D01*
X90717250Y-83143000D01*
X90717251Y-83142999D01*
X90732068Y-83140052D01*
X90775729Y-83131368D01*
X90775729Y-83131367D01*
X90775731Y-83131367D01*
X90842052Y-83087052D01*
X90886367Y-83020731D01*
X90886367Y-83020729D01*
X90886368Y-83020729D01*
X90897999Y-82962252D01*
X90898000Y-82962250D01*
X90898000Y-81358108D01*
X141358500Y-81358108D01*
X141358500Y-81489891D01*
X141392608Y-81617187D01*
X141425554Y-81674250D01*
X141458500Y-81731314D01*
X141551686Y-81824500D01*
X141665814Y-81890392D01*
X141793108Y-81924500D01*
X141793110Y-81924500D01*
X141924890Y-81924500D01*
X141924892Y-81924500D01*
X142052186Y-81890392D01*
X142166314Y-81824500D01*
X142259500Y-81731314D01*
X142325392Y-81617186D01*
X142359500Y-81489892D01*
X142359500Y-81358108D01*
X142325392Y-81230814D01*
X142259500Y-81116686D01*
X142166314Y-81023500D01*
X142109250Y-80990554D01*
X142052187Y-80957608D01*
X141988539Y-80940554D01*
X141924892Y-80923500D01*
X141793108Y-80923500D01*
X141665812Y-80957608D01*
X141551686Y-81023500D01*
X141551683Y-81023502D01*
X141458502Y-81116683D01*
X141458500Y-81116686D01*
X141392608Y-81230812D01*
X141358500Y-81358108D01*
X90898000Y-81358108D01*
X90898000Y-81122749D01*
X90897999Y-81122747D01*
X90886368Y-81064270D01*
X90886367Y-81064269D01*
X90842052Y-80997947D01*
X90775730Y-80953632D01*
X90775729Y-80953631D01*
X90717252Y-80942000D01*
X90717248Y-80942000D01*
X88877752Y-80942000D01*
X88877747Y-80942000D01*
X88819270Y-80953631D01*
X88819269Y-80953632D01*
X88752947Y-80997947D01*
X88708632Y-81064269D01*
X88708631Y-81064270D01*
X88697000Y-81122747D01*
X80556932Y-81122747D01*
X80484713Y-81050528D01*
X80319113Y-80930215D01*
X80319112Y-80930214D01*
X80319110Y-80930213D01*
X80262153Y-80901191D01*
X80136723Y-80837281D01*
X79942034Y-80774022D01*
X79767495Y-80746378D01*
X79739852Y-80742000D01*
X79535148Y-80742000D01*
X79510829Y-80745851D01*
X79332965Y-80774022D01*
X79138276Y-80837281D01*
X78955886Y-80930215D01*
X78790286Y-81050528D01*
X78645528Y-81195286D01*
X78525215Y-81360886D01*
X78432281Y-81543276D01*
X78369022Y-81737965D01*
X78337000Y-81940148D01*
X73318000Y-81940148D01*
X73285977Y-81737966D01*
X73283816Y-81731316D01*
X73256627Y-81647637D01*
X73222720Y-81543281D01*
X73222718Y-81543278D01*
X73222718Y-81543276D01*
X73189003Y-81477107D01*
X73129787Y-81360890D01*
X73122056Y-81350249D01*
X73009471Y-81195286D01*
X72864713Y-81050528D01*
X72699113Y-80930215D01*
X72699112Y-80930214D01*
X72699110Y-80930213D01*
X72642153Y-80901191D01*
X72516723Y-80837281D01*
X72322034Y-80774022D01*
X72147495Y-80746378D01*
X72119852Y-80742000D01*
X71915148Y-80742000D01*
X71890829Y-80745851D01*
X71712965Y-80774022D01*
X71518276Y-80837281D01*
X71335886Y-80930215D01*
X71170286Y-81050528D01*
X71025528Y-81195286D01*
X70905215Y-81360886D01*
X70812281Y-81543276D01*
X70749022Y-81737965D01*
X70717000Y-81940148D01*
X66061714Y-81940148D01*
X65962882Y-81867207D01*
X65962880Y-81867206D01*
X65834700Y-81822353D01*
X65804270Y-81819500D01*
X65804266Y-81819500D01*
X63595734Y-81819500D01*
X63595730Y-81819500D01*
X63565300Y-81822353D01*
X63565298Y-81822353D01*
X63437119Y-81867206D01*
X63437117Y-81867207D01*
X63327850Y-81947850D01*
X63247207Y-82057117D01*
X63247206Y-82057119D01*
X63202353Y-82185298D01*
X63202353Y-82185300D01*
X63199500Y-82215730D01*
X59155500Y-82215730D01*
X59155500Y-80124000D01*
X59175185Y-80056961D01*
X59227989Y-80011206D01*
X59279500Y-80000000D01*
X80900000Y-80000000D01*
X81300000Y-79500000D01*
X81300000Y-77926513D01*
X124815500Y-77926513D01*
X124815500Y-78115486D01*
X124845059Y-78302118D01*
X124903454Y-78481836D01*
X124989240Y-78650199D01*
X125100310Y-78803073D01*
X125233927Y-78936690D01*
X125386801Y-79047760D01*
X125466347Y-79088290D01*
X125555163Y-79133545D01*
X125555165Y-79133545D01*
X125555168Y-79133547D01*
X125651497Y-79164846D01*
X125734881Y-79191940D01*
X125921514Y-79221500D01*
X125921519Y-79221500D01*
X126110486Y-79221500D01*
X126297118Y-79191940D01*
X126476832Y-79133547D01*
X126645199Y-79047760D01*
X126798073Y-78936690D01*
X126931690Y-78803073D01*
X127042760Y-78650199D01*
X127128547Y-78481832D01*
X127183630Y-78312304D01*
X137142500Y-78312304D01*
X137142500Y-78489695D01*
X137177103Y-78663658D01*
X137177106Y-78663667D01*
X137244983Y-78827540D01*
X137244990Y-78827553D01*
X137343535Y-78975034D01*
X137343538Y-78975038D01*
X137468961Y-79100461D01*
X137468965Y-79100464D01*
X137616446Y-79199009D01*
X137616459Y-79199016D01*
X137739363Y-79249923D01*
X137780334Y-79266894D01*
X137780336Y-79266894D01*
X137780341Y-79266896D01*
X137954304Y-79301499D01*
X137954307Y-79301500D01*
X137954309Y-79301500D01*
X138131693Y-79301500D01*
X138131694Y-79301499D01*
X138189682Y-79289964D01*
X138305658Y-79266896D01*
X138305661Y-79266894D01*
X138305666Y-79266894D01*
X138469547Y-79199013D01*
X138617035Y-79100464D01*
X138742464Y-78975035D01*
X138841013Y-78827547D01*
X138908894Y-78663666D01*
X138943500Y-78489691D01*
X138943500Y-78312309D01*
X138943500Y-78312306D01*
X138943499Y-78312304D01*
X138908896Y-78138341D01*
X138908893Y-78138332D01*
X138841016Y-77974459D01*
X138841009Y-77974446D01*
X138742464Y-77826965D01*
X138742461Y-77826961D01*
X138617038Y-77701538D01*
X138617034Y-77701535D01*
X138469553Y-77602990D01*
X138469540Y-77602983D01*
X138305667Y-77535106D01*
X138305658Y-77535103D01*
X138131694Y-77500500D01*
X138131691Y-77500500D01*
X137954309Y-77500500D01*
X137954306Y-77500500D01*
X137780341Y-77535103D01*
X137780332Y-77535106D01*
X137616459Y-77602983D01*
X137616446Y-77602990D01*
X137468965Y-77701535D01*
X137468961Y-77701538D01*
X137343538Y-77826961D01*
X137343535Y-77826965D01*
X137244990Y-77974446D01*
X137244983Y-77974459D01*
X137177106Y-78138332D01*
X137177103Y-78138341D01*
X137142500Y-78312304D01*
X127183630Y-78312304D01*
X127186940Y-78302118D01*
X127195862Y-78245781D01*
X127216500Y-78115486D01*
X127216500Y-77926513D01*
X127186940Y-77739881D01*
X127142460Y-77602987D01*
X127128547Y-77560168D01*
X127128545Y-77560165D01*
X127128545Y-77560163D01*
X127042759Y-77391800D01*
X127030658Y-77375144D01*
X126931690Y-77238927D01*
X126798073Y-77105310D01*
X126645199Y-76994240D01*
X126599580Y-76970996D01*
X126476836Y-76908454D01*
X126297118Y-76850059D01*
X126110486Y-76820500D01*
X126110481Y-76820500D01*
X125921519Y-76820500D01*
X125921514Y-76820500D01*
X125734881Y-76850059D01*
X125555163Y-76908454D01*
X125386800Y-76994240D01*
X125299579Y-77057610D01*
X125233927Y-77105310D01*
X125233925Y-77105312D01*
X125233924Y-77105312D01*
X125100312Y-77238924D01*
X125100312Y-77238925D01*
X125100310Y-77238927D01*
X125076512Y-77271682D01*
X124989240Y-77391800D01*
X124903454Y-77560163D01*
X124845059Y-77739881D01*
X124815500Y-77926513D01*
X81300000Y-77926513D01*
X81300000Y-77532147D01*
X122049500Y-77532147D01*
X122049500Y-77617852D01*
X122071682Y-77700637D01*
X122071685Y-77700644D01*
X122114530Y-77774855D01*
X122114534Y-77774860D01*
X122114535Y-77774862D01*
X122175138Y-77835465D01*
X122175140Y-77835466D01*
X122175144Y-77835469D01*
X122249355Y-77878314D01*
X122249362Y-77878318D01*
X122332147Y-77900500D01*
X122332149Y-77900500D01*
X122417851Y-77900500D01*
X122417853Y-77900500D01*
X122500638Y-77878318D01*
X122574862Y-77835465D01*
X122635465Y-77774862D01*
X122678318Y-77700638D01*
X122700500Y-77617853D01*
X122700500Y-77532147D01*
X122678318Y-77449362D01*
X122678314Y-77449355D01*
X122635469Y-77375144D01*
X122635463Y-77375136D01*
X122574863Y-77314536D01*
X122574855Y-77314530D01*
X122500644Y-77271685D01*
X122500640Y-77271683D01*
X122500638Y-77271682D01*
X122417853Y-77249500D01*
X122332147Y-77249500D01*
X122249362Y-77271682D01*
X122249355Y-77271685D01*
X122175144Y-77314530D01*
X122175136Y-77314536D01*
X122114536Y-77375136D01*
X122114530Y-77375144D01*
X122071685Y-77449355D01*
X122071682Y-77449362D01*
X122049500Y-77532147D01*
X81300000Y-77532147D01*
X81300000Y-76207147D01*
X119024500Y-76207147D01*
X119024500Y-76292853D01*
X119028877Y-76309186D01*
X119046682Y-76375637D01*
X119046685Y-76375644D01*
X119089530Y-76449855D01*
X119089534Y-76449860D01*
X119089535Y-76449862D01*
X119150138Y-76510465D01*
X119150140Y-76510466D01*
X119150144Y-76510469D01*
X119219668Y-76550608D01*
X119224362Y-76553318D01*
X119307147Y-76575500D01*
X119307149Y-76575500D01*
X119392851Y-76575500D01*
X119392853Y-76575500D01*
X119475638Y-76553318D01*
X119549862Y-76510465D01*
X119610465Y-76449862D01*
X119653318Y-76375638D01*
X119675500Y-76292853D01*
X119675500Y-76207147D01*
X119653318Y-76124362D01*
X119648490Y-76116000D01*
X119610469Y-76050144D01*
X119610463Y-76050136D01*
X119549863Y-75989536D01*
X119549855Y-75989530D01*
X119475644Y-75946685D01*
X119475640Y-75946683D01*
X119475638Y-75946682D01*
X119392853Y-75924500D01*
X119307147Y-75924500D01*
X119224362Y-75946682D01*
X119224355Y-75946685D01*
X119150144Y-75989530D01*
X119150136Y-75989536D01*
X119089536Y-76050136D01*
X119089530Y-76050144D01*
X119046685Y-76124355D01*
X119046682Y-76124362D01*
X119024500Y-76207147D01*
X81300000Y-76207147D01*
X81300000Y-75772304D01*
X137142500Y-75772304D01*
X137142500Y-75949695D01*
X137177103Y-76123658D01*
X137177106Y-76123667D01*
X137244983Y-76287540D01*
X137244990Y-76287553D01*
X137343535Y-76435034D01*
X137343538Y-76435038D01*
X137468961Y-76560461D01*
X137468965Y-76560464D01*
X137616446Y-76659009D01*
X137616459Y-76659016D01*
X137739363Y-76709923D01*
X137780334Y-76726894D01*
X137780336Y-76726894D01*
X137780341Y-76726896D01*
X137954304Y-76761499D01*
X137954307Y-76761500D01*
X137954309Y-76761500D01*
X138131693Y-76761500D01*
X138131694Y-76761499D01*
X138189682Y-76749964D01*
X138305658Y-76726896D01*
X138305661Y-76726894D01*
X138305666Y-76726894D01*
X138469547Y-76659013D01*
X138617035Y-76560464D01*
X138626891Y-76550608D01*
X150681500Y-76550608D01*
X150681500Y-76682392D01*
X150693424Y-76726893D01*
X150715608Y-76809687D01*
X150721851Y-76820500D01*
X150781500Y-76923814D01*
X150874686Y-77017000D01*
X150988814Y-77082892D01*
X151116108Y-77117000D01*
X151116110Y-77117000D01*
X151247890Y-77117000D01*
X151247892Y-77117000D01*
X151375186Y-77082892D01*
X151489314Y-77017000D01*
X151582500Y-76923814D01*
X151648392Y-76809686D01*
X151656934Y-76777806D01*
X151693297Y-76718147D01*
X151756143Y-76687617D01*
X151825519Y-76695911D01*
X151879397Y-76740396D01*
X151894639Y-76771581D01*
X151959433Y-76970996D01*
X152066657Y-77181433D01*
X152205483Y-77372510D01*
X152372490Y-77539517D01*
X152563567Y-77678343D01*
X152609084Y-77701535D01*
X152774003Y-77785566D01*
X152774005Y-77785566D01*
X152774008Y-77785568D01*
X152894412Y-77824689D01*
X152998631Y-77858553D01*
X153231903Y-77895500D01*
X153231908Y-77895500D01*
X153468097Y-77895500D01*
X153701368Y-77858553D01*
X153925992Y-77785568D01*
X154136433Y-77678343D01*
X154327510Y-77539517D01*
X154494517Y-77372510D01*
X154633343Y-77181433D01*
X154740568Y-76970992D01*
X154813553Y-76746368D01*
X154840616Y-76575499D01*
X154850500Y-76513097D01*
X154850500Y-76276902D01*
X154813553Y-76043631D01*
X154779689Y-75939412D01*
X154740568Y-75819008D01*
X154740566Y-75819005D01*
X154740566Y-75819003D01*
X154633342Y-75608566D01*
X154625908Y-75598334D01*
X154494517Y-75417490D01*
X154327510Y-75250483D01*
X154136433Y-75111657D01*
X154081384Y-75083608D01*
X153925996Y-75004433D01*
X153701368Y-74931446D01*
X153468097Y-74894500D01*
X153468092Y-74894500D01*
X153231908Y-74894500D01*
X153231903Y-74894500D01*
X152998631Y-74931446D01*
X152774003Y-75004433D01*
X152563566Y-75111657D01*
X152494912Y-75161538D01*
X152372490Y-75250483D01*
X152372488Y-75250485D01*
X152372487Y-75250485D01*
X152205485Y-75417487D01*
X152205485Y-75417488D01*
X152205483Y-75417490D01*
X152164757Y-75473545D01*
X152066657Y-75608566D01*
X151959433Y-75819003D01*
X151886446Y-76043631D01*
X151849500Y-76276902D01*
X151849500Y-76308868D01*
X151829815Y-76375907D01*
X151777011Y-76421662D01*
X151707853Y-76431606D01*
X151644297Y-76402581D01*
X151618113Y-76370869D01*
X151611876Y-76360067D01*
X151582500Y-76309186D01*
X151489314Y-76216000D01*
X151432250Y-76183054D01*
X151375187Y-76150108D01*
X151311539Y-76133054D01*
X151247892Y-76116000D01*
X151116108Y-76116000D01*
X150988812Y-76150108D01*
X150874686Y-76216000D01*
X150874683Y-76216002D01*
X150781502Y-76309183D01*
X150781500Y-76309186D01*
X150715608Y-76423312D01*
X150708494Y-76449863D01*
X150681500Y-76550608D01*
X138626891Y-76550608D01*
X138667036Y-76510463D01*
X138722700Y-76454800D01*
X138742461Y-76435038D01*
X138742464Y-76435035D01*
X138841013Y-76287547D01*
X138908894Y-76123666D01*
X138943500Y-75949691D01*
X138943500Y-75772309D01*
X138943500Y-75772306D01*
X138943499Y-75772304D01*
X138908896Y-75598341D01*
X138908893Y-75598332D01*
X138841016Y-75434459D01*
X138841009Y-75434446D01*
X138742464Y-75286965D01*
X138742461Y-75286961D01*
X138617038Y-75161538D01*
X138617034Y-75161535D01*
X138469553Y-75062990D01*
X138469540Y-75062983D01*
X138305667Y-74995106D01*
X138305658Y-74995103D01*
X138131694Y-74960500D01*
X138131691Y-74960500D01*
X137954309Y-74960500D01*
X137954306Y-74960500D01*
X137780341Y-74995103D01*
X137780332Y-74995106D01*
X137616459Y-75062983D01*
X137616446Y-75062990D01*
X137468965Y-75161535D01*
X137468961Y-75161538D01*
X137343538Y-75286961D01*
X137343535Y-75286965D01*
X137244990Y-75434446D01*
X137244983Y-75434459D01*
X137177106Y-75598332D01*
X137177103Y-75598341D01*
X137142500Y-75772304D01*
X81300000Y-75772304D01*
X81300000Y-74432147D01*
X118874500Y-74432147D01*
X118874500Y-74517852D01*
X118896682Y-74600637D01*
X118896685Y-74600644D01*
X118939530Y-74674855D01*
X118939534Y-74674860D01*
X118939535Y-74674862D01*
X119000138Y-74735465D01*
X119000140Y-74735466D01*
X119000144Y-74735469D01*
X119074355Y-74778314D01*
X119074362Y-74778318D01*
X119157147Y-74800500D01*
X119157149Y-74800500D01*
X119242851Y-74800500D01*
X119242853Y-74800500D01*
X119325638Y-74778318D01*
X119399862Y-74735465D01*
X119460465Y-74674862D01*
X119503318Y-74600638D01*
X119525500Y-74517853D01*
X119525500Y-74432147D01*
X119503318Y-74349362D01*
X119475108Y-74300500D01*
X119460467Y-74275141D01*
X119460463Y-74275136D01*
X119451840Y-74266513D01*
X124849500Y-74266513D01*
X124849500Y-74455486D01*
X124879059Y-74642118D01*
X124937454Y-74821836D01*
X125023240Y-74990199D01*
X125134310Y-75143073D01*
X125267927Y-75276690D01*
X125420801Y-75387760D01*
X125479144Y-75417487D01*
X125589163Y-75473545D01*
X125589165Y-75473545D01*
X125589168Y-75473547D01*
X125685497Y-75504846D01*
X125768881Y-75531940D01*
X125955514Y-75561500D01*
X125955519Y-75561500D01*
X126144486Y-75561500D01*
X126331118Y-75531940D01*
X126510832Y-75473547D01*
X126679199Y-75387760D01*
X126832073Y-75276690D01*
X126965690Y-75143073D01*
X127076760Y-74990199D01*
X127162547Y-74821832D01*
X127220940Y-74642118D01*
X127227510Y-74600637D01*
X127250500Y-74455486D01*
X127250500Y-74266513D01*
X127220940Y-74079881D01*
X127183902Y-73965892D01*
X127162547Y-73900168D01*
X127162545Y-73900165D01*
X127162545Y-73900163D01*
X127076757Y-73731796D01*
X127047022Y-73690870D01*
X127047021Y-73690869D01*
X126999969Y-73626108D01*
X136018500Y-73626108D01*
X136018500Y-73757892D01*
X136035554Y-73821539D01*
X136052608Y-73885187D01*
X136075962Y-73925637D01*
X136118500Y-73999314D01*
X136211686Y-74092500D01*
X136325814Y-74158392D01*
X136453108Y-74192500D01*
X136453110Y-74192500D01*
X136584890Y-74192500D01*
X136584892Y-74192500D01*
X136712186Y-74158392D01*
X136826314Y-74092500D01*
X136919500Y-73999314D01*
X136985392Y-73885186D01*
X137019500Y-73757892D01*
X137019500Y-73626108D01*
X136985392Y-73498814D01*
X136919500Y-73384686D01*
X136826314Y-73291500D01*
X136769250Y-73258554D01*
X136712187Y-73225608D01*
X136648539Y-73208554D01*
X136584892Y-73191500D01*
X136453108Y-73191500D01*
X136325812Y-73225608D01*
X136211686Y-73291500D01*
X136211683Y-73291502D01*
X136118502Y-73384683D01*
X136118500Y-73384686D01*
X136052608Y-73498812D01*
X136025457Y-73600144D01*
X136018500Y-73626108D01*
X126999969Y-73626108D01*
X126965690Y-73578927D01*
X126832073Y-73445310D01*
X126679199Y-73334240D01*
X126510836Y-73248454D01*
X126331118Y-73190059D01*
X126144486Y-73160500D01*
X126144481Y-73160500D01*
X125955519Y-73160500D01*
X125955514Y-73160500D01*
X125768881Y-73190059D01*
X125589163Y-73248454D01*
X125420800Y-73334240D01*
X125351368Y-73384686D01*
X125267927Y-73445310D01*
X125267925Y-73445312D01*
X125267924Y-73445312D01*
X125134312Y-73578924D01*
X125134312Y-73578925D01*
X125134310Y-73578927D01*
X125086610Y-73644579D01*
X125023240Y-73731800D01*
X124937454Y-73900163D01*
X124879059Y-74079881D01*
X124849500Y-74266513D01*
X119451840Y-74266513D01*
X119399863Y-74214536D01*
X119399855Y-74214530D01*
X119325644Y-74171685D01*
X119325640Y-74171683D01*
X119325638Y-74171682D01*
X119242853Y-74149500D01*
X119157147Y-74149500D01*
X119074362Y-74171682D01*
X119074355Y-74171685D01*
X119000144Y-74214530D01*
X119000136Y-74214536D01*
X118939536Y-74275136D01*
X118939530Y-74275144D01*
X118896685Y-74349355D01*
X118896682Y-74349362D01*
X118874500Y-74432147D01*
X81300000Y-74432147D01*
X81300000Y-73757147D01*
X122524500Y-73757147D01*
X122524500Y-73842853D01*
X122539947Y-73900500D01*
X122546682Y-73925637D01*
X122546685Y-73925644D01*
X122589530Y-73999855D01*
X122589534Y-73999860D01*
X122589535Y-73999862D01*
X122650138Y-74060465D01*
X122650140Y-74060466D01*
X122650144Y-74060469D01*
X122724355Y-74103314D01*
X122724362Y-74103318D01*
X122807147Y-74125500D01*
X122807149Y-74125500D01*
X122892851Y-74125500D01*
X122892853Y-74125500D01*
X122975638Y-74103318D01*
X123049862Y-74060465D01*
X123110465Y-73999862D01*
X123153318Y-73925638D01*
X123175500Y-73842853D01*
X123175500Y-73757147D01*
X123153318Y-73674362D01*
X123125459Y-73626108D01*
X123110469Y-73600144D01*
X123110463Y-73600136D01*
X123049863Y-73539536D01*
X123049855Y-73539530D01*
X122975644Y-73496685D01*
X122975640Y-73496683D01*
X122975638Y-73496682D01*
X122892853Y-73474500D01*
X122807147Y-73474500D01*
X122724362Y-73496682D01*
X122724355Y-73496685D01*
X122650144Y-73539530D01*
X122650136Y-73539536D01*
X122589536Y-73600136D01*
X122589530Y-73600144D01*
X122546685Y-73674355D01*
X122546682Y-73674362D01*
X122524500Y-73757147D01*
X81300000Y-73757147D01*
X81300000Y-72634108D01*
X103699500Y-72634108D01*
X103699500Y-72765892D01*
X103703900Y-72782314D01*
X103733608Y-72893187D01*
X103761440Y-72941392D01*
X103799500Y-73007314D01*
X103892686Y-73100500D01*
X104006814Y-73166392D01*
X104134108Y-73200500D01*
X104134110Y-73200500D01*
X104265890Y-73200500D01*
X104265892Y-73200500D01*
X104393186Y-73166392D01*
X104507314Y-73100500D01*
X104600500Y-73007314D01*
X104666392Y-72893186D01*
X104700500Y-72765892D01*
X104700500Y-72634108D01*
X104666392Y-72506814D01*
X104600500Y-72392686D01*
X104507314Y-72299500D01*
X104450250Y-72266554D01*
X104393187Y-72233608D01*
X104329539Y-72216554D01*
X104265892Y-72199500D01*
X104134108Y-72199500D01*
X104006812Y-72233608D01*
X103892686Y-72299500D01*
X103892683Y-72299502D01*
X103799502Y-72392683D01*
X103799500Y-72392686D01*
X103733608Y-72506812D01*
X103724477Y-72540892D01*
X103699500Y-72634108D01*
X81300000Y-72634108D01*
X81300000Y-71934108D01*
X139499500Y-71934108D01*
X139499500Y-72065892D01*
X139509023Y-72101433D01*
X139533608Y-72193187D01*
X139537253Y-72199500D01*
X139599500Y-72307314D01*
X139692686Y-72400500D01*
X139806814Y-72466392D01*
X139934108Y-72500500D01*
X139934110Y-72500500D01*
X140065890Y-72500500D01*
X140065892Y-72500500D01*
X140193186Y-72466392D01*
X140307314Y-72400500D01*
X140400500Y-72307314D01*
X140466392Y-72193186D01*
X140500500Y-72065892D01*
X140500500Y-71934108D01*
X140466392Y-71806814D01*
X140400500Y-71692686D01*
X140307314Y-71599500D01*
X140250250Y-71566554D01*
X140193187Y-71533608D01*
X140129539Y-71516554D01*
X140065892Y-71499500D01*
X139934108Y-71499500D01*
X139806812Y-71533608D01*
X139692686Y-71599500D01*
X139692683Y-71599502D01*
X139599502Y-71692683D01*
X139599500Y-71692686D01*
X139533608Y-71806812D01*
X139511053Y-71890992D01*
X139499500Y-71934108D01*
X81300000Y-71934108D01*
X81300000Y-70334108D01*
X114599500Y-70334108D01*
X114599500Y-70465891D01*
X114633608Y-70593187D01*
X114642579Y-70608725D01*
X114699500Y-70707314D01*
X114792686Y-70800500D01*
X114906814Y-70866392D01*
X115034108Y-70900500D01*
X115034110Y-70900500D01*
X115165890Y-70900500D01*
X115165892Y-70900500D01*
X115293186Y-70866392D01*
X115407314Y-70800500D01*
X115500500Y-70707314D01*
X115516930Y-70678856D01*
X119774500Y-70678856D01*
X119774500Y-70771144D01*
X119780172Y-70792314D01*
X119798387Y-70860290D01*
X119798388Y-70860293D01*
X119844526Y-70940205D01*
X119844529Y-70940209D01*
X119844531Y-70940212D01*
X119909788Y-71005469D01*
X119909791Y-71005470D01*
X119909794Y-71005473D01*
X119989706Y-71051611D01*
X119989707Y-71051611D01*
X119989712Y-71051614D01*
X120078856Y-71075500D01*
X120078858Y-71075500D01*
X120171142Y-71075500D01*
X120171144Y-71075500D01*
X120260288Y-71051614D01*
X120340212Y-71005469D01*
X120405469Y-70940212D01*
X120451614Y-70860288D01*
X120475500Y-70771144D01*
X120475500Y-70678856D01*
X120451614Y-70589712D01*
X120445225Y-70578647D01*
X120445225Y-70578645D01*
X120412239Y-70521513D01*
X124747500Y-70521513D01*
X124747500Y-70710486D01*
X124777059Y-70897118D01*
X124835454Y-71076836D01*
X124921240Y-71245199D01*
X125032310Y-71398073D01*
X125165927Y-71531690D01*
X125318801Y-71642760D01*
X125398347Y-71683290D01*
X125487163Y-71728545D01*
X125487165Y-71728545D01*
X125487168Y-71728547D01*
X125583497Y-71759846D01*
X125666881Y-71786940D01*
X125853514Y-71816500D01*
X125853519Y-71816500D01*
X126042486Y-71816500D01*
X126124514Y-71803508D01*
X126229118Y-71786940D01*
X126408832Y-71728547D01*
X126577199Y-71642760D01*
X126730073Y-71531690D01*
X126863690Y-71398073D01*
X126974760Y-71245199D01*
X126999368Y-71196902D01*
X151849500Y-71196902D01*
X151849500Y-71433097D01*
X151886446Y-71666368D01*
X151959433Y-71890996D01*
X152001981Y-71974500D01*
X152066657Y-72101433D01*
X152205483Y-72292510D01*
X152372490Y-72459517D01*
X152563567Y-72598343D01*
X152633760Y-72634108D01*
X152774003Y-72705566D01*
X152774005Y-72705566D01*
X152774008Y-72705568D01*
X152894412Y-72744689D01*
X152998631Y-72778553D01*
X153231903Y-72815500D01*
X153231908Y-72815500D01*
X153468097Y-72815500D01*
X153701368Y-72778553D01*
X153740334Y-72765892D01*
X153925992Y-72705568D01*
X154136433Y-72598343D01*
X154327510Y-72459517D01*
X154494517Y-72292510D01*
X154633343Y-72101433D01*
X154740568Y-71890992D01*
X154813553Y-71666368D01*
X154817292Y-71642759D01*
X154850500Y-71433097D01*
X154850500Y-71196902D01*
X154813553Y-70963631D01*
X154757888Y-70792314D01*
X154740568Y-70739008D01*
X154740566Y-70739005D01*
X154740566Y-70739003D01*
X154674187Y-70608728D01*
X154633343Y-70528567D01*
X154494517Y-70337490D01*
X154327510Y-70170483D01*
X154136433Y-70031657D01*
X154110823Y-70018608D01*
X153925996Y-69924433D01*
X153701368Y-69851446D01*
X153468097Y-69814500D01*
X153468092Y-69814500D01*
X153231908Y-69814500D01*
X153231903Y-69814500D01*
X152998631Y-69851446D01*
X152774003Y-69924433D01*
X152563566Y-70031657D01*
X152490835Y-70084500D01*
X152372490Y-70170483D01*
X152372488Y-70170485D01*
X152372487Y-70170485D01*
X152205485Y-70337487D01*
X152205485Y-70337488D01*
X152205483Y-70337490D01*
X152178594Y-70374500D01*
X152066657Y-70528566D01*
X151959433Y-70739003D01*
X151886446Y-70963631D01*
X151849500Y-71196902D01*
X126999368Y-71196902D01*
X127010980Y-71174111D01*
X127030532Y-71135741D01*
X127030533Y-71135739D01*
X127060544Y-71076839D01*
X127060544Y-71076835D01*
X127060547Y-71076832D01*
X127118940Y-70897118D01*
X127120780Y-70885500D01*
X127148500Y-70710486D01*
X127148500Y-70521513D01*
X127118940Y-70334881D01*
X127077327Y-70206812D01*
X127060547Y-70155168D01*
X127060545Y-70155165D01*
X127060545Y-70155163D01*
X126974759Y-69986800D01*
X126973088Y-69984500D01*
X126863690Y-69833927D01*
X126730073Y-69700310D01*
X126577199Y-69589240D01*
X126408836Y-69503454D01*
X126229118Y-69445059D01*
X126042486Y-69415500D01*
X126042481Y-69415500D01*
X125853519Y-69415500D01*
X125853514Y-69415500D01*
X125666881Y-69445059D01*
X125487163Y-69503454D01*
X125318800Y-69589240D01*
X125231579Y-69652610D01*
X125165927Y-69700310D01*
X125165925Y-69700312D01*
X125165924Y-69700312D01*
X125032312Y-69833924D01*
X125032312Y-69833925D01*
X125032310Y-69833927D01*
X125019582Y-69851446D01*
X124921240Y-69986800D01*
X124835454Y-70155163D01*
X124777059Y-70334881D01*
X124747500Y-70521513D01*
X120412239Y-70521513D01*
X120405473Y-70509794D01*
X120405470Y-70509791D01*
X120405469Y-70509788D01*
X120340212Y-70444531D01*
X120340209Y-70444529D01*
X120340205Y-70444526D01*
X120260293Y-70398388D01*
X120260290Y-70398387D01*
X120260289Y-70398386D01*
X120260288Y-70398386D01*
X120171144Y-70374500D01*
X120078856Y-70374500D01*
X119989712Y-70398386D01*
X119989711Y-70398386D01*
X119989709Y-70398387D01*
X119989706Y-70398388D01*
X119909794Y-70444526D01*
X119909785Y-70444533D01*
X119844533Y-70509785D01*
X119844526Y-70509794D01*
X119798388Y-70589706D01*
X119798387Y-70589709D01*
X119798386Y-70589711D01*
X119798386Y-70589712D01*
X119774500Y-70678856D01*
X115516930Y-70678856D01*
X115557421Y-70608725D01*
X115566389Y-70593193D01*
X115566389Y-70593190D01*
X115566392Y-70593186D01*
X115600500Y-70465892D01*
X115600500Y-70334108D01*
X115566392Y-70206814D01*
X115500500Y-70092686D01*
X115407314Y-69999500D01*
X115350250Y-69966554D01*
X115293187Y-69933608D01*
X115229539Y-69916554D01*
X115165892Y-69899500D01*
X115034108Y-69899500D01*
X114906812Y-69933608D01*
X114792686Y-69999500D01*
X114792683Y-69999502D01*
X114699502Y-70092683D01*
X114699500Y-70092686D01*
X114633608Y-70206812D01*
X114599500Y-70334108D01*
X81300000Y-70334108D01*
X81300000Y-70300000D01*
X81201687Y-69710122D01*
X81200000Y-69689737D01*
X81200000Y-69289733D01*
X116983875Y-69289733D01*
X116983875Y-69421516D01*
X117017983Y-69548812D01*
X117041325Y-69589240D01*
X117083875Y-69662939D01*
X117177061Y-69756125D01*
X117291189Y-69822017D01*
X117418483Y-69856125D01*
X117418485Y-69856125D01*
X117550265Y-69856125D01*
X117550267Y-69856125D01*
X117677561Y-69822017D01*
X117791689Y-69756125D01*
X117884875Y-69662939D01*
X117950767Y-69548811D01*
X117984875Y-69421517D01*
X117984875Y-69289733D01*
X117950767Y-69162439D01*
X117884875Y-69048311D01*
X117791689Y-68955125D01*
X117734625Y-68922179D01*
X117677562Y-68889233D01*
X117613914Y-68872179D01*
X117550267Y-68855125D01*
X117418483Y-68855125D01*
X117291187Y-68889233D01*
X117177061Y-68955125D01*
X117177058Y-68955127D01*
X117083877Y-69048308D01*
X117083875Y-69048311D01*
X117017983Y-69162437D01*
X116983875Y-69289733D01*
X81200000Y-69289733D01*
X81200000Y-67234108D01*
X86099500Y-67234108D01*
X86099500Y-67365892D01*
X86116554Y-67429539D01*
X86133608Y-67493187D01*
X86146717Y-67515892D01*
X86199500Y-67607314D01*
X86292686Y-67700500D01*
X86406814Y-67766392D01*
X86534108Y-67800500D01*
X86534110Y-67800500D01*
X86665890Y-67800500D01*
X86665892Y-67800500D01*
X86793186Y-67766392D01*
X86907314Y-67700500D01*
X87000500Y-67607314D01*
X87066392Y-67493186D01*
X87095619Y-67384108D01*
X111599500Y-67384108D01*
X111599500Y-67515891D01*
X111633608Y-67643187D01*
X111666121Y-67699500D01*
X111699500Y-67757314D01*
X111792686Y-67850500D01*
X111906814Y-67916392D01*
X112034108Y-67950500D01*
X112034110Y-67950500D01*
X112165890Y-67950500D01*
X112165892Y-67950500D01*
X112293186Y-67916392D01*
X112407314Y-67850500D01*
X112500500Y-67757314D01*
X112566392Y-67643186D01*
X112600500Y-67515892D01*
X112600500Y-67384108D01*
X112566392Y-67256814D01*
X112500500Y-67142686D01*
X112407314Y-67049500D01*
X112308910Y-66992686D01*
X112293187Y-66983608D01*
X112228934Y-66966392D01*
X112165892Y-66949500D01*
X112034108Y-66949500D01*
X111906812Y-66983608D01*
X111792686Y-67049500D01*
X111792683Y-67049502D01*
X111699502Y-67142683D01*
X111699500Y-67142686D01*
X111633608Y-67256812D01*
X111599500Y-67384108D01*
X87095619Y-67384108D01*
X87100500Y-67365892D01*
X87100500Y-67234108D01*
X87066392Y-67106814D01*
X87000500Y-66992686D01*
X86907314Y-66899500D01*
X86850250Y-66866554D01*
X86793187Y-66833608D01*
X86729539Y-66816554D01*
X86665892Y-66799500D01*
X86534108Y-66799500D01*
X86406812Y-66833608D01*
X86292686Y-66899500D01*
X86292683Y-66899502D01*
X86199502Y-66992683D01*
X86199500Y-66992686D01*
X86133608Y-67106812D01*
X86123997Y-67142683D01*
X86099500Y-67234108D01*
X81200000Y-67234108D01*
X81200000Y-65059597D01*
X81200710Y-65057175D01*
X81200096Y-65054730D01*
X81210501Y-65023832D01*
X81219685Y-64992558D01*
X81221839Y-64990168D01*
X81222396Y-64988515D01*
X81246535Y-64962771D01*
X81282364Y-64934108D01*
X107599500Y-64934108D01*
X107599500Y-65065891D01*
X107633608Y-65193187D01*
X107643604Y-65210500D01*
X107699500Y-65307314D01*
X107792686Y-65400500D01*
X107906814Y-65466392D01*
X108034108Y-65500500D01*
X108034110Y-65500500D01*
X108165890Y-65500500D01*
X108165892Y-65500500D01*
X108293186Y-65466392D01*
X108407314Y-65400500D01*
X108500500Y-65307314D01*
X108566392Y-65193186D01*
X108600500Y-65065892D01*
X108600500Y-64934108D01*
X108566392Y-64806814D01*
X108500500Y-64692686D01*
X108407314Y-64599500D01*
X108350250Y-64566554D01*
X108293187Y-64533608D01*
X108229539Y-64516554D01*
X108165892Y-64499500D01*
X108034108Y-64499500D01*
X107906812Y-64533608D01*
X107792686Y-64599500D01*
X107792683Y-64599502D01*
X107699502Y-64692683D01*
X107699500Y-64692686D01*
X107633608Y-64806812D01*
X107599500Y-64934108D01*
X81282364Y-64934108D01*
X81666035Y-64627172D01*
X81730681Y-64600664D01*
X81743497Y-64600000D01*
X84458594Y-64600000D01*
X84520594Y-64616613D01*
X84606814Y-64666392D01*
X84734108Y-64700500D01*
X84734110Y-64700500D01*
X84865890Y-64700500D01*
X84865892Y-64700500D01*
X84993186Y-64666392D01*
X85079406Y-64616613D01*
X85141406Y-64600000D01*
X91000000Y-64600000D01*
X91300000Y-64200000D01*
X91300000Y-62334108D01*
X106289500Y-62334108D01*
X106289500Y-62465892D01*
X106306554Y-62529539D01*
X106323608Y-62593187D01*
X106339763Y-62621168D01*
X106389500Y-62707314D01*
X106482686Y-62800500D01*
X106596814Y-62866392D01*
X106724108Y-62900500D01*
X106724110Y-62900500D01*
X106855890Y-62900500D01*
X106855892Y-62900500D01*
X106983186Y-62866392D01*
X107097314Y-62800500D01*
X107190500Y-62707314D01*
X107256392Y-62593186D01*
X107258824Y-62584108D01*
X110049500Y-62584108D01*
X110049500Y-62715891D01*
X110083608Y-62843187D01*
X110097005Y-62866391D01*
X110149500Y-62957314D01*
X110242686Y-63050500D01*
X110356814Y-63116392D01*
X110484108Y-63150500D01*
X110484110Y-63150500D01*
X110615890Y-63150500D01*
X110615892Y-63150500D01*
X110743186Y-63116392D01*
X110857314Y-63050500D01*
X110950500Y-62957314D01*
X111016392Y-62843186D01*
X111050500Y-62715892D01*
X111050500Y-62584108D01*
X111016392Y-62456814D01*
X110950500Y-62342686D01*
X110857314Y-62249500D01*
X110783380Y-62206814D01*
X110743187Y-62183608D01*
X110678628Y-62166310D01*
X110615892Y-62149500D01*
X110484108Y-62149500D01*
X110356812Y-62183608D01*
X110242686Y-62249500D01*
X110242683Y-62249502D01*
X110149502Y-62342683D01*
X110149500Y-62342686D01*
X110083608Y-62456812D01*
X110049500Y-62584108D01*
X107258824Y-62584108D01*
X107290500Y-62465892D01*
X107290500Y-62334108D01*
X107256392Y-62206814D01*
X107190500Y-62092686D01*
X107097314Y-61999500D01*
X107040250Y-61966554D01*
X106983187Y-61933608D01*
X106899035Y-61911060D01*
X106855892Y-61899500D01*
X106724108Y-61899500D01*
X106596812Y-61933608D01*
X106482686Y-61999500D01*
X106482683Y-61999502D01*
X106389502Y-62092683D01*
X106389500Y-62092686D01*
X106323608Y-62206812D01*
X106312170Y-62249500D01*
X106289500Y-62334108D01*
X91300000Y-62334108D01*
X91300000Y-60634108D01*
X97544500Y-60634108D01*
X97544500Y-60765892D01*
X97551813Y-60793186D01*
X97578608Y-60893187D01*
X97586766Y-60907316D01*
X97644500Y-61007314D01*
X97737686Y-61100500D01*
X97851814Y-61166392D01*
X97979108Y-61200500D01*
X97979110Y-61200500D01*
X98110890Y-61200500D01*
X98110892Y-61200500D01*
X98238186Y-61166392D01*
X98352314Y-61100500D01*
X98445500Y-61007314D01*
X98511392Y-60893186D01*
X98545500Y-60765892D01*
X98545500Y-60634108D01*
X98518705Y-60534108D01*
X100694500Y-60534108D01*
X100694500Y-60665891D01*
X100728608Y-60793187D01*
X100752234Y-60834108D01*
X100794500Y-60907314D01*
X100887686Y-61000500D01*
X101001814Y-61066392D01*
X101129108Y-61100500D01*
X101129110Y-61100500D01*
X101260890Y-61100500D01*
X101260892Y-61100500D01*
X101388186Y-61066392D01*
X101502314Y-61000500D01*
X101595500Y-60907314D01*
X101661392Y-60793186D01*
X101695500Y-60665892D01*
X101695500Y-60534108D01*
X101678727Y-60471508D01*
X102127500Y-60471508D01*
X102127500Y-60603291D01*
X102161608Y-60730587D01*
X102181991Y-60765890D01*
X102227500Y-60844714D01*
X102320686Y-60937900D01*
X102434814Y-61003792D01*
X102562108Y-61037900D01*
X102562110Y-61037900D01*
X102693890Y-61037900D01*
X102693892Y-61037900D01*
X102821186Y-61003792D01*
X102935314Y-60937900D01*
X103028500Y-60844714D01*
X103094392Y-60730586D01*
X103128500Y-60603292D01*
X103128500Y-60471508D01*
X103094392Y-60344214D01*
X103028500Y-60230086D01*
X102935314Y-60136900D01*
X102871164Y-60099863D01*
X102821187Y-60071008D01*
X102757539Y-60053954D01*
X102693892Y-60036900D01*
X102562108Y-60036900D01*
X102434812Y-60071008D01*
X102320686Y-60136900D01*
X102320683Y-60136902D01*
X102227502Y-60230083D01*
X102227500Y-60230086D01*
X102161608Y-60344212D01*
X102127500Y-60471508D01*
X101678727Y-60471508D01*
X101661392Y-60406814D01*
X101595500Y-60292686D01*
X101502314Y-60199500D01*
X101444100Y-60165890D01*
X101388187Y-60133608D01*
X101324539Y-60116554D01*
X101260892Y-60099500D01*
X101129108Y-60099500D01*
X101001812Y-60133608D01*
X100887686Y-60199500D01*
X100887683Y-60199502D01*
X100794502Y-60292683D01*
X100794500Y-60292686D01*
X100728608Y-60406812D01*
X100694500Y-60534108D01*
X98518705Y-60534108D01*
X98511392Y-60506814D01*
X98445500Y-60392686D01*
X98352314Y-60299500D01*
X98294103Y-60265892D01*
X98238187Y-60233608D01*
X98174539Y-60216554D01*
X98110892Y-60199500D01*
X97979108Y-60199500D01*
X97851812Y-60233608D01*
X97737686Y-60299500D01*
X97737683Y-60299502D01*
X97644502Y-60392683D01*
X97644500Y-60392686D01*
X97578608Y-60506812D01*
X97552757Y-60603291D01*
X97544500Y-60634108D01*
X91300000Y-60634108D01*
X91300000Y-59857147D01*
X113785500Y-59857147D01*
X113785500Y-59942853D01*
X113789579Y-59958074D01*
X113807682Y-60025637D01*
X113807685Y-60025644D01*
X113850530Y-60099855D01*
X113850534Y-60099860D01*
X113850535Y-60099862D01*
X113911138Y-60160465D01*
X113911140Y-60160466D01*
X113911144Y-60160469D01*
X113967814Y-60193187D01*
X113985362Y-60203318D01*
X114068147Y-60225500D01*
X114068149Y-60225500D01*
X114153851Y-60225500D01*
X114153853Y-60225500D01*
X114236638Y-60203318D01*
X114310862Y-60160465D01*
X114371465Y-60099862D01*
X114409428Y-60034108D01*
X120399500Y-60034108D01*
X120399500Y-60165892D01*
X120415472Y-60225500D01*
X120433608Y-60293187D01*
X120441766Y-60307316D01*
X120499500Y-60407314D01*
X120592686Y-60500500D01*
X120706814Y-60566392D01*
X120834108Y-60600500D01*
X120834110Y-60600500D01*
X120965890Y-60600500D01*
X120965892Y-60600500D01*
X121093186Y-60566392D01*
X121207314Y-60500500D01*
X121300500Y-60407314D01*
X121366392Y-60293186D01*
X121400500Y-60165892D01*
X121400500Y-60034108D01*
X121373705Y-59934108D01*
X121999500Y-59934108D01*
X121999500Y-60065892D01*
X122010599Y-60107314D01*
X122033608Y-60193187D01*
X122054912Y-60230086D01*
X122099500Y-60307314D01*
X122192686Y-60400500D01*
X122306814Y-60466392D01*
X122434108Y-60500500D01*
X122434110Y-60500500D01*
X122565890Y-60500500D01*
X122565892Y-60500500D01*
X122693186Y-60466392D01*
X122807314Y-60400500D01*
X122900500Y-60307314D01*
X122966392Y-60193186D01*
X123000500Y-60065892D01*
X123000500Y-59934108D01*
X122966392Y-59806814D01*
X122900500Y-59692686D01*
X122807314Y-59599500D01*
X122749968Y-59566391D01*
X122693187Y-59533608D01*
X122629539Y-59516554D01*
X122565892Y-59499500D01*
X122434108Y-59499500D01*
X122306812Y-59533608D01*
X122192686Y-59599500D01*
X122192683Y-59599502D01*
X122099502Y-59692683D01*
X122099500Y-59692686D01*
X122033608Y-59806812D01*
X122027261Y-59830500D01*
X121999500Y-59934108D01*
X121373705Y-59934108D01*
X121366392Y-59906814D01*
X121300500Y-59792686D01*
X121207314Y-59699500D01*
X121103454Y-59639536D01*
X121093187Y-59633608D01*
X120993188Y-59606814D01*
X120965892Y-59599500D01*
X120834108Y-59599500D01*
X120706812Y-59633608D01*
X120592686Y-59699500D01*
X120592683Y-59699502D01*
X120499502Y-59792683D01*
X120499500Y-59792686D01*
X120433608Y-59906812D01*
X120401768Y-60025644D01*
X120399500Y-60034108D01*
X114409428Y-60034108D01*
X114414318Y-60025638D01*
X114436500Y-59942853D01*
X114436500Y-59857147D01*
X114414318Y-59774362D01*
X114414314Y-59774355D01*
X114371469Y-59700144D01*
X114371463Y-59700136D01*
X114310863Y-59639536D01*
X114310855Y-59639530D01*
X114236644Y-59596685D01*
X114236640Y-59596683D01*
X114236638Y-59596682D01*
X114153853Y-59574500D01*
X114068147Y-59574500D01*
X113985362Y-59596682D01*
X113985355Y-59596685D01*
X113911144Y-59639530D01*
X113911136Y-59639536D01*
X113850536Y-59700136D01*
X113850530Y-59700144D01*
X113807685Y-59774355D01*
X113807682Y-59774362D01*
X113785500Y-59857147D01*
X91300000Y-59857147D01*
X91300000Y-59034108D01*
X107599500Y-59034108D01*
X107599500Y-59165891D01*
X107633608Y-59293187D01*
X107637253Y-59299500D01*
X107699500Y-59407314D01*
X107792686Y-59500500D01*
X107906814Y-59566392D01*
X108034108Y-59600500D01*
X108034110Y-59600500D01*
X108165890Y-59600500D01*
X108165892Y-59600500D01*
X108293186Y-59566392D01*
X108407314Y-59500500D01*
X108500500Y-59407314D01*
X108566392Y-59293186D01*
X108600500Y-59165892D01*
X108600500Y-59034108D01*
X108566392Y-58906814D01*
X108565917Y-58905992D01*
X108557563Y-58891521D01*
X108500500Y-58792686D01*
X108407314Y-58699500D01*
X108349968Y-58666391D01*
X108293187Y-58633608D01*
X108229539Y-58616554D01*
X108165892Y-58599500D01*
X108034108Y-58599500D01*
X107906812Y-58633608D01*
X107792686Y-58699500D01*
X107792683Y-58699502D01*
X107699502Y-58792683D01*
X107699500Y-58792686D01*
X107633608Y-58906812D01*
X107599500Y-59034108D01*
X91300000Y-59034108D01*
X91300000Y-58134108D01*
X119399500Y-58134108D01*
X119399500Y-58265891D01*
X119433608Y-58393187D01*
X119465308Y-58448092D01*
X119499500Y-58507314D01*
X119592686Y-58600500D01*
X119706814Y-58666392D01*
X119834108Y-58700500D01*
X119834110Y-58700500D01*
X119965890Y-58700500D01*
X119965892Y-58700500D01*
X120093186Y-58666392D01*
X120207314Y-58600500D01*
X120300500Y-58507314D01*
X120366392Y-58393186D01*
X120400500Y-58265892D01*
X120400500Y-58134108D01*
X120366392Y-58006814D01*
X120300500Y-57892686D01*
X120207314Y-57799500D01*
X120128520Y-57754008D01*
X120093187Y-57733608D01*
X119993188Y-57706814D01*
X119965892Y-57699500D01*
X119834108Y-57699500D01*
X119706812Y-57733608D01*
X119592686Y-57799500D01*
X119592683Y-57799502D01*
X119499502Y-57892683D01*
X119499500Y-57892686D01*
X119433608Y-58006812D01*
X119399500Y-58134108D01*
X91300000Y-58134108D01*
X91300000Y-56734108D01*
X95999500Y-56734108D01*
X95999500Y-56865891D01*
X96033608Y-56993187D01*
X96056200Y-57032316D01*
X96099500Y-57107314D01*
X96192686Y-57200500D01*
X96306814Y-57266392D01*
X96434108Y-57300500D01*
X96434110Y-57300500D01*
X96565890Y-57300500D01*
X96565892Y-57300500D01*
X96693186Y-57266392D01*
X96807314Y-57200500D01*
X96900500Y-57107314D01*
X96966392Y-56993186D01*
X97000500Y-56865892D01*
X97000500Y-56734108D01*
X97499500Y-56734108D01*
X97499500Y-56865891D01*
X97533608Y-56993187D01*
X97556200Y-57032316D01*
X97599500Y-57107314D01*
X97692686Y-57200500D01*
X97806814Y-57266392D01*
X97934108Y-57300500D01*
X97934110Y-57300500D01*
X98065890Y-57300500D01*
X98065892Y-57300500D01*
X98193186Y-57266392D01*
X98307314Y-57200500D01*
X98400500Y-57107314D01*
X98466392Y-56993186D01*
X98500500Y-56865892D01*
X98500500Y-56734108D01*
X98480404Y-56659108D01*
X99124500Y-56659108D01*
X99124500Y-56790891D01*
X99158608Y-56918187D01*
X99170874Y-56939432D01*
X99224500Y-57032314D01*
X99317686Y-57125500D01*
X99431814Y-57191392D01*
X99559108Y-57225500D01*
X99559110Y-57225500D01*
X99690890Y-57225500D01*
X99690892Y-57225500D01*
X99818186Y-57191392D01*
X99932314Y-57125500D01*
X100025500Y-57032314D01*
X100091392Y-56918186D01*
X100125500Y-56790892D01*
X100125500Y-56734108D01*
X100699500Y-56734108D01*
X100699500Y-56865891D01*
X100733608Y-56993187D01*
X100756200Y-57032316D01*
X100799500Y-57107314D01*
X100892686Y-57200500D01*
X101006814Y-57266392D01*
X101134108Y-57300500D01*
X101134110Y-57300500D01*
X101265890Y-57300500D01*
X101265892Y-57300500D01*
X101393186Y-57266392D01*
X101507314Y-57200500D01*
X101600500Y-57107314D01*
X101666392Y-56993186D01*
X101700500Y-56865892D01*
X101700500Y-56740691D01*
X103149500Y-56740691D01*
X103149500Y-56859309D01*
X103180201Y-56973886D01*
X103239511Y-57076613D01*
X103323387Y-57160489D01*
X103426114Y-57219799D01*
X103540691Y-57250500D01*
X103540694Y-57250500D01*
X103659306Y-57250500D01*
X103659309Y-57250500D01*
X103773886Y-57219799D01*
X103876613Y-57160489D01*
X103960489Y-57076613D01*
X103984163Y-57035609D01*
X107564034Y-57035609D01*
X107564034Y-57127897D01*
X107581047Y-57191392D01*
X107587921Y-57217043D01*
X107587922Y-57217046D01*
X107634060Y-57296958D01*
X107634063Y-57296962D01*
X107634065Y-57296965D01*
X107699322Y-57362222D01*
X107699325Y-57362223D01*
X107699328Y-57362226D01*
X107779240Y-57408364D01*
X107779241Y-57408364D01*
X107779246Y-57408367D01*
X107868390Y-57432253D01*
X107868392Y-57432253D01*
X107960676Y-57432253D01*
X107960678Y-57432253D01*
X108049822Y-57408367D01*
X108129746Y-57362222D01*
X108195003Y-57296965D01*
X108241148Y-57217041D01*
X108265034Y-57127897D01*
X108265034Y-57035609D01*
X108241148Y-56946465D01*
X108241145Y-56946459D01*
X108195007Y-56866547D01*
X108195004Y-56866544D01*
X108195003Y-56866541D01*
X108129746Y-56801284D01*
X108129743Y-56801282D01*
X108129739Y-56801279D01*
X108049827Y-56755141D01*
X108049824Y-56755140D01*
X108049823Y-56755139D01*
X108049822Y-56755139D01*
X107960678Y-56731253D01*
X107868390Y-56731253D01*
X107779246Y-56755139D01*
X107779245Y-56755139D01*
X107779243Y-56755140D01*
X107779240Y-56755141D01*
X107699328Y-56801279D01*
X107699319Y-56801286D01*
X107634067Y-56866538D01*
X107634060Y-56866547D01*
X107587922Y-56946459D01*
X107587921Y-56946462D01*
X107587920Y-56946464D01*
X107587920Y-56946465D01*
X107564034Y-57035609D01*
X103984163Y-57035609D01*
X104019799Y-56973886D01*
X104050500Y-56859309D01*
X104050500Y-56740691D01*
X104019799Y-56626114D01*
X103960489Y-56523387D01*
X103876613Y-56439511D01*
X103867255Y-56434108D01*
X118899500Y-56434108D01*
X118899500Y-56565891D01*
X118933608Y-56693187D01*
X118961035Y-56740691D01*
X118999500Y-56807314D01*
X119092686Y-56900500D01*
X119206814Y-56966392D01*
X119334108Y-57000500D01*
X119334110Y-57000500D01*
X119465890Y-57000500D01*
X119465892Y-57000500D01*
X119593186Y-56966392D01*
X119707314Y-56900500D01*
X119800500Y-56807314D01*
X119866392Y-56693186D01*
X119900500Y-56565892D01*
X119900500Y-56434108D01*
X119866392Y-56306814D01*
X119862169Y-56299500D01*
X119800503Y-56192691D01*
X119800502Y-56192690D01*
X119800500Y-56192686D01*
X119741922Y-56134108D01*
X133499500Y-56134108D01*
X133499500Y-56265891D01*
X133533608Y-56393187D01*
X133560354Y-56439511D01*
X133599500Y-56507314D01*
X133692686Y-56600500D01*
X133806814Y-56666392D01*
X133934108Y-56700500D01*
X133934110Y-56700500D01*
X134065890Y-56700500D01*
X134065892Y-56700500D01*
X134193186Y-56666392D01*
X134307314Y-56600500D01*
X134400500Y-56507314D01*
X134466392Y-56393186D01*
X134500500Y-56265892D01*
X134500500Y-56134108D01*
X134466392Y-56006814D01*
X134400500Y-55892686D01*
X134307314Y-55799500D01*
X134249103Y-55765892D01*
X134193187Y-55733608D01*
X134115954Y-55712914D01*
X134065892Y-55699500D01*
X133934108Y-55699500D01*
X133806812Y-55733608D01*
X133692686Y-55799500D01*
X133692683Y-55799502D01*
X133599502Y-55892683D01*
X133599500Y-55892686D01*
X133533608Y-56006812D01*
X133499500Y-56134108D01*
X119741922Y-56134108D01*
X119707314Y-56099500D01*
X119650250Y-56066554D01*
X119593187Y-56033608D01*
X119529539Y-56016554D01*
X119465892Y-55999500D01*
X119334108Y-55999500D01*
X119206812Y-56033608D01*
X119092686Y-56099500D01*
X119092683Y-56099502D01*
X118999502Y-56192683D01*
X118999500Y-56192686D01*
X118933608Y-56306812D01*
X118899500Y-56434108D01*
X103867255Y-56434108D01*
X103773886Y-56380201D01*
X103659309Y-56349500D01*
X103540691Y-56349500D01*
X103426114Y-56380201D01*
X103426112Y-56380201D01*
X103426112Y-56380202D01*
X103323387Y-56439511D01*
X103323384Y-56439513D01*
X103239513Y-56523384D01*
X103239511Y-56523387D01*
X103214971Y-56565892D01*
X103180201Y-56626114D01*
X103149500Y-56740691D01*
X101700500Y-56740691D01*
X101700500Y-56734108D01*
X101666392Y-56606814D01*
X101600500Y-56492686D01*
X101507314Y-56399500D01*
X101420712Y-56349500D01*
X101393187Y-56333608D01*
X101293188Y-56306814D01*
X101265892Y-56299500D01*
X101134108Y-56299500D01*
X101006812Y-56333608D01*
X100892686Y-56399500D01*
X100892683Y-56399502D01*
X100799502Y-56492683D01*
X100799500Y-56492686D01*
X100733608Y-56606812D01*
X100699500Y-56734108D01*
X100125500Y-56734108D01*
X100125500Y-56659108D01*
X100091392Y-56531814D01*
X100025500Y-56417686D01*
X99932314Y-56324500D01*
X99875250Y-56291554D01*
X99818187Y-56258608D01*
X99754539Y-56241554D01*
X99690892Y-56224500D01*
X99559108Y-56224500D01*
X99431812Y-56258608D01*
X99317686Y-56324500D01*
X99317683Y-56324502D01*
X99224502Y-56417683D01*
X99224500Y-56417686D01*
X99158608Y-56531812D01*
X99124500Y-56659108D01*
X98480404Y-56659108D01*
X98466392Y-56606814D01*
X98400500Y-56492686D01*
X98307314Y-56399500D01*
X98220712Y-56349500D01*
X98193187Y-56333608D01*
X98093188Y-56306814D01*
X98065892Y-56299500D01*
X97934108Y-56299500D01*
X97806812Y-56333608D01*
X97692686Y-56399500D01*
X97692683Y-56399502D01*
X97599502Y-56492683D01*
X97599500Y-56492686D01*
X97533608Y-56606812D01*
X97499500Y-56734108D01*
X97000500Y-56734108D01*
X96966392Y-56606814D01*
X96900500Y-56492686D01*
X96807314Y-56399500D01*
X96720712Y-56349500D01*
X96693187Y-56333608D01*
X96593188Y-56306814D01*
X96565892Y-56299500D01*
X96434108Y-56299500D01*
X96306812Y-56333608D01*
X96192686Y-56399500D01*
X96192683Y-56399502D01*
X96099502Y-56492683D01*
X96099500Y-56492686D01*
X96033608Y-56606812D01*
X95999500Y-56734108D01*
X91300000Y-56734108D01*
X91300000Y-55155224D01*
X91319685Y-55088185D01*
X91341041Y-55063062D01*
X91706545Y-54734108D01*
X96599500Y-54734108D01*
X96599500Y-54865892D01*
X96606714Y-54892815D01*
X96633608Y-54993187D01*
X96649152Y-55020109D01*
X96699500Y-55107314D01*
X96792686Y-55200500D01*
X96906814Y-55266392D01*
X97034108Y-55300500D01*
X97034110Y-55300500D01*
X97165890Y-55300500D01*
X97165892Y-55300500D01*
X97293186Y-55266392D01*
X97407314Y-55200500D01*
X97500500Y-55107314D01*
X97550848Y-55020109D01*
X99849500Y-55020109D01*
X99849500Y-55151892D01*
X99883608Y-55279188D01*
X99895913Y-55300500D01*
X99949500Y-55393315D01*
X100042686Y-55486501D01*
X100156814Y-55552393D01*
X100284108Y-55586501D01*
X100284110Y-55586501D01*
X100415890Y-55586501D01*
X100415892Y-55586501D01*
X100543186Y-55552393D01*
X100657314Y-55486501D01*
X100750500Y-55393315D01*
X100765839Y-55366747D01*
X106409100Y-55366747D01*
X106409100Y-55452453D01*
X106425361Y-55513138D01*
X106431282Y-55535237D01*
X106431285Y-55535244D01*
X106474130Y-55609455D01*
X106474134Y-55609460D01*
X106474135Y-55609462D01*
X106534738Y-55670065D01*
X106534740Y-55670066D01*
X106534744Y-55670069D01*
X106570683Y-55690818D01*
X106608962Y-55712918D01*
X106691747Y-55735100D01*
X106691749Y-55735100D01*
X106777451Y-55735100D01*
X106777453Y-55735100D01*
X106860238Y-55712918D01*
X106934462Y-55670065D01*
X106995065Y-55609462D01*
X107037918Y-55535238D01*
X107060100Y-55452453D01*
X107060100Y-55366747D01*
X107054178Y-55344647D01*
X119074500Y-55344647D01*
X119074500Y-55430353D01*
X119089545Y-55486500D01*
X119096682Y-55513137D01*
X119096685Y-55513144D01*
X119139530Y-55587355D01*
X119139534Y-55587360D01*
X119139535Y-55587362D01*
X119200138Y-55647965D01*
X119200140Y-55647966D01*
X119200144Y-55647969D01*
X119238423Y-55670069D01*
X119274362Y-55690818D01*
X119357147Y-55713000D01*
X119357149Y-55713000D01*
X119442851Y-55713000D01*
X119442853Y-55713000D01*
X119525638Y-55690818D01*
X119599862Y-55647965D01*
X119660465Y-55587362D01*
X119703318Y-55513138D01*
X119725500Y-55430353D01*
X119725500Y-55344647D01*
X119703318Y-55261862D01*
X119673228Y-55209744D01*
X119660469Y-55187644D01*
X119660463Y-55187636D01*
X119599863Y-55127036D01*
X119599855Y-55127030D01*
X119525644Y-55084185D01*
X119525640Y-55084183D01*
X119525638Y-55084182D01*
X119442853Y-55062000D01*
X119357147Y-55062000D01*
X119274362Y-55084182D01*
X119274355Y-55084185D01*
X119200144Y-55127030D01*
X119200136Y-55127036D01*
X119139536Y-55187636D01*
X119139530Y-55187644D01*
X119096685Y-55261855D01*
X119096682Y-55261862D01*
X119074500Y-55344647D01*
X107054178Y-55344647D01*
X107037918Y-55283962D01*
X107027774Y-55266392D01*
X106995069Y-55209744D01*
X106995063Y-55209736D01*
X106934463Y-55149136D01*
X106934455Y-55149130D01*
X106860244Y-55106285D01*
X106860240Y-55106283D01*
X106860238Y-55106282D01*
X106777453Y-55084100D01*
X106691747Y-55084100D01*
X106608962Y-55106282D01*
X106608955Y-55106285D01*
X106534744Y-55149130D01*
X106534736Y-55149136D01*
X106474136Y-55209736D01*
X106474130Y-55209744D01*
X106431285Y-55283955D01*
X106431283Y-55283960D01*
X106431282Y-55283962D01*
X106409100Y-55366747D01*
X100765839Y-55366747D01*
X100804087Y-55300500D01*
X100806328Y-55296619D01*
X100806328Y-55296618D01*
X100816391Y-55279189D01*
X100819820Y-55266392D01*
X100850500Y-55151893D01*
X100850500Y-55020109D01*
X100816392Y-54892815D01*
X100750500Y-54778687D01*
X100657314Y-54685501D01*
X100600250Y-54652555D01*
X100543187Y-54619609D01*
X100479539Y-54602555D01*
X100415892Y-54585501D01*
X100284108Y-54585501D01*
X100156812Y-54619609D01*
X100042686Y-54685501D01*
X100042683Y-54685503D01*
X99949502Y-54778684D01*
X99949500Y-54778687D01*
X99883608Y-54892813D01*
X99849500Y-55020109D01*
X97550848Y-55020109D01*
X97566392Y-54993186D01*
X97600500Y-54865892D01*
X97600500Y-54734108D01*
X97566392Y-54606814D01*
X97500500Y-54492686D01*
X97407314Y-54399500D01*
X97293186Y-54333608D01*
X97165892Y-54299500D01*
X97034108Y-54299500D01*
X96909726Y-54332827D01*
X96909723Y-54332828D01*
X96906814Y-54333608D01*
X96792686Y-54399500D01*
X96770905Y-54421280D01*
X96770903Y-54421282D01*
X96699502Y-54492683D01*
X96699500Y-54492686D01*
X96633608Y-54606812D01*
X96608506Y-54700497D01*
X96599500Y-54734108D01*
X91706545Y-54734108D01*
X92262101Y-54234108D01*
X133599500Y-54234108D01*
X133599500Y-54365891D01*
X133633608Y-54493187D01*
X133666554Y-54550250D01*
X133699500Y-54607314D01*
X133792686Y-54700500D01*
X133906814Y-54766392D01*
X134034108Y-54800500D01*
X134034110Y-54800500D01*
X134165890Y-54800500D01*
X134165892Y-54800500D01*
X134293186Y-54766392D01*
X134407314Y-54700500D01*
X134500500Y-54607314D01*
X134566392Y-54493186D01*
X134600500Y-54365892D01*
X134600500Y-54234108D01*
X134566392Y-54106814D01*
X134500500Y-53992686D01*
X134407314Y-53899500D01*
X134349103Y-53865892D01*
X134293187Y-53833608D01*
X134229539Y-53816554D01*
X134165892Y-53799500D01*
X134034108Y-53799500D01*
X133906812Y-53833608D01*
X133792686Y-53899500D01*
X133792683Y-53899502D01*
X133699502Y-53992683D01*
X133699500Y-53992686D01*
X133633608Y-54106812D01*
X133599500Y-54234108D01*
X92262101Y-54234108D01*
X92264633Y-54231829D01*
X92327630Y-54201616D01*
X92347583Y-54200000D01*
X96656676Y-54200000D01*
X96700000Y-54200000D01*
X97600000Y-53300000D01*
X97600000Y-52734108D01*
X106399500Y-52734108D01*
X106399500Y-52865891D01*
X106433608Y-52993187D01*
X106448593Y-53019141D01*
X106499500Y-53107314D01*
X106592686Y-53200500D01*
X106691521Y-53257563D01*
X106696584Y-53260486D01*
X106706814Y-53266392D01*
X106834108Y-53300500D01*
X106834110Y-53300500D01*
X106965890Y-53300500D01*
X106965892Y-53300500D01*
X107093186Y-53266392D01*
X107207314Y-53200500D01*
X107300500Y-53107314D01*
X107366392Y-52993186D01*
X107400500Y-52865892D01*
X107400500Y-52840691D01*
X118949500Y-52840691D01*
X118949500Y-52959309D01*
X118980201Y-53073886D01*
X119039511Y-53176613D01*
X119123387Y-53260489D01*
X119226114Y-53319799D01*
X119228384Y-53320407D01*
X119230084Y-53321443D01*
X119233618Y-53322907D01*
X119233389Y-53323458D01*
X119288044Y-53356768D01*
X119318575Y-53419614D01*
X119316068Y-53472275D01*
X119299500Y-53534108D01*
X119299500Y-53665891D01*
X119333608Y-53793187D01*
X119337253Y-53799500D01*
X119399500Y-53907314D01*
X119492686Y-54000500D01*
X119606814Y-54066392D01*
X119734108Y-54100500D01*
X119734110Y-54100500D01*
X119865890Y-54100500D01*
X119865892Y-54100500D01*
X119993186Y-54066392D01*
X120107314Y-54000500D01*
X120200500Y-53907314D01*
X120266392Y-53793186D01*
X120300500Y-53665892D01*
X120300500Y-53534108D01*
X120266392Y-53406814D01*
X120200500Y-53292686D01*
X120107314Y-53199500D01*
X120050250Y-53166554D01*
X119993187Y-53133608D01*
X119936257Y-53118354D01*
X119876596Y-53081988D01*
X119846068Y-53019141D01*
X119844598Y-52990764D01*
X119845376Y-52978428D01*
X119850500Y-52959309D01*
X119850500Y-52897301D01*
X119850747Y-52893390D01*
X119861399Y-52864084D01*
X119870185Y-52834166D01*
X119873236Y-52831521D01*
X119874617Y-52827725D01*
X119899428Y-52808826D01*
X119922989Y-52788411D01*
X119928193Y-52786916D01*
X119930200Y-52785388D01*
X119934794Y-52785020D01*
X119958321Y-52778265D01*
X119964127Y-52777500D01*
X119964140Y-52777500D01*
X120091434Y-52743392D01*
X120205562Y-52677500D01*
X120298748Y-52584314D01*
X120364640Y-52470186D01*
X120398748Y-52342892D01*
X120398748Y-52211108D01*
X120364640Y-52083814D01*
X120354581Y-52066392D01*
X120308692Y-51986909D01*
X120292219Y-51919009D01*
X120315071Y-51852982D01*
X120328393Y-51837233D01*
X120360465Y-51805162D01*
X120403318Y-51730938D01*
X120425500Y-51648153D01*
X120425500Y-51562447D01*
X120403318Y-51479662D01*
X120403314Y-51479655D01*
X120360469Y-51405444D01*
X120360463Y-51405436D01*
X120299863Y-51344836D01*
X120299855Y-51344830D01*
X120225644Y-51301985D01*
X120225640Y-51301983D01*
X120225638Y-51301982D01*
X120142853Y-51279800D01*
X120057147Y-51279800D01*
X119974362Y-51301982D01*
X119974355Y-51301985D01*
X119900144Y-51344830D01*
X119900136Y-51344836D01*
X119839536Y-51405436D01*
X119839530Y-51405444D01*
X119796685Y-51479655D01*
X119796682Y-51479662D01*
X119774500Y-51562447D01*
X119774500Y-51648154D01*
X119778599Y-51663451D01*
X119776936Y-51733300D01*
X119737773Y-51791163D01*
X119706281Y-51810102D01*
X119705068Y-51810604D01*
X119590934Y-51876500D01*
X119590931Y-51876502D01*
X119497750Y-51969683D01*
X119497748Y-51969686D01*
X119431856Y-52083812D01*
X119397748Y-52211108D01*
X119397748Y-52339063D01*
X119378063Y-52406102D01*
X119325259Y-52451857D01*
X119305843Y-52458837D01*
X119285611Y-52464258D01*
X119226112Y-52480201D01*
X119123387Y-52539511D01*
X119123384Y-52539513D01*
X119039513Y-52623384D01*
X119039511Y-52623387D01*
X119008269Y-52677500D01*
X118980201Y-52726114D01*
X118949500Y-52840691D01*
X107400500Y-52840691D01*
X107400500Y-52734108D01*
X107366392Y-52606814D01*
X107300500Y-52492686D01*
X107207314Y-52399500D01*
X107150250Y-52366554D01*
X107093187Y-52333608D01*
X106993188Y-52306814D01*
X106965892Y-52299500D01*
X106834108Y-52299500D01*
X106706812Y-52333608D01*
X106592686Y-52399500D01*
X106592683Y-52399502D01*
X106499502Y-52492683D01*
X106499500Y-52492686D01*
X106433608Y-52606812D01*
X106399500Y-52734108D01*
X97600000Y-52734108D01*
X97600000Y-51534108D01*
X102940020Y-51534108D01*
X102940020Y-51665891D01*
X102974128Y-51793187D01*
X102999555Y-51837227D01*
X103040020Y-51907314D01*
X103133206Y-52000500D01*
X103247334Y-52066392D01*
X103374628Y-52100500D01*
X103374630Y-52100500D01*
X103506410Y-52100500D01*
X103506412Y-52100500D01*
X103633706Y-52066392D01*
X103747834Y-52000500D01*
X103841020Y-51907314D01*
X103863182Y-51868928D01*
X104564572Y-51868928D01*
X104564572Y-51961216D01*
X104584103Y-52034108D01*
X104588459Y-52050362D01*
X104588460Y-52050365D01*
X104634598Y-52130277D01*
X104634601Y-52130281D01*
X104634603Y-52130284D01*
X104699860Y-52195541D01*
X104699863Y-52195542D01*
X104699866Y-52195545D01*
X104779778Y-52241683D01*
X104779779Y-52241683D01*
X104779784Y-52241686D01*
X104868928Y-52265572D01*
X104868930Y-52265572D01*
X104961214Y-52265572D01*
X104961216Y-52265572D01*
X105050360Y-52241686D01*
X105130284Y-52195541D01*
X105195541Y-52130284D01*
X105241686Y-52050360D01*
X105265572Y-51961216D01*
X105265572Y-51868928D01*
X105241686Y-51779784D01*
X105241683Y-51779778D01*
X105195545Y-51699866D01*
X105195542Y-51699863D01*
X105195541Y-51699860D01*
X105130284Y-51634603D01*
X105130281Y-51634601D01*
X105130277Y-51634598D01*
X105050365Y-51588460D01*
X105050362Y-51588459D01*
X105050361Y-51588458D01*
X105050360Y-51588458D01*
X104961216Y-51564572D01*
X104868928Y-51564572D01*
X104779784Y-51588458D01*
X104779783Y-51588458D01*
X104779781Y-51588459D01*
X104779778Y-51588460D01*
X104699866Y-51634598D01*
X104699857Y-51634605D01*
X104634605Y-51699857D01*
X104634598Y-51699866D01*
X104588460Y-51779778D01*
X104588459Y-51779781D01*
X104588458Y-51779783D01*
X104588458Y-51779784D01*
X104564572Y-51868928D01*
X103863182Y-51868928D01*
X103906912Y-51793186D01*
X103941020Y-51665892D01*
X103941020Y-51534108D01*
X103906912Y-51406814D01*
X103906116Y-51405436D01*
X103898083Y-51391521D01*
X103841020Y-51292686D01*
X103747834Y-51199500D01*
X103690770Y-51166554D01*
X103633707Y-51133608D01*
X103570059Y-51116554D01*
X103506412Y-51099500D01*
X103374628Y-51099500D01*
X103247332Y-51133608D01*
X103133206Y-51199500D01*
X103133203Y-51199502D01*
X103040022Y-51292683D01*
X103040020Y-51292686D01*
X102974128Y-51406812D01*
X102940020Y-51534108D01*
X97600000Y-51534108D01*
X97600000Y-50441156D01*
X119149500Y-50441156D01*
X119149500Y-50533443D01*
X119173387Y-50622590D01*
X119173388Y-50622593D01*
X119219526Y-50702505D01*
X119219529Y-50702509D01*
X119219531Y-50702512D01*
X119284788Y-50767769D01*
X119284791Y-50767770D01*
X119284794Y-50767773D01*
X119364706Y-50813911D01*
X119364707Y-50813911D01*
X119364712Y-50813914D01*
X119453856Y-50837800D01*
X119453858Y-50837800D01*
X119546142Y-50837800D01*
X119546144Y-50837800D01*
X119635288Y-50813914D01*
X119715212Y-50767769D01*
X119780469Y-50702512D01*
X119826614Y-50622588D01*
X119850500Y-50533444D01*
X119850500Y-50441156D01*
X119826614Y-50352012D01*
X119796873Y-50300500D01*
X119780473Y-50272094D01*
X119780470Y-50272091D01*
X119780469Y-50272088D01*
X119715212Y-50206831D01*
X119715209Y-50206829D01*
X119715205Y-50206826D01*
X119635293Y-50160688D01*
X119635290Y-50160687D01*
X119635289Y-50160686D01*
X119635288Y-50160686D01*
X119546144Y-50136800D01*
X119453856Y-50136800D01*
X119364712Y-50160686D01*
X119364711Y-50160686D01*
X119364709Y-50160687D01*
X119364706Y-50160688D01*
X119284794Y-50206826D01*
X119284785Y-50206833D01*
X119219533Y-50272085D01*
X119219526Y-50272094D01*
X119173388Y-50352006D01*
X119173387Y-50352009D01*
X119173386Y-50352011D01*
X119173386Y-50352012D01*
X119160394Y-50400499D01*
X119149500Y-50441156D01*
X97600000Y-50441156D01*
X97600000Y-49834108D01*
X121099500Y-49834108D01*
X121099500Y-49965891D01*
X121133608Y-50093187D01*
X121166554Y-50150250D01*
X121199500Y-50207314D01*
X121292686Y-50300500D01*
X121406814Y-50366392D01*
X121534108Y-50400500D01*
X121534110Y-50400500D01*
X121665890Y-50400500D01*
X121665892Y-50400500D01*
X121793186Y-50366392D01*
X121907314Y-50300500D01*
X122000500Y-50207314D01*
X122066392Y-50093186D01*
X122100500Y-49965892D01*
X122100500Y-49834108D01*
X122073705Y-49734108D01*
X123599500Y-49734108D01*
X123599500Y-49865892D01*
X123616554Y-49929539D01*
X123633608Y-49993187D01*
X123641476Y-50006814D01*
X123699500Y-50107314D01*
X123792686Y-50200500D01*
X123906814Y-50266392D01*
X124034108Y-50300500D01*
X124034110Y-50300500D01*
X124165890Y-50300500D01*
X124165892Y-50300500D01*
X124293186Y-50266392D01*
X124407314Y-50200500D01*
X124500500Y-50107314D01*
X124566392Y-49993186D01*
X124600500Y-49865892D01*
X124600500Y-49834108D01*
X143799500Y-49834108D01*
X143799500Y-49965891D01*
X143833608Y-50093187D01*
X143866554Y-50150250D01*
X143899500Y-50207314D01*
X143992686Y-50300500D01*
X144106814Y-50366392D01*
X144234108Y-50400500D01*
X144234110Y-50400500D01*
X144365890Y-50400500D01*
X144365892Y-50400500D01*
X144493186Y-50366392D01*
X144607314Y-50300500D01*
X144700500Y-50207314D01*
X144766392Y-50093186D01*
X144800500Y-49965892D01*
X144800500Y-49834108D01*
X144766392Y-49706814D01*
X144700500Y-49592686D01*
X144668626Y-49560812D01*
X144635141Y-49499489D01*
X144640125Y-49429797D01*
X144681997Y-49373864D01*
X144694297Y-49365750D01*
X144807314Y-49300500D01*
X144900500Y-49207314D01*
X144966392Y-49093186D01*
X145000500Y-48965892D01*
X145000500Y-48834108D01*
X144966392Y-48706814D01*
X144900500Y-48592686D01*
X144807314Y-48499500D01*
X144749100Y-48465890D01*
X144693187Y-48433608D01*
X144629539Y-48416554D01*
X144565892Y-48399500D01*
X144434108Y-48399500D01*
X144306812Y-48433608D01*
X144192686Y-48499500D01*
X144192683Y-48499502D01*
X144099502Y-48592683D01*
X144099500Y-48592686D01*
X144033608Y-48706812D01*
X143999500Y-48834108D01*
X143999500Y-48965891D01*
X144033608Y-49093187D01*
X144066554Y-49150250D01*
X144099500Y-49207314D01*
X144099502Y-49207316D01*
X144131373Y-49239187D01*
X144164858Y-49300510D01*
X144159874Y-49370202D01*
X144118002Y-49426135D01*
X144105693Y-49434255D01*
X143992686Y-49499500D01*
X143992683Y-49499502D01*
X143899502Y-49592683D01*
X143899500Y-49592686D01*
X143833608Y-49706812D01*
X143799500Y-49834108D01*
X124600500Y-49834108D01*
X124600500Y-49734108D01*
X124566392Y-49606814D01*
X124500500Y-49492686D01*
X124407314Y-49399500D01*
X124348847Y-49365744D01*
X124293187Y-49333608D01*
X124229539Y-49316554D01*
X124165892Y-49299500D01*
X124034108Y-49299500D01*
X123906812Y-49333608D01*
X123792686Y-49399500D01*
X123792683Y-49399502D01*
X123699502Y-49492683D01*
X123699500Y-49492686D01*
X123633608Y-49606812D01*
X123608773Y-49699500D01*
X123599500Y-49734108D01*
X122073705Y-49734108D01*
X122066392Y-49706814D01*
X122000500Y-49592686D01*
X121907314Y-49499500D01*
X121850250Y-49466554D01*
X121793187Y-49433608D01*
X121729539Y-49416554D01*
X121665892Y-49399500D01*
X121534108Y-49399500D01*
X121406812Y-49433608D01*
X121292686Y-49499500D01*
X121292683Y-49499502D01*
X121199502Y-49592683D01*
X121199500Y-49592686D01*
X121133608Y-49706812D01*
X121099500Y-49834108D01*
X97600000Y-49834108D01*
X97600000Y-48134108D01*
X109399500Y-48134108D01*
X109399500Y-48265892D01*
X109416554Y-48329539D01*
X109433608Y-48393187D01*
X109448024Y-48418156D01*
X109499500Y-48507314D01*
X109592686Y-48600500D01*
X109706814Y-48666392D01*
X109834108Y-48700500D01*
X109834110Y-48700500D01*
X109965890Y-48700500D01*
X109965892Y-48700500D01*
X110093186Y-48666392D01*
X110207314Y-48600500D01*
X110300500Y-48507314D01*
X110366392Y-48393186D01*
X110400500Y-48265892D01*
X110400500Y-48159078D01*
X111524470Y-48159078D01*
X111524470Y-48290862D01*
X111525281Y-48293888D01*
X111558578Y-48418157D01*
X111567499Y-48433608D01*
X111624470Y-48532284D01*
X111717656Y-48625470D01*
X111831784Y-48691362D01*
X111959078Y-48725470D01*
X111959080Y-48725470D01*
X112090860Y-48725470D01*
X112090862Y-48725470D01*
X112218156Y-48691362D01*
X112332284Y-48625470D01*
X112425470Y-48532284D01*
X112491362Y-48418156D01*
X112513882Y-48334108D01*
X113299500Y-48334108D01*
X113299500Y-48465892D01*
X113316554Y-48529539D01*
X113333608Y-48593187D01*
X113352247Y-48625470D01*
X113399500Y-48707314D01*
X113492686Y-48800500D01*
X113606814Y-48866392D01*
X113734108Y-48900500D01*
X113734110Y-48900500D01*
X113865890Y-48900500D01*
X113865892Y-48900500D01*
X113993186Y-48866392D01*
X114107314Y-48800500D01*
X114200500Y-48707314D01*
X114266392Y-48593186D01*
X114300500Y-48465892D01*
X114300500Y-48334108D01*
X114280377Y-48259008D01*
X115374600Y-48259008D01*
X115374600Y-48390792D01*
X115386072Y-48433608D01*
X115408708Y-48518087D01*
X115441654Y-48575150D01*
X115474600Y-48632214D01*
X115567786Y-48725400D01*
X115681914Y-48791292D01*
X115809208Y-48825400D01*
X115809210Y-48825400D01*
X115940990Y-48825400D01*
X115940992Y-48825400D01*
X116068286Y-48791292D01*
X116182414Y-48725400D01*
X116275600Y-48632214D01*
X116341492Y-48518086D01*
X116375600Y-48390792D01*
X116375600Y-48259008D01*
X116341492Y-48131714D01*
X116275600Y-48017586D01*
X116182414Y-47924400D01*
X116125350Y-47891454D01*
X116068287Y-47858508D01*
X116004639Y-47841454D01*
X115940992Y-47824400D01*
X115809208Y-47824400D01*
X115681912Y-47858508D01*
X115567786Y-47924400D01*
X115567783Y-47924402D01*
X115474602Y-48017583D01*
X115474600Y-48017586D01*
X115408708Y-48131712D01*
X115401375Y-48159080D01*
X115374600Y-48259008D01*
X114280377Y-48259008D01*
X114266392Y-48206814D01*
X114200500Y-48092686D01*
X114107314Y-47999500D01*
X114050250Y-47966554D01*
X113993187Y-47933608D01*
X113893188Y-47906814D01*
X113865892Y-47899500D01*
X113734108Y-47899500D01*
X113606812Y-47933608D01*
X113492686Y-47999500D01*
X113492683Y-47999502D01*
X113399502Y-48092683D01*
X113399500Y-48092686D01*
X113333608Y-48206812D01*
X113310465Y-48293186D01*
X113299500Y-48334108D01*
X112513882Y-48334108D01*
X112525470Y-48290862D01*
X112525470Y-48159078D01*
X112491362Y-48031784D01*
X112425470Y-47917656D01*
X112332284Y-47824470D01*
X112275220Y-47791524D01*
X112218157Y-47758578D01*
X112154509Y-47741524D01*
X112090862Y-47724470D01*
X111959078Y-47724470D01*
X111831782Y-47758578D01*
X111717656Y-47824470D01*
X111717653Y-47824472D01*
X111624472Y-47917653D01*
X111624470Y-47917656D01*
X111558578Y-48031782D01*
X111531803Y-48131712D01*
X111524470Y-48159078D01*
X110400500Y-48159078D01*
X110400500Y-48134108D01*
X110366392Y-48006814D01*
X110300500Y-47892686D01*
X110207314Y-47799500D01*
X110136435Y-47758578D01*
X110093187Y-47733608D01*
X110029539Y-47716554D01*
X109965892Y-47699500D01*
X109834108Y-47699500D01*
X109706812Y-47733608D01*
X109592686Y-47799500D01*
X109592683Y-47799502D01*
X109499502Y-47892683D01*
X109499500Y-47892686D01*
X109433608Y-48006812D01*
X109410600Y-48092683D01*
X109399500Y-48134108D01*
X97600000Y-48134108D01*
X97600000Y-45609108D01*
X101049500Y-45609108D01*
X101049500Y-45740891D01*
X101083608Y-45868187D01*
X101097751Y-45892683D01*
X101149500Y-45982314D01*
X101242686Y-46075500D01*
X101356814Y-46141392D01*
X101484108Y-46175500D01*
X101484110Y-46175500D01*
X101615890Y-46175500D01*
X101615892Y-46175500D01*
X101743186Y-46141392D01*
X101755802Y-46134108D01*
X137499500Y-46134108D01*
X137499500Y-46265892D01*
X137508505Y-46299500D01*
X137533608Y-46393187D01*
X137541476Y-46406814D01*
X137599500Y-46507314D01*
X137692686Y-46600500D01*
X137806814Y-46666392D01*
X137934108Y-46700500D01*
X137934110Y-46700500D01*
X138065890Y-46700500D01*
X138065892Y-46700500D01*
X138193186Y-46666392D01*
X138307314Y-46600500D01*
X138400500Y-46507314D01*
X138466392Y-46393186D01*
X138500500Y-46265892D01*
X138500500Y-46134108D01*
X138466392Y-46006814D01*
X138400500Y-45892686D01*
X138307314Y-45799500D01*
X138250250Y-45766554D01*
X138193187Y-45733608D01*
X138129539Y-45716554D01*
X138065892Y-45699500D01*
X137934108Y-45699500D01*
X137806812Y-45733608D01*
X137692686Y-45799500D01*
X137692683Y-45799502D01*
X137599502Y-45892683D01*
X137599500Y-45892686D01*
X137533608Y-46006812D01*
X137515204Y-46075499D01*
X137499500Y-46134108D01*
X101755802Y-46134108D01*
X101857314Y-46075500D01*
X101950500Y-45982314D01*
X102016392Y-45868186D01*
X102050500Y-45740892D01*
X102050500Y-45609108D01*
X102016392Y-45481814D01*
X101950500Y-45367686D01*
X101857314Y-45274500D01*
X101800250Y-45241554D01*
X101743187Y-45208608D01*
X101643498Y-45181897D01*
X101615892Y-45174500D01*
X101484108Y-45174500D01*
X101356812Y-45208608D01*
X101242686Y-45274500D01*
X101242683Y-45274502D01*
X101149502Y-45367683D01*
X101149500Y-45367686D01*
X101083608Y-45481812D01*
X101049500Y-45609108D01*
X97600000Y-45609108D01*
X97600000Y-45400000D01*
X97567683Y-45367683D01*
X97400004Y-45200003D01*
X97399996Y-45199996D01*
X97300242Y-45125181D01*
X97178811Y-45034108D01*
X133799500Y-45034108D01*
X133799500Y-45165892D01*
X133808638Y-45199996D01*
X133833608Y-45293187D01*
X133866554Y-45350250D01*
X133899500Y-45407314D01*
X133992686Y-45500500D01*
X134106814Y-45566392D01*
X134234108Y-45600500D01*
X134234110Y-45600500D01*
X134365890Y-45600500D01*
X134365892Y-45600500D01*
X134493186Y-45566392D01*
X134607314Y-45500500D01*
X134700500Y-45407314D01*
X134766392Y-45293186D01*
X134780225Y-45241556D01*
X134816590Y-45181897D01*
X134879436Y-45151368D01*
X134948812Y-45159662D01*
X135002690Y-45204147D01*
X135019773Y-45241555D01*
X135028601Y-45274500D01*
X135033608Y-45293187D01*
X135066554Y-45350250D01*
X135099500Y-45407314D01*
X135192686Y-45500500D01*
X135306814Y-45566392D01*
X135434108Y-45600500D01*
X135434110Y-45600500D01*
X135565890Y-45600500D01*
X135565892Y-45600500D01*
X135693186Y-45566392D01*
X135807314Y-45500500D01*
X135900500Y-45407314D01*
X135966392Y-45293186D01*
X136000500Y-45165892D01*
X136000500Y-45034108D01*
X135966392Y-44906814D01*
X135900500Y-44792686D01*
X135807314Y-44699500D01*
X135731104Y-44655500D01*
X135693187Y-44633608D01*
X135629539Y-44616554D01*
X135565892Y-44599500D01*
X135434108Y-44599500D01*
X135306812Y-44633608D01*
X135192686Y-44699500D01*
X135192683Y-44699502D01*
X135099502Y-44792683D01*
X135099500Y-44792686D01*
X135033608Y-44906812D01*
X135019775Y-44958441D01*
X134983410Y-45018102D01*
X134920563Y-45048631D01*
X134851188Y-45040336D01*
X134797310Y-44995851D01*
X134780225Y-44958441D01*
X134766391Y-44906812D01*
X134720606Y-44827511D01*
X134700500Y-44792686D01*
X134607314Y-44699500D01*
X134531104Y-44655500D01*
X134493187Y-44633608D01*
X134429539Y-44616554D01*
X134365892Y-44599500D01*
X134234108Y-44599500D01*
X134106812Y-44633608D01*
X133992686Y-44699500D01*
X133992683Y-44699502D01*
X133899502Y-44792683D01*
X133899500Y-44792686D01*
X133833608Y-44906812D01*
X133809751Y-44995851D01*
X133799500Y-45034108D01*
X97178811Y-45034108D01*
X97077921Y-44958441D01*
X97000000Y-44900000D01*
X96999999Y-44900000D01*
X88691602Y-44900000D01*
X88624563Y-44880315D01*
X88578808Y-44827511D01*
X88568864Y-44758353D01*
X88597889Y-44694797D01*
X88629599Y-44668614D01*
X88652314Y-44655500D01*
X88745500Y-44562314D01*
X88811392Y-44448186D01*
X88845500Y-44320892D01*
X88845500Y-44189108D01*
X88811392Y-44061814D01*
X88745500Y-43947686D01*
X88652314Y-43854500D01*
X88615711Y-43833367D01*
X88615710Y-43833366D01*
X88538189Y-43788609D01*
X88538186Y-43788608D01*
X88410892Y-43754500D01*
X88279108Y-43754500D01*
X88151812Y-43788608D01*
X88037686Y-43854500D01*
X88037683Y-43854502D01*
X87944502Y-43947683D01*
X87944500Y-43947686D01*
X87878608Y-44061812D01*
X87844500Y-44189108D01*
X87844500Y-44320891D01*
X87878608Y-44448187D01*
X87911554Y-44505250D01*
X87944500Y-44562314D01*
X88037686Y-44655500D01*
X88060399Y-44668613D01*
X88108614Y-44719181D01*
X88121836Y-44787788D01*
X88095868Y-44852652D01*
X88038954Y-44893180D01*
X87998398Y-44900000D01*
X59279500Y-44900000D01*
X59212461Y-44880315D01*
X59166706Y-44827511D01*
X59155500Y-44776000D01*
X59155500Y-43734108D01*
X133799500Y-43734108D01*
X133799500Y-43865891D01*
X133833608Y-43993187D01*
X133857387Y-44034372D01*
X133899500Y-44107314D01*
X133992686Y-44200500D01*
X134106814Y-44266392D01*
X134234108Y-44300500D01*
X134234110Y-44300500D01*
X134365890Y-44300500D01*
X134365892Y-44300500D01*
X134493186Y-44266392D01*
X134607314Y-44200500D01*
X134700500Y-44107314D01*
X134742613Y-44034371D01*
X134793180Y-43986156D01*
X134861787Y-43972933D01*
X134926652Y-43998901D01*
X134957386Y-44034371D01*
X134999500Y-44107314D01*
X135092686Y-44200500D01*
X135206814Y-44266392D01*
X135334108Y-44300500D01*
X135334110Y-44300500D01*
X135465890Y-44300500D01*
X135465892Y-44300500D01*
X135593186Y-44266392D01*
X135707314Y-44200500D01*
X135800500Y-44107314D01*
X135866392Y-43993186D01*
X135900500Y-43865892D01*
X135900500Y-43734108D01*
X135866392Y-43606814D01*
X135800500Y-43492686D01*
X135707314Y-43399500D01*
X135593186Y-43333608D01*
X135465892Y-43299500D01*
X135334108Y-43299500D01*
X135206812Y-43333608D01*
X135092686Y-43399500D01*
X135092683Y-43399502D01*
X134999502Y-43492683D01*
X134999500Y-43492686D01*
X134957387Y-43565628D01*
X134906820Y-43613843D01*
X134838212Y-43627065D01*
X134773348Y-43601097D01*
X134742613Y-43565628D01*
X134705011Y-43500500D01*
X134700500Y-43492686D01*
X134607314Y-43399500D01*
X134549100Y-43365890D01*
X134493187Y-43333608D01*
X134429539Y-43316554D01*
X134365892Y-43299500D01*
X134234108Y-43299500D01*
X134106812Y-43333608D01*
X133992686Y-43399500D01*
X133992683Y-43399502D01*
X133899502Y-43492683D01*
X133899500Y-43492686D01*
X133833608Y-43606812D01*
X133799500Y-43734108D01*
X59155500Y-43734108D01*
X59155500Y-43034108D01*
X101899500Y-43034108D01*
X101899500Y-43165891D01*
X101933608Y-43293187D01*
X101937253Y-43299500D01*
X101999500Y-43407314D01*
X102092686Y-43500500D01*
X102191521Y-43557563D01*
X102205490Y-43565628D01*
X102206814Y-43566392D01*
X102334108Y-43600500D01*
X102334110Y-43600500D01*
X102465890Y-43600500D01*
X102465892Y-43600500D01*
X102593186Y-43566392D01*
X102707314Y-43500500D01*
X102800500Y-43407314D01*
X102866392Y-43293186D01*
X102882222Y-43234108D01*
X139099500Y-43234108D01*
X139099500Y-43365892D01*
X139116554Y-43429539D01*
X139133608Y-43493187D01*
X139166554Y-43550250D01*
X139199500Y-43607314D01*
X139292686Y-43700500D01*
X139406814Y-43766392D01*
X139534108Y-43800500D01*
X139534110Y-43800500D01*
X139665890Y-43800500D01*
X139665892Y-43800500D01*
X139793186Y-43766392D01*
X139907314Y-43700500D01*
X140000500Y-43607314D01*
X140066392Y-43493186D01*
X140100500Y-43365892D01*
X140100500Y-43234108D01*
X140066392Y-43106814D01*
X140000500Y-42992686D01*
X139907314Y-42899500D01*
X139850250Y-42866554D01*
X139793187Y-42833608D01*
X139729539Y-42816554D01*
X139665892Y-42799500D01*
X139534108Y-42799500D01*
X139406812Y-42833608D01*
X139292686Y-42899500D01*
X139292683Y-42899502D01*
X139199502Y-42992683D01*
X139199500Y-42992686D01*
X139133608Y-43106812D01*
X139117778Y-43165892D01*
X139099500Y-43234108D01*
X102882222Y-43234108D01*
X102900500Y-43165892D01*
X102900500Y-43034108D01*
X102866392Y-42906814D01*
X102800500Y-42792686D01*
X102707314Y-42699500D01*
X102650250Y-42666554D01*
X102593187Y-42633608D01*
X102516275Y-42613000D01*
X102465892Y-42599500D01*
X102334108Y-42599500D01*
X102206812Y-42633608D01*
X102092686Y-42699500D01*
X102092683Y-42699502D01*
X101999502Y-42792683D01*
X101999500Y-42792686D01*
X101933608Y-42906812D01*
X101899500Y-43034108D01*
X59155500Y-43034108D01*
X59155500Y-40832597D01*
X60419500Y-40832597D01*
X60419500Y-41092402D01*
X60460140Y-41348993D01*
X60540422Y-41596076D01*
X60592932Y-41699131D01*
X60653030Y-41817079D01*
X60658368Y-41827554D01*
X60709084Y-41897359D01*
X60811069Y-42037729D01*
X60994771Y-42221431D01*
X61204949Y-42374134D01*
X61322654Y-42434108D01*
X61436423Y-42492077D01*
X61436425Y-42492077D01*
X61436428Y-42492079D01*
X61683507Y-42572360D01*
X61815706Y-42593297D01*
X61940098Y-42613000D01*
X61940103Y-42613000D01*
X62199902Y-42613000D01*
X62313298Y-42595039D01*
X62456493Y-42572360D01*
X62703572Y-42492079D01*
X62817346Y-42434108D01*
X125299500Y-42434108D01*
X125299500Y-42565892D01*
X125316554Y-42629539D01*
X125333608Y-42693187D01*
X125357387Y-42734372D01*
X125399500Y-42807314D01*
X125492686Y-42900500D01*
X125606814Y-42966392D01*
X125734108Y-43000500D01*
X125734110Y-43000500D01*
X125865890Y-43000500D01*
X125865892Y-43000500D01*
X125993186Y-42966392D01*
X126107314Y-42900500D01*
X126200500Y-42807314D01*
X126266392Y-42693186D01*
X126300500Y-42565892D01*
X126300500Y-42434108D01*
X133799500Y-42434108D01*
X133799500Y-42565892D01*
X133816554Y-42629539D01*
X133833608Y-42693187D01*
X133857387Y-42734372D01*
X133899500Y-42807314D01*
X133992686Y-42900500D01*
X134106814Y-42966392D01*
X134234108Y-43000500D01*
X134234110Y-43000500D01*
X134365890Y-43000500D01*
X134365892Y-43000500D01*
X134493186Y-42966392D01*
X134607314Y-42900500D01*
X134700500Y-42807314D01*
X134742613Y-42734371D01*
X134793180Y-42686156D01*
X134861787Y-42672933D01*
X134926652Y-42698901D01*
X134957386Y-42734371D01*
X134999500Y-42807314D01*
X135092686Y-42900500D01*
X135206814Y-42966392D01*
X135334108Y-43000500D01*
X135334110Y-43000500D01*
X135465890Y-43000500D01*
X135465892Y-43000500D01*
X135593186Y-42966392D01*
X135707314Y-42900500D01*
X135800500Y-42807314D01*
X135866392Y-42693186D01*
X135900500Y-42565892D01*
X135900500Y-42434108D01*
X135866392Y-42306814D01*
X135800500Y-42192686D01*
X135707314Y-42099500D01*
X135650250Y-42066554D01*
X135593187Y-42033608D01*
X135529539Y-42016554D01*
X135465892Y-41999500D01*
X135334108Y-41999500D01*
X135206812Y-42033608D01*
X135092686Y-42099500D01*
X135092683Y-42099502D01*
X134999502Y-42192683D01*
X134999500Y-42192686D01*
X134957387Y-42265628D01*
X134906820Y-42313843D01*
X134838212Y-42327065D01*
X134773348Y-42301097D01*
X134742613Y-42265628D01*
X134728620Y-42241392D01*
X134700500Y-42192686D01*
X134607314Y-42099500D01*
X134550250Y-42066554D01*
X134493187Y-42033608D01*
X134429539Y-42016554D01*
X134365892Y-41999500D01*
X134234108Y-41999500D01*
X134106812Y-42033608D01*
X133992686Y-42099500D01*
X133992683Y-42099502D01*
X133899502Y-42192683D01*
X133899500Y-42192686D01*
X133833608Y-42306812D01*
X133815570Y-42374133D01*
X133799500Y-42434108D01*
X126300500Y-42434108D01*
X126266392Y-42306814D01*
X126200500Y-42192686D01*
X126107314Y-42099500D01*
X126050250Y-42066554D01*
X125993187Y-42033608D01*
X125929539Y-42016554D01*
X125865892Y-41999500D01*
X125734108Y-41999500D01*
X125606812Y-42033608D01*
X125492686Y-42099500D01*
X125492683Y-42099502D01*
X125399502Y-42192683D01*
X125399500Y-42192686D01*
X125333608Y-42306812D01*
X125315570Y-42374133D01*
X125299500Y-42434108D01*
X62817346Y-42434108D01*
X62935051Y-42374134D01*
X63145229Y-42221431D01*
X63328931Y-42037729D01*
X63481634Y-41827551D01*
X63541984Y-41709108D01*
X90849500Y-41709108D01*
X90849500Y-41840892D01*
X90865472Y-41900500D01*
X90883608Y-41968187D01*
X90901687Y-41999500D01*
X90949500Y-42082314D01*
X91042686Y-42175500D01*
X91156814Y-42241392D01*
X91284108Y-42275500D01*
X91284110Y-42275500D01*
X91415890Y-42275500D01*
X91415892Y-42275500D01*
X91543186Y-42241392D01*
X91657314Y-42175500D01*
X91750500Y-42082314D01*
X91816392Y-41968186D01*
X91850500Y-41840892D01*
X91850500Y-41709108D01*
X91816392Y-41581814D01*
X91750500Y-41467686D01*
X91657314Y-41374500D01*
X91587353Y-41334108D01*
X101899500Y-41334108D01*
X101899500Y-41465891D01*
X101933608Y-41593187D01*
X101942545Y-41608666D01*
X101999500Y-41707314D01*
X102092686Y-41800500D01*
X102206814Y-41866392D01*
X102334108Y-41900500D01*
X102334110Y-41900500D01*
X102465890Y-41900500D01*
X102465892Y-41900500D01*
X102593186Y-41866392D01*
X102707314Y-41800500D01*
X102800500Y-41707314D01*
X102866392Y-41593186D01*
X102900500Y-41465892D01*
X102900500Y-41334108D01*
X102866392Y-41206814D01*
X102800500Y-41092686D01*
X102707314Y-40999500D01*
X102650250Y-40966554D01*
X102593187Y-40933608D01*
X102529539Y-40916554D01*
X102465892Y-40899500D01*
X102334108Y-40899500D01*
X102206812Y-40933608D01*
X102092686Y-40999500D01*
X102092683Y-40999502D01*
X101999502Y-41092683D01*
X101999500Y-41092686D01*
X101933608Y-41206812D01*
X101899500Y-41334108D01*
X91587353Y-41334108D01*
X91570234Y-41324224D01*
X91543187Y-41308608D01*
X91479539Y-41291554D01*
X91415892Y-41274500D01*
X91284108Y-41274500D01*
X91156812Y-41308608D01*
X91042686Y-41374500D01*
X91042683Y-41374502D01*
X90949502Y-41467683D01*
X90949500Y-41467686D01*
X90883608Y-41581812D01*
X90852173Y-41699131D01*
X90849500Y-41709108D01*
X63541984Y-41709108D01*
X63599579Y-41596072D01*
X63679860Y-41348993D01*
X63702539Y-41205798D01*
X63720500Y-41092402D01*
X63720500Y-40832597D01*
X63691456Y-40649224D01*
X63679860Y-40576007D01*
X63599579Y-40328928D01*
X63599577Y-40328925D01*
X63599577Y-40328923D01*
X63512281Y-40157597D01*
X63481634Y-40097449D01*
X63328931Y-39887271D01*
X63275768Y-39834108D01*
X117099500Y-39834108D01*
X117099500Y-39965891D01*
X117133608Y-40093187D01*
X117136069Y-40097449D01*
X117199500Y-40207314D01*
X117292686Y-40300500D01*
X117406814Y-40366392D01*
X117534108Y-40400500D01*
X117534110Y-40400500D01*
X117665890Y-40400500D01*
X117665892Y-40400500D01*
X117793186Y-40366392D01*
X117907314Y-40300500D01*
X118000500Y-40207314D01*
X118029204Y-40157597D01*
X154819500Y-40157597D01*
X154819500Y-40417402D01*
X154860140Y-40673993D01*
X154940422Y-40921076D01*
X155058368Y-41152554D01*
X155190275Y-41334108D01*
X155211069Y-41362729D01*
X155394771Y-41546431D01*
X155604949Y-41699134D01*
X155748176Y-41772112D01*
X155836423Y-41817077D01*
X155836425Y-41817077D01*
X155836428Y-41817079D01*
X156083507Y-41897360D01*
X156215706Y-41918297D01*
X156340098Y-41938000D01*
X156340103Y-41938000D01*
X156599902Y-41938000D01*
X156713298Y-41920039D01*
X156856493Y-41897360D01*
X157103572Y-41817079D01*
X157335051Y-41699134D01*
X157545229Y-41546431D01*
X157728931Y-41362729D01*
X157881634Y-41152551D01*
X157999579Y-40921072D01*
X158079860Y-40673993D01*
X158102539Y-40530798D01*
X158120500Y-40417402D01*
X158120500Y-40157597D01*
X158098947Y-40021521D01*
X158079860Y-39901007D01*
X157999579Y-39653928D01*
X157999577Y-39653925D01*
X157999577Y-39653923D01*
X157936918Y-39530949D01*
X157881634Y-39422449D01*
X157728931Y-39212271D01*
X157545229Y-39028569D01*
X157335051Y-38875866D01*
X157262764Y-38839034D01*
X157103576Y-38757922D01*
X156856493Y-38677640D01*
X156599902Y-38637000D01*
X156599897Y-38637000D01*
X156340103Y-38637000D01*
X156340098Y-38637000D01*
X156083506Y-38677640D01*
X155836423Y-38757922D01*
X155604945Y-38875868D01*
X155394774Y-39028566D01*
X155394768Y-39028571D01*
X155211071Y-39212268D01*
X155211066Y-39212274D01*
X155058368Y-39422445D01*
X154940422Y-39653923D01*
X154860140Y-39901006D01*
X154819500Y-40157597D01*
X118029204Y-40157597D01*
X118066392Y-40093186D01*
X118100500Y-39965892D01*
X118100500Y-39834108D01*
X118066392Y-39706814D01*
X118064518Y-39703569D01*
X118035855Y-39653923D01*
X118000500Y-39592686D01*
X117907314Y-39499500D01*
X117831646Y-39455813D01*
X117793187Y-39433608D01*
X117729539Y-39416554D01*
X117665892Y-39399500D01*
X117534108Y-39399500D01*
X117406812Y-39433608D01*
X117292686Y-39499500D01*
X117292683Y-39499502D01*
X117199502Y-39592683D01*
X117199500Y-39592686D01*
X117133608Y-39706812D01*
X117099500Y-39834108D01*
X63275768Y-39834108D01*
X63145229Y-39703569D01*
X63059570Y-39641334D01*
X62935054Y-39550868D01*
X62935053Y-39550867D01*
X62935051Y-39550866D01*
X62834240Y-39499500D01*
X62703576Y-39432922D01*
X62456493Y-39352640D01*
X62199902Y-39312000D01*
X62199897Y-39312000D01*
X61940103Y-39312000D01*
X61940098Y-39312000D01*
X61683506Y-39352640D01*
X61436423Y-39432922D01*
X61204945Y-39550868D01*
X60994774Y-39703566D01*
X60994768Y-39703571D01*
X60811071Y-39887268D01*
X60811066Y-39887274D01*
X60658368Y-40097445D01*
X60540422Y-40328923D01*
X60460140Y-40576006D01*
X60419500Y-40832597D01*
X59155500Y-40832597D01*
X59155500Y-38647279D01*
X59175185Y-38580240D01*
X59191819Y-38559598D01*
X60089598Y-37661819D01*
X60150921Y-37628334D01*
X60177279Y-37625500D01*
X157727720Y-37625500D01*
X157794759Y-37645185D01*
G37*
%TD.AperFunction*%
%TD*%
M02*
