%TF.GenerationSoftware,KiCad,Pcbnew,9.0.3*%
%TF.CreationDate,2025-11-17T14:25:06+08:00*%
%TF.ProjectId,piezometer,7069657a-6f6d-4657-9465-722e6b696361,rev?*%
%TF.SameCoordinates,Original*%
%TF.FileFunction,Paste,Top*%
%TF.FilePolarity,Positive*%
%FSLAX46Y46*%
G04 Gerber Fmt 4.6, Leading zero omitted, Abs format (unit mm)*
G04 Created by KiCad (PCBNEW 9.0.3) date 2025-11-17 14:25:06*
%MOMM*%
%LPD*%
G01*
G04 APERTURE LIST*
G04 Aperture macros list*
%AMRoundRect*
0 Rectangle with rounded corners*
0 $1 Rounding radius*
0 $2 $3 $4 $5 $6 $7 $8 $9 X,Y pos of 4 corners*
0 Add a 4 corners polygon primitive as box body*
4,1,4,$2,$3,$4,$5,$6,$7,$8,$9,$2,$3,0*
0 Add four circle primitives for the rounded corners*
1,1,$1+$1,$2,$3*
1,1,$1+$1,$4,$5*
1,1,$1+$1,$6,$7*
1,1,$1+$1,$8,$9*
0 Add four rect primitives between the rounded corners*
20,1,$1+$1,$2,$3,$4,$5,0*
20,1,$1+$1,$4,$5,$6,$7,0*
20,1,$1+$1,$6,$7,$8,$9,0*
20,1,$1+$1,$8,$9,$2,$3,0*%
%AMRotRect*
0 Rectangle, with rotation*
0 The origin of the aperture is its center*
0 $1 length*
0 $2 width*
0 $3 Rotation angle, in degrees counterclockwise*
0 Add horizontal line*
21,1,$1,$2,0,0,$3*%
G04 Aperture macros list end*
%ADD10C,0.000000*%
%ADD11RoundRect,0.225000X0.225000X0.250000X-0.225000X0.250000X-0.225000X-0.250000X0.225000X-0.250000X0*%
%ADD12RoundRect,0.250000X-0.650000X0.325000X-0.650000X-0.325000X0.650000X-0.325000X0.650000X0.325000X0*%
%ADD13RoundRect,0.200000X0.200000X0.275000X-0.200000X0.275000X-0.200000X-0.275000X0.200000X-0.275000X0*%
%ADD14RoundRect,0.250000X0.650000X-0.325000X0.650000X0.325000X-0.650000X0.325000X-0.650000X-0.325000X0*%
%ADD15RoundRect,0.200000X0.275000X-0.200000X0.275000X0.200000X-0.275000X0.200000X-0.275000X-0.200000X0*%
%ADD16RoundRect,0.125000X-0.125000X0.687500X-0.125000X-0.687500X0.125000X-0.687500X0.125000X0.687500X0*%
%ADD17RoundRect,0.225000X-0.250000X0.225000X-0.250000X-0.225000X0.250000X-0.225000X0.250000X0.225000X0*%
%ADD18RoundRect,0.225000X-0.225000X-0.250000X0.225000X-0.250000X0.225000X0.250000X-0.225000X0.250000X0*%
%ADD19R,0.300000X1.400000*%
%ADD20RoundRect,0.125000X-0.825000X-0.125000X0.825000X-0.125000X0.825000X0.125000X-0.825000X0.125000X0*%
%ADD21RoundRect,0.218750X0.256250X-0.218750X0.256250X0.218750X-0.256250X0.218750X-0.256250X-0.218750X0*%
%ADD22RoundRect,0.225000X0.335876X0.017678X0.017678X0.335876X-0.335876X-0.017678X-0.017678X-0.335876X0*%
%ADD23R,2.150000X2.250000*%
%ADD24RoundRect,0.200000X-0.275000X0.200000X-0.275000X-0.200000X0.275000X-0.200000X0.275000X0.200000X0*%
%ADD25RoundRect,0.200000X-0.200000X-0.275000X0.200000X-0.275000X0.200000X0.275000X-0.200000X0.275000X0*%
%ADD26RoundRect,0.218750X-0.218750X-0.256250X0.218750X-0.256250X0.218750X0.256250X-0.218750X0.256250X0*%
%ADD27R,1.450000X0.450000*%
%ADD28R,2.940000X3.580000*%
%ADD29RoundRect,0.225000X0.250000X-0.225000X0.250000X0.225000X-0.250000X0.225000X-0.250000X-0.225000X0*%
%ADD30RoundRect,0.218750X-0.256250X0.218750X-0.256250X-0.218750X0.256250X-0.218750X0.256250X0.218750X0*%
%ADD31C,0.370000*%
%ADD32RoundRect,0.250000X0.475000X-0.250000X0.475000X0.250000X-0.475000X0.250000X-0.475000X-0.250000X0*%
%ADD33R,1.550000X2.200000*%
%ADD34RoundRect,0.250000X-0.275000X-0.700000X0.275000X-0.700000X0.275000X0.700000X-0.275000X0.700000X0*%
%ADD35RoundRect,0.250000X0.650000X-1.000000X0.650000X1.000000X-0.650000X1.000000X-0.650000X-1.000000X0*%
%ADD36R,1.100000X0.600000*%
%ADD37R,1.100000X0.300000*%
%ADD38RoundRect,0.250000X-0.325000X-0.650000X0.325000X-0.650000X0.325000X0.650000X-0.325000X0.650000X0*%
%ADD39RoundRect,0.218750X0.218750X0.256250X-0.218750X0.256250X-0.218750X-0.256250X0.218750X-0.256250X0*%
%ADD40R,1.640000X1.400000*%
%ADD41R,1.350000X1.800000*%
%ADD42RoundRect,0.162500X-0.650000X-0.162500X0.650000X-0.162500X0.650000X0.162500X-0.650000X0.162500X0*%
%ADD43RoundRect,0.150000X0.150000X-0.512500X0.150000X0.512500X-0.150000X0.512500X-0.150000X-0.512500X0*%
%ADD44RoundRect,0.200000X1.150000X-0.200000X1.150000X0.200000X-1.150000X0.200000X-1.150000X-0.200000X0*%
%ADD45RotRect,1.200000X1.400000X45.000000*%
%ADD46R,2.300000X4.000000*%
%ADD47R,2.300000X4.400000*%
%ADD48R,1.525000X0.650000*%
%ADD49RoundRect,0.225000X0.017678X-0.335876X0.335876X-0.017678X-0.017678X0.335876X-0.335876X0.017678X0*%
%ADD50RoundRect,0.250000X0.325000X0.650000X-0.325000X0.650000X-0.325000X-0.650000X0.325000X-0.650000X0*%
%ADD51RoundRect,0.150000X-0.512500X-0.150000X0.512500X-0.150000X0.512500X0.150000X-0.512500X0.150000X0*%
%ADD52R,1.900000X1.300000*%
%ADD53RoundRect,0.250000X0.275000X0.700000X-0.275000X0.700000X-0.275000X-0.700000X0.275000X-0.700000X0*%
%ADD54RoundRect,0.150000X-0.825000X-0.150000X0.825000X-0.150000X0.825000X0.150000X-0.825000X0.150000X0*%
%ADD55RoundRect,0.250000X-0.475000X0.250000X-0.475000X-0.250000X0.475000X-0.250000X0.475000X0.250000X0*%
%ADD56RoundRect,0.250000X0.750000X-2.000000X0.750000X2.000000X-0.750000X2.000000X-0.750000X-2.000000X0*%
G04 APERTURE END LIST*
D10*
%TO.C,U1*%
G36*
X108940040Y-49885390D02*
G01*
X108275040Y-49885390D01*
X108275040Y-49689380D01*
X108940040Y-49689380D01*
X108940040Y-49885390D01*
G37*
G36*
X108940040Y-50235380D02*
G01*
X108275040Y-50235380D01*
X108275040Y-50039370D01*
X108940040Y-50039370D01*
X108940040Y-50235380D01*
G37*
G36*
X108940040Y-50585390D02*
G01*
X108275040Y-50585390D01*
X108275040Y-50389380D01*
X108940040Y-50389380D01*
X108940040Y-50585390D01*
G37*
G36*
X108940040Y-50935380D02*
G01*
X108275040Y-50935380D01*
X108275040Y-50739370D01*
X108940040Y-50739370D01*
X108940040Y-50935380D01*
G37*
G36*
X108940040Y-51285390D02*
G01*
X108275040Y-51285390D01*
X108275040Y-51089380D01*
X108940040Y-51089380D01*
X108940040Y-51285390D01*
G37*
G36*
X108940040Y-51635380D02*
G01*
X108275040Y-51635380D01*
X108275040Y-51439370D01*
X108940040Y-51439370D01*
X108940040Y-51635380D01*
G37*
G36*
X108940040Y-51985390D02*
G01*
X108275040Y-51985390D01*
X108275040Y-51789380D01*
X108940040Y-51789380D01*
X108940040Y-51985390D01*
G37*
G36*
X108940040Y-52335380D02*
G01*
X108275040Y-52335380D01*
X108275040Y-52139360D01*
X108940040Y-52139360D01*
X108940040Y-52335380D01*
G37*
G36*
X108940040Y-52685390D02*
G01*
X108275040Y-52685390D01*
X108275040Y-52489380D01*
X108940040Y-52489380D01*
X108940040Y-52685390D01*
G37*
G36*
X108940040Y-53035370D02*
G01*
X108275040Y-53035370D01*
X108275040Y-52839360D01*
X108940040Y-52839360D01*
X108940040Y-53035370D01*
G37*
G36*
X108940040Y-53385390D02*
G01*
X108275040Y-53385390D01*
X108275040Y-53189370D01*
X108940040Y-53189370D01*
X108940040Y-53385390D01*
G37*
G36*
X108940040Y-53735370D02*
G01*
X108275040Y-53735370D01*
X108275040Y-53539360D01*
X108940040Y-53539360D01*
X108940040Y-53735370D01*
G37*
G36*
X108940040Y-54085390D02*
G01*
X108275040Y-54085390D01*
X108275040Y-53889370D01*
X108940040Y-53889370D01*
X108940040Y-54085390D01*
G37*
G36*
X108940040Y-54435370D02*
G01*
X108275040Y-54435370D01*
X108275040Y-54239360D01*
X108940040Y-54239360D01*
X108940040Y-54435370D01*
G37*
G36*
X108940040Y-54785380D02*
G01*
X108275040Y-54785380D01*
X108275040Y-54589370D01*
X108940040Y-54589370D01*
X108940040Y-54785380D01*
G37*
G36*
X108940040Y-55135370D02*
G01*
X108275040Y-55135370D01*
X108275040Y-54939360D01*
X108940040Y-54939360D01*
X108940040Y-55135370D01*
G37*
G36*
X108940040Y-55485380D02*
G01*
X108275040Y-55485380D01*
X108275040Y-55289370D01*
X108940040Y-55289370D01*
X108940040Y-55485380D01*
G37*
G36*
X108940040Y-55835370D02*
G01*
X108275040Y-55835370D01*
X108275040Y-55639360D01*
X108940040Y-55639360D01*
X108940040Y-55835370D01*
G37*
G36*
X108940040Y-56185380D02*
G01*
X108275040Y-56185380D01*
X108275040Y-55989370D01*
X108940040Y-55989370D01*
X108940040Y-56185380D01*
G37*
G36*
X108940040Y-56535370D02*
G01*
X108275040Y-56535370D01*
X108275040Y-56339360D01*
X108940040Y-56339360D01*
X108940040Y-56535370D01*
G37*
G36*
X108940040Y-56885380D02*
G01*
X108275040Y-56885380D01*
X108275040Y-56689370D01*
X108940040Y-56689370D01*
X108940040Y-56885380D01*
G37*
G36*
X108940040Y-57235370D02*
G01*
X108275040Y-57235370D01*
X108275040Y-57039360D01*
X108940040Y-57039360D01*
X108940040Y-57235370D01*
G37*
G36*
X108940040Y-57585380D02*
G01*
X108275040Y-57585380D01*
X108275040Y-57389370D01*
X108940040Y-57389370D01*
X108940040Y-57585380D01*
G37*
G36*
X108940040Y-57935370D02*
G01*
X108275040Y-57935370D01*
X108275040Y-57739350D01*
X108940040Y-57739350D01*
X108940040Y-57935370D01*
G37*
G36*
X108940040Y-58285380D02*
G01*
X108275040Y-58285380D01*
X108275040Y-58089370D01*
X108940040Y-58089370D01*
X108940040Y-58285380D01*
G37*
G36*
X108940040Y-58635360D02*
G01*
X108275040Y-58635360D01*
X108275040Y-58439350D01*
X108940040Y-58439350D01*
X108940040Y-58635360D01*
G37*
G36*
X109323250Y-49502410D02*
G01*
X109127240Y-49502410D01*
X109127240Y-48837410D01*
X109323250Y-48837410D01*
X109323250Y-49502410D01*
G37*
G36*
X109323330Y-59487510D02*
G01*
X109127290Y-59487510D01*
X109127290Y-58822510D01*
X109323330Y-58822510D01*
X109323330Y-59487510D01*
G37*
G36*
X109673010Y-49502410D02*
G01*
X109477000Y-49502410D01*
X109477000Y-48837410D01*
X109673010Y-48837410D01*
X109673010Y-49502410D01*
G37*
G36*
X109673010Y-59487510D02*
G01*
X109477000Y-59487510D01*
X109477000Y-58822510D01*
X109673010Y-58822510D01*
X109673010Y-59487510D01*
G37*
G36*
X110023020Y-49502410D02*
G01*
X109827010Y-49502410D01*
X109827010Y-48837410D01*
X110023020Y-48837410D01*
X110023020Y-49502410D01*
G37*
G36*
X110023020Y-59487510D02*
G01*
X109827010Y-59487510D01*
X109827010Y-58822510D01*
X110023020Y-58822510D01*
X110023020Y-59487510D01*
G37*
G36*
X110373010Y-49502410D02*
G01*
X110176990Y-49502410D01*
X110176990Y-48837410D01*
X110373010Y-48837410D01*
X110373010Y-49502410D01*
G37*
G36*
X110373010Y-59487510D02*
G01*
X110176990Y-59487510D01*
X110176990Y-58822510D01*
X110373010Y-58822510D01*
X110373010Y-59487510D01*
G37*
G36*
X110723020Y-49502410D02*
G01*
X110527010Y-49502410D01*
X110527010Y-48837410D01*
X110723020Y-48837410D01*
X110723020Y-49502410D01*
G37*
G36*
X110723020Y-59487510D02*
G01*
X110527010Y-59487510D01*
X110527010Y-58822510D01*
X110723020Y-58822510D01*
X110723020Y-59487510D01*
G37*
G36*
X111073000Y-49502410D02*
G01*
X110876990Y-49502410D01*
X110876990Y-48837410D01*
X111073000Y-48837410D01*
X111073000Y-49502410D01*
G37*
G36*
X111073000Y-59487510D02*
G01*
X110876990Y-59487510D01*
X110876990Y-58822510D01*
X111073000Y-58822510D01*
X111073000Y-59487510D01*
G37*
G36*
X111423020Y-49502410D02*
G01*
X111227000Y-49502410D01*
X111227000Y-48837410D01*
X111423020Y-48837410D01*
X111423020Y-49502410D01*
G37*
G36*
X111423020Y-59487510D02*
G01*
X111227000Y-59487510D01*
X111227000Y-58822510D01*
X111423020Y-58822510D01*
X111423020Y-59487510D01*
G37*
G36*
X111773000Y-49502410D02*
G01*
X111576990Y-49502410D01*
X111576990Y-48837410D01*
X111773000Y-48837410D01*
X111773000Y-49502410D01*
G37*
G36*
X111773000Y-59487510D02*
G01*
X111576990Y-59487510D01*
X111576990Y-58822510D01*
X111773000Y-58822510D01*
X111773000Y-59487510D01*
G37*
G36*
X112123010Y-49502410D02*
G01*
X111927000Y-49502410D01*
X111927000Y-48837410D01*
X112123010Y-48837410D01*
X112123010Y-49502410D01*
G37*
G36*
X112123010Y-59487510D02*
G01*
X111927000Y-59487510D01*
X111927000Y-58822510D01*
X112123010Y-58822510D01*
X112123010Y-59487510D01*
G37*
G36*
X112473000Y-49502410D02*
G01*
X112276990Y-49502410D01*
X112276990Y-48837410D01*
X112473000Y-48837410D01*
X112473000Y-49502410D01*
G37*
G36*
X112473000Y-59487510D02*
G01*
X112276990Y-59487510D01*
X112276990Y-58822510D01*
X112473000Y-58822510D01*
X112473000Y-59487510D01*
G37*
G36*
X112823010Y-49502410D02*
G01*
X112627000Y-49502410D01*
X112627000Y-48837410D01*
X112823010Y-48837410D01*
X112823010Y-49502410D01*
G37*
G36*
X112823010Y-59487510D02*
G01*
X112627000Y-59487510D01*
X112627000Y-58822510D01*
X112823010Y-58822510D01*
X112823010Y-59487510D01*
G37*
G36*
X113173000Y-49502410D02*
G01*
X112976990Y-49502410D01*
X112976990Y-48837410D01*
X113173000Y-48837410D01*
X113173000Y-49502410D01*
G37*
G36*
X113173000Y-59487510D02*
G01*
X112976990Y-59487510D01*
X112976990Y-58822510D01*
X113173000Y-58822510D01*
X113173000Y-59487510D01*
G37*
G36*
X113523010Y-49502410D02*
G01*
X113327000Y-49502410D01*
X113327000Y-48837410D01*
X113523010Y-48837410D01*
X113523010Y-49502410D01*
G37*
G36*
X113523010Y-59487510D02*
G01*
X113327000Y-59487510D01*
X113327000Y-58822510D01*
X113523010Y-58822510D01*
X113523010Y-59487510D01*
G37*
G36*
X113873000Y-49502410D02*
G01*
X113676990Y-49502410D01*
X113676990Y-48837410D01*
X113873000Y-48837410D01*
X113873000Y-49502410D01*
G37*
G36*
X113873000Y-59487510D02*
G01*
X113676990Y-59487510D01*
X113676990Y-58822510D01*
X113873000Y-58822510D01*
X113873000Y-59487510D01*
G37*
G36*
X114223010Y-49502410D02*
G01*
X114027000Y-49502410D01*
X114027000Y-48837410D01*
X114223010Y-48837410D01*
X114223010Y-49502410D01*
G37*
G36*
X114223010Y-59487510D02*
G01*
X114027000Y-59487510D01*
X114027000Y-58822510D01*
X114223010Y-58822510D01*
X114223010Y-59487510D01*
G37*
G36*
X114573000Y-49502410D02*
G01*
X114376990Y-49502410D01*
X114376990Y-48837410D01*
X114573000Y-48837410D01*
X114573000Y-49502410D01*
G37*
G36*
X114573000Y-59487510D02*
G01*
X114376990Y-59487510D01*
X114376990Y-58822510D01*
X114573000Y-58822510D01*
X114573000Y-59487510D01*
G37*
G36*
X114923010Y-49502410D02*
G01*
X114727000Y-49502410D01*
X114727000Y-48837410D01*
X114923010Y-48837410D01*
X114923010Y-49502410D01*
G37*
G36*
X114923010Y-59487510D02*
G01*
X114727000Y-59487510D01*
X114727000Y-58822510D01*
X114923010Y-58822510D01*
X114923010Y-59487510D01*
G37*
G36*
X115273000Y-49502410D02*
G01*
X115076990Y-49502410D01*
X115076990Y-48837410D01*
X115273000Y-48837410D01*
X115273000Y-49502410D01*
G37*
G36*
X115273000Y-59487510D02*
G01*
X115076990Y-59487510D01*
X115076990Y-58822510D01*
X115273000Y-58822510D01*
X115273000Y-59487510D01*
G37*
G36*
X115623010Y-49502410D02*
G01*
X115427000Y-49502410D01*
X115427000Y-48837410D01*
X115623010Y-48837410D01*
X115623010Y-49502410D01*
G37*
G36*
X115623010Y-59487510D02*
G01*
X115427000Y-59487510D01*
X115427000Y-58822510D01*
X115623010Y-58822510D01*
X115623010Y-59487510D01*
G37*
G36*
X115973000Y-49502410D02*
G01*
X115776980Y-49502410D01*
X115776980Y-48837410D01*
X115973000Y-48837410D01*
X115973000Y-49502410D01*
G37*
G36*
X115973000Y-59487510D02*
G01*
X115776980Y-59487510D01*
X115776980Y-58822510D01*
X115973000Y-58822510D01*
X115973000Y-59487510D01*
G37*
G36*
X116323010Y-49502410D02*
G01*
X116127000Y-49502410D01*
X116127000Y-48837410D01*
X116323010Y-48837410D01*
X116323010Y-49502410D01*
G37*
G36*
X116323010Y-59487510D02*
G01*
X116127000Y-59487510D01*
X116127000Y-58822510D01*
X116323010Y-58822510D01*
X116323010Y-59487510D01*
G37*
G36*
X116672990Y-49502410D02*
G01*
X116476980Y-49502410D01*
X116476980Y-48837410D01*
X116672990Y-48837410D01*
X116672990Y-49502410D01*
G37*
G36*
X116672990Y-59487510D02*
G01*
X116476980Y-59487510D01*
X116476980Y-58822510D01*
X116672990Y-58822510D01*
X116672990Y-59487510D01*
G37*
G36*
X117023010Y-49502410D02*
G01*
X116826990Y-49502410D01*
X116826990Y-48837410D01*
X117023010Y-48837410D01*
X117023010Y-49502410D01*
G37*
G36*
X117023010Y-59487510D02*
G01*
X116826990Y-59487510D01*
X116826990Y-58822510D01*
X117023010Y-58822510D01*
X117023010Y-59487510D01*
G37*
G36*
X117372990Y-49502410D02*
G01*
X117176980Y-49502410D01*
X117176980Y-48837410D01*
X117372990Y-48837410D01*
X117372990Y-49502410D01*
G37*
G36*
X117372990Y-59487510D02*
G01*
X117176980Y-59487510D01*
X117176980Y-58822510D01*
X117372990Y-58822510D01*
X117372990Y-59487510D01*
G37*
G36*
X117723000Y-49502410D02*
G01*
X117526990Y-49502410D01*
X117526990Y-48837410D01*
X117723000Y-48837410D01*
X117723000Y-49502410D01*
G37*
G36*
X117723000Y-59487510D02*
G01*
X117526990Y-59487510D01*
X117526990Y-58822510D01*
X117723000Y-58822510D01*
X117723000Y-59487510D01*
G37*
G36*
X118072790Y-59487510D02*
G01*
X117876750Y-59487510D01*
X117876750Y-58822510D01*
X118072790Y-58822510D01*
X118072790Y-59487510D01*
G37*
G36*
X118073020Y-49502410D02*
G01*
X117877030Y-49502410D01*
X117877030Y-48837410D01*
X118073020Y-48837410D01*
X118073020Y-49502410D01*
G37*
G36*
X118925010Y-49885390D02*
G01*
X118260010Y-49885390D01*
X118260010Y-49689380D01*
X118925010Y-49689380D01*
X118925010Y-49885390D01*
G37*
G36*
X118925010Y-50235380D02*
G01*
X118260010Y-50235380D01*
X118260010Y-50039370D01*
X118925010Y-50039370D01*
X118925010Y-50235380D01*
G37*
G36*
X118925010Y-50585390D02*
G01*
X118260010Y-50585390D01*
X118260010Y-50389380D01*
X118925010Y-50389380D01*
X118925010Y-50585390D01*
G37*
G36*
X118925010Y-50935380D02*
G01*
X118260010Y-50935380D01*
X118260010Y-50739370D01*
X118925010Y-50739370D01*
X118925010Y-50935380D01*
G37*
G36*
X118925010Y-51285390D02*
G01*
X118260010Y-51285390D01*
X118260010Y-51089380D01*
X118925010Y-51089380D01*
X118925010Y-51285390D01*
G37*
G36*
X118925010Y-51635380D02*
G01*
X118260010Y-51635380D01*
X118260010Y-51439370D01*
X118925010Y-51439370D01*
X118925010Y-51635380D01*
G37*
G36*
X118925010Y-51985390D02*
G01*
X118260010Y-51985390D01*
X118260010Y-51789380D01*
X118925010Y-51789380D01*
X118925010Y-51985390D01*
G37*
G36*
X118925010Y-52335380D02*
G01*
X118260010Y-52335380D01*
X118260010Y-52139360D01*
X118925010Y-52139360D01*
X118925010Y-52335380D01*
G37*
G36*
X118925010Y-52685390D02*
G01*
X118260010Y-52685390D01*
X118260010Y-52489380D01*
X118925010Y-52489380D01*
X118925010Y-52685390D01*
G37*
G36*
X118925010Y-53035370D02*
G01*
X118260010Y-53035370D01*
X118260010Y-52839360D01*
X118925010Y-52839360D01*
X118925010Y-53035370D01*
G37*
G36*
X118925010Y-53385390D02*
G01*
X118260010Y-53385390D01*
X118260010Y-53189370D01*
X118925010Y-53189370D01*
X118925010Y-53385390D01*
G37*
G36*
X118925010Y-53735370D02*
G01*
X118260010Y-53735370D01*
X118260010Y-53539360D01*
X118925010Y-53539360D01*
X118925010Y-53735370D01*
G37*
G36*
X118925010Y-54085390D02*
G01*
X118260010Y-54085390D01*
X118260010Y-53889370D01*
X118925010Y-53889370D01*
X118925010Y-54085390D01*
G37*
G36*
X118925010Y-54435370D02*
G01*
X118260010Y-54435370D01*
X118260010Y-54239360D01*
X118925010Y-54239360D01*
X118925010Y-54435370D01*
G37*
G36*
X118925010Y-54785380D02*
G01*
X118260010Y-54785380D01*
X118260010Y-54589370D01*
X118925010Y-54589370D01*
X118925010Y-54785380D01*
G37*
G36*
X118925010Y-55135370D02*
G01*
X118260010Y-55135370D01*
X118260010Y-54939360D01*
X118925010Y-54939360D01*
X118925010Y-55135370D01*
G37*
G36*
X118925010Y-55485380D02*
G01*
X118260010Y-55485380D01*
X118260010Y-55289370D01*
X118925010Y-55289370D01*
X118925010Y-55485380D01*
G37*
G36*
X118925010Y-55835370D02*
G01*
X118260010Y-55835370D01*
X118260010Y-55639360D01*
X118925010Y-55639360D01*
X118925010Y-55835370D01*
G37*
G36*
X118925010Y-56185380D02*
G01*
X118260010Y-56185380D01*
X118260010Y-55989370D01*
X118925010Y-55989370D01*
X118925010Y-56185380D01*
G37*
G36*
X118925010Y-56535370D02*
G01*
X118260010Y-56535370D01*
X118260010Y-56339360D01*
X118925010Y-56339360D01*
X118925010Y-56535370D01*
G37*
G36*
X118925010Y-56885380D02*
G01*
X118260010Y-56885380D01*
X118260010Y-56689370D01*
X118925010Y-56689370D01*
X118925010Y-56885380D01*
G37*
G36*
X118925010Y-57235370D02*
G01*
X118260010Y-57235370D01*
X118260010Y-57039360D01*
X118925010Y-57039360D01*
X118925010Y-57235370D01*
G37*
G36*
X118925010Y-57585380D02*
G01*
X118260010Y-57585380D01*
X118260010Y-57389370D01*
X118925010Y-57389370D01*
X118925010Y-57585380D01*
G37*
G36*
X118925010Y-57935370D02*
G01*
X118260010Y-57935370D01*
X118260010Y-57739350D01*
X118925010Y-57739350D01*
X118925010Y-57935370D01*
G37*
G36*
X118925010Y-58285380D02*
G01*
X118260010Y-58285380D01*
X118260010Y-58089370D01*
X118925010Y-58089370D01*
X118925010Y-58285380D01*
G37*
G36*
X118925010Y-58635360D02*
G01*
X118260010Y-58635360D01*
X118260010Y-58439350D01*
X118925010Y-58439350D01*
X118925010Y-58635360D01*
G37*
%TD*%
D11*
%TO.C,C43*%
X109917600Y-81877400D03*
X108367600Y-81877400D03*
%TD*%
D12*
%TO.C,C61*%
X78750000Y-69545000D03*
X78750000Y-72495000D03*
%TD*%
D13*
%TO.C,R26*%
X72775000Y-51125000D03*
X71125000Y-51125000D03*
%TD*%
D14*
%TO.C,C88*%
X124100000Y-48575000D03*
X124100000Y-45625000D03*
%TD*%
D15*
%TO.C,R53*%
X101200000Y-87125000D03*
X101200000Y-85475000D03*
%TD*%
D16*
%TO.C,U7*%
X77250000Y-55337500D03*
X76600000Y-55337500D03*
X75950000Y-55337500D03*
X75300000Y-55337500D03*
X75300000Y-59562500D03*
X75950000Y-59562500D03*
X76600000Y-59562500D03*
X77250000Y-59562500D03*
%TD*%
D17*
%TO.C,C49*%
X147000000Y-100225000D03*
X147000000Y-101775000D03*
%TD*%
D18*
%TO.C,C75*%
X76625000Y-62300000D03*
X78175000Y-62300000D03*
%TD*%
D19*
%TO.C,IC8*%
X106012600Y-78857400D03*
X106512600Y-78857400D03*
X107012600Y-78857400D03*
X107512600Y-78857400D03*
X108012600Y-78857400D03*
X108012600Y-74457400D03*
X107512600Y-74457400D03*
X107012600Y-74457400D03*
X106512600Y-74457400D03*
X106012600Y-74457400D03*
%TD*%
D20*
%TO.C,IC2*%
X86775000Y-60275000D03*
X86775000Y-60925000D03*
X86775000Y-61575000D03*
X86775000Y-62225000D03*
X86775000Y-62875000D03*
X86775000Y-63525000D03*
X86775000Y-64175000D03*
X86775000Y-64825000D03*
X86775000Y-65475000D03*
X86775000Y-66125000D03*
X93775000Y-66125000D03*
X93775000Y-65475000D03*
X93775000Y-64825000D03*
X93775000Y-64175000D03*
X93775000Y-63525000D03*
X93775000Y-62875000D03*
X93775000Y-62225000D03*
X93775000Y-61575000D03*
X93775000Y-60925000D03*
X93775000Y-60275000D03*
%TD*%
D12*
%TO.C,C6*%
X90300000Y-68525000D03*
X90300000Y-71475000D03*
%TD*%
%TO.C,C62*%
X76300000Y-69525000D03*
X76300000Y-72475000D03*
%TD*%
D21*
%TO.C,D9*%
X117600000Y-45887500D03*
X117600000Y-44312500D03*
%TD*%
D15*
%TO.C,R11*%
X141857000Y-76479000D03*
X141857000Y-74829000D03*
%TD*%
D14*
%TO.C,C12*%
X121600000Y-48575000D03*
X121600000Y-45625000D03*
%TD*%
D22*
%TO.C,C15*%
X108076008Y-46487508D03*
X106979992Y-45391492D03*
%TD*%
D23*
%TO.C,D2*%
X145150000Y-70102400D03*
X145150000Y-74502400D03*
%TD*%
%TO.C,D3*%
X145150000Y-81850000D03*
X145150000Y-77450000D03*
%TD*%
D15*
%TO.C,R57*%
X141855000Y-80107000D03*
X141855000Y-78457000D03*
%TD*%
D12*
%TO.C,C57*%
X103490000Y-98117500D03*
X103490000Y-101067500D03*
%TD*%
D24*
%TO.C,R17*%
X109892600Y-77497400D03*
X109892600Y-79147400D03*
%TD*%
D25*
%TO.C,R63*%
X141325000Y-53775000D03*
X142975000Y-53775000D03*
%TD*%
D26*
%TO.C,D10*%
X127612500Y-56200000D03*
X129187500Y-56200000D03*
%TD*%
D27*
%TO.C,IC4*%
X67690000Y-68210000D03*
X67690000Y-68860000D03*
X67690000Y-69510000D03*
X67690000Y-70160000D03*
X67690000Y-70810000D03*
X67690000Y-71460000D03*
X67690000Y-72110000D03*
X67690000Y-72760000D03*
X73540000Y-72760000D03*
X73540000Y-72110000D03*
X73540000Y-71460000D03*
X73540000Y-70810000D03*
X73540000Y-70160000D03*
X73540000Y-69510000D03*
X73540000Y-68860000D03*
X73540000Y-68210000D03*
D28*
X70615000Y-70485000D03*
%TD*%
D29*
%TO.C,C53*%
X134000000Y-88375000D03*
X134000000Y-86825000D03*
%TD*%
D30*
%TO.C,D7*%
X95900000Y-87312500D03*
X95900000Y-88887500D03*
%TD*%
D31*
%TO.C,IC7*%
X135952500Y-94437500D03*
X135302500Y-94437500D03*
X134652500Y-94437500D03*
X134002500Y-94437500D03*
X133352500Y-94437500D03*
X135952500Y-93787500D03*
X135302500Y-93787500D03*
X134652500Y-93787500D03*
X134002500Y-93787500D03*
X133352500Y-93787500D03*
X135952500Y-93137500D03*
X135302500Y-93137500D03*
X134652500Y-93137500D03*
X134002500Y-93137500D03*
X133352500Y-93137500D03*
X135952500Y-92487500D03*
X135302500Y-92487500D03*
X134652500Y-92487500D03*
X134002500Y-92487500D03*
X133352500Y-92487500D03*
X135952500Y-91837500D03*
X135302500Y-91837500D03*
X134652500Y-91837500D03*
X134002500Y-91837500D03*
X133352500Y-91837500D03*
%TD*%
D32*
%TO.C,C69*%
X84200000Y-77650000D03*
X84200000Y-75750000D03*
%TD*%
D14*
%TO.C,C65*%
X95038000Y-51050000D03*
X95038000Y-48100000D03*
%TD*%
D15*
%TO.C,R25*%
X138700000Y-92425000D03*
X138700000Y-90775000D03*
%TD*%
D24*
%TO.C,R56*%
X117600000Y-41050000D03*
X117600000Y-42700000D03*
%TD*%
D11*
%TO.C,C44*%
X113475000Y-79700000D03*
X111925000Y-79700000D03*
%TD*%
D33*
%TO.C,D8*%
X93200000Y-83950000D03*
X93200000Y-88050000D03*
%TD*%
D18*
%TO.C,C36*%
X130450000Y-49000000D03*
X132000000Y-49000000D03*
%TD*%
D34*
%TO.C,L4*%
X78725000Y-78100000D03*
X81875000Y-78100000D03*
%TD*%
D15*
%TO.C,R36*%
X102775000Y-59590000D03*
X102775000Y-57940000D03*
%TD*%
D12*
%TO.C,C77*%
X81915000Y-69610000D03*
X81915000Y-72560000D03*
%TD*%
D15*
%TO.C,R6*%
X98045000Y-59600000D03*
X98045000Y-57950000D03*
%TD*%
%TO.C,R20*%
X143400000Y-92425000D03*
X143400000Y-90775000D03*
%TD*%
D35*
%TO.C,D6*%
X72200000Y-57800000D03*
X72200000Y-53800000D03*
%TD*%
D11*
%TO.C,C8*%
X78175000Y-48500000D03*
X76625000Y-48500000D03*
%TD*%
D15*
%TO.C,R15*%
X110442600Y-71232400D03*
X110442600Y-69582400D03*
%TD*%
D25*
%TO.C,R32*%
X68352500Y-66462500D03*
X70002500Y-66462500D03*
%TD*%
D12*
%TO.C,C22*%
X124600000Y-60775000D03*
X124600000Y-63725000D03*
%TD*%
%TO.C,C76*%
X84415000Y-69610000D03*
X84415000Y-72560000D03*
%TD*%
D15*
%TO.C,R33*%
X63190000Y-67847500D03*
X63190000Y-66197500D03*
%TD*%
D13*
%TO.C,R9*%
X139062500Y-44937500D03*
X137412500Y-44937500D03*
%TD*%
D36*
%TO.C,U4*%
X150425000Y-59350000D03*
X150425000Y-58550000D03*
D37*
X150425000Y-57400000D03*
X150425000Y-56400000D03*
X150425000Y-55900000D03*
X150425000Y-54900000D03*
D36*
X150425000Y-52950000D03*
X150425000Y-53750000D03*
D37*
X150425000Y-54400000D03*
X150425000Y-55400000D03*
X150425000Y-56900000D03*
X150425000Y-57900000D03*
%TD*%
D38*
%TO.C,C37*%
X129825000Y-47025000D03*
X132775000Y-47025000D03*
%TD*%
D13*
%TO.C,R4*%
X132725000Y-56200000D03*
X131075000Y-56200000D03*
%TD*%
D12*
%TO.C,C47*%
X139800000Y-97625000D03*
X139800000Y-100575000D03*
%TD*%
D34*
%TO.C,L5*%
X78840000Y-67285000D03*
X81990000Y-67285000D03*
%TD*%
%TO.C,L3*%
X78725000Y-74800000D03*
X81875000Y-74800000D03*
%TD*%
D12*
%TO.C,C64*%
X60700000Y-70125000D03*
X60700000Y-73075000D03*
%TD*%
D39*
%TO.C,D1*%
X132387500Y-86700000D03*
X130812500Y-86700000D03*
%TD*%
D32*
%TO.C,C72*%
X76500000Y-77450000D03*
X76500000Y-75550000D03*
%TD*%
D38*
%TO.C,C1*%
X85725000Y-55700000D03*
X88675000Y-55700000D03*
%TD*%
D17*
%TO.C,C10*%
X96600000Y-69125000D03*
X96600000Y-70675000D03*
%TD*%
D11*
%TO.C,C7*%
X78175000Y-50200000D03*
X76625000Y-50200000D03*
%TD*%
D39*
%TO.C,D5*%
X73040000Y-66452500D03*
X71465000Y-66452500D03*
%TD*%
D25*
%TO.C,R23*%
X130775000Y-88400000D03*
X132425000Y-88400000D03*
%TD*%
D24*
%TO.C,R22*%
X141900000Y-90775000D03*
X141900000Y-92425000D03*
%TD*%
D12*
%TO.C,C16*%
X127100000Y-60825000D03*
X127100000Y-63775000D03*
%TD*%
D40*
%TO.C,D11*%
X145900000Y-94615000D03*
X145900000Y-90585000D03*
%TD*%
D11*
%TO.C,C95*%
X121007500Y-71437500D03*
X119457500Y-71437500D03*
%TD*%
D17*
%TO.C,C55*%
X128000000Y-90225000D03*
X128000000Y-91775000D03*
%TD*%
D29*
%TO.C,C68*%
X82918000Y-49455000D03*
X82918000Y-47905000D03*
%TD*%
D15*
%TO.C,R5*%
X96485000Y-59620000D03*
X96485000Y-57970000D03*
%TD*%
D17*
%TO.C,C96*%
X89965000Y-41582500D03*
X89965000Y-43132500D03*
%TD*%
%TO.C,C48*%
X148600000Y-100225000D03*
X148600000Y-101775000D03*
%TD*%
D38*
%TO.C,C39*%
X129825000Y-42275000D03*
X132775000Y-42275000D03*
%TD*%
D12*
%TO.C,C58*%
X101090000Y-98125000D03*
X101090000Y-101075000D03*
%TD*%
D29*
%TO.C,C73*%
X74600000Y-77275000D03*
X74600000Y-75725000D03*
%TD*%
D24*
%TO.C,R1*%
X80800000Y-52975000D03*
X80800000Y-54625000D03*
%TD*%
D25*
%TO.C,R55*%
X113507500Y-71577500D03*
X115157500Y-71577500D03*
%TD*%
D15*
%TO.C,R7*%
X99625000Y-59600000D03*
X99625000Y-57950000D03*
%TD*%
D12*
%TO.C,C21*%
X129700000Y-60825000D03*
X129700000Y-63775000D03*
%TD*%
D41*
%TO.C,SW1*%
X85760000Y-42282500D03*
X81610000Y-42282500D03*
%TD*%
D15*
%TO.C,R12*%
X105802600Y-71212400D03*
X105802600Y-69562400D03*
%TD*%
D17*
%TO.C,C9*%
X88100000Y-68525000D03*
X88100000Y-70075000D03*
%TD*%
%TO.C,C46*%
X137700000Y-98425000D03*
X137700000Y-99975000D03*
%TD*%
D25*
%TO.C,R18*%
X115075000Y-79700000D03*
X116725000Y-79700000D03*
%TD*%
D42*
%TO.C,U5*%
X113735000Y-73772500D03*
X113735000Y-75042500D03*
X113735000Y-76312500D03*
X113735000Y-77582500D03*
X120910000Y-77582500D03*
X120910000Y-76312500D03*
X120910000Y-75042500D03*
X120910000Y-73772500D03*
%TD*%
D25*
%TO.C,R3*%
X76575000Y-51800000D03*
X78225000Y-51800000D03*
%TD*%
D15*
%TO.C,R59*%
X101080000Y-43042500D03*
X101080000Y-41392500D03*
%TD*%
D17*
%TO.C,C41*%
X104182600Y-74262400D03*
X104182600Y-75812400D03*
%TD*%
%TO.C,C54*%
X129600000Y-90225000D03*
X129600000Y-91775000D03*
%TD*%
D13*
%TO.C,R10*%
X142112500Y-44937500D03*
X140462500Y-44937500D03*
%TD*%
D17*
%TO.C,C24*%
X119300000Y-61225000D03*
X119300000Y-62775000D03*
%TD*%
D11*
%TO.C,C4*%
X82975000Y-58700000D03*
X81425000Y-58700000D03*
%TD*%
D18*
%TO.C,C42*%
X104097600Y-81897400D03*
X105647600Y-81897400D03*
%TD*%
D15*
%TO.C,R28*%
X88225000Y-96675000D03*
X88225000Y-95025000D03*
%TD*%
D18*
%TO.C,C2*%
X86225000Y-57900000D03*
X87775000Y-57900000D03*
%TD*%
D43*
%TO.C,Q1*%
X97650000Y-87137500D03*
X99550000Y-87137500D03*
X98600000Y-84862500D03*
%TD*%
D17*
%TO.C,C35*%
X143000000Y-47425000D03*
X143000000Y-48975000D03*
%TD*%
D44*
%TO.C,L1*%
X135700000Y-49100000D03*
X135700000Y-46800000D03*
%TD*%
D38*
%TO.C,C38*%
X129825000Y-44650000D03*
X132775000Y-44650000D03*
%TD*%
D18*
%TO.C,C89*%
X145725000Y-53100000D03*
X147275000Y-53100000D03*
%TD*%
D29*
%TO.C,C11*%
X96600000Y-73975000D03*
X96600000Y-72425000D03*
%TD*%
D12*
%TO.C,C63*%
X63100000Y-70125000D03*
X63100000Y-73075000D03*
%TD*%
D27*
%TO.C,IC5*%
X91875000Y-97025000D03*
X91875000Y-97675000D03*
X91875000Y-98325000D03*
X91875000Y-98975000D03*
X91875000Y-99625000D03*
X91875000Y-100275000D03*
X91875000Y-100925000D03*
X91875000Y-101575000D03*
X97725000Y-101575000D03*
X97725000Y-100925000D03*
X97725000Y-100275000D03*
X97725000Y-99625000D03*
X97725000Y-98975000D03*
X97725000Y-98325000D03*
X97725000Y-97675000D03*
X97725000Y-97025000D03*
D28*
X94800000Y-99300000D03*
%TD*%
D13*
%TO.C,R30*%
X88225000Y-93500000D03*
X86575000Y-93500000D03*
%TD*%
D11*
%TO.C,C3*%
X82975000Y-60300000D03*
X81425000Y-60300000D03*
%TD*%
D45*
%TO.C,Y3*%
X109009142Y-42912723D03*
X110564777Y-44468358D03*
X111766858Y-43266277D03*
X110211223Y-41710642D03*
%TD*%
D24*
%TO.C,R2*%
X83100000Y-52975000D03*
X83100000Y-54625000D03*
%TD*%
D18*
%TO.C,C93*%
X121425000Y-51700000D03*
X122975000Y-51700000D03*
%TD*%
D17*
%TO.C,C23*%
X117700000Y-61225000D03*
X117700000Y-62775000D03*
%TD*%
D39*
%TO.C,D4*%
X97552500Y-95425000D03*
X95977500Y-95425000D03*
%TD*%
D29*
%TO.C,C51*%
X140300000Y-92375000D03*
X140300000Y-90825000D03*
%TD*%
D17*
%TO.C,C45*%
X136100000Y-98425000D03*
X136100000Y-99975000D03*
%TD*%
D24*
%TO.C,R16*%
X104192600Y-69537400D03*
X104192600Y-71187400D03*
%TD*%
D46*
%TO.C,J3*%
X118485000Y-99857500D03*
D47*
X118485000Y-83857500D03*
%TD*%
D15*
%TO.C,R70*%
X141821000Y-72982000D03*
X141821000Y-71332000D03*
%TD*%
D41*
%TO.C,SW2*%
X98435000Y-42207500D03*
X94285000Y-42207500D03*
%TD*%
D17*
%TO.C,C27*%
X122575000Y-61175000D03*
X122575000Y-62725000D03*
%TD*%
D12*
%TO.C,C60*%
X85775000Y-98355000D03*
X85775000Y-101305000D03*
%TD*%
D29*
%TO.C,C66*%
X92900000Y-50475000D03*
X92900000Y-48925000D03*
%TD*%
D15*
%TO.C,R58*%
X88345000Y-43162500D03*
X88345000Y-41512500D03*
%TD*%
%TO.C,R13*%
X107352600Y-71222400D03*
X107352600Y-69572400D03*
%TD*%
D24*
%TO.C,R35*%
X65430000Y-72760000D03*
X65430000Y-74410000D03*
%TD*%
D14*
%TO.C,C67*%
X80858000Y-50990000D03*
X80858000Y-48040000D03*
%TD*%
D25*
%TO.C,R29*%
X92485000Y-95395000D03*
X94135000Y-95395000D03*
%TD*%
D17*
%TO.C,C26*%
X120950000Y-61175000D03*
X120950000Y-62725000D03*
%TD*%
D15*
%TO.C,R14*%
X108892600Y-71222400D03*
X108892600Y-69572400D03*
%TD*%
D29*
%TO.C,C70*%
X87700000Y-77575000D03*
X87700000Y-76025000D03*
%TD*%
D13*
%TO.C,R27*%
X132725000Y-54300000D03*
X131075000Y-54300000D03*
%TD*%
D15*
%TO.C,R19*%
X143400000Y-95425000D03*
X143400000Y-93775000D03*
%TD*%
D12*
%TO.C,C59*%
X88225000Y-98375000D03*
X88225000Y-101325000D03*
%TD*%
D48*
%TO.C,IC1*%
X90612000Y-51905000D03*
X90612000Y-50635000D03*
X90612000Y-49365000D03*
X90612000Y-48095000D03*
X85188000Y-48095000D03*
X85188000Y-49365000D03*
X85188000Y-50635000D03*
X85188000Y-51905000D03*
%TD*%
D18*
%TO.C,C40*%
X137025000Y-72012500D03*
X138575000Y-72012500D03*
%TD*%
D15*
%TO.C,R31*%
X101195000Y-59595000D03*
X101195000Y-57945000D03*
%TD*%
D26*
%TO.C,D12*%
X127612500Y-54300000D03*
X129187500Y-54300000D03*
%TD*%
D14*
%TO.C,C52*%
X136100000Y-88875000D03*
X136100000Y-85925000D03*
%TD*%
D13*
%TO.C,R8*%
X72775000Y-60225000D03*
X71125000Y-60225000D03*
%TD*%
D15*
%TO.C,R34*%
X65400000Y-71300000D03*
X65400000Y-69650000D03*
%TD*%
D25*
%TO.C,R65*%
X141325000Y-56875000D03*
X142975000Y-56875000D03*
%TD*%
D24*
%TO.C,R60*%
X95900000Y-90575000D03*
X95900000Y-92225000D03*
%TD*%
D49*
%TO.C,C14*%
X112509992Y-46457508D03*
X113606008Y-45361492D03*
%TD*%
D50*
%TO.C,C5*%
X83732500Y-56642500D03*
X80782500Y-56642500D03*
%TD*%
D15*
%TO.C,R21*%
X132200000Y-98925000D03*
X132200000Y-97275000D03*
%TD*%
D25*
%TO.C,R62*%
X141325000Y-58425000D03*
X142975000Y-58425000D03*
%TD*%
D51*
%TO.C,U2*%
X138662500Y-47150000D03*
X138662500Y-48100000D03*
X138662500Y-49050000D03*
X140937500Y-49050000D03*
X140937500Y-47150000D03*
%TD*%
D25*
%TO.C,R64*%
X141325000Y-55325000D03*
X142975000Y-55325000D03*
%TD*%
D18*
%TO.C,C74*%
X64525000Y-49100000D03*
X66075000Y-49100000D03*
%TD*%
D52*
%TO.C,Y4*%
X105382600Y-85257400D03*
X105382600Y-90757400D03*
X108582600Y-90757400D03*
X108582600Y-85257400D03*
%TD*%
D29*
%TO.C,C71*%
X86100000Y-77575000D03*
X86100000Y-76025000D03*
%TD*%
D53*
%TO.C,L2*%
X145075000Y-97600000D03*
X141925000Y-97600000D03*
%TD*%
D54*
%TO.C,U3*%
X129873000Y-73690000D03*
X129873000Y-74960000D03*
X129873000Y-76230000D03*
X129873000Y-77500000D03*
X134823000Y-77500000D03*
X134823000Y-76230000D03*
X134823000Y-74960000D03*
X134823000Y-73690000D03*
%TD*%
D11*
%TO.C,C56*%
X140575000Y-89000000D03*
X139025000Y-89000000D03*
%TD*%
D55*
%TO.C,C50*%
X145100000Y-99950000D03*
X145100000Y-101850000D03*
%TD*%
D24*
%TO.C,R24*%
X129100000Y-86775000D03*
X129100000Y-88425000D03*
%TD*%
D56*
%TO.C,Y1*%
X100300000Y-76550000D03*
X100300000Y-68050000D03*
%TD*%
M02*
