%TF.GenerationSoftware,KiCad,Pcbnew,9.0.3*%
%TF.CreationDate,2025-11-17T14:25:06+08:00*%
%TF.ProjectId,piezometer,7069657a-6f6d-4657-9465-722e6b696361,rev?*%
%TF.SameCoordinates,Original*%
%TF.FileFunction,Copper,L1,Top*%
%TF.FilePolarity,Positive*%
%FSLAX46Y46*%
G04 Gerber Fmt 4.6, Leading zero omitted, Abs format (unit mm)*
G04 Created by KiCad (PCBNEW 9.0.3) date 2025-11-17 14:25:06*
%MOMM*%
%LPD*%
G01*
G04 APERTURE LIST*
G04 Aperture macros list*
%AMRoundRect*
0 Rectangle with rounded corners*
0 $1 Rounding radius*
0 $2 $3 $4 $5 $6 $7 $8 $9 X,Y pos of 4 corners*
0 Add a 4 corners polygon primitive as box body*
4,1,4,$2,$3,$4,$5,$6,$7,$8,$9,$2,$3,0*
0 Add four circle primitives for the rounded corners*
1,1,$1+$1,$2,$3*
1,1,$1+$1,$4,$5*
1,1,$1+$1,$6,$7*
1,1,$1+$1,$8,$9*
0 Add four rect primitives between the rounded corners*
20,1,$1+$1,$2,$3,$4,$5,0*
20,1,$1+$1,$4,$5,$6,$7,0*
20,1,$1+$1,$6,$7,$8,$9,0*
20,1,$1+$1,$8,$9,$2,$3,0*%
%AMRotRect*
0 Rectangle, with rotation*
0 The origin of the aperture is its center*
0 $1 length*
0 $2 width*
0 $3 Rotation angle, in degrees counterclockwise*
0 Add horizontal line*
21,1,$1,$2,0,0,$3*%
G04 Aperture macros list end*
%TA.AperFunction,ComponentPad*%
%ADD10C,2.000000*%
%TD*%
%TA.AperFunction,SMDPad,CuDef*%
%ADD11RoundRect,0.225000X0.225000X0.250000X-0.225000X0.250000X-0.225000X-0.250000X0.225000X-0.250000X0*%
%TD*%
%TA.AperFunction,SMDPad,CuDef*%
%ADD12RoundRect,0.250000X-0.650000X0.325000X-0.650000X-0.325000X0.650000X-0.325000X0.650000X0.325000X0*%
%TD*%
%TA.AperFunction,SMDPad,CuDef*%
%ADD13RoundRect,0.200000X0.200000X0.275000X-0.200000X0.275000X-0.200000X-0.275000X0.200000X-0.275000X0*%
%TD*%
%TA.AperFunction,SMDPad,CuDef*%
%ADD14RoundRect,0.250000X0.650000X-0.325000X0.650000X0.325000X-0.650000X0.325000X-0.650000X-0.325000X0*%
%TD*%
%TA.AperFunction,SMDPad,CuDef*%
%ADD15RoundRect,0.200000X0.275000X-0.200000X0.275000X0.200000X-0.275000X0.200000X-0.275000X-0.200000X0*%
%TD*%
%TA.AperFunction,SMDPad,CuDef*%
%ADD16RoundRect,0.125000X-0.125000X0.687500X-0.125000X-0.687500X0.125000X-0.687500X0.125000X0.687500X0*%
%TD*%
%TA.AperFunction,SMDPad,CuDef*%
%ADD17RoundRect,0.225000X-0.250000X0.225000X-0.250000X-0.225000X0.250000X-0.225000X0.250000X0.225000X0*%
%TD*%
%TA.AperFunction,SMDPad,CuDef*%
%ADD18RoundRect,0.225000X-0.225000X-0.250000X0.225000X-0.250000X0.225000X0.250000X-0.225000X0.250000X0*%
%TD*%
%TA.AperFunction,SMDPad,CuDef*%
%ADD19R,0.300000X1.400000*%
%TD*%
%TA.AperFunction,ComponentPad*%
%ADD20RoundRect,0.250000X-1.050000X1.050000X-1.050000X-1.050000X1.050000X-1.050000X1.050000X1.050000X0*%
%TD*%
%TA.AperFunction,ComponentPad*%
%ADD21C,2.600000*%
%TD*%
%TA.AperFunction,SMDPad,CuDef*%
%ADD22RoundRect,0.125000X-0.825000X-0.125000X0.825000X-0.125000X0.825000X0.125000X-0.825000X0.125000X0*%
%TD*%
%TA.AperFunction,ComponentPad*%
%ADD23C,2.200000*%
%TD*%
%TA.AperFunction,ComponentPad*%
%ADD24R,1.800000X1.800000*%
%TD*%
%TA.AperFunction,ComponentPad*%
%ADD25C,1.800000*%
%TD*%
%TA.AperFunction,SMDPad,CuDef*%
%ADD26RoundRect,0.218750X0.256250X-0.218750X0.256250X0.218750X-0.256250X0.218750X-0.256250X-0.218750X0*%
%TD*%
%TA.AperFunction,SMDPad,CuDef*%
%ADD27RoundRect,0.225000X0.335876X0.017678X0.017678X0.335876X-0.335876X-0.017678X-0.017678X-0.335876X0*%
%TD*%
%TA.AperFunction,SMDPad,CuDef*%
%ADD28R,2.150000X2.250000*%
%TD*%
%TA.AperFunction,SMDPad,CuDef*%
%ADD29RoundRect,0.200000X-0.275000X0.200000X-0.275000X-0.200000X0.275000X-0.200000X0.275000X0.200000X0*%
%TD*%
%TA.AperFunction,SMDPad,CuDef*%
%ADD30RoundRect,0.200000X-0.200000X-0.275000X0.200000X-0.275000X0.200000X0.275000X-0.200000X0.275000X0*%
%TD*%
%TA.AperFunction,SMDPad,CuDef*%
%ADD31RoundRect,0.218750X-0.218750X-0.256250X0.218750X-0.256250X0.218750X0.256250X-0.218750X0.256250X0*%
%TD*%
%TA.AperFunction,SMDPad,CuDef*%
%ADD32R,1.450000X0.450000*%
%TD*%
%TA.AperFunction,SMDPad,CuDef*%
%ADD33R,2.940000X3.580000*%
%TD*%
%TA.AperFunction,SMDPad,CuDef*%
%ADD34RoundRect,0.225000X0.250000X-0.225000X0.250000X0.225000X-0.250000X0.225000X-0.250000X-0.225000X0*%
%TD*%
%TA.AperFunction,SMDPad,CuDef*%
%ADD35RoundRect,0.218750X-0.256250X0.218750X-0.256250X-0.218750X0.256250X-0.218750X0.256250X0.218750X0*%
%TD*%
%TA.AperFunction,SMDPad,CuDef*%
%ADD36C,0.370000*%
%TD*%
%TA.AperFunction,SMDPad,CuDef*%
%ADD37RoundRect,0.250000X0.475000X-0.250000X0.475000X0.250000X-0.475000X0.250000X-0.475000X-0.250000X0*%
%TD*%
%TA.AperFunction,SMDPad,CuDef*%
%ADD38R,1.550000X2.200000*%
%TD*%
%TA.AperFunction,SMDPad,CuDef*%
%ADD39RoundRect,0.250000X-0.275000X-0.700000X0.275000X-0.700000X0.275000X0.700000X-0.275000X0.700000X0*%
%TD*%
%TA.AperFunction,SMDPad,CuDef*%
%ADD40RoundRect,0.250000X0.650000X-1.000000X0.650000X1.000000X-0.650000X1.000000X-0.650000X-1.000000X0*%
%TD*%
%TA.AperFunction,SMDPad,CuDef*%
%ADD41R,1.100000X0.600000*%
%TD*%
%TA.AperFunction,SMDPad,CuDef*%
%ADD42R,1.100000X0.300000*%
%TD*%
%TA.AperFunction,ComponentPad*%
%ADD43C,2.280000*%
%TD*%
%TA.AperFunction,ComponentPad*%
%ADD44C,2.850000*%
%TD*%
%TA.AperFunction,SMDPad,CuDef*%
%ADD45RoundRect,0.250000X-0.325000X-0.650000X0.325000X-0.650000X0.325000X0.650000X-0.325000X0.650000X0*%
%TD*%
%TA.AperFunction,SMDPad,CuDef*%
%ADD46RoundRect,0.218750X0.218750X0.256250X-0.218750X0.256250X-0.218750X-0.256250X0.218750X-0.256250X0*%
%TD*%
%TA.AperFunction,SMDPad,CuDef*%
%ADD47R,1.640000X1.400000*%
%TD*%
%TA.AperFunction,SMDPad,CuDef*%
%ADD48R,1.350000X1.800000*%
%TD*%
%TA.AperFunction,SMDPad,CuDef*%
%ADD49RoundRect,0.162500X-0.650000X-0.162500X0.650000X-0.162500X0.650000X0.162500X-0.650000X0.162500X0*%
%TD*%
%TA.AperFunction,SMDPad,CuDef*%
%ADD50RoundRect,0.150000X0.150000X-0.512500X0.150000X0.512500X-0.150000X0.512500X-0.150000X-0.512500X0*%
%TD*%
%TA.AperFunction,SMDPad,CuDef*%
%ADD51RoundRect,0.200000X1.150000X-0.200000X1.150000X0.200000X-1.150000X0.200000X-1.150000X-0.200000X0*%
%TD*%
%TA.AperFunction,SMDPad,CuDef*%
%ADD52RotRect,1.200000X1.400000X45.000000*%
%TD*%
%TA.AperFunction,SMDPad,CuDef*%
%ADD53R,0.650010X0.150010*%
%TD*%
%TA.AperFunction,SMDPad,CuDef*%
%ADD54R,0.150010X0.650010*%
%TD*%
%TA.AperFunction,SMDPad,CuDef*%
%ADD55R,8.499980X8.499980*%
%TD*%
%TA.AperFunction,WasherPad*%
%ADD56C,1.400000*%
%TD*%
%TA.AperFunction,SMDPad,CuDef*%
%ADD57R,2.300000X4.000000*%
%TD*%
%TA.AperFunction,SMDPad,CuDef*%
%ADD58R,2.300000X4.400000*%
%TD*%
%TA.AperFunction,ComponentPad*%
%ADD59RoundRect,0.250000X1.050000X-1.050000X1.050000X1.050000X-1.050000X1.050000X-1.050000X-1.050000X0*%
%TD*%
%TA.AperFunction,SMDPad,CuDef*%
%ADD60R,1.525000X0.650000*%
%TD*%
%TA.AperFunction,ComponentPad*%
%ADD61C,1.400000*%
%TD*%
%TA.AperFunction,SMDPad,CuDef*%
%ADD62RoundRect,0.225000X0.017678X-0.335876X0.335876X-0.017678X-0.017678X0.335876X-0.335876X0.017678X0*%
%TD*%
%TA.AperFunction,SMDPad,CuDef*%
%ADD63RoundRect,0.250000X0.325000X0.650000X-0.325000X0.650000X-0.325000X-0.650000X0.325000X-0.650000X0*%
%TD*%
%TA.AperFunction,SMDPad,CuDef*%
%ADD64RoundRect,0.150000X-0.512500X-0.150000X0.512500X-0.150000X0.512500X0.150000X-0.512500X0.150000X0*%
%TD*%
%TA.AperFunction,SMDPad,CuDef*%
%ADD65R,1.900000X1.300000*%
%TD*%
%TA.AperFunction,SMDPad,CuDef*%
%ADD66RoundRect,0.250000X0.275000X0.700000X-0.275000X0.700000X-0.275000X-0.700000X0.275000X-0.700000X0*%
%TD*%
%TA.AperFunction,SMDPad,CuDef*%
%ADD67RoundRect,0.150000X-0.825000X-0.150000X0.825000X-0.150000X0.825000X0.150000X-0.825000X0.150000X0*%
%TD*%
%TA.AperFunction,SMDPad,CuDef*%
%ADD68RoundRect,0.250000X-0.475000X0.250000X-0.475000X-0.250000X0.475000X-0.250000X0.475000X0.250000X0*%
%TD*%
%TA.AperFunction,SMDPad,CuDef*%
%ADD69RoundRect,0.250000X0.750000X-2.000000X0.750000X2.000000X-0.750000X2.000000X-0.750000X-2.000000X0*%
%TD*%
%TA.AperFunction,ViaPad*%
%ADD70C,0.600000*%
%TD*%
%TA.AperFunction,ViaPad*%
%ADD71C,0.400000*%
%TD*%
%TA.AperFunction,ViaPad*%
%ADD72C,0.300000*%
%TD*%
%TA.AperFunction,ViaPad*%
%ADD73C,0.250000*%
%TD*%
%TA.AperFunction,ViaPad*%
%ADD74C,0.500000*%
%TD*%
%TA.AperFunction,Conductor*%
%ADD75C,0.254000*%
%TD*%
%TA.AperFunction,Conductor*%
%ADD76C,0.400000*%
%TD*%
%TA.AperFunction,Conductor*%
%ADD77C,0.120000*%
%TD*%
%TA.AperFunction,Conductor*%
%ADD78C,0.304800*%
%TD*%
%TA.AperFunction,Conductor*%
%ADD79C,0.500000*%
%TD*%
%TA.AperFunction,Conductor*%
%ADD80C,0.150000*%
%TD*%
%TA.AperFunction,Conductor*%
%ADD81C,0.200000*%
%TD*%
%TA.AperFunction,Conductor*%
%ADD82C,1.000000*%
%TD*%
G04 APERTURE END LIST*
D10*
%TO.P,TX1,1,1*%
%TO.N,/RS485_TX*%
X125948000Y-70616000D03*
%TD*%
D11*
%TO.P,C43,1*%
%TO.N,GND*%
X109917600Y-81877400D03*
%TO.P,C43,2*%
%TO.N,Net-(IC8-X2)*%
X108367600Y-81877400D03*
%TD*%
D12*
%TO.P,C61,1*%
%TO.N,Net-(IC4-IN_1)*%
X78750000Y-69545000D03*
%TO.P,C61,2*%
%TO.N,AGND*%
X78750000Y-72495000D03*
%TD*%
D13*
%TO.P,R26,1*%
%TO.N,AGND*%
X72775000Y-51125000D03*
%TO.P,R26,2*%
%TO.N,Net-(D6-A2)*%
X71125000Y-51125000D03*
%TD*%
D14*
%TO.P,C88,1*%
%TO.N,VCC_3V3*%
X124100000Y-48575000D03*
%TO.P,C88,2*%
%TO.N,GND*%
X124100000Y-45625000D03*
%TD*%
D15*
%TO.P,R53,1*%
%TO.N,Net-(Q1-B)*%
X101200000Y-87125000D03*
%TO.P,R53,2*%
%TO.N,/control*%
X101200000Y-85475000D03*
%TD*%
D16*
%TO.P,U7,1,Rg*%
%TO.N,unconnected-(U7-Rg-Pad1)*%
X77250000Y-55337500D03*
%TO.P,U7,2,-*%
%TO.N,Net-(U7--)*%
X76600000Y-55337500D03*
%TO.P,U7,3,+*%
%TO.N,Net-(D6-A1)*%
X75950000Y-55337500D03*
%TO.P,U7,4,V-*%
%TO.N,AGND*%
X75300000Y-55337500D03*
%TO.P,U7,5,Ref*%
%TO.N,VREF_2V5*%
X75300000Y-59562500D03*
%TO.P,U7,6*%
%TO.N,Net-(U7--)*%
X75950000Y-59562500D03*
%TO.P,U7,7,V+*%
%TO.N,AVDD_5V0*%
X76600000Y-59562500D03*
%TO.P,U7,8,Rg*%
%TO.N,unconnected-(U7-Rg-Pad8)*%
X77250000Y-59562500D03*
%TD*%
D17*
%TO.P,C49,1*%
%TO.N,/Vin*%
X147000000Y-100225000D03*
%TO.P,C49,2*%
%TO.N,GND*%
X147000000Y-101775000D03*
%TD*%
D18*
%TO.P,C75,1*%
%TO.N,AVDD_5V0*%
X76625000Y-62300000D03*
%TO.P,C75,2*%
%TO.N,AGND*%
X78175000Y-62300000D03*
%TD*%
D19*
%TO.P,IC8,1,X1*%
%TO.N,Net-(IC8-X1)*%
X106012600Y-78857400D03*
%TO.P,IC8,2,X2*%
%TO.N,Net-(IC8-X2)*%
X106512600Y-78857400D03*
%TO.P,IC8,3,VBAT*%
%TO.N,/V_BAT*%
X107012600Y-78857400D03*
%TO.P,IC8,4,~{CS}*%
%TO.N,Net-(IC8-~{CS})*%
X107512600Y-78857400D03*
%TO.P,IC8,5,VSS*%
%TO.N,GND*%
X108012600Y-78857400D03*
%TO.P,IC8,6,SI*%
%TO.N,Net-(IC8-SI)*%
X108012600Y-74457400D03*
%TO.P,IC8,7,SO*%
%TO.N,Net-(IC8-SO)*%
X107512600Y-74457400D03*
%TO.P,IC8,8,SCK*%
%TO.N,Net-(IC8-SCK)*%
X107012600Y-74457400D03*
%TO.P,IC8,9,MFP*%
%TO.N,Net-(IC8-MFP)*%
X106512600Y-74457400D03*
%TO.P,IC8,10,VCC*%
%TO.N,VCC_3V3*%
X106012600Y-74457400D03*
%TD*%
D20*
%TO.P,J4,1,Pin_1*%
%TO.N,/Vin_A*%
X64550000Y-53250000D03*
D21*
%TO.P,J4,2,Pin_2*%
%TO.N,Net-(D6-A1)*%
X64550000Y-58330000D03*
%TD*%
D22*
%TO.P,IC2,1,AVDD*%
%TO.N,AVDD_5V0*%
X86775000Y-60275000D03*
%TO.P,IC2,2,AGND*%
%TO.N,AGND*%
X86775000Y-60925000D03*
%TO.P,IC2,3,VREFN*%
%TO.N,Net-(IC2-VREFN)*%
X86775000Y-61575000D03*
%TO.P,IC2,4,VREFP*%
%TO.N,Net-(IC2-VREFP)*%
X86775000Y-62225000D03*
%TO.P,IC2,5,AINCOM*%
%TO.N,VREF_2V5*%
X86775000Y-62875000D03*
%TO.P,IC2,6,AIN0*%
%TO.N,Net-(IC2-AIN0)*%
X86775000Y-63525000D03*
%TO.P,IC2,7,AIN1*%
%TO.N,AGND*%
X86775000Y-64175000D03*
%TO.P,IC2,8,~{SYNC_}PDWN*%
%TO.N,VCC_3V3*%
X86775000Y-64825000D03*
%TO.P,IC2,9,~{RESET}*%
X86775000Y-65475000D03*
%TO.P,IC2,10,DVDD*%
X86775000Y-66125000D03*
%TO.P,IC2,11,DGND*%
%TO.N,GND*%
X93775000Y-66125000D03*
%TO.P,IC2,12,XTAL2*%
%TO.N,Net-(IC2-XTAL2)*%
X93775000Y-65475000D03*
%TO.P,IC2,13,XTAL1/CLKIN*%
%TO.N,Net-(IC2-XTAL1{slash}CLKIN)*%
X93775000Y-64825000D03*
%TO.P,IC2,14,~{CS}*%
%TO.N,/ADC_CS*%
X93775000Y-64175000D03*
%TO.P,IC2,15,~{DRDY}*%
%TO.N,/ADC_DADY*%
X93775000Y-63525000D03*
%TO.P,IC2,16,DOUT*%
%TO.N,/ADC_DOUT*%
X93775000Y-62875000D03*
%TO.P,IC2,17,DIN*%
%TO.N,/ADC_DIN*%
X93775000Y-62225000D03*
%TO.P,IC2,18,SCLK*%
%TO.N,/ADC_SCLK*%
X93775000Y-61575000D03*
%TO.P,IC2,19,D0/CLKOUT*%
%TO.N,unconnected-(IC2-D0{slash}CLKOUT-Pad19)*%
X93775000Y-60925000D03*
%TO.P,IC2,20,D1*%
%TO.N,unconnected-(IC2-D1-Pad20)*%
X93775000Y-60275000D03*
%TD*%
D12*
%TO.P,C6,1*%
%TO.N,VCC_3V3*%
X90300000Y-68525000D03*
%TO.P,C6,2*%
%TO.N,GND*%
X90300000Y-71475000D03*
%TD*%
%TO.P,C62,1*%
%TO.N,Net-(IC4-IN_1)*%
X76300000Y-69525000D03*
%TO.P,C62,2*%
%TO.N,AGND*%
X76300000Y-72475000D03*
%TD*%
D23*
%TO.P,K2,11*%
%TO.N,/Vin*%
X79637500Y-82042500D03*
%TO.P,K2,12*%
%TO.N,unconnected-(K2-Pad12)*%
X72017500Y-89662500D03*
%TO.P,K2,14*%
%TO.N,/LOAD*%
X72017500Y-82042500D03*
D24*
%TO.P,K2,A1*%
%TO.N,6V*%
X89797500Y-82042500D03*
D25*
%TO.P,K2,A2*%
%TO.N,Net-(D7-K)*%
X89797500Y-89662500D03*
%TD*%
D26*
%TO.P,D9,1,K*%
%TO.N,/LED_GPIO51*%
X117600000Y-45887500D03*
%TO.P,D9,2,A*%
%TO.N,Net-(D9-A)*%
X117600000Y-44312500D03*
%TD*%
D15*
%TO.P,R11,1*%
%TO.N,Net-(JP1-A)*%
X141857000Y-76479000D03*
%TO.P,R11,2*%
%TO.N,/B*%
X141857000Y-74829000D03*
%TD*%
D14*
%TO.P,C12,1*%
%TO.N,VCC_3V3*%
X121600000Y-48575000D03*
%TO.P,C12,2*%
%TO.N,GND*%
X121600000Y-45625000D03*
%TD*%
D10*
%TO.P,6V1,1,1*%
%TO.N,6V*%
X107337000Y-96417000D03*
%TD*%
D27*
%TO.P,C15,1*%
%TO.N,/XTAL_P*%
X108076008Y-46487508D03*
%TO.P,C15,2*%
%TO.N,GND*%
X106979992Y-45391492D03*
%TD*%
D28*
%TO.P,D2,1,1*%
%TO.N,GND*%
X145150000Y-70102400D03*
%TO.P,D2,2,2*%
%TO.N,/B*%
X145150000Y-74502400D03*
%TD*%
%TO.P,D3,1,1*%
%TO.N,GND*%
X145150000Y-81850000D03*
%TO.P,D3,2,2*%
%TO.N,/A*%
X145150000Y-77450000D03*
%TD*%
D15*
%TO.P,R57,1*%
%TO.N,VCC_3V3*%
X141855000Y-80107000D03*
%TO.P,R57,2*%
%TO.N,/A*%
X141855000Y-78457000D03*
%TD*%
D12*
%TO.P,C57,1*%
%TO.N,6V*%
X103490000Y-98117500D03*
%TO.P,C57,2*%
%TO.N,GND*%
X103490000Y-101067500D03*
%TD*%
D29*
%TO.P,R17,1*%
%TO.N,/RTC_CS*%
X109892600Y-77497400D03*
%TO.P,R17,2*%
%TO.N,Net-(IC8-~{CS})*%
X109892600Y-79147400D03*
%TD*%
D30*
%TO.P,R63,1*%
%TO.N,GND*%
X141325000Y-53775000D03*
%TO.P,R63,2*%
%TO.N,Net-(U4-CC2)*%
X142975000Y-53775000D03*
%TD*%
D31*
%TO.P,D10,1,K*%
%TO.N,/LED_GPIO26*%
X127612500Y-56200000D03*
%TO.P,D10,2,A*%
%TO.N,Net-(D10-A)*%
X129187500Y-56200000D03*
%TD*%
D32*
%TO.P,IC4,1,GND_1*%
%TO.N,AGND*%
X67690000Y-68210000D03*
%TO.P,IC4,2,NC_1*%
%TO.N,unconnected-(IC4-NC_1-Pad2)*%
X67690000Y-68860000D03*
%TO.P,IC4,3,OUT_1*%
%TO.N,Net-(IC4-OUT_1)*%
X67690000Y-69510000D03*
%TO.P,IC4,4,OUT_2*%
X67690000Y-70160000D03*
%TO.P,IC4,5,OUT_3*%
X67690000Y-70810000D03*
%TO.P,IC4,6,SENSE/ADJ*%
%TO.N,Net-(IC4-SENSE{slash}ADJ)*%
X67690000Y-71460000D03*
%TO.P,IC4,7,GND_2*%
%TO.N,AGND*%
X67690000Y-72110000D03*
%TO.P,IC4,8,GND_3*%
X67690000Y-72760000D03*
%TO.P,IC4,9,GND_4*%
X73540000Y-72760000D03*
%TO.P,IC4,10,~{SHDN}*%
%TO.N,Net-(IC4-IN_1)*%
X73540000Y-72110000D03*
%TO.P,IC4,11,NC_2*%
%TO.N,unconnected-(IC4-NC_2-Pad11)*%
X73540000Y-71460000D03*
%TO.P,IC4,12,IN_1*%
%TO.N,Net-(IC4-IN_1)*%
X73540000Y-70810000D03*
%TO.P,IC4,13,IN_2*%
X73540000Y-70160000D03*
%TO.P,IC4,14,IN_3*%
X73540000Y-69510000D03*
%TO.P,IC4,15,NC_3*%
%TO.N,unconnected-(IC4-NC_3-Pad15)*%
X73540000Y-68860000D03*
%TO.P,IC4,16,GND_5*%
%TO.N,AGND*%
X73540000Y-68210000D03*
D33*
%TO.P,IC4,17,EP*%
X70615000Y-70485000D03*
%TD*%
D34*
%TO.P,C53,1*%
%TO.N,Net-(IC7-VOUT_1)*%
X134000000Y-88375000D03*
%TO.P,C53,2*%
%TO.N,GND*%
X134000000Y-86825000D03*
%TD*%
D35*
%TO.P,D7,1,K*%
%TO.N,Net-(D7-K)*%
X95900000Y-87312500D03*
%TO.P,D7,2,A*%
%TO.N,Net-(D7-A)*%
X95900000Y-88887500D03*
%TD*%
D36*
%TO.P,IC7,A1,GND_1*%
%TO.N,GND*%
X135952500Y-94437500D03*
%TO.P,IC7,A2,RUN*%
%TO.N,Net-(IC7-RUN)*%
X135302500Y-94437500D03*
%TO.P,IC7,A3,VIN_1*%
%TO.N,Net-(IC7-VIN_1)*%
X134652500Y-94437500D03*
%TO.P,IC7,A4,VIN_2*%
X134002500Y-94437500D03*
%TO.P,IC7,A5,GND_2*%
%TO.N,GND*%
X133352500Y-94437500D03*
%TO.P,IC7,B1,PG*%
%TO.N,Net-(IC7-PG)*%
X135952500Y-93787500D03*
%TO.P,IC7,B2,GND_3*%
%TO.N,GND*%
X135302500Y-93787500D03*
%TO.P,IC7,B3,GND_4*%
X134652500Y-93787500D03*
%TO.P,IC7,B4,GND_5*%
X134002500Y-93787500D03*
%TO.P,IC7,B5,RT*%
%TO.N,Net-(IC7-RT)*%
X133352500Y-93787500D03*
%TO.P,IC7,C1,TR/SS*%
%TO.N,Net-(IC7-TR{slash}SS)*%
X135952500Y-93137500D03*
%TO.P,IC7,C2,GND_6*%
%TO.N,GND*%
X135302500Y-93137500D03*
%TO.P,IC7,C3,GND_7*%
X134652500Y-93137500D03*
%TO.P,IC7,C4,GND_8*%
X134002500Y-93137500D03*
%TO.P,IC7,C5,GND_9*%
X133352500Y-93137500D03*
%TO.P,IC7,D1,FB*%
%TO.N,Net-(IC7-FB)*%
X135952500Y-92487500D03*
%TO.P,IC7,D2,GND_10*%
%TO.N,GND*%
X135302500Y-92487500D03*
%TO.P,IC7,D3,GND_11*%
X134652500Y-92487500D03*
%TO.P,IC7,D4,GND_12*%
X134002500Y-92487500D03*
%TO.P,IC7,D5,SYNC*%
X133352500Y-92487500D03*
%TO.P,IC7,E1,VOUT_1*%
%TO.N,Net-(IC7-VOUT_1)*%
X135952500Y-91837500D03*
%TO.P,IC7,E2,VOUT_2*%
X135302500Y-91837500D03*
%TO.P,IC7,E3,GND_13*%
%TO.N,GND*%
X134652500Y-91837500D03*
%TO.P,IC7,E4,GND_14*%
X134002500Y-91837500D03*
%TO.P,IC7,E5,GND_15*%
X133352500Y-91837500D03*
%TD*%
D37*
%TO.P,C69,1*%
%TO.N,/Vin*%
X84200000Y-77650000D03*
%TO.P,C69,2*%
%TO.N,GND*%
X84200000Y-75750000D03*
%TD*%
D14*
%TO.P,C65,1*%
%TO.N,AVDD_5V0*%
X95038000Y-51050000D03*
%TO.P,C65,2*%
%TO.N,AGND*%
X95038000Y-48100000D03*
%TD*%
D15*
%TO.P,R25,1*%
%TO.N,Net-(IC7-FB)*%
X138700000Y-92425000D03*
%TO.P,R25,2*%
%TO.N,GND*%
X138700000Y-90775000D03*
%TD*%
D29*
%TO.P,R56,1*%
%TO.N,VCC_3V3*%
X117600000Y-41050000D03*
%TO.P,R56,2*%
%TO.N,Net-(D9-A)*%
X117600000Y-42700000D03*
%TD*%
D11*
%TO.P,C44,1*%
%TO.N,/V_BAT*%
X113475000Y-79700000D03*
%TO.P,C44,2*%
%TO.N,GND*%
X111925000Y-79700000D03*
%TD*%
D38*
%TO.P,D8,1,K*%
%TO.N,6V*%
X93200000Y-83950000D03*
%TO.P,D8,2,A*%
%TO.N,Net-(D7-K)*%
X93200000Y-88050000D03*
%TD*%
D10*
%TO.P,TP1,1,1*%
%TO.N,/Vin*%
X152656000Y-102400000D03*
%TD*%
D18*
%TO.P,C36,1*%
%TO.N,GND*%
X130450000Y-49000000D03*
%TO.P,C36,2*%
%TO.N,ESP_VDD_HP*%
X132000000Y-49000000D03*
%TD*%
D39*
%TO.P,L4,1,1*%
%TO.N,/Vin_A*%
X78725000Y-78100000D03*
%TO.P,L4,2,2*%
%TO.N,/Vin*%
X81875000Y-78100000D03*
%TD*%
D15*
%TO.P,R36,1*%
%TO.N,/ADC_CS*%
X102775000Y-59590000D03*
%TO.P,R36,2*%
%TO.N,VCC_3V3*%
X102775000Y-57940000D03*
%TD*%
D12*
%TO.P,C77,1*%
%TO.N,6V*%
X81915000Y-69610000D03*
%TO.P,C77,2*%
%TO.N,GND*%
X81915000Y-72560000D03*
%TD*%
D15*
%TO.P,R6,1*%
%TO.N,/ADC_DIN*%
X98045000Y-59600000D03*
%TO.P,R6,2*%
%TO.N,VCC_3V3*%
X98045000Y-57950000D03*
%TD*%
%TO.P,R20,1*%
%TO.N,Net-(IC7-RUN)*%
X143400000Y-92425000D03*
%TO.P,R20,2*%
%TO.N,GND*%
X143400000Y-90775000D03*
%TD*%
D40*
%TO.P,D6,1,A1*%
%TO.N,Net-(D6-A1)*%
X72200000Y-57800000D03*
%TO.P,D6,2,A2*%
%TO.N,Net-(D6-A2)*%
X72200000Y-53800000D03*
%TD*%
D11*
%TO.P,C8,1*%
%TO.N,Net-(IC2-AIN0)*%
X78175000Y-48500000D03*
%TO.P,C8,2*%
%TO.N,AGND*%
X76625000Y-48500000D03*
%TD*%
D15*
%TO.P,R15,1*%
%TO.N,Net-(IC8-SI)*%
X110442600Y-71232400D03*
%TO.P,R15,2*%
%TO.N,/RTC_SI*%
X110442600Y-69582400D03*
%TD*%
D30*
%TO.P,R32,1*%
%TO.N,AVDD_5V0*%
X68352500Y-66462500D03*
%TO.P,R32,2*%
%TO.N,Net-(D5-A)*%
X70002500Y-66462500D03*
%TD*%
D12*
%TO.P,C22,1*%
%TO.N,VCC_3V3*%
X124600000Y-60775000D03*
%TO.P,C22,2*%
%TO.N,GND*%
X124600000Y-63725000D03*
%TD*%
%TO.P,C76,1*%
%TO.N,6V*%
X84415000Y-69610000D03*
%TO.P,C76,2*%
%TO.N,GND*%
X84415000Y-72560000D03*
%TD*%
D15*
%TO.P,R33,1*%
%TO.N,Net-(IC4-OUT_1)*%
X63190000Y-67847500D03*
%TO.P,R33,2*%
%TO.N,AVDD_5V0*%
X63190000Y-66197500D03*
%TD*%
D13*
%TO.P,R9,1*%
%TO.N,/FB_DCDC*%
X139062500Y-44937500D03*
%TO.P,R9,2*%
%TO.N,ESP_VDD_HP*%
X137412500Y-44937500D03*
%TD*%
D41*
%TO.P,U4,A1,GND*%
%TO.N,GND*%
X150425000Y-59350000D03*
%TO.P,U4,A4,VBUS*%
%TO.N,VUSB*%
X150425000Y-58550000D03*
D42*
%TO.P,U4,A5,CC1*%
%TO.N,Net-(U4-CC1)*%
X150425000Y-57400000D03*
%TO.P,U4,A6,D1+*%
%TO.N,Net-(U4-D1+)*%
X150425000Y-56400000D03*
%TO.P,U4,A7,D1-*%
%TO.N,Net-(U4-D1-)*%
X150425000Y-55900000D03*
%TO.P,U4,A8,SBU1*%
%TO.N,unconnected-(U4-SBU1-PadA8)*%
X150425000Y-54900000D03*
D41*
%TO.P,U4,B1,GND*%
%TO.N,GND*%
X150425000Y-52950000D03*
%TO.P,U4,B4,VBUS*%
%TO.N,VUSB*%
X150425000Y-53750000D03*
D42*
%TO.P,U4,B5,CC2*%
%TO.N,Net-(U4-CC2)*%
X150425000Y-54400000D03*
%TO.P,U4,B6,D2+*%
%TO.N,Net-(U4-D1+)*%
X150425000Y-55400000D03*
%TO.P,U4,B7,D2-*%
%TO.N,Net-(U4-D1-)*%
X150425000Y-56900000D03*
%TO.P,U4,B8,SBU2*%
%TO.N,unconnected-(U4-SBU2-PadB8)*%
X150425000Y-57900000D03*
D43*
%TO.P,U4,MH1,MH1*%
%TO.N,GND*%
X151575000Y-61770000D03*
%TO.P,U4,MH2,MH2*%
X151575000Y-50530000D03*
D44*
%TO.P,U4,MH3,MH3*%
X155575000Y-61770000D03*
%TO.P,U4,MH4,MH4*%
X155575000Y-50530000D03*
%TD*%
D45*
%TO.P,C37,1*%
%TO.N,GND*%
X129825000Y-47025000D03*
%TO.P,C37,2*%
%TO.N,ESP_VDD_HP*%
X132775000Y-47025000D03*
%TD*%
D10*
%TO.P,RX1,1,1*%
%TO.N,/RS485_RX*%
X126016000Y-78021000D03*
%TD*%
D13*
%TO.P,R4,1*%
%TO.N,VCC_3V3*%
X132725000Y-56200000D03*
%TO.P,R4,2*%
%TO.N,Net-(D10-A)*%
X131075000Y-56200000D03*
%TD*%
D12*
%TO.P,C47,1*%
%TO.N,Net-(IC7-VIN_1)*%
X139800000Y-97625000D03*
%TO.P,C47,2*%
%TO.N,GND*%
X139800000Y-100575000D03*
%TD*%
D39*
%TO.P,L5,1,1*%
%TO.N,Net-(IC4-IN_1)*%
X78840000Y-67285000D03*
%TO.P,L5,2,2*%
%TO.N,6V*%
X81990000Y-67285000D03*
%TD*%
%TO.P,L3,1,1*%
%TO.N,AGND*%
X78725000Y-74800000D03*
%TO.P,L3,2,2*%
%TO.N,GND*%
X81875000Y-74800000D03*
%TD*%
D12*
%TO.P,C64,1*%
%TO.N,Net-(IC4-OUT_1)*%
X60700000Y-70125000D03*
%TO.P,C64,2*%
%TO.N,AGND*%
X60700000Y-73075000D03*
%TD*%
D46*
%TO.P,D1,1,K*%
%TO.N,GND*%
X132387500Y-86700000D03*
%TO.P,D1,2,A*%
%TO.N,Net-(D1-A)*%
X130812500Y-86700000D03*
%TD*%
D37*
%TO.P,C72,1*%
%TO.N,/Vin_A*%
X76500000Y-77450000D03*
%TO.P,C72,2*%
%TO.N,AGND*%
X76500000Y-75550000D03*
%TD*%
D10*
%TO.P,A5V1,1,1*%
%TO.N,AVDD_5V0*%
X65627000Y-63082000D03*
%TD*%
D45*
%TO.P,C1,1*%
%TO.N,AVDD_5V0*%
X85725000Y-55700000D03*
%TO.P,C1,2*%
%TO.N,AGND*%
X88675000Y-55700000D03*
%TD*%
D17*
%TO.P,C10,1*%
%TO.N,Net-(IC2-XTAL1{slash}CLKIN)*%
X96600000Y-69125000D03*
%TO.P,C10,2*%
%TO.N,GND*%
X96600000Y-70675000D03*
%TD*%
D11*
%TO.P,C7,1*%
%TO.N,Net-(IC2-AIN0)*%
X78175000Y-50200000D03*
%TO.P,C7,2*%
%TO.N,AGND*%
X76625000Y-50200000D03*
%TD*%
D46*
%TO.P,D5,1,K*%
%TO.N,AGND*%
X73040000Y-66452500D03*
%TO.P,D5,2,A*%
%TO.N,Net-(D5-A)*%
X71465000Y-66452500D03*
%TD*%
D30*
%TO.P,R23,1*%
%TO.N,6V*%
X130775000Y-88400000D03*
%TO.P,R23,2*%
%TO.N,Net-(IC7-VOUT_1)*%
X132425000Y-88400000D03*
%TD*%
D29*
%TO.P,R22,1*%
%TO.N,Net-(IC7-VOUT_1)*%
X141900000Y-90775000D03*
%TO.P,R22,2*%
%TO.N,Net-(IC7-PG)*%
X141900000Y-92425000D03*
%TD*%
D12*
%TO.P,C16,1*%
%TO.N,VCC_3V3*%
X127100000Y-60825000D03*
%TO.P,C16,2*%
%TO.N,GND*%
X127100000Y-63775000D03*
%TD*%
D47*
%TO.P,D11,1,K*%
%TO.N,/Vin*%
X145900000Y-94615000D03*
%TO.P,D11,2,A*%
%TO.N,GND*%
X145900000Y-90585000D03*
%TD*%
D11*
%TO.P,C95,1*%
%TO.N,ESP_LDO_VO1*%
X121007500Y-71437500D03*
%TO.P,C95,2*%
%TO.N,GND*%
X119457500Y-71437500D03*
%TD*%
D17*
%TO.P,C55,1*%
%TO.N,6V*%
X128000000Y-90225000D03*
%TO.P,C55,2*%
%TO.N,GND*%
X128000000Y-91775000D03*
%TD*%
D34*
%TO.P,C68,1*%
%TO.N,VREF_2V5*%
X82918000Y-49455000D03*
%TO.P,C68,2*%
%TO.N,AGND*%
X82918000Y-47905000D03*
%TD*%
D15*
%TO.P,R5,1*%
%TO.N,/ADC_SCLK*%
X96485000Y-59620000D03*
%TO.P,R5,2*%
%TO.N,VCC_3V3*%
X96485000Y-57970000D03*
%TD*%
D17*
%TO.P,C96,1*%
%TO.N,/RESET*%
X89965000Y-41582500D03*
%TO.P,C96,2*%
%TO.N,GND*%
X89965000Y-43132500D03*
%TD*%
%TO.P,C48,1*%
%TO.N,/Vin*%
X148600000Y-100225000D03*
%TO.P,C48,2*%
%TO.N,GND*%
X148600000Y-101775000D03*
%TD*%
D45*
%TO.P,C39,1*%
%TO.N,GND*%
X129825000Y-42275000D03*
%TO.P,C39,2*%
%TO.N,ESP_VDD_HP*%
X132775000Y-42275000D03*
%TD*%
D12*
%TO.P,C58,1*%
%TO.N,6V*%
X101090000Y-98125000D03*
%TO.P,C58,2*%
%TO.N,GND*%
X101090000Y-101075000D03*
%TD*%
D34*
%TO.P,C73,1*%
%TO.N,/Vin_A*%
X74600000Y-77275000D03*
%TO.P,C73,2*%
%TO.N,AGND*%
X74600000Y-75725000D03*
%TD*%
D29*
%TO.P,R1,1*%
%TO.N,VREF_2V5*%
X80800000Y-52975000D03*
%TO.P,R1,2*%
%TO.N,Net-(IC2-VREFP)*%
X80800000Y-54625000D03*
%TD*%
D30*
%TO.P,R55,1*%
%TO.N,/FLASH_CS*%
X113507500Y-71577500D03*
%TO.P,R55,2*%
%TO.N,ESP_LDO_VO1*%
X115157500Y-71577500D03*
%TD*%
D15*
%TO.P,R7,1*%
%TO.N,/ADC_DOUT*%
X99625000Y-59600000D03*
%TO.P,R7,2*%
%TO.N,VCC_3V3*%
X99625000Y-57950000D03*
%TD*%
D12*
%TO.P,C21,1*%
%TO.N,VCC_3V3*%
X129700000Y-60825000D03*
%TO.P,C21,2*%
%TO.N,GND*%
X129700000Y-63775000D03*
%TD*%
D48*
%TO.P,SW1,1,A*%
%TO.N,/RESET*%
X85760000Y-42282500D03*
%TO.P,SW1,2,B*%
%TO.N,GND*%
X81610000Y-42282500D03*
%TD*%
D15*
%TO.P,R12,1*%
%TO.N,Net-(IC8-MFP)*%
X105802600Y-71212400D03*
%TO.P,R12,2*%
%TO.N,/RTC_MFP*%
X105802600Y-69562400D03*
%TD*%
D17*
%TO.P,C9,1*%
%TO.N,VCC_3V3*%
X88100000Y-68525000D03*
%TO.P,C9,2*%
%TO.N,GND*%
X88100000Y-70075000D03*
%TD*%
%TO.P,C46,1*%
%TO.N,Net-(IC7-VIN_1)*%
X137700000Y-98425000D03*
%TO.P,C46,2*%
%TO.N,GND*%
X137700000Y-99975000D03*
%TD*%
D30*
%TO.P,R18,1*%
%TO.N,/V_BAT*%
X115075000Y-79700000D03*
%TO.P,R18,2*%
%TO.N,Net-(J3-Pin_2)*%
X116725000Y-79700000D03*
%TD*%
D49*
%TO.P,U5,1,~{CS}*%
%TO.N,/FLASH_CS*%
X113735000Y-73772500D03*
%TO.P,U5,2,DO/IO_{1}*%
%TO.N,/FLASH_Q*%
X113735000Y-75042500D03*
%TO.P,U5,3,~{WP}/IO_{2}*%
%TO.N,/FLASH_WP*%
X113735000Y-76312500D03*
%TO.P,U5,4,GND*%
%TO.N,GND*%
X113735000Y-77582500D03*
%TO.P,U5,5,DI/IO_{0}*%
%TO.N,/FLASH_D*%
X120910000Y-77582500D03*
%TO.P,U5,6,CLK*%
%TO.N,/FLASH_CK*%
X120910000Y-76312500D03*
%TO.P,U5,7,~{HOLD}/~{RESET}/IO_{3}*%
%TO.N,/FLASH_HD*%
X120910000Y-75042500D03*
%TO.P,U5,8,VCC*%
%TO.N,ESP_LDO_VO1*%
X120910000Y-73772500D03*
%TD*%
D30*
%TO.P,R3,1*%
%TO.N,Net-(U7--)*%
X76575000Y-51800000D03*
%TO.P,R3,2*%
%TO.N,Net-(IC2-AIN0)*%
X78225000Y-51800000D03*
%TD*%
D15*
%TO.P,R59,1*%
%TO.N,VCC_3V3*%
X101080000Y-43042500D03*
%TO.P,R59,2*%
%TO.N,/BOOT_GPIO35*%
X101080000Y-41392500D03*
%TD*%
D17*
%TO.P,C41,1*%
%TO.N,VCC_3V3*%
X104182600Y-74262400D03*
%TO.P,C41,2*%
%TO.N,GND*%
X104182600Y-75812400D03*
%TD*%
%TO.P,C54,1*%
%TO.N,6V*%
X129600000Y-90225000D03*
%TO.P,C54,2*%
%TO.N,GND*%
X129600000Y-91775000D03*
%TD*%
D13*
%TO.P,R10,1*%
%TO.N,GND*%
X142112500Y-44937500D03*
%TO.P,R10,2*%
%TO.N,/FB_DCDC*%
X140462500Y-44937500D03*
%TD*%
D17*
%TO.P,C24,1*%
%TO.N,VCC_3V3*%
X119300000Y-61225000D03*
%TO.P,C24,2*%
%TO.N,GND*%
X119300000Y-62775000D03*
%TD*%
D11*
%TO.P,C4,1*%
%TO.N,Net-(IC2-VREFN)*%
X82975000Y-58700000D03*
%TO.P,C4,2*%
%TO.N,Net-(IC2-VREFP)*%
X81425000Y-58700000D03*
%TD*%
D18*
%TO.P,C42,1*%
%TO.N,GND*%
X104097600Y-81897400D03*
%TO.P,C42,2*%
%TO.N,Net-(IC8-X1)*%
X105647600Y-81897400D03*
%TD*%
D15*
%TO.P,R28,1*%
%TO.N,Net-(IC5-OUT_1)*%
X88225000Y-96675000D03*
%TO.P,R28,2*%
%TO.N,DVDD_3V3*%
X88225000Y-95025000D03*
%TD*%
D18*
%TO.P,C2,1*%
%TO.N,AVDD_5V0*%
X86225000Y-57900000D03*
%TO.P,C2,2*%
%TO.N,AGND*%
X87775000Y-57900000D03*
%TD*%
D50*
%TO.P,Q1,1,C*%
%TO.N,Net-(D7-K)*%
X97650000Y-87137500D03*
%TO.P,Q1,2,B*%
%TO.N,Net-(Q1-B)*%
X99550000Y-87137500D03*
%TO.P,Q1,3,E*%
%TO.N,GND*%
X98600000Y-84862500D03*
%TD*%
D17*
%TO.P,C35,1*%
%TO.N,GND*%
X143000000Y-47425000D03*
%TO.P,C35,2*%
%TO.N,VCC_3V3*%
X143000000Y-48975000D03*
%TD*%
D51*
%TO.P,L1,1,1*%
%TO.N,Net-(U2-SW)*%
X135700000Y-49100000D03*
%TO.P,L1,2,2*%
%TO.N,ESP_VDD_HP*%
X135700000Y-46800000D03*
%TD*%
D45*
%TO.P,C38,1*%
%TO.N,GND*%
X129825000Y-44650000D03*
%TO.P,C38,2*%
%TO.N,ESP_VDD_HP*%
X132775000Y-44650000D03*
%TD*%
D18*
%TO.P,C89,1*%
%TO.N,GND*%
X145725000Y-53100000D03*
%TO.P,C89,2*%
%TO.N,VUSB*%
X147275000Y-53100000D03*
%TD*%
D34*
%TO.P,C11,1*%
%TO.N,Net-(IC2-XTAL2)*%
X96600000Y-73975000D03*
%TO.P,C11,2*%
%TO.N,GND*%
X96600000Y-72425000D03*
%TD*%
D12*
%TO.P,C63,1*%
%TO.N,Net-(IC4-OUT_1)*%
X63100000Y-70125000D03*
%TO.P,C63,2*%
%TO.N,AGND*%
X63100000Y-73075000D03*
%TD*%
D32*
%TO.P,IC5,1,GND_1*%
%TO.N,GND*%
X91875000Y-97025000D03*
%TO.P,IC5,2,NC_1*%
%TO.N,unconnected-(IC5-NC_1-Pad2)*%
X91875000Y-97675000D03*
%TO.P,IC5,3,OUT_1*%
%TO.N,Net-(IC5-OUT_1)*%
X91875000Y-98325000D03*
%TO.P,IC5,4,OUT_2*%
X91875000Y-98975000D03*
%TO.P,IC5,5,OUT_3*%
X91875000Y-99625000D03*
%TO.P,IC5,6,SENSE*%
X91875000Y-100275000D03*
%TO.P,IC5,7,GND_2*%
%TO.N,GND*%
X91875000Y-100925000D03*
%TO.P,IC5,8,GND_3*%
X91875000Y-101575000D03*
%TO.P,IC5,9,GND_4*%
X97725000Y-101575000D03*
%TO.P,IC5,10,~{SHDN}*%
%TO.N,6V*%
X97725000Y-100925000D03*
%TO.P,IC5,11,NC_2*%
%TO.N,unconnected-(IC5-NC_2-Pad11)*%
X97725000Y-100275000D03*
%TO.P,IC5,12,IN_1*%
%TO.N,6V*%
X97725000Y-99625000D03*
%TO.P,IC5,13,IN_2*%
X97725000Y-98975000D03*
%TO.P,IC5,14,IN_3*%
X97725000Y-98325000D03*
%TO.P,IC5,15,NC_3*%
%TO.N,unconnected-(IC5-NC_3-Pad15)*%
X97725000Y-97675000D03*
%TO.P,IC5,16,GND_5*%
%TO.N,GND*%
X97725000Y-97025000D03*
D33*
%TO.P,IC5,17,GND_6*%
X94800000Y-99300000D03*
%TD*%
D13*
%TO.P,R30,1*%
%TO.N,DVDD_3V3*%
X88225000Y-93500000D03*
%TO.P,R30,2*%
%TO.N,VCC_3V3*%
X86575000Y-93500000D03*
%TD*%
D11*
%TO.P,C3,1*%
%TO.N,Net-(IC2-VREFN)*%
X82975000Y-60300000D03*
%TO.P,C3,2*%
%TO.N,Net-(IC2-VREFP)*%
X81425000Y-60300000D03*
%TD*%
D52*
%TO.P,Y3,1,CRYSTAL_1*%
%TO.N,/XTAL_P*%
X109009142Y-42912723D03*
%TO.P,Y3,2,GND_1*%
%TO.N,GND*%
X110564777Y-44468358D03*
%TO.P,Y3,3,CRYSTAL_2*%
%TO.N,/XTAL_N*%
X111766858Y-43266277D03*
%TO.P,Y3,4,GND_2*%
%TO.N,GND*%
X110211223Y-41710642D03*
%TD*%
D29*
%TO.P,R2,1*%
%TO.N,AGND*%
X83100000Y-52975000D03*
%TO.P,R2,2*%
%TO.N,Net-(IC2-VREFN)*%
X83100000Y-54625000D03*
%TD*%
D18*
%TO.P,C93,1*%
%TO.N,ESP_LDO_VO3*%
X121425000Y-51700000D03*
%TO.P,C93,2*%
%TO.N,GND*%
X122975000Y-51700000D03*
%TD*%
D53*
%TO.P,U1,1,GPIO1*%
%TO.N,unconnected-(U1-GPIO1-Pad1)*%
X108600030Y-49787530D03*
%TO.P,U1,2,GPIO2*%
%TO.N,unconnected-(U1-GPIO2-Pad2)*%
X108600030Y-50137540D03*
%TO.P,U1,3,GPIO3*%
%TO.N,unconnected-(U1-GPIO3-Pad3)*%
X108600030Y-50487550D03*
%TO.P,U1,4,GPIO4*%
%TO.N,/control*%
X108600030Y-50837560D03*
%TO.P,U1,5,GPIO5*%
%TO.N,/ADC_DADY*%
X108600030Y-51187320D03*
%TO.P,U1,6,GPIO6*%
%TO.N,unconnected-(U1-GPIO6-Pad6)*%
X108600030Y-51537330D03*
%TO.P,U1,7,GPIO7*%
%TO.N,/ADC_CS*%
X108600030Y-51887350D03*
%TO.P,U1,8,GPIO8*%
%TO.N,/ADC_DIN*%
X108600030Y-52237360D03*
%TO.P,U1,9,VDDPST_1*%
%TO.N,VCC_3V3*%
X108600030Y-52587370D03*
%TO.P,U1,10,GPIO9*%
%TO.N,/ADC_SCLK*%
X108600030Y-52937380D03*
%TO.P,U1,11,GPIO10*%
%TO.N,/ADC_DOUT*%
X108600030Y-53287390D03*
%TO.P,U1,12,GPIO11*%
%TO.N,unconnected-(U1-GPIO11-Pad12)*%
X108600030Y-53637410D03*
%TO.P,U1,13,GPIO12*%
%TO.N,/RTC_SCK*%
X108600030Y-53987420D03*
%TO.P,U1,14,GPIO13*%
%TO.N,/RTC_SO*%
X108600030Y-54337430D03*
%TO.P,U1,15,GPIO14*%
%TO.N,/RTC_SI*%
X108600030Y-54687440D03*
%TO.P,U1,16,GPIO15*%
%TO.N,/RTC_CS*%
X108600030Y-55037450D03*
%TO.P,U1,17,GPIO16*%
%TO.N,/RTC_MFP*%
X108600030Y-55387470D03*
%TO.P,U1,18,GPIO17*%
%TO.N,/RS485_TX*%
X108600030Y-55737480D03*
%TO.P,U1,19,GPIO18*%
%TO.N,/RS485_RX*%
X108600030Y-56087490D03*
%TO.P,U1,20,GPIO19*%
%TO.N,/RS485_RE*%
X108600030Y-56437500D03*
%TO.P,U1,21,VDDPST_2*%
%TO.N,VCC_3V3*%
X108600030Y-56787510D03*
%TO.P,U1,22,GPIO20*%
%TO.N,unconnected-(U1-GPIO20-Pad22)*%
X108600030Y-57137530D03*
%TO.P,U1,23,GPIO21*%
%TO.N,unconnected-(U1-GPIO21-Pad23)*%
X108600030Y-57487540D03*
%TO.P,U1,24,GPIO22*%
%TO.N,unconnected-(U1-GPIO22-Pad24)*%
X108600030Y-57837550D03*
%TO.P,U1,25,GPIO23*%
%TO.N,unconnected-(U1-GPIO23-Pad25)*%
X108600030Y-58187310D03*
%TO.P,U1,26,VDD_HP_0*%
%TO.N,ESP_VDD_HP*%
X108600030Y-58537320D03*
D54*
%TO.P,U1,27,FLASH_CS*%
%TO.N,/FLASH_CS*%
X109225130Y-59162470D03*
%TO.P,U1,28,FLASH_Q*%
%TO.N,/FLASH_Q*%
X109575140Y-59162470D03*
%TO.P,U1,29,FLASH_WP*%
%TO.N,/FLASH_WP*%
X109924900Y-59162410D03*
%TO.P,U1,30,VDDPST_3*%
%TO.N,ESP_LDO_VO1*%
X110275160Y-59162410D03*
%TO.P,U1,31,FLASH_HOLD*%
%TO.N,/FLASH_HD*%
X110624670Y-59162410D03*
%TO.P,U1,32,FLASH_CK*%
%TO.N,/FLASH_CK*%
X110974930Y-59162410D03*
%TO.P,U1,33,FLASH_D*%
%TO.N,/FLASH_D*%
X111324950Y-59162410D03*
%TO.P,U1,34,DSI_REXT*%
%TO.N,unconnected-(U1-DSI_REXT-Pad34)*%
X111674700Y-59162410D03*
%TO.P,U1,35,DSI_DATAP1*%
%TO.N,unconnected-(U1-DSI_DATAP1-Pad35)*%
X112024970Y-59162410D03*
%TO.P,U1,36,DSI_DATAN1*%
%TO.N,unconnected-(U1-DSI_DATAN1-Pad36)*%
X112374980Y-59162410D03*
%TO.P,U1,37,DSI_CLKN*%
%TO.N,unconnected-(U1-DSI_CLKN-Pad37)*%
X112724740Y-59162410D03*
%TO.P,U1,38,DSI_CLKP*%
%TO.N,unconnected-(U1-DSI_CLKP-Pad38)*%
X113075010Y-59162410D03*
%TO.P,U1,39,DSI_DATAP0*%
%TO.N,unconnected-(U1-DSI_DATAP0-Pad39)*%
X113425020Y-59162410D03*
%TO.P,U1,40,DSI_DATAN0*%
%TO.N,unconnected-(U1-DSI_DATAN0-Pad40)*%
X113774780Y-59162410D03*
%TO.P,U1,41,VDD_MIPI_DPHY*%
%TO.N,ESP_LDO_VO3*%
X114125040Y-59162410D03*
%TO.P,U1,42,CSI_DATAN0*%
%TO.N,unconnected-(U1-CSI_DATAN0-Pad42)*%
X114475060Y-59162410D03*
%TO.P,U1,43,CSI_DATAP0*%
%TO.N,unconnected-(U1-CSI_DATAP0-Pad43)*%
X114824810Y-59162410D03*
%TO.P,U1,44,CSI_CLKP*%
%TO.N,unconnected-(U1-CSI_CLKP-Pad44)*%
X115175080Y-59162410D03*
%TO.P,U1,45,CSI_CLKN*%
%TO.N,unconnected-(U1-CSI_CLKN-Pad45)*%
X115525090Y-59162410D03*
%TO.P,U1,46,CSI_DATAN1*%
%TO.N,unconnected-(U1-CSI_DATAN1-Pad46)*%
X115875100Y-59162410D03*
%TO.P,U1,47,CSI_DATAP1*%
%TO.N,unconnected-(U1-CSI_DATAP1-Pad47)*%
X116225120Y-59162410D03*
%TO.P,U1,48,CSI_REXT*%
%TO.N,unconnected-(U1-CSI_REXT-Pad48)*%
X116575130Y-59162410D03*
%TO.P,U1,49,DM*%
%TO.N,unconnected-(U1-DM-Pad49)*%
X116925140Y-59162410D03*
%TO.P,U1,50,DP*%
%TO.N,unconnected-(U1-DP-Pad50)*%
X117275150Y-59162410D03*
%TO.P,U1,51,VCCA*%
%TO.N,VCC_3V3*%
X117624910Y-59162410D03*
%TO.P,U1,52,GPIO24*%
%TO.N,/USB_D-*%
X117974670Y-59162410D03*
D53*
%TO.P,U1,53,GPIO25*%
%TO.N,/USB_D+*%
X118600020Y-58537320D03*
%TO.P,U1,54,NC*%
%TO.N,ESP_VDD_HP*%
X118600020Y-58187310D03*
%TO.P,U1,55,GPIO26*%
%TO.N,/LED_GPIO26*%
X118600020Y-57837300D03*
%TO.P,U1,56,GPIO27*%
%TO.N,/LED_GPIO27*%
X118600020Y-57487280D03*
%TO.P,U1,57,GPIO28*%
%TO.N,unconnected-(U1-GPIO28-Pad57)*%
X118600020Y-57137530D03*
%TO.P,U1,58,GPIO29*%
%TO.N,unconnected-(U1-GPIO29-Pad58)*%
X118600020Y-56787510D03*
%TO.P,U1,59,VDDPST*%
%TO.N,ESP_LDO_VO2*%
X118600020Y-56437500D03*
%TO.P,U1,60,GPIO30*%
%TO.N,unconnected-(U1-GPIO30-Pad60)*%
X118600020Y-56087490D03*
%TO.P,U1,61,GPIO31*%
%TO.N,unconnected-(U1-GPIO31-Pad61)*%
X118600020Y-55737480D03*
%TO.P,U1,62,VDDPST_4*%
%TO.N,VCC_3V3*%
X118600020Y-55387470D03*
%TO.P,U1,63,GPIO32*%
%TO.N,unconnected-(U1-GPIO32-Pad63)*%
X118600020Y-55037450D03*
%TO.P,U1,64,GPIO33*%
%TO.N,unconnected-(U1-GPIO33-Pad64)*%
X118600020Y-54687440D03*
%TO.P,U1,65,GPIO34*%
%TO.N,unconnected-(U1-GPIO34-Pad65)*%
X118600020Y-54337430D03*
%TO.P,U1,66,GPIO35*%
%TO.N,/BOOT_GPIO35*%
X118600020Y-53987420D03*
%TO.P,U1,67,VDDPST*%
%TO.N,ESP_LDO_VO2*%
X118600020Y-53637410D03*
%TO.P,U1,68,GPIO36*%
%TO.N,unconnected-(U1-GPIO36-Pad68)*%
X118600020Y-53287390D03*
%TO.P,U1,69,GPIO37*%
%TO.N,unconnected-(U1-GPIO37-Pad69)*%
X118600020Y-52937380D03*
%TO.P,U1,70,GPIO38*%
%TO.N,unconnected-(U1-GPIO38-Pad70)*%
X118600020Y-52587370D03*
%TO.P,U1,71,VFB/VO1*%
%TO.N,ESP_LDO_VO1*%
X118600020Y-52237360D03*
%TO.P,U1,72,VFB/VO2*%
%TO.N,ESP_LDO_VO2*%
X118600020Y-51887350D03*
%TO.P,U1,73,VFB/VO3*%
%TO.N,ESP_LDO_VO3*%
X118600020Y-51537330D03*
%TO.P,U1,74,VFB/VO4*%
%TO.N,/ESP_LDO_VO4*%
X118600020Y-51187320D03*
%TO.P,U1,75,VDDPST_LDO*%
%TO.N,VCC_3V3*%
X118600020Y-50837310D03*
%TO.P,U1,76,VDD_HP_2*%
%TO.N,ESP_VDD_HP*%
X118600020Y-50487300D03*
%TO.P,U1,77,VDDPST_DCDC*%
%TO.N,VCC_3V3*%
X118600020Y-50137540D03*
%TO.P,U1,78,FB_DCDC*%
%TO.N,/FB_DCDC*%
X118600020Y-49787530D03*
D54*
%TO.P,U1,79,EN_DCDC*%
%TO.N,/EN_DCDC*%
X117974920Y-49162430D03*
%TO.P,U1,80,GPIO39*%
%TO.N,unconnected-(U1-GPIO39-Pad80)*%
X117624910Y-49162430D03*
%TO.P,U1,81,GPIO40*%
%TO.N,unconnected-(U1-GPIO40-Pad81)*%
X117274900Y-49162430D03*
%TO.P,U1,82,GPIO41*%
%TO.N,unconnected-(U1-GPIO41-Pad82)*%
X116924890Y-49162430D03*
%TO.P,U1,83,GPIO42*%
%TO.N,unconnected-(U1-GPIO42-Pad83)*%
X116575130Y-49162430D03*
%TO.P,U1,84,GPIO43*%
%TO.N,unconnected-(U1-GPIO43-Pad84)*%
X116225120Y-49162430D03*
%TO.P,U1,85,VDDPST_5*%
%TO.N,VCC_3V3*%
X115875100Y-49162430D03*
%TO.P,U1,86,GPIO44*%
%TO.N,unconnected-(U1-GPIO44-Pad86)*%
X115525090Y-49162430D03*
%TO.P,U1,87,GPIO45*%
%TO.N,unconnected-(U1-GPIO45-Pad87)*%
X115175080Y-49162430D03*
%TO.P,U1,88,GPIO46*%
%TO.N,unconnected-(U1-GPIO46-Pad88)*%
X114825070Y-49162430D03*
%TO.P,U1,89,GPIO47*%
%TO.N,unconnected-(U1-GPIO47-Pad89)*%
X114475060Y-49162430D03*
%TO.P,U1,90,GPIO48*%
%TO.N,unconnected-(U1-GPIO48-Pad90)*%
X114125040Y-49162430D03*
%TO.P,U1,91,VDD_HP_3*%
%TO.N,ESP_VDD_HP*%
X113775030Y-49162430D03*
%TO.P,U1,92,GPIO49*%
%TO.N,unconnected-(U1-GPIO49-Pad92)*%
X113425020Y-49162430D03*
%TO.P,U1,93,GPIO50*%
%TO.N,unconnected-(U1-GPIO50-Pad93)*%
X113075010Y-49162430D03*
%TO.P,U1,94,GPIO51*%
%TO.N,/LED_GPIO51*%
X112724990Y-49162430D03*
%TO.P,U1,95,GPIO52*%
%TO.N,unconnected-(U1-GPIO52-Pad95)*%
X112374980Y-49162430D03*
%TO.P,U1,96,VDDPST_6*%
%TO.N,VCC_3V3*%
X112024970Y-49162430D03*
%TO.P,U1,97,GPIO53*%
%TO.N,unconnected-(U1-GPIO53-Pad97)*%
X111674960Y-49162430D03*
%TO.P,U1,98,GPIO54*%
%TO.N,unconnected-(U1-GPIO54-Pad98)*%
X111324950Y-49162430D03*
%TO.P,U1,99,XTAL_N*%
%TO.N,/XTAL_N*%
X110974930Y-49162430D03*
%TO.P,U1,100,XTAL_P*%
%TO.N,/XTAL_P*%
X110624920Y-49162430D03*
%TO.P,U1,101,VDDA*%
%TO.N,VCC_3V3*%
X110274910Y-49162430D03*
%TO.P,U1,102,VBAT*%
X109924900Y-49162430D03*
%TO.P,U1,103,CHIP_PU*%
%TO.N,/RESET*%
X109575140Y-49162430D03*
%TO.P,U1,104,GPIO0*%
%TO.N,unconnected-(U1-GPIO0-Pad104)*%
X109225130Y-49162430D03*
D55*
%TO.P,U1,105,GND*%
%TO.N,GND*%
X113600030Y-54162420D03*
%TD*%
D17*
%TO.P,C23,1*%
%TO.N,VCC_3V3*%
X117700000Y-61225000D03*
%TO.P,C23,2*%
%TO.N,GND*%
X117700000Y-62775000D03*
%TD*%
D46*
%TO.P,D4,1,K*%
%TO.N,GND*%
X97552500Y-95425000D03*
%TO.P,D4,2,A*%
%TO.N,Net-(D4-A)*%
X95977500Y-95425000D03*
%TD*%
D34*
%TO.P,C51,1*%
%TO.N,Net-(IC7-TR{slash}SS)*%
X140300000Y-92375000D03*
%TO.P,C51,2*%
%TO.N,GND*%
X140300000Y-90825000D03*
%TD*%
D17*
%TO.P,C45,1*%
%TO.N,Net-(IC7-VIN_1)*%
X136100000Y-98425000D03*
%TO.P,C45,2*%
%TO.N,GND*%
X136100000Y-99975000D03*
%TD*%
D29*
%TO.P,R16,1*%
%TO.N,/RTC_MFP*%
X104192600Y-69537400D03*
%TO.P,R16,2*%
%TO.N,VCC_3V3*%
X104192600Y-71187400D03*
%TD*%
D56*
%TO.P,J3,*%
%TO.N,*%
X118485000Y-95457500D03*
X118485000Y-87957500D03*
D57*
%TO.P,J3,1,Pin_1*%
%TO.N,GND*%
X118485000Y-99857500D03*
D58*
%TO.P,J3,2,Pin_2*%
%TO.N,Net-(J3-Pin_2)*%
X118485000Y-83857500D03*
%TD*%
D15*
%TO.P,R70,1*%
%TO.N,/B*%
X141821000Y-72982000D03*
%TO.P,R70,2*%
%TO.N,GND*%
X141821000Y-71332000D03*
%TD*%
D10*
%TO.P,RE1,1,1*%
%TO.N,/RS485_RE*%
X126050000Y-74361000D03*
%TD*%
D48*
%TO.P,SW2,1,A*%
%TO.N,/BOOT_GPIO35*%
X98435000Y-42207500D03*
%TO.P,SW2,2,B*%
%TO.N,GND*%
X94285000Y-42207500D03*
%TD*%
D59*
%TO.P,J2,1,Pin_1*%
%TO.N,GND*%
X153350000Y-81475000D03*
D21*
%TO.P,J2,2,Pin_2*%
%TO.N,/B*%
X153350000Y-76395000D03*
%TO.P,J2,3,Pin_3*%
%TO.N,/A*%
X153350000Y-71315000D03*
%TD*%
D17*
%TO.P,C27,1*%
%TO.N,VCC_3V3*%
X122575000Y-61175000D03*
%TO.P,C27,2*%
%TO.N,GND*%
X122575000Y-62725000D03*
%TD*%
D12*
%TO.P,C60,1*%
%TO.N,Net-(IC5-OUT_1)*%
X85775000Y-98355000D03*
%TO.P,C60,2*%
%TO.N,GND*%
X85775000Y-101305000D03*
%TD*%
D34*
%TO.P,C66,1*%
%TO.N,AVDD_5V0*%
X92900000Y-50475000D03*
%TO.P,C66,2*%
%TO.N,AGND*%
X92900000Y-48925000D03*
%TD*%
D15*
%TO.P,R58,1*%
%TO.N,VCC_3V3*%
X88345000Y-43162500D03*
%TO.P,R58,2*%
%TO.N,/RESET*%
X88345000Y-41512500D03*
%TD*%
%TO.P,R13,1*%
%TO.N,Net-(IC8-SCK)*%
X107352600Y-71222400D03*
%TO.P,R13,2*%
%TO.N,/RTC_SCK*%
X107352600Y-69572400D03*
%TD*%
D29*
%TO.P,R35,1*%
%TO.N,Net-(IC4-SENSE{slash}ADJ)*%
X65430000Y-72760000D03*
%TO.P,R35,2*%
%TO.N,AGND*%
X65430000Y-74410000D03*
%TD*%
D14*
%TO.P,C67,1*%
%TO.N,VREF_2V5*%
X80858000Y-50990000D03*
%TO.P,C67,2*%
%TO.N,AGND*%
X80858000Y-48040000D03*
%TD*%
D30*
%TO.P,R29,1*%
%TO.N,DVDD_3V3*%
X92485000Y-95395000D03*
%TO.P,R29,2*%
%TO.N,Net-(D4-A)*%
X94135000Y-95395000D03*
%TD*%
D17*
%TO.P,C26,1*%
%TO.N,VCC_3V3*%
X120950000Y-61175000D03*
%TO.P,C26,2*%
%TO.N,GND*%
X120950000Y-62725000D03*
%TD*%
D15*
%TO.P,R14,1*%
%TO.N,Net-(IC8-SO)*%
X108892600Y-71222400D03*
%TO.P,R14,2*%
%TO.N,/RTC_SO*%
X108892600Y-69572400D03*
%TD*%
D34*
%TO.P,C70,1*%
%TO.N,/Vin*%
X87700000Y-77575000D03*
%TO.P,C70,2*%
%TO.N,GND*%
X87700000Y-76025000D03*
%TD*%
D13*
%TO.P,R27,1*%
%TO.N,VCC_3V3*%
X132725000Y-54300000D03*
%TO.P,R27,2*%
%TO.N,Net-(D12-A)*%
X131075000Y-54300000D03*
%TD*%
D15*
%TO.P,R19,1*%
%TO.N,Net-(IC7-VIN_1)*%
X143400000Y-95425000D03*
%TO.P,R19,2*%
%TO.N,Net-(IC7-RUN)*%
X143400000Y-93775000D03*
%TD*%
D12*
%TO.P,C59,1*%
%TO.N,Net-(IC5-OUT_1)*%
X88225000Y-98375000D03*
%TO.P,C59,2*%
%TO.N,GND*%
X88225000Y-101325000D03*
%TD*%
D60*
%TO.P,IC1,1,NIC_1*%
%TO.N,unconnected-(IC1-NIC_1-Pad1)*%
X90612000Y-51905000D03*
%TO.P,IC1,2,VIN*%
%TO.N,AVDD_5V0*%
X90612000Y-50635000D03*
%TO.P,IC1,3,NIC_2*%
%TO.N,unconnected-(IC1-NIC_2-Pad3)*%
X90612000Y-49365000D03*
%TO.P,IC1,4,GND*%
%TO.N,AGND*%
X90612000Y-48095000D03*
%TO.P,IC1,5,NIC_3*%
%TO.N,unconnected-(IC1-NIC_3-Pad5)*%
X85188000Y-48095000D03*
%TO.P,IC1,6,VOUT*%
%TO.N,VREF_2V5*%
X85188000Y-49365000D03*
%TO.P,IC1,7,NIC_4*%
%TO.N,unconnected-(IC1-NIC_4-Pad7)*%
X85188000Y-50635000D03*
%TO.P,IC1,8,DNC*%
%TO.N,unconnected-(IC1-DNC-Pad8)*%
X85188000Y-51905000D03*
%TD*%
D18*
%TO.P,C40,1*%
%TO.N,GND*%
X137025000Y-72012500D03*
%TO.P,C40,2*%
%TO.N,VCC_3V3*%
X138575000Y-72012500D03*
%TD*%
D15*
%TO.P,R31,1*%
%TO.N,/ADC_DADY*%
X101195000Y-59595000D03*
%TO.P,R31,2*%
%TO.N,VCC_3V3*%
X101195000Y-57945000D03*
%TD*%
D31*
%TO.P,D12,1,K*%
%TO.N,/LED_GPIO27*%
X127612500Y-54300000D03*
%TO.P,D12,2,A*%
%TO.N,Net-(D12-A)*%
X129187500Y-54300000D03*
%TD*%
D14*
%TO.P,C52,1*%
%TO.N,Net-(IC7-VOUT_1)*%
X136100000Y-88875000D03*
%TO.P,C52,2*%
%TO.N,GND*%
X136100000Y-85925000D03*
%TD*%
D13*
%TO.P,R8,1*%
%TO.N,AGND*%
X72775000Y-60225000D03*
%TO.P,R8,2*%
%TO.N,Net-(D6-A1)*%
X71125000Y-60225000D03*
%TD*%
D15*
%TO.P,R34,1*%
%TO.N,Net-(IC4-SENSE{slash}ADJ)*%
X65400000Y-71300000D03*
%TO.P,R34,2*%
%TO.N,Net-(IC4-OUT_1)*%
X65400000Y-69650000D03*
%TD*%
D30*
%TO.P,R65,1*%
%TO.N,/USB_D-*%
X141325000Y-56875000D03*
%TO.P,R65,2*%
%TO.N,Net-(U4-D1-)*%
X142975000Y-56875000D03*
%TD*%
D29*
%TO.P,R60,1*%
%TO.N,Net-(D7-A)*%
X95900000Y-90575000D03*
%TO.P,R60,2*%
%TO.N,6V*%
X95900000Y-92225000D03*
%TD*%
D61*
%TO.P,JP1,1,A*%
%TO.N,Net-(JP1-A)*%
X138043000Y-75861000D03*
%TO.P,JP1,2,B*%
%TO.N,/A*%
X138043000Y-78401000D03*
%TD*%
D62*
%TO.P,C14,1*%
%TO.N,/XTAL_N*%
X112509992Y-46457508D03*
%TO.P,C14,2*%
%TO.N,GND*%
X113606008Y-45361492D03*
%TD*%
D63*
%TO.P,C5,1*%
%TO.N,Net-(IC2-VREFN)*%
X83732500Y-56642500D03*
%TO.P,C5,2*%
%TO.N,Net-(IC2-VREFP)*%
X80782500Y-56642500D03*
%TD*%
D10*
%TO.P,3V3,1,1*%
%TO.N,VCC_3V3*%
X61986000Y-96291000D03*
%TD*%
D15*
%TO.P,R21,1*%
%TO.N,GND*%
X132200000Y-98925000D03*
%TO.P,R21,2*%
%TO.N,Net-(IC7-RT)*%
X132200000Y-97275000D03*
%TD*%
D30*
%TO.P,R62,1*%
%TO.N,GND*%
X141325000Y-58425000D03*
%TO.P,R62,2*%
%TO.N,Net-(U4-CC1)*%
X142975000Y-58425000D03*
%TD*%
D64*
%TO.P,U2,1,EN*%
%TO.N,/EN_DCDC*%
X138662500Y-47150000D03*
%TO.P,U2,2,GND*%
%TO.N,GND*%
X138662500Y-48100000D03*
%TO.P,U2,3,SW*%
%TO.N,Net-(U2-SW)*%
X138662500Y-49050000D03*
%TO.P,U2,4,VIN*%
%TO.N,VCC_3V3*%
X140937500Y-49050000D03*
%TO.P,U2,5,FB*%
%TO.N,/FB_DCDC*%
X140937500Y-47150000D03*
%TD*%
D30*
%TO.P,R64,1*%
%TO.N,/USB_D+*%
X141325000Y-55325000D03*
%TO.P,R64,2*%
%TO.N,Net-(U4-D1+)*%
X142975000Y-55325000D03*
%TD*%
D18*
%TO.P,C74,1*%
%TO.N,/Vin_A*%
X64525000Y-49100000D03*
%TO.P,C74,2*%
%TO.N,AGND*%
X66075000Y-49100000D03*
%TD*%
D65*
%TO.P,Y4,1,1*%
%TO.N,Net-(IC8-X1)*%
X105382600Y-85257400D03*
%TO.P,Y4,2,2*%
%TO.N,unconnected-(Y4-Pad2)*%
X105382600Y-90757400D03*
%TO.P,Y4,3,3*%
%TO.N,unconnected-(Y4-Pad3)*%
X108582600Y-90757400D03*
%TO.P,Y4,4,4*%
%TO.N,Net-(IC8-X2)*%
X108582600Y-85257400D03*
%TD*%
D34*
%TO.P,C71,1*%
%TO.N,/Vin*%
X86100000Y-77575000D03*
%TO.P,C71,2*%
%TO.N,GND*%
X86100000Y-76025000D03*
%TD*%
D66*
%TO.P,L2,1,1*%
%TO.N,/Vin*%
X145075000Y-97600000D03*
%TO.P,L2,2,2*%
%TO.N,Net-(IC7-VIN_1)*%
X141925000Y-97600000D03*
%TD*%
D67*
%TO.P,U3,1,RO*%
%TO.N,/RS485_TX*%
X129873000Y-73690000D03*
%TO.P,U3,2,~{RE}*%
%TO.N,/RS485_RE*%
X129873000Y-74960000D03*
%TO.P,U3,3,DE*%
X129873000Y-76230000D03*
%TO.P,U3,4,DI*%
%TO.N,/RS485_RX*%
X129873000Y-77500000D03*
%TO.P,U3,5,GND*%
%TO.N,GND*%
X134823000Y-77500000D03*
%TO.P,U3,6,A*%
%TO.N,/A*%
X134823000Y-76230000D03*
%TO.P,U3,7,B*%
%TO.N,/B*%
X134823000Y-74960000D03*
%TO.P,U3,8,VCC*%
%TO.N,VCC_3V3*%
X134823000Y-73690000D03*
%TD*%
D59*
%TO.P,J1,1,Pin_1*%
%TO.N,/Vin*%
X153400000Y-95850000D03*
D21*
%TO.P,J1,2,Pin_2*%
%TO.N,GND*%
X153400000Y-90770000D03*
%TD*%
D11*
%TO.P,C56,1*%
%TO.N,Net-(IC7-FB)*%
X140575000Y-89000000D03*
%TO.P,C56,2*%
%TO.N,Net-(IC7-VOUT_1)*%
X139025000Y-89000000D03*
%TD*%
D20*
%TO.P,J5,1,Pin_1*%
%TO.N,/LOAD*%
X64700000Y-83320000D03*
D21*
%TO.P,J5,2,Pin_2*%
%TO.N,GND*%
X64700000Y-88400000D03*
%TD*%
D68*
%TO.P,C50,1*%
%TO.N,/Vin*%
X145100000Y-99950000D03*
%TO.P,C50,2*%
%TO.N,GND*%
X145100000Y-101850000D03*
%TD*%
D29*
%TO.P,R24,1*%
%TO.N,Net-(D1-A)*%
X129100000Y-86775000D03*
%TO.P,R24,2*%
%TO.N,6V*%
X129100000Y-88425000D03*
%TD*%
D69*
%TO.P,Y1,1,1*%
%TO.N,Net-(IC2-XTAL2)*%
X100300000Y-76550000D03*
%TO.P,Y1,2,2*%
%TO.N,Net-(IC2-XTAL1{slash}CLKIN)*%
X100300000Y-68050000D03*
%TD*%
D70*
%TO.N,GND*%
X143262500Y-44937500D03*
X110600000Y-57800000D03*
X131700000Y-91800000D03*
X140700000Y-103000000D03*
X111900000Y-78500000D03*
X115700000Y-63700000D03*
X136100000Y-84500000D03*
X86200000Y-102400000D03*
X90000000Y-44300000D03*
X115200000Y-56600000D03*
X97500000Y-94100000D03*
X119300000Y-64000000D03*
X110600000Y-45800000D03*
X144600000Y-103000000D03*
X129100000Y-48900000D03*
X142900000Y-46200000D03*
X117800000Y-64100000D03*
X115400000Y-53100000D03*
X131800000Y-92700000D03*
X115300000Y-50500000D03*
X137825000Y-90775000D03*
X143000000Y-102000000D03*
D71*
X80300000Y-42400000D03*
D70*
X137100000Y-94600000D03*
X145300000Y-67300000D03*
X149100000Y-52900000D03*
X134000000Y-85400000D03*
X87200000Y-102400000D03*
X132900000Y-94900000D03*
X128000000Y-44700000D03*
D72*
X113600030Y-54162420D03*
D70*
X104200000Y-76900000D03*
X93800000Y-67100000D03*
X140900000Y-90100000D03*
X87700000Y-74900000D03*
X108000000Y-77700000D03*
X119500000Y-72400000D03*
X88100000Y-71400000D03*
X108300000Y-62800000D03*
X114794379Y-55121623D03*
X127100000Y-65400000D03*
X122500000Y-64000000D03*
X130800000Y-92700000D03*
X83100000Y-74700000D03*
X88300000Y-102400000D03*
D71*
X93200000Y-42400000D03*
D70*
X130800000Y-91800000D03*
X144000000Y-47500000D03*
X90500000Y-97000000D03*
X128000000Y-42300000D03*
X149200000Y-103100000D03*
X111100000Y-81900000D03*
X98600000Y-83500000D03*
X145900000Y-88700000D03*
X119400000Y-45500000D03*
X86100000Y-74900000D03*
X141800000Y-102000000D03*
X124100000Y-44400000D03*
X113600000Y-78600000D03*
X90400000Y-72800000D03*
X128000000Y-47000000D03*
X132200000Y-100000000D03*
X143100000Y-103000000D03*
X144500000Y-53100000D03*
X121000000Y-64000000D03*
X124600000Y-64900000D03*
X140000000Y-58500000D03*
X135007000Y-78694000D03*
X124000000Y-51700000D03*
X105900000Y-44300000D03*
X84200000Y-74700000D03*
X145200000Y-84300000D03*
X89900000Y-102400000D03*
X143400000Y-89500000D03*
X115000000Y-58000000D03*
X120900000Y-99900000D03*
D71*
X88550000Y-39250000D03*
D70*
X137025000Y-70925000D03*
X97700000Y-70600000D03*
X84400000Y-74000000D03*
X110100000Y-40100000D03*
X114500000Y-44500000D03*
X129700000Y-65400000D03*
X132400000Y-85500000D03*
X146100000Y-103000000D03*
D71*
X97125000Y-38900000D03*
D70*
X147700000Y-103000000D03*
X141800000Y-103000000D03*
X98900000Y-97000000D03*
X148900000Y-59300000D03*
X140000000Y-53800000D03*
X104097600Y-80602400D03*
X121600000Y-44300000D03*
X113600030Y-51050000D03*
%TO.N,AVDD_5V0*%
X62200000Y-65200000D03*
X76600000Y-61100000D03*
X61600000Y-66200000D03*
X95000000Y-52500000D03*
X63190000Y-64710000D03*
X84700000Y-59800000D03*
%TO.N,VCC_3V3*%
X85600000Y-94200000D03*
X85600000Y-93400000D03*
X122500000Y-60000000D03*
X144300000Y-49900000D03*
X134100000Y-54300000D03*
X117600000Y-39900000D03*
X88345000Y-44255000D03*
X99625000Y-56725000D03*
X120900000Y-60100000D03*
X86500000Y-95000000D03*
X141859000Y-81424000D03*
D73*
X119400000Y-55387500D03*
D70*
X98000000Y-56800000D03*
X96500000Y-56800000D03*
X106900000Y-52800000D03*
X140000000Y-72000000D03*
X134000000Y-56200000D03*
X86600000Y-67300000D03*
X84900000Y-93400000D03*
X102400000Y-43100000D03*
X84900000Y-95000000D03*
X115875100Y-48324900D03*
D72*
X107914534Y-57081753D03*
D70*
X101200000Y-56800000D03*
X136519000Y-73692000D03*
X84900000Y-94200000D03*
X124100000Y-49800000D03*
X121600000Y-49900000D03*
X85700000Y-95000000D03*
X104200000Y-72700000D03*
X144500000Y-48900000D03*
X109900000Y-48200000D03*
X112024970Y-48224970D03*
D74*
%TO.N,ESP_LDO_VO1*%
X119400000Y-52900000D03*
D70*
X117484375Y-69355625D03*
X115100000Y-70400000D03*
X110550000Y-62650000D03*
D72*
X120125000Y-70725000D03*
D70*
%TO.N,ESP_VDD_HP*%
X135500000Y-45100000D03*
X113800000Y-48400000D03*
X134300000Y-42500000D03*
D72*
X119500000Y-50487300D03*
D70*
X108100000Y-59100000D03*
X134300000Y-45100000D03*
X135400000Y-43800000D03*
X134300000Y-43800000D03*
X135400000Y-42500000D03*
X119900000Y-58200000D03*
%TO.N,VREF_2V5*%
X75300000Y-61275000D03*
X84325000Y-62875000D03*
X80800000Y-52100000D03*
%TO.N,ESP_LDO_VO2*%
X119898248Y-52277000D03*
X119800000Y-53600000D03*
X119400000Y-56500000D03*
D73*
%TO.N,ESP_LDO_VO3*%
X114111000Y-59900000D03*
X120100000Y-51605300D03*
D70*
%TO.N,/RESET*%
X91350000Y-41775000D03*
X101550000Y-45675000D03*
%TO.N,AGND*%
X78725000Y-73500000D03*
X75300000Y-53800000D03*
X77500000Y-72475000D03*
X72400000Y-73900000D03*
X84800000Y-64200000D03*
X78200000Y-61200000D03*
X67300000Y-49100000D03*
X75400000Y-75550000D03*
X74900000Y-68200000D03*
X84600000Y-60900000D03*
X72700000Y-49900000D03*
X82900000Y-46600000D03*
X74500000Y-66500000D03*
X73800000Y-73900000D03*
X80800000Y-46700000D03*
X83100000Y-51800000D03*
X90100000Y-55700000D03*
X75100000Y-50200000D03*
X73900000Y-60200000D03*
X88900000Y-57900000D03*
X70615000Y-70485000D03*
X96800000Y-48100000D03*
X66400000Y-68200000D03*
X77700000Y-74800000D03*
%TO.N,/ADC_DIN*%
X98045000Y-60700000D03*
X100350000Y-55086001D03*
%TO.N,/ADC_DADY*%
X103440520Y-51600000D03*
X101195000Y-60600000D03*
%TO.N,/ADC_CS*%
X102628000Y-60537400D03*
D72*
X104915072Y-51915072D03*
D74*
%TO.N,/RTC_MFP*%
X103600000Y-56800000D03*
D73*
X106734600Y-55409600D03*
D70*
%TO.N,/control*%
X97100000Y-54800000D03*
X99800000Y-83500000D03*
%TO.N,/BOOT_GPIO35*%
X102400000Y-41400000D03*
X125800000Y-42500000D03*
D73*
%TO.N,/FLASH_D*%
X122375000Y-77575000D03*
X122850000Y-73800000D03*
D70*
%TO.N,/RS485_RE*%
X112100000Y-67450000D03*
D73*
%TO.N,/FLASH_CK*%
X119350000Y-76250000D03*
X119200000Y-74475000D03*
D70*
%TO.N,/RS485_RX*%
X106790000Y-62400000D03*
%TO.N,/EN_DCDC*%
X138000000Y-46200000D03*
X139600000Y-43300000D03*
%TO.N,/RS485_TX*%
X108100000Y-65000000D03*
%TO.N,/Vin_A*%
X72700000Y-77300000D03*
%TO.N,/A*%
X151182000Y-76616500D03*
%TD*%
D75*
%TO.N,GND*%
X93775000Y-67075000D02*
X93800000Y-67100000D01*
D76*
X143925000Y-47425000D02*
X144000000Y-47500000D01*
X129825000Y-47025000D02*
X128025000Y-47025000D01*
D75*
X97552500Y-95425000D02*
X97552500Y-94152500D01*
X90525000Y-97025000D02*
X90500000Y-97000000D01*
X117700000Y-64000000D02*
X117800000Y-64100000D01*
D77*
X104097600Y-81897400D02*
X104097600Y-80602400D01*
D76*
X132387500Y-85512500D02*
X132400000Y-85500000D01*
D75*
X137025000Y-72012500D02*
X137025000Y-70925000D01*
X97725000Y-97025000D02*
X98875000Y-97025000D01*
X148950000Y-59350000D02*
X148900000Y-59300000D01*
D78*
X134823000Y-78510000D02*
X135007000Y-78694000D01*
D76*
X145150000Y-67450000D02*
X145300000Y-67300000D01*
D79*
X90300000Y-71475000D02*
X90300000Y-72700000D01*
D77*
X104182600Y-76882600D02*
X104200000Y-76900000D01*
D75*
X93775000Y-66125000D02*
X93775000Y-67075000D01*
D76*
X142112500Y-44937500D02*
X143262500Y-44937500D01*
D77*
X97625000Y-70675000D02*
X97700000Y-70600000D01*
D79*
X87700000Y-76025000D02*
X87700000Y-74900000D01*
D76*
X145150000Y-70102400D02*
X143050600Y-70102400D01*
D75*
X113638508Y-45361492D02*
X114500000Y-44500000D01*
D80*
X132200000Y-98925000D02*
X132200000Y-100000000D01*
D76*
X140300000Y-90825000D02*
X140300000Y-90700000D01*
D75*
X113606008Y-45361492D02*
X113638508Y-45361492D01*
X122575000Y-62725000D02*
X122575000Y-63925000D01*
D76*
X128050000Y-44650000D02*
X128000000Y-44700000D01*
X145150000Y-81850000D02*
X145150000Y-84250000D01*
X118485000Y-99857500D02*
X120857500Y-99857500D01*
D77*
X96600000Y-70675000D02*
X97625000Y-70675000D01*
D75*
X137000000Y-70900000D02*
X137025000Y-70925000D01*
D76*
X134000000Y-86825000D02*
X134000000Y-85400000D01*
D75*
X124100000Y-45625000D02*
X124100000Y-44400000D01*
D76*
X136937500Y-94437500D02*
X137100000Y-94600000D01*
D77*
X108012600Y-78857400D02*
X108012600Y-77712600D01*
D75*
X91875000Y-97025000D02*
X90525000Y-97025000D01*
D76*
X143300000Y-44900000D02*
X143262500Y-44937500D01*
D75*
X145725000Y-53100000D02*
X144500000Y-53100000D01*
D77*
X104182600Y-75812400D02*
X104182600Y-76882600D01*
D76*
X94285000Y-42207500D02*
X93392500Y-42207500D01*
D79*
X84415000Y-73985000D02*
X84400000Y-74000000D01*
D75*
X110211223Y-41710642D02*
X110211223Y-40211223D01*
X120950000Y-63950000D02*
X121000000Y-64000000D01*
D76*
X89965000Y-44265000D02*
X90000000Y-44300000D01*
D75*
X119300000Y-62775000D02*
X119300000Y-64000000D01*
X140075000Y-58425000D02*
X140000000Y-58500000D01*
D76*
X142325000Y-48100000D02*
X143000000Y-47425000D01*
D79*
X83000000Y-74800000D02*
X83100000Y-74700000D01*
D76*
X129200000Y-49000000D02*
X129100000Y-48900000D01*
X128025000Y-42275000D02*
X128000000Y-42300000D01*
X138700000Y-90775000D02*
X137825000Y-90775000D01*
D79*
X81875000Y-72600000D02*
X81915000Y-72560000D01*
X86100000Y-76025000D02*
X86100000Y-74900000D01*
D75*
X122975000Y-51700000D02*
X124000000Y-51700000D01*
X129700000Y-63775000D02*
X129700000Y-65400000D01*
D79*
X81875000Y-74800000D02*
X83000000Y-74800000D01*
D76*
X81610000Y-42282500D02*
X80417500Y-42282500D01*
D77*
X119457500Y-71437500D02*
X119457500Y-72357500D01*
X96600000Y-72425000D02*
X96600000Y-70675000D01*
D80*
X133352500Y-94437500D02*
X133352500Y-94447500D01*
D75*
X110211223Y-40211223D02*
X110100000Y-40100000D01*
X110564777Y-45764777D02*
X110600000Y-45800000D01*
D76*
X136100000Y-85925000D02*
X136100000Y-84500000D01*
X143000000Y-47425000D02*
X143925000Y-47425000D01*
D75*
X106979992Y-45379992D02*
X105900000Y-44300000D01*
D80*
X133352500Y-94447500D02*
X132900000Y-94900000D01*
D76*
X129825000Y-42275000D02*
X128025000Y-42275000D01*
X143000000Y-47425000D02*
X143000000Y-46300000D01*
X130450000Y-49000000D02*
X129200000Y-49000000D01*
D78*
X134823000Y-77500000D02*
X134823000Y-78510000D01*
D76*
X129825000Y-44650000D02*
X128050000Y-44650000D01*
X98600000Y-84862500D02*
X98600000Y-83500000D01*
D75*
X150425000Y-59350000D02*
X148950000Y-59350000D01*
D76*
X80417500Y-42282500D02*
X80300000Y-42400000D01*
D77*
X113735000Y-78465000D02*
X113600000Y-78600000D01*
D76*
X143000000Y-46300000D02*
X142900000Y-46200000D01*
X140300000Y-90700000D02*
X140900000Y-90100000D01*
D77*
X104100000Y-80600000D02*
X104097600Y-80602400D01*
X113735000Y-77582500D02*
X113735000Y-78465000D01*
D79*
X84415000Y-72560000D02*
X84415000Y-73985000D01*
D76*
X145150000Y-70102400D02*
X145150000Y-67450000D01*
D75*
X140025000Y-53775000D02*
X140000000Y-53800000D01*
X120950000Y-62725000D02*
X120950000Y-63950000D01*
D76*
X145150000Y-84250000D02*
X145200000Y-84300000D01*
D79*
X81875000Y-74800000D02*
X81875000Y-72600000D01*
D75*
X121600000Y-45625000D02*
X121600000Y-44300000D01*
D77*
X111925000Y-79700000D02*
X111925000Y-78525000D01*
D75*
X149150000Y-52950000D02*
X149100000Y-52900000D01*
D77*
X109917600Y-81877400D02*
X111077400Y-81877400D01*
D76*
X93392500Y-42207500D02*
X93200000Y-42400000D01*
D77*
X119457500Y-72357500D02*
X119500000Y-72400000D01*
D75*
X97552500Y-94152500D02*
X97500000Y-94100000D01*
D76*
X145900000Y-90585000D02*
X145900000Y-88700000D01*
D75*
X141325000Y-58425000D02*
X140075000Y-58425000D01*
X124600000Y-63725000D02*
X124600000Y-64900000D01*
D76*
X138662500Y-48100000D02*
X142325000Y-48100000D01*
X135952500Y-94437500D02*
X136937500Y-94437500D01*
D75*
X110564777Y-44468358D02*
X110564777Y-45764777D01*
D76*
X120857500Y-99857500D02*
X120900000Y-99900000D01*
D75*
X106979992Y-45391492D02*
X106979992Y-45379992D01*
D79*
X90300000Y-72700000D02*
X90400000Y-72800000D01*
D76*
X143050600Y-70102400D02*
X141821000Y-71332000D01*
X143400000Y-90775000D02*
X143400000Y-89500000D01*
D79*
X88100000Y-70075000D02*
X88100000Y-71400000D01*
D75*
X141325000Y-53775000D02*
X140025000Y-53775000D01*
D77*
X111925000Y-78525000D02*
X111900000Y-78500000D01*
D76*
X132387500Y-86700000D02*
X132387500Y-85512500D01*
D79*
X84200000Y-75750000D02*
X84200000Y-74700000D01*
D76*
X89965000Y-43132500D02*
X89965000Y-44265000D01*
X137800000Y-90800000D02*
X137825000Y-90775000D01*
D75*
X127100000Y-63775000D02*
X127100000Y-65400000D01*
X122575000Y-63925000D02*
X122500000Y-64000000D01*
X150425000Y-52950000D02*
X149150000Y-52950000D01*
D77*
X108012600Y-77712600D02*
X108000000Y-77700000D01*
D75*
X98875000Y-97025000D02*
X98900000Y-97000000D01*
X117700000Y-62775000D02*
X117700000Y-64000000D01*
D77*
X111077400Y-81877400D02*
X111100000Y-81900000D01*
D76*
X128025000Y-47025000D02*
X128000000Y-47000000D01*
D79*
%TO.N,AVDD_5V0*%
X68352500Y-66462500D02*
X63455000Y-66462500D01*
D75*
X76600000Y-59562500D02*
X76600000Y-61100000D01*
D76*
X95038000Y-51050000D02*
X93475000Y-51050000D01*
X63190000Y-66190000D02*
X62200000Y-65200000D01*
X93475000Y-51050000D02*
X92900000Y-50475000D01*
X63190000Y-66197500D02*
X61602500Y-66197500D01*
D75*
X86225000Y-57900000D02*
X86100000Y-57900000D01*
D76*
X90612000Y-50635000D02*
X92740000Y-50635000D01*
X95038000Y-52462000D02*
X95000000Y-52500000D01*
D75*
X86775000Y-60275000D02*
X85175000Y-60275000D01*
D76*
X95038000Y-51050000D02*
X95038000Y-52462000D01*
D75*
X85175000Y-60275000D02*
X84700000Y-59800000D01*
X85725000Y-57400000D02*
X86225000Y-57900000D01*
X76625000Y-62300000D02*
X76625000Y-61125000D01*
X84700000Y-59300000D02*
X84700000Y-59800000D01*
D76*
X63190000Y-66197500D02*
X63190000Y-64710000D01*
X61602500Y-66197500D02*
X61600000Y-66200000D01*
D75*
X76625000Y-61125000D02*
X76600000Y-61100000D01*
D79*
X63455000Y-66462500D02*
X63190000Y-66197500D01*
D76*
X63190000Y-66197500D02*
X63407500Y-66415000D01*
D75*
X85725000Y-55700000D02*
X85725000Y-57400000D01*
X86100000Y-57900000D02*
X84700000Y-59300000D01*
D76*
X63190000Y-66197500D02*
X63190000Y-66190000D01*
X92740000Y-50635000D02*
X92900000Y-50475000D01*
X63200000Y-64700000D02*
X63190000Y-64710000D01*
D77*
%TO.N,Net-(IC2-VREFN)*%
X83475000Y-61575000D02*
X82975000Y-61075000D01*
X86775000Y-61575000D02*
X83475000Y-61575000D01*
X83732500Y-56642500D02*
X83732500Y-55257500D01*
X82975000Y-61075000D02*
X82975000Y-60300000D01*
X83732500Y-56642500D02*
X83732500Y-57942500D01*
X82975000Y-60300000D02*
X82975000Y-58700000D01*
X83395000Y-56305000D02*
X83732500Y-56642500D01*
X83732500Y-55257500D02*
X83100000Y-54625000D01*
X83732500Y-57942500D02*
X82975000Y-58700000D01*
%TO.N,Net-(IC2-VREFP)*%
X81425000Y-58525000D02*
X80782500Y-57882500D01*
X81425000Y-58700000D02*
X81425000Y-58525000D01*
X83125000Y-62225000D02*
X81425000Y-60525000D01*
X80782500Y-54642500D02*
X80800000Y-54625000D01*
X81425000Y-60300000D02*
X81425000Y-58700000D01*
X81425000Y-60525000D02*
X81425000Y-60300000D01*
X80782500Y-56642500D02*
X80782500Y-54642500D01*
X80782500Y-57882500D02*
X80782500Y-56642500D01*
X86775000Y-62225000D02*
X83125000Y-62225000D01*
%TO.N,Net-(IC2-AIN0)*%
X80525000Y-63525000D02*
X79500000Y-62500000D01*
X86725000Y-63575000D02*
X86775000Y-63525000D01*
X86775000Y-63525000D02*
X80525000Y-63525000D01*
D76*
X78175000Y-50200000D02*
X78175000Y-48500000D01*
D77*
X79500000Y-62500000D02*
X79500000Y-57500000D01*
X79500000Y-57500000D02*
X78225000Y-56225000D01*
D76*
X78175000Y-50200000D02*
X78175000Y-51750000D01*
X78175000Y-51750000D02*
X78225000Y-51800000D01*
D77*
X78225000Y-56225000D02*
X78225000Y-51800000D01*
%TO.N,DVDD_3V3*%
X92475000Y-95385000D02*
X92485000Y-95395000D01*
X88225000Y-95025000D02*
X92115000Y-95025000D01*
X92115000Y-95025000D02*
X92485000Y-95395000D01*
%TO.N,Net-(IC2-XTAL1{slash}CLKIN)*%
X99225000Y-69125000D02*
X100300000Y-68050000D01*
X93775000Y-64825000D02*
X95225000Y-64825000D01*
X95225000Y-64825000D02*
X96600000Y-66200000D01*
X96600000Y-69125000D02*
X99225000Y-69125000D01*
X96600000Y-66200000D02*
X96600000Y-69125000D01*
%TO.N,Net-(IC2-XTAL2)*%
X96600000Y-73975000D02*
X97725000Y-73975000D01*
X93775000Y-65475000D02*
X94975000Y-65475000D01*
X94975000Y-65475000D02*
X95600000Y-66100000D01*
X97725000Y-73975000D02*
X100300000Y-76550000D01*
X95600000Y-72975000D02*
X96600000Y-73975000D01*
X95600000Y-66100000D02*
X95600000Y-72975000D01*
D76*
%TO.N,VCC_3V3*%
X141012500Y-48975000D02*
X140937500Y-49050000D01*
D77*
X107914534Y-57026966D02*
X108154000Y-56787500D01*
D76*
X144425000Y-48975000D02*
X144500000Y-48900000D01*
D77*
X109916520Y-49154050D02*
X109924900Y-49162430D01*
D81*
X104193000Y-71437800D02*
X104193000Y-71187400D01*
D75*
X88100000Y-68525000D02*
X86825000Y-68525000D01*
D81*
X104192600Y-71187400D02*
X104192600Y-72692600D01*
D77*
X119309560Y-49900000D02*
X121600000Y-49900000D01*
X115875000Y-49162330D02*
X115875100Y-49162430D01*
D76*
X143000000Y-48975000D02*
X144425000Y-48975000D01*
D75*
X127100000Y-60825000D02*
X124650000Y-60825000D01*
X121600000Y-48575000D02*
X121325000Y-48300000D01*
X102775000Y-57940000D02*
X101200000Y-57940000D01*
D81*
X86775000Y-65475000D02*
X86775000Y-67125000D01*
D77*
X121300000Y-49900000D02*
X121600000Y-49900000D01*
D81*
X104185500Y-74259900D02*
X104183000Y-74262400D01*
D75*
X99625000Y-57950000D02*
X99625000Y-56725000D01*
D81*
X104185500Y-74259900D02*
X104185100Y-74259900D01*
D75*
X124100000Y-48575000D02*
X124100000Y-49800000D01*
X120950000Y-61175000D02*
X120950000Y-60150000D01*
D76*
X136512000Y-73699000D02*
X134832000Y-73699000D01*
D77*
X119400000Y-55387500D02*
X118600000Y-55387500D01*
D81*
X86775000Y-64825000D02*
X86775000Y-65475000D01*
D75*
X98045000Y-57950000D02*
X98045000Y-56845000D01*
X88100000Y-68525000D02*
X90300000Y-68525000D01*
D76*
X143000000Y-48975000D02*
X141012500Y-48975000D01*
D75*
X119350000Y-61175000D02*
X119300000Y-61225000D01*
X122975000Y-60775000D02*
X122575000Y-61175000D01*
D77*
X118600020Y-50137540D02*
X119072020Y-50137540D01*
D80*
X132725000Y-54300000D02*
X134100000Y-54300000D01*
D81*
X104188000Y-74257400D02*
X104185500Y-74259900D01*
D76*
X139987500Y-72012500D02*
X140000000Y-72000000D01*
D81*
X96485000Y-57970000D02*
X96485000Y-56815000D01*
D77*
X118600020Y-50837310D02*
X118611010Y-50848300D01*
X109924900Y-48408380D02*
X109916520Y-48400000D01*
X118611010Y-50848300D02*
X120351700Y-50848300D01*
X109924900Y-49162430D02*
X110274910Y-49162430D01*
D81*
X101080000Y-43042500D02*
X102342500Y-43042500D01*
X104192600Y-72692600D02*
X104200000Y-72700000D01*
D77*
X88345000Y-43162500D02*
X88345000Y-44255000D01*
D76*
X143375000Y-48975000D02*
X144300000Y-49900000D01*
D77*
X88300000Y-44300000D02*
X88345000Y-44255000D01*
X109924900Y-49162430D02*
X109924900Y-48408380D01*
D75*
X120950000Y-61175000D02*
X119350000Y-61175000D01*
X129700000Y-60825000D02*
X127100000Y-60825000D01*
D81*
X101195000Y-57945000D02*
X101195000Y-56805000D01*
D75*
X122575000Y-60075000D02*
X122500000Y-60000000D01*
X98045000Y-56845000D02*
X98000000Y-56800000D01*
X86600000Y-68300000D02*
X86600000Y-67300000D01*
D81*
X101195000Y-56805000D02*
X101200000Y-56800000D01*
X104192600Y-71187400D02*
X104193000Y-71187400D01*
X86775000Y-66125000D02*
X86775000Y-65475000D01*
D76*
X143000000Y-48975000D02*
X143375000Y-48975000D01*
D75*
X119300000Y-61225000D02*
X117700000Y-61225000D01*
X99600000Y-56700000D02*
X99625000Y-56725000D01*
X120950000Y-60150000D02*
X120900000Y-60100000D01*
D77*
X104193000Y-71187400D02*
X104193000Y-71437800D01*
X119072020Y-50137540D02*
X119309560Y-49900000D01*
D81*
X96505000Y-57950000D02*
X96485000Y-57970000D01*
D77*
X115875100Y-48400000D02*
X115875100Y-48324900D01*
D75*
X122575000Y-61175000D02*
X122575000Y-60075000D01*
D76*
X138575000Y-72012500D02*
X139987500Y-72012500D01*
D75*
X86825000Y-68525000D02*
X86600000Y-68300000D01*
D77*
X104188000Y-74257400D02*
X104185500Y-74259900D01*
D81*
X104185100Y-74259900D02*
X104182600Y-74262400D01*
D77*
X108600030Y-52587370D02*
X107112630Y-52587370D01*
D75*
X121600000Y-48575000D02*
X121600000Y-49900000D01*
D77*
X108154000Y-56787500D02*
X108600000Y-56787500D01*
X117624910Y-61149910D02*
X117700000Y-61225000D01*
X107914534Y-57081753D02*
X107914534Y-57026966D01*
D81*
X86775000Y-67125000D02*
X86600000Y-67300000D01*
D77*
X118600000Y-50137500D02*
X118613965Y-50123535D01*
D81*
X101190000Y-57950000D02*
X101195000Y-57945000D01*
D75*
X124650000Y-60825000D02*
X124600000Y-60775000D01*
D76*
X134832000Y-73699000D02*
X134823000Y-73690000D01*
X136519000Y-73692000D02*
X136512000Y-73699000D01*
D77*
X104185500Y-74259900D02*
X104183000Y-74262400D01*
D81*
X96485000Y-56815000D02*
X96500000Y-56800000D01*
D77*
X107112630Y-52587370D02*
X106900000Y-52800000D01*
X120351700Y-50848300D02*
X121300000Y-49900000D01*
X117624910Y-59162410D02*
X117624910Y-61149910D01*
X115875100Y-49162430D02*
X115875100Y-48400000D01*
D81*
X102342500Y-43042500D02*
X102400000Y-43100000D01*
D80*
X132725000Y-56200000D02*
X134000000Y-56200000D01*
D75*
X124600000Y-60775000D02*
X122975000Y-60775000D01*
D78*
X141855000Y-80107000D02*
X141855000Y-81420000D01*
X141855000Y-81420000D02*
X141859000Y-81424000D01*
D75*
X101200000Y-57940000D02*
X101195000Y-57945000D01*
D77*
X117600000Y-41050000D02*
X117600000Y-39900000D01*
X104193000Y-74252400D02*
X104188000Y-74257400D01*
X112024970Y-49162430D02*
X112024970Y-48224970D01*
%TO.N,/XTAL_N*%
X110975000Y-47992500D02*
X110975000Y-49162400D01*
X112510000Y-46457500D02*
X110975000Y-47992500D01*
D81*
X111766858Y-44166858D02*
X111766858Y-43266277D01*
X112509992Y-46457508D02*
X112509992Y-44909992D01*
X112509992Y-44909992D02*
X111766858Y-44166858D01*
D77*
%TO.N,/XTAL_P*%
X110625000Y-49162400D02*
X110625000Y-48149900D01*
X108076000Y-46487500D02*
X109009000Y-45554500D01*
D81*
X109009100Y-42912700D02*
X109009000Y-42912700D01*
D77*
X109009000Y-45554500D02*
X109009000Y-42912700D01*
X110625000Y-48149900D02*
X108962000Y-46487500D01*
X108962000Y-46487500D02*
X108076000Y-46487500D01*
D81*
%TO.N,ESP_LDO_VO1*%
X121008000Y-71437500D02*
X121008000Y-73674500D01*
D77*
X119400000Y-52900000D02*
X119400000Y-52500000D01*
X117166900Y-69266900D02*
X117521000Y-69266900D01*
X119400000Y-52500000D02*
X119137400Y-52237400D01*
D81*
X115157500Y-70457500D02*
X115100000Y-70400000D01*
X115157500Y-71577500D02*
X115158000Y-71577500D01*
D77*
X110275000Y-62375000D02*
X110550000Y-62650000D01*
X110550000Y-62650000D02*
X117166900Y-69266900D01*
X120910000Y-73772500D02*
X121529000Y-73772500D01*
X117521000Y-69266900D02*
X117521000Y-69319000D01*
D81*
X121008000Y-73674500D02*
X120910000Y-73772500D01*
X121007500Y-71437500D02*
X120837500Y-71437500D01*
D77*
X110275000Y-59162400D02*
X110275000Y-62375000D01*
D81*
X115157500Y-71577500D02*
X115157500Y-70457500D01*
D77*
X117521000Y-69319000D02*
X117484375Y-69355625D01*
D81*
X121007500Y-71437500D02*
X121008000Y-71437500D01*
X120837500Y-71437500D02*
X120125000Y-70725000D01*
D77*
X119137400Y-52237400D02*
X118600000Y-52237400D01*
D80*
%TO.N,/LED_GPIO26*%
X120456123Y-56900000D02*
X125200000Y-56900000D01*
X118600020Y-57837300D02*
X119518823Y-57837300D01*
X119518823Y-57837300D02*
X120456123Y-56900000D01*
X125200000Y-56900000D02*
X125900000Y-56200000D01*
X125900000Y-56200000D02*
X127612500Y-56200000D01*
D77*
%TO.N,ESP_VDD_HP*%
X113800000Y-49137460D02*
X113800000Y-48400000D01*
X119500000Y-58200000D02*
X119487310Y-58187310D01*
X118600020Y-50487300D02*
X119500000Y-50487300D01*
X108362680Y-58537320D02*
X108100000Y-58800000D01*
X119487310Y-58187310D02*
X118600020Y-58187310D01*
X119900000Y-58200000D02*
X119872685Y-58172685D01*
D75*
X133000000Y-46800000D02*
X132775000Y-47025000D01*
D77*
X119872685Y-58172685D02*
X119527315Y-58172685D01*
X108100000Y-58800000D02*
X108100000Y-59100000D01*
X108600030Y-58537320D02*
X108362680Y-58537320D01*
X113775030Y-49162430D02*
X113800000Y-49137460D01*
X119527315Y-58172685D02*
X119500000Y-58200000D01*
%TO.N,Net-(IC8-X1)*%
X105648000Y-84992400D02*
X105516000Y-85124900D01*
X106013000Y-81532400D02*
X105648000Y-81897400D01*
D81*
X105516000Y-85124900D02*
X105515000Y-85124900D01*
D77*
X106013000Y-78857400D02*
X106013000Y-81532400D01*
D81*
X106012600Y-78857400D02*
X106013000Y-78857400D01*
D77*
X105648000Y-81897400D02*
X105648000Y-84992400D01*
D81*
X105647600Y-81897400D02*
X105648000Y-81897400D01*
X105515000Y-85124900D02*
X105383000Y-85257400D01*
D77*
X105516000Y-85124900D02*
X105383000Y-85257400D01*
D81*
X105382600Y-85257400D02*
X105383000Y-85257400D01*
D77*
%TO.N,Net-(IC8-X2)*%
X106513000Y-79697600D02*
X106513000Y-80262600D01*
X108368000Y-81877400D02*
X108368000Y-85042400D01*
X106513000Y-78857400D02*
X106513000Y-79697600D01*
X108368000Y-85042400D02*
X108583000Y-85257400D01*
D81*
X108582600Y-85257400D02*
X108583000Y-85257400D01*
X106513000Y-78857400D02*
X106513000Y-79697600D01*
D77*
X106513000Y-80262600D02*
X108127000Y-81877400D01*
D81*
X106512600Y-78857400D02*
X106513000Y-78857400D01*
D77*
X108367600Y-81877400D02*
X108368000Y-81877400D01*
X108127000Y-81877400D02*
X108367600Y-81877400D01*
D81*
%TO.N,/V_BAT*%
X107012600Y-78857400D02*
X107013000Y-78857400D01*
D77*
X113000000Y-80800000D02*
X107600000Y-80800000D01*
X113475000Y-79700000D02*
X113475000Y-80325000D01*
X107600000Y-80800000D02*
X107012600Y-80212600D01*
X107012600Y-80212600D02*
X107012600Y-78857400D01*
X113475000Y-80325000D02*
X113000000Y-80800000D01*
X113475000Y-79700000D02*
X115075000Y-79700000D01*
D81*
%TO.N,Net-(IC7-VIN_1)*%
X134652500Y-94437500D02*
X134652000Y-94437500D01*
X134002000Y-94437500D02*
X134002500Y-94437500D01*
D76*
%TO.N,/Vin*%
X153277500Y-96297500D02*
X153847500Y-96297500D01*
D81*
X153847500Y-95777300D02*
X153472700Y-95777300D01*
X153848000Y-95608700D02*
X153848000Y-95776800D01*
D76*
X81875000Y-78100000D02*
X83750000Y-78100000D01*
X87700000Y-79300000D02*
X84957500Y-82042500D01*
D81*
X153848000Y-95776800D02*
X153847500Y-95777300D01*
D76*
X86100000Y-77575000D02*
X87700000Y-77575000D01*
X87700000Y-77575000D02*
X87700000Y-79300000D01*
D81*
X153472700Y-95777300D02*
X153400000Y-95850000D01*
D77*
X153848000Y-95776800D02*
X153848000Y-95945000D01*
X153848000Y-95608700D02*
X153848000Y-95776800D01*
D76*
X86025000Y-77650000D02*
X86100000Y-77575000D01*
X153847500Y-96297500D02*
X153400000Y-95850000D01*
X84200000Y-77650000D02*
X86025000Y-77650000D01*
X84957500Y-82042500D02*
X79637500Y-82042500D01*
X83750000Y-78100000D02*
X84200000Y-77650000D01*
D81*
X153848000Y-95776800D02*
X153848000Y-95945000D01*
D77*
%TO.N,Net-(IC7-TR{slash}SS)*%
X137037500Y-93137500D02*
X137300000Y-93400000D01*
X135952000Y-93137500D02*
X135952500Y-93137500D01*
X140000000Y-93400000D02*
X140300000Y-93100000D01*
X135952500Y-93137500D02*
X137037500Y-93137500D01*
X137300000Y-93400000D02*
X140000000Y-93400000D01*
X140300000Y-93100000D02*
X140300000Y-92375000D01*
%TO.N,Net-(IC7-VOUT_1)*%
X135302500Y-91837500D02*
X135302000Y-91837500D01*
D76*
X139000000Y-87900000D02*
X138500000Y-88400000D01*
X141900000Y-88100000D02*
X141700000Y-87900000D01*
D77*
X139025000Y-89000000D02*
X136225000Y-89000000D01*
D75*
X135300000Y-91835000D02*
X135302500Y-91837500D01*
D76*
X141900000Y-90775000D02*
X141900000Y-88100000D01*
D75*
X135302500Y-91837500D02*
X135952500Y-91837500D01*
D77*
X136225000Y-89000000D02*
X136100000Y-88875000D01*
D76*
X141700000Y-87900000D02*
X139000000Y-87900000D01*
D75*
%TO.N,6V*%
X98875000Y-100925000D02*
X99300000Y-100500000D01*
D79*
X86700000Y-70000000D02*
X86700000Y-72200000D01*
D75*
X103550000Y-98325000D02*
X103725000Y-98150000D01*
D79*
X102800000Y-84300000D02*
X102800000Y-94600000D01*
X89300000Y-74800000D02*
X91900000Y-74800000D01*
X81990000Y-69535000D02*
X81915000Y-69610000D01*
X81915000Y-69610000D02*
X84415000Y-69610000D01*
D76*
X87757500Y-82042500D02*
X89797500Y-82042500D01*
D79*
X86310000Y-69610000D02*
X86700000Y-70000000D01*
X93700000Y-80700000D02*
X95000000Y-82000000D01*
X84415000Y-69610000D02*
X86310000Y-69610000D01*
X102800000Y-94600000D02*
X101800000Y-95600000D01*
D76*
X86900000Y-90500000D02*
X86900000Y-82900000D01*
D79*
X91900000Y-74800000D02*
X93700000Y-76600000D01*
D76*
X91705000Y-83950000D02*
X89797500Y-82042500D01*
D79*
X86700000Y-72200000D02*
X89300000Y-74800000D01*
X93700000Y-76600000D02*
X93700000Y-80700000D01*
X100500000Y-82000000D02*
X102800000Y-84300000D01*
D76*
X88600000Y-92200000D02*
X86900000Y-90500000D01*
X93200000Y-83950000D02*
X91705000Y-83950000D01*
X86900000Y-82900000D02*
X87757500Y-82042500D01*
X92700000Y-92200000D02*
X98300000Y-92200000D01*
D75*
X99300000Y-100500000D02*
X99300000Y-98400000D01*
D76*
X98300000Y-92200000D02*
X100500000Y-94400000D01*
D79*
X81990000Y-67285000D02*
X81990000Y-69535000D01*
D76*
X91200000Y-92200000D02*
X92700000Y-92200000D01*
X88600000Y-92200000D02*
X91200000Y-92200000D01*
D79*
X95000000Y-82000000D02*
X100500000Y-82000000D01*
D81*
X101185000Y-98125000D02*
X101185000Y-98325000D01*
D75*
X97725000Y-100925000D02*
X98875000Y-100925000D01*
D81*
%TO.N,Net-(IC7-FB)*%
X135952000Y-92487500D02*
X135952500Y-92487500D01*
X139500000Y-90100000D02*
X139900000Y-89700000D01*
X138725000Y-92400000D02*
X139300000Y-92400000D01*
X139500000Y-92200000D02*
X139500000Y-90100000D01*
X138637500Y-92487500D02*
X138700000Y-92425000D01*
X139300000Y-92400000D02*
X139500000Y-92200000D01*
X135952500Y-92487500D02*
X138637500Y-92487500D01*
X139900000Y-89700000D02*
X140400000Y-89700000D01*
X140400000Y-89700000D02*
X140575000Y-89525000D01*
X140575000Y-89525000D02*
X140575000Y-89000000D01*
X138700000Y-92425000D02*
X138725000Y-92400000D01*
D77*
%TO.N,Net-(IC5-OUT_1)*%
X88225000Y-96675000D02*
X88225000Y-98375000D01*
X88225000Y-98375000D02*
X91825000Y-98375000D01*
D81*
X91875000Y-100275000D02*
X91875000Y-100274500D01*
D77*
X85775000Y-98355000D02*
X88205000Y-98355000D01*
X91825000Y-98375000D02*
X91875000Y-98325000D01*
X91875000Y-98325000D02*
X91875000Y-99625000D01*
X88205000Y-98355000D02*
X88225000Y-98375000D01*
X91875000Y-99625000D02*
X91875000Y-100274500D01*
D76*
%TO.N,VREF_2V5*%
X80800000Y-52100000D02*
X80800000Y-51048000D01*
D81*
X84300000Y-62900000D02*
X84325000Y-62875000D01*
X85161000Y-62875000D02*
X84325000Y-62875000D01*
X81146300Y-51278300D02*
X80858000Y-50990000D01*
D75*
X75300000Y-59562500D02*
X75300000Y-61275000D01*
D76*
X80858000Y-50990000D02*
X81383000Y-50990000D01*
X83008000Y-49365000D02*
X82918000Y-49455000D01*
D81*
X85161000Y-62875000D02*
X86775000Y-62875000D01*
D76*
X85188000Y-49365000D02*
X83008000Y-49365000D01*
X80800000Y-51048000D02*
X80858000Y-50990000D01*
X81383000Y-50990000D02*
X82918000Y-49455000D01*
X80800000Y-52975000D02*
X80800000Y-52100000D01*
D81*
%TO.N,VUSB*%
X152661000Y-57165300D02*
X152661000Y-55134700D01*
X151277000Y-58550000D02*
X152661000Y-57165300D01*
X150425000Y-58550000D02*
X151277000Y-58550000D01*
X152661000Y-55134700D02*
X151277000Y-53750000D01*
D75*
X150387500Y-53787500D02*
X150425000Y-53750000D01*
X147275000Y-53100000D02*
X147912500Y-53100000D01*
D81*
X151277000Y-53750000D02*
X150425000Y-53750000D01*
D75*
X147912500Y-53100000D02*
X148600000Y-53787500D01*
X148600000Y-53787500D02*
X150387500Y-53787500D01*
D77*
%TO.N,ESP_LDO_VO2*%
X119500000Y-53600000D02*
X119800000Y-53600000D01*
X119564548Y-51943300D02*
X119898248Y-52277000D01*
X118600020Y-51887350D02*
X118655970Y-51943300D01*
X118655970Y-51943300D02*
X119564548Y-51943300D01*
X119462590Y-53637410D02*
X119500000Y-53600000D01*
X118600020Y-56437500D02*
X119337500Y-56437500D01*
X119337500Y-56437500D02*
X119400000Y-56500000D01*
X118600020Y-53637410D02*
X119462590Y-53637410D01*
%TO.N,ESP_LDO_VO3*%
X114125040Y-59162410D02*
X114125040Y-59885960D01*
D75*
X121330300Y-51605300D02*
X119433071Y-51605300D01*
D77*
X114125040Y-59885960D02*
X114111000Y-59900000D01*
X120100000Y-51605300D02*
X119454049Y-51605300D01*
X114111000Y-59176700D02*
X114125000Y-59162400D01*
X119386049Y-51537300D02*
X118600000Y-51537300D01*
D75*
X121425000Y-51700000D02*
X121330300Y-51605300D01*
X119433071Y-51605300D02*
X119389511Y-51561740D01*
D77*
X119454049Y-51605300D02*
X119386049Y-51537300D01*
%TO.N,/RESET*%
X105550000Y-45700000D02*
X101575000Y-45700000D01*
X91350000Y-41775000D02*
X91157500Y-41582500D01*
X109575140Y-48685554D02*
X108789586Y-47900000D01*
X109575140Y-49162430D02*
X109575140Y-48685554D01*
X108789586Y-47900000D02*
X107750000Y-47900000D01*
X88345000Y-41512500D02*
X89895000Y-41512500D01*
X85760000Y-42282500D02*
X87575000Y-42282500D01*
X101575000Y-45700000D02*
X101550000Y-45675000D01*
X107750000Y-47900000D02*
X105550000Y-45700000D01*
X91157500Y-41582500D02*
X89965000Y-41582500D01*
X89895000Y-41512500D02*
X89965000Y-41582500D01*
X87575000Y-42282500D02*
X88345000Y-41512500D01*
D76*
%TO.N,Net-(D1-A)*%
X129175000Y-86700000D02*
X129100000Y-86775000D01*
X130812500Y-86700000D02*
X129175000Y-86700000D01*
D77*
%TO.N,Net-(D4-A)*%
X94165000Y-95425000D02*
X94135000Y-95395000D01*
X95977500Y-95425000D02*
X94165000Y-95425000D01*
D79*
%TO.N,Net-(D5-A)*%
X70002500Y-66462500D02*
X71455000Y-66462500D01*
X71455000Y-66462500D02*
X71465000Y-66452500D01*
D77*
%TO.N,Net-(D6-A2)*%
X71800000Y-53800000D02*
X72200000Y-53800000D01*
X71100000Y-51150000D02*
X71100000Y-53100000D01*
X71100000Y-53100000D02*
X71800000Y-53800000D01*
X71125000Y-51125000D02*
X71100000Y-51150000D01*
D76*
%TO.N,Net-(D6-A1)*%
X72200000Y-59150000D02*
X71125000Y-60225000D01*
D77*
X72200000Y-57800000D02*
X71775000Y-58225000D01*
D76*
X66445000Y-60225000D02*
X64550000Y-58330000D01*
X75150000Y-57800000D02*
X72200000Y-57800000D01*
X72200000Y-57800000D02*
X72200000Y-59150000D01*
D77*
X72200000Y-57800000D02*
X72225000Y-57775000D01*
D76*
X71125000Y-60225000D02*
X66445000Y-60225000D01*
X75950000Y-55337500D02*
X75950000Y-57000000D01*
X75950000Y-57000000D02*
X75150000Y-57800000D01*
D77*
X64550000Y-59005000D02*
X64550000Y-58330000D01*
D76*
%TO.N,Net-(D7-A)*%
X95900000Y-88887500D02*
X95900000Y-90575000D01*
%TO.N,Net-(D7-K)*%
X95162500Y-88050000D02*
X95900000Y-87312500D01*
X91587500Y-89662500D02*
X93200000Y-88050000D01*
X97475000Y-87312500D02*
X97650000Y-87137500D01*
X93200000Y-88050000D02*
X95162500Y-88050000D01*
D77*
X96125000Y-87050000D02*
X96050000Y-87125000D01*
D76*
X95900000Y-87312500D02*
X97475000Y-87312500D01*
X89797500Y-89662500D02*
X91587500Y-89662500D01*
D77*
%TO.N,Net-(D9-A)*%
X117600000Y-44312500D02*
X117600000Y-42700000D01*
%TO.N,/LED_GPIO51*%
X113800000Y-47100000D02*
X117400000Y-47100000D01*
X112724990Y-49162430D02*
X112724990Y-48175010D01*
X112724990Y-48175010D02*
X113800000Y-47100000D01*
X117600000Y-46900000D02*
X117600000Y-45887500D01*
X117400000Y-47100000D02*
X117600000Y-46900000D01*
D76*
%TO.N,AGND*%
X80858000Y-48040000D02*
X80858000Y-46758000D01*
D75*
X73875000Y-60225000D02*
X73900000Y-60200000D01*
D79*
X66400000Y-68200000D02*
X66410000Y-68210000D01*
D76*
X83100000Y-52975000D02*
X83100000Y-51800000D01*
X90612000Y-48095000D02*
X92070000Y-48095000D01*
X82918000Y-47905000D02*
X82918000Y-46618000D01*
D75*
X88675000Y-55700000D02*
X90100000Y-55700000D01*
D79*
X73040000Y-66452500D02*
X74452500Y-66452500D01*
X77250000Y-74800000D02*
X76500000Y-75550000D01*
X76300000Y-72475000D02*
X77500000Y-72475000D01*
D76*
X75100000Y-50200000D02*
X76625000Y-50200000D01*
D79*
X78730000Y-72475000D02*
X78750000Y-72495000D01*
D75*
X86775000Y-64175000D02*
X84825000Y-64175000D01*
X84625000Y-60925000D02*
X84600000Y-60900000D01*
D79*
X73540000Y-68210000D02*
X74890000Y-68210000D01*
D75*
X84825000Y-64175000D02*
X84800000Y-64200000D01*
D79*
X73540000Y-72760000D02*
X76015000Y-72760000D01*
D76*
X93725000Y-48100000D02*
X92900000Y-48925000D01*
X66075000Y-49100000D02*
X67300000Y-49100000D01*
D79*
X76500000Y-75550000D02*
X75400000Y-75550000D01*
D75*
X78175000Y-61225000D02*
X78200000Y-61200000D01*
D76*
X72775000Y-49975000D02*
X72700000Y-49900000D01*
D79*
X78725000Y-74800000D02*
X77700000Y-74800000D01*
D76*
X76625000Y-48500000D02*
X76625000Y-50200000D01*
D79*
X78725000Y-74800000D02*
X78725000Y-73500000D01*
X74890000Y-68210000D02*
X74900000Y-68200000D01*
D76*
X95038000Y-48100000D02*
X96800000Y-48100000D01*
D79*
X75400000Y-75550000D02*
X74775000Y-75550000D01*
X74775000Y-75550000D02*
X74600000Y-75725000D01*
D76*
X95038000Y-48100000D02*
X93725000Y-48100000D01*
D79*
X78725000Y-72520000D02*
X78750000Y-72495000D01*
X76015000Y-72760000D02*
X76300000Y-72475000D01*
D76*
X82918000Y-46618000D02*
X82900000Y-46600000D01*
D79*
X74452500Y-66452500D02*
X74500000Y-66500000D01*
D75*
X87775000Y-57900000D02*
X88900000Y-57900000D01*
D76*
X72775000Y-51125000D02*
X72775000Y-49975000D01*
D79*
X77700000Y-74800000D02*
X77250000Y-74800000D01*
D76*
X80858000Y-46758000D02*
X80800000Y-46700000D01*
D75*
X75300000Y-55337500D02*
X75300000Y-53800000D01*
D79*
X77500000Y-72475000D02*
X78730000Y-72475000D01*
X66410000Y-68210000D02*
X67690000Y-68210000D01*
D75*
X78175000Y-62300000D02*
X78175000Y-61225000D01*
X72775000Y-60225000D02*
X73875000Y-60225000D01*
X86775000Y-60925000D02*
X84625000Y-60925000D01*
D79*
X78725000Y-73500000D02*
X78725000Y-72520000D01*
D76*
X92070000Y-48095000D02*
X92900000Y-48925000D01*
D77*
%TO.N,/ADC_SCLK*%
X103300000Y-55350000D02*
X103053999Y-55596001D01*
D81*
X96485000Y-59620000D02*
X96485000Y-60600000D01*
D77*
X97300000Y-58805000D02*
X96485000Y-59620000D01*
X103053999Y-55596001D02*
X103053999Y-55600041D01*
D81*
X92848300Y-61575000D02*
X93775000Y-61575000D01*
X96485000Y-61115000D02*
X96000000Y-61600000D01*
D77*
X108600000Y-52937400D02*
X107574000Y-52937400D01*
X98003999Y-55596001D02*
X97300000Y-56300000D01*
X107574000Y-52937400D02*
X107166016Y-53345384D01*
X97300000Y-56300000D02*
X97300000Y-58805000D01*
D81*
X96000000Y-61600000D02*
X95975000Y-61575000D01*
X95975000Y-61575000D02*
X93775000Y-61575000D01*
D77*
X104529616Y-53345384D02*
X103300000Y-54575000D01*
X103300000Y-54575000D02*
X103300000Y-55350000D01*
X107166016Y-53345384D02*
X104529616Y-53345384D01*
D81*
X96485000Y-60600000D02*
X96485000Y-61115000D01*
D77*
X103053999Y-55596001D02*
X98003999Y-55596001D01*
%TO.N,/ADC_DIN*%
X97975000Y-59670000D02*
X98045000Y-59600000D01*
D75*
X97475000Y-62225000D02*
X98045000Y-61655000D01*
D77*
X100350000Y-55086001D02*
X100413999Y-55086001D01*
D75*
X93775000Y-62225000D02*
X97475000Y-62225000D01*
D77*
X108586000Y-52223400D02*
X108600000Y-52237400D01*
D75*
X98045000Y-61655000D02*
X98045000Y-60700000D01*
D77*
X105300000Y-52700000D02*
X105300000Y-52701318D01*
X102800000Y-52700000D02*
X105300000Y-52700000D01*
X105301318Y-52700000D02*
X106200000Y-52700000D01*
X106200000Y-52700000D02*
X106676600Y-52223400D01*
X105300000Y-52701318D02*
X105301318Y-52700000D01*
X100413999Y-55086001D02*
X102800000Y-52700000D01*
X106676600Y-52223400D02*
X108586000Y-52223400D01*
X98045000Y-59600000D02*
X98045000Y-60700000D01*
D81*
%TO.N,/ADC_DADY*%
X101195000Y-62505000D02*
X100175000Y-63525000D01*
D77*
X103853220Y-51187300D02*
X103440520Y-51600000D01*
D81*
X101195000Y-60600000D02*
X101195000Y-62505000D01*
D77*
X108600000Y-51187300D02*
X103853220Y-51187300D01*
D81*
X100175000Y-63525000D02*
X93775000Y-63525000D01*
X101195000Y-59595000D02*
X101195000Y-60600000D01*
D77*
%TO.N,/ADC_CS*%
X107012650Y-51887350D02*
X108600030Y-51887350D01*
D81*
X102628000Y-59737500D02*
X102775000Y-59590000D01*
D77*
X108600000Y-51887300D02*
X108600000Y-51900000D01*
X107000000Y-51900000D02*
X107012650Y-51887350D01*
D81*
X102628000Y-62472000D02*
X102628000Y-60537400D01*
X100925000Y-64175000D02*
X102628000Y-62472000D01*
X93775000Y-64175000D02*
X100925000Y-64175000D01*
X102628000Y-60537400D02*
X102628000Y-59737500D01*
D77*
X104915072Y-51915072D02*
X104930144Y-51900000D01*
X104930144Y-51900000D02*
X107000000Y-51900000D01*
%TO.N,/ADC_DOUT*%
X100311000Y-59089000D02*
X99800000Y-59600000D01*
X103286373Y-56163627D02*
X103275000Y-56175000D01*
D81*
X99625000Y-62075000D02*
X98825000Y-62875000D01*
D77*
X103300000Y-56147414D02*
X100752586Y-56147414D01*
X107678563Y-53287400D02*
X107638914Y-53327049D01*
D81*
X98825000Y-62875000D02*
X93775000Y-62875000D01*
D77*
X103300000Y-56147414D02*
X103286373Y-56161041D01*
X99800000Y-59600000D02*
X99625000Y-59600000D01*
X107545555Y-53420754D02*
X107545208Y-53420755D01*
X103621000Y-55826414D02*
X103300000Y-56147414D01*
D81*
X99625000Y-60700000D02*
X99625000Y-62075000D01*
D77*
X105780062Y-53666400D02*
X104883600Y-53666400D01*
X103621000Y-54929000D02*
X103621000Y-55826414D01*
X107544963Y-53421000D02*
X107544400Y-53421000D01*
X100311000Y-56589000D02*
X100311000Y-59089000D01*
X105913040Y-53666400D02*
X105780078Y-53666384D01*
X103286373Y-56161041D02*
X103286373Y-56163627D01*
D81*
X99625000Y-60600000D02*
X99625000Y-60700000D01*
X99625000Y-59600000D02*
X99625000Y-60600000D01*
D77*
X107544400Y-53421000D02*
X107299000Y-53666400D01*
X104883600Y-53666400D02*
X103621000Y-54929000D01*
X107545208Y-53420755D02*
X107544963Y-53421000D01*
X107638914Y-53327049D02*
X107545555Y-53420754D01*
X108600000Y-53287400D02*
X107678563Y-53287400D01*
X107299000Y-53666400D02*
X105913040Y-53666400D01*
X100752586Y-56147414D02*
X100311000Y-56589000D01*
X105780078Y-53666384D02*
X105780062Y-53666400D01*
D76*
%TO.N,Net-(IC4-SENSE{slash}ADJ)*%
X65560000Y-71460000D02*
X65400000Y-71300000D01*
X67690000Y-71460000D02*
X65560000Y-71460000D01*
D75*
X65430000Y-71330000D02*
X65400000Y-71300000D01*
X65430000Y-72760000D02*
X65430000Y-71330000D01*
X65400000Y-72730000D02*
X65430000Y-72760000D01*
D81*
%TO.N,Net-(IC7-RUN)*%
X135302000Y-94437500D02*
X135302000Y-94497800D01*
D77*
X142300000Y-94400000D02*
X142925000Y-93775000D01*
X135300000Y-95600000D02*
X135700000Y-96000000D01*
D81*
X135302000Y-94438000D02*
X135302000Y-94497800D01*
D77*
X141300000Y-94400000D02*
X142300000Y-94400000D01*
X142925000Y-93775000D02*
X143400000Y-93775000D01*
X140800000Y-94900000D02*
X141300000Y-94400000D01*
D81*
X135302500Y-94437500D02*
X135302000Y-94438000D01*
D77*
X140800000Y-95600000D02*
X140800000Y-94900000D01*
X135700000Y-96000000D02*
X140400000Y-96000000D01*
X135300000Y-94440000D02*
X135300000Y-95600000D01*
X135302500Y-94437500D02*
X135300000Y-94440000D01*
X143400000Y-92425000D02*
X143400000Y-93775000D01*
X140400000Y-96000000D02*
X140800000Y-95600000D01*
%TO.N,Net-(IC7-RT)*%
X132258000Y-97267500D02*
X132258000Y-94292500D01*
X132258000Y-94292500D02*
X132762000Y-93787500D01*
X132762000Y-93787500D02*
X133352000Y-93787500D01*
D81*
X133352500Y-93787500D02*
X133352000Y-93787500D01*
X132257500Y-97267500D02*
X132258000Y-97267500D01*
D77*
%TO.N,Net-(IC7-PG)*%
X141900000Y-93300000D02*
X141900000Y-92425000D01*
X141400000Y-93800000D02*
X141900000Y-93300000D01*
X135952500Y-93787500D02*
X139487500Y-93787500D01*
X139500000Y-93800000D02*
X141400000Y-93800000D01*
X139487500Y-93787500D02*
X139500000Y-93800000D01*
X135952000Y-93787500D02*
X135952500Y-93787500D01*
D81*
%TO.N,Net-(IC8-~{CS})*%
X109892700Y-79147300D02*
X109892600Y-79147400D01*
X109893000Y-79147300D02*
X109892700Y-79147300D01*
X109893000Y-79147400D02*
X109893000Y-79147300D01*
D77*
X109893000Y-79147300D02*
X109893000Y-79147400D01*
D81*
X107512600Y-78857400D02*
X107513000Y-78857400D01*
D77*
X107513000Y-79863000D02*
X107850000Y-80200000D01*
D81*
X109893000Y-79147300D02*
X109893000Y-79147200D01*
D77*
X109893000Y-79147200D02*
X109893000Y-79147300D01*
X109892600Y-79707400D02*
X109892600Y-79147400D01*
X109400000Y-80200000D02*
X109892600Y-79707400D01*
X107850000Y-80200000D02*
X109400000Y-80200000D01*
X107513000Y-78857400D02*
X107513000Y-79863000D01*
D81*
X107513000Y-78457400D02*
X107513000Y-78457800D01*
D77*
X107513000Y-78457800D02*
X107513000Y-78457400D01*
X107513000Y-78857400D02*
X107513000Y-78457800D01*
D81*
X107513000Y-78457800D02*
X107513000Y-78857400D01*
%TO.N,Net-(IC8-SCK)*%
X107353000Y-71222600D02*
X107353000Y-71222400D01*
X107352600Y-71222400D02*
X107353000Y-71222400D01*
X107353000Y-71222600D02*
X107353000Y-71222400D01*
X107013000Y-74057400D02*
X107013000Y-74457400D01*
X107353000Y-71222800D02*
X107353000Y-71222600D01*
D77*
X107183000Y-71392400D02*
X107013000Y-71562400D01*
X107013000Y-74057400D02*
X107013000Y-74457400D01*
D81*
X107183000Y-71392400D02*
X107353000Y-71222800D01*
D77*
X107013000Y-71562400D02*
X107013000Y-74057400D01*
D81*
X107012600Y-74457400D02*
X107013000Y-74457400D01*
D77*
X107353000Y-71222400D02*
X107183000Y-71392400D01*
D81*
%TO.N,Net-(IC8-SO)*%
X108892600Y-71222400D02*
X108893000Y-71222400D01*
D77*
X108893000Y-71222400D02*
X108893000Y-71782400D01*
X107513000Y-73162400D02*
X107513000Y-73990100D01*
D81*
X107513000Y-73990100D02*
X107513000Y-74457400D01*
X107513000Y-74223700D02*
X107513000Y-74457400D01*
X107512600Y-74457400D02*
X107513000Y-74457400D01*
D77*
X107513000Y-73990100D02*
X107513000Y-74457400D01*
X108893000Y-71782400D02*
X107513000Y-73162400D01*
%TO.N,Net-(IC8-MFP)*%
X105803000Y-72427600D02*
X106513000Y-73137600D01*
D81*
X105802600Y-71212400D02*
X105803000Y-71212400D01*
X106513000Y-74057400D02*
X106513000Y-74457400D01*
X106512600Y-74457400D02*
X106513000Y-74457400D01*
D77*
X105803000Y-71212400D02*
X105803000Y-72427600D01*
X106513000Y-74057400D02*
X106513000Y-74457400D01*
X106513000Y-73137600D02*
X106513000Y-74057400D01*
D81*
%TO.N,Net-(IC8-SI)*%
X110442600Y-71357200D02*
X110442600Y-71232400D01*
D77*
X108013000Y-73612400D02*
X109100000Y-72525000D01*
X110443000Y-71482800D02*
X110443000Y-71357600D01*
X110443000Y-71357600D02*
X110443000Y-71232400D01*
X109975000Y-72525000D02*
X110443000Y-72057400D01*
X109100000Y-72525000D02*
X109975000Y-72525000D01*
X108013000Y-74457400D02*
X108013000Y-73612400D01*
D81*
X110443000Y-71357600D02*
X110442600Y-71357200D01*
X110443000Y-71482800D02*
X110443000Y-71357600D01*
X108012600Y-74457400D02*
X108013000Y-74457400D01*
D77*
X110443000Y-72057400D02*
X110443000Y-71482800D01*
D81*
X110443000Y-71357600D02*
X110443000Y-71232400D01*
D82*
%TO.N,/LOAD*%
X68457500Y-82042500D02*
X72017500Y-82042500D01*
X64700000Y-83320000D02*
X67180000Y-83320000D01*
X67180000Y-83320000D02*
X68457500Y-82042500D01*
D76*
%TO.N,Net-(U2-SW)*%
X138612500Y-49100000D02*
X138662500Y-49050000D01*
X135700000Y-49100000D02*
X138612500Y-49100000D01*
D79*
%TO.N,Net-(IC4-IN_1)*%
X78840000Y-67285000D02*
X78840000Y-69455000D01*
X73540000Y-72110000D02*
X74790000Y-72110000D01*
X73540000Y-69510000D02*
X73540000Y-70810000D01*
X75100000Y-69510000D02*
X76285000Y-69510000D01*
X76320000Y-69545000D02*
X76300000Y-69525000D01*
X74800000Y-72100000D02*
X74800000Y-69810000D01*
X78840000Y-69455000D02*
X78750000Y-69545000D01*
X74800000Y-69810000D02*
X75100000Y-69510000D01*
X74790000Y-72110000D02*
X74800000Y-72100000D01*
X76285000Y-69510000D02*
X76300000Y-69525000D01*
X78750000Y-69545000D02*
X76320000Y-69545000D01*
X73540000Y-69510000D02*
X75100000Y-69510000D01*
D76*
%TO.N,Net-(Q1-B)*%
X101187500Y-87137500D02*
X101200000Y-87125000D01*
X99550000Y-87137500D02*
X101187500Y-87137500D01*
D77*
%TO.N,Net-(U7--)*%
X76600000Y-51825000D02*
X76575000Y-51800000D01*
X76600000Y-55337500D02*
X76600000Y-51825000D01*
X76600000Y-57475000D02*
X76600000Y-55337500D01*
X75950000Y-59562500D02*
X75950000Y-58125000D01*
X75950000Y-58125000D02*
X76600000Y-57475000D01*
%TO.N,/FB_DCDC*%
X137300000Y-40200000D02*
X139062500Y-41962500D01*
X120489000Y-44111000D02*
X124400000Y-40200000D01*
X124400000Y-40200000D02*
X137300000Y-40200000D01*
D76*
X139062500Y-44937500D02*
X140462500Y-44937500D01*
D77*
X118600020Y-49787530D02*
X118712470Y-49787530D01*
X140737500Y-44662500D02*
X140462500Y-44937500D01*
X120489000Y-48011000D02*
X120489000Y-44111000D01*
X118712470Y-49787530D02*
X120489000Y-48011000D01*
D76*
X140937500Y-47150000D02*
X140937500Y-45412500D01*
D77*
X139062500Y-41962500D02*
X139062500Y-44937500D01*
D76*
X140937500Y-45412500D02*
X140462500Y-44937500D01*
D77*
%TO.N,/RTC_MFP*%
X103600000Y-56800000D02*
X103700000Y-56900000D01*
X103700000Y-66124600D02*
X105803000Y-68227600D01*
X105803000Y-68227600D02*
X105803000Y-69312000D01*
X105803000Y-69437200D02*
X105803000Y-69499800D01*
X105803000Y-69499800D02*
X105803000Y-69562400D01*
X106756700Y-55387500D02*
X108600000Y-55387500D01*
X105778000Y-69537400D02*
X104193000Y-69537400D01*
X106734600Y-55409600D02*
X106756700Y-55387500D01*
X105803000Y-69312000D02*
X105803000Y-69437200D01*
D81*
X105803000Y-69312000D02*
X105803000Y-69437200D01*
D77*
X103700000Y-56900000D02*
X103700000Y-66124600D01*
D81*
X104192600Y-69537400D02*
X104193000Y-69537400D01*
X105803000Y-69499800D02*
X105803000Y-69562400D01*
X105803000Y-69437200D02*
X105803000Y-69499800D01*
X105803000Y-69499800D02*
X105802600Y-69500200D01*
X105803000Y-69499800D02*
X105803000Y-69562400D01*
D77*
X105803000Y-69562400D02*
X105778000Y-69537400D01*
D81*
X105802600Y-69500200D02*
X105802600Y-69562400D01*
X105803000Y-69437200D02*
X105803000Y-69499800D01*
D77*
%TO.N,/RTC_SCK*%
X107353000Y-69322000D02*
X107353000Y-67902600D01*
X107353000Y-69322000D02*
X107353000Y-69447200D01*
X105334167Y-54883000D02*
X105984037Y-54233437D01*
X107353000Y-69447200D02*
X107353000Y-69509800D01*
X105146112Y-55070962D02*
X105334074Y-54883000D01*
D81*
X107352600Y-69510200D02*
X107352600Y-69572400D01*
D77*
X106305113Y-54045368D02*
X106438076Y-54045368D01*
X107353000Y-67902600D02*
X104100000Y-64649600D01*
D81*
X107353000Y-69322000D02*
X107353000Y-69447200D01*
D77*
X105146069Y-55070962D02*
X105146112Y-55070962D01*
D81*
X107353000Y-69509800D02*
X107353000Y-69572400D01*
X107353000Y-69447200D02*
X107353000Y-69509800D01*
D77*
X107837600Y-53987400D02*
X108600000Y-53987400D01*
X105984037Y-54233437D02*
X106172074Y-54045400D01*
X106172228Y-54045336D02*
X106305113Y-54045368D01*
X106172074Y-54045400D02*
X106172120Y-54045400D01*
D81*
X107353000Y-69447200D02*
X107353000Y-69509800D01*
D77*
X104100000Y-64649600D02*
X104100000Y-56117031D01*
X106438076Y-54045368D02*
X106438108Y-54045400D01*
X107779600Y-54045400D02*
X107837600Y-53987400D01*
X107353000Y-69509800D02*
X107353000Y-69572400D01*
X106172152Y-54045368D02*
X106172196Y-54045368D01*
D81*
X107353000Y-69509800D02*
X107353000Y-69572400D01*
D77*
X106172196Y-54045368D02*
X106172228Y-54045336D01*
X106172120Y-54045400D02*
X106172152Y-54045368D01*
X105334074Y-54883000D02*
X105334167Y-54883000D01*
X104100000Y-56117031D02*
X105146069Y-55070962D01*
X106438108Y-54045400D02*
X107779600Y-54045400D01*
D81*
X107353000Y-69509800D02*
X107352600Y-69510200D01*
D77*
%TO.N,/RTC_SO*%
X105467084Y-55204000D02*
X106210610Y-54460827D01*
X108239965Y-54351435D02*
X108254000Y-54337400D01*
D81*
X108892600Y-69447600D02*
X108892600Y-69572400D01*
X108893000Y-69447200D02*
X108893000Y-69572400D01*
D77*
X106305037Y-54366400D02*
X106305082Y-54366400D01*
D81*
X108893000Y-69447200D02*
X108892600Y-69447600D01*
D77*
X108893000Y-69322000D02*
X108893000Y-68317600D01*
X108893000Y-68317600D02*
X104600000Y-64024600D01*
D81*
X108893000Y-69322000D02*
X108893000Y-69447200D01*
D77*
X105279032Y-55391962D02*
X105369445Y-55301592D01*
X106305082Y-54366400D02*
X106305114Y-54366368D01*
X104600000Y-56336855D02*
X105279000Y-55657855D01*
X108893000Y-69572400D02*
X108893000Y-69447200D01*
X104600000Y-64024600D02*
X104600000Y-56336855D01*
X105279000Y-55392037D02*
X105279032Y-55392005D01*
X108893000Y-69447200D02*
X108893000Y-69322000D01*
X108254000Y-54337400D02*
X108600000Y-54337400D01*
X105369445Y-55301592D02*
X105467037Y-55204000D01*
X106210610Y-54460827D02*
X106305037Y-54366400D01*
X108014025Y-54366400D02*
X108014025Y-54351435D01*
X106305114Y-54366368D02*
X106438076Y-54366400D01*
X106438076Y-54366400D02*
X108014025Y-54366400D01*
X105279032Y-55392005D02*
X105279032Y-55391962D01*
X105467037Y-55204000D02*
X105467084Y-55204000D01*
X108014025Y-54351435D02*
X108239965Y-54351435D01*
X105279000Y-55657855D02*
X105279000Y-55392037D01*
%TO.N,/RTC_SI*%
X110443000Y-69143000D02*
X110443000Y-69332000D01*
X105550000Y-55575400D02*
X105550000Y-55770107D01*
X104900000Y-63600000D02*
X110443000Y-69143000D01*
X110443000Y-69332000D02*
X110443000Y-69582400D01*
X108600000Y-54687400D02*
X106438000Y-54687400D01*
X104900000Y-56420107D02*
X104900000Y-63600000D01*
X105550000Y-55770107D02*
X104900000Y-56420107D01*
D81*
X110443000Y-69332000D02*
X110443000Y-69582400D01*
X110442600Y-69582400D02*
X110443000Y-69582400D01*
D77*
X106438000Y-54687400D02*
X105550000Y-55575400D01*
%TO.N,/RTC_CS*%
X105200000Y-56503359D02*
X105200000Y-63000000D01*
X105200000Y-63000000D02*
X111800000Y-69600000D01*
X108600000Y-55037400D02*
X106563000Y-55037400D01*
X110353000Y-77497400D02*
X109893000Y-77497400D01*
X111800000Y-76050000D02*
X110353000Y-77497400D01*
X105821000Y-55882359D02*
X105200000Y-56503359D01*
D81*
X109892600Y-77497400D02*
X109893000Y-77497400D01*
D77*
X106563000Y-55037400D02*
X105821000Y-55779400D01*
X111800000Y-69600000D02*
X111800000Y-76050000D01*
X105821000Y-55779400D02*
X105821000Y-55882359D01*
%TO.N,Net-(J3-Pin_2)*%
X118485000Y-79985000D02*
X118485000Y-83857500D01*
X116725000Y-79700000D02*
X118200000Y-79700000D01*
X118200000Y-79700000D02*
X118485000Y-79985000D01*
%TO.N,/control*%
X97100000Y-54300000D02*
X97100000Y-54800000D01*
X99800000Y-83500000D02*
X100250000Y-83500000D01*
X100562400Y-50837600D02*
X97100000Y-54300000D01*
X100250000Y-83500000D02*
X101175000Y-84425000D01*
X108600000Y-50837600D02*
X100562400Y-50837600D01*
X101175000Y-84425000D02*
X101200000Y-84400000D01*
X101200000Y-84400000D02*
X101200000Y-85475000D01*
D81*
%TO.N,/FLASH_CS*%
X113507500Y-73545000D02*
X113735000Y-73772500D01*
D77*
X113508000Y-67908000D02*
X109225000Y-63625000D01*
D81*
X113507500Y-71577500D02*
X113507500Y-73545000D01*
X113507500Y-71577500D02*
X113508000Y-71577500D01*
D77*
X109225000Y-63625000D02*
X109225000Y-59162500D01*
X113735000Y-73772500D02*
X113508000Y-73545000D01*
X113508000Y-71577500D02*
X113508000Y-67908000D01*
%TO.N,/BOOT_GPIO35*%
X101080000Y-41392500D02*
X102392500Y-41392500D01*
X126200000Y-53400000D02*
X126300000Y-53400000D01*
X119464756Y-53987420D02*
X120077336Y-54600000D01*
X118614000Y-54001400D02*
X118600000Y-53987400D01*
X120077336Y-54600000D02*
X125000000Y-54600000D01*
X100265000Y-42207500D02*
X101080000Y-41392500D01*
X118600020Y-53987420D02*
X119464756Y-53987420D01*
X98435000Y-42207500D02*
X100265000Y-42207500D01*
X125000000Y-54600000D02*
X126200000Y-53400000D01*
X102392500Y-41392500D02*
X102400000Y-41400000D01*
X126300000Y-53400000D02*
X126300000Y-43000000D01*
X126300000Y-43000000D02*
X125800000Y-42500000D01*
D75*
%TO.N,Net-(U4-CC1)*%
X150425000Y-57400000D02*
X150387500Y-57437500D01*
X150387500Y-57437500D02*
X146012000Y-57437500D01*
X146012000Y-57437500D02*
X145025000Y-58425000D01*
X145025000Y-58425000D02*
X142975000Y-58425000D01*
%TO.N,Net-(U4-CC2)*%
X143638000Y-54437500D02*
X142975000Y-53775000D01*
X150387500Y-54437500D02*
X143638000Y-54437500D01*
X150425000Y-54400000D02*
X150387500Y-54437500D01*
D77*
%TO.N,/USB_D+*%
X133200000Y-58925000D02*
X136800000Y-55325000D01*
X118600000Y-58537300D02*
X118937300Y-58537300D01*
X118937300Y-58537300D02*
X119325000Y-58925000D01*
X119325000Y-58925000D02*
X133200000Y-58925000D01*
X136800000Y-55325000D02*
X141325000Y-55325000D01*
D75*
%TO.N,Net-(U4-D1+)*%
X147637500Y-56437500D02*
X147350000Y-56150000D01*
X150387500Y-56437500D02*
X147637500Y-56437500D01*
X143088000Y-55437500D02*
X142975000Y-55325000D01*
X147350000Y-55437500D02*
X143088000Y-55437500D01*
X150425000Y-55400000D02*
X150387500Y-55437500D01*
X150425000Y-56400000D02*
X150387500Y-56437500D01*
X147350000Y-56150000D02*
X147350000Y-55437500D01*
X150387500Y-55437500D02*
X147350000Y-55437500D01*
D77*
%TO.N,/USB_D-*%
X135950000Y-56875000D02*
X133550000Y-59275000D01*
X118142200Y-59162400D02*
X117975000Y-59162400D01*
X118276400Y-59275000D02*
X118163800Y-59162400D01*
X133550000Y-59275000D02*
X118276400Y-59275000D01*
X118151400Y-59162400D02*
X118142200Y-59162400D01*
X141325000Y-56875000D02*
X135950000Y-56875000D01*
D75*
%TO.N,Net-(U4-D1-)*%
X150425000Y-56900000D02*
X150387500Y-56937500D01*
X150425000Y-56900000D02*
X152013000Y-56900000D01*
X152225000Y-56687500D02*
X152225000Y-56162500D01*
X152225000Y-56162500D02*
X151963000Y-55900000D01*
X151963000Y-55900000D02*
X150425000Y-55900000D01*
X152013000Y-56900000D02*
X152225000Y-56687500D01*
X150387500Y-56937500D02*
X143038000Y-56937500D01*
X143038000Y-56937500D02*
X142975000Y-56875000D01*
D77*
%TO.N,/FLASH_HD*%
X118050000Y-69200000D02*
X118050000Y-74625000D01*
X118050000Y-74625000D02*
X118468000Y-75042500D01*
X118468000Y-75042500D02*
X120910000Y-75042500D01*
X110625000Y-61775000D02*
X118050000Y-69200000D01*
X110625000Y-59162400D02*
X110625000Y-61775000D01*
%TO.N,/FLASH_D*%
X122368000Y-77582500D02*
X120910000Y-77582500D01*
X117975000Y-68025000D02*
X120000000Y-68025000D01*
X120000000Y-68025000D02*
X122875000Y-70900000D01*
X122875000Y-73775000D02*
X122850000Y-73800000D01*
X111325000Y-61375000D02*
X117975000Y-68025000D01*
X122875000Y-70900000D02*
X122875000Y-73775000D01*
X122375000Y-77575000D02*
X122368000Y-77582500D01*
X111325000Y-59162400D02*
X111325000Y-61375000D01*
D80*
%TO.N,Net-(D10-A)*%
X129187500Y-56200000D02*
X131075000Y-56200000D01*
D77*
%TO.N,/RS485_RE*%
X107300000Y-57187500D02*
X107300000Y-63150000D01*
X107462000Y-57025000D02*
X107462000Y-57025500D01*
D80*
X129873000Y-76230000D02*
X129873000Y-74960000D01*
D77*
X107462000Y-57025500D02*
X107300000Y-57187500D01*
X111600000Y-67450000D02*
X112100000Y-67450000D01*
X108600000Y-56437500D02*
X108050000Y-56437500D01*
D80*
X126649000Y-74960000D02*
X126050000Y-74361000D01*
D77*
X107300000Y-63150000D02*
X111600000Y-67450000D01*
D80*
X129873000Y-74960000D02*
X126649000Y-74960000D01*
D77*
X108050000Y-56437500D02*
X107462000Y-57025000D01*
D80*
%TO.N,Net-(D12-A)*%
X129187500Y-54300000D02*
X131075000Y-54300000D01*
D77*
%TO.N,/FLASH_CK*%
X118475000Y-69000000D02*
X118475000Y-73750000D01*
X110975000Y-59162400D02*
X110975000Y-61500000D01*
X119412000Y-76312500D02*
X120910000Y-76312500D01*
X118475000Y-73750000D02*
X119200000Y-74475000D01*
X110975000Y-61500000D02*
X118475000Y-69000000D01*
X119350000Y-76250000D02*
X119412000Y-76312500D01*
%TO.N,/FLASH_Q*%
X116325000Y-74525000D02*
X115808000Y-75042500D01*
X109575000Y-63375000D02*
X116325000Y-70125000D01*
X116325000Y-70125000D02*
X116325000Y-74525000D01*
X109575000Y-59162500D02*
X109575000Y-63375000D01*
X115808000Y-75042500D02*
X113735000Y-75042500D01*
%TO.N,/RS485_RX*%
X106900000Y-62290000D02*
X106790000Y-62400000D01*
X106900000Y-58100000D02*
X106900000Y-62290000D01*
D80*
X126537000Y-77500000D02*
X126016000Y-78021000D01*
D77*
X107031000Y-56410000D02*
X106900000Y-56541000D01*
X107031000Y-56410000D02*
X107031000Y-56369000D01*
X107312500Y-56087500D02*
X108600000Y-56087500D01*
X106900000Y-56541000D02*
X106900000Y-58100000D01*
D80*
X129873000Y-77500000D02*
X126537000Y-77500000D01*
D77*
X107031000Y-56369000D02*
X107312500Y-56087500D01*
%TO.N,/FLASH_WP*%
X109925000Y-59162400D02*
X109925000Y-63225000D01*
X109925000Y-63225000D02*
X117200000Y-70500000D01*
X115612000Y-76312500D02*
X113735000Y-76312500D01*
X117200000Y-74725000D02*
X115612000Y-76312500D01*
X117200000Y-70500000D02*
X117200000Y-74725000D01*
%TO.N,/EN_DCDC*%
X138662500Y-47150000D02*
X138000000Y-46487500D01*
X123500000Y-39200000D02*
X138000000Y-39200000D01*
X138000000Y-39200000D02*
X139600000Y-40800000D01*
X117974920Y-49162430D02*
X117974920Y-48125080D01*
X117974920Y-48125080D02*
X118600000Y-47500000D01*
X118600000Y-47500000D02*
X118600000Y-44100000D01*
X139600000Y-43000000D02*
X139600000Y-43300000D01*
X138000000Y-46487500D02*
X138000000Y-46200000D01*
X118600000Y-44100000D02*
X123500000Y-39200000D01*
X139600000Y-40800000D02*
X139600000Y-43000000D01*
%TO.N,/RS485_TX*%
X107804500Y-55700000D02*
X107100000Y-55700000D01*
X107842000Y-55737500D02*
X107804500Y-55700000D01*
X106000000Y-62900000D02*
X108100000Y-65000000D01*
D80*
X129873000Y-73690000D02*
X126799000Y-70616000D01*
D77*
X106000000Y-56800000D02*
X106000000Y-62900000D01*
X108600000Y-55737500D02*
X107842000Y-55737500D01*
D80*
X126799000Y-70616000D02*
X125948000Y-70616000D01*
D77*
X107100000Y-55700000D02*
X106000000Y-56800000D01*
D76*
%TO.N,/Vin_A*%
X76500000Y-77450000D02*
X74775000Y-77450000D01*
X77150000Y-78100000D02*
X76500000Y-77450000D01*
X74775000Y-77450000D02*
X74600000Y-77275000D01*
X72725000Y-77275000D02*
X72700000Y-77300000D01*
X64550000Y-53250000D02*
X64550000Y-49125000D01*
X78725000Y-78100000D02*
X77150000Y-78100000D01*
X74600000Y-77275000D02*
X72725000Y-77275000D01*
X64550000Y-49125000D02*
X64525000Y-49100000D01*
D81*
%TO.N,Net-(JP1-A)*%
X142062600Y-76507400D02*
X142063000Y-76507400D01*
D80*
X138051000Y-75853000D02*
X138043000Y-75861000D01*
X141231000Y-75853000D02*
X138051000Y-75853000D01*
X141857000Y-76479000D02*
X141231000Y-75853000D01*
D81*
%TO.N,/B*%
X145129600Y-74502400D02*
X144803000Y-74829000D01*
X145126000Y-74789900D02*
X145413000Y-74502800D01*
X144982000Y-74933600D02*
X152414000Y-74933600D01*
X141857000Y-74829000D02*
X134954000Y-74829000D01*
X145150000Y-74502400D02*
X145129600Y-74502400D01*
X153450000Y-76295000D02*
X153350000Y-76395000D01*
X145150000Y-74502400D02*
X145413000Y-74502400D01*
X141857000Y-74829000D02*
X141857000Y-73018000D01*
X153450000Y-75969600D02*
X153450000Y-76295000D01*
X134954000Y-74829000D02*
X134823000Y-74960000D01*
X152414000Y-74933600D02*
X153450000Y-75969600D01*
D77*
X144838000Y-75077400D02*
X144982000Y-74933600D01*
D81*
X145413000Y-74502800D02*
X145413000Y-74502400D01*
D77*
X144982000Y-74933600D02*
X145126000Y-74789900D01*
D81*
X141857000Y-73018000D02*
X141821000Y-72982000D01*
X144803000Y-74829000D02*
X141857000Y-74829000D01*
D77*
X145126000Y-74789900D02*
X145413000Y-74502400D01*
D81*
%TO.N,/A*%
X138043000Y-78401000D02*
X135872000Y-76230000D01*
X145150000Y-77450000D02*
X142862000Y-77450000D01*
X138099000Y-78457000D02*
X138043000Y-78401000D01*
X145217600Y-77382400D02*
X145433000Y-77382400D01*
X142862000Y-77450000D02*
X141855000Y-78457000D01*
D77*
X145246000Y-77195300D02*
X145433000Y-77382400D01*
D81*
X145150000Y-77450000D02*
X145217600Y-77382400D01*
X150604000Y-77195300D02*
X151182000Y-76616500D01*
X145246000Y-77195300D02*
X145433000Y-77382000D01*
X145246000Y-77195300D02*
X150604000Y-77195300D01*
X141855000Y-78457000D02*
X138099000Y-78457000D01*
X135872000Y-76230000D02*
X134823000Y-76230000D01*
X145433000Y-77382000D02*
X145433000Y-77382400D01*
D80*
%TO.N,/LED_GPIO27*%
X118600020Y-57487280D02*
X119412720Y-57487280D01*
X120450000Y-56450000D02*
X124050000Y-56450000D01*
X124050000Y-56450000D02*
X126200000Y-54300000D01*
X119412720Y-57487280D02*
X120450000Y-56450000D01*
X126200000Y-54300000D02*
X127612500Y-54300000D01*
D77*
%TO.N,/ESP_LDO_VO4*%
X118628951Y-51216251D02*
X118600000Y-51187300D01*
%TD*%
%TA.AperFunction,Conductor*%
%TO.N,Net-(IC7-VOUT_1)*%
G36*
X139015677Y-87919685D02*
G01*
X139036319Y-87936319D01*
X139063681Y-87963681D01*
X139097166Y-88025004D01*
X139100000Y-88051362D01*
X139100000Y-89533637D01*
X139080315Y-89600676D01*
X139044783Y-89636811D01*
X138831239Y-89779174D01*
X138764540Y-89799982D01*
X138762456Y-89800000D01*
X137499999Y-89800000D01*
X137000000Y-90299999D01*
X137000000Y-91456503D01*
X136980315Y-91523542D01*
X136972828Y-91533965D01*
X136637230Y-91953462D01*
X136579979Y-91993514D01*
X136540402Y-92000000D01*
X135276636Y-92000000D01*
X135261588Y-91995581D01*
X135245916Y-91996134D01*
X135228751Y-91985939D01*
X135209597Y-91980315D01*
X135198532Y-91967991D01*
X135185843Y-91960455D01*
X135165727Y-91931454D01*
X135113091Y-91826182D01*
X135100000Y-91770728D01*
X135100000Y-89999999D01*
X134800000Y-89800000D01*
X132337544Y-89800000D01*
X132270505Y-89780315D01*
X132268761Y-89779174D01*
X132055217Y-89636812D01*
X132010356Y-89583247D01*
X132000000Y-89533638D01*
X132000000Y-88087566D01*
X132005310Y-88069482D01*
X132005627Y-88050636D01*
X132019191Y-88022207D01*
X132019685Y-88020527D01*
X132020788Y-88018839D01*
X132063204Y-87955215D01*
X132116770Y-87910356D01*
X132166378Y-87900000D01*
X138948638Y-87900000D01*
X139015677Y-87919685D01*
G37*
%TD.AperFunction*%
%TD*%
%TA.AperFunction,Conductor*%
%TO.N,DVDD_3V3*%
G36*
X92327301Y-92719685D02*
G01*
X92332336Y-92723097D01*
X92948074Y-93162910D01*
X92991184Y-93217894D01*
X93000000Y-93263813D01*
X93000000Y-95570728D01*
X92986909Y-95626182D01*
X92834273Y-95931454D01*
X92786686Y-95982613D01*
X92723364Y-96000000D01*
X90343497Y-96000000D01*
X90276458Y-95980315D01*
X90266035Y-95972828D01*
X90214318Y-95931454D01*
X89800000Y-95600000D01*
X87851362Y-95600000D01*
X87821921Y-95591355D01*
X87791935Y-95584832D01*
X87786919Y-95581077D01*
X87784323Y-95580315D01*
X87763681Y-95563681D01*
X87636319Y-95436319D01*
X87602834Y-95374996D01*
X87600000Y-95348638D01*
X87600000Y-93141333D01*
X87619685Y-93074294D01*
X87624800Y-93066933D01*
X87862800Y-92749600D01*
X87918771Y-92707779D01*
X87962000Y-92700000D01*
X92260262Y-92700000D01*
X92327301Y-92719685D01*
G37*
%TD.AperFunction*%
%TD*%
%TA.AperFunction,Conductor*%
%TO.N,VCC_3V3*%
G36*
X104554284Y-70807107D02*
G01*
X104623525Y-70862326D01*
X104661952Y-70942118D01*
X104666939Y-70987057D01*
X104658102Y-73660554D01*
X105955833Y-73613128D01*
X106042837Y-73629668D01*
X106114049Y-73682321D01*
X106155364Y-73760657D01*
X106162100Y-73811995D01*
X106162100Y-74958400D01*
X106157111Y-74980258D01*
X106157111Y-75002682D01*
X106147382Y-75022883D01*
X106142393Y-75044743D01*
X106128411Y-75062274D01*
X106118684Y-75082474D01*
X106101153Y-75096453D01*
X106087174Y-75113984D01*
X106066974Y-75123711D01*
X106049443Y-75137693D01*
X106027583Y-75142682D01*
X106007382Y-75152411D01*
X105963100Y-75157400D01*
X105898170Y-75157400D01*
X105829231Y-75145077D01*
X104928387Y-74812400D01*
X104928386Y-74812400D01*
X103906852Y-74812400D01*
X103820509Y-74792693D01*
X103751268Y-74737474D01*
X103712841Y-74657682D01*
X103707853Y-74612893D01*
X103710025Y-73760657D01*
X103717094Y-70985891D01*
X103737021Y-70899601D01*
X103792415Y-70830500D01*
X103872306Y-70792277D01*
X103916093Y-70787400D01*
X104467941Y-70787400D01*
X104554284Y-70807107D01*
G37*
%TD.AperFunction*%
%TD*%
%TA.AperFunction,Conductor*%
%TO.N,GND*%
G36*
X138725706Y-99519685D02*
G01*
X138733062Y-99524796D01*
X139100000Y-99800000D01*
X140948638Y-99800000D01*
X141015677Y-99819685D01*
X141036319Y-99836319D01*
X141463681Y-100263681D01*
X141497166Y-100325004D01*
X141500000Y-100351362D01*
X141500000Y-100900000D01*
X141499999Y-100900000D01*
X141700000Y-101050000D01*
X141900000Y-101200000D01*
X149865655Y-101200000D01*
X149929452Y-101217671D01*
X150339797Y-101463878D01*
X150387156Y-101515249D01*
X150400000Y-101570207D01*
X150400000Y-103148638D01*
X150380315Y-103215677D01*
X150363681Y-103236319D01*
X150036319Y-103563681D01*
X149974996Y-103597166D01*
X149948638Y-103600000D01*
X134651362Y-103600000D01*
X134584323Y-103580315D01*
X134563681Y-103563681D01*
X134036319Y-103036319D01*
X134002834Y-102974996D01*
X134000000Y-102948638D01*
X134000000Y-100162000D01*
X134019685Y-100094961D01*
X134049600Y-100062800D01*
X134766933Y-99524800D01*
X134832375Y-99500324D01*
X134841333Y-99500000D01*
X138658667Y-99500000D01*
X138725706Y-99519685D01*
G37*
%TD.AperFunction*%
%TD*%
%TA.AperFunction,Conductor*%
%TO.N,/Vin*%
G36*
X153829104Y-93517120D02*
G01*
X155096707Y-94262769D01*
X155438870Y-94464041D01*
X155486674Y-94514998D01*
X155500000Y-94570921D01*
X155500000Y-99267070D01*
X155483662Y-99328591D01*
X155131545Y-99944795D01*
X155081193Y-99993236D01*
X155036761Y-100006603D01*
X154104000Y-100103999D01*
X154103999Y-100104000D01*
X154125281Y-103792549D01*
X154105983Y-103859701D01*
X154053444Y-103905759D01*
X154001546Y-103917264D01*
X150950882Y-103923739D01*
X150883801Y-103904196D01*
X150837934Y-103851490D01*
X150826627Y-103801127D01*
X150791000Y-100611000D01*
X150200000Y-100600000D01*
X150199974Y-100600000D01*
X144151362Y-100600000D01*
X144084323Y-100580315D01*
X144063681Y-100563681D01*
X143836319Y-100336319D01*
X143802834Y-100274996D01*
X143800000Y-100248638D01*
X143800000Y-96658078D01*
X143819685Y-96591039D01*
X143844617Y-96562819D01*
X144400000Y-96100000D01*
X144400000Y-94359597D01*
X144419685Y-94292558D01*
X144446536Y-94262771D01*
X145366035Y-93527172D01*
X145430681Y-93500664D01*
X145443497Y-93500000D01*
X153766234Y-93500000D01*
X153829104Y-93517120D01*
G37*
%TD.AperFunction*%
%TD*%
%TA.AperFunction,Conductor*%
%TO.N,ESP_VDD_HP*%
G36*
X137229495Y-40819685D02*
G01*
X137231239Y-40820826D01*
X137744784Y-41163189D01*
X137789644Y-41216753D01*
X137800000Y-41266362D01*
X137800000Y-45665950D01*
X137780315Y-45732989D01*
X137738002Y-45773336D01*
X137692689Y-45799498D01*
X137692683Y-45799502D01*
X137599502Y-45892683D01*
X137599500Y-45892686D01*
X137575523Y-45934214D01*
X137536920Y-45975385D01*
X137200000Y-46199999D01*
X137200000Y-47148638D01*
X137180315Y-47215677D01*
X137163681Y-47236319D01*
X136936319Y-47463681D01*
X136874996Y-47497166D01*
X136848638Y-47500000D01*
X134000000Y-47500000D01*
X133700000Y-47900000D01*
X133700000Y-49540402D01*
X133680315Y-49607441D01*
X133653462Y-49637230D01*
X133233965Y-49972828D01*
X133169319Y-49999336D01*
X133156503Y-50000000D01*
X131766363Y-50000000D01*
X131699324Y-49980315D01*
X131663189Y-49944783D01*
X131520826Y-49731239D01*
X131500018Y-49664540D01*
X131500000Y-49662456D01*
X131500000Y-47799999D01*
X131303934Y-47040244D01*
X131300000Y-47009259D01*
X131300000Y-41271959D01*
X131319685Y-41204920D01*
X131362477Y-41164298D01*
X131971408Y-40816337D01*
X132032929Y-40800000D01*
X137162456Y-40800000D01*
X137229495Y-40819685D01*
G37*
%TD.AperFunction*%
%TD*%
%TA.AperFunction,Conductor*%
%TO.N,GND*%
G36*
X96115677Y-97519685D02*
G01*
X96136319Y-97536319D01*
X96263681Y-97663681D01*
X96297166Y-97725004D01*
X96300000Y-97751362D01*
X96300000Y-101000000D01*
X96600000Y-101300000D01*
X96825986Y-101300000D01*
X96893025Y-101319685D01*
X96894873Y-101320895D01*
X96921769Y-101338867D01*
X96921772Y-101338867D01*
X96921773Y-101338868D01*
X96980247Y-101350499D01*
X96980250Y-101350500D01*
X96980252Y-101350500D01*
X98469750Y-101350500D01*
X98469751Y-101350499D01*
X98528231Y-101338867D01*
X98555123Y-101320897D01*
X98621801Y-101300020D01*
X98624014Y-101300000D01*
X99099998Y-101300000D01*
X99100000Y-101300000D01*
X99762767Y-100447871D01*
X99819464Y-100407039D01*
X99860647Y-100400000D01*
X104848638Y-100400000D01*
X104915677Y-100419685D01*
X104936319Y-100436319D01*
X105263681Y-100763681D01*
X105297166Y-100825004D01*
X105300000Y-100851362D01*
X105300000Y-102348638D01*
X105280315Y-102415677D01*
X105263681Y-102436319D01*
X104936319Y-102763681D01*
X104874996Y-102797166D01*
X104848638Y-102800000D01*
X84470207Y-102800000D01*
X84403168Y-102780315D01*
X84363878Y-102739797D01*
X84117671Y-102329451D01*
X84100000Y-102265654D01*
X84100000Y-101076636D01*
X84119685Y-101009597D01*
X84168546Y-100965727D01*
X84873818Y-100613091D01*
X84929272Y-100600000D01*
X90670728Y-100600000D01*
X90726181Y-100613090D01*
X90900000Y-100700000D01*
X91119084Y-100700000D01*
X91129262Y-100700500D01*
X91130252Y-100700500D01*
X92620738Y-100700500D01*
X92630916Y-100700000D01*
X93200000Y-100700000D01*
X93300000Y-100600000D01*
X93300000Y-97837544D01*
X93319685Y-97770505D01*
X93320826Y-97768761D01*
X93463189Y-97555217D01*
X93516754Y-97510356D01*
X93566363Y-97500000D01*
X96048638Y-97500000D01*
X96115677Y-97519685D01*
G37*
%TD.AperFunction*%
%TD*%
%TA.AperFunction,Conductor*%
%TO.N,6V*%
G36*
X131015677Y-87819685D02*
G01*
X131036319Y-87836319D01*
X131263681Y-88063681D01*
X131297166Y-88125004D01*
X131300000Y-88151362D01*
X131300000Y-90333637D01*
X131280315Y-90400676D01*
X131244783Y-90436811D01*
X131031239Y-90579174D01*
X130964540Y-90599982D01*
X130962456Y-90600000D01*
X126200000Y-90600000D01*
X125919999Y-90926667D01*
X125599998Y-91300001D01*
X125599993Y-91300007D01*
X124037140Y-93448933D01*
X123981790Y-93491573D01*
X123936857Y-93500000D01*
X114700000Y-93500000D01*
X110476365Y-98366362D01*
X110137079Y-98757279D01*
X110078270Y-98795005D01*
X110043432Y-98800000D01*
X99299999Y-98800000D01*
X99000000Y-99099999D01*
X99000000Y-99548638D01*
X98991355Y-99578078D01*
X98984832Y-99608065D01*
X98981077Y-99613080D01*
X98980315Y-99615677D01*
X98963681Y-99636319D01*
X98836319Y-99763681D01*
X98774996Y-99797166D01*
X98748638Y-99800000D01*
X97176636Y-99800000D01*
X97109597Y-99780315D01*
X97065727Y-99731454D01*
X97018160Y-99636319D01*
X97013091Y-99626182D01*
X97000000Y-99570728D01*
X97000000Y-98366362D01*
X97019685Y-98299323D01*
X97055215Y-98263189D01*
X97268011Y-98121326D01*
X97334711Y-98100518D01*
X97336794Y-98100500D01*
X98470738Y-98100500D01*
X98480916Y-98100000D01*
X99000001Y-98100000D01*
X99399998Y-97900001D01*
X99400000Y-97900000D01*
X99400000Y-97067758D01*
X99400500Y-97065892D01*
X99400500Y-96934108D01*
X99400000Y-96932241D01*
X99400000Y-94851362D01*
X99419685Y-94784323D01*
X99436319Y-94763681D01*
X100163681Y-94036319D01*
X100225004Y-94002834D01*
X100251362Y-94000000D01*
X110300000Y-94000000D01*
X112482527Y-91123031D01*
X112492230Y-91114979D01*
X112496860Y-91107185D01*
X112525858Y-91087070D01*
X112673818Y-91013091D01*
X112729272Y-91000000D01*
X123099999Y-91000000D01*
X123100000Y-91000000D01*
X126163458Y-87837721D01*
X126224242Y-87803267D01*
X126252520Y-87800000D01*
X130948638Y-87800000D01*
X131015677Y-87819685D01*
G37*
%TD.AperFunction*%
%TD*%
%TA.AperFunction,Conductor*%
%TO.N,Net-(IC5-OUT_1)*%
G36*
X89100676Y-96319685D02*
G01*
X89136811Y-96355217D01*
X89279174Y-96568761D01*
X89299982Y-96635460D01*
X89300000Y-96637544D01*
X89300000Y-97700000D01*
X89600000Y-98000000D01*
X90909533Y-98000000D01*
X90976572Y-98019685D01*
X90997214Y-98036319D01*
X91005446Y-98044551D01*
X91071769Y-98088867D01*
X91071770Y-98088868D01*
X91130247Y-98100499D01*
X91130250Y-98100500D01*
X92549138Y-98100500D01*
X92578578Y-98109144D01*
X92608565Y-98115668D01*
X92613580Y-98119422D01*
X92616177Y-98120185D01*
X92636819Y-98136819D01*
X92663681Y-98163681D01*
X92697166Y-98225004D01*
X92700000Y-98251362D01*
X92700000Y-100248638D01*
X92680315Y-100315677D01*
X92663681Y-100336319D01*
X92636319Y-100363681D01*
X92574996Y-100397166D01*
X92548638Y-100400000D01*
X90720123Y-100400000D01*
X90717190Y-100399524D01*
X90715641Y-100399919D01*
X90680912Y-100393637D01*
X90582848Y-100360949D01*
X90484787Y-100328262D01*
X90427413Y-100288387D01*
X90400704Y-100223824D01*
X90400000Y-100210625D01*
X90400000Y-99600000D01*
X90100000Y-99200000D01*
X84766363Y-99200000D01*
X84699324Y-99180315D01*
X84663189Y-99144783D01*
X84520826Y-98931239D01*
X84500018Y-98864540D01*
X84500000Y-98862456D01*
X84500000Y-96741333D01*
X84519685Y-96674294D01*
X84524800Y-96666933D01*
X84762800Y-96349600D01*
X84818771Y-96307779D01*
X84862000Y-96300000D01*
X89033637Y-96300000D01*
X89100676Y-96319685D01*
G37*
%TD.AperFunction*%
%TD*%
%TA.AperFunction,Conductor*%
%TO.N,Net-(IC7-VIN_1)*%
G36*
X134678978Y-94300874D02*
G01*
X134681996Y-94300145D01*
X134712289Y-94310655D01*
X134743039Y-94319685D01*
X134745070Y-94322029D01*
X134748005Y-94323048D01*
X134773530Y-94347423D01*
X134800000Y-94381135D01*
X134800000Y-94400000D01*
X134868943Y-94468943D01*
X134873530Y-94474785D01*
X134883845Y-94500608D01*
X134897166Y-94525004D01*
X134896622Y-94532597D01*
X134899448Y-94539670D01*
X134900000Y-94551362D01*
X134900000Y-96300000D01*
X134899999Y-96300000D01*
X135100000Y-96450000D01*
X135300000Y-96600000D01*
X140800000Y-96600000D01*
X141200000Y-96100000D01*
X141200000Y-95329272D01*
X141213091Y-95273818D01*
X141365727Y-94968546D01*
X141413314Y-94917387D01*
X141476636Y-94900000D01*
X143823364Y-94900000D01*
X143838411Y-94904418D01*
X143854084Y-94903866D01*
X143871248Y-94914060D01*
X143890403Y-94919685D01*
X143901467Y-94932008D01*
X143914157Y-94939545D01*
X143934273Y-94968546D01*
X143986909Y-95073818D01*
X144000000Y-95129272D01*
X144000000Y-95840402D01*
X143980315Y-95907441D01*
X143953462Y-95937230D01*
X143533965Y-96272828D01*
X143469319Y-96299336D01*
X143456503Y-96300000D01*
X142799999Y-96300000D01*
X142600000Y-96499999D01*
X142600000Y-98923364D01*
X142580315Y-98990403D01*
X142531454Y-99034273D01*
X142226182Y-99186909D01*
X142170728Y-99200000D01*
X134051362Y-99200000D01*
X134021921Y-99191355D01*
X133991935Y-99184832D01*
X133986919Y-99181077D01*
X133984323Y-99180315D01*
X133963681Y-99163681D01*
X133836319Y-99036319D01*
X133802834Y-98974996D01*
X133800000Y-98948638D01*
X133800000Y-94529272D01*
X133813091Y-94473818D01*
X133865727Y-94368546D01*
X133913314Y-94317387D01*
X133976636Y-94300000D01*
X134676000Y-94300000D01*
X134678978Y-94300874D01*
G37*
%TD.AperFunction*%
%TD*%
%TA.AperFunction,Conductor*%
%TO.N,VCC_3V3*%
G36*
X86725706Y-92719685D02*
G01*
X86733067Y-92724800D01*
X87050400Y-92962800D01*
X87092221Y-93018771D01*
X87100000Y-93062000D01*
X87100000Y-95233637D01*
X87080315Y-95300676D01*
X87044783Y-95336811D01*
X86831239Y-95479174D01*
X86764540Y-95499982D01*
X86762456Y-95500000D01*
X84651362Y-95500000D01*
X84584323Y-95480315D01*
X84563681Y-95463681D01*
X84336319Y-95236319D01*
X84302834Y-95174996D01*
X84300000Y-95148638D01*
X84300000Y-93171959D01*
X84319685Y-93104920D01*
X84362477Y-93064298D01*
X84971408Y-92716337D01*
X85032929Y-92700000D01*
X86658667Y-92700000D01*
X86725706Y-92719685D01*
G37*
%TD.AperFunction*%
%TD*%
%TA.AperFunction,Conductor*%
%TO.N,AGND*%
G36*
X71915677Y-68719685D02*
G01*
X71936319Y-68736319D01*
X72063681Y-68863681D01*
X72097166Y-68925004D01*
X72100000Y-68951362D01*
X72100000Y-72400000D01*
X72200000Y-72500000D01*
X72663434Y-72500000D01*
X72730473Y-72519685D01*
X72732324Y-72520898D01*
X72736766Y-72523866D01*
X72736770Y-72523868D01*
X72795247Y-72535499D01*
X72795250Y-72535500D01*
X72795252Y-72535500D01*
X73371064Y-72535500D01*
X73403157Y-72539725D01*
X73417800Y-72543648D01*
X73480691Y-72560500D01*
X73480693Y-72560500D01*
X74849307Y-72560500D01*
X74849309Y-72560500D01*
X74942610Y-72535500D01*
X74963887Y-72529799D01*
X74993386Y-72512767D01*
X75000467Y-72509776D01*
X75021049Y-72507416D01*
X75048726Y-72500000D01*
X78170728Y-72500000D01*
X78226182Y-72513091D01*
X78731454Y-72765727D01*
X78782613Y-72813314D01*
X78800000Y-72876636D01*
X78800000Y-75729792D01*
X78780315Y-75796831D01*
X78739797Y-75836121D01*
X78329450Y-76082329D01*
X78265655Y-76100000D01*
X60041333Y-76100000D01*
X59974294Y-76080315D01*
X59966933Y-76075200D01*
X59649600Y-75837200D01*
X59607779Y-75781229D01*
X59600000Y-75738000D01*
X59600000Y-72941333D01*
X59619685Y-72874294D01*
X59624800Y-72866933D01*
X59862800Y-72549600D01*
X59918771Y-72507779D01*
X59962000Y-72500000D01*
X63833637Y-72500000D01*
X63900676Y-72519685D01*
X63936811Y-72555217D01*
X64079174Y-72768761D01*
X64099982Y-72835460D01*
X64100000Y-72837544D01*
X64100000Y-73900000D01*
X64400000Y-74100000D01*
X66400000Y-74100000D01*
X66600000Y-73900000D01*
X66600000Y-73041333D01*
X66619685Y-72974294D01*
X66624800Y-72966933D01*
X66692523Y-72876636D01*
X66900000Y-72600000D01*
X66900000Y-72076636D01*
X66904418Y-72061588D01*
X66903866Y-72045916D01*
X66914060Y-72028751D01*
X66919685Y-72009597D01*
X66932008Y-71998532D01*
X66939545Y-71985843D01*
X66968546Y-71965727D01*
X67073818Y-71913091D01*
X67129272Y-71900000D01*
X69000000Y-71900000D01*
X69100000Y-71800000D01*
X69100000Y-68929272D01*
X69102971Y-68916682D01*
X69101960Y-68907310D01*
X69113091Y-68873818D01*
X69118160Y-68863681D01*
X69165727Y-68768546D01*
X69213314Y-68717387D01*
X69276636Y-68700000D01*
X71848638Y-68700000D01*
X71915677Y-68719685D01*
G37*
%TD.AperFunction*%
%TD*%
%TA.AperFunction,Conductor*%
%TO.N,Net-(IC4-OUT_1)*%
G36*
X64015677Y-67419685D02*
G01*
X64036319Y-67436319D01*
X64263681Y-67663681D01*
X64297166Y-67725004D01*
X64300000Y-67751362D01*
X64300000Y-68800000D01*
X64500000Y-69000000D01*
X66058667Y-69000000D01*
X66125706Y-69019685D01*
X66133062Y-69024796D01*
X66500000Y-69300000D01*
X68270728Y-69300000D01*
X68283317Y-69302971D01*
X68292690Y-69301960D01*
X68326182Y-69313091D01*
X68431454Y-69365727D01*
X68482613Y-69413314D01*
X68500000Y-69476636D01*
X68500000Y-70910500D01*
X68480315Y-70977539D01*
X68427511Y-71023294D01*
X68376000Y-71034500D01*
X66945247Y-71034500D01*
X66886771Y-71046131D01*
X66877291Y-71050059D01*
X66829834Y-71059500D01*
X66576794Y-71059500D01*
X66558709Y-71054189D01*
X66539865Y-71053873D01*
X66511438Y-71040309D01*
X66509755Y-71039815D01*
X66508011Y-71038674D01*
X66355217Y-70936811D01*
X66310356Y-70883246D01*
X66300000Y-70833637D01*
X66300000Y-70499999D01*
X66200001Y-70300001D01*
X66200000Y-70300000D01*
X66199999Y-70300000D01*
X64400000Y-70300000D01*
X64137200Y-70650400D01*
X64081229Y-70692221D01*
X64038000Y-70700000D01*
X59866363Y-70700000D01*
X59799324Y-70680315D01*
X59763189Y-70644783D01*
X59620826Y-70431239D01*
X59600018Y-70364540D01*
X59600000Y-70362456D01*
X59600000Y-67851362D01*
X59619685Y-67784323D01*
X59636319Y-67763681D01*
X59963681Y-67436319D01*
X60025004Y-67402834D01*
X60051362Y-67400000D01*
X63948638Y-67400000D01*
X64015677Y-67419685D01*
G37*
%TD.AperFunction*%
%TD*%
%TA.AperFunction,Conductor*%
%TO.N,GND*%
G36*
X134526182Y-90913091D02*
G01*
X134831454Y-91065727D01*
X134882613Y-91113314D01*
X134900000Y-91176636D01*
X134900000Y-92300000D01*
X135348638Y-92300000D01*
X135378078Y-92308644D01*
X135408065Y-92315168D01*
X135413080Y-92318922D01*
X135415677Y-92319685D01*
X135436319Y-92336319D01*
X135463681Y-92363681D01*
X135497166Y-92425004D01*
X135500000Y-92451362D01*
X135500000Y-93776000D01*
X135480315Y-93843039D01*
X135427511Y-93888794D01*
X135376000Y-93900000D01*
X134024000Y-93900000D01*
X133956961Y-93880315D01*
X133911206Y-93827511D01*
X133900000Y-93776000D01*
X133900000Y-93400000D01*
X133899998Y-93399998D01*
X133700001Y-93300000D01*
X133700000Y-93300000D01*
X127266363Y-93300000D01*
X127199324Y-93280315D01*
X127163189Y-93244783D01*
X127020826Y-93031239D01*
X127000018Y-92964540D01*
X127000000Y-92962456D01*
X127000000Y-91451362D01*
X127008644Y-91421921D01*
X127015168Y-91391935D01*
X127018922Y-91386919D01*
X127019685Y-91384323D01*
X127036319Y-91363681D01*
X127163681Y-91236319D01*
X127225004Y-91202834D01*
X127251362Y-91200000D01*
X132000000Y-91200000D01*
X132263681Y-90936319D01*
X132325004Y-90902834D01*
X132351362Y-90900000D01*
X134470728Y-90900000D01*
X134526182Y-90913091D01*
G37*
%TD.AperFunction*%
%TD*%
M02*
