%TF.GenerationSoftware,KiCad,Pcbnew,9.0.3*%
%TF.CreationDate,2025-10-27T19:17:52+08:00*%
%TF.ProjectId,Acelerografo,4163656c-6572-46f6-9772-61666f2e6b69,rev?*%
%TF.SameCoordinates,Original*%
%TF.FileFunction,Legend,Top*%
%TF.FilePolarity,Positive*%
%FSLAX46Y46*%
G04 Gerber Fmt 4.6, Leading zero omitted, Abs format (unit mm)*
G04 Created by KiCad (PCBNEW 9.0.3) date 2025-10-27 19:17:52*
%MOMM*%
%LPD*%
G01*
G04 APERTURE LIST*
%ADD10C,0.150000*%
%ADD11C,0.300000*%
%ADD12C,0.160000*%
%ADD13C,0.120000*%
%ADD14C,0.000000*%
%ADD15C,2.000000*%
G04 APERTURE END LIST*
D10*
X168695238Y-95869104D02*
X169171428Y-95869104D01*
X168600000Y-96154819D02*
X168933333Y-95154819D01*
X168933333Y-95154819D02*
X169266666Y-96154819D01*
X169600000Y-96154819D02*
X169600000Y-95154819D01*
X169600000Y-95154819D02*
X169838095Y-95154819D01*
X169838095Y-95154819D02*
X169980952Y-95202438D01*
X169980952Y-95202438D02*
X170076190Y-95297676D01*
X170076190Y-95297676D02*
X170123809Y-95392914D01*
X170123809Y-95392914D02*
X170171428Y-95583390D01*
X170171428Y-95583390D02*
X170171428Y-95726247D01*
X170171428Y-95726247D02*
X170123809Y-95916723D01*
X170123809Y-95916723D02*
X170076190Y-96011961D01*
X170076190Y-96011961D02*
X169980952Y-96107200D01*
X169980952Y-96107200D02*
X169838095Y-96154819D01*
X169838095Y-96154819D02*
X169600000Y-96154819D01*
X170504762Y-95154819D02*
X171171428Y-96154819D01*
X171171428Y-95154819D02*
X170504762Y-96154819D01*
X172028571Y-96154819D02*
X171552381Y-96154819D01*
X171552381Y-96154819D02*
X171552381Y-95154819D01*
X173028572Y-95154819D02*
X173647619Y-95154819D01*
X173647619Y-95154819D02*
X173314286Y-95535771D01*
X173314286Y-95535771D02*
X173457143Y-95535771D01*
X173457143Y-95535771D02*
X173552381Y-95583390D01*
X173552381Y-95583390D02*
X173600000Y-95631009D01*
X173600000Y-95631009D02*
X173647619Y-95726247D01*
X173647619Y-95726247D02*
X173647619Y-95964342D01*
X173647619Y-95964342D02*
X173600000Y-96059580D01*
X173600000Y-96059580D02*
X173552381Y-96107200D01*
X173552381Y-96107200D02*
X173457143Y-96154819D01*
X173457143Y-96154819D02*
X173171429Y-96154819D01*
X173171429Y-96154819D02*
X173076191Y-96107200D01*
X173076191Y-96107200D02*
X173028572Y-96059580D01*
X174552381Y-95154819D02*
X174076191Y-95154819D01*
X174076191Y-95154819D02*
X174028572Y-95631009D01*
X174028572Y-95631009D02*
X174076191Y-95583390D01*
X174076191Y-95583390D02*
X174171429Y-95535771D01*
X174171429Y-95535771D02*
X174409524Y-95535771D01*
X174409524Y-95535771D02*
X174504762Y-95583390D01*
X174504762Y-95583390D02*
X174552381Y-95631009D01*
X174552381Y-95631009D02*
X174600000Y-95726247D01*
X174600000Y-95726247D02*
X174600000Y-95964342D01*
X174600000Y-95964342D02*
X174552381Y-96059580D01*
X174552381Y-96059580D02*
X174504762Y-96107200D01*
X174504762Y-96107200D02*
X174409524Y-96154819D01*
X174409524Y-96154819D02*
X174171429Y-96154819D01*
X174171429Y-96154819D02*
X174076191Y-96107200D01*
X174076191Y-96107200D02*
X174028572Y-96059580D01*
X175504762Y-95154819D02*
X175028572Y-95154819D01*
X175028572Y-95154819D02*
X174980953Y-95631009D01*
X174980953Y-95631009D02*
X175028572Y-95583390D01*
X175028572Y-95583390D02*
X175123810Y-95535771D01*
X175123810Y-95535771D02*
X175361905Y-95535771D01*
X175361905Y-95535771D02*
X175457143Y-95583390D01*
X175457143Y-95583390D02*
X175504762Y-95631009D01*
X175504762Y-95631009D02*
X175552381Y-95726247D01*
X175552381Y-95726247D02*
X175552381Y-95964342D01*
X175552381Y-95964342D02*
X175504762Y-96059580D01*
X175504762Y-96059580D02*
X175457143Y-96107200D01*
X175457143Y-96107200D02*
X175361905Y-96154819D01*
X175361905Y-96154819D02*
X175123810Y-96154819D01*
X175123810Y-96154819D02*
X175028572Y-96107200D01*
X175028572Y-96107200D02*
X174980953Y-96059580D01*
X175885715Y-95154819D02*
X176552381Y-95154819D01*
X176552381Y-95154819D02*
X175885715Y-96154819D01*
X175885715Y-96154819D02*
X176552381Y-96154819D01*
X180773866Y-68809523D02*
X180773866Y-68047619D01*
X181154819Y-68428571D02*
X180392914Y-68428571D01*
X180631009Y-67238095D02*
X180678628Y-67095238D01*
X180678628Y-67095238D02*
X180726247Y-67047619D01*
X180726247Y-67047619D02*
X180821485Y-67000000D01*
X180821485Y-67000000D02*
X180964342Y-67000000D01*
X180964342Y-67000000D02*
X181059580Y-67047619D01*
X181059580Y-67047619D02*
X181107200Y-67095238D01*
X181107200Y-67095238D02*
X181154819Y-67190476D01*
X181154819Y-67190476D02*
X181154819Y-67571428D01*
X181154819Y-67571428D02*
X180154819Y-67571428D01*
X180154819Y-67571428D02*
X180154819Y-67238095D01*
X180154819Y-67238095D02*
X180202438Y-67142857D01*
X180202438Y-67142857D02*
X180250057Y-67095238D01*
X180250057Y-67095238D02*
X180345295Y-67047619D01*
X180345295Y-67047619D02*
X180440533Y-67047619D01*
X180440533Y-67047619D02*
X180535771Y-67095238D01*
X180535771Y-67095238D02*
X180583390Y-67142857D01*
X180583390Y-67142857D02*
X180631009Y-67238095D01*
X180631009Y-67238095D02*
X180631009Y-67571428D01*
X180869104Y-66619047D02*
X180869104Y-66142857D01*
X181154819Y-66714285D02*
X180154819Y-66380952D01*
X180154819Y-66380952D02*
X181154819Y-66047619D01*
X180154819Y-65857142D02*
X180154819Y-65285714D01*
X181154819Y-65571428D02*
X180154819Y-65571428D01*
X180773866Y-64952380D02*
X180773866Y-64190476D01*
D11*
X105214285Y-145739542D02*
X104814285Y-145168114D01*
X104528571Y-145739542D02*
X104528571Y-144539542D01*
X104528571Y-144539542D02*
X104985714Y-144539542D01*
X104985714Y-144539542D02*
X105099999Y-144596685D01*
X105099999Y-144596685D02*
X105157142Y-144653828D01*
X105157142Y-144653828D02*
X105214285Y-144768114D01*
X105214285Y-144768114D02*
X105214285Y-144939542D01*
X105214285Y-144939542D02*
X105157142Y-145053828D01*
X105157142Y-145053828D02*
X105099999Y-145110971D01*
X105099999Y-145110971D02*
X104985714Y-145168114D01*
X104985714Y-145168114D02*
X104528571Y-145168114D01*
X106185714Y-145682400D02*
X106071428Y-145739542D01*
X106071428Y-145739542D02*
X105842857Y-145739542D01*
X105842857Y-145739542D02*
X105728571Y-145682400D01*
X105728571Y-145682400D02*
X105671428Y-145568114D01*
X105671428Y-145568114D02*
X105671428Y-145110971D01*
X105671428Y-145110971D02*
X105728571Y-144996685D01*
X105728571Y-144996685D02*
X105842857Y-144939542D01*
X105842857Y-144939542D02*
X106071428Y-144939542D01*
X106071428Y-144939542D02*
X106185714Y-144996685D01*
X106185714Y-144996685D02*
X106242857Y-145110971D01*
X106242857Y-145110971D02*
X106242857Y-145225257D01*
X106242857Y-145225257D02*
X105671428Y-145339542D01*
X106642856Y-144939542D02*
X106928570Y-145739542D01*
X106928570Y-145739542D02*
X107214285Y-144939542D01*
X109214285Y-145739542D02*
X108528571Y-145739542D01*
X108871428Y-145739542D02*
X108871428Y-144539542D01*
X108871428Y-144539542D02*
X108757142Y-144710971D01*
X108757142Y-144710971D02*
X108642857Y-144825257D01*
X108642857Y-144825257D02*
X108528571Y-144882400D01*
X109728571Y-145625257D02*
X109785714Y-145682400D01*
X109785714Y-145682400D02*
X109728571Y-145739542D01*
X109728571Y-145739542D02*
X109671428Y-145682400D01*
X109671428Y-145682400D02*
X109728571Y-145625257D01*
X109728571Y-145625257D02*
X109728571Y-145739542D01*
X110528571Y-144539542D02*
X110642857Y-144539542D01*
X110642857Y-144539542D02*
X110757143Y-144596685D01*
X110757143Y-144596685D02*
X110814286Y-144653828D01*
X110814286Y-144653828D02*
X110871428Y-144768114D01*
X110871428Y-144768114D02*
X110928571Y-144996685D01*
X110928571Y-144996685D02*
X110928571Y-145282400D01*
X110928571Y-145282400D02*
X110871428Y-145510971D01*
X110871428Y-145510971D02*
X110814286Y-145625257D01*
X110814286Y-145625257D02*
X110757143Y-145682400D01*
X110757143Y-145682400D02*
X110642857Y-145739542D01*
X110642857Y-145739542D02*
X110528571Y-145739542D01*
X110528571Y-145739542D02*
X110414286Y-145682400D01*
X110414286Y-145682400D02*
X110357143Y-145625257D01*
X110357143Y-145625257D02*
X110300000Y-145510971D01*
X110300000Y-145510971D02*
X110242857Y-145282400D01*
X110242857Y-145282400D02*
X110242857Y-144996685D01*
X110242857Y-144996685D02*
X110300000Y-144768114D01*
X110300000Y-144768114D02*
X110357143Y-144653828D01*
X110357143Y-144653828D02*
X110414286Y-144596685D01*
X110414286Y-144596685D02*
X110528571Y-144539542D01*
D10*
X180873866Y-76604761D02*
X180873866Y-75842857D01*
X181254819Y-76223809D02*
X180492914Y-76223809D01*
X180731009Y-75033333D02*
X180731009Y-75366666D01*
X181254819Y-75366666D02*
X180254819Y-75366666D01*
X180254819Y-75366666D02*
X180254819Y-74890476D01*
X180254819Y-74509523D02*
X181064342Y-74509523D01*
X181064342Y-74509523D02*
X181159580Y-74461904D01*
X181159580Y-74461904D02*
X181207200Y-74414285D01*
X181207200Y-74414285D02*
X181254819Y-74319047D01*
X181254819Y-74319047D02*
X181254819Y-74128571D01*
X181254819Y-74128571D02*
X181207200Y-74033333D01*
X181207200Y-74033333D02*
X181159580Y-73985714D01*
X181159580Y-73985714D02*
X181064342Y-73938095D01*
X181064342Y-73938095D02*
X180254819Y-73938095D01*
X180731009Y-73461904D02*
X180731009Y-73128571D01*
X181254819Y-72985714D02*
X181254819Y-73461904D01*
X181254819Y-73461904D02*
X180254819Y-73461904D01*
X180254819Y-73461904D02*
X180254819Y-72985714D01*
X180873866Y-72557142D02*
X180873866Y-71795238D01*
D11*
X106942857Y-117696685D02*
X106828572Y-117639542D01*
X106828572Y-117639542D02*
X106657143Y-117639542D01*
X106657143Y-117639542D02*
X106485714Y-117696685D01*
X106485714Y-117696685D02*
X106371429Y-117810971D01*
X106371429Y-117810971D02*
X106314286Y-117925257D01*
X106314286Y-117925257D02*
X106257143Y-118153828D01*
X106257143Y-118153828D02*
X106257143Y-118325257D01*
X106257143Y-118325257D02*
X106314286Y-118553828D01*
X106314286Y-118553828D02*
X106371429Y-118668114D01*
X106371429Y-118668114D02*
X106485714Y-118782400D01*
X106485714Y-118782400D02*
X106657143Y-118839542D01*
X106657143Y-118839542D02*
X106771429Y-118839542D01*
X106771429Y-118839542D02*
X106942857Y-118782400D01*
X106942857Y-118782400D02*
X107000000Y-118725257D01*
X107000000Y-118725257D02*
X107000000Y-118325257D01*
X107000000Y-118325257D02*
X106771429Y-118325257D01*
X107514286Y-118839542D02*
X107514286Y-117639542D01*
X107514286Y-117639542D02*
X107971429Y-117639542D01*
X107971429Y-117639542D02*
X108085714Y-117696685D01*
X108085714Y-117696685D02*
X108142857Y-117753828D01*
X108142857Y-117753828D02*
X108200000Y-117868114D01*
X108200000Y-117868114D02*
X108200000Y-118039542D01*
X108200000Y-118039542D02*
X108142857Y-118153828D01*
X108142857Y-118153828D02*
X108085714Y-118210971D01*
X108085714Y-118210971D02*
X107971429Y-118268114D01*
X107971429Y-118268114D02*
X107514286Y-118268114D01*
X108657143Y-118782400D02*
X108828572Y-118839542D01*
X108828572Y-118839542D02*
X109114286Y-118839542D01*
X109114286Y-118839542D02*
X109228572Y-118782400D01*
X109228572Y-118782400D02*
X109285714Y-118725257D01*
X109285714Y-118725257D02*
X109342857Y-118610971D01*
X109342857Y-118610971D02*
X109342857Y-118496685D01*
X109342857Y-118496685D02*
X109285714Y-118382400D01*
X109285714Y-118382400D02*
X109228572Y-118325257D01*
X109228572Y-118325257D02*
X109114286Y-118268114D01*
X109114286Y-118268114D02*
X108885714Y-118210971D01*
X108885714Y-118210971D02*
X108771429Y-118153828D01*
X108771429Y-118153828D02*
X108714286Y-118096685D01*
X108714286Y-118096685D02*
X108657143Y-117982400D01*
X108657143Y-117982400D02*
X108657143Y-117868114D01*
X108657143Y-117868114D02*
X108714286Y-117753828D01*
X108714286Y-117753828D02*
X108771429Y-117696685D01*
X108771429Y-117696685D02*
X108885714Y-117639542D01*
X108885714Y-117639542D02*
X109171429Y-117639542D01*
X109171429Y-117639542D02*
X109342857Y-117696685D01*
D12*
X117423809Y-133961775D02*
X117157142Y-133580822D01*
X116966666Y-133961775D02*
X116966666Y-133161775D01*
X116966666Y-133161775D02*
X117271428Y-133161775D01*
X117271428Y-133161775D02*
X117347618Y-133199870D01*
X117347618Y-133199870D02*
X117385713Y-133237965D01*
X117385713Y-133237965D02*
X117423809Y-133314156D01*
X117423809Y-133314156D02*
X117423809Y-133428441D01*
X117423809Y-133428441D02*
X117385713Y-133504632D01*
X117385713Y-133504632D02*
X117347618Y-133542727D01*
X117347618Y-133542727D02*
X117271428Y-133580822D01*
X117271428Y-133580822D02*
X116966666Y-133580822D01*
X118071428Y-133923680D02*
X117995237Y-133961775D01*
X117995237Y-133961775D02*
X117842856Y-133961775D01*
X117842856Y-133961775D02*
X117766666Y-133923680D01*
X117766666Y-133923680D02*
X117728570Y-133847489D01*
X117728570Y-133847489D02*
X117728570Y-133542727D01*
X117728570Y-133542727D02*
X117766666Y-133466537D01*
X117766666Y-133466537D02*
X117842856Y-133428441D01*
X117842856Y-133428441D02*
X117995237Y-133428441D01*
X117995237Y-133428441D02*
X118071428Y-133466537D01*
X118071428Y-133466537D02*
X118109523Y-133542727D01*
X118109523Y-133542727D02*
X118109523Y-133618918D01*
X118109523Y-133618918D02*
X117728570Y-133695108D01*
X118795237Y-133961775D02*
X118795237Y-133161775D01*
X118795237Y-133923680D02*
X118719046Y-133961775D01*
X118719046Y-133961775D02*
X118566665Y-133961775D01*
X118566665Y-133961775D02*
X118490475Y-133923680D01*
X118490475Y-133923680D02*
X118452380Y-133885584D01*
X118452380Y-133885584D02*
X118414284Y-133809394D01*
X118414284Y-133809394D02*
X118414284Y-133580822D01*
X118414284Y-133580822D02*
X118452380Y-133504632D01*
X118452380Y-133504632D02*
X118490475Y-133466537D01*
X118490475Y-133466537D02*
X118566665Y-133428441D01*
X118566665Y-133428441D02*
X118719046Y-133428441D01*
X118719046Y-133428441D02*
X118795237Y-133466537D01*
X119747618Y-133923680D02*
X119861904Y-133961775D01*
X119861904Y-133961775D02*
X120052380Y-133961775D01*
X120052380Y-133961775D02*
X120128571Y-133923680D01*
X120128571Y-133923680D02*
X120166666Y-133885584D01*
X120166666Y-133885584D02*
X120204761Y-133809394D01*
X120204761Y-133809394D02*
X120204761Y-133733203D01*
X120204761Y-133733203D02*
X120166666Y-133657013D01*
X120166666Y-133657013D02*
X120128571Y-133618918D01*
X120128571Y-133618918D02*
X120052380Y-133580822D01*
X120052380Y-133580822D02*
X119899999Y-133542727D01*
X119899999Y-133542727D02*
X119823809Y-133504632D01*
X119823809Y-133504632D02*
X119785714Y-133466537D01*
X119785714Y-133466537D02*
X119747618Y-133390346D01*
X119747618Y-133390346D02*
X119747618Y-133314156D01*
X119747618Y-133314156D02*
X119785714Y-133237965D01*
X119785714Y-133237965D02*
X119823809Y-133199870D01*
X119823809Y-133199870D02*
X119899999Y-133161775D01*
X119899999Y-133161775D02*
X120090476Y-133161775D01*
X120090476Y-133161775D02*
X120204761Y-133199870D01*
X120547619Y-133961775D02*
X120547619Y-133428441D01*
X120623809Y-133123680D02*
X120509523Y-133237965D01*
X120890475Y-133923680D02*
X120966666Y-133961775D01*
X120966666Y-133961775D02*
X121119047Y-133961775D01*
X121119047Y-133961775D02*
X121195237Y-133923680D01*
X121195237Y-133923680D02*
X121233333Y-133847489D01*
X121233333Y-133847489D02*
X121233333Y-133809394D01*
X121233333Y-133809394D02*
X121195237Y-133733203D01*
X121195237Y-133733203D02*
X121119047Y-133695108D01*
X121119047Y-133695108D02*
X121004761Y-133695108D01*
X121004761Y-133695108D02*
X120928571Y-133657013D01*
X120928571Y-133657013D02*
X120890475Y-133580822D01*
X120890475Y-133580822D02*
X120890475Y-133542727D01*
X120890475Y-133542727D02*
X120928571Y-133466537D01*
X120928571Y-133466537D02*
X121004761Y-133428441D01*
X121004761Y-133428441D02*
X121119047Y-133428441D01*
X121119047Y-133428441D02*
X121195237Y-133466537D01*
X121576190Y-133961775D02*
X121576190Y-133428441D01*
X121576190Y-133504632D02*
X121614285Y-133466537D01*
X121614285Y-133466537D02*
X121690475Y-133428441D01*
X121690475Y-133428441D02*
X121804761Y-133428441D01*
X121804761Y-133428441D02*
X121880952Y-133466537D01*
X121880952Y-133466537D02*
X121919047Y-133542727D01*
X121919047Y-133542727D02*
X121919047Y-133961775D01*
X121919047Y-133542727D02*
X121957142Y-133466537D01*
X121957142Y-133466537D02*
X122033333Y-133428441D01*
X122033333Y-133428441D02*
X122147618Y-133428441D01*
X122147618Y-133428441D02*
X122223809Y-133466537D01*
X122223809Y-133466537D02*
X122261904Y-133542727D01*
X122261904Y-133542727D02*
X122261904Y-133961775D01*
X122642857Y-133961775D02*
X122642857Y-133428441D01*
X122642857Y-133161775D02*
X122604761Y-133199870D01*
X122604761Y-133199870D02*
X122642857Y-133237965D01*
X122642857Y-133237965D02*
X122680952Y-133199870D01*
X122680952Y-133199870D02*
X122642857Y-133161775D01*
X122642857Y-133161775D02*
X122642857Y-133237965D01*
X123366666Y-133923680D02*
X123290475Y-133961775D01*
X123290475Y-133961775D02*
X123138094Y-133961775D01*
X123138094Y-133961775D02*
X123061904Y-133923680D01*
X123061904Y-133923680D02*
X123023809Y-133885584D01*
X123023809Y-133885584D02*
X122985713Y-133809394D01*
X122985713Y-133809394D02*
X122985713Y-133580822D01*
X122985713Y-133580822D02*
X123023809Y-133504632D01*
X123023809Y-133504632D02*
X123061904Y-133466537D01*
X123061904Y-133466537D02*
X123138094Y-133428441D01*
X123138094Y-133428441D02*
X123290475Y-133428441D01*
X123290475Y-133428441D02*
X123366666Y-133466537D01*
X124052380Y-133961775D02*
X124052380Y-133542727D01*
X124052380Y-133542727D02*
X124014285Y-133466537D01*
X124014285Y-133466537D02*
X123938094Y-133428441D01*
X123938094Y-133428441D02*
X123785713Y-133428441D01*
X123785713Y-133428441D02*
X123709523Y-133466537D01*
X124052380Y-133923680D02*
X123976189Y-133961775D01*
X123976189Y-133961775D02*
X123785713Y-133961775D01*
X123785713Y-133961775D02*
X123709523Y-133923680D01*
X123709523Y-133923680D02*
X123671427Y-133847489D01*
X123671427Y-133847489D02*
X123671427Y-133771299D01*
X123671427Y-133771299D02*
X123709523Y-133695108D01*
X123709523Y-133695108D02*
X123785713Y-133657013D01*
X123785713Y-133657013D02*
X123976189Y-133657013D01*
X123976189Y-133657013D02*
X124052380Y-133618918D01*
X125385714Y-133961775D02*
X125385714Y-133161775D01*
X125385714Y-133923680D02*
X125309523Y-133961775D01*
X125309523Y-133961775D02*
X125157142Y-133961775D01*
X125157142Y-133961775D02*
X125080952Y-133923680D01*
X125080952Y-133923680D02*
X125042857Y-133885584D01*
X125042857Y-133885584D02*
X125004761Y-133809394D01*
X125004761Y-133809394D02*
X125004761Y-133580822D01*
X125004761Y-133580822D02*
X125042857Y-133504632D01*
X125042857Y-133504632D02*
X125080952Y-133466537D01*
X125080952Y-133466537D02*
X125157142Y-133428441D01*
X125157142Y-133428441D02*
X125309523Y-133428441D01*
X125309523Y-133428441D02*
X125385714Y-133466537D01*
X126071429Y-133923680D02*
X125995238Y-133961775D01*
X125995238Y-133961775D02*
X125842857Y-133961775D01*
X125842857Y-133961775D02*
X125766667Y-133923680D01*
X125766667Y-133923680D02*
X125728571Y-133847489D01*
X125728571Y-133847489D02*
X125728571Y-133542727D01*
X125728571Y-133542727D02*
X125766667Y-133466537D01*
X125766667Y-133466537D02*
X125842857Y-133428441D01*
X125842857Y-133428441D02*
X125995238Y-133428441D01*
X125995238Y-133428441D02*
X126071429Y-133466537D01*
X126071429Y-133466537D02*
X126109524Y-133542727D01*
X126109524Y-133542727D02*
X126109524Y-133618918D01*
X126109524Y-133618918D02*
X125728571Y-133695108D01*
X126566666Y-133961775D02*
X126490476Y-133923680D01*
X126490476Y-133923680D02*
X126452381Y-133847489D01*
X126452381Y-133847489D02*
X126452381Y-133161775D01*
X127442857Y-133733203D02*
X127823810Y-133733203D01*
X127366667Y-133961775D02*
X127633334Y-133161775D01*
X127633334Y-133161775D02*
X127900000Y-133961775D01*
X128509524Y-133428441D02*
X128509524Y-133961775D01*
X128166667Y-133428441D02*
X128166667Y-133847489D01*
X128166667Y-133847489D02*
X128204762Y-133923680D01*
X128204762Y-133923680D02*
X128280952Y-133961775D01*
X128280952Y-133961775D02*
X128395238Y-133961775D01*
X128395238Y-133961775D02*
X128471429Y-133923680D01*
X128471429Y-133923680D02*
X128509524Y-133885584D01*
X128852381Y-133923680D02*
X128928572Y-133961775D01*
X128928572Y-133961775D02*
X129080953Y-133961775D01*
X129080953Y-133961775D02*
X129157143Y-133923680D01*
X129157143Y-133923680D02*
X129195239Y-133847489D01*
X129195239Y-133847489D02*
X129195239Y-133809394D01*
X129195239Y-133809394D02*
X129157143Y-133733203D01*
X129157143Y-133733203D02*
X129080953Y-133695108D01*
X129080953Y-133695108D02*
X128966667Y-133695108D01*
X128966667Y-133695108D02*
X128890477Y-133657013D01*
X128890477Y-133657013D02*
X128852381Y-133580822D01*
X128852381Y-133580822D02*
X128852381Y-133542727D01*
X128852381Y-133542727D02*
X128890477Y-133466537D01*
X128890477Y-133466537D02*
X128966667Y-133428441D01*
X128966667Y-133428441D02*
X129080953Y-133428441D01*
X129080953Y-133428441D02*
X129157143Y-133466537D01*
X129423810Y-133428441D02*
X129728572Y-133428441D01*
X129538096Y-133161775D02*
X129538096Y-133847489D01*
X129538096Y-133847489D02*
X129576191Y-133923680D01*
X129576191Y-133923680D02*
X129652381Y-133961775D01*
X129652381Y-133961775D02*
X129728572Y-133961775D01*
X129995239Y-133961775D02*
X129995239Y-133428441D01*
X129995239Y-133580822D02*
X130033334Y-133504632D01*
X130033334Y-133504632D02*
X130071429Y-133466537D01*
X130071429Y-133466537D02*
X130147620Y-133428441D01*
X130147620Y-133428441D02*
X130223810Y-133428441D01*
X130604762Y-133961775D02*
X130528572Y-133923680D01*
X130528572Y-133923680D02*
X130490477Y-133885584D01*
X130490477Y-133885584D02*
X130452381Y-133809394D01*
X130452381Y-133809394D02*
X130452381Y-133580822D01*
X130452381Y-133580822D02*
X130490477Y-133504632D01*
X130490477Y-133504632D02*
X130528572Y-133466537D01*
X130528572Y-133466537D02*
X130604762Y-133428441D01*
X130604762Y-133428441D02*
X130719048Y-133428441D01*
X130719048Y-133428441D02*
X130795239Y-133466537D01*
X130795239Y-133466537D02*
X130833334Y-133504632D01*
X130833334Y-133504632D02*
X130871429Y-133580822D01*
X130871429Y-133580822D02*
X130871429Y-133809394D01*
X130871429Y-133809394D02*
X130833334Y-133885584D01*
X130833334Y-133885584D02*
X130795239Y-133923680D01*
X130795239Y-133923680D02*
X130719048Y-133961775D01*
X130719048Y-133961775D02*
X130604762Y-133961775D01*
D10*
X104466667Y-123107200D02*
X104609524Y-123154819D01*
X104609524Y-123154819D02*
X104847619Y-123154819D01*
X104847619Y-123154819D02*
X104942857Y-123107200D01*
X104942857Y-123107200D02*
X104990476Y-123059580D01*
X104990476Y-123059580D02*
X105038095Y-122964342D01*
X105038095Y-122964342D02*
X105038095Y-122869104D01*
X105038095Y-122869104D02*
X104990476Y-122773866D01*
X104990476Y-122773866D02*
X104942857Y-122726247D01*
X104942857Y-122726247D02*
X104847619Y-122678628D01*
X104847619Y-122678628D02*
X104657143Y-122631009D01*
X104657143Y-122631009D02*
X104561905Y-122583390D01*
X104561905Y-122583390D02*
X104514286Y-122535771D01*
X104514286Y-122535771D02*
X104466667Y-122440533D01*
X104466667Y-122440533D02*
X104466667Y-122345295D01*
X104466667Y-122345295D02*
X104514286Y-122250057D01*
X104514286Y-122250057D02*
X104561905Y-122202438D01*
X104561905Y-122202438D02*
X104657143Y-122154819D01*
X104657143Y-122154819D02*
X104895238Y-122154819D01*
X104895238Y-122154819D02*
X105038095Y-122202438D01*
X105371429Y-122154819D02*
X105609524Y-123154819D01*
X105609524Y-123154819D02*
X105800000Y-122440533D01*
X105800000Y-122440533D02*
X105990476Y-123154819D01*
X105990476Y-123154819D02*
X106228572Y-122154819D01*
X107133333Y-123154819D02*
X106561905Y-123154819D01*
X106847619Y-123154819D02*
X106847619Y-122154819D01*
X106847619Y-122154819D02*
X106752381Y-122297676D01*
X106752381Y-122297676D02*
X106657143Y-122392914D01*
X106657143Y-122392914D02*
X106561905Y-122440533D01*
X134933333Y-116559580D02*
X134885714Y-116607200D01*
X134885714Y-116607200D02*
X134742857Y-116654819D01*
X134742857Y-116654819D02*
X134647619Y-116654819D01*
X134647619Y-116654819D02*
X134504762Y-116607200D01*
X134504762Y-116607200D02*
X134409524Y-116511961D01*
X134409524Y-116511961D02*
X134361905Y-116416723D01*
X134361905Y-116416723D02*
X134314286Y-116226247D01*
X134314286Y-116226247D02*
X134314286Y-116083390D01*
X134314286Y-116083390D02*
X134361905Y-115892914D01*
X134361905Y-115892914D02*
X134409524Y-115797676D01*
X134409524Y-115797676D02*
X134504762Y-115702438D01*
X134504762Y-115702438D02*
X134647619Y-115654819D01*
X134647619Y-115654819D02*
X134742857Y-115654819D01*
X134742857Y-115654819D02*
X134885714Y-115702438D01*
X134885714Y-115702438D02*
X134933333Y-115750057D01*
X135838095Y-115654819D02*
X135361905Y-115654819D01*
X135361905Y-115654819D02*
X135314286Y-116131009D01*
X135314286Y-116131009D02*
X135361905Y-116083390D01*
X135361905Y-116083390D02*
X135457143Y-116035771D01*
X135457143Y-116035771D02*
X135695238Y-116035771D01*
X135695238Y-116035771D02*
X135790476Y-116083390D01*
X135790476Y-116083390D02*
X135838095Y-116131009D01*
X135838095Y-116131009D02*
X135885714Y-116226247D01*
X135885714Y-116226247D02*
X135885714Y-116464342D01*
X135885714Y-116464342D02*
X135838095Y-116559580D01*
X135838095Y-116559580D02*
X135790476Y-116607200D01*
X135790476Y-116607200D02*
X135695238Y-116654819D01*
X135695238Y-116654819D02*
X135457143Y-116654819D01*
X135457143Y-116654819D02*
X135361905Y-116607200D01*
X135361905Y-116607200D02*
X135314286Y-116559580D01*
X154459580Y-79342857D02*
X154507200Y-79390476D01*
X154507200Y-79390476D02*
X154554819Y-79533333D01*
X154554819Y-79533333D02*
X154554819Y-79628571D01*
X154554819Y-79628571D02*
X154507200Y-79771428D01*
X154507200Y-79771428D02*
X154411961Y-79866666D01*
X154411961Y-79866666D02*
X154316723Y-79914285D01*
X154316723Y-79914285D02*
X154126247Y-79961904D01*
X154126247Y-79961904D02*
X153983390Y-79961904D01*
X153983390Y-79961904D02*
X153792914Y-79914285D01*
X153792914Y-79914285D02*
X153697676Y-79866666D01*
X153697676Y-79866666D02*
X153602438Y-79771428D01*
X153602438Y-79771428D02*
X153554819Y-79628571D01*
X153554819Y-79628571D02*
X153554819Y-79533333D01*
X153554819Y-79533333D02*
X153602438Y-79390476D01*
X153602438Y-79390476D02*
X153650057Y-79342857D01*
X154554819Y-78390476D02*
X154554819Y-78961904D01*
X154554819Y-78676190D02*
X153554819Y-78676190D01*
X153554819Y-78676190D02*
X153697676Y-78771428D01*
X153697676Y-78771428D02*
X153792914Y-78866666D01*
X153792914Y-78866666D02*
X153840533Y-78961904D01*
X153554819Y-77771428D02*
X153554819Y-77676190D01*
X153554819Y-77676190D02*
X153602438Y-77580952D01*
X153602438Y-77580952D02*
X153650057Y-77533333D01*
X153650057Y-77533333D02*
X153745295Y-77485714D01*
X153745295Y-77485714D02*
X153935771Y-77438095D01*
X153935771Y-77438095D02*
X154173866Y-77438095D01*
X154173866Y-77438095D02*
X154364342Y-77485714D01*
X154364342Y-77485714D02*
X154459580Y-77533333D01*
X154459580Y-77533333D02*
X154507200Y-77580952D01*
X154507200Y-77580952D02*
X154554819Y-77676190D01*
X154554819Y-77676190D02*
X154554819Y-77771428D01*
X154554819Y-77771428D02*
X154507200Y-77866666D01*
X154507200Y-77866666D02*
X154459580Y-77914285D01*
X154459580Y-77914285D02*
X154364342Y-77961904D01*
X154364342Y-77961904D02*
X154173866Y-78009523D01*
X154173866Y-78009523D02*
X153935771Y-78009523D01*
X153935771Y-78009523D02*
X153745295Y-77961904D01*
X153745295Y-77961904D02*
X153650057Y-77914285D01*
X153650057Y-77914285D02*
X153602438Y-77866666D01*
X153602438Y-77866666D02*
X153554819Y-77771428D01*
X154654819Y-81966666D02*
X154178628Y-82299999D01*
X154654819Y-82538094D02*
X153654819Y-82538094D01*
X153654819Y-82538094D02*
X153654819Y-82157142D01*
X153654819Y-82157142D02*
X153702438Y-82061904D01*
X153702438Y-82061904D02*
X153750057Y-82014285D01*
X153750057Y-82014285D02*
X153845295Y-81966666D01*
X153845295Y-81966666D02*
X153988152Y-81966666D01*
X153988152Y-81966666D02*
X154083390Y-82014285D01*
X154083390Y-82014285D02*
X154131009Y-82061904D01*
X154131009Y-82061904D02*
X154178628Y-82157142D01*
X154178628Y-82157142D02*
X154178628Y-82538094D01*
X154083390Y-81395237D02*
X154035771Y-81490475D01*
X154035771Y-81490475D02*
X153988152Y-81538094D01*
X153988152Y-81538094D02*
X153892914Y-81585713D01*
X153892914Y-81585713D02*
X153845295Y-81585713D01*
X153845295Y-81585713D02*
X153750057Y-81538094D01*
X153750057Y-81538094D02*
X153702438Y-81490475D01*
X153702438Y-81490475D02*
X153654819Y-81395237D01*
X153654819Y-81395237D02*
X153654819Y-81204761D01*
X153654819Y-81204761D02*
X153702438Y-81109523D01*
X153702438Y-81109523D02*
X153750057Y-81061904D01*
X153750057Y-81061904D02*
X153845295Y-81014285D01*
X153845295Y-81014285D02*
X153892914Y-81014285D01*
X153892914Y-81014285D02*
X153988152Y-81061904D01*
X153988152Y-81061904D02*
X154035771Y-81109523D01*
X154035771Y-81109523D02*
X154083390Y-81204761D01*
X154083390Y-81204761D02*
X154083390Y-81395237D01*
X154083390Y-81395237D02*
X154131009Y-81490475D01*
X154131009Y-81490475D02*
X154178628Y-81538094D01*
X154178628Y-81538094D02*
X154273866Y-81585713D01*
X154273866Y-81585713D02*
X154464342Y-81585713D01*
X154464342Y-81585713D02*
X154559580Y-81538094D01*
X154559580Y-81538094D02*
X154607200Y-81490475D01*
X154607200Y-81490475D02*
X154654819Y-81395237D01*
X154654819Y-81395237D02*
X154654819Y-81204761D01*
X154654819Y-81204761D02*
X154607200Y-81109523D01*
X154607200Y-81109523D02*
X154559580Y-81061904D01*
X154559580Y-81061904D02*
X154464342Y-81014285D01*
X154464342Y-81014285D02*
X154273866Y-81014285D01*
X154273866Y-81014285D02*
X154178628Y-81061904D01*
X154178628Y-81061904D02*
X154131009Y-81109523D01*
X154131009Y-81109523D02*
X154083390Y-81204761D01*
X117045238Y-141954819D02*
X117283333Y-142954819D01*
X117283333Y-142954819D02*
X117473809Y-142240533D01*
X117473809Y-142240533D02*
X117664285Y-142954819D01*
X117664285Y-142954819D02*
X117902381Y-141954819D01*
X118807142Y-142954819D02*
X118235714Y-142954819D01*
X118521428Y-142954819D02*
X118521428Y-141954819D01*
X118521428Y-141954819D02*
X118426190Y-142097676D01*
X118426190Y-142097676D02*
X118330952Y-142192914D01*
X118330952Y-142192914D02*
X118235714Y-142240533D01*
X145357142Y-73309580D02*
X145309523Y-73357200D01*
X145309523Y-73357200D02*
X145166666Y-73404819D01*
X145166666Y-73404819D02*
X145071428Y-73404819D01*
X145071428Y-73404819D02*
X144928571Y-73357200D01*
X144928571Y-73357200D02*
X144833333Y-73261961D01*
X144833333Y-73261961D02*
X144785714Y-73166723D01*
X144785714Y-73166723D02*
X144738095Y-72976247D01*
X144738095Y-72976247D02*
X144738095Y-72833390D01*
X144738095Y-72833390D02*
X144785714Y-72642914D01*
X144785714Y-72642914D02*
X144833333Y-72547676D01*
X144833333Y-72547676D02*
X144928571Y-72452438D01*
X144928571Y-72452438D02*
X145071428Y-72404819D01*
X145071428Y-72404819D02*
X145166666Y-72404819D01*
X145166666Y-72404819D02*
X145309523Y-72452438D01*
X145309523Y-72452438D02*
X145357142Y-72500057D01*
X146309523Y-73404819D02*
X145738095Y-73404819D01*
X146023809Y-73404819D02*
X146023809Y-72404819D01*
X146023809Y-72404819D02*
X145928571Y-72547676D01*
X145928571Y-72547676D02*
X145833333Y-72642914D01*
X145833333Y-72642914D02*
X145738095Y-72690533D01*
X147214285Y-72404819D02*
X146738095Y-72404819D01*
X146738095Y-72404819D02*
X146690476Y-72881009D01*
X146690476Y-72881009D02*
X146738095Y-72833390D01*
X146738095Y-72833390D02*
X146833333Y-72785771D01*
X146833333Y-72785771D02*
X147071428Y-72785771D01*
X147071428Y-72785771D02*
X147166666Y-72833390D01*
X147166666Y-72833390D02*
X147214285Y-72881009D01*
X147214285Y-72881009D02*
X147261904Y-72976247D01*
X147261904Y-72976247D02*
X147261904Y-73214342D01*
X147261904Y-73214342D02*
X147214285Y-73309580D01*
X147214285Y-73309580D02*
X147166666Y-73357200D01*
X147166666Y-73357200D02*
X147071428Y-73404819D01*
X147071428Y-73404819D02*
X146833333Y-73404819D01*
X146833333Y-73404819D02*
X146738095Y-73357200D01*
X146738095Y-73357200D02*
X146690476Y-73309580D01*
X151959580Y-71742857D02*
X152007200Y-71790476D01*
X152007200Y-71790476D02*
X152054819Y-71933333D01*
X152054819Y-71933333D02*
X152054819Y-72028571D01*
X152054819Y-72028571D02*
X152007200Y-72171428D01*
X152007200Y-72171428D02*
X151911961Y-72266666D01*
X151911961Y-72266666D02*
X151816723Y-72314285D01*
X151816723Y-72314285D02*
X151626247Y-72361904D01*
X151626247Y-72361904D02*
X151483390Y-72361904D01*
X151483390Y-72361904D02*
X151292914Y-72314285D01*
X151292914Y-72314285D02*
X151197676Y-72266666D01*
X151197676Y-72266666D02*
X151102438Y-72171428D01*
X151102438Y-72171428D02*
X151054819Y-72028571D01*
X151054819Y-72028571D02*
X151054819Y-71933333D01*
X151054819Y-71933333D02*
X151102438Y-71790476D01*
X151102438Y-71790476D02*
X151150057Y-71742857D01*
X152054819Y-70790476D02*
X152054819Y-71361904D01*
X152054819Y-71076190D02*
X151054819Y-71076190D01*
X151054819Y-71076190D02*
X151197676Y-71171428D01*
X151197676Y-71171428D02*
X151292914Y-71266666D01*
X151292914Y-71266666D02*
X151340533Y-71361904D01*
X151054819Y-69933333D02*
X151054819Y-70123809D01*
X151054819Y-70123809D02*
X151102438Y-70219047D01*
X151102438Y-70219047D02*
X151150057Y-70266666D01*
X151150057Y-70266666D02*
X151292914Y-70361904D01*
X151292914Y-70361904D02*
X151483390Y-70409523D01*
X151483390Y-70409523D02*
X151864342Y-70409523D01*
X151864342Y-70409523D02*
X151959580Y-70361904D01*
X151959580Y-70361904D02*
X152007200Y-70314285D01*
X152007200Y-70314285D02*
X152054819Y-70219047D01*
X152054819Y-70219047D02*
X152054819Y-70028571D01*
X152054819Y-70028571D02*
X152007200Y-69933333D01*
X152007200Y-69933333D02*
X151959580Y-69885714D01*
X151959580Y-69885714D02*
X151864342Y-69838095D01*
X151864342Y-69838095D02*
X151626247Y-69838095D01*
X151626247Y-69838095D02*
X151531009Y-69885714D01*
X151531009Y-69885714D02*
X151483390Y-69933333D01*
X151483390Y-69933333D02*
X151435771Y-70028571D01*
X151435771Y-70028571D02*
X151435771Y-70219047D01*
X151435771Y-70219047D02*
X151483390Y-70314285D01*
X151483390Y-70314285D02*
X151531009Y-70361904D01*
X151531009Y-70361904D02*
X151626247Y-70409523D01*
X184254819Y-62933333D02*
X184969104Y-62933333D01*
X184969104Y-62933333D02*
X185111961Y-62980952D01*
X185111961Y-62980952D02*
X185207200Y-63076190D01*
X185207200Y-63076190D02*
X185254819Y-63219047D01*
X185254819Y-63219047D02*
X185254819Y-63314285D01*
X185254819Y-61933333D02*
X185254819Y-62504761D01*
X185254819Y-62219047D02*
X184254819Y-62219047D01*
X184254819Y-62219047D02*
X184397676Y-62314285D01*
X184397676Y-62314285D02*
X184492914Y-62409523D01*
X184492914Y-62409523D02*
X184540533Y-62504761D01*
X154359580Y-71642857D02*
X154407200Y-71690476D01*
X154407200Y-71690476D02*
X154454819Y-71833333D01*
X154454819Y-71833333D02*
X154454819Y-71928571D01*
X154454819Y-71928571D02*
X154407200Y-72071428D01*
X154407200Y-72071428D02*
X154311961Y-72166666D01*
X154311961Y-72166666D02*
X154216723Y-72214285D01*
X154216723Y-72214285D02*
X154026247Y-72261904D01*
X154026247Y-72261904D02*
X153883390Y-72261904D01*
X153883390Y-72261904D02*
X153692914Y-72214285D01*
X153692914Y-72214285D02*
X153597676Y-72166666D01*
X153597676Y-72166666D02*
X153502438Y-72071428D01*
X153502438Y-72071428D02*
X153454819Y-71928571D01*
X153454819Y-71928571D02*
X153454819Y-71833333D01*
X153454819Y-71833333D02*
X153502438Y-71690476D01*
X153502438Y-71690476D02*
X153550057Y-71642857D01*
X154454819Y-70690476D02*
X154454819Y-71261904D01*
X154454819Y-70976190D02*
X153454819Y-70976190D01*
X153454819Y-70976190D02*
X153597676Y-71071428D01*
X153597676Y-71071428D02*
X153692914Y-71166666D01*
X153692914Y-71166666D02*
X153740533Y-71261904D01*
X154454819Y-69738095D02*
X154454819Y-70309523D01*
X154454819Y-70023809D02*
X153454819Y-70023809D01*
X153454819Y-70023809D02*
X153597676Y-70119047D01*
X153597676Y-70119047D02*
X153692914Y-70214285D01*
X153692914Y-70214285D02*
X153740533Y-70309523D01*
X170254819Y-64166666D02*
X170254819Y-64642856D01*
X170254819Y-64642856D02*
X169254819Y-64642856D01*
X170254819Y-63309523D02*
X170254819Y-63880951D01*
X170254819Y-63595237D02*
X169254819Y-63595237D01*
X169254819Y-63595237D02*
X169397676Y-63690475D01*
X169397676Y-63690475D02*
X169492914Y-63785713D01*
X169492914Y-63785713D02*
X169540533Y-63880951D01*
X179833333Y-121789580D02*
X179785714Y-121837200D01*
X179785714Y-121837200D02*
X179642857Y-121884819D01*
X179642857Y-121884819D02*
X179547619Y-121884819D01*
X179547619Y-121884819D02*
X179404762Y-121837200D01*
X179404762Y-121837200D02*
X179309524Y-121741961D01*
X179309524Y-121741961D02*
X179261905Y-121646723D01*
X179261905Y-121646723D02*
X179214286Y-121456247D01*
X179214286Y-121456247D02*
X179214286Y-121313390D01*
X179214286Y-121313390D02*
X179261905Y-121122914D01*
X179261905Y-121122914D02*
X179309524Y-121027676D01*
X179309524Y-121027676D02*
X179404762Y-120932438D01*
X179404762Y-120932438D02*
X179547619Y-120884819D01*
X179547619Y-120884819D02*
X179642857Y-120884819D01*
X179642857Y-120884819D02*
X179785714Y-120932438D01*
X179785714Y-120932438D02*
X179833333Y-120980057D01*
X180404762Y-121313390D02*
X180309524Y-121265771D01*
X180309524Y-121265771D02*
X180261905Y-121218152D01*
X180261905Y-121218152D02*
X180214286Y-121122914D01*
X180214286Y-121122914D02*
X180214286Y-121075295D01*
X180214286Y-121075295D02*
X180261905Y-120980057D01*
X180261905Y-120980057D02*
X180309524Y-120932438D01*
X180309524Y-120932438D02*
X180404762Y-120884819D01*
X180404762Y-120884819D02*
X180595238Y-120884819D01*
X180595238Y-120884819D02*
X180690476Y-120932438D01*
X180690476Y-120932438D02*
X180738095Y-120980057D01*
X180738095Y-120980057D02*
X180785714Y-121075295D01*
X180785714Y-121075295D02*
X180785714Y-121122914D01*
X180785714Y-121122914D02*
X180738095Y-121218152D01*
X180738095Y-121218152D02*
X180690476Y-121265771D01*
X180690476Y-121265771D02*
X180595238Y-121313390D01*
X180595238Y-121313390D02*
X180404762Y-121313390D01*
X180404762Y-121313390D02*
X180309524Y-121361009D01*
X180309524Y-121361009D02*
X180261905Y-121408628D01*
X180261905Y-121408628D02*
X180214286Y-121503866D01*
X180214286Y-121503866D02*
X180214286Y-121694342D01*
X180214286Y-121694342D02*
X180261905Y-121789580D01*
X180261905Y-121789580D02*
X180309524Y-121837200D01*
X180309524Y-121837200D02*
X180404762Y-121884819D01*
X180404762Y-121884819D02*
X180595238Y-121884819D01*
X180595238Y-121884819D02*
X180690476Y-121837200D01*
X180690476Y-121837200D02*
X180738095Y-121789580D01*
X180738095Y-121789580D02*
X180785714Y-121694342D01*
X180785714Y-121694342D02*
X180785714Y-121503866D01*
X180785714Y-121503866D02*
X180738095Y-121408628D01*
X180738095Y-121408628D02*
X180690476Y-121361009D01*
X180690476Y-121361009D02*
X180595238Y-121313390D01*
X177261905Y-83454819D02*
X177261905Y-82454819D01*
X177261905Y-82454819D02*
X177500000Y-82454819D01*
X177500000Y-82454819D02*
X177642857Y-82502438D01*
X177642857Y-82502438D02*
X177738095Y-82597676D01*
X177738095Y-82597676D02*
X177785714Y-82692914D01*
X177785714Y-82692914D02*
X177833333Y-82883390D01*
X177833333Y-82883390D02*
X177833333Y-83026247D01*
X177833333Y-83026247D02*
X177785714Y-83216723D01*
X177785714Y-83216723D02*
X177738095Y-83311961D01*
X177738095Y-83311961D02*
X177642857Y-83407200D01*
X177642857Y-83407200D02*
X177500000Y-83454819D01*
X177500000Y-83454819D02*
X177261905Y-83454819D01*
X178738095Y-82454819D02*
X178261905Y-82454819D01*
X178261905Y-82454819D02*
X178214286Y-82931009D01*
X178214286Y-82931009D02*
X178261905Y-82883390D01*
X178261905Y-82883390D02*
X178357143Y-82835771D01*
X178357143Y-82835771D02*
X178595238Y-82835771D01*
X178595238Y-82835771D02*
X178690476Y-82883390D01*
X178690476Y-82883390D02*
X178738095Y-82931009D01*
X178738095Y-82931009D02*
X178785714Y-83026247D01*
X178785714Y-83026247D02*
X178785714Y-83264342D01*
X178785714Y-83264342D02*
X178738095Y-83359580D01*
X178738095Y-83359580D02*
X178690476Y-83407200D01*
X178690476Y-83407200D02*
X178595238Y-83454819D01*
X178595238Y-83454819D02*
X178357143Y-83454819D01*
X178357143Y-83454819D02*
X178261905Y-83407200D01*
X178261905Y-83407200D02*
X178214286Y-83359580D01*
X147833333Y-115029580D02*
X147785714Y-115077200D01*
X147785714Y-115077200D02*
X147642857Y-115124819D01*
X147642857Y-115124819D02*
X147547619Y-115124819D01*
X147547619Y-115124819D02*
X147404762Y-115077200D01*
X147404762Y-115077200D02*
X147309524Y-114981961D01*
X147309524Y-114981961D02*
X147261905Y-114886723D01*
X147261905Y-114886723D02*
X147214286Y-114696247D01*
X147214286Y-114696247D02*
X147214286Y-114553390D01*
X147214286Y-114553390D02*
X147261905Y-114362914D01*
X147261905Y-114362914D02*
X147309524Y-114267676D01*
X147309524Y-114267676D02*
X147404762Y-114172438D01*
X147404762Y-114172438D02*
X147547619Y-114124819D01*
X147547619Y-114124819D02*
X147642857Y-114124819D01*
X147642857Y-114124819D02*
X147785714Y-114172438D01*
X147785714Y-114172438D02*
X147833333Y-114220057D01*
X148785714Y-115124819D02*
X148214286Y-115124819D01*
X148500000Y-115124819D02*
X148500000Y-114124819D01*
X148500000Y-114124819D02*
X148404762Y-114267676D01*
X148404762Y-114267676D02*
X148309524Y-114362914D01*
X148309524Y-114362914D02*
X148214286Y-114410533D01*
X159833333Y-84789580D02*
X159785714Y-84837200D01*
X159785714Y-84837200D02*
X159642857Y-84884819D01*
X159642857Y-84884819D02*
X159547619Y-84884819D01*
X159547619Y-84884819D02*
X159404762Y-84837200D01*
X159404762Y-84837200D02*
X159309524Y-84741961D01*
X159309524Y-84741961D02*
X159261905Y-84646723D01*
X159261905Y-84646723D02*
X159214286Y-84456247D01*
X159214286Y-84456247D02*
X159214286Y-84313390D01*
X159214286Y-84313390D02*
X159261905Y-84122914D01*
X159261905Y-84122914D02*
X159309524Y-84027676D01*
X159309524Y-84027676D02*
X159404762Y-83932438D01*
X159404762Y-83932438D02*
X159547619Y-83884819D01*
X159547619Y-83884819D02*
X159642857Y-83884819D01*
X159642857Y-83884819D02*
X159785714Y-83932438D01*
X159785714Y-83932438D02*
X159833333Y-83980057D01*
X160166667Y-83884819D02*
X160833333Y-83884819D01*
X160833333Y-83884819D02*
X160404762Y-84884819D01*
X150329580Y-131666666D02*
X150377200Y-131714285D01*
X150377200Y-131714285D02*
X150424819Y-131857142D01*
X150424819Y-131857142D02*
X150424819Y-131952380D01*
X150424819Y-131952380D02*
X150377200Y-132095237D01*
X150377200Y-132095237D02*
X150281961Y-132190475D01*
X150281961Y-132190475D02*
X150186723Y-132238094D01*
X150186723Y-132238094D02*
X149996247Y-132285713D01*
X149996247Y-132285713D02*
X149853390Y-132285713D01*
X149853390Y-132285713D02*
X149662914Y-132238094D01*
X149662914Y-132238094D02*
X149567676Y-132190475D01*
X149567676Y-132190475D02*
X149472438Y-132095237D01*
X149472438Y-132095237D02*
X149424819Y-131952380D01*
X149424819Y-131952380D02*
X149424819Y-131857142D01*
X149424819Y-131857142D02*
X149472438Y-131714285D01*
X149472438Y-131714285D02*
X149520057Y-131666666D01*
X149424819Y-130809523D02*
X149424819Y-130999999D01*
X149424819Y-130999999D02*
X149472438Y-131095237D01*
X149472438Y-131095237D02*
X149520057Y-131142856D01*
X149520057Y-131142856D02*
X149662914Y-131238094D01*
X149662914Y-131238094D02*
X149853390Y-131285713D01*
X149853390Y-131285713D02*
X150234342Y-131285713D01*
X150234342Y-131285713D02*
X150329580Y-131238094D01*
X150329580Y-131238094D02*
X150377200Y-131190475D01*
X150377200Y-131190475D02*
X150424819Y-131095237D01*
X150424819Y-131095237D02*
X150424819Y-130904761D01*
X150424819Y-130904761D02*
X150377200Y-130809523D01*
X150377200Y-130809523D02*
X150329580Y-130761904D01*
X150329580Y-130761904D02*
X150234342Y-130714285D01*
X150234342Y-130714285D02*
X149996247Y-130714285D01*
X149996247Y-130714285D02*
X149901009Y-130761904D01*
X149901009Y-130761904D02*
X149853390Y-130809523D01*
X149853390Y-130809523D02*
X149805771Y-130904761D01*
X149805771Y-130904761D02*
X149805771Y-131095237D01*
X149805771Y-131095237D02*
X149853390Y-131190475D01*
X149853390Y-131190475D02*
X149901009Y-131238094D01*
X149901009Y-131238094D02*
X149996247Y-131285713D01*
X176254819Y-71784761D02*
X177254819Y-71546666D01*
X177254819Y-71546666D02*
X176540533Y-71356190D01*
X176540533Y-71356190D02*
X177254819Y-71165714D01*
X177254819Y-71165714D02*
X176254819Y-70927619D01*
X176350057Y-70594285D02*
X176302438Y-70546666D01*
X176302438Y-70546666D02*
X176254819Y-70451428D01*
X176254819Y-70451428D02*
X176254819Y-70213333D01*
X176254819Y-70213333D02*
X176302438Y-70118095D01*
X176302438Y-70118095D02*
X176350057Y-70070476D01*
X176350057Y-70070476D02*
X176445295Y-70022857D01*
X176445295Y-70022857D02*
X176540533Y-70022857D01*
X176540533Y-70022857D02*
X176683390Y-70070476D01*
X176683390Y-70070476D02*
X177254819Y-70641904D01*
X177254819Y-70641904D02*
X177254819Y-70022857D01*
X109833333Y-121124819D02*
X109500000Y-120648628D01*
X109261905Y-121124819D02*
X109261905Y-120124819D01*
X109261905Y-120124819D02*
X109642857Y-120124819D01*
X109642857Y-120124819D02*
X109738095Y-120172438D01*
X109738095Y-120172438D02*
X109785714Y-120220057D01*
X109785714Y-120220057D02*
X109833333Y-120315295D01*
X109833333Y-120315295D02*
X109833333Y-120458152D01*
X109833333Y-120458152D02*
X109785714Y-120553390D01*
X109785714Y-120553390D02*
X109738095Y-120601009D01*
X109738095Y-120601009D02*
X109642857Y-120648628D01*
X109642857Y-120648628D02*
X109261905Y-120648628D01*
X110690476Y-120124819D02*
X110500000Y-120124819D01*
X110500000Y-120124819D02*
X110404762Y-120172438D01*
X110404762Y-120172438D02*
X110357143Y-120220057D01*
X110357143Y-120220057D02*
X110261905Y-120362914D01*
X110261905Y-120362914D02*
X110214286Y-120553390D01*
X110214286Y-120553390D02*
X110214286Y-120934342D01*
X110214286Y-120934342D02*
X110261905Y-121029580D01*
X110261905Y-121029580D02*
X110309524Y-121077200D01*
X110309524Y-121077200D02*
X110404762Y-121124819D01*
X110404762Y-121124819D02*
X110595238Y-121124819D01*
X110595238Y-121124819D02*
X110690476Y-121077200D01*
X110690476Y-121077200D02*
X110738095Y-121029580D01*
X110738095Y-121029580D02*
X110785714Y-120934342D01*
X110785714Y-120934342D02*
X110785714Y-120696247D01*
X110785714Y-120696247D02*
X110738095Y-120601009D01*
X110738095Y-120601009D02*
X110690476Y-120553390D01*
X110690476Y-120553390D02*
X110595238Y-120505771D01*
X110595238Y-120505771D02*
X110404762Y-120505771D01*
X110404762Y-120505771D02*
X110309524Y-120553390D01*
X110309524Y-120553390D02*
X110261905Y-120601009D01*
X110261905Y-120601009D02*
X110214286Y-120696247D01*
X133357142Y-65509580D02*
X133309523Y-65557200D01*
X133309523Y-65557200D02*
X133166666Y-65604819D01*
X133166666Y-65604819D02*
X133071428Y-65604819D01*
X133071428Y-65604819D02*
X132928571Y-65557200D01*
X132928571Y-65557200D02*
X132833333Y-65461961D01*
X132833333Y-65461961D02*
X132785714Y-65366723D01*
X132785714Y-65366723D02*
X132738095Y-65176247D01*
X132738095Y-65176247D02*
X132738095Y-65033390D01*
X132738095Y-65033390D02*
X132785714Y-64842914D01*
X132785714Y-64842914D02*
X132833333Y-64747676D01*
X132833333Y-64747676D02*
X132928571Y-64652438D01*
X132928571Y-64652438D02*
X133071428Y-64604819D01*
X133071428Y-64604819D02*
X133166666Y-64604819D01*
X133166666Y-64604819D02*
X133309523Y-64652438D01*
X133309523Y-64652438D02*
X133357142Y-64700057D01*
X134309523Y-65604819D02*
X133738095Y-65604819D01*
X134023809Y-65604819D02*
X134023809Y-64604819D01*
X134023809Y-64604819D02*
X133928571Y-64747676D01*
X133928571Y-64747676D02*
X133833333Y-64842914D01*
X133833333Y-64842914D02*
X133738095Y-64890533D01*
X134785714Y-65604819D02*
X134976190Y-65604819D01*
X134976190Y-65604819D02*
X135071428Y-65557200D01*
X135071428Y-65557200D02*
X135119047Y-65509580D01*
X135119047Y-65509580D02*
X135214285Y-65366723D01*
X135214285Y-65366723D02*
X135261904Y-65176247D01*
X135261904Y-65176247D02*
X135261904Y-64795295D01*
X135261904Y-64795295D02*
X135214285Y-64700057D01*
X135214285Y-64700057D02*
X135166666Y-64652438D01*
X135166666Y-64652438D02*
X135071428Y-64604819D01*
X135071428Y-64604819D02*
X134880952Y-64604819D01*
X134880952Y-64604819D02*
X134785714Y-64652438D01*
X134785714Y-64652438D02*
X134738095Y-64700057D01*
X134738095Y-64700057D02*
X134690476Y-64795295D01*
X134690476Y-64795295D02*
X134690476Y-65033390D01*
X134690476Y-65033390D02*
X134738095Y-65128628D01*
X134738095Y-65128628D02*
X134785714Y-65176247D01*
X134785714Y-65176247D02*
X134880952Y-65223866D01*
X134880952Y-65223866D02*
X135071428Y-65223866D01*
X135071428Y-65223866D02*
X135166666Y-65176247D01*
X135166666Y-65176247D02*
X135214285Y-65128628D01*
X135214285Y-65128628D02*
X135261904Y-65033390D01*
X162604819Y-112738094D02*
X161604819Y-112738094D01*
X161604819Y-112738094D02*
X161604819Y-112499999D01*
X161604819Y-112499999D02*
X161652438Y-112357142D01*
X161652438Y-112357142D02*
X161747676Y-112261904D01*
X161747676Y-112261904D02*
X161842914Y-112214285D01*
X161842914Y-112214285D02*
X162033390Y-112166666D01*
X162033390Y-112166666D02*
X162176247Y-112166666D01*
X162176247Y-112166666D02*
X162366723Y-112214285D01*
X162366723Y-112214285D02*
X162461961Y-112261904D01*
X162461961Y-112261904D02*
X162557200Y-112357142D01*
X162557200Y-112357142D02*
X162604819Y-112499999D01*
X162604819Y-112499999D02*
X162604819Y-112738094D01*
X162033390Y-111595237D02*
X161985771Y-111690475D01*
X161985771Y-111690475D02*
X161938152Y-111738094D01*
X161938152Y-111738094D02*
X161842914Y-111785713D01*
X161842914Y-111785713D02*
X161795295Y-111785713D01*
X161795295Y-111785713D02*
X161700057Y-111738094D01*
X161700057Y-111738094D02*
X161652438Y-111690475D01*
X161652438Y-111690475D02*
X161604819Y-111595237D01*
X161604819Y-111595237D02*
X161604819Y-111404761D01*
X161604819Y-111404761D02*
X161652438Y-111309523D01*
X161652438Y-111309523D02*
X161700057Y-111261904D01*
X161700057Y-111261904D02*
X161795295Y-111214285D01*
X161795295Y-111214285D02*
X161842914Y-111214285D01*
X161842914Y-111214285D02*
X161938152Y-111261904D01*
X161938152Y-111261904D02*
X161985771Y-111309523D01*
X161985771Y-111309523D02*
X162033390Y-111404761D01*
X162033390Y-111404761D02*
X162033390Y-111595237D01*
X162033390Y-111595237D02*
X162081009Y-111690475D01*
X162081009Y-111690475D02*
X162128628Y-111738094D01*
X162128628Y-111738094D02*
X162223866Y-111785713D01*
X162223866Y-111785713D02*
X162414342Y-111785713D01*
X162414342Y-111785713D02*
X162509580Y-111738094D01*
X162509580Y-111738094D02*
X162557200Y-111690475D01*
X162557200Y-111690475D02*
X162604819Y-111595237D01*
X162604819Y-111595237D02*
X162604819Y-111404761D01*
X162604819Y-111404761D02*
X162557200Y-111309523D01*
X162557200Y-111309523D02*
X162509580Y-111261904D01*
X162509580Y-111261904D02*
X162414342Y-111214285D01*
X162414342Y-111214285D02*
X162223866Y-111214285D01*
X162223866Y-111214285D02*
X162128628Y-111261904D01*
X162128628Y-111261904D02*
X162081009Y-111309523D01*
X162081009Y-111309523D02*
X162033390Y-111404761D01*
X158179692Y-73854819D02*
X157846359Y-73378628D01*
X157608264Y-73854819D02*
X157608264Y-72854819D01*
X157608264Y-72854819D02*
X157989216Y-72854819D01*
X157989216Y-72854819D02*
X158084454Y-72902438D01*
X158084454Y-72902438D02*
X158132073Y-72950057D01*
X158132073Y-72950057D02*
X158179692Y-73045295D01*
X158179692Y-73045295D02*
X158179692Y-73188152D01*
X158179692Y-73188152D02*
X158132073Y-73283390D01*
X158132073Y-73283390D02*
X158084454Y-73331009D01*
X158084454Y-73331009D02*
X157989216Y-73378628D01*
X157989216Y-73378628D02*
X157608264Y-73378628D01*
X158513026Y-72854819D02*
X159132073Y-72854819D01*
X159132073Y-72854819D02*
X158798740Y-73235771D01*
X158798740Y-73235771D02*
X158941597Y-73235771D01*
X158941597Y-73235771D02*
X159036835Y-73283390D01*
X159036835Y-73283390D02*
X159084454Y-73331009D01*
X159084454Y-73331009D02*
X159132073Y-73426247D01*
X159132073Y-73426247D02*
X159132073Y-73664342D01*
X159132073Y-73664342D02*
X159084454Y-73759580D01*
X159084454Y-73759580D02*
X159036835Y-73807200D01*
X159036835Y-73807200D02*
X158941597Y-73854819D01*
X158941597Y-73854819D02*
X158655883Y-73854819D01*
X158655883Y-73854819D02*
X158560645Y-73807200D01*
X158560645Y-73807200D02*
X158513026Y-73759580D01*
X166559580Y-76966666D02*
X166607200Y-77014285D01*
X166607200Y-77014285D02*
X166654819Y-77157142D01*
X166654819Y-77157142D02*
X166654819Y-77252380D01*
X166654819Y-77252380D02*
X166607200Y-77395237D01*
X166607200Y-77395237D02*
X166511961Y-77490475D01*
X166511961Y-77490475D02*
X166416723Y-77538094D01*
X166416723Y-77538094D02*
X166226247Y-77585713D01*
X166226247Y-77585713D02*
X166083390Y-77585713D01*
X166083390Y-77585713D02*
X165892914Y-77538094D01*
X165892914Y-77538094D02*
X165797676Y-77490475D01*
X165797676Y-77490475D02*
X165702438Y-77395237D01*
X165702438Y-77395237D02*
X165654819Y-77252380D01*
X165654819Y-77252380D02*
X165654819Y-77157142D01*
X165654819Y-77157142D02*
X165702438Y-77014285D01*
X165702438Y-77014285D02*
X165750057Y-76966666D01*
X165750057Y-76585713D02*
X165702438Y-76538094D01*
X165702438Y-76538094D02*
X165654819Y-76442856D01*
X165654819Y-76442856D02*
X165654819Y-76204761D01*
X165654819Y-76204761D02*
X165702438Y-76109523D01*
X165702438Y-76109523D02*
X165750057Y-76061904D01*
X165750057Y-76061904D02*
X165845295Y-76014285D01*
X165845295Y-76014285D02*
X165940533Y-76014285D01*
X165940533Y-76014285D02*
X166083390Y-76061904D01*
X166083390Y-76061904D02*
X166654819Y-76633332D01*
X166654819Y-76633332D02*
X166654819Y-76014285D01*
X165079819Y-107136904D02*
X165889342Y-107136904D01*
X165889342Y-107136904D02*
X165984580Y-107089285D01*
X165984580Y-107089285D02*
X166032200Y-107041666D01*
X166032200Y-107041666D02*
X166079819Y-106946428D01*
X166079819Y-106946428D02*
X166079819Y-106755952D01*
X166079819Y-106755952D02*
X166032200Y-106660714D01*
X166032200Y-106660714D02*
X165984580Y-106613095D01*
X165984580Y-106613095D02*
X165889342Y-106565476D01*
X165889342Y-106565476D02*
X165079819Y-106565476D01*
X165079819Y-106184523D02*
X165079819Y-105565476D01*
X165079819Y-105565476D02*
X165460771Y-105898809D01*
X165460771Y-105898809D02*
X165460771Y-105755952D01*
X165460771Y-105755952D02*
X165508390Y-105660714D01*
X165508390Y-105660714D02*
X165556009Y-105613095D01*
X165556009Y-105613095D02*
X165651247Y-105565476D01*
X165651247Y-105565476D02*
X165889342Y-105565476D01*
X165889342Y-105565476D02*
X165984580Y-105613095D01*
X165984580Y-105613095D02*
X166032200Y-105660714D01*
X166032200Y-105660714D02*
X166079819Y-105755952D01*
X166079819Y-105755952D02*
X166079819Y-106041666D01*
X166079819Y-106041666D02*
X166032200Y-106136904D01*
X166032200Y-106136904D02*
X165984580Y-106184523D01*
X174614285Y-122131009D02*
X174757142Y-122178628D01*
X174757142Y-122178628D02*
X174804761Y-122226247D01*
X174804761Y-122226247D02*
X174852380Y-122321485D01*
X174852380Y-122321485D02*
X174852380Y-122464342D01*
X174852380Y-122464342D02*
X174804761Y-122559580D01*
X174804761Y-122559580D02*
X174757142Y-122607200D01*
X174757142Y-122607200D02*
X174661904Y-122654819D01*
X174661904Y-122654819D02*
X174280952Y-122654819D01*
X174280952Y-122654819D02*
X174280952Y-121654819D01*
X174280952Y-121654819D02*
X174614285Y-121654819D01*
X174614285Y-121654819D02*
X174709523Y-121702438D01*
X174709523Y-121702438D02*
X174757142Y-121750057D01*
X174757142Y-121750057D02*
X174804761Y-121845295D01*
X174804761Y-121845295D02*
X174804761Y-121940533D01*
X174804761Y-121940533D02*
X174757142Y-122035771D01*
X174757142Y-122035771D02*
X174709523Y-122083390D01*
X174709523Y-122083390D02*
X174614285Y-122131009D01*
X174614285Y-122131009D02*
X174280952Y-122131009D01*
X175138095Y-121654819D02*
X175709523Y-121654819D01*
X175423809Y-122654819D02*
X175423809Y-121654819D01*
X176566666Y-122654819D02*
X175995238Y-122654819D01*
X176280952Y-122654819D02*
X176280952Y-121654819D01*
X176280952Y-121654819D02*
X176185714Y-121797676D01*
X176185714Y-121797676D02*
X176090476Y-121892914D01*
X176090476Y-121892914D02*
X175995238Y-121940533D01*
X165860571Y-133187700D02*
X167003429Y-133187700D01*
X166432000Y-133759128D02*
X166432000Y-132616271D01*
X175354819Y-67638094D02*
X174354819Y-67638094D01*
X174354819Y-67638094D02*
X174354819Y-67399999D01*
X174354819Y-67399999D02*
X174402438Y-67257142D01*
X174402438Y-67257142D02*
X174497676Y-67161904D01*
X174497676Y-67161904D02*
X174592914Y-67114285D01*
X174592914Y-67114285D02*
X174783390Y-67066666D01*
X174783390Y-67066666D02*
X174926247Y-67066666D01*
X174926247Y-67066666D02*
X175116723Y-67114285D01*
X175116723Y-67114285D02*
X175211961Y-67161904D01*
X175211961Y-67161904D02*
X175307200Y-67257142D01*
X175307200Y-67257142D02*
X175354819Y-67399999D01*
X175354819Y-67399999D02*
X175354819Y-67638094D01*
X174450057Y-66685713D02*
X174402438Y-66638094D01*
X174402438Y-66638094D02*
X174354819Y-66542856D01*
X174354819Y-66542856D02*
X174354819Y-66304761D01*
X174354819Y-66304761D02*
X174402438Y-66209523D01*
X174402438Y-66209523D02*
X174450057Y-66161904D01*
X174450057Y-66161904D02*
X174545295Y-66114285D01*
X174545295Y-66114285D02*
X174640533Y-66114285D01*
X174640533Y-66114285D02*
X174783390Y-66161904D01*
X174783390Y-66161904D02*
X175354819Y-66733332D01*
X175354819Y-66733332D02*
X175354819Y-66114285D01*
X131184819Y-147833333D02*
X131899104Y-147833333D01*
X131899104Y-147833333D02*
X132041961Y-147880952D01*
X132041961Y-147880952D02*
X132137200Y-147976190D01*
X132137200Y-147976190D02*
X132184819Y-148119047D01*
X132184819Y-148119047D02*
X132184819Y-148214285D01*
X131184819Y-147452380D02*
X131184819Y-146833333D01*
X131184819Y-146833333D02*
X131565771Y-147166666D01*
X131565771Y-147166666D02*
X131565771Y-147023809D01*
X131565771Y-147023809D02*
X131613390Y-146928571D01*
X131613390Y-146928571D02*
X131661009Y-146880952D01*
X131661009Y-146880952D02*
X131756247Y-146833333D01*
X131756247Y-146833333D02*
X131994342Y-146833333D01*
X131994342Y-146833333D02*
X132089580Y-146880952D01*
X132089580Y-146880952D02*
X132137200Y-146928571D01*
X132137200Y-146928571D02*
X132184819Y-147023809D01*
X132184819Y-147023809D02*
X132184819Y-147309523D01*
X132184819Y-147309523D02*
X132137200Y-147404761D01*
X132137200Y-147404761D02*
X132089580Y-147452380D01*
X173861905Y-83454819D02*
X173861905Y-82454819D01*
X173861905Y-82454819D02*
X174100000Y-82454819D01*
X174100000Y-82454819D02*
X174242857Y-82502438D01*
X174242857Y-82502438D02*
X174338095Y-82597676D01*
X174338095Y-82597676D02*
X174385714Y-82692914D01*
X174385714Y-82692914D02*
X174433333Y-82883390D01*
X174433333Y-82883390D02*
X174433333Y-83026247D01*
X174433333Y-83026247D02*
X174385714Y-83216723D01*
X174385714Y-83216723D02*
X174338095Y-83311961D01*
X174338095Y-83311961D02*
X174242857Y-83407200D01*
X174242857Y-83407200D02*
X174100000Y-83454819D01*
X174100000Y-83454819D02*
X173861905Y-83454819D01*
X174766667Y-82454819D02*
X175385714Y-82454819D01*
X175385714Y-82454819D02*
X175052381Y-82835771D01*
X175052381Y-82835771D02*
X175195238Y-82835771D01*
X175195238Y-82835771D02*
X175290476Y-82883390D01*
X175290476Y-82883390D02*
X175338095Y-82931009D01*
X175338095Y-82931009D02*
X175385714Y-83026247D01*
X175385714Y-83026247D02*
X175385714Y-83264342D01*
X175385714Y-83264342D02*
X175338095Y-83359580D01*
X175338095Y-83359580D02*
X175290476Y-83407200D01*
X175290476Y-83407200D02*
X175195238Y-83454819D01*
X175195238Y-83454819D02*
X174909524Y-83454819D01*
X174909524Y-83454819D02*
X174814286Y-83407200D01*
X174814286Y-83407200D02*
X174766667Y-83359580D01*
X141133333Y-65404819D02*
X140657143Y-65404819D01*
X140657143Y-65404819D02*
X140609524Y-65881009D01*
X140609524Y-65881009D02*
X140657143Y-65833390D01*
X140657143Y-65833390D02*
X140752381Y-65785771D01*
X140752381Y-65785771D02*
X140990476Y-65785771D01*
X140990476Y-65785771D02*
X141085714Y-65833390D01*
X141085714Y-65833390D02*
X141133333Y-65881009D01*
X141133333Y-65881009D02*
X141180952Y-65976247D01*
X141180952Y-65976247D02*
X141180952Y-66214342D01*
X141180952Y-66214342D02*
X141133333Y-66309580D01*
X141133333Y-66309580D02*
X141085714Y-66357200D01*
X141085714Y-66357200D02*
X140990476Y-66404819D01*
X140990476Y-66404819D02*
X140752381Y-66404819D01*
X140752381Y-66404819D02*
X140657143Y-66357200D01*
X140657143Y-66357200D02*
X140609524Y-66309580D01*
X141466667Y-65404819D02*
X141800000Y-66404819D01*
X141800000Y-66404819D02*
X142133333Y-65404819D01*
X142990476Y-66404819D02*
X142419048Y-66404819D01*
X142704762Y-66404819D02*
X142704762Y-65404819D01*
X142704762Y-65404819D02*
X142609524Y-65547676D01*
X142609524Y-65547676D02*
X142514286Y-65642914D01*
X142514286Y-65642914D02*
X142419048Y-65690533D01*
X127145238Y-137954819D02*
X127383333Y-138954819D01*
X127383333Y-138954819D02*
X127573809Y-138240533D01*
X127573809Y-138240533D02*
X127764285Y-138954819D01*
X127764285Y-138954819D02*
X128002381Y-137954819D01*
X128288095Y-137954819D02*
X128907142Y-137954819D01*
X128907142Y-137954819D02*
X128573809Y-138335771D01*
X128573809Y-138335771D02*
X128716666Y-138335771D01*
X128716666Y-138335771D02*
X128811904Y-138383390D01*
X128811904Y-138383390D02*
X128859523Y-138431009D01*
X128859523Y-138431009D02*
X128907142Y-138526247D01*
X128907142Y-138526247D02*
X128907142Y-138764342D01*
X128907142Y-138764342D02*
X128859523Y-138859580D01*
X128859523Y-138859580D02*
X128811904Y-138907200D01*
X128811904Y-138907200D02*
X128716666Y-138954819D01*
X128716666Y-138954819D02*
X128430952Y-138954819D01*
X128430952Y-138954819D02*
X128335714Y-138907200D01*
X128335714Y-138907200D02*
X128288095Y-138859580D01*
X159384819Y-107166666D02*
X158908628Y-107499999D01*
X159384819Y-107738094D02*
X158384819Y-107738094D01*
X158384819Y-107738094D02*
X158384819Y-107357142D01*
X158384819Y-107357142D02*
X158432438Y-107261904D01*
X158432438Y-107261904D02*
X158480057Y-107214285D01*
X158480057Y-107214285D02*
X158575295Y-107166666D01*
X158575295Y-107166666D02*
X158718152Y-107166666D01*
X158718152Y-107166666D02*
X158813390Y-107214285D01*
X158813390Y-107214285D02*
X158861009Y-107261904D01*
X158861009Y-107261904D02*
X158908628Y-107357142D01*
X158908628Y-107357142D02*
X158908628Y-107738094D01*
X158384819Y-106261904D02*
X158384819Y-106738094D01*
X158384819Y-106738094D02*
X158861009Y-106785713D01*
X158861009Y-106785713D02*
X158813390Y-106738094D01*
X158813390Y-106738094D02*
X158765771Y-106642856D01*
X158765771Y-106642856D02*
X158765771Y-106404761D01*
X158765771Y-106404761D02*
X158813390Y-106309523D01*
X158813390Y-106309523D02*
X158861009Y-106261904D01*
X158861009Y-106261904D02*
X158956247Y-106214285D01*
X158956247Y-106214285D02*
X159194342Y-106214285D01*
X159194342Y-106214285D02*
X159289580Y-106261904D01*
X159289580Y-106261904D02*
X159337200Y-106309523D01*
X159337200Y-106309523D02*
X159384819Y-106404761D01*
X159384819Y-106404761D02*
X159384819Y-106642856D01*
X159384819Y-106642856D02*
X159337200Y-106738094D01*
X159337200Y-106738094D02*
X159289580Y-106785713D01*
X165361905Y-84554819D02*
X165361905Y-83554819D01*
X165361905Y-83554819D02*
X165600000Y-83554819D01*
X165600000Y-83554819D02*
X165742857Y-83602438D01*
X165742857Y-83602438D02*
X165838095Y-83697676D01*
X165838095Y-83697676D02*
X165885714Y-83792914D01*
X165885714Y-83792914D02*
X165933333Y-83983390D01*
X165933333Y-83983390D02*
X165933333Y-84126247D01*
X165933333Y-84126247D02*
X165885714Y-84316723D01*
X165885714Y-84316723D02*
X165838095Y-84411961D01*
X165838095Y-84411961D02*
X165742857Y-84507200D01*
X165742857Y-84507200D02*
X165600000Y-84554819D01*
X165600000Y-84554819D02*
X165361905Y-84554819D01*
X166266667Y-83554819D02*
X166933333Y-83554819D01*
X166933333Y-83554819D02*
X166504762Y-84554819D01*
X147759819Y-141326189D02*
X146759819Y-141326189D01*
X147664580Y-140278571D02*
X147712200Y-140326190D01*
X147712200Y-140326190D02*
X147759819Y-140469047D01*
X147759819Y-140469047D02*
X147759819Y-140564285D01*
X147759819Y-140564285D02*
X147712200Y-140707142D01*
X147712200Y-140707142D02*
X147616961Y-140802380D01*
X147616961Y-140802380D02*
X147521723Y-140849999D01*
X147521723Y-140849999D02*
X147331247Y-140897618D01*
X147331247Y-140897618D02*
X147188390Y-140897618D01*
X147188390Y-140897618D02*
X146997914Y-140849999D01*
X146997914Y-140849999D02*
X146902676Y-140802380D01*
X146902676Y-140802380D02*
X146807438Y-140707142D01*
X146807438Y-140707142D02*
X146759819Y-140564285D01*
X146759819Y-140564285D02*
X146759819Y-140469047D01*
X146759819Y-140469047D02*
X146807438Y-140326190D01*
X146807438Y-140326190D02*
X146855057Y-140278571D01*
X147759819Y-139326190D02*
X147759819Y-139897618D01*
X147759819Y-139611904D02*
X146759819Y-139611904D01*
X146759819Y-139611904D02*
X146902676Y-139707142D01*
X146902676Y-139707142D02*
X146997914Y-139802380D01*
X146997914Y-139802380D02*
X147045533Y-139897618D01*
X119144819Y-124566666D02*
X118668628Y-124899999D01*
X119144819Y-125138094D02*
X118144819Y-125138094D01*
X118144819Y-125138094D02*
X118144819Y-124757142D01*
X118144819Y-124757142D02*
X118192438Y-124661904D01*
X118192438Y-124661904D02*
X118240057Y-124614285D01*
X118240057Y-124614285D02*
X118335295Y-124566666D01*
X118335295Y-124566666D02*
X118478152Y-124566666D01*
X118478152Y-124566666D02*
X118573390Y-124614285D01*
X118573390Y-124614285D02*
X118621009Y-124661904D01*
X118621009Y-124661904D02*
X118668628Y-124757142D01*
X118668628Y-124757142D02*
X118668628Y-125138094D01*
X119144819Y-123614285D02*
X119144819Y-124185713D01*
X119144819Y-123899999D02*
X118144819Y-123899999D01*
X118144819Y-123899999D02*
X118287676Y-123995237D01*
X118287676Y-123995237D02*
X118382914Y-124090475D01*
X118382914Y-124090475D02*
X118430533Y-124185713D01*
X187454819Y-78933333D02*
X188169104Y-78933333D01*
X188169104Y-78933333D02*
X188311961Y-78980952D01*
X188311961Y-78980952D02*
X188407200Y-79076190D01*
X188407200Y-79076190D02*
X188454819Y-79219047D01*
X188454819Y-79219047D02*
X188454819Y-79314285D01*
X187550057Y-78504761D02*
X187502438Y-78457142D01*
X187502438Y-78457142D02*
X187454819Y-78361904D01*
X187454819Y-78361904D02*
X187454819Y-78123809D01*
X187454819Y-78123809D02*
X187502438Y-78028571D01*
X187502438Y-78028571D02*
X187550057Y-77980952D01*
X187550057Y-77980952D02*
X187645295Y-77933333D01*
X187645295Y-77933333D02*
X187740533Y-77933333D01*
X187740533Y-77933333D02*
X187883390Y-77980952D01*
X187883390Y-77980952D02*
X188454819Y-78552380D01*
X188454819Y-78552380D02*
X188454819Y-77933333D01*
X134979819Y-124311904D02*
X135789342Y-124311904D01*
X135789342Y-124311904D02*
X135884580Y-124264285D01*
X135884580Y-124264285D02*
X135932200Y-124216666D01*
X135932200Y-124216666D02*
X135979819Y-124121428D01*
X135979819Y-124121428D02*
X135979819Y-123930952D01*
X135979819Y-123930952D02*
X135932200Y-123835714D01*
X135932200Y-123835714D02*
X135884580Y-123788095D01*
X135884580Y-123788095D02*
X135789342Y-123740476D01*
X135789342Y-123740476D02*
X134979819Y-123740476D01*
X135979819Y-122740476D02*
X135979819Y-123311904D01*
X135979819Y-123026190D02*
X134979819Y-123026190D01*
X134979819Y-123026190D02*
X135122676Y-123121428D01*
X135122676Y-123121428D02*
X135217914Y-123216666D01*
X135217914Y-123216666D02*
X135265533Y-123311904D01*
X142659580Y-86542857D02*
X142707200Y-86590476D01*
X142707200Y-86590476D02*
X142754819Y-86733333D01*
X142754819Y-86733333D02*
X142754819Y-86828571D01*
X142754819Y-86828571D02*
X142707200Y-86971428D01*
X142707200Y-86971428D02*
X142611961Y-87066666D01*
X142611961Y-87066666D02*
X142516723Y-87114285D01*
X142516723Y-87114285D02*
X142326247Y-87161904D01*
X142326247Y-87161904D02*
X142183390Y-87161904D01*
X142183390Y-87161904D02*
X141992914Y-87114285D01*
X141992914Y-87114285D02*
X141897676Y-87066666D01*
X141897676Y-87066666D02*
X141802438Y-86971428D01*
X141802438Y-86971428D02*
X141754819Y-86828571D01*
X141754819Y-86828571D02*
X141754819Y-86733333D01*
X141754819Y-86733333D02*
X141802438Y-86590476D01*
X141802438Y-86590476D02*
X141850057Y-86542857D01*
X142754819Y-85590476D02*
X142754819Y-86161904D01*
X142754819Y-85876190D02*
X141754819Y-85876190D01*
X141754819Y-85876190D02*
X141897676Y-85971428D01*
X141897676Y-85971428D02*
X141992914Y-86066666D01*
X141992914Y-86066666D02*
X142040533Y-86161904D01*
X142183390Y-85019047D02*
X142135771Y-85114285D01*
X142135771Y-85114285D02*
X142088152Y-85161904D01*
X142088152Y-85161904D02*
X141992914Y-85209523D01*
X141992914Y-85209523D02*
X141945295Y-85209523D01*
X141945295Y-85209523D02*
X141850057Y-85161904D01*
X141850057Y-85161904D02*
X141802438Y-85114285D01*
X141802438Y-85114285D02*
X141754819Y-85019047D01*
X141754819Y-85019047D02*
X141754819Y-84828571D01*
X141754819Y-84828571D02*
X141802438Y-84733333D01*
X141802438Y-84733333D02*
X141850057Y-84685714D01*
X141850057Y-84685714D02*
X141945295Y-84638095D01*
X141945295Y-84638095D02*
X141992914Y-84638095D01*
X141992914Y-84638095D02*
X142088152Y-84685714D01*
X142088152Y-84685714D02*
X142135771Y-84733333D01*
X142135771Y-84733333D02*
X142183390Y-84828571D01*
X142183390Y-84828571D02*
X142183390Y-85019047D01*
X142183390Y-85019047D02*
X142231009Y-85114285D01*
X142231009Y-85114285D02*
X142278628Y-85161904D01*
X142278628Y-85161904D02*
X142373866Y-85209523D01*
X142373866Y-85209523D02*
X142564342Y-85209523D01*
X142564342Y-85209523D02*
X142659580Y-85161904D01*
X142659580Y-85161904D02*
X142707200Y-85114285D01*
X142707200Y-85114285D02*
X142754819Y-85019047D01*
X142754819Y-85019047D02*
X142754819Y-84828571D01*
X142754819Y-84828571D02*
X142707200Y-84733333D01*
X142707200Y-84733333D02*
X142659580Y-84685714D01*
X142659580Y-84685714D02*
X142564342Y-84638095D01*
X142564342Y-84638095D02*
X142373866Y-84638095D01*
X142373866Y-84638095D02*
X142278628Y-84685714D01*
X142278628Y-84685714D02*
X142231009Y-84733333D01*
X142231009Y-84733333D02*
X142183390Y-84828571D01*
X106529580Y-101842857D02*
X106577200Y-101890476D01*
X106577200Y-101890476D02*
X106624819Y-102033333D01*
X106624819Y-102033333D02*
X106624819Y-102128571D01*
X106624819Y-102128571D02*
X106577200Y-102271428D01*
X106577200Y-102271428D02*
X106481961Y-102366666D01*
X106481961Y-102366666D02*
X106386723Y-102414285D01*
X106386723Y-102414285D02*
X106196247Y-102461904D01*
X106196247Y-102461904D02*
X106053390Y-102461904D01*
X106053390Y-102461904D02*
X105862914Y-102414285D01*
X105862914Y-102414285D02*
X105767676Y-102366666D01*
X105767676Y-102366666D02*
X105672438Y-102271428D01*
X105672438Y-102271428D02*
X105624819Y-102128571D01*
X105624819Y-102128571D02*
X105624819Y-102033333D01*
X105624819Y-102033333D02*
X105672438Y-101890476D01*
X105672438Y-101890476D02*
X105720057Y-101842857D01*
X105720057Y-101461904D02*
X105672438Y-101414285D01*
X105672438Y-101414285D02*
X105624819Y-101319047D01*
X105624819Y-101319047D02*
X105624819Y-101080952D01*
X105624819Y-101080952D02*
X105672438Y-100985714D01*
X105672438Y-100985714D02*
X105720057Y-100938095D01*
X105720057Y-100938095D02*
X105815295Y-100890476D01*
X105815295Y-100890476D02*
X105910533Y-100890476D01*
X105910533Y-100890476D02*
X106053390Y-100938095D01*
X106053390Y-100938095D02*
X106624819Y-101509523D01*
X106624819Y-101509523D02*
X106624819Y-100890476D01*
X105624819Y-100271428D02*
X105624819Y-100176190D01*
X105624819Y-100176190D02*
X105672438Y-100080952D01*
X105672438Y-100080952D02*
X105720057Y-100033333D01*
X105720057Y-100033333D02*
X105815295Y-99985714D01*
X105815295Y-99985714D02*
X106005771Y-99938095D01*
X106005771Y-99938095D02*
X106243866Y-99938095D01*
X106243866Y-99938095D02*
X106434342Y-99985714D01*
X106434342Y-99985714D02*
X106529580Y-100033333D01*
X106529580Y-100033333D02*
X106577200Y-100080952D01*
X106577200Y-100080952D02*
X106624819Y-100176190D01*
X106624819Y-100176190D02*
X106624819Y-100271428D01*
X106624819Y-100271428D02*
X106577200Y-100366666D01*
X106577200Y-100366666D02*
X106529580Y-100414285D01*
X106529580Y-100414285D02*
X106434342Y-100461904D01*
X106434342Y-100461904D02*
X106243866Y-100509523D01*
X106243866Y-100509523D02*
X106005771Y-100509523D01*
X106005771Y-100509523D02*
X105815295Y-100461904D01*
X105815295Y-100461904D02*
X105720057Y-100414285D01*
X105720057Y-100414285D02*
X105672438Y-100366666D01*
X105672438Y-100366666D02*
X105624819Y-100271428D01*
X162384819Y-107166666D02*
X161908628Y-107499999D01*
X162384819Y-107738094D02*
X161384819Y-107738094D01*
X161384819Y-107738094D02*
X161384819Y-107357142D01*
X161384819Y-107357142D02*
X161432438Y-107261904D01*
X161432438Y-107261904D02*
X161480057Y-107214285D01*
X161480057Y-107214285D02*
X161575295Y-107166666D01*
X161575295Y-107166666D02*
X161718152Y-107166666D01*
X161718152Y-107166666D02*
X161813390Y-107214285D01*
X161813390Y-107214285D02*
X161861009Y-107261904D01*
X161861009Y-107261904D02*
X161908628Y-107357142D01*
X161908628Y-107357142D02*
X161908628Y-107738094D01*
X161718152Y-106309523D02*
X162384819Y-106309523D01*
X161337200Y-106547618D02*
X162051485Y-106785713D01*
X162051485Y-106785713D02*
X162051485Y-106166666D01*
X172659580Y-75266666D02*
X172707200Y-75314285D01*
X172707200Y-75314285D02*
X172754819Y-75457142D01*
X172754819Y-75457142D02*
X172754819Y-75552380D01*
X172754819Y-75552380D02*
X172707200Y-75695237D01*
X172707200Y-75695237D02*
X172611961Y-75790475D01*
X172611961Y-75790475D02*
X172516723Y-75838094D01*
X172516723Y-75838094D02*
X172326247Y-75885713D01*
X172326247Y-75885713D02*
X172183390Y-75885713D01*
X172183390Y-75885713D02*
X171992914Y-75838094D01*
X171992914Y-75838094D02*
X171897676Y-75790475D01*
X171897676Y-75790475D02*
X171802438Y-75695237D01*
X171802438Y-75695237D02*
X171754819Y-75552380D01*
X171754819Y-75552380D02*
X171754819Y-75457142D01*
X171754819Y-75457142D02*
X171802438Y-75314285D01*
X171802438Y-75314285D02*
X171850057Y-75266666D01*
X171754819Y-74933332D02*
X171754819Y-74314285D01*
X171754819Y-74314285D02*
X172135771Y-74647618D01*
X172135771Y-74647618D02*
X172135771Y-74504761D01*
X172135771Y-74504761D02*
X172183390Y-74409523D01*
X172183390Y-74409523D02*
X172231009Y-74361904D01*
X172231009Y-74361904D02*
X172326247Y-74314285D01*
X172326247Y-74314285D02*
X172564342Y-74314285D01*
X172564342Y-74314285D02*
X172659580Y-74361904D01*
X172659580Y-74361904D02*
X172707200Y-74409523D01*
X172707200Y-74409523D02*
X172754819Y-74504761D01*
X172754819Y-74504761D02*
X172754819Y-74790475D01*
X172754819Y-74790475D02*
X172707200Y-74885713D01*
X172707200Y-74885713D02*
X172659580Y-74933332D01*
X155733333Y-73954819D02*
X155400000Y-73478628D01*
X155161905Y-73954819D02*
X155161905Y-72954819D01*
X155161905Y-72954819D02*
X155542857Y-72954819D01*
X155542857Y-72954819D02*
X155638095Y-73002438D01*
X155638095Y-73002438D02*
X155685714Y-73050057D01*
X155685714Y-73050057D02*
X155733333Y-73145295D01*
X155733333Y-73145295D02*
X155733333Y-73288152D01*
X155733333Y-73288152D02*
X155685714Y-73383390D01*
X155685714Y-73383390D02*
X155638095Y-73431009D01*
X155638095Y-73431009D02*
X155542857Y-73478628D01*
X155542857Y-73478628D02*
X155161905Y-73478628D01*
X156114286Y-73050057D02*
X156161905Y-73002438D01*
X156161905Y-73002438D02*
X156257143Y-72954819D01*
X156257143Y-72954819D02*
X156495238Y-72954819D01*
X156495238Y-72954819D02*
X156590476Y-73002438D01*
X156590476Y-73002438D02*
X156638095Y-73050057D01*
X156638095Y-73050057D02*
X156685714Y-73145295D01*
X156685714Y-73145295D02*
X156685714Y-73240533D01*
X156685714Y-73240533D02*
X156638095Y-73383390D01*
X156638095Y-73383390D02*
X156066667Y-73954819D01*
X156066667Y-73954819D02*
X156685714Y-73954819D01*
X133438095Y-85454819D02*
X133438095Y-86264342D01*
X133438095Y-86264342D02*
X133485714Y-86359580D01*
X133485714Y-86359580D02*
X133533333Y-86407200D01*
X133533333Y-86407200D02*
X133628571Y-86454819D01*
X133628571Y-86454819D02*
X133819047Y-86454819D01*
X133819047Y-86454819D02*
X133914285Y-86407200D01*
X133914285Y-86407200D02*
X133961904Y-86359580D01*
X133961904Y-86359580D02*
X134009523Y-86264342D01*
X134009523Y-86264342D02*
X134009523Y-85454819D01*
X134914285Y-85788152D02*
X134914285Y-86454819D01*
X134676190Y-85407200D02*
X134438095Y-86121485D01*
X134438095Y-86121485D02*
X135057142Y-86121485D01*
X154154819Y-76366666D02*
X153678628Y-76699999D01*
X154154819Y-76938094D02*
X153154819Y-76938094D01*
X153154819Y-76938094D02*
X153154819Y-76557142D01*
X153154819Y-76557142D02*
X153202438Y-76461904D01*
X153202438Y-76461904D02*
X153250057Y-76414285D01*
X153250057Y-76414285D02*
X153345295Y-76366666D01*
X153345295Y-76366666D02*
X153488152Y-76366666D01*
X153488152Y-76366666D02*
X153583390Y-76414285D01*
X153583390Y-76414285D02*
X153631009Y-76461904D01*
X153631009Y-76461904D02*
X153678628Y-76557142D01*
X153678628Y-76557142D02*
X153678628Y-76938094D01*
X153154819Y-76033332D02*
X153154819Y-75366666D01*
X153154819Y-75366666D02*
X154154819Y-75795237D01*
X140859580Y-86542857D02*
X140907200Y-86590476D01*
X140907200Y-86590476D02*
X140954819Y-86733333D01*
X140954819Y-86733333D02*
X140954819Y-86828571D01*
X140954819Y-86828571D02*
X140907200Y-86971428D01*
X140907200Y-86971428D02*
X140811961Y-87066666D01*
X140811961Y-87066666D02*
X140716723Y-87114285D01*
X140716723Y-87114285D02*
X140526247Y-87161904D01*
X140526247Y-87161904D02*
X140383390Y-87161904D01*
X140383390Y-87161904D02*
X140192914Y-87114285D01*
X140192914Y-87114285D02*
X140097676Y-87066666D01*
X140097676Y-87066666D02*
X140002438Y-86971428D01*
X140002438Y-86971428D02*
X139954819Y-86828571D01*
X139954819Y-86828571D02*
X139954819Y-86733333D01*
X139954819Y-86733333D02*
X140002438Y-86590476D01*
X140002438Y-86590476D02*
X140050057Y-86542857D01*
X140954819Y-85590476D02*
X140954819Y-86161904D01*
X140954819Y-85876190D02*
X139954819Y-85876190D01*
X139954819Y-85876190D02*
X140097676Y-85971428D01*
X140097676Y-85971428D02*
X140192914Y-86066666D01*
X140192914Y-86066666D02*
X140240533Y-86161904D01*
X139954819Y-85257142D02*
X139954819Y-84590476D01*
X139954819Y-84590476D02*
X140954819Y-85019047D01*
X109484819Y-97166666D02*
X109008628Y-97499999D01*
X109484819Y-97738094D02*
X108484819Y-97738094D01*
X108484819Y-97738094D02*
X108484819Y-97357142D01*
X108484819Y-97357142D02*
X108532438Y-97261904D01*
X108532438Y-97261904D02*
X108580057Y-97214285D01*
X108580057Y-97214285D02*
X108675295Y-97166666D01*
X108675295Y-97166666D02*
X108818152Y-97166666D01*
X108818152Y-97166666D02*
X108913390Y-97214285D01*
X108913390Y-97214285D02*
X108961009Y-97261904D01*
X108961009Y-97261904D02*
X109008628Y-97357142D01*
X109008628Y-97357142D02*
X109008628Y-97738094D01*
X109484819Y-96690475D02*
X109484819Y-96499999D01*
X109484819Y-96499999D02*
X109437200Y-96404761D01*
X109437200Y-96404761D02*
X109389580Y-96357142D01*
X109389580Y-96357142D02*
X109246723Y-96261904D01*
X109246723Y-96261904D02*
X109056247Y-96214285D01*
X109056247Y-96214285D02*
X108675295Y-96214285D01*
X108675295Y-96214285D02*
X108580057Y-96261904D01*
X108580057Y-96261904D02*
X108532438Y-96309523D01*
X108532438Y-96309523D02*
X108484819Y-96404761D01*
X108484819Y-96404761D02*
X108484819Y-96595237D01*
X108484819Y-96595237D02*
X108532438Y-96690475D01*
X108532438Y-96690475D02*
X108580057Y-96738094D01*
X108580057Y-96738094D02*
X108675295Y-96785713D01*
X108675295Y-96785713D02*
X108913390Y-96785713D01*
X108913390Y-96785713D02*
X109008628Y-96738094D01*
X109008628Y-96738094D02*
X109056247Y-96690475D01*
X109056247Y-96690475D02*
X109103866Y-96595237D01*
X109103866Y-96595237D02*
X109103866Y-96404761D01*
X109103866Y-96404761D02*
X109056247Y-96309523D01*
X109056247Y-96309523D02*
X109008628Y-96261904D01*
X109008628Y-96261904D02*
X108913390Y-96214285D01*
X165261905Y-75254819D02*
X165261905Y-74254819D01*
X165261905Y-74254819D02*
X165500000Y-74254819D01*
X165500000Y-74254819D02*
X165642857Y-74302438D01*
X165642857Y-74302438D02*
X165738095Y-74397676D01*
X165738095Y-74397676D02*
X165785714Y-74492914D01*
X165785714Y-74492914D02*
X165833333Y-74683390D01*
X165833333Y-74683390D02*
X165833333Y-74826247D01*
X165833333Y-74826247D02*
X165785714Y-75016723D01*
X165785714Y-75016723D02*
X165738095Y-75111961D01*
X165738095Y-75111961D02*
X165642857Y-75207200D01*
X165642857Y-75207200D02*
X165500000Y-75254819D01*
X165500000Y-75254819D02*
X165261905Y-75254819D01*
X166690476Y-74254819D02*
X166500000Y-74254819D01*
X166500000Y-74254819D02*
X166404762Y-74302438D01*
X166404762Y-74302438D02*
X166357143Y-74350057D01*
X166357143Y-74350057D02*
X166261905Y-74492914D01*
X166261905Y-74492914D02*
X166214286Y-74683390D01*
X166214286Y-74683390D02*
X166214286Y-75064342D01*
X166214286Y-75064342D02*
X166261905Y-75159580D01*
X166261905Y-75159580D02*
X166309524Y-75207200D01*
X166309524Y-75207200D02*
X166404762Y-75254819D01*
X166404762Y-75254819D02*
X166595238Y-75254819D01*
X166595238Y-75254819D02*
X166690476Y-75207200D01*
X166690476Y-75207200D02*
X166738095Y-75159580D01*
X166738095Y-75159580D02*
X166785714Y-75064342D01*
X166785714Y-75064342D02*
X166785714Y-74826247D01*
X166785714Y-74826247D02*
X166738095Y-74731009D01*
X166738095Y-74731009D02*
X166690476Y-74683390D01*
X166690476Y-74683390D02*
X166595238Y-74635771D01*
X166595238Y-74635771D02*
X166404762Y-74635771D01*
X166404762Y-74635771D02*
X166309524Y-74683390D01*
X166309524Y-74683390D02*
X166261905Y-74731009D01*
X166261905Y-74731009D02*
X166214286Y-74826247D01*
X145857142Y-148559580D02*
X145809523Y-148607200D01*
X145809523Y-148607200D02*
X145666666Y-148654819D01*
X145666666Y-148654819D02*
X145571428Y-148654819D01*
X145571428Y-148654819D02*
X145428571Y-148607200D01*
X145428571Y-148607200D02*
X145333333Y-148511961D01*
X145333333Y-148511961D02*
X145285714Y-148416723D01*
X145285714Y-148416723D02*
X145238095Y-148226247D01*
X145238095Y-148226247D02*
X145238095Y-148083390D01*
X145238095Y-148083390D02*
X145285714Y-147892914D01*
X145285714Y-147892914D02*
X145333333Y-147797676D01*
X145333333Y-147797676D02*
X145428571Y-147702438D01*
X145428571Y-147702438D02*
X145571428Y-147654819D01*
X145571428Y-147654819D02*
X145666666Y-147654819D01*
X145666666Y-147654819D02*
X145809523Y-147702438D01*
X145809523Y-147702438D02*
X145857142Y-147750057D01*
X146809523Y-148654819D02*
X146238095Y-148654819D01*
X146523809Y-148654819D02*
X146523809Y-147654819D01*
X146523809Y-147654819D02*
X146428571Y-147797676D01*
X146428571Y-147797676D02*
X146333333Y-147892914D01*
X146333333Y-147892914D02*
X146238095Y-147940533D01*
X147666666Y-147988152D02*
X147666666Y-148654819D01*
X147428571Y-147607200D02*
X147190476Y-148321485D01*
X147190476Y-148321485D02*
X147809523Y-148321485D01*
X155659580Y-71466666D02*
X155707200Y-71514285D01*
X155707200Y-71514285D02*
X155754819Y-71657142D01*
X155754819Y-71657142D02*
X155754819Y-71752380D01*
X155754819Y-71752380D02*
X155707200Y-71895237D01*
X155707200Y-71895237D02*
X155611961Y-71990475D01*
X155611961Y-71990475D02*
X155516723Y-72038094D01*
X155516723Y-72038094D02*
X155326247Y-72085713D01*
X155326247Y-72085713D02*
X155183390Y-72085713D01*
X155183390Y-72085713D02*
X154992914Y-72038094D01*
X154992914Y-72038094D02*
X154897676Y-71990475D01*
X154897676Y-71990475D02*
X154802438Y-71895237D01*
X154802438Y-71895237D02*
X154754819Y-71752380D01*
X154754819Y-71752380D02*
X154754819Y-71657142D01*
X154754819Y-71657142D02*
X154802438Y-71514285D01*
X154802438Y-71514285D02*
X154850057Y-71466666D01*
X155754819Y-70990475D02*
X155754819Y-70799999D01*
X155754819Y-70799999D02*
X155707200Y-70704761D01*
X155707200Y-70704761D02*
X155659580Y-70657142D01*
X155659580Y-70657142D02*
X155516723Y-70561904D01*
X155516723Y-70561904D02*
X155326247Y-70514285D01*
X155326247Y-70514285D02*
X154945295Y-70514285D01*
X154945295Y-70514285D02*
X154850057Y-70561904D01*
X154850057Y-70561904D02*
X154802438Y-70609523D01*
X154802438Y-70609523D02*
X154754819Y-70704761D01*
X154754819Y-70704761D02*
X154754819Y-70895237D01*
X154754819Y-70895237D02*
X154802438Y-70990475D01*
X154802438Y-70990475D02*
X154850057Y-71038094D01*
X154850057Y-71038094D02*
X154945295Y-71085713D01*
X154945295Y-71085713D02*
X155183390Y-71085713D01*
X155183390Y-71085713D02*
X155278628Y-71038094D01*
X155278628Y-71038094D02*
X155326247Y-70990475D01*
X155326247Y-70990475D02*
X155373866Y-70895237D01*
X155373866Y-70895237D02*
X155373866Y-70704761D01*
X155373866Y-70704761D02*
X155326247Y-70609523D01*
X155326247Y-70609523D02*
X155278628Y-70561904D01*
X155278628Y-70561904D02*
X155183390Y-70514285D01*
X153159580Y-71642857D02*
X153207200Y-71690476D01*
X153207200Y-71690476D02*
X153254819Y-71833333D01*
X153254819Y-71833333D02*
X153254819Y-71928571D01*
X153254819Y-71928571D02*
X153207200Y-72071428D01*
X153207200Y-72071428D02*
X153111961Y-72166666D01*
X153111961Y-72166666D02*
X153016723Y-72214285D01*
X153016723Y-72214285D02*
X152826247Y-72261904D01*
X152826247Y-72261904D02*
X152683390Y-72261904D01*
X152683390Y-72261904D02*
X152492914Y-72214285D01*
X152492914Y-72214285D02*
X152397676Y-72166666D01*
X152397676Y-72166666D02*
X152302438Y-72071428D01*
X152302438Y-72071428D02*
X152254819Y-71928571D01*
X152254819Y-71928571D02*
X152254819Y-71833333D01*
X152254819Y-71833333D02*
X152302438Y-71690476D01*
X152302438Y-71690476D02*
X152350057Y-71642857D01*
X153254819Y-70690476D02*
X153254819Y-71261904D01*
X153254819Y-70976190D02*
X152254819Y-70976190D01*
X152254819Y-70976190D02*
X152397676Y-71071428D01*
X152397676Y-71071428D02*
X152492914Y-71166666D01*
X152492914Y-71166666D02*
X152540533Y-71261904D01*
X152350057Y-70309523D02*
X152302438Y-70261904D01*
X152302438Y-70261904D02*
X152254819Y-70166666D01*
X152254819Y-70166666D02*
X152254819Y-69928571D01*
X152254819Y-69928571D02*
X152302438Y-69833333D01*
X152302438Y-69833333D02*
X152350057Y-69785714D01*
X152350057Y-69785714D02*
X152445295Y-69738095D01*
X152445295Y-69738095D02*
X152540533Y-69738095D01*
X152540533Y-69738095D02*
X152683390Y-69785714D01*
X152683390Y-69785714D02*
X153254819Y-70357142D01*
X153254819Y-70357142D02*
X153254819Y-69738095D01*
X156357142Y-148854819D02*
X156023809Y-148378628D01*
X155785714Y-148854819D02*
X155785714Y-147854819D01*
X155785714Y-147854819D02*
X156166666Y-147854819D01*
X156166666Y-147854819D02*
X156261904Y-147902438D01*
X156261904Y-147902438D02*
X156309523Y-147950057D01*
X156309523Y-147950057D02*
X156357142Y-148045295D01*
X156357142Y-148045295D02*
X156357142Y-148188152D01*
X156357142Y-148188152D02*
X156309523Y-148283390D01*
X156309523Y-148283390D02*
X156261904Y-148331009D01*
X156261904Y-148331009D02*
X156166666Y-148378628D01*
X156166666Y-148378628D02*
X155785714Y-148378628D01*
X157309523Y-148854819D02*
X156738095Y-148854819D01*
X157023809Y-148854819D02*
X157023809Y-147854819D01*
X157023809Y-147854819D02*
X156928571Y-147997676D01*
X156928571Y-147997676D02*
X156833333Y-148092914D01*
X156833333Y-148092914D02*
X156738095Y-148140533D01*
X157928571Y-147854819D02*
X158023809Y-147854819D01*
X158023809Y-147854819D02*
X158119047Y-147902438D01*
X158119047Y-147902438D02*
X158166666Y-147950057D01*
X158166666Y-147950057D02*
X158214285Y-148045295D01*
X158214285Y-148045295D02*
X158261904Y-148235771D01*
X158261904Y-148235771D02*
X158261904Y-148473866D01*
X158261904Y-148473866D02*
X158214285Y-148664342D01*
X158214285Y-148664342D02*
X158166666Y-148759580D01*
X158166666Y-148759580D02*
X158119047Y-148807200D01*
X158119047Y-148807200D02*
X158023809Y-148854819D01*
X158023809Y-148854819D02*
X157928571Y-148854819D01*
X157928571Y-148854819D02*
X157833333Y-148807200D01*
X157833333Y-148807200D02*
X157785714Y-148759580D01*
X157785714Y-148759580D02*
X157738095Y-148664342D01*
X157738095Y-148664342D02*
X157690476Y-148473866D01*
X157690476Y-148473866D02*
X157690476Y-148235771D01*
X157690476Y-148235771D02*
X157738095Y-148045295D01*
X157738095Y-148045295D02*
X157785714Y-147950057D01*
X157785714Y-147950057D02*
X157833333Y-147902438D01*
X157833333Y-147902438D02*
X157928571Y-147854819D01*
X171261905Y-119054819D02*
X171880952Y-119054819D01*
X171880952Y-119054819D02*
X171547619Y-119435771D01*
X171547619Y-119435771D02*
X171690476Y-119435771D01*
X171690476Y-119435771D02*
X171785714Y-119483390D01*
X171785714Y-119483390D02*
X171833333Y-119531009D01*
X171833333Y-119531009D02*
X171880952Y-119626247D01*
X171880952Y-119626247D02*
X171880952Y-119864342D01*
X171880952Y-119864342D02*
X171833333Y-119959580D01*
X171833333Y-119959580D02*
X171785714Y-120007200D01*
X171785714Y-120007200D02*
X171690476Y-120054819D01*
X171690476Y-120054819D02*
X171404762Y-120054819D01*
X171404762Y-120054819D02*
X171309524Y-120007200D01*
X171309524Y-120007200D02*
X171261905Y-119959580D01*
X172166667Y-119054819D02*
X172500000Y-120054819D01*
X172500000Y-120054819D02*
X172833333Y-119054819D01*
X173071429Y-119054819D02*
X173690476Y-119054819D01*
X173690476Y-119054819D02*
X173357143Y-119435771D01*
X173357143Y-119435771D02*
X173500000Y-119435771D01*
X173500000Y-119435771D02*
X173595238Y-119483390D01*
X173595238Y-119483390D02*
X173642857Y-119531009D01*
X173642857Y-119531009D02*
X173690476Y-119626247D01*
X173690476Y-119626247D02*
X173690476Y-119864342D01*
X173690476Y-119864342D02*
X173642857Y-119959580D01*
X173642857Y-119959580D02*
X173595238Y-120007200D01*
X173595238Y-120007200D02*
X173500000Y-120054819D01*
X173500000Y-120054819D02*
X173214286Y-120054819D01*
X173214286Y-120054819D02*
X173119048Y-120007200D01*
X173119048Y-120007200D02*
X173071429Y-119959580D01*
X118724819Y-120638094D02*
X117724819Y-120638094D01*
X117724819Y-120638094D02*
X117724819Y-120399999D01*
X117724819Y-120399999D02*
X117772438Y-120257142D01*
X117772438Y-120257142D02*
X117867676Y-120161904D01*
X117867676Y-120161904D02*
X117962914Y-120114285D01*
X117962914Y-120114285D02*
X118153390Y-120066666D01*
X118153390Y-120066666D02*
X118296247Y-120066666D01*
X118296247Y-120066666D02*
X118486723Y-120114285D01*
X118486723Y-120114285D02*
X118581961Y-120161904D01*
X118581961Y-120161904D02*
X118677200Y-120257142D01*
X118677200Y-120257142D02*
X118724819Y-120399999D01*
X118724819Y-120399999D02*
X118724819Y-120638094D01*
X118724819Y-119114285D02*
X118724819Y-119685713D01*
X118724819Y-119399999D02*
X117724819Y-119399999D01*
X117724819Y-119399999D02*
X117867676Y-119495237D01*
X117867676Y-119495237D02*
X117962914Y-119590475D01*
X117962914Y-119590475D02*
X118010533Y-119685713D01*
X171633333Y-82159580D02*
X171585714Y-82207200D01*
X171585714Y-82207200D02*
X171442857Y-82254819D01*
X171442857Y-82254819D02*
X171347619Y-82254819D01*
X171347619Y-82254819D02*
X171204762Y-82207200D01*
X171204762Y-82207200D02*
X171109524Y-82111961D01*
X171109524Y-82111961D02*
X171061905Y-82016723D01*
X171061905Y-82016723D02*
X171014286Y-81826247D01*
X171014286Y-81826247D02*
X171014286Y-81683390D01*
X171014286Y-81683390D02*
X171061905Y-81492914D01*
X171061905Y-81492914D02*
X171109524Y-81397676D01*
X171109524Y-81397676D02*
X171204762Y-81302438D01*
X171204762Y-81302438D02*
X171347619Y-81254819D01*
X171347619Y-81254819D02*
X171442857Y-81254819D01*
X171442857Y-81254819D02*
X171585714Y-81302438D01*
X171585714Y-81302438D02*
X171633333Y-81350057D01*
X172490476Y-81588152D02*
X172490476Y-82254819D01*
X172252381Y-81207200D02*
X172014286Y-81921485D01*
X172014286Y-81921485D02*
X172633333Y-81921485D01*
X156154819Y-112238094D02*
X155154819Y-112238094D01*
X155154819Y-112238094D02*
X155154819Y-111999999D01*
X155154819Y-111999999D02*
X155202438Y-111857142D01*
X155202438Y-111857142D02*
X155297676Y-111761904D01*
X155297676Y-111761904D02*
X155392914Y-111714285D01*
X155392914Y-111714285D02*
X155583390Y-111666666D01*
X155583390Y-111666666D02*
X155726247Y-111666666D01*
X155726247Y-111666666D02*
X155916723Y-111714285D01*
X155916723Y-111714285D02*
X156011961Y-111761904D01*
X156011961Y-111761904D02*
X156107200Y-111857142D01*
X156107200Y-111857142D02*
X156154819Y-111999999D01*
X156154819Y-111999999D02*
X156154819Y-112238094D01*
X156154819Y-111190475D02*
X156154819Y-110999999D01*
X156154819Y-110999999D02*
X156107200Y-110904761D01*
X156107200Y-110904761D02*
X156059580Y-110857142D01*
X156059580Y-110857142D02*
X155916723Y-110761904D01*
X155916723Y-110761904D02*
X155726247Y-110714285D01*
X155726247Y-110714285D02*
X155345295Y-110714285D01*
X155345295Y-110714285D02*
X155250057Y-110761904D01*
X155250057Y-110761904D02*
X155202438Y-110809523D01*
X155202438Y-110809523D02*
X155154819Y-110904761D01*
X155154819Y-110904761D02*
X155154819Y-111095237D01*
X155154819Y-111095237D02*
X155202438Y-111190475D01*
X155202438Y-111190475D02*
X155250057Y-111238094D01*
X155250057Y-111238094D02*
X155345295Y-111285713D01*
X155345295Y-111285713D02*
X155583390Y-111285713D01*
X155583390Y-111285713D02*
X155678628Y-111238094D01*
X155678628Y-111238094D02*
X155726247Y-111190475D01*
X155726247Y-111190475D02*
X155773866Y-111095237D01*
X155773866Y-111095237D02*
X155773866Y-110904761D01*
X155773866Y-110904761D02*
X155726247Y-110809523D01*
X155726247Y-110809523D02*
X155678628Y-110761904D01*
X155678628Y-110761904D02*
X155583390Y-110714285D01*
X160285714Y-64454819D02*
X160285714Y-63454819D01*
X160285714Y-63454819D02*
X160523809Y-63454819D01*
X160523809Y-63454819D02*
X160666666Y-63502438D01*
X160666666Y-63502438D02*
X160761904Y-63597676D01*
X160761904Y-63597676D02*
X160809523Y-63692914D01*
X160809523Y-63692914D02*
X160857142Y-63883390D01*
X160857142Y-63883390D02*
X160857142Y-64026247D01*
X160857142Y-64026247D02*
X160809523Y-64216723D01*
X160809523Y-64216723D02*
X160761904Y-64311961D01*
X160761904Y-64311961D02*
X160666666Y-64407200D01*
X160666666Y-64407200D02*
X160523809Y-64454819D01*
X160523809Y-64454819D02*
X160285714Y-64454819D01*
X161809523Y-64454819D02*
X161238095Y-64454819D01*
X161523809Y-64454819D02*
X161523809Y-63454819D01*
X161523809Y-63454819D02*
X161428571Y-63597676D01*
X161428571Y-63597676D02*
X161333333Y-63692914D01*
X161333333Y-63692914D02*
X161238095Y-63740533D01*
X162428571Y-63454819D02*
X162523809Y-63454819D01*
X162523809Y-63454819D02*
X162619047Y-63502438D01*
X162619047Y-63502438D02*
X162666666Y-63550057D01*
X162666666Y-63550057D02*
X162714285Y-63645295D01*
X162714285Y-63645295D02*
X162761904Y-63835771D01*
X162761904Y-63835771D02*
X162761904Y-64073866D01*
X162761904Y-64073866D02*
X162714285Y-64264342D01*
X162714285Y-64264342D02*
X162666666Y-64359580D01*
X162666666Y-64359580D02*
X162619047Y-64407200D01*
X162619047Y-64407200D02*
X162523809Y-64454819D01*
X162523809Y-64454819D02*
X162428571Y-64454819D01*
X162428571Y-64454819D02*
X162333333Y-64407200D01*
X162333333Y-64407200D02*
X162285714Y-64359580D01*
X162285714Y-64359580D02*
X162238095Y-64264342D01*
X162238095Y-64264342D02*
X162190476Y-64073866D01*
X162190476Y-64073866D02*
X162190476Y-63835771D01*
X162190476Y-63835771D02*
X162238095Y-63645295D01*
X162238095Y-63645295D02*
X162285714Y-63550057D01*
X162285714Y-63550057D02*
X162333333Y-63502438D01*
X162333333Y-63502438D02*
X162428571Y-63454819D01*
X145357142Y-65509580D02*
X145309523Y-65557200D01*
X145309523Y-65557200D02*
X145166666Y-65604819D01*
X145166666Y-65604819D02*
X145071428Y-65604819D01*
X145071428Y-65604819D02*
X144928571Y-65557200D01*
X144928571Y-65557200D02*
X144833333Y-65461961D01*
X144833333Y-65461961D02*
X144785714Y-65366723D01*
X144785714Y-65366723D02*
X144738095Y-65176247D01*
X144738095Y-65176247D02*
X144738095Y-65033390D01*
X144738095Y-65033390D02*
X144785714Y-64842914D01*
X144785714Y-64842914D02*
X144833333Y-64747676D01*
X144833333Y-64747676D02*
X144928571Y-64652438D01*
X144928571Y-64652438D02*
X145071428Y-64604819D01*
X145071428Y-64604819D02*
X145166666Y-64604819D01*
X145166666Y-64604819D02*
X145309523Y-64652438D01*
X145309523Y-64652438D02*
X145357142Y-64700057D01*
X146309523Y-65604819D02*
X145738095Y-65604819D01*
X146023809Y-65604819D02*
X146023809Y-64604819D01*
X146023809Y-64604819D02*
X145928571Y-64747676D01*
X145928571Y-64747676D02*
X145833333Y-64842914D01*
X145833333Y-64842914D02*
X145738095Y-64890533D01*
X146642857Y-64604819D02*
X147261904Y-64604819D01*
X147261904Y-64604819D02*
X146928571Y-64985771D01*
X146928571Y-64985771D02*
X147071428Y-64985771D01*
X147071428Y-64985771D02*
X147166666Y-65033390D01*
X147166666Y-65033390D02*
X147214285Y-65081009D01*
X147214285Y-65081009D02*
X147261904Y-65176247D01*
X147261904Y-65176247D02*
X147261904Y-65414342D01*
X147261904Y-65414342D02*
X147214285Y-65509580D01*
X147214285Y-65509580D02*
X147166666Y-65557200D01*
X147166666Y-65557200D02*
X147071428Y-65604819D01*
X147071428Y-65604819D02*
X146785714Y-65604819D01*
X146785714Y-65604819D02*
X146690476Y-65557200D01*
X146690476Y-65557200D02*
X146642857Y-65509580D01*
X185561905Y-80154819D02*
X185561905Y-79154819D01*
X185561905Y-79154819D02*
X185800000Y-79154819D01*
X185800000Y-79154819D02*
X185942857Y-79202438D01*
X185942857Y-79202438D02*
X186038095Y-79297676D01*
X186038095Y-79297676D02*
X186085714Y-79392914D01*
X186085714Y-79392914D02*
X186133333Y-79583390D01*
X186133333Y-79583390D02*
X186133333Y-79726247D01*
X186133333Y-79726247D02*
X186085714Y-79916723D01*
X186085714Y-79916723D02*
X186038095Y-80011961D01*
X186038095Y-80011961D02*
X185942857Y-80107200D01*
X185942857Y-80107200D02*
X185800000Y-80154819D01*
X185800000Y-80154819D02*
X185561905Y-80154819D01*
X186990476Y-79488152D02*
X186990476Y-80154819D01*
X186752381Y-79107200D02*
X186514286Y-79821485D01*
X186514286Y-79821485D02*
X187133333Y-79821485D01*
X162538095Y-82054819D02*
X162538095Y-82864342D01*
X162538095Y-82864342D02*
X162585714Y-82959580D01*
X162585714Y-82959580D02*
X162633333Y-83007200D01*
X162633333Y-83007200D02*
X162728571Y-83054819D01*
X162728571Y-83054819D02*
X162919047Y-83054819D01*
X162919047Y-83054819D02*
X163014285Y-83007200D01*
X163014285Y-83007200D02*
X163061904Y-82959580D01*
X163061904Y-82959580D02*
X163109523Y-82864342D01*
X163109523Y-82864342D02*
X163109523Y-82054819D01*
X163538095Y-82150057D02*
X163585714Y-82102438D01*
X163585714Y-82102438D02*
X163680952Y-82054819D01*
X163680952Y-82054819D02*
X163919047Y-82054819D01*
X163919047Y-82054819D02*
X164014285Y-82102438D01*
X164014285Y-82102438D02*
X164061904Y-82150057D01*
X164061904Y-82150057D02*
X164109523Y-82245295D01*
X164109523Y-82245295D02*
X164109523Y-82340533D01*
X164109523Y-82340533D02*
X164061904Y-82483390D01*
X164061904Y-82483390D02*
X163490476Y-83054819D01*
X163490476Y-83054819D02*
X164109523Y-83054819D01*
D13*
%TO.C,SW1*%
X101750000Y-126250000D02*
X101750000Y-131500000D01*
X101750000Y-136750000D02*
X101750000Y-135500000D01*
X102300000Y-126250000D02*
X101750000Y-126250000D01*
X102300000Y-136750000D02*
X101750000Y-136750000D01*
X111700000Y-126250000D02*
X112250000Y-126250000D01*
X111700000Y-136750000D02*
X112250000Y-136750000D01*
X112250000Y-126250000D02*
X112250000Y-127500000D01*
X112250000Y-136750000D02*
X112250000Y-135500000D01*
%TO.C,C5*%
X137840580Y-115790000D02*
X137559420Y-115790000D01*
X137840580Y-116810000D02*
X137559420Y-116810000D01*
%TO.C,C10*%
X155990000Y-77359420D02*
X155990000Y-77640580D01*
X157010000Y-77359420D02*
X157010000Y-77640580D01*
%TO.C,R8*%
X156120000Y-80346359D02*
X156120000Y-80653641D01*
X156880000Y-80346359D02*
X156880000Y-80653641D01*
D10*
%TO.C,W1*%
X115680000Y-140100000D02*
X116180000Y-139600000D01*
X115680000Y-140900000D02*
X115680000Y-140100000D01*
X116180000Y-139600000D02*
X119780000Y-139600000D01*
X116180000Y-141400000D02*
X115680000Y-140900000D01*
X119780000Y-139600000D02*
X120280000Y-140100000D01*
X119780000Y-141400000D02*
X116180000Y-141400000D01*
X120280000Y-140100000D02*
X120280000Y-140900000D01*
X120280000Y-140900000D02*
X119780000Y-141400000D01*
D13*
%TO.C,C15*%
X141562500Y-75452500D02*
X142350000Y-75452500D01*
X141956250Y-75058750D02*
X141956250Y-75846250D01*
X142590000Y-74954437D02*
X142590000Y-76240000D01*
X142590000Y-74954437D02*
X143654437Y-73890000D01*
X142590000Y-79645563D02*
X142590000Y-78360000D01*
X142590000Y-79645563D02*
X143654437Y-80710000D01*
X143654437Y-73890000D02*
X149410000Y-73890000D01*
X143654437Y-80710000D02*
X149410000Y-80710000D01*
X149410000Y-73890000D02*
X149410000Y-76240000D01*
X149410000Y-80710000D02*
X149410000Y-78360000D01*
%TO.C,C16*%
X156990000Y-70859420D02*
X156990000Y-71140580D01*
X158010000Y-70859420D02*
X158010000Y-71140580D01*
%TO.C,J1*%
X181940000Y-63440000D02*
X188380000Y-63440000D01*
X181940000Y-69220000D02*
X181940000Y-63440000D01*
X182460000Y-69220000D02*
X182460000Y-63440000D01*
X187760000Y-64030000D02*
X187760000Y-63440000D01*
X187760000Y-66570000D02*
X187760000Y-66090000D01*
X187760000Y-69220000D02*
X187760000Y-68630000D01*
X188380000Y-63440000D02*
X188380000Y-64030000D01*
X188380000Y-66090000D02*
X188380000Y-66570000D01*
X188380000Y-68630000D02*
X188380000Y-69220000D01*
X188380000Y-69220000D02*
X181940000Y-69220000D01*
X189340000Y-68040000D02*
X188730000Y-67600000D01*
X189340000Y-67160000D01*
X189340000Y-68040000D01*
G36*
X189340000Y-68040000D02*
G01*
X188730000Y-67600000D01*
X189340000Y-67160000D01*
X189340000Y-68040000D01*
G37*
%TO.C,C11*%
X160590000Y-70288748D02*
X160590000Y-71711252D01*
X162410000Y-70288748D02*
X162410000Y-71711252D01*
%TO.C,L1*%
X166090000Y-66515000D02*
X167490000Y-66515000D01*
X166090000Y-73535000D02*
X166090000Y-66515000D01*
X167490000Y-73535000D02*
X166090000Y-73535000D01*
X171510000Y-66515000D02*
X172910000Y-66515000D01*
X172910000Y-66515000D02*
X172910000Y-73535000D01*
X172910000Y-73535000D02*
X171510000Y-73535000D01*
%TO.C,C8*%
X180140580Y-119490000D02*
X179859420Y-119490000D01*
X180140580Y-120510000D02*
X179859420Y-120510000D01*
%TO.C,D5*%
X176350000Y-74490000D02*
X176350000Y-80000000D01*
X179650000Y-74490000D02*
X176350000Y-74490000D01*
X179650000Y-74490000D02*
X179650000Y-80000000D01*
%TO.C,C1*%
X147859420Y-115590000D02*
X148140580Y-115590000D01*
X147859420Y-116610000D02*
X148140580Y-116610000D01*
%TO.C,C7*%
X160140580Y-82490000D02*
X159859420Y-82490000D01*
X160140580Y-83510000D02*
X159859420Y-83510000D01*
%TO.C,C6*%
X150890000Y-131640580D02*
X150890000Y-131359420D01*
X151910000Y-131640580D02*
X151910000Y-131359420D01*
D10*
%TO.C,W2*%
X173600000Y-69080000D02*
X174100000Y-68580000D01*
X173600000Y-72680000D02*
X173600000Y-69080000D01*
X174100000Y-68580000D02*
X174900000Y-68580000D01*
X174100000Y-73180000D02*
X173600000Y-72680000D01*
X174900000Y-68580000D02*
X175400000Y-69080000D01*
X174900000Y-73180000D02*
X174100000Y-73180000D01*
X175400000Y-69080000D02*
X175400000Y-72680000D01*
X175400000Y-72680000D02*
X174900000Y-73180000D01*
D13*
%TO.C,R6*%
X109762742Y-121577500D02*
X110237258Y-121577500D01*
X109762742Y-122622500D02*
X110237258Y-122622500D01*
%TO.C,C19*%
X129562500Y-67652500D02*
X130350000Y-67652500D01*
X129956250Y-67258750D02*
X129956250Y-68046250D01*
X130590000Y-67154437D02*
X130590000Y-68440000D01*
X130590000Y-67154437D02*
X131654437Y-66090000D01*
X130590000Y-71845563D02*
X130590000Y-70560000D01*
X130590000Y-71845563D02*
X131654437Y-72910000D01*
X131654437Y-66090000D02*
X137410000Y-66090000D01*
X131654437Y-72910000D02*
X137410000Y-72910000D01*
X137410000Y-66090000D02*
X137410000Y-68440000D01*
X137410000Y-72910000D02*
X137410000Y-70560000D01*
%TO.C,D8*%
X159540000Y-110315000D02*
X159540000Y-113000000D01*
X161460000Y-110315000D02*
X159540000Y-110315000D01*
X161460000Y-113000000D02*
X161460000Y-110315000D01*
%TO.C,R3*%
X158653641Y-74120000D02*
X158346359Y-74120000D01*
X158653641Y-74880000D02*
X158346359Y-74880000D01*
%TO.C,C2*%
X167090000Y-78711252D02*
X167090000Y-77288748D01*
X168910000Y-78711252D02*
X168910000Y-77288748D01*
%TO.C,U3*%
X168465000Y-117375000D02*
X168465000Y-96875000D01*
X168465000Y-117375000D02*
X188785000Y-117375000D01*
X188785000Y-96875000D02*
X168465000Y-96875000D01*
X188785000Y-117375000D02*
X188785000Y-96875000D01*
%TO.C,BT1*%
X164250000Y-131050000D02*
X164250000Y-131550000D01*
X164250000Y-131050000D02*
X165400000Y-131050000D01*
X164250000Y-135350000D02*
X164250000Y-134850000D01*
X164250000Y-135350000D02*
X165400000Y-135350000D01*
X165400000Y-131050000D02*
X165400000Y-131550000D01*
X165400000Y-135350000D02*
X165400000Y-134850000D01*
X164990000Y-131050000D02*
G75*
G02*
X184950000Y-131850000I9909758J-2152544D01*
G01*
X184950000Y-134550000D02*
G75*
G02*
X164990000Y-135350000I-10050242J1352544D01*
G01*
%TO.C,D2*%
X175950000Y-69160000D02*
X175950000Y-65500000D01*
X175950000Y-69160000D02*
X177850000Y-69160000D01*
X177850000Y-69160000D02*
X177850000Y-65500000D01*
%TO.C,J3*%
X115270000Y-146120000D02*
X115270000Y-148880000D01*
X128080000Y-146120000D02*
X115270000Y-146120000D01*
X128080000Y-146120000D02*
X128080000Y-148880000D01*
X128080000Y-148880000D02*
X115270000Y-148880000D01*
X129350000Y-146120000D02*
X130730000Y-146120000D01*
X130730000Y-146120000D02*
X130730000Y-147500000D01*
%TO.C,D3*%
X172850000Y-81510000D02*
X172850000Y-76000000D01*
X172850000Y-81510000D02*
X176150000Y-81510000D01*
X176150000Y-81510000D02*
X176150000Y-76000000D01*
%TO.C,5V1*%
X143051000Y-63700000D02*
G75*
G02*
X140549000Y-63700000I-1251000J0D01*
G01*
X140549000Y-63700000D02*
G75*
G02*
X143051000Y-63700000I1251000J0D01*
G01*
D14*
%TO.C,G\u002A\u002A\u002A*%
G36*
X117194949Y-131781952D02*
G01*
X117605789Y-131788172D01*
X117605789Y-132102029D01*
X117605789Y-132415887D01*
X117194949Y-132422107D01*
X116784109Y-132428327D01*
X116784109Y-132102029D01*
X116784109Y-131775732D01*
X117194949Y-131781952D01*
G37*
G36*
X119523042Y-132102029D02*
G01*
X119523042Y-132427096D01*
X119119409Y-132427096D01*
X118715777Y-132427096D01*
X118715777Y-132102029D01*
X118715777Y-131776963D01*
X119119409Y-131776963D01*
X119523042Y-131776963D01*
X119523042Y-132102029D01*
G37*
G36*
X123357548Y-132102029D02*
G01*
X123357548Y-132404677D01*
X122968331Y-132404677D01*
X122579114Y-132404677D01*
X122579114Y-132102029D01*
X122579114Y-131799382D01*
X122968331Y-131799382D01*
X123357548Y-131799382D01*
X123357548Y-132102029D01*
G37*
G36*
X125858626Y-131781935D02*
G01*
X126255051Y-131788172D01*
X126255051Y-132102029D01*
X126255051Y-132415887D01*
X125858626Y-132422124D01*
X125462202Y-132428361D01*
X125462202Y-132102029D01*
X125462202Y-131775698D01*
X125858626Y-131781935D01*
G37*
G36*
X132064472Y-132102029D02*
G01*
X132064472Y-132427096D01*
X131646424Y-132427096D01*
X131228376Y-132427096D01*
X131228376Y-132102029D01*
X131228376Y-131776963D01*
X131646424Y-131776963D01*
X132064472Y-131776963D01*
X132064472Y-132102029D01*
G37*
G36*
X120488876Y-132102029D02*
G01*
X120488876Y-132415887D01*
X120091860Y-132422127D01*
X119924952Y-132423787D01*
X119807909Y-132422363D01*
X119733036Y-132417412D01*
X119692636Y-132408495D01*
X119680116Y-132398523D01*
X119675170Y-132365789D01*
X119672219Y-132297757D01*
X119671460Y-132203943D01*
X119673090Y-132093864D01*
X119673500Y-132078426D01*
X119681611Y-131788172D01*
X120085244Y-131788172D01*
X120488876Y-131788172D01*
X120488876Y-132102029D01*
G37*
G36*
X121024621Y-131781479D02*
G01*
X121053318Y-131781890D01*
X121440295Y-131788172D01*
X121440295Y-132102029D01*
X121440295Y-132415887D01*
X121045441Y-132422116D01*
X120650587Y-132428345D01*
X120641808Y-132122797D01*
X120639757Y-132009380D01*
X120640261Y-131911852D01*
X120643108Y-131839091D01*
X120648083Y-131799975D01*
X120649686Y-131796428D01*
X120683415Y-131789038D01*
X120764193Y-131783829D01*
X120881450Y-131781183D01*
X121024621Y-131781479D01*
G37*
G36*
X122420544Y-132102029D02*
G01*
X122420544Y-132415887D01*
X122023529Y-132422127D01*
X121856620Y-132423787D01*
X121739577Y-132422363D01*
X121664704Y-132417412D01*
X121624305Y-132408495D01*
X121611785Y-132398523D01*
X121606838Y-132365789D01*
X121603887Y-132297757D01*
X121603129Y-132203943D01*
X121604759Y-132093864D01*
X121605168Y-132078426D01*
X121613280Y-131788172D01*
X122016912Y-131788172D01*
X122420544Y-131788172D01*
X122420544Y-132102029D01*
G37*
G36*
X124337798Y-132102029D02*
G01*
X124337798Y-132427096D01*
X123953386Y-132427096D01*
X123809954Y-132426032D01*
X123687849Y-132423119D01*
X123598358Y-132418775D01*
X123552766Y-132413418D01*
X123549754Y-132412150D01*
X123542772Y-132385429D01*
X123536923Y-132322469D01*
X123532715Y-132231866D01*
X123530656Y-132122215D01*
X123530533Y-132087084D01*
X123530533Y-131776963D01*
X123934165Y-131776963D01*
X124337798Y-131776963D01*
X124337798Y-132102029D01*
G37*
G36*
X125303632Y-132102029D02*
G01*
X125303632Y-132415887D01*
X124906616Y-132422127D01*
X124739708Y-132423787D01*
X124622665Y-132422363D01*
X124547792Y-132417412D01*
X124507392Y-132408495D01*
X124494872Y-132398523D01*
X124489926Y-132365789D01*
X124486975Y-132297757D01*
X124486216Y-132203943D01*
X124487846Y-132093864D01*
X124488256Y-132078426D01*
X124496367Y-131788172D01*
X124900000Y-131788172D01*
X125303632Y-131788172D01*
X125303632Y-132102029D01*
G37*
G36*
X128186719Y-132102029D02*
G01*
X128186719Y-132415887D01*
X127790295Y-132422124D01*
X127646407Y-132423575D01*
X127525497Y-132423248D01*
X127438048Y-132421290D01*
X127394541Y-132417849D01*
X127391618Y-132416519D01*
X127390643Y-132390965D01*
X127389531Y-132329089D01*
X127388402Y-132239404D01*
X127387375Y-132130424D01*
X127387113Y-132096425D01*
X127384861Y-131788172D01*
X127785790Y-131788172D01*
X128186719Y-131788172D01*
X128186719Y-132102029D01*
G37*
G36*
X129152554Y-132101397D02*
G01*
X129152554Y-132427096D01*
X128762432Y-132427096D01*
X128594023Y-132425944D01*
X128476264Y-132422156D01*
X128402210Y-132415230D01*
X128364915Y-132404663D01*
X128357896Y-132397887D01*
X128353068Y-132365405D01*
X128350215Y-132297599D01*
X128349523Y-132203959D01*
X128351180Y-132093976D01*
X128351593Y-132078426D01*
X128359705Y-131788172D01*
X128756129Y-131781935D01*
X129152554Y-131775698D01*
X129152554Y-132101397D01*
G37*
G36*
X130118388Y-132102029D02*
G01*
X130118388Y-132415887D01*
X129721372Y-132422127D01*
X129554464Y-132423787D01*
X129437421Y-132422363D01*
X129362548Y-132417412D01*
X129322148Y-132408495D01*
X129309628Y-132398523D01*
X129304682Y-132365789D01*
X129301731Y-132297757D01*
X129300972Y-132203943D01*
X129302602Y-132093864D01*
X129303012Y-132078426D01*
X129311123Y-131788172D01*
X129714756Y-131788172D01*
X130118388Y-131788172D01*
X130118388Y-132102029D01*
G37*
G36*
X131077806Y-132107634D02*
G01*
X131085805Y-132427096D01*
X130694892Y-132427096D01*
X130526307Y-132425948D01*
X130408375Y-132422171D01*
X130334155Y-132415265D01*
X130296702Y-132404730D01*
X130289564Y-132397887D01*
X130284737Y-132365405D01*
X130281884Y-132297599D01*
X130281192Y-132203959D01*
X130282849Y-132093976D01*
X130283262Y-132078426D01*
X130291373Y-131788172D01*
X130680590Y-131788172D01*
X131069807Y-131788172D01*
X131077806Y-132107634D01*
G37*
G36*
X133015891Y-132101414D02*
G01*
X133015891Y-132427096D01*
X132611354Y-132427096D01*
X132439763Y-132426007D01*
X132318881Y-132422419D01*
X132241814Y-132415852D01*
X132201667Y-132405825D01*
X132192402Y-132397887D01*
X132187575Y-132365405D01*
X132184721Y-132297599D01*
X132184029Y-132203959D01*
X132185686Y-132093976D01*
X132186099Y-132078426D01*
X132194211Y-131788172D01*
X132605051Y-131781952D01*
X133015891Y-131775732D01*
X133015891Y-132101414D01*
G37*
G36*
X126581041Y-131793136D02*
G01*
X126696886Y-131795017D01*
X126835483Y-131798570D01*
X126855458Y-131799175D01*
X127225218Y-131810591D01*
X127224813Y-132098791D01*
X127223585Y-132207838D01*
X127220519Y-132299801D01*
X127216056Y-132365864D01*
X127210640Y-132397210D01*
X127209785Y-132398363D01*
X127176324Y-132403457D01*
X127099214Y-132407759D01*
X126992466Y-132411049D01*
X126870088Y-132413109D01*
X126746090Y-132413722D01*
X126634480Y-132412668D01*
X126549269Y-132409730D01*
X126536152Y-132408862D01*
X126442451Y-132401837D01*
X126442451Y-132101932D01*
X126443977Y-131991069D01*
X126448156Y-131897616D01*
X126454391Y-131830042D01*
X126462088Y-131796813D01*
X126464075Y-131794894D01*
X126499565Y-131793052D01*
X126581041Y-131793136D01*
G37*
G36*
X118097588Y-131783988D02*
G01*
X118196821Y-131785169D01*
X118528376Y-131788172D01*
X118543913Y-132079611D01*
X118548067Y-132197956D01*
X118547332Y-132296249D01*
X118542005Y-132366273D01*
X118532382Y-132399812D01*
X118532345Y-132399851D01*
X118493765Y-132411051D01*
X118411471Y-132418919D01*
X118299245Y-132423518D01*
X118170868Y-132424911D01*
X118040122Y-132423160D01*
X117920789Y-132418329D01*
X117826651Y-132410479D01*
X117771490Y-132399675D01*
X117765187Y-132396354D01*
X117753119Y-132365057D01*
X117743650Y-132296791D01*
X117737538Y-132199403D01*
X117735527Y-132088767D01*
X117734689Y-131973417D01*
X117737660Y-131891028D01*
X117752666Y-131836185D01*
X117787935Y-131803474D01*
X117851694Y-131787481D01*
X117952169Y-131782790D01*
X118097588Y-131783988D01*
G37*
G36*
X125454149Y-128823053D02*
G01*
X125559969Y-128826220D01*
X125629249Y-128831201D01*
X125667261Y-128838142D01*
X125678803Y-128845407D01*
X125682610Y-128881240D01*
X125679372Y-128946679D01*
X125670866Y-129019505D01*
X125649602Y-129165225D01*
X125093776Y-129171315D01*
X124537949Y-129177406D01*
X124545989Y-129473963D01*
X124554029Y-129770520D01*
X124994948Y-129776714D01*
X125435866Y-129782908D01*
X125427411Y-129944852D01*
X125418955Y-130106796D01*
X124978538Y-130112987D01*
X124538120Y-130119179D01*
X124546075Y-130460472D01*
X124554029Y-130801765D01*
X125087400Y-130806671D01*
X125258782Y-130808266D01*
X125411415Y-130809722D01*
X125535471Y-130810941D01*
X125621121Y-130811828D01*
X125658073Y-130812276D01*
X125678000Y-130825308D01*
X125687659Y-130867831D01*
X125688211Y-130946407D01*
X125686904Y-130975507D01*
X125678433Y-131138040D01*
X124865559Y-131143992D01*
X124052685Y-131149943D01*
X124043879Y-131043109D01*
X124042387Y-130999141D01*
X124041583Y-130915329D01*
X124041443Y-130796662D01*
X124041944Y-130648128D01*
X124043061Y-130474717D01*
X124044770Y-130281418D01*
X124047047Y-130073219D01*
X124049489Y-129882612D01*
X124063904Y-128828949D01*
X124864690Y-128822989D01*
X125111784Y-128821583D01*
X125306512Y-128821556D01*
X125454149Y-128823053D01*
G37*
G36*
X127948949Y-128821915D02*
G01*
X127987703Y-128830444D01*
X128006041Y-128847766D01*
X128013676Y-128867285D01*
X128016688Y-128899363D01*
X128019197Y-128971743D01*
X128021172Y-129079893D01*
X128022581Y-129219279D01*
X128023393Y-129385369D01*
X128023576Y-129573631D01*
X128023099Y-129779530D01*
X128021931Y-129998535D01*
X128021722Y-130028331D01*
X128013734Y-131138040D01*
X127797502Y-131149249D01*
X127681087Y-131153513D01*
X127606735Y-131150424D01*
X127559315Y-131138327D01*
X127529024Y-131119832D01*
X127486711Y-131075177D01*
X127439246Y-131008490D01*
X127418916Y-130974246D01*
X127387558Y-130920271D01*
X127335966Y-130834761D01*
X127269453Y-130726377D01*
X127193330Y-130603782D01*
X127120733Y-130488041D01*
X127026283Y-130338158D01*
X126922854Y-130173950D01*
X126820071Y-130010700D01*
X126727559Y-129863696D01*
X126683054Y-129792939D01*
X126485698Y-129479082D01*
X126478139Y-130314165D01*
X126470580Y-131149249D01*
X126225609Y-131149249D01*
X125980638Y-131149249D01*
X125988106Y-129989099D01*
X125995573Y-128828949D01*
X126182974Y-128821798D01*
X126311312Y-128820190D01*
X126443031Y-128823633D01*
X126517680Y-128828622D01*
X126664986Y-128842596D01*
X126897512Y-129205676D01*
X127061376Y-129464813D01*
X127197147Y-129686742D01*
X127305709Y-129873017D01*
X127387947Y-130025193D01*
X127444748Y-130144824D01*
X127470546Y-130212154D01*
X127477826Y-130212552D01*
X127484848Y-130169892D01*
X127491504Y-130085951D01*
X127497691Y-129962508D01*
X127503304Y-129801341D01*
X127508236Y-129604229D01*
X127509194Y-129557546D01*
X127523609Y-128828949D01*
X127760625Y-128822448D01*
X127877387Y-128819981D01*
X127948949Y-128821915D01*
G37*
G36*
X117562542Y-129680847D02*
G01*
X117566372Y-129873096D01*
X117571045Y-130052057D01*
X117576341Y-130212583D01*
X117582045Y-130349525D01*
X117587937Y-130457737D01*
X117593800Y-130532071D01*
X117599416Y-130567380D01*
X117600110Y-130568825D01*
X117662662Y-130620089D01*
X117761861Y-130652011D01*
X117882621Y-130665052D01*
X118009857Y-130659673D01*
X118128483Y-130636336D01*
X118223414Y-130595503D01*
X118273685Y-130548213D01*
X118279496Y-130517832D01*
X118285567Y-130447816D01*
X118291672Y-130343364D01*
X118297583Y-130209676D01*
X118303072Y-130051952D01*
X118307911Y-129875392D01*
X118311874Y-129685195D01*
X118312145Y-129669638D01*
X118326560Y-128828949D01*
X118686946Y-128828949D01*
X119047332Y-128828949D01*
X119055055Y-129647219D01*
X119056693Y-129892642D01*
X119056167Y-130098013D01*
X119052883Y-130268102D01*
X119046244Y-130407676D01*
X119035657Y-130521506D01*
X119020524Y-130614360D01*
X119000251Y-130691006D01*
X118974242Y-130756214D01*
X118941901Y-130814752D01*
X118902634Y-130871388D01*
X118902113Y-130872083D01*
X118822612Y-130948593D01*
X118703808Y-131026929D01*
X118562175Y-131097549D01*
X118427468Y-131147024D01*
X118354888Y-131160381D01*
X118237757Y-131172181D01*
X118089181Y-131181344D01*
X117951759Y-131186165D01*
X117787770Y-131189031D01*
X117667320Y-131187980D01*
X117576414Y-131182071D01*
X117501057Y-131170362D01*
X117427252Y-131151912D01*
X117422494Y-131150548D01*
X117209555Y-131068619D01*
X117035642Y-130958325D01*
X116905820Y-130823499D01*
X116841539Y-130711175D01*
X116826783Y-130674631D01*
X116814821Y-130637436D01*
X116805413Y-130594755D01*
X116798315Y-130541757D01*
X116793285Y-130473608D01*
X116790081Y-130385474D01*
X116788461Y-130272522D01*
X116788182Y-130129920D01*
X116789002Y-129952834D01*
X116790680Y-129736430D01*
X116790972Y-129702349D01*
X116798524Y-128828949D01*
X117173325Y-128828949D01*
X117548127Y-128828949D01*
X117562542Y-129680847D01*
G37*
G36*
X129697949Y-128786442D02*
G01*
X129750289Y-128792695D01*
X129885036Y-128816833D01*
X130016946Y-128849760D01*
X130132837Y-128887177D01*
X130219528Y-128924787D01*
X130263834Y-128958293D01*
X130265086Y-128960531D01*
X130258259Y-128994607D01*
X130224826Y-129052188D01*
X130174593Y-129117658D01*
X130068103Y-129242371D01*
X129941894Y-129184859D01*
X129794358Y-129138056D01*
X129621551Y-129114412D01*
X129449409Y-129116476D01*
X129368785Y-129128551D01*
X129209192Y-129184897D01*
X129072862Y-129279504D01*
X128963720Y-129408396D01*
X128885685Y-129567595D01*
X128863532Y-129640945D01*
X128847580Y-129737979D01*
X128839715Y-129861714D01*
X128839365Y-130000457D01*
X128845957Y-130142516D01*
X128858921Y-130276195D01*
X128877683Y-130389803D01*
X128901671Y-130471644D01*
X128904486Y-130477954D01*
X128997839Y-130620304D01*
X129127621Y-130728066D01*
X129292504Y-130800541D01*
X129491164Y-130837032D01*
X129594820Y-130841549D01*
X129751089Y-130833999D01*
X129894731Y-130806376D01*
X130048548Y-130753681D01*
X130106963Y-130729274D01*
X130129967Y-130742212D01*
X130175514Y-130780771D01*
X130232539Y-130834139D01*
X130289976Y-130891506D01*
X130336758Y-130942058D01*
X130361821Y-130974986D01*
X130363450Y-130979868D01*
X130338988Y-131002155D01*
X130275058Y-131034927D01*
X130185849Y-131072247D01*
X130085547Y-131108180D01*
X129988649Y-131136710D01*
X129876137Y-131157587D01*
X129732255Y-131173863D01*
X129577597Y-131184263D01*
X129432758Y-131187513D01*
X129318332Y-131182337D01*
X129296708Y-131179549D01*
X129055098Y-131123965D01*
X128846354Y-131035449D01*
X128658519Y-130908685D01*
X128625858Y-130881267D01*
X128530307Y-130792917D01*
X128459289Y-130710368D01*
X128401017Y-130617440D01*
X128343701Y-130497949D01*
X128339305Y-130487908D01*
X128304215Y-130376953D01*
X128279080Y-130236003D01*
X128264868Y-130079350D01*
X128262549Y-129921287D01*
X128273090Y-129776108D01*
X128286002Y-129701074D01*
X128356924Y-129494067D01*
X128469358Y-129306499D01*
X128617629Y-129141890D01*
X128796064Y-129003760D01*
X128998988Y-128895631D01*
X129220727Y-128821021D01*
X129455605Y-128783451D01*
X129697949Y-128786442D01*
G37*
G36*
X121912439Y-128822513D02*
G01*
X122161067Y-128828949D01*
X122175482Y-129725684D01*
X122179396Y-129954007D01*
X122183283Y-130141800D01*
X122187424Y-130293369D01*
X122192096Y-130413021D01*
X122197578Y-130505062D01*
X122204148Y-130573797D01*
X122212086Y-130623533D01*
X122221669Y-130658577D01*
X122233176Y-130683234D01*
X122237892Y-130690466D01*
X122298073Y-130753434D01*
X122380031Y-130794414D01*
X122494811Y-130816841D01*
X122653454Y-130824149D01*
X122667857Y-130824183D01*
X122816501Y-130818523D01*
X122925831Y-130797575D01*
X123012933Y-130755384D01*
X123094892Y-130685997D01*
X123110704Y-130669861D01*
X123125657Y-130652668D01*
X123137979Y-130632263D01*
X123148010Y-130604242D01*
X123156093Y-130564202D01*
X123162570Y-130507741D01*
X123167781Y-130430456D01*
X123172071Y-130327943D01*
X123175779Y-130195799D01*
X123179247Y-130029622D01*
X123182819Y-129825009D01*
X123184563Y-129718466D01*
X123198978Y-128828949D01*
X123444040Y-128828949D01*
X123689103Y-128828949D01*
X123696643Y-129735935D01*
X123698452Y-129978436D01*
X123699032Y-130180582D01*
X123697700Y-130346851D01*
X123693772Y-130481723D01*
X123686566Y-130589677D01*
X123675398Y-130675191D01*
X123659585Y-130742745D01*
X123638445Y-130796817D01*
X123611293Y-130841888D01*
X123577447Y-130882436D01*
X123536224Y-130922939D01*
X123512254Y-130944917D01*
X123378251Y-131042131D01*
X123216739Y-131112208D01*
X123020030Y-131157504D01*
X122780438Y-131180372D01*
X122737684Y-131182105D01*
X122612292Y-131184996D01*
X122501535Y-131185085D01*
X122423454Y-131182445D01*
X122406129Y-131180745D01*
X122168041Y-131131840D01*
X121977290Y-131058340D01*
X121831669Y-130958584D01*
X121728967Y-130830911D01*
X121666976Y-130673660D01*
X121655287Y-130616280D01*
X121649102Y-130556580D01*
X121643685Y-130461478D01*
X121639065Y-130337300D01*
X121635272Y-130190374D01*
X121632335Y-130027025D01*
X121630283Y-129853582D01*
X121629145Y-129676372D01*
X121628951Y-129501721D01*
X121629731Y-129335956D01*
X121631512Y-129185405D01*
X121634325Y-129056394D01*
X121638199Y-128955251D01*
X121643163Y-128888303D01*
X121647181Y-128865526D01*
X121658813Y-128841742D01*
X121682089Y-128827587D01*
X121729094Y-128821102D01*
X121811912Y-128820328D01*
X121912439Y-128822513D01*
G37*
G36*
X120805238Y-128791677D02*
G01*
X120817644Y-128793380D01*
X120954252Y-128818483D01*
X121086247Y-128853367D01*
X121201296Y-128893593D01*
X121287067Y-128934720D01*
X121331228Y-128972309D01*
X121334049Y-128979287D01*
X121322643Y-129017300D01*
X121284692Y-129073352D01*
X121232094Y-129134188D01*
X121176749Y-129186554D01*
X121130553Y-129217196D01*
X121117595Y-129220396D01*
X121073194Y-129210233D01*
X121002589Y-129183670D01*
X120973441Y-129170829D01*
X120901813Y-129143494D01*
X120822844Y-129127946D01*
X120717292Y-129121337D01*
X120633030Y-129120479D01*
X120509804Y-129122422D01*
X120424259Y-129130478D01*
X120356511Y-129148159D01*
X120286677Y-129178975D01*
X120278411Y-129183118D01*
X120140274Y-129275317D01*
X120034462Y-129397310D01*
X119960098Y-129551177D01*
X119916304Y-129739001D01*
X119902202Y-129962863D01*
X119904972Y-130069142D01*
X119923014Y-130264322D01*
X119958262Y-130422065D01*
X120013890Y-130548422D01*
X120093073Y-130649444D01*
X120198988Y-130731185D01*
X120273801Y-130772087D01*
X120404092Y-130815566D01*
X120563530Y-130839024D01*
X120733776Y-130842524D01*
X120896491Y-130826135D01*
X121033336Y-130789920D01*
X121077974Y-130769208D01*
X121136671Y-130738647D01*
X121172399Y-130723621D01*
X121174596Y-130723300D01*
X121197335Y-130739721D01*
X121242356Y-130781473D01*
X121298628Y-130837292D01*
X121355118Y-130895913D01*
X121400793Y-130946073D01*
X121424622Y-130976506D01*
X121425879Y-130979868D01*
X121402022Y-131000243D01*
X121340045Y-131032689D01*
X121254345Y-131070758D01*
X121159316Y-131108003D01*
X121079909Y-131134824D01*
X120986876Y-131154128D01*
X120855786Y-131170135D01*
X120706179Y-131181622D01*
X120557597Y-131187364D01*
X120429582Y-131186139D01*
X120359137Y-131179958D01*
X120110872Y-131120087D01*
X119888489Y-131021731D01*
X119696083Y-130887919D01*
X119537749Y-130721679D01*
X119417580Y-130526039D01*
X119390063Y-130463261D01*
X119361349Y-130359298D01*
X119342716Y-130224319D01*
X119334166Y-130071456D01*
X119335707Y-129913839D01*
X119347341Y-129764601D01*
X119369076Y-129636872D01*
X119389724Y-129568755D01*
X119499670Y-129356089D01*
X119649710Y-129171956D01*
X119836099Y-129019134D01*
X120055094Y-128900402D01*
X120302953Y-128818539D01*
X120435434Y-128792473D01*
X120558061Y-128778064D01*
X120671013Y-128777774D01*
X120805238Y-128791677D01*
G37*
G36*
X131786129Y-128822584D02*
G01*
X132078887Y-128828949D01*
X132140924Y-128974669D01*
X132176734Y-129060477D01*
X132222132Y-129171666D01*
X132269992Y-129290704D01*
X132295814Y-129355781D01*
X132335905Y-129456358D01*
X132371798Y-129544498D01*
X132398965Y-129609186D01*
X132411051Y-129636010D01*
X132430882Y-129680122D01*
X132460607Y-129751126D01*
X132490971Y-129826566D01*
X132521739Y-129903592D01*
X132567043Y-130015796D01*
X132623819Y-130155662D01*
X132689003Y-130315671D01*
X132759529Y-130488306D01*
X132832334Y-130666049D01*
X132904352Y-130841381D01*
X132933477Y-130912126D01*
X132969436Y-131001358D01*
X132997445Y-131074577D01*
X133013543Y-131121237D01*
X133015891Y-131131517D01*
X132989151Y-131139122D01*
X132917158Y-131143963D01*
X132812251Y-131145473D01*
X132734790Y-131144456D01*
X132453689Y-131138040D01*
X132334713Y-130857811D01*
X132215737Y-130577581D01*
X131746554Y-130577581D01*
X131277371Y-130577581D01*
X131159173Y-130857811D01*
X131040976Y-131138040D01*
X130788706Y-131144517D01*
X130667228Y-131146785D01*
X130592310Y-131144964D01*
X130552944Y-131137550D01*
X130538124Y-131123038D01*
X130536435Y-131110043D01*
X130545420Y-131071115D01*
X130569406Y-131002314D01*
X130603942Y-130915974D01*
X130619674Y-130879382D01*
X130654630Y-130798415D01*
X130705872Y-130677833D01*
X130772108Y-130520722D01*
X130852045Y-130330170D01*
X130915355Y-130178720D01*
X131433178Y-130178720D01*
X131441357Y-130193030D01*
X131471020Y-130201623D01*
X131531508Y-130205957D01*
X131632158Y-130207489D01*
X131760329Y-130207678D01*
X131904065Y-130207141D01*
X131999224Y-130204790D01*
X132054884Y-130199517D01*
X132080124Y-130190215D01*
X132084020Y-130175774D01*
X132081690Y-130168446D01*
X132069044Y-130134565D01*
X132043807Y-130065503D01*
X132008888Y-129969270D01*
X131967192Y-129853870D01*
X131933134Y-129759311D01*
X131887624Y-129633184D01*
X131846048Y-129518686D01*
X131811500Y-129424287D01*
X131787078Y-129358455D01*
X131777445Y-129333362D01*
X131754813Y-129277316D01*
X131733223Y-129344571D01*
X131717859Y-129388849D01*
X131689593Y-129467012D01*
X131651772Y-129569926D01*
X131607745Y-129688456D01*
X131581228Y-129759311D01*
X131535895Y-129880951D01*
X131495639Y-129990551D01*
X131463579Y-130079495D01*
X131442836Y-130139166D01*
X131437146Y-130157237D01*
X131433178Y-130178720D01*
X130915355Y-130178720D01*
X130944390Y-130109263D01*
X131047852Y-129861089D01*
X131161139Y-129588735D01*
X131282958Y-129295288D01*
X131304356Y-129243689D01*
X131349534Y-129136043D01*
X131393457Y-129033661D01*
X131430074Y-128950537D01*
X131447663Y-128912257D01*
X131493371Y-128816219D01*
X131786129Y-128822584D01*
G37*
D10*
%TO.C,W3*%
X125720000Y-140100000D02*
X126220000Y-139600000D01*
X125720000Y-140900000D02*
X125720000Y-140100000D01*
X126220000Y-139600000D02*
X129820000Y-139600000D01*
X126220000Y-141400000D02*
X125720000Y-140900000D01*
X129820000Y-139600000D02*
X130320000Y-140100000D01*
X129820000Y-141400000D02*
X126220000Y-141400000D01*
X130320000Y-140100000D02*
X130320000Y-140900000D01*
X130320000Y-140900000D02*
X129820000Y-141400000D01*
D13*
%TO.C,R5*%
X156977500Y-106762742D02*
X156977500Y-107237258D01*
X158022500Y-106762742D02*
X158022500Y-107237258D01*
%TO.C,D7*%
X167390000Y-82650000D02*
X167390000Y-84350000D01*
X167390000Y-82650000D02*
X170050000Y-82650000D01*
X167390000Y-84350000D02*
X170050000Y-84350000D01*
%TO.C,IC1*%
X148145000Y-136490000D02*
X148380000Y-136490000D01*
X148145000Y-140350000D02*
X148145000Y-136490000D01*
X148145000Y-140350000D02*
X148145000Y-144210000D01*
X148145000Y-144210000D02*
X148380000Y-144210000D01*
X161165000Y-136490000D02*
X160930000Y-136490000D01*
X161165000Y-140350000D02*
X161165000Y-136490000D01*
X161165000Y-140350000D02*
X161165000Y-144210000D01*
X161165000Y-144210000D02*
X160930000Y-144210000D01*
X148380000Y-145062500D02*
X147910000Y-145402500D01*
X147910000Y-144722500D01*
X148380000Y-145062500D01*
G36*
X148380000Y-145062500D02*
G01*
X147910000Y-145402500D01*
X147910000Y-144722500D01*
X148380000Y-145062500D01*
G37*
%TO.C,R1*%
X119597500Y-124637258D02*
X119597500Y-124162742D01*
X120642500Y-124637258D02*
X120642500Y-124162742D01*
%TO.C,J2*%
X181940000Y-71340000D02*
X188380000Y-71340000D01*
X181940000Y-77120000D02*
X181940000Y-71340000D01*
X182460000Y-77120000D02*
X182460000Y-71340000D01*
X187760000Y-71930000D02*
X187760000Y-71340000D01*
X187760000Y-74470000D02*
X187760000Y-73990000D01*
X187760000Y-77120000D02*
X187760000Y-76530000D01*
X188380000Y-71340000D02*
X188380000Y-71930000D01*
X188380000Y-73990000D02*
X188380000Y-74470000D01*
X188380000Y-76530000D02*
X188380000Y-77120000D01*
X188380000Y-77120000D02*
X181940000Y-77120000D01*
X189340000Y-75940000D02*
X188730000Y-75500000D01*
X189340000Y-75060000D01*
X189340000Y-75940000D01*
G36*
X189340000Y-75940000D02*
G01*
X188730000Y-75500000D01*
X189340000Y-75060000D01*
X189340000Y-75940000D01*
G37*
%TO.C,U1*%
X136365000Y-119690000D02*
X136610000Y-119690000D01*
X136365000Y-123550000D02*
X136365000Y-119690000D01*
X136365000Y-123550000D02*
X136365000Y-127410000D01*
X136365000Y-127410000D02*
X136610000Y-127410000D01*
X154485000Y-119690000D02*
X154240000Y-119690000D01*
X154485000Y-123550000D02*
X154485000Y-119690000D01*
X154485000Y-123550000D02*
X154485000Y-127410000D01*
X154485000Y-127410000D02*
X154240000Y-127410000D01*
X136610000Y-128262500D02*
X136140000Y-128602500D01*
X136140000Y-127922500D01*
X136610000Y-128262500D01*
G36*
X136610000Y-128262500D02*
G01*
X136140000Y-128602500D01*
X136140000Y-127922500D01*
X136610000Y-128262500D01*
G37*
%TO.C,C18*%
X141690000Y-82859420D02*
X141690000Y-83140580D01*
X142710000Y-82859420D02*
X142710000Y-83140580D01*
%TO.C,C20*%
X107090000Y-101340580D02*
X107090000Y-101059420D01*
X108110000Y-101340580D02*
X108110000Y-101059420D01*
%TO.C,R4*%
X159977500Y-106762742D02*
X159977500Y-107237258D01*
X161022500Y-106762742D02*
X161022500Y-107237258D01*
%TO.C,C3*%
X169590000Y-78711252D02*
X169590000Y-77288748D01*
X171410000Y-78711252D02*
X171410000Y-77288748D01*
%TO.C,R2*%
X156653641Y-74120000D02*
X156346359Y-74120000D01*
X156653641Y-74880000D02*
X156346359Y-74880000D01*
%TO.C,U4*%
X132290000Y-78090000D02*
X132290000Y-79350000D01*
X132290000Y-84910000D02*
X132290000Y-83650000D01*
X136050000Y-78090000D02*
X132290000Y-78090000D01*
X136050000Y-84910000D02*
X132290000Y-84910000D01*
X137570000Y-85140000D02*
X137090000Y-85140000D01*
X137330000Y-84810000D01*
X137570000Y-85140000D01*
G36*
X137570000Y-85140000D02*
G01*
X137090000Y-85140000D01*
X137330000Y-84810000D01*
X137570000Y-85140000D01*
G37*
%TO.C,R7*%
X154620000Y-76046359D02*
X154620000Y-76353641D01*
X155380000Y-76046359D02*
X155380000Y-76353641D01*
%TO.C,C17*%
X139690000Y-83140580D02*
X139690000Y-82859420D01*
X140710000Y-83140580D02*
X140710000Y-82859420D01*
%TO.C,R9*%
X107077500Y-96762742D02*
X107077500Y-97237258D01*
X108122500Y-96762742D02*
X108122500Y-97237258D01*
%TO.C,D6*%
X164610000Y-73650000D02*
X161950000Y-73650000D01*
X164610000Y-75350000D02*
X161950000Y-75350000D01*
X164610000Y-75350000D02*
X164610000Y-73650000D01*
%TO.C,C14*%
X149614420Y-147540000D02*
X149895580Y-147540000D01*
X149614420Y-148560000D02*
X149895580Y-148560000D01*
%TO.C,C9*%
X163090000Y-70288748D02*
X163090000Y-71711252D01*
X164910000Y-70288748D02*
X164910000Y-71711252D01*
%TO.C,C12*%
X158490000Y-70859420D02*
X158490000Y-71140580D01*
X159510000Y-70859420D02*
X159510000Y-71140580D01*
%TO.C,R10*%
X153217742Y-147527500D02*
X153692258Y-147527500D01*
X153217742Y-148572500D02*
X153692258Y-148572500D01*
%TO.C,3V3*%
X177251000Y-119600000D02*
G75*
G02*
X174749000Y-119600000I-1251000J0D01*
G01*
X174749000Y-119600000D02*
G75*
G02*
X177251000Y-119600000I1251000J0D01*
G01*
%TO.C,D1*%
X119270000Y-121510000D02*
X119270000Y-118850000D01*
X119270000Y-121510000D02*
X120970000Y-121510000D01*
X120970000Y-121510000D02*
X120970000Y-118850000D01*
%TO.C,C4*%
X168859420Y-80990000D02*
X169140580Y-80990000D01*
X168859420Y-82010000D02*
X169140580Y-82010000D01*
%TO.C,D9*%
X156540000Y-110252500D02*
X156540000Y-112937500D01*
X158460000Y-110252500D02*
X156540000Y-110252500D01*
X158460000Y-112937500D02*
X158460000Y-110252500D01*
%TO.C,D10*%
X157990000Y-64850000D02*
X157990000Y-68150000D01*
X157990000Y-64850000D02*
X163500000Y-64850000D01*
X157990000Y-68150000D02*
X163500000Y-68150000D01*
%TO.C,C13*%
X141562500Y-67652500D02*
X142350000Y-67652500D01*
X141956250Y-67258750D02*
X141956250Y-68046250D01*
X142590000Y-67154437D02*
X142590000Y-68440000D01*
X142590000Y-67154437D02*
X143654437Y-66090000D01*
X142590000Y-71845563D02*
X142590000Y-70560000D01*
X142590000Y-71845563D02*
X143654437Y-72910000D01*
X143654437Y-66090000D02*
X149410000Y-66090000D01*
X143654437Y-72910000D02*
X149410000Y-72910000D01*
X149410000Y-66090000D02*
X149410000Y-68440000D01*
X149410000Y-72910000D02*
X149410000Y-70560000D01*
%TO.C,D4*%
X180440000Y-79050000D02*
X180440000Y-80950000D01*
X180440000Y-79050000D02*
X184100000Y-79050000D01*
X180440000Y-80950000D02*
X184100000Y-80950000D01*
%TO.C,U2*%
X161845000Y-76315000D02*
X159895000Y-76315000D01*
X161845000Y-76315000D02*
X163795000Y-76315000D01*
X161845000Y-81435000D02*
X159895000Y-81435000D01*
X161845000Y-81435000D02*
X163795000Y-81435000D01*
X164785000Y-81670000D02*
X164305000Y-81670000D01*
X164545000Y-81340000D01*
X164785000Y-81670000D01*
G36*
X164785000Y-81670000D02*
G01*
X164305000Y-81670000D01*
X164545000Y-81340000D01*
X164785000Y-81670000D01*
G37*
%TD*%
D15*
%TO.C,U3*%
X178625000Y-100645000D03*
%TD*%
M02*
