M48
; DRILL file {KiCad 9.0.3} date 2025-10-27T19:19:39+0800
; FORMAT={-:-/ absolute / metric / decimal}
; #@! TF.CreationDate,2025-10-27T19:19:39+08:00
; #@! TF.GenerationSoftware,Kicad,Pcbnew,9.0.3
; #@! TF.FileFunction,Plated,1,4,PTH
FMAT,2
METRIC
; #@! TA.AperFunction,Plated,PTH,ViaDrill
T1C0.300
; #@! TA.AperFunction,Plated,PTH,ComponentDrill
T2C0.800
; #@! TA.AperFunction,Plated,PTH,ComponentDrill
T3C1.000
; #@! TA.AperFunction,Plated,PTH,ComponentDrill
T4C1.190
; #@! TA.AperFunction,Plated,PTH,ComponentDrill
T5C1.200
; #@! TA.AperFunction,Plated,PTH,ComponentDrill
T6C2.286
; #@! TA.AperFunction,Plated,PTH,ComponentDrill
T7C2.500
; #@! TA.AperFunction,Plated,PTH,ViaDrill
T8C3.000
%
G90
G05
T1
X104.4Y-130.7
X104.5Y-129.1
X105.2Y-116.1
X105.2Y-117.7
X106.5Y-90.5
X107.1Y-123.0
X107.3Y-93.4
X108.1Y-90.6
X108.2Y-97.2
X108.9Y-93.4
X109.7Y-90.6
X109.7Y-94.2
X109.7Y-102.9
X110.9Y-124.0
X111.1Y-116.1
X111.5Y-102.9
X112.3Y-96.1
X112.3Y-97.1
X114.2Y-126.9
X114.6Y-128.5
X114.6Y-132.6
X114.815Y-127.412
X114.9Y-124.0
X115.5Y-119.5
X116.3Y-109.6
X116.5Y-93.2
X117.1Y-110.5
X117.5Y-116.9
X117.887Y-127.487
X117.9Y-123.5
X118.0Y-82.2
X118.8Y-115.9
X119.2Y-94.4
X119.3Y-117.0
X119.5Y-96.0
X121.3Y-112.0
X121.3Y-117.0
X121.8Y-119.9
X122.5Y-92.0
X123.3Y-128.5
X123.8Y-132.0
X123.8Y-136.7
X124.1Y-92.0
X124.8Y-66.3
X124.8Y-71.2
X125.3Y-119.9
X125.4Y-112.0
X125.4Y-116.5
X125.703Y-92.003
X126.2Y-68.7
X126.3Y-123.5
X126.4Y-126.5
X127.0Y-138.1
X127.3Y-94.8
X129.287Y-122.987
X129.3Y-126.1
X129.5Y-122.0
X129.525Y-77.325
X129.6Y-120.5
X130.4Y-54.0
X130.7Y-119.0
X130.9Y-58.8
X131.2Y-79.3
X131.2Y-99.0
X132.2Y-121.6
X132.8Y-104.2
X132.9Y-96.2
X133.0Y-118.8
X133.7Y-108.7
X133.7Y-126.5
X134.7Y-61.5
X134.8Y-108.0
X134.9Y-54.0
X134.9Y-100.5
X135.6Y-81.8
X135.7Y-107.2
X136.1Y-95.9
X137.1Y-91.3
X137.3Y-77.3
X137.525Y-48.725
X138.1Y-78.5
X138.325Y-88.925
X138.6Y-107.2
X139.3Y-54.0
X140.2Y-107.2
X140.3Y-95.8
X140.8Y-54.0
X141.1Y-88.3
X142.5Y-78.5
X143.2Y-45.2
X143.4Y-107.3
X144.2Y-88.9
X144.2Y-90.3
X144.275Y-98.525
X144.3Y-97.2
X144.6Y-81.1
X144.8Y-89.6
X145.0Y-45.2
X145.0Y-99.2
X145.4Y-112.6
X145.6Y-61.6
X145.68Y-127.6
X146.0Y-54.0
X146.2Y-100.0
X146.4Y-67.6
X146.7Y-140.9
X147.275Y-103.125
X147.5Y-118.0
X148.1Y-119.7
X148.4Y-141.0
X148.7Y-79.3
X149.1Y-73.9
X149.125Y-66.025
X149.9Y-55.6
X150.095Y-136.805
X150.1Y-54.0
X150.1Y-141.0
X151.4Y-48.9
X151.5Y-46.4
X151.6Y-113.7
X151.9Y-117.0
X152.395Y-136.4
X152.4Y-140.9
X152.5Y-66.4
X152.7Y-71.4
X152.925Y-68.125
X152.925Y-69.775
X153.0Y-103.2
X153.6Y-114.6
X153.66Y-123.415
X153.7Y-136.5
X154.8Y-103.2
X154.895Y-136.45
X154.93Y-123.485
X155.9Y-107.7
X155.9Y-113.735
X156.0Y-106.0
X156.195Y-123.45
X156.295Y-136.45
X157.47Y-136.425
X157.495Y-123.45
X158.3Y-54.0
X158.4Y-55.6
X158.695Y-123.45
X158.795Y-136.45
X158.9Y-77.1
X159.5Y-79.4
X162.237Y-106.562
X162.5Y-54.0
X162.8Y-61.3
X163.6Y-81.8
X163.7Y-78.3
X164.325Y-98.925
X165.1Y-91.3
X165.2Y-49.0
X165.975Y-97.925
X167.0Y-77.1
X167.0Y-88.2
X167.1Y-54.0
X168.4Y-106.5
X168.8Y-54.0
X169.1Y-88.1
X170.6Y-78.2
X170.6Y-98.0
X170.6Y-147.0
X170.775Y-45.125
X172.075Y-90.225
X172.174Y-88.923
X172.3Y-97.5
X172.5Y-81.0
X172.6Y-89.6
X172.675Y-45.125
X172.7Y-62.7
X173.4Y-54.0
X174.2Y-67.5
X175.4Y-106.5
X177.0Y-66.2
X177.0Y-73.7
X177.2Y-58.8
X177.325Y-79.4
X177.5Y-97.5
X178.7Y-54.0
X179.0Y-48.4
X179.1Y-96.8
X179.2Y-46.4
X180.6Y-66.3
X180.6Y-71.7
X182.2Y-69.0
X182.7Y-106.6
X182.8Y-112.2
X184.6Y-77.4
X184.8Y-96.9
X186.5Y-54.0
X187.1Y-79.5
X187.6Y-100.0
X188.25Y-60.05
X189.9Y-111.4
X190.9Y-54.0
X190.95Y-61.4
X191.3Y-78.4
X191.8Y-81.8
X192.5Y-77.4
X193.1Y-91.3
X193.5Y-49.3
X194.9Y-88.2
X195.1Y-54.0
X196.8Y-54.0
X197.0Y-87.9
X198.5Y-78.4
X198.6Y-44.9
X200.2Y-45.6
X200.275Y-90.225
X200.3Y-88.9
X200.5Y-62.7
X200.9Y-89.5
X201.5Y-54.0
X201.5Y-81.3
X202.3Y-67.5
X205.2Y-79.5
X205.6Y-58.9
X205.9Y-54.0
X206.0Y-49.0
X206.5Y-72.5
X206.6Y-46.9
X206.8Y-67.5
X209.0Y-100.3
X209.0Y-102.5
X216.4Y-139.9
X216.5Y-141.6
X231.9Y-138.8
T2
X136.0Y-65.0
X136.0Y-67.54
X136.0Y-70.08
X136.0Y-72.62
X143.62Y-65.0
X143.62Y-67.54
X143.62Y-70.08
X143.62Y-72.62
X164.0Y-65.0
X164.0Y-67.54
X164.0Y-70.08
X164.0Y-72.62
X171.62Y-65.0
X171.62Y-67.54
X171.62Y-70.08
X171.62Y-72.62
X192.0Y-65.0
X192.0Y-67.54
X192.0Y-70.08
X192.0Y-72.62
X199.62Y-65.0
X199.62Y-67.54
X199.62Y-70.08
X199.62Y-72.62
T3
X104.16Y-52.7
X104.16Y-55.24
X104.16Y-57.78
X104.16Y-60.32
X104.16Y-62.86
X104.16Y-65.4
X104.16Y-67.94
X104.16Y-70.48
X104.16Y-73.02
X104.16Y-75.56
X106.7Y-52.7
X106.7Y-55.24
X106.7Y-57.78
X106.7Y-60.32
X106.7Y-62.86
X106.7Y-65.4
X106.7Y-67.94
X106.7Y-70.48
X106.7Y-73.02
X106.7Y-75.56
X109.48Y-86.1
X112.02Y-86.1
X114.56Y-86.1
X117.06Y-144.7
X117.1Y-86.1
X119.6Y-144.7
X119.64Y-86.1
X122.14Y-144.7
X122.18Y-86.1
X124.68Y-144.7
X127.22Y-144.7
X129.76Y-144.7
X129.8Y-140.3
X132.3Y-144.7
X134.84Y-144.7
X145.68Y-144.7
X148.22Y-144.7
X150.76Y-144.7
X153.3Y-144.7
X155.84Y-144.7
X158.38Y-144.7
X182.04Y-116.014
X184.58Y-116.014
X187.12Y-116.014
X189.66Y-116.014
X192.2Y-116.014
X194.74Y-116.014
X197.28Y-116.014
X199.82Y-116.014
X202.36Y-116.014
X209.2Y-129.68
X209.2Y-132.22
X209.2Y-134.76
X209.2Y-137.3
X216.9Y-121.7
X223.36Y-92.2
X223.36Y-94.74
X223.36Y-97.28
X223.36Y-99.82
X223.36Y-102.36
X223.36Y-104.9
X223.36Y-107.44
X223.36Y-109.98
X223.36Y-112.52
X223.36Y-115.06
X223.36Y-117.6
X223.36Y-120.14
X223.36Y-122.68
X223.36Y-125.22
X223.36Y-127.76
X223.36Y-130.3
X223.36Y-132.84
X223.36Y-135.38
X223.36Y-137.92
X223.36Y-140.46
X225.9Y-92.2
X225.9Y-94.74
X225.9Y-97.28
X225.9Y-99.82
X225.9Y-102.36
X225.9Y-104.9
X225.9Y-107.44
X225.9Y-109.98
X225.9Y-112.52
X225.9Y-115.06
X225.9Y-117.6
X225.9Y-120.14
X225.9Y-122.68
X225.9Y-125.22
X225.9Y-127.76
X225.9Y-130.3
X225.9Y-132.84
X225.9Y-135.38
X225.9Y-137.92
X225.9Y-140.46
T4
X115.3Y-51.38
X115.3Y-53.92
X115.3Y-56.46
X115.3Y-59.0
X115.3Y-61.54
X115.3Y-64.08
X115.4Y-69.7
X115.4Y-72.24
X115.4Y-74.78
X115.4Y-77.32
T5
X170.6Y-132.7
X170.6Y-140.2
T6
X182.04Y-145.478
X202.36Y-145.478
T7
X184.7Y-133.49
T8
X105.0Y-45.0
X105.0Y-145.0
X231.0Y-45.0
X231.0Y-145.0
M30
