%TF.GenerationSoftware,KiCad,Pcbnew,9.0.3*%
%TF.CreationDate,2025-10-27T19:19:36+08:00*%
%TF.ProjectId,digitalizador,64696769-7461-46c6-997a-61646f722e6b,rev?*%
%TF.SameCoordinates,Original*%
%TF.FileFunction,Copper,L4,Bot*%
%TF.FilePolarity,Positive*%
%FSLAX46Y46*%
G04 Gerber Fmt 4.6, Leading zero omitted, Abs format (unit mm)*
G04 Created by KiCad (PCBNEW 9.0.3) date 2025-10-27 19:19:36*
%MOMM*%
%LPD*%
G01*
G04 APERTURE LIST*
G04 Aperture macros list*
%AMRoundRect*
0 Rectangle with rounded corners*
0 $1 Rounding radius*
0 $2 $3 $4 $5 $6 $7 $8 $9 X,Y pos of 4 corners*
0 Add a 4 corners polygon primitive as box body*
4,1,4,$2,$3,$4,$5,$6,$7,$8,$9,$2,$3,0*
0 Add four circle primitives for the rounded corners*
1,1,$1+$1,$2,$3*
1,1,$1+$1,$4,$5*
1,1,$1+$1,$6,$7*
1,1,$1+$1,$8,$9*
0 Add four rect primitives between the rounded corners*
20,1,$1+$1,$2,$3,$4,$5,0*
20,1,$1+$1,$4,$5,$6,$7,0*
20,1,$1+$1,$6,$7,$8,$9,0*
20,1,$1+$1,$8,$9,$2,$3,0*%
G04 Aperture macros list end*
%TA.AperFunction,ComponentPad*%
%ADD10C,3.000000*%
%TD*%
%TA.AperFunction,ComponentPad*%
%ADD11R,1.700000X1.700000*%
%TD*%
%TA.AperFunction,ComponentPad*%
%ADD12C,1.700000*%
%TD*%
%TA.AperFunction,ComponentPad*%
%ADD13RoundRect,0.250000X-0.550000X-0.550000X0.550000X-0.550000X0.550000X0.550000X-0.550000X0.550000X0*%
%TD*%
%TA.AperFunction,ComponentPad*%
%ADD14C,1.600000*%
%TD*%
%TA.AperFunction,ComponentPad*%
%ADD15C,2.000000*%
%TD*%
%TA.AperFunction,ComponentPad*%
%ADD16C,0.600000*%
%TD*%
%TA.AperFunction,ComponentPad*%
%ADD17RoundRect,0.250000X0.845000X-0.620000X0.845000X0.620000X-0.845000X0.620000X-0.845000X-0.620000X0*%
%TD*%
%TA.AperFunction,ComponentPad*%
%ADD18O,2.190000X1.740000*%
%TD*%
%TA.AperFunction,ComponentPad*%
%ADD19C,4.000000*%
%TD*%
%TA.AperFunction,ViaPad*%
%ADD20C,4.000000*%
%TD*%
%TA.AperFunction,ViaPad*%
%ADD21C,0.600000*%
%TD*%
%TA.AperFunction,Conductor*%
%ADD22C,0.200000*%
%TD*%
%TA.AperFunction,Conductor*%
%ADD23C,0.300000*%
%TD*%
%TA.AperFunction,Conductor*%
%ADD24C,0.400000*%
%TD*%
%TA.AperFunction,Conductor*%
%ADD25C,0.600000*%
%TD*%
G04 APERTURE END LIST*
D10*
%TO.P,GPS1,*%
%TO.N,*%
X182040000Y-145478000D03*
X202360000Y-145478000D03*
D11*
%TO.P,GPS1,1,1PPS*%
%TO.N,/PPS_GPS_3.3V*%
X182040000Y-116014000D03*
D12*
%TO.P,GPS1,2,VIN*%
%TO.N,+3.3V*%
X184580000Y-116014000D03*
%TO.P,GPS1,3,GND*%
%TO.N,GND*%
X187120000Y-116014000D03*
%TO.P,GPS1,4,RXD*%
%TO.N,/RX_GPS*%
X189660000Y-116014000D03*
%TO.P,GPS1,5,TXD*%
%TO.N,/TX_GPS_3.3V*%
X192200000Y-116014000D03*
%TO.P,GPS1,6,FIX*%
%TO.N,unconnected-(GPS1-FIX-Pad6)*%
X194740000Y-116014000D03*
%TO.P,GPS1,7,VBAT*%
%TO.N,unconnected-(GPS1-VBAT-Pad7)*%
X197280000Y-116014000D03*
%TO.P,GPS1,8,EN*%
%TO.N,/EN_GPS*%
X199820000Y-116014000D03*
%TO.P,GPS1,9,3.3V*%
%TO.N,unconnected-(GPS1-3.3V-Pad9)*%
X202360000Y-116014000D03*
%TD*%
D13*
%TO.P,IC5,1,RG_1*%
%TO.N,/RES_3_1*%
X192000000Y-65000000D03*
D14*
%TO.P,IC5,2,V-IN*%
%TO.N,/CH3-_ACON*%
X192000000Y-67540000D03*
%TO.P,IC5,3,V+IN*%
%TO.N,/CH3+_ACON*%
X192000000Y-70080000D03*
%TO.P,IC5,4,V-*%
%TO.N,-8V_INA_CH3*%
X192000000Y-72620000D03*
%TO.P,IC5,5,REF*%
%TO.N,AGND*%
X199620000Y-72620000D03*
%TO.P,IC5,6,VO*%
%TO.N,Net-(IC5-VO)*%
X199620000Y-70080000D03*
%TO.P,IC5,7,V+*%
%TO.N,+8V_INA_CH3*%
X199620000Y-67540000D03*
%TO.P,IC5,8,RG_2*%
%TO.N,/RES_3_2*%
X199620000Y-65000000D03*
%TD*%
D15*
%TO.P,5V1,1,1*%
%TO.N,+5V*%
X129800000Y-140300000D03*
%TD*%
D13*
%TO.P,IC6,1,RG_1*%
%TO.N,/RES_2_1*%
X164000000Y-65000000D03*
D14*
%TO.P,IC6,2,V-IN*%
%TO.N,/CH2-_ACON*%
X164000000Y-67540000D03*
%TO.P,IC6,3,V+IN*%
%TO.N,/CH2+_ACON*%
X164000000Y-70080000D03*
%TO.P,IC6,4,V-*%
%TO.N,-8V_INA_CH2*%
X164000000Y-72620000D03*
%TO.P,IC6,5,REF*%
%TO.N,AGND*%
X171620000Y-72620000D03*
%TO.P,IC6,6,VO*%
%TO.N,Net-(IC6-VO)*%
X171620000Y-70080000D03*
%TO.P,IC6,7,V+*%
%TO.N,+8V_INA_CH2*%
X171620000Y-67540000D03*
%TO.P,IC6,8,RG_2*%
%TO.N,/RES_2_2*%
X171620000Y-65000000D03*
%TD*%
D16*
%TO.P,BT1,MH1*%
%TO.N,N/C*%
X170600000Y-132700000D03*
%TO.P,BT1,MH2*%
X170600000Y-140200000D03*
%TD*%
D15*
%TO.P,3V3,1,1*%
%TO.N,+3.3V*%
X216900000Y-121700000D03*
%TD*%
D13*
%TO.P,IC7,1,RG_1*%
%TO.N,/RES_1_1*%
X136000000Y-65000000D03*
D14*
%TO.P,IC7,2,V-IN*%
%TO.N,/CH1-_ACON*%
X136000000Y-67540000D03*
%TO.P,IC7,3,V+IN*%
%TO.N,/CH1+_ACON*%
X136000000Y-70080000D03*
%TO.P,IC7,4,V-*%
%TO.N,-8V_INA_CH1*%
X136000000Y-72620000D03*
%TO.P,IC7,5,REF*%
%TO.N,AGND*%
X143620000Y-72620000D03*
%TO.P,IC7,6,VO*%
%TO.N,Net-(IC7-VO)*%
X143620000Y-70080000D03*
%TO.P,IC7,7,V+*%
%TO.N,+8V_INA_CH1*%
X143620000Y-67540000D03*
%TO.P,IC7,8,RG_2*%
%TO.N,/RES_1_2*%
X143620000Y-65000000D03*
%TD*%
D11*
%TO.P,J1,1,1*%
%TO.N,unconnected-(J1-Pad1)*%
X106700000Y-52700000D03*
D12*
%TO.P,J1,2,2*%
%TO.N,/CH3+*%
X104160000Y-52700000D03*
%TO.P,J1,3,3*%
%TO.N,/CH3-*%
X106700000Y-55240000D03*
%TO.P,J1,4,4*%
%TO.N,unconnected-(J1-Pad4)*%
X104160000Y-55240000D03*
%TO.P,J1,5,5*%
%TO.N,/CH2+*%
X106700000Y-57780000D03*
%TO.P,J1,6,6*%
%TO.N,/CH2-*%
X104160000Y-57780000D03*
%TO.P,J1,7,7*%
%TO.N,unconnected-(J1-Pad7)*%
X106700000Y-60320000D03*
%TO.P,J1,8,8*%
%TO.N,/CH1+*%
X104160000Y-60320000D03*
%TO.P,J1,9,9*%
%TO.N,/CH1-*%
X106700000Y-62860000D03*
%TO.P,J1,10,10*%
%TO.N,unconnected-(J1-Pad10)*%
X104160000Y-62860000D03*
%TO.P,J1,11,11*%
%TO.N,unconnected-(J1-Pad11)*%
X106700000Y-65400000D03*
%TO.P,J1,12,12*%
%TO.N,unconnected-(J1-Pad12)*%
X104160000Y-65400000D03*
%TO.P,J1,13,13*%
%TO.N,AGND*%
X106700000Y-67940000D03*
%TO.P,J1,14,14*%
%TO.N,+12V*%
X104160000Y-67940000D03*
%TO.P,J1,15,15*%
%TO.N,-12V*%
X106700000Y-70480000D03*
%TO.P,J1,16,16*%
%TO.N,AGND*%
X104160000Y-70480000D03*
%TO.P,J1,17,17*%
%TO.N,unconnected-(J1-Pad17)*%
X106700000Y-73020000D03*
%TO.P,J1,18,18*%
%TO.N,unconnected-(J1-Pad18)*%
X104160000Y-73020000D03*
%TO.P,J1,19,19*%
%TO.N,unconnected-(J1-Pad19)*%
X106700000Y-75560000D03*
%TO.P,J1,20,20*%
%TO.N,unconnected-(J1-Pad20)*%
X104160000Y-75560000D03*
%TD*%
D17*
%TO.P,P4,1,1*%
%TO.N,/CH1+*%
X115300000Y-64080000D03*
D18*
%TO.P,P4,2,2*%
%TO.N,/CH1-*%
X115300000Y-61540000D03*
%TO.P,P4,3,3*%
%TO.N,/CH2+*%
X115300000Y-59000000D03*
%TO.P,P4,4,4*%
%TO.N,/CH2-*%
X115300000Y-56460000D03*
%TO.P,P4,5,5*%
%TO.N,/CH3+*%
X115300000Y-53920000D03*
%TO.P,P4,6,6*%
%TO.N,/CH3-*%
X115300000Y-51380000D03*
%TD*%
D19*
%TO.P,IC9,*%
%TO.N,*%
X184700000Y-133490000D03*
D11*
%TO.P,IC9,1,VDD*%
%TO.N,+3.3V*%
X209200000Y-129680000D03*
D12*
%TO.P,IC9,2,DATA*%
%TO.N,Net-(IC9-DATA)*%
X209200000Y-132220000D03*
%TO.P,IC9,3,NULL*%
%TO.N,unconnected-(IC9-NULL-Pad3)*%
X209200000Y-134760000D03*
%TO.P,IC9,4,GND*%
%TO.N,GND*%
X209200000Y-137300000D03*
%TD*%
D11*
%TO.P,P2,1,1*%
%TO.N,+12V*%
X122180000Y-86100000D03*
D12*
%TO.P,P2,2,2*%
%TO.N,-12V*%
X119640000Y-86100000D03*
%TO.P,P2,3,3*%
%TO.N,AGND*%
X117100000Y-86100000D03*
%TO.P,P2,4,4*%
%TO.N,+8V*%
X114560000Y-86100000D03*
%TO.P,P2,5,5*%
%TO.N,-8V*%
X112020000Y-86100000D03*
%TO.P,P2,6,6*%
%TO.N,AGND*%
X109480000Y-86100000D03*
%TD*%
D17*
%TO.P,P5,1,1*%
%TO.N,+12V*%
X115400000Y-77320000D03*
D18*
%TO.P,P5,2,2*%
%TO.N,AGND*%
X115400000Y-74780000D03*
%TO.P,P5,3,3*%
%TO.N,-12V*%
X115400000Y-72240000D03*
%TO.P,P5,4,4*%
%TO.N,AGND*%
X115400000Y-69700000D03*
%TD*%
D11*
%TO.P,J2,1,1*%
%TO.N,+3.3V*%
X223360000Y-140460000D03*
D12*
%TO.P,J2,2,2*%
%TO.N,+5V_CONM*%
X225900000Y-140460000D03*
%TO.P,J2,3,3*%
%TO.N,unconnected-(J2-Pad3)*%
X223360000Y-137920000D03*
%TO.P,J2,4,4*%
%TO.N,+5V_CONM*%
X225900000Y-137920000D03*
%TO.P,J2,5,5*%
%TO.N,unconnected-(J2-Pad5)*%
X223360000Y-135380000D03*
%TO.P,J2,6,6*%
%TO.N,GND*%
X225900000Y-135380000D03*
%TO.P,J2,7,7*%
%TO.N,unconnected-(J2-Pad7)*%
X223360000Y-132840000D03*
%TO.P,J2,8,8*%
%TO.N,unconnected-(J2-Pad8)*%
X225900000Y-132840000D03*
%TO.P,J2,9,9*%
%TO.N,GND*%
X223360000Y-130300000D03*
%TO.P,J2,10,10*%
%TO.N,unconnected-(J2-Pad10)*%
X225900000Y-130300000D03*
%TO.P,J2,11,11*%
%TO.N,Net-(J2-Pad11)*%
X223360000Y-127760000D03*
%TO.P,J2,12,12*%
%TO.N,Net-(IC9-DATA)*%
X225900000Y-127760000D03*
%TO.P,J2,13,13*%
%TO.N,unconnected-(J2-Pad13)*%
X223360000Y-125220000D03*
%TO.P,J2,14,14*%
%TO.N,GND*%
X225900000Y-125220000D03*
%TO.P,J2,15,15*%
%TO.N,unconnected-(J2-Pad15)*%
X223360000Y-122680000D03*
%TO.P,J2,16,16*%
%TO.N,unconnected-(J2-Pad16)*%
X225900000Y-122680000D03*
%TO.P,J2,17,17*%
%TO.N,+3.3V*%
X223360000Y-120140000D03*
%TO.P,J2,18,18*%
%TO.N,unconnected-(J2-Pad18)*%
X225900000Y-120140000D03*
%TO.P,J2,19,19*%
%TO.N,Net-(J2-Pad19)*%
X223360000Y-117600000D03*
%TO.P,J2,20,20*%
%TO.N,GND*%
X225900000Y-117600000D03*
%TO.P,J2,21,21*%
%TO.N,Net-(J2-Pad21)*%
X223360000Y-115060000D03*
%TO.P,J2,22,22*%
%TO.N,unconnected-(J2-Pad22)*%
X225900000Y-115060000D03*
%TO.P,J2,23,23*%
%TO.N,Net-(J2-Pad23)*%
X223360000Y-112520000D03*
%TO.P,J2,24,24*%
%TO.N,Net-(J2-Pad24)*%
X225900000Y-112520000D03*
%TO.P,J2,25,25*%
%TO.N,GND*%
X223360000Y-109980000D03*
%TO.P,J2,26,26*%
%TO.N,unconnected-(J2-Pad26)*%
X225900000Y-109980000D03*
%TO.P,J2,27,27*%
%TO.N,unconnected-(J2-Pad27)*%
X223360000Y-107440000D03*
%TO.P,J2,28,28*%
%TO.N,unconnected-(J2-Pad28)*%
X225900000Y-107440000D03*
%TO.P,J2,29,29*%
%TO.N,unconnected-(J2-Pad29)*%
X223360000Y-104900000D03*
%TO.P,J2,30,30*%
%TO.N,GND*%
X225900000Y-104900000D03*
%TO.P,J2,31,31*%
%TO.N,unconnected-(J2-Pad31)*%
X223360000Y-102360000D03*
%TO.P,J2,32,32*%
%TO.N,Net-(J2-Pad32)*%
X225900000Y-102360000D03*
%TO.P,J2,33,33*%
%TO.N,unconnected-(J2-Pad33)*%
X223360000Y-99820000D03*
%TO.P,J2,34,34*%
%TO.N,GND*%
X225900000Y-99820000D03*
%TO.P,J2,35,35*%
%TO.N,unconnected-(J2-Pad35)*%
X223360000Y-97280000D03*
%TO.P,J2,36,36*%
%TO.N,Net-(J2-Pad36)*%
X225900000Y-97280000D03*
%TO.P,J2,37,37*%
%TO.N,unconnected-(J2-Pad37)*%
X223360000Y-94740000D03*
%TO.P,J2,38,38*%
%TO.N,/RST_DSPIC_3.3V*%
X225900000Y-94740000D03*
%TO.P,J2,39,39*%
%TO.N,GND*%
X223360000Y-92200000D03*
%TO.P,J2,40,40*%
%TO.N,Net-(J2-Pad40)*%
X225900000Y-92200000D03*
%TD*%
D11*
%TO.P,P3,1,1*%
%TO.N,GND*%
X134840000Y-144700000D03*
D12*
%TO.P,P3,2,2*%
%TO.N,+5V_CONM*%
X132300000Y-144700000D03*
%TO.P,P3,3,3*%
%TO.N,+5V*%
X129760000Y-144700000D03*
%TO.P,P3,4,4*%
%TO.N,+3.3V*%
X127220000Y-144700000D03*
%TO.P,P3,5,5*%
%TO.N,GND*%
X124680000Y-144700000D03*
%TO.P,P3,6,6*%
%TO.N,+2.5V*%
X122140000Y-144700000D03*
%TO.P,P3,7,7*%
%TO.N,-2.5V*%
X119600000Y-144700000D03*
%TO.P,P3,8,8*%
%TO.N,GND*%
X117060000Y-144700000D03*
%TD*%
D11*
%TO.P,P1,1,~{MCLR/VPP}*%
%TO.N,/MCLR*%
X145680000Y-144700000D03*
D12*
%TO.P,P1,2,VCC*%
%TO.N,+3.3V*%
X148220000Y-144700000D03*
%TO.P,P1,3,GND*%
%TO.N,GND*%
X150760000Y-144700000D03*
%TO.P,P1,4,PGD(ICSPDAT)*%
%TO.N,/PGD*%
X153300000Y-144700000D03*
%TO.P,P1,5,PGC(ICSPCLK)*%
%TO.N,/PGC_A3_5V*%
X155840000Y-144700000D03*
%TO.P,P1,6,PGM(LVP)*%
%TO.N,unconnected-(P1-PGM(LVP)-Pad6)*%
X158380000Y-144700000D03*
%TD*%
D20*
%TO.N,*%
X105000000Y-145000000D03*
X105000000Y-45000000D03*
X231000000Y-145000000D03*
X231000000Y-45000000D03*
D21*
%TO.N,+5V*%
X111500000Y-102900000D03*
%TO.N,/MCLR*%
X145680000Y-127600000D03*
%TO.N,+3.3V*%
X125400000Y-116500000D03*
X168400000Y-106500000D03*
X129287500Y-122987500D03*
X148100000Y-119700000D03*
X182700000Y-106600000D03*
X162237500Y-106562500D03*
X152400000Y-140900000D03*
X182800000Y-112200000D03*
X114600000Y-128500000D03*
X111100000Y-116100000D03*
X156000000Y-106000000D03*
X127000000Y-138100000D03*
X150095000Y-136805000D03*
X121300000Y-117000000D03*
X175400000Y-106500000D03*
X134900000Y-100500000D03*
X114900000Y-124000000D03*
X129300000Y-126100000D03*
X155900000Y-107700000D03*
X123800000Y-132000000D03*
%TO.N,/TX_GPS_3.3V*%
X117100000Y-110500000D03*
%TO.N,/PPS_GPS_3.3V*%
X133000000Y-118800000D03*
%TO.N,+2.5V*%
X169100000Y-88100000D03*
X141100000Y-88300000D03*
X135600000Y-81800000D03*
X163600000Y-81800000D03*
X191800000Y-81800000D03*
X187600000Y-100000000D03*
X179100000Y-96800000D03*
X165975000Y-97925000D03*
X172300000Y-97500000D03*
X197000000Y-87900000D03*
%TO.N,/A0_2.5V*%
X172173748Y-88923011D03*
X200300000Y-88900000D03*
X144200000Y-88900000D03*
X164325000Y-98925000D03*
%TO.N,/A1_2.5V*%
X200900000Y-89500000D03*
X172600000Y-89600000D03*
X144800000Y-89600000D03*
X170600000Y-98000000D03*
%TO.N,/A3_2.5V*%
X165100000Y-91300000D03*
X137100000Y-91300000D03*
X193100000Y-91300000D03*
X184800000Y-96900000D03*
%TO.N,/A2_2.5V*%
X144200000Y-90300000D03*
X200275000Y-90225000D03*
X172075000Y-90225000D03*
X177500000Y-97500000D03*
%TO.N,/SCK_RPI_3.3V*%
X153600000Y-114600000D03*
X118800000Y-115900000D03*
%TO.N,/MOSI_RPI_3.3V*%
X151900000Y-117000000D03*
X115500000Y-119500000D03*
%TO.N,/MISO_RPI_3.3V*%
X117500000Y-116900000D03*
X151600000Y-113700000D03*
%TO.N,/CS_RPI_3.3V*%
X155900000Y-113735000D03*
X119300000Y-117000000D03*
%TO.N,/RES_3_2*%
X187100000Y-79500000D03*
X205200000Y-79500000D03*
%TO.N,GND*%
X121300000Y-112000000D03*
X125300000Y-119900000D03*
X132200000Y-121600000D03*
X156195000Y-123450000D03*
X231900000Y-138800000D03*
X209000000Y-102500000D03*
X198500000Y-78400000D03*
X216500000Y-141600000D03*
X154895000Y-136450000D03*
X147275000Y-103125000D03*
X150100000Y-141000000D03*
X125400000Y-112000000D03*
X146200000Y-100000000D03*
X156295000Y-136450000D03*
X123300000Y-128500000D03*
X142500000Y-78500000D03*
X163700000Y-78300000D03*
X158795000Y-136450000D03*
X189900000Y-111400000D03*
X117900000Y-123500000D03*
X191300000Y-78400000D03*
X157495000Y-123450000D03*
X170600000Y-147000000D03*
X104400000Y-130700000D03*
X121800000Y-119900000D03*
X138100000Y-78500000D03*
X105200000Y-116100000D03*
X153000000Y-103200000D03*
X117887500Y-127487500D03*
X123800000Y-136700000D03*
X148400000Y-141000000D03*
X157470000Y-136425000D03*
X110900000Y-124000000D03*
X114600000Y-132600000D03*
X109700000Y-102900000D03*
X105200000Y-117700000D03*
X126300000Y-123500000D03*
X153660000Y-123415000D03*
X146700000Y-140900000D03*
X209000000Y-100300000D03*
X126400000Y-126500000D03*
X170600000Y-78200000D03*
X154930000Y-123485000D03*
X216400000Y-139900000D03*
X158695000Y-123450000D03*
X107100000Y-123000000D03*
X154800000Y-103200000D03*
X104500000Y-129100000D03*
X133700000Y-126500000D03*
X132800000Y-104200000D03*
%TO.N,+5V_AVDD*%
X131200000Y-99000000D03*
X119200000Y-94400000D03*
X112300000Y-97100001D03*
%TO.N,/RES_2_2*%
X177325000Y-79400000D03*
X159500000Y-79400000D03*
%TO.N,/RES_1_2*%
X131200000Y-79300000D03*
X148700000Y-79300000D03*
%TO.N,/CH2+*%
X152700000Y-71400000D03*
%TO.N,/CH2-*%
X152500000Y-66400000D03*
%TO.N,/CH3+*%
X180600000Y-71700000D03*
%TO.N,/CH3-*%
X180600000Y-66300000D03*
%TO.N,+8V_INA_CH3*%
X202300000Y-67500000D03*
%TO.N,+8V_INA_CH2*%
X174200000Y-67500000D03*
%TO.N,+8V_INA_CH1*%
X146400000Y-67600000D03*
%TO.N,/VREF_+2.5V*%
X206600000Y-46900000D03*
X179200000Y-46400000D03*
X107300000Y-93400000D03*
X109700000Y-94200000D03*
X151500000Y-46400000D03*
X108900000Y-93400000D03*
%TO.N,Net-(U2A--)*%
X193500000Y-49300000D03*
X200200000Y-45600000D03*
%TO.N,Net-(U3A--)*%
X165200000Y-49000000D03*
X172675000Y-45125000D03*
%TO.N,Net-(U4A--)*%
X145000000Y-45200000D03*
X137525000Y-48725000D03*
%TO.N,+8V_TL_CH3*%
X195100000Y-54000000D03*
X190900000Y-54000000D03*
%TO.N,+8V_TL_CH2*%
X167100000Y-54000000D03*
X162500000Y-54000000D03*
%TO.N,+8V_TL_CH1*%
X134900000Y-54000000D03*
X139300000Y-54000000D03*
%TO.N,-8V_TL_CH3*%
X196800000Y-54000000D03*
X201500000Y-54000000D03*
%TO.N,-8V_TL_CH2*%
X168800000Y-54000000D03*
X173400000Y-54000000D03*
%TO.N,-8V_TL_CH1*%
X140800000Y-54000000D03*
X146000000Y-54000000D03*
%TO.N,/AD_DOUT*%
X135700000Y-107200000D03*
X138600000Y-107200000D03*
%TO.N,/AD_DRDY*%
X140200000Y-107200000D03*
X134800000Y-108000000D03*
%TO.N,/AD_CS*%
X143400000Y-107300000D03*
X133700000Y-108700000D03*
%TO.N,/CH1+*%
X124800000Y-71200000D03*
%TO.N,/CH1-*%
X124800000Y-66300000D03*
%TO.N,+8V*%
X130400000Y-54000000D03*
X206800000Y-67500000D03*
X186500000Y-54000000D03*
X158300000Y-54000000D03*
X149125000Y-66025000D03*
X177000000Y-66200000D03*
%TO.N,-8V*%
X184600000Y-77400000D03*
X129525000Y-77325000D03*
X205900000Y-54000000D03*
X150100000Y-54000000D03*
X158900000Y-77100000D03*
X178700000Y-54000000D03*
%TO.N,Net-(IC5-VO)*%
X200500000Y-62700000D03*
%TO.N,Net-(IC6-VO)*%
X172700000Y-62700000D03*
%TO.N,Net-(IC7-VO)*%
X145600000Y-61600000D03*
%TO.N,/INT_FROM_PIC_3.3V*%
X114814579Y-127412149D03*
X147500000Y-118000000D03*
%TO.N,/PIN_EXTRA_3.3V*%
X145400000Y-112600000D03*
X114200000Y-126900000D03*
%TO.N,/PPS_DS3231*%
X129600000Y-120500000D03*
X152395000Y-136400000D03*
%TO.N,/RST_DS3231*%
X153700000Y-136500000D03*
X129500000Y-122000000D03*
%TO.N,/RX_GPS*%
X116300000Y-109600000D03*
%TO.N,/EN_GPS*%
X130700000Y-119000000D03*
%TO.N,AGND*%
X182200000Y-69000000D03*
X106500000Y-90500000D03*
X188250000Y-60050000D03*
X143200000Y-45200000D03*
X140300000Y-95800000D03*
X130900000Y-58800000D03*
X144300000Y-97200000D03*
X206500000Y-72500000D03*
X194900000Y-88200000D03*
X158400000Y-55600000D03*
X149900000Y-55600000D03*
X177000000Y-73700000D03*
X162800000Y-61300000D03*
X138325000Y-88925000D03*
X179000000Y-48400000D03*
X170775000Y-45125000D03*
X206000000Y-49000000D03*
X167000000Y-88200000D03*
X119500000Y-95999999D03*
X152925000Y-69775000D03*
X152925000Y-68125000D03*
X149100000Y-73900000D03*
X124100000Y-92000000D03*
X125703450Y-92003450D03*
X151400000Y-48900000D03*
X145000000Y-99200000D03*
X137300000Y-77300000D03*
X108100000Y-90600000D03*
X177200000Y-58800000D03*
X134700000Y-61500000D03*
X205600000Y-58900000D03*
X132900000Y-96200000D03*
X122500000Y-92000000D03*
X109700000Y-90600000D03*
X192500000Y-77400000D03*
X167000000Y-77100000D03*
X112300000Y-96100000D03*
X190950000Y-61400000D03*
X108200000Y-97200000D03*
X126200000Y-68700000D03*
X144275000Y-98525000D03*
X118000000Y-82200000D03*
X116500000Y-93200000D03*
X198600000Y-44900000D03*
%TO.N,-2.5V*%
X172500000Y-81000000D03*
X144600000Y-81100000D03*
X201500000Y-81300000D03*
%TO.N,VREF_+5V*%
X127300000Y-94800000D03*
X136100000Y-95900000D03*
%TD*%
D22*
%TO.N,/MCLR*%
X145680000Y-127600000D02*
X145680000Y-144700000D01*
%TO.N,/TX_GPS_3.3V*%
X188400000Y-117500000D02*
X189000000Y-118100000D01*
X187250000Y-113350000D02*
X188400000Y-114500000D01*
X192200000Y-117300000D02*
X192200000Y-116014000D01*
X191400000Y-118100000D02*
X192200000Y-117300000D01*
X117100000Y-110500000D02*
X168000000Y-110500000D01*
X170850000Y-113350000D02*
X187250000Y-113350000D01*
X188400000Y-114500000D02*
X188400000Y-117500000D01*
X168000000Y-110500000D02*
X170850000Y-113350000D01*
X189000000Y-118100000D02*
X191400000Y-118100000D01*
%TO.N,/PPS_GPS_3.3V*%
X180500000Y-118800000D02*
X182040000Y-117260000D01*
X133000000Y-118800000D02*
X180500000Y-118800000D01*
X182040000Y-117260000D02*
X182040000Y-116014000D01*
%TO.N,/A0_2.5V*%
X201800000Y-93300000D02*
X201800000Y-89200000D01*
X164350000Y-98900000D02*
X196200000Y-98900000D01*
X201500000Y-88900000D02*
X200300000Y-88900000D01*
X172173748Y-88923011D02*
X172197759Y-88899000D01*
X172197759Y-88899000D02*
X200299000Y-88899000D01*
X196200000Y-98900000D02*
X201800000Y-93300000D01*
X172150737Y-88900000D02*
X172173748Y-88923011D01*
X200299000Y-88899000D02*
X200300000Y-88900000D01*
X144200000Y-88900000D02*
X172150737Y-88900000D01*
X201800000Y-89200000D02*
X201500000Y-88900000D01*
X164325000Y-98925000D02*
X164350000Y-98900000D01*
%TO.N,/A1_2.5V*%
X144800000Y-89600000D02*
X172600000Y-89600000D01*
X170800000Y-98200000D02*
X195600000Y-98200000D01*
X195600000Y-98200000D02*
X200900000Y-92900000D01*
X200800000Y-89600000D02*
X200900000Y-89500000D01*
X200900000Y-92900000D02*
X200900000Y-89500000D01*
X172600000Y-89600000D02*
X200800000Y-89600000D01*
X170600000Y-98000000D02*
X170800000Y-98200000D01*
%TO.N,/A3_2.5V*%
X184800000Y-96900000D02*
X191900000Y-96900000D01*
X165100000Y-91300000D02*
X137100000Y-91300000D01*
X193100000Y-91300000D02*
X165100000Y-91300000D01*
X193100000Y-95700000D02*
X193100000Y-91300000D01*
X191900000Y-96900000D02*
X193100000Y-95700000D01*
%TO.N,/A2_2.5V*%
X172000000Y-90300000D02*
X172075000Y-90225000D01*
X195000000Y-97500000D02*
X200275000Y-92225000D01*
X144200000Y-90300000D02*
X172000000Y-90300000D01*
X172075000Y-90225000D02*
X200275000Y-90225000D01*
X200275000Y-92225000D02*
X200275000Y-90225000D01*
X177500000Y-97500000D02*
X195000000Y-97500000D01*
%TO.N,/SCK_RPI_3.3V*%
X153600000Y-114600000D02*
X120100000Y-114600000D01*
X120100000Y-114600000D02*
X118800000Y-115900000D01*
%TO.N,/MOSI_RPI_3.3V*%
X126800000Y-118300000D02*
X128100000Y-117000000D01*
X119000000Y-118300000D02*
X126800000Y-118300000D01*
X128100000Y-117000000D02*
X151900000Y-117000000D01*
X117800000Y-119500000D02*
X119000000Y-118300000D01*
X115500000Y-119500000D02*
X117800000Y-119500000D01*
%TO.N,/MISO_RPI_3.3V*%
X117500000Y-115400000D02*
X117500000Y-116900000D01*
X151600000Y-113700000D02*
X119200000Y-113700000D01*
X119200000Y-113700000D02*
X117500000Y-115400000D01*
%TO.N,/CS_RPI_3.3V*%
X153800000Y-115800000D02*
X120000000Y-115800000D01*
X120000000Y-115800000D02*
X119300000Y-116500000D01*
X155865000Y-113735000D02*
X153800000Y-115800000D01*
X119300000Y-116500000D02*
X119300000Y-117000000D01*
X155900000Y-113735000D02*
X155865000Y-113735000D01*
D23*
%TO.N,/RES_3_2*%
X187100000Y-79500000D02*
X205200000Y-79500000D01*
D22*
%TO.N,GND*%
X216500000Y-78400000D02*
X223360000Y-85260000D01*
X223360000Y-85260000D02*
X223360000Y-92200000D01*
X138100000Y-78500000D02*
X142500000Y-78500000D01*
X142700000Y-78300000D02*
X163700000Y-78300000D01*
X170600000Y-78200000D02*
X191100000Y-78200000D01*
X191100000Y-78200000D02*
X191300000Y-78400000D01*
X198500000Y-78400000D02*
X216500000Y-78400000D01*
X142500000Y-78500000D02*
X142700000Y-78300000D01*
X132200000Y-121600000D02*
X132000000Y-121400000D01*
X191300000Y-78400000D02*
X198500000Y-78400000D01*
X170500000Y-78300000D02*
X170600000Y-78200000D01*
X163700000Y-78300000D02*
X170500000Y-78300000D01*
D24*
%TO.N,+5V_AVDD*%
X118400000Y-95200000D02*
X119200000Y-94400000D01*
X127800000Y-99000000D02*
X131200000Y-99000000D01*
X118099999Y-97100001D02*
X118400000Y-96800000D01*
X119200000Y-94400000D02*
X123200000Y-94400000D01*
X112300000Y-97100001D02*
X118099999Y-97100001D01*
X118400000Y-96800000D02*
X118400000Y-95200000D01*
X123200000Y-94400000D02*
X127800000Y-99000000D01*
D23*
%TO.N,/RES_2_2*%
X177325000Y-79400000D02*
X159500000Y-79400000D01*
%TO.N,/RES_1_2*%
X131200000Y-79300000D02*
X148700000Y-79300000D01*
%TO.N,/CH2+*%
X120900000Y-59000000D02*
X124000000Y-55900000D01*
X109900000Y-59000000D02*
X115300000Y-59000000D01*
X106700000Y-57780000D02*
X108680000Y-57780000D01*
X124000000Y-55900000D02*
X146900000Y-55900000D01*
X108680000Y-57780000D02*
X109900000Y-59000000D01*
X151300000Y-60300000D02*
X151300000Y-70000000D01*
X151300000Y-70000000D02*
X152700000Y-71400000D01*
X146900000Y-55900000D02*
X151300000Y-60300000D01*
X115300000Y-59000000D02*
X120900000Y-59000000D01*
%TO.N,/CH2-*%
X147400000Y-55000000D02*
X152500000Y-60100000D01*
X115300000Y-56460000D02*
X121940000Y-56460000D01*
X123400000Y-55000000D02*
X147400000Y-55000000D01*
X105480000Y-56460000D02*
X115300000Y-56460000D01*
X104160000Y-57780000D02*
X105480000Y-56460000D01*
X121940000Y-56460000D02*
X123400000Y-55000000D01*
X152500000Y-60100000D02*
X152500000Y-66400000D01*
%TO.N,/CH3+*%
X174500000Y-52800000D02*
X178700000Y-57000000D01*
X133300000Y-52800000D02*
X133400000Y-52700000D01*
X178700000Y-67900000D02*
X180600000Y-69800000D01*
X109400000Y-50300000D02*
X113020000Y-53920000D01*
X104900000Y-50300000D02*
X109400000Y-50300000D01*
X104160000Y-52700000D02*
X104160000Y-51040000D01*
X104160000Y-51040000D02*
X104900000Y-50300000D01*
X113020000Y-53920000D02*
X115300000Y-53920000D01*
X115300000Y-53920000D02*
X116420000Y-52800000D01*
X178700000Y-57000000D02*
X178700000Y-67900000D01*
X133400000Y-52700000D02*
X133500000Y-52800000D01*
X116420000Y-52800000D02*
X133300000Y-52800000D01*
X133500000Y-52800000D02*
X174500000Y-52800000D01*
X180600000Y-69800000D02*
X180600000Y-71700000D01*
%TO.N,/CH3-*%
X103100000Y-49200000D02*
X111000000Y-49200000D01*
X115300000Y-51380000D02*
X174480000Y-51380000D01*
X180200000Y-65900000D02*
X180600000Y-66300000D01*
X103000000Y-53900000D02*
X102100000Y-53000000D01*
X174480000Y-51380000D02*
X180200000Y-57100000D01*
X111000000Y-49200000D02*
X113180000Y-51380000D01*
X102100000Y-50200000D02*
X103100000Y-49200000D01*
X113180000Y-51380000D02*
X115300000Y-51380000D01*
X180200000Y-57100000D02*
X180200000Y-65900000D01*
X105360000Y-53900000D02*
X103000000Y-53900000D01*
X102100000Y-53000000D02*
X102100000Y-50200000D01*
X106700000Y-55240000D02*
X105360000Y-53900000D01*
D24*
%TO.N,+12V*%
X120520000Y-77320000D02*
X122180000Y-78980000D01*
X122180000Y-78980000D02*
X122180000Y-86100000D01*
X115400000Y-77320000D02*
X120520000Y-77320000D01*
D23*
%TO.N,+8V_INA_CH3*%
X202260000Y-67540000D02*
X202300000Y-67500000D01*
X199620000Y-67540000D02*
X202260000Y-67540000D01*
%TO.N,+8V_INA_CH2*%
X174160000Y-67540000D02*
X174200000Y-67500000D01*
X171620000Y-67540000D02*
X174160000Y-67540000D01*
%TO.N,+8V_INA_CH1*%
X143620000Y-67540000D02*
X146340000Y-67540000D01*
X146340000Y-67540000D02*
X146400000Y-67600000D01*
D25*
%TO.N,+5V_CONM*%
X222300000Y-148600000D02*
X226200000Y-144700000D01*
X226200000Y-140760000D02*
X225900000Y-140460000D01*
X134000000Y-148600000D02*
X222300000Y-148600000D01*
X132300000Y-144700000D02*
X132300000Y-146900000D01*
X225900000Y-137920000D02*
X225900000Y-140460000D01*
X226200000Y-144700000D02*
X226200000Y-140760000D01*
X132300000Y-146900000D02*
X134000000Y-148600000D01*
D23*
%TO.N,Net-(U2A--)*%
X200200000Y-45600000D02*
X197200000Y-45600000D01*
X197200000Y-45600000D02*
X193500000Y-49300000D01*
%TO.N,Net-(U3A--)*%
X168800000Y-49000000D02*
X165200000Y-49000000D01*
X172675000Y-45125000D02*
X168800000Y-49000000D01*
%TO.N,Net-(U4A--)*%
X145000000Y-47100000D02*
X144600000Y-47500000D01*
X144600000Y-47500000D02*
X138750000Y-47500000D01*
X145000000Y-45200000D02*
X145000000Y-47100000D01*
X138750000Y-47500000D02*
X137525000Y-48725000D01*
%TO.N,+8V_TL_CH3*%
X190900000Y-54000000D02*
X195100000Y-54000000D01*
%TO.N,+8V_TL_CH2*%
X167100000Y-54000000D02*
X162500000Y-54000000D01*
%TO.N,+8V_TL_CH1*%
X134900000Y-54000000D02*
X139300000Y-54000000D01*
%TO.N,-8V_TL_CH3*%
X196800000Y-54000000D02*
X201500000Y-54000000D01*
%TO.N,-8V_TL_CH2*%
X168800000Y-54000000D02*
X173400000Y-54000000D01*
%TO.N,-8V_TL_CH1*%
X146000000Y-54000000D02*
X140800000Y-54000000D01*
D22*
%TO.N,/AD_DOUT*%
X135700000Y-107200000D02*
X138600000Y-107200000D01*
%TO.N,/AD_DRDY*%
X134800000Y-108000000D02*
X139600000Y-108000000D01*
X139600000Y-108000000D02*
X140200000Y-107400000D01*
X140200000Y-107400000D02*
X140200000Y-107200000D01*
%TO.N,/AD_CS*%
X142000000Y-108700000D02*
X133700000Y-108700000D01*
X143400000Y-107300000D02*
X142000000Y-108700000D01*
D23*
%TO.N,/CH1+*%
X122700000Y-69600000D02*
X124300000Y-71200000D01*
X122700000Y-66800000D02*
X122700000Y-69600000D01*
X115300000Y-64080000D02*
X119980000Y-64080000D01*
X124300000Y-71200000D02*
X124800000Y-71200000D01*
X119980000Y-64080000D02*
X122700000Y-66800000D01*
%TO.N,/CH1-*%
X115300000Y-61540000D02*
X120040000Y-61540000D01*
X108020000Y-61540000D02*
X115300000Y-61540000D01*
X106700000Y-62860000D02*
X108020000Y-61540000D01*
X120040000Y-61540000D02*
X124800000Y-66300000D01*
%TO.N,Net-(IC5-VO)*%
X197600000Y-64100000D02*
X198500000Y-63200000D01*
X197600000Y-64800000D02*
X197600000Y-64100000D01*
X199000000Y-62700000D02*
X200500000Y-62700000D01*
X199620000Y-70080000D02*
X198280000Y-70080000D01*
X198280000Y-70080000D02*
X197700000Y-69500000D01*
X197600000Y-69400000D02*
X197600000Y-64800000D01*
X197700000Y-69500000D02*
X197600000Y-69400000D01*
X198500000Y-63200000D02*
X199000000Y-62700000D01*
%TO.N,Net-(IC6-VO)*%
X170380000Y-70080000D02*
X169500000Y-69200000D01*
X170900000Y-62700000D02*
X172700000Y-62700000D01*
X169500000Y-64100000D02*
X170900000Y-62700000D01*
X171620000Y-70080000D02*
X170380000Y-70080000D01*
X169500000Y-69200000D02*
X169500000Y-64100000D01*
%TO.N,Net-(IC7-VO)*%
X141400000Y-69000000D02*
X141400000Y-64400000D01*
X144200000Y-61600000D02*
X145600000Y-61600000D01*
X143620000Y-70080000D02*
X142480000Y-70080000D01*
X142480000Y-70080000D02*
X141400000Y-69000000D01*
X141400000Y-64400000D02*
X144200000Y-61600000D01*
D22*
%TO.N,/INT_FROM_PIC_3.3V*%
X115300000Y-127400000D02*
X114802430Y-127400000D01*
X116800000Y-121400000D02*
X116800000Y-125900000D01*
X147500000Y-118000000D02*
X128600000Y-118000000D01*
X127700000Y-118900000D02*
X119300000Y-118900000D01*
X116800000Y-125900000D02*
X115300000Y-127400000D01*
X114802430Y-127400000D02*
X114814579Y-127412149D01*
X128600000Y-118000000D02*
X127700000Y-118900000D01*
X119300000Y-118900000D02*
X116800000Y-121400000D01*
%TO.N,/PIN_EXTRA_3.3V*%
X113900000Y-116300000D02*
X113900000Y-126600000D01*
X145400000Y-112600000D02*
X117600000Y-112600000D01*
X117600000Y-112600000D02*
X113900000Y-116300000D01*
X113900000Y-126600000D02*
X114200000Y-126900000D01*
%TO.N,/PPS_DS3231*%
X152400000Y-131000000D02*
X141900000Y-120500000D01*
X152395000Y-136400000D02*
X152400000Y-136395000D01*
X141900000Y-120500000D02*
X129600000Y-120500000D01*
X152400000Y-136395000D02*
X152400000Y-131000000D01*
%TO.N,/RST_DS3231*%
X151700000Y-137300000D02*
X150700000Y-136300000D01*
X152900000Y-137300000D02*
X151700000Y-137300000D01*
X150700000Y-130400000D02*
X142800000Y-122500000D01*
X153700000Y-136500000D02*
X152900000Y-137300000D01*
X142800000Y-122500000D02*
X130000000Y-122500000D01*
X150700000Y-136300000D02*
X150700000Y-130400000D01*
X130000000Y-122500000D02*
X129500000Y-122000000D01*
%TO.N,/RX_GPS*%
X186000000Y-109600000D02*
X189660000Y-113260000D01*
X116300000Y-109600000D02*
X186000000Y-109600000D01*
X189660000Y-113260000D02*
X189660000Y-116014000D01*
%TO.N,/EN_GPS*%
X145700000Y-120500000D02*
X197400000Y-120500000D01*
X197400000Y-120500000D02*
X199820000Y-118080000D01*
X199820000Y-118080000D02*
X199820000Y-116014000D01*
X130700000Y-119000000D02*
X131200000Y-119500000D01*
X144700000Y-119500000D02*
X145700000Y-120500000D01*
X131200000Y-119500000D02*
X144700000Y-119500000D01*
D24*
%TO.N,-12V*%
X109180000Y-70480000D02*
X110940000Y-72240000D01*
X106700000Y-70480000D02*
X109180000Y-70480000D01*
X110940000Y-72240000D02*
X115400000Y-72240000D01*
%TO.N,VREF_+5V*%
X135000000Y-94800000D02*
X136100000Y-95900000D01*
X127300000Y-94800000D02*
X135000000Y-94800000D01*
%TD*%
M02*
