%TF.GenerationSoftware,KiCad,Pcbnew,9.0.3*%
%TF.CreationDate,2025-10-27T19:17:52+08:00*%
%TF.ProjectId,Acelerografo,4163656c-6572-46f6-9772-61666f2e6b69,rev?*%
%TF.SameCoordinates,Original*%
%TF.FileFunction,Soldermask,Top*%
%TF.FilePolarity,Negative*%
%FSLAX46Y46*%
G04 Gerber Fmt 4.6, Leading zero omitted, Abs format (unit mm)*
G04 Created by KiCad (PCBNEW 9.0.3) date 2025-10-27 19:17:52*
%MOMM*%
%LPD*%
G01*
G04 APERTURE LIST*
G04 Aperture macros list*
%AMRoundRect*
0 Rectangle with rounded corners*
0 $1 Rounding radius*
0 $2 $3 $4 $5 $6 $7 $8 $9 X,Y pos of 4 corners*
0 Add a 4 corners polygon primitive as box body*
4,1,4,$2,$3,$4,$5,$6,$7,$8,$9,$2,$3,0*
0 Add four circle primitives for the rounded corners*
1,1,$1+$1,$2,$3*
1,1,$1+$1,$4,$5*
1,1,$1+$1,$6,$7*
1,1,$1+$1,$8,$9*
0 Add four rect primitives between the rounded corners*
20,1,$1+$1,$2,$3,$4,$5,0*
20,1,$1+$1,$4,$5,$6,$7,0*
20,1,$1+$1,$6,$7,$8,$9,0*
20,1,$1+$1,$8,$9,$2,$3,0*%
G04 Aperture macros list end*
%ADD10R,1.200000X2.500000*%
%ADD11RoundRect,0.225000X0.225000X0.250000X-0.225000X0.250000X-0.225000X-0.250000X0.225000X-0.250000X0*%
%ADD12RoundRect,0.225000X-0.250000X0.225000X-0.250000X-0.225000X0.250000X-0.225000X0.250000X0.225000X0*%
%ADD13RoundRect,0.135000X-0.185000X0.135000X-0.185000X-0.135000X0.185000X-0.135000X0.185000X0.135000X0*%
%ADD14C,1.400000*%
%ADD15RoundRect,0.250000X-1.500000X-0.550000X1.500000X-0.550000X1.500000X0.550000X-1.500000X0.550000X0*%
%ADD16C,1.100000*%
%ADD17RoundRect,0.249999X0.850001X-0.850001X0.850001X0.850001X-0.850001X0.850001X-0.850001X-0.850001X0*%
%ADD18C,2.200000*%
%ADD19RoundRect,0.250000X-0.650000X0.325000X-0.650000X-0.325000X0.650000X-0.325000X0.650000X0.325000X0*%
%ADD20RoundRect,0.250000X1.500000X-0.925000X1.500000X0.925000X-1.500000X0.925000X-1.500000X-0.925000X0*%
%ADD21RoundRect,0.250000X-0.650000X1.000000X-0.650000X-1.000000X0.650000X-1.000000X0.650000X1.000000X0*%
%ADD22RoundRect,0.225000X-0.225000X-0.250000X0.225000X-0.250000X0.225000X0.250000X-0.225000X0.250000X0*%
%ADD23RoundRect,0.225000X0.250000X-0.225000X0.250000X0.225000X-0.250000X0.225000X-0.250000X-0.225000X0*%
%ADD24RoundRect,0.200000X-0.200000X-0.275000X0.200000X-0.275000X0.200000X0.275000X-0.200000X0.275000X0*%
%ADD25RoundRect,0.243750X-0.456250X0.243750X-0.456250X-0.243750X0.456250X-0.243750X0.456250X0.243750X0*%
%ADD26RoundRect,0.135000X0.135000X0.185000X-0.135000X0.185000X-0.135000X-0.185000X0.135000X-0.185000X0*%
%ADD27RoundRect,0.250000X0.650000X-0.325000X0.650000X0.325000X-0.650000X0.325000X-0.650000X-0.325000X0*%
%ADD28C,3.500000*%
%ADD29C,2.000000*%
%ADD30R,1.600000X2.000000*%
%ADD31O,1.600000X2.000000*%
%ADD32R,1.200000X1.200000*%
%ADD33R,1.700000X1.700000*%
%ADD34C,1.700000*%
%ADD35RoundRect,0.250000X0.650000X-1.000000X0.650000X1.000000X-0.650000X1.000000X-0.650000X-1.000000X0*%
%ADD36RoundRect,0.200000X-0.275000X0.200000X-0.275000X-0.200000X0.275000X-0.200000X0.275000X0.200000X0*%
%ADD37RoundRect,0.125000X-0.125000X-0.125000X0.125000X-0.125000X0.125000X0.125000X-0.125000X0.125000X0*%
%ADD38RoundRect,0.150000X0.150000X-0.875000X0.150000X0.875000X-0.150000X0.875000X-0.150000X-0.875000X0*%
%ADD39RoundRect,0.200000X0.275000X-0.200000X0.275000X0.200000X-0.275000X0.200000X-0.275000X-0.200000X0*%
%ADD40RoundRect,0.375000X0.625000X0.375000X-0.625000X0.375000X-0.625000X-0.375000X0.625000X-0.375000X0*%
%ADD41RoundRect,0.500000X0.500000X1.400000X-0.500000X1.400000X-0.500000X-1.400000X0.500000X-1.400000X0*%
%ADD42RoundRect,0.125000X0.125000X0.125000X-0.125000X0.125000X-0.125000X-0.125000X0.125000X-0.125000X0*%
%ADD43RoundRect,0.112500X0.112500X-0.187500X0.112500X0.187500X-0.112500X0.187500X-0.112500X-0.187500X0*%
%ADD44RoundRect,0.250000X-1.000000X-0.650000X1.000000X-0.650000X1.000000X0.650000X-1.000000X0.650000X0*%
%ADD45RoundRect,0.150000X0.820000X0.150000X-0.820000X0.150000X-0.820000X-0.150000X0.820000X-0.150000X0*%
%ADD46R,2.620000X3.510000*%
%ADD47C,3.000000*%
%ADD48C,6.000000*%
G04 APERTURE END LIST*
D10*
%TO.C,SW1*%
X103190000Y-125250000D03*
X103190000Y-137750000D03*
X110810000Y-125250000D03*
X110810000Y-137750000D03*
%TD*%
D11*
%TO.C,C5*%
X138475000Y-116300000D03*
X136925000Y-116300000D03*
%TD*%
D12*
%TO.C,C10*%
X156500000Y-76725000D03*
X156500000Y-78275000D03*
%TD*%
D13*
%TO.C,R8*%
X156500000Y-79990000D03*
X156500000Y-81010000D03*
%TD*%
D14*
%TO.C,W1*%
X119250000Y-140500000D03*
X116710000Y-140500000D03*
%TD*%
D15*
%TO.C,C15*%
X143200000Y-77300000D03*
X148800000Y-77300000D03*
%TD*%
D12*
%TO.C,C16*%
X157500000Y-70225000D03*
X157500000Y-71775000D03*
%TD*%
D16*
%TO.C,J1*%
X187700000Y-67600000D03*
X187700000Y-65060000D03*
D17*
X185160000Y-67600000D03*
D18*
X185160000Y-65060000D03*
%TD*%
D19*
%TO.C,C11*%
X161500000Y-69525000D03*
X161500000Y-72475000D03*
%TD*%
D20*
%TO.C,L1*%
X169500000Y-73050000D03*
X169500000Y-67000000D03*
%TD*%
D11*
%TO.C,C8*%
X180775000Y-120000000D03*
X179225000Y-120000000D03*
%TD*%
D21*
%TO.C,D5*%
X178000000Y-76000000D03*
X178000000Y-80000000D03*
%TD*%
D22*
%TO.C,C1*%
X147225000Y-116100000D03*
X148775000Y-116100000D03*
%TD*%
D11*
%TO.C,C7*%
X160775000Y-83000000D03*
X159225000Y-83000000D03*
%TD*%
D23*
%TO.C,C6*%
X151400000Y-132275000D03*
X151400000Y-130725000D03*
%TD*%
D14*
%TO.C,W2*%
X174500000Y-72150000D03*
X174500000Y-69610000D03*
%TD*%
D24*
%TO.C,R6*%
X109175000Y-122100000D03*
X110825000Y-122100000D03*
%TD*%
D15*
%TO.C,C19*%
X131200000Y-69500000D03*
X136800000Y-69500000D03*
%TD*%
D25*
%TO.C,D8*%
X160500000Y-111062500D03*
X160500000Y-112937500D03*
%TD*%
D26*
%TO.C,R3*%
X159010000Y-74500000D03*
X157990000Y-74500000D03*
%TD*%
D27*
%TO.C,C2*%
X168000000Y-79475000D03*
X168000000Y-76525000D03*
%TD*%
D28*
%TO.C,U3*%
X171250000Y-99750000D03*
X171250000Y-114500000D03*
X186000000Y-99750000D03*
X186000000Y-114500000D03*
D29*
X176085000Y-113605000D03*
X178625000Y-113605000D03*
X181165000Y-113605000D03*
X176085000Y-116145000D03*
X178625000Y-116145000D03*
X181165000Y-116145000D03*
X176085000Y-98105000D03*
X178625000Y-98105000D03*
X181165000Y-98105000D03*
X176085000Y-100645000D03*
X178625000Y-100645000D03*
X181165000Y-100645000D03*
%TD*%
D30*
%TO.C,BT1*%
X164400000Y-133200000D03*
D31*
X184900000Y-133200000D03*
%TD*%
D32*
%TO.C,D2*%
X176900000Y-68300000D03*
X176900000Y-65500000D03*
%TD*%
D33*
%TO.C,J3*%
X129350000Y-147500000D03*
D34*
X126810000Y-147500000D03*
X124270000Y-147500000D03*
X121730000Y-147500000D03*
X119190000Y-147500000D03*
X116650000Y-147500000D03*
%TD*%
D35*
%TO.C,D3*%
X174500000Y-80000000D03*
X174500000Y-76000000D03*
%TD*%
D29*
%TO.C,5V1*%
X141800000Y-63700000D03*
%TD*%
D14*
%TO.C,W3*%
X126750000Y-140500000D03*
X129290000Y-140500000D03*
%TD*%
D36*
%TO.C,R5*%
X157500000Y-106175000D03*
X157500000Y-107825000D03*
%TD*%
D37*
%TO.C,D7*%
X167900000Y-83500000D03*
X170100000Y-83500000D03*
%TD*%
D38*
%TO.C,IC1*%
X148940000Y-145000000D03*
X150210000Y-145000000D03*
X151480000Y-145000000D03*
X152750000Y-145000000D03*
X154020000Y-145000000D03*
X155290000Y-145000000D03*
X156560000Y-145000000D03*
X157830000Y-145000000D03*
X159100000Y-145000000D03*
X160370000Y-145000000D03*
X160370000Y-135700000D03*
X159100000Y-135700000D03*
X157830000Y-135700000D03*
X156560000Y-135700000D03*
X155290000Y-135700000D03*
X154020000Y-135700000D03*
X152750000Y-135700000D03*
X151480000Y-135700000D03*
X150210000Y-135700000D03*
X148940000Y-135700000D03*
%TD*%
D39*
%TO.C,R1*%
X120120000Y-125225000D03*
X120120000Y-123575000D03*
%TD*%
D16*
%TO.C,J2*%
X187700000Y-75500000D03*
X187700000Y-72960000D03*
D17*
X185160000Y-75500000D03*
D18*
X185160000Y-72960000D03*
%TD*%
D38*
%TO.C,U1*%
X137170000Y-128200000D03*
X138440000Y-128200000D03*
X139710000Y-128200000D03*
X140980000Y-128200000D03*
X142250000Y-128200000D03*
X143520000Y-128200000D03*
X144790000Y-128200000D03*
X146060000Y-128200000D03*
X147330000Y-128200000D03*
X148600000Y-128200000D03*
X149870000Y-128200000D03*
X151140000Y-128200000D03*
X152410000Y-128200000D03*
X153680000Y-128200000D03*
X153680000Y-118900000D03*
X152410000Y-118900000D03*
X151140000Y-118900000D03*
X149870000Y-118900000D03*
X148600000Y-118900000D03*
X147330000Y-118900000D03*
X146060000Y-118900000D03*
X144790000Y-118900000D03*
X143520000Y-118900000D03*
X142250000Y-118900000D03*
X140980000Y-118900000D03*
X139710000Y-118900000D03*
X138440000Y-118900000D03*
X137170000Y-118900000D03*
%TD*%
D12*
%TO.C,C18*%
X142200000Y-82225000D03*
X142200000Y-83775000D03*
%TD*%
D23*
%TO.C,C20*%
X107600000Y-101975000D03*
X107600000Y-100425000D03*
%TD*%
D36*
%TO.C,R4*%
X160500000Y-106175000D03*
X160500000Y-107825000D03*
%TD*%
D27*
%TO.C,C3*%
X170500000Y-79475000D03*
X170500000Y-76525000D03*
%TD*%
D26*
%TO.C,R2*%
X157010000Y-74500000D03*
X155990000Y-74500000D03*
%TD*%
D40*
%TO.C,U4*%
X137350000Y-83800000D03*
X137350000Y-81500000D03*
D41*
X131050000Y-81500000D03*
D40*
X137350000Y-79200000D03*
%TD*%
D13*
%TO.C,R7*%
X155000000Y-75690000D03*
X155000000Y-76710000D03*
%TD*%
D23*
%TO.C,C17*%
X140200000Y-83775000D03*
X140200000Y-82225000D03*
%TD*%
D36*
%TO.C,R9*%
X107600000Y-96175000D03*
X107600000Y-97825000D03*
%TD*%
D42*
%TO.C,D6*%
X164100000Y-74500000D03*
X161900000Y-74500000D03*
%TD*%
D22*
%TO.C,C14*%
X148980000Y-148050000D03*
X150530000Y-148050000D03*
%TD*%
D19*
%TO.C,C9*%
X164000000Y-69525000D03*
X164000000Y-72475000D03*
%TD*%
D12*
%TO.C,C12*%
X159000000Y-70225000D03*
X159000000Y-71775000D03*
%TD*%
D24*
%TO.C,R10*%
X152630000Y-148050000D03*
X154280000Y-148050000D03*
%TD*%
D29*
%TO.C,3V3*%
X176000000Y-119600000D03*
%TD*%
D43*
%TO.C,D1*%
X120120000Y-120950000D03*
X120120000Y-118850000D03*
%TD*%
D22*
%TO.C,C4*%
X168225000Y-81500000D03*
X169775000Y-81500000D03*
%TD*%
D25*
%TO.C,D9*%
X157500000Y-111000000D03*
X157500000Y-112875000D03*
%TD*%
D44*
%TO.C,D10*%
X159500000Y-66500000D03*
X163500000Y-66500000D03*
%TD*%
D15*
%TO.C,C13*%
X143200000Y-69500000D03*
X148800000Y-69500000D03*
%TD*%
D32*
%TO.C,D4*%
X181300000Y-80000000D03*
X184100000Y-80000000D03*
%TD*%
D45*
%TO.C,U2*%
X164325000Y-80780000D03*
X164325000Y-79510000D03*
X164325000Y-78240000D03*
X164325000Y-76970000D03*
X159365000Y-76970000D03*
X159365000Y-78240000D03*
X159365000Y-79510000D03*
X159365000Y-80780000D03*
D46*
X161845000Y-78875000D03*
%TD*%
D47*
%TO.C,J5*%
X133464000Y-118120000D03*
X133464000Y-97800000D03*
D33*
X104000000Y-97800000D03*
D34*
X104000000Y-100340000D03*
X104000000Y-102880000D03*
X104000000Y-105420000D03*
X104000000Y-107960000D03*
X104000000Y-110500000D03*
X104000000Y-113040000D03*
X104000000Y-115580000D03*
X104000000Y-118120000D03*
%TD*%
D48*
%TO.C,J6*%
X125530000Y-90270000D03*
X183530000Y-90270000D03*
D33*
X178660000Y-89000000D03*
D34*
X178660000Y-91540000D03*
X176120000Y-89000000D03*
X176120000Y-91540000D03*
X173580000Y-89000000D03*
X173580000Y-91540000D03*
X171040000Y-89000000D03*
X171040000Y-91540000D03*
X168500000Y-89000000D03*
X168500000Y-91540000D03*
X165960000Y-89000000D03*
X165960000Y-91540000D03*
X163420000Y-89000000D03*
X163420000Y-91540000D03*
X160880000Y-89000000D03*
X160880000Y-91540000D03*
X158340000Y-89000000D03*
X158340000Y-91540000D03*
X155800000Y-89000000D03*
X155800000Y-91540000D03*
X153260000Y-89000000D03*
X153260000Y-91540000D03*
X150720000Y-89000000D03*
X150720000Y-91540000D03*
X148180000Y-89000000D03*
X148180000Y-91540000D03*
X145640000Y-89000000D03*
X145640000Y-91540000D03*
X143100000Y-89000000D03*
X143100000Y-91540000D03*
X140560000Y-89000000D03*
X140560000Y-91540000D03*
X138020000Y-89000000D03*
X138020000Y-91540000D03*
X135480000Y-89000000D03*
X135480000Y-91540000D03*
X132940000Y-89000000D03*
X132940000Y-91540000D03*
X130400000Y-89000000D03*
X130400000Y-91540000D03*
%TD*%
M02*
