%TF.GenerationSoftware,KiCad,Pcbnew,9.0.3*%
%TF.CreationDate,2025-10-27T19:17:52+08:00*%
%TF.ProjectId,Acelerografo,4163656c-6572-46f6-9772-61666f2e6b69,rev?*%
%TF.SameCoordinates,Original*%
%TF.FileFunction,Copper,L1,Top*%
%TF.FilePolarity,Positive*%
%FSLAX46Y46*%
G04 Gerber Fmt 4.6, Leading zero omitted, Abs format (unit mm)*
G04 Created by KiCad (PCBNEW 9.0.3) date 2025-10-27 19:17:52*
%MOMM*%
%LPD*%
G01*
G04 APERTURE LIST*
G04 Aperture macros list*
%AMRoundRect*
0 Rectangle with rounded corners*
0 $1 Rounding radius*
0 $2 $3 $4 $5 $6 $7 $8 $9 X,Y pos of 4 corners*
0 Add a 4 corners polygon primitive as box body*
4,1,4,$2,$3,$4,$5,$6,$7,$8,$9,$2,$3,0*
0 Add four circle primitives for the rounded corners*
1,1,$1+$1,$2,$3*
1,1,$1+$1,$4,$5*
1,1,$1+$1,$6,$7*
1,1,$1+$1,$8,$9*
0 Add four rect primitives between the rounded corners*
20,1,$1+$1,$2,$3,$4,$5,0*
20,1,$1+$1,$4,$5,$6,$7,0*
20,1,$1+$1,$6,$7,$8,$9,0*
20,1,$1+$1,$8,$9,$2,$3,0*%
G04 Aperture macros list end*
%TA.AperFunction,SMDPad,CuDef*%
%ADD10R,1.200000X2.500000*%
%TD*%
%TA.AperFunction,SMDPad,CuDef*%
%ADD11RoundRect,0.225000X0.225000X0.250000X-0.225000X0.250000X-0.225000X-0.250000X0.225000X-0.250000X0*%
%TD*%
%TA.AperFunction,SMDPad,CuDef*%
%ADD12RoundRect,0.225000X-0.250000X0.225000X-0.250000X-0.225000X0.250000X-0.225000X0.250000X0.225000X0*%
%TD*%
%TA.AperFunction,SMDPad,CuDef*%
%ADD13RoundRect,0.135000X-0.185000X0.135000X-0.185000X-0.135000X0.185000X-0.135000X0.185000X0.135000X0*%
%TD*%
%TA.AperFunction,ComponentPad*%
%ADD14C,1.400000*%
%TD*%
%TA.AperFunction,SMDPad,CuDef*%
%ADD15RoundRect,0.250000X-1.500000X-0.550000X1.500000X-0.550000X1.500000X0.550000X-1.500000X0.550000X0*%
%TD*%
%TA.AperFunction,ComponentPad*%
%ADD16RoundRect,0.249999X0.850001X-0.850001X0.850001X0.850001X-0.850001X0.850001X-0.850001X-0.850001X0*%
%TD*%
%TA.AperFunction,ComponentPad*%
%ADD17C,2.200000*%
%TD*%
%TA.AperFunction,SMDPad,CuDef*%
%ADD18RoundRect,0.250000X-0.650000X0.325000X-0.650000X-0.325000X0.650000X-0.325000X0.650000X0.325000X0*%
%TD*%
%TA.AperFunction,SMDPad,CuDef*%
%ADD19RoundRect,0.250000X1.500000X-0.925000X1.500000X0.925000X-1.500000X0.925000X-1.500000X-0.925000X0*%
%TD*%
%TA.AperFunction,SMDPad,CuDef*%
%ADD20RoundRect,0.250000X-0.650000X1.000000X-0.650000X-1.000000X0.650000X-1.000000X0.650000X1.000000X0*%
%TD*%
%TA.AperFunction,SMDPad,CuDef*%
%ADD21RoundRect,0.225000X-0.225000X-0.250000X0.225000X-0.250000X0.225000X0.250000X-0.225000X0.250000X0*%
%TD*%
%TA.AperFunction,SMDPad,CuDef*%
%ADD22RoundRect,0.225000X0.250000X-0.225000X0.250000X0.225000X-0.250000X0.225000X-0.250000X-0.225000X0*%
%TD*%
%TA.AperFunction,SMDPad,CuDef*%
%ADD23RoundRect,0.200000X-0.200000X-0.275000X0.200000X-0.275000X0.200000X0.275000X-0.200000X0.275000X0*%
%TD*%
%TA.AperFunction,SMDPad,CuDef*%
%ADD24RoundRect,0.243750X-0.456250X0.243750X-0.456250X-0.243750X0.456250X-0.243750X0.456250X0.243750X0*%
%TD*%
%TA.AperFunction,SMDPad,CuDef*%
%ADD25RoundRect,0.135000X0.135000X0.185000X-0.135000X0.185000X-0.135000X-0.185000X0.135000X-0.185000X0*%
%TD*%
%TA.AperFunction,SMDPad,CuDef*%
%ADD26RoundRect,0.250000X0.650000X-0.325000X0.650000X0.325000X-0.650000X0.325000X-0.650000X-0.325000X0*%
%TD*%
%TA.AperFunction,ComponentPad*%
%ADD27C,3.500000*%
%TD*%
%TA.AperFunction,ComponentPad*%
%ADD28C,2.000000*%
%TD*%
%TA.AperFunction,ComponentPad*%
%ADD29R,1.600000X2.000000*%
%TD*%
%TA.AperFunction,ComponentPad*%
%ADD30O,1.600000X2.000000*%
%TD*%
%TA.AperFunction,SMDPad,CuDef*%
%ADD31R,1.200000X1.200000*%
%TD*%
%TA.AperFunction,ComponentPad*%
%ADD32R,1.700000X1.700000*%
%TD*%
%TA.AperFunction,ComponentPad*%
%ADD33C,1.700000*%
%TD*%
%TA.AperFunction,SMDPad,CuDef*%
%ADD34RoundRect,0.250000X0.650000X-1.000000X0.650000X1.000000X-0.650000X1.000000X-0.650000X-1.000000X0*%
%TD*%
%TA.AperFunction,SMDPad,CuDef*%
%ADD35RoundRect,0.200000X-0.275000X0.200000X-0.275000X-0.200000X0.275000X-0.200000X0.275000X0.200000X0*%
%TD*%
%TA.AperFunction,SMDPad,CuDef*%
%ADD36RoundRect,0.125000X-0.125000X-0.125000X0.125000X-0.125000X0.125000X0.125000X-0.125000X0.125000X0*%
%TD*%
%TA.AperFunction,SMDPad,CuDef*%
%ADD37RoundRect,0.150000X0.150000X-0.875000X0.150000X0.875000X-0.150000X0.875000X-0.150000X-0.875000X0*%
%TD*%
%TA.AperFunction,SMDPad,CuDef*%
%ADD38RoundRect,0.200000X0.275000X-0.200000X0.275000X0.200000X-0.275000X0.200000X-0.275000X-0.200000X0*%
%TD*%
%TA.AperFunction,SMDPad,CuDef*%
%ADD39RoundRect,0.375000X0.625000X0.375000X-0.625000X0.375000X-0.625000X-0.375000X0.625000X-0.375000X0*%
%TD*%
%TA.AperFunction,SMDPad,CuDef*%
%ADD40RoundRect,0.500000X0.500000X1.400000X-0.500000X1.400000X-0.500000X-1.400000X0.500000X-1.400000X0*%
%TD*%
%TA.AperFunction,SMDPad,CuDef*%
%ADD41RoundRect,0.125000X0.125000X0.125000X-0.125000X0.125000X-0.125000X-0.125000X0.125000X-0.125000X0*%
%TD*%
%TA.AperFunction,SMDPad,CuDef*%
%ADD42RoundRect,0.112500X0.112500X-0.187500X0.112500X0.187500X-0.112500X0.187500X-0.112500X-0.187500X0*%
%TD*%
%TA.AperFunction,SMDPad,CuDef*%
%ADD43RoundRect,0.250000X-1.000000X-0.650000X1.000000X-0.650000X1.000000X0.650000X-1.000000X0.650000X0*%
%TD*%
%TA.AperFunction,SMDPad,CuDef*%
%ADD44RoundRect,0.150000X0.820000X0.150000X-0.820000X0.150000X-0.820000X-0.150000X0.820000X-0.150000X0*%
%TD*%
%TA.AperFunction,HeatsinkPad*%
%ADD45R,2.620000X3.510000*%
%TD*%
%TA.AperFunction,ComponentPad*%
%ADD46C,3.000000*%
%TD*%
%TA.AperFunction,ComponentPad*%
%ADD47C,6.000000*%
%TD*%
%TA.AperFunction,ViaPad*%
%ADD48C,0.600000*%
%TD*%
%TA.AperFunction,Conductor*%
%ADD49C,0.800000*%
%TD*%
%TA.AperFunction,Conductor*%
%ADD50C,0.400000*%
%TD*%
%TA.AperFunction,Conductor*%
%ADD51C,0.200000*%
%TD*%
G04 APERTURE END LIST*
D10*
%TO.P,SW1,1,1*%
%TO.N,VCC*%
X103190000Y-125250000D03*
%TO.P,SW1,2,2*%
X103190000Y-137750000D03*
%TO.P,SW1,3,K*%
%TO.N,/ONOFF*%
X110810000Y-125250000D03*
%TO.P,SW1,4,A*%
X110810000Y-137750000D03*
%TD*%
D11*
%TO.P,C5,1*%
%TO.N,GND*%
X138475000Y-116300000D03*
%TO.P,C5,2*%
%TO.N,VCC*%
X136925000Y-116300000D03*
%TD*%
D12*
%TO.P,C10,1*%
%TO.N,Net-(C10-Pad1)*%
X156500000Y-76725000D03*
%TO.P,C10,2*%
%TO.N,/COMP*%
X156500000Y-78275000D03*
%TD*%
D13*
%TO.P,R8,1*%
%TO.N,/EN_MP1482*%
X156500000Y-79990000D03*
%TO.P,R8,2*%
%TO.N,/VIN*%
X156500000Y-81010000D03*
%TD*%
D14*
%TO.P,W1,1,A*%
%TO.N,/_DSPIC_RX*%
X119250000Y-140500000D03*
%TO.P,W1,2,B*%
%TO.N,/DSPIC_RX*%
X116710000Y-140500000D03*
%TD*%
D15*
%TO.P,C15,1*%
%TO.N,+5V*%
X143200000Y-77300000D03*
%TO.P,C15,2*%
%TO.N,GND*%
X148800000Y-77300000D03*
%TD*%
D12*
%TO.P,C16,1*%
%TO.N,+5V*%
X157500000Y-70225000D03*
%TO.P,C16,2*%
%TO.N,GND*%
X157500000Y-71775000D03*
%TD*%
D16*
%TO.P,J1,1,Pin_1*%
%TO.N,/FUENTE_12V*%
X185160000Y-67600000D03*
D17*
%TO.P,J1,2,Pin_2*%
%TO.N,GND*%
X185160000Y-65060000D03*
%TD*%
D18*
%TO.P,C11,1*%
%TO.N,Net-(D10-A)*%
X161500000Y-69525000D03*
%TO.P,C11,2*%
%TO.N,GND*%
X161500000Y-72475000D03*
%TD*%
D19*
%TO.P,L1,1,1*%
%TO.N,Net-(D6-K)*%
X169500000Y-73050000D03*
%TO.P,L1,2,2*%
%TO.N,Net-(D10-A)*%
X169500000Y-67000000D03*
%TD*%
D11*
%TO.P,C8,1*%
%TO.N,GND*%
X180775000Y-120000000D03*
%TO.P,C8,2*%
%TO.N,VCC*%
X179225000Y-120000000D03*
%TD*%
D20*
%TO.P,D5,1,K*%
%TO.N,/FUENTE_12V*%
X178000000Y-76000000D03*
%TO.P,D5,2,A*%
%TO.N,/FUENTE_EXT12V*%
X178000000Y-80000000D03*
%TD*%
D21*
%TO.P,C1,1*%
%TO.N,Net-(U1-VCAP)*%
X147225000Y-116100000D03*
%TO.P,C1,2*%
%TO.N,GND*%
X148775000Y-116100000D03*
%TD*%
D11*
%TO.P,C7,1*%
%TO.N,GND*%
X160775000Y-83000000D03*
%TO.P,C7,2*%
%TO.N,Net-(U2-SS)*%
X159225000Y-83000000D03*
%TD*%
D22*
%TO.P,C6,1*%
%TO.N,GND*%
X151400000Y-132275000D03*
%TO.P,C6,2*%
%TO.N,VCC*%
X151400000Y-130725000D03*
%TD*%
D14*
%TO.P,W2,1,A*%
%TO.N,+12V*%
X174500000Y-72150000D03*
%TO.P,W2,2,B*%
%TO.N,/FUENTE_12V*%
X174500000Y-69610000D03*
%TD*%
D23*
%TO.P,R6,1*%
%TO.N,GND*%
X109175000Y-122100000D03*
%TO.P,R6,2*%
%TO.N,/ONOFF*%
X110825000Y-122100000D03*
%TD*%
D15*
%TO.P,C19,1*%
%TO.N,VCC*%
X131200000Y-69500000D03*
%TO.P,C19,2*%
%TO.N,GND*%
X136800000Y-69500000D03*
%TD*%
D24*
%TO.P,D8,1,K*%
%TO.N,Net-(D8-K)*%
X160500000Y-111062500D03*
%TO.P,D8,2,A*%
%TO.N,/TEST1*%
X160500000Y-112937500D03*
%TD*%
D25*
%TO.P,R3,1*%
%TO.N,Net-(D10-A)*%
X159010000Y-74500000D03*
%TO.P,R3,2*%
%TO.N,Net-(U2-FB)*%
X157990000Y-74500000D03*
%TD*%
D26*
%TO.P,C2,1*%
%TO.N,/VIN*%
X168000000Y-79475000D03*
%TO.P,C2,2*%
%TO.N,GND*%
X168000000Y-76525000D03*
%TD*%
D27*
%TO.P,U3,*%
%TO.N,*%
X171250000Y-99750000D03*
X171250000Y-114500000D03*
X186000000Y-99750000D03*
X186000000Y-114500000D03*
D28*
%TO.P,U3,1,INT1*%
%TO.N,/ADXL_INT1*%
X176085000Y-113605000D03*
%TO.P,U3,2,INT2*%
%TO.N,/ADXL_INT2*%
X178625000Y-113605000D03*
%TO.P,U3,3,DRDY*%
%TO.N,/ADXL_DRDY*%
X181165000Y-113605000D03*
%TO.P,U3,4,VDDIO*%
%TO.N,VCC*%
X176085000Y-116145000D03*
%TO.P,U3,5,VDD*%
X178625000Y-116145000D03*
%TO.P,U3,6,GND*%
%TO.N,GND*%
X181165000Y-116145000D03*
%TO.P,U3,7,CS/SCL*%
%TO.N,/SPI2_ADXL355Z_CS*%
X176085000Y-98105000D03*
%TO.P,U3,8,SCLK/GND*%
%TO.N,/SPI2_SCK*%
X178625000Y-98105000D03*
%TO.P,U3,9,MOSI/SDA*%
%TO.N,/SPI2_MOSI*%
X181165000Y-98105000D03*
%TO.P,U3,10,VIP8A*%
%TO.N,unconnected-(U3-VIP8A-Pad10)*%
X176085000Y-100645000D03*
%TO.P,U3,11,VIP8D*%
%TO.N,unconnected-(U3-VIP8D-Pad11)*%
X178625000Y-100645000D03*
%TO.P,U3,12,MISO/SDA*%
%TO.N,/SPI2_MISO*%
X181165000Y-100645000D03*
%TD*%
D29*
%TO.P,BT1,1,+*%
%TO.N,Net-(BT1-+)*%
X164400000Y-133200000D03*
D30*
%TO.P,BT1,2,-*%
%TO.N,GND*%
X184900000Y-133200000D03*
%TD*%
D31*
%TO.P,D2,1,K*%
%TO.N,/FUENTE_12V*%
X176900000Y-68300000D03*
%TO.P,D2,2,A*%
%TO.N,GND*%
X176900000Y-65500000D03*
%TD*%
D32*
%TO.P,J3,1,~{MCLR}/VPP*%
%TO.N,/MCLR*%
X129350000Y-147500000D03*
D33*
%TO.P,J3,2,VDD*%
%TO.N,VCC*%
X126810000Y-147500000D03*
%TO.P,J3,3,VSS*%
%TO.N,GND*%
X124270000Y-147500000D03*
%TO.P,J3,4,PGD/ICSPDAT*%
%TO.N,/DSPIC_TX*%
X121730000Y-147500000D03*
%TO.P,J3,5,PGC/ICSPCLK*%
%TO.N,/_DSPIC_RX*%
X119190000Y-147500000D03*
%TO.P,J3,6,PGM/LVP*%
%TO.N,unconnected-(J3-PGM{slash}LVP-Pad6)*%
X116650000Y-147500000D03*
%TD*%
D34*
%TO.P,D3,1,K*%
%TO.N,/VIN*%
X174500000Y-80000000D03*
%TO.P,D3,2,A*%
%TO.N,+12V*%
X174500000Y-76000000D03*
%TD*%
D28*
%TO.P,5V1,1,1*%
%TO.N,+5V*%
X141800000Y-63700000D03*
%TD*%
D14*
%TO.P,W3,1,A*%
%TO.N,/RESETMICRO*%
X126750000Y-140500000D03*
%TO.P,W3,2,B*%
%TO.N,/MCLR*%
X129290000Y-140500000D03*
%TD*%
D35*
%TO.P,R5,1*%
%TO.N,GND*%
X157500000Y-106175000D03*
%TO.P,R5,2*%
%TO.N,Net-(D9-K)*%
X157500000Y-107825000D03*
%TD*%
D36*
%TO.P,D7,1,K*%
%TO.N,Net-(D7-K)*%
X167900000Y-83500000D03*
%TO.P,D7,2,A*%
%TO.N,Net-(D10-A)*%
X170100000Y-83500000D03*
%TD*%
D37*
%TO.P,IC1,1,~{CS}*%
%TO.N,/SPI2_DS3234_CS*%
X148940000Y-145000000D03*
%TO.P,IC1,2,N.C._1*%
%TO.N,GND*%
X150210000Y-145000000D03*
%TO.P,IC1,3,32KHZ*%
%TO.N,unconnected-(IC1-32KHZ-Pad3)*%
X151480000Y-145000000D03*
%TO.P,IC1,4,VCC*%
%TO.N,VCC*%
X152750000Y-145000000D03*
%TO.P,IC1,5,~{INT/SQW}*%
%TO.N,/DS3231_SQW*%
X154020000Y-145000000D03*
%TO.P,IC1,6,~{RST}*%
%TO.N,unconnected-(IC1-~{RST}-Pad6)*%
X155290000Y-145000000D03*
%TO.P,IC1,7,N.C._2*%
%TO.N,GND*%
X156560000Y-145000000D03*
%TO.P,IC1,8,N.C._3*%
X157830000Y-145000000D03*
%TO.P,IC1,9,N.C._4*%
X159100000Y-145000000D03*
%TO.P,IC1,10,N.C._5*%
X160370000Y-145000000D03*
%TO.P,IC1,11,N.C._6*%
X160370000Y-135700000D03*
%TO.P,IC1,12,N.C._7*%
X159100000Y-135700000D03*
%TO.P,IC1,13,N.C._8*%
X157830000Y-135700000D03*
%TO.P,IC1,14,N.C._9*%
X156560000Y-135700000D03*
%TO.P,IC1,15,GND*%
X155290000Y-135700000D03*
%TO.P,IC1,16,VBAT*%
%TO.N,Net-(BT1-+)*%
X154020000Y-135700000D03*
%TO.P,IC1,17,DIN*%
%TO.N,/SPI2_MOSI*%
X152750000Y-135700000D03*
%TO.P,IC1,18,SCLK_1*%
%TO.N,/SPI2_SCK*%
X151480000Y-135700000D03*
%TO.P,IC1,19,DOUT*%
%TO.N,/SPI2_MISO*%
X150210000Y-135700000D03*
%TO.P,IC1,20,SCLK_2*%
%TO.N,unconnected-(IC1-SCLK_2-Pad20)*%
X148940000Y-135700000D03*
%TD*%
D38*
%TO.P,R1,1*%
%TO.N,/MCLR*%
X120120000Y-125225000D03*
%TO.P,R1,2*%
%TO.N,Net-(D1-K)*%
X120120000Y-123575000D03*
%TD*%
D16*
%TO.P,J2,1,Pin_1*%
%TO.N,/FUENTE_EXT12V*%
X185160000Y-75500000D03*
D17*
%TO.P,J2,2,Pin_2*%
%TO.N,GND*%
X185160000Y-72960000D03*
%TD*%
D37*
%TO.P,U1,1,~{MCLR}*%
%TO.N,/MCLR*%
X137170000Y-128200000D03*
%TO.P,U1,2,AN0/VREF+/CN2/RA0*%
%TO.N,unconnected-(U1-AN0{slash}VREF+{slash}CN2{slash}RA0-Pad2)*%
X138440000Y-128200000D03*
%TO.P,U1,3,AN1/VREF-/CN3/RA1*%
%TO.N,unconnected-(U1-AN1{slash}VREF-{slash}CN3{slash}RA1-Pad3)*%
X139710000Y-128200000D03*
%TO.P,U1,4,PGED1/AN2/C2IN-/RP0/CN4/RB0*%
%TO.N,/SPI1_DSPIC_SS*%
X140980000Y-128200000D03*
%TO.P,U1,5,PGEC1/AN3/C2IN+/RP1/CN5/RB1*%
%TO.N,/SPI2_MISO*%
X142250000Y-128200000D03*
%TO.P,U1,6,AN4/C1IN-/RP2/CN6/RB2*%
%TO.N,/_DSPIC_RX*%
X143520000Y-128200000D03*
%TO.P,U1,7,AN5/C1IN+/RP3/CN7/RB3*%
%TO.N,/DSPIC_TX*%
X144790000Y-128200000D03*
%TO.P,U1,8,VSS*%
%TO.N,GND*%
X146060000Y-128200000D03*
%TO.P,U1,9,OSC1/CLKI/CN30/RA2*%
%TO.N,/SPI2_DS3234_CS*%
X147330000Y-128200000D03*
%TO.P,U1,10,OSC2/CLKO/CN29/PMA0/RA3*%
%TO.N,/SPI2_ADXL355Z_CS*%
X148600000Y-128200000D03*
%TO.P,U1,11,SOSCI/RP4/CN1/PMBE/RB4*%
%TO.N,/RPI_INT2*%
X149870000Y-128200000D03*
%TO.P,U1,12,SOSCO/T1CK/CN0/PMA1/RA4*%
%TO.N,/RPI_INT1*%
X151140000Y-128200000D03*
%TO.P,U1,13,VDD*%
%TO.N,VCC*%
X152410000Y-128200000D03*
%TO.P,U1,14,PGED3/ASDA1/RP5/CN27/PMD7/RB5*%
%TO.N,/SPI2_SCK*%
X153680000Y-128200000D03*
%TO.P,U1,15,PGEC3/ASCL1/RP6/CN24/PMD6/RB6*%
%TO.N,/SPI2_MOSI*%
X153680000Y-118900000D03*
%TO.P,U1,16,INT0/RP7/CN23/PMD5/RB7*%
%TO.N,/SPI1_SCK*%
X152410000Y-118900000D03*
%TO.P,U1,17,TCK/PWM2H1/SCL1/RP8/CN22/PMD4/RB8*%
%TO.N,/SPI1_MISO*%
X151140000Y-118900000D03*
%TO.P,U1,18,TDO/PWM2L1/SDA1/RP9/CN21/PMD3/RB9*%
%TO.N,/SPI1_MOSI*%
X149870000Y-118900000D03*
%TO.P,U1,19,VSS*%
%TO.N,GND*%
X148600000Y-118900000D03*
%TO.P,U1,20,VCAP*%
%TO.N,Net-(U1-VCAP)*%
X147330000Y-118900000D03*
%TO.P,U1,21,PGED2/TDI/PWM1H3/RP10/CN16/PMD2/RB10*%
%TO.N,/ADXL_INT1*%
X146060000Y-118900000D03*
%TO.P,U1,22,PGEC2/TMS/PWM1L3/RP11/CN15/PMD1/RB11*%
%TO.N,/ADXL_INT2*%
X144790000Y-118900000D03*
%TO.P,U1,23,PWM1H2/RP12/CN14/PMD0/RB12*%
%TO.N,/TEST1*%
X143520000Y-118900000D03*
%TO.P,U1,24,PWM1L2/RP13/CN13/PMRD/RB13*%
%TO.N,/ADXL_DRDY*%
X142250000Y-118900000D03*
%TO.P,U1,25,PWM1H1/RTCC/RP14/CN12/PMWR/RB14*%
%TO.N,/GPS_1PPS*%
X140980000Y-118900000D03*
%TO.P,U1,26,PWM1L1/RP15/CN11/PMCS1/RB15*%
%TO.N,/DS3231_SQW*%
X139710000Y-118900000D03*
%TO.P,U1,27,AVSS*%
%TO.N,GND*%
X138440000Y-118900000D03*
%TO.P,U1,28,AVDD*%
%TO.N,VCC*%
X137170000Y-118900000D03*
%TD*%
D12*
%TO.P,C18,1*%
%TO.N,VCC*%
X142200000Y-82225000D03*
%TO.P,C18,2*%
%TO.N,GND*%
X142200000Y-83775000D03*
%TD*%
D22*
%TO.P,C20,1*%
%TO.N,GND*%
X107600000Y-101975000D03*
%TO.P,C20,2*%
%TO.N,VCC*%
X107600000Y-100425000D03*
%TD*%
D35*
%TO.P,R4,1*%
%TO.N,GND*%
X160500000Y-106175000D03*
%TO.P,R4,2*%
%TO.N,Net-(D8-K)*%
X160500000Y-107825000D03*
%TD*%
D26*
%TO.P,C3,1*%
%TO.N,/VIN*%
X170500000Y-79475000D03*
%TO.P,C3,2*%
%TO.N,GND*%
X170500000Y-76525000D03*
%TD*%
D25*
%TO.P,R2,1*%
%TO.N,Net-(U2-FB)*%
X157010000Y-74500000D03*
%TO.P,R2,2*%
%TO.N,GND*%
X155990000Y-74500000D03*
%TD*%
D39*
%TO.P,U4,1,GND*%
%TO.N,GND*%
X137350000Y-83800000D03*
%TO.P,U4,2,VO*%
%TO.N,VCC*%
X137350000Y-81500000D03*
D40*
X131050000Y-81500000D03*
D39*
%TO.P,U4,3,VI*%
%TO.N,+5V*%
X137350000Y-79200000D03*
%TD*%
D13*
%TO.P,R7,1*%
%TO.N,GND*%
X155000000Y-75690000D03*
%TO.P,R7,2*%
%TO.N,Net-(C10-Pad1)*%
X155000000Y-76710000D03*
%TD*%
D22*
%TO.P,C17,1*%
%TO.N,GND*%
X140200000Y-83775000D03*
%TO.P,C17,2*%
%TO.N,VCC*%
X140200000Y-82225000D03*
%TD*%
D35*
%TO.P,R9,1*%
%TO.N,GND*%
X107600000Y-96175000D03*
%TO.P,R9,2*%
%TO.N,/GPS_1PPS*%
X107600000Y-97825000D03*
%TD*%
D41*
%TO.P,D6,1,K*%
%TO.N,Net-(D6-K)*%
X164100000Y-74500000D03*
%TO.P,D6,2,A*%
%TO.N,GND*%
X161900000Y-74500000D03*
%TD*%
D21*
%TO.P,C14,1*%
%TO.N,GND*%
X148980000Y-148050000D03*
%TO.P,C14,2*%
%TO.N,VCC*%
X150530000Y-148050000D03*
%TD*%
D18*
%TO.P,C9,1*%
%TO.N,Net-(D10-A)*%
X164000000Y-69525000D03*
%TO.P,C9,2*%
%TO.N,GND*%
X164000000Y-72475000D03*
%TD*%
D12*
%TO.P,C12,1*%
%TO.N,+5V*%
X159000000Y-70225000D03*
%TO.P,C12,2*%
%TO.N,GND*%
X159000000Y-71775000D03*
%TD*%
D23*
%TO.P,R10,1*%
%TO.N,VCC*%
X152630000Y-148050000D03*
%TO.P,R10,2*%
%TO.N,/DS3231_SQW*%
X154280000Y-148050000D03*
%TD*%
D28*
%TO.P,3V3,1,1*%
%TO.N,VCC*%
X176000000Y-119600000D03*
%TD*%
D42*
%TO.P,D1,1,K*%
%TO.N,Net-(D1-K)*%
X120120000Y-120950000D03*
%TO.P,D1,2,A*%
%TO.N,VCC*%
X120120000Y-118850000D03*
%TD*%
D21*
%TO.P,C4,1*%
%TO.N,Net-(D7-K)*%
X168225000Y-81500000D03*
%TO.P,C4,2*%
%TO.N,Net-(D6-K)*%
X169775000Y-81500000D03*
%TD*%
D24*
%TO.P,D9,1,K*%
%TO.N,Net-(D9-K)*%
X157500000Y-111000000D03*
%TO.P,D9,2,A*%
%TO.N,/TEST2*%
X157500000Y-112875000D03*
%TD*%
D43*
%TO.P,D10,1,K*%
%TO.N,+5V*%
X159500000Y-66500000D03*
%TO.P,D10,2,A*%
%TO.N,Net-(D10-A)*%
X163500000Y-66500000D03*
%TD*%
D15*
%TO.P,C13,1*%
%TO.N,+5V*%
X143200000Y-69500000D03*
%TO.P,C13,2*%
%TO.N,GND*%
X148800000Y-69500000D03*
%TD*%
D31*
%TO.P,D4,1,K*%
%TO.N,/FUENTE_EXT12V*%
X181300000Y-80000000D03*
%TO.P,D4,2,A*%
%TO.N,GND*%
X184100000Y-80000000D03*
%TD*%
D44*
%TO.P,U2,1,BS*%
%TO.N,Net-(D7-K)*%
X164325000Y-80780000D03*
%TO.P,U2,2,IN*%
%TO.N,/VIN*%
X164325000Y-79510000D03*
%TO.P,U2,3,SW*%
%TO.N,Net-(D6-K)*%
X164325000Y-78240000D03*
%TO.P,U2,4,GND*%
%TO.N,GND*%
X164325000Y-76970000D03*
%TO.P,U2,5,FB*%
%TO.N,Net-(U2-FB)*%
X159365000Y-76970000D03*
%TO.P,U2,6,COMP*%
%TO.N,/COMP*%
X159365000Y-78240000D03*
%TO.P,U2,7,EN*%
%TO.N,/EN_MP1482*%
X159365000Y-79510000D03*
%TO.P,U2,8,SS*%
%TO.N,Net-(U2-SS)*%
X159365000Y-80780000D03*
D45*
%TO.P,U2,9*%
%TO.N,N/C*%
X161845000Y-78875000D03*
%TD*%
D46*
%TO.P,J5,*%
%TO.N,*%
X133464000Y-118120000D03*
X133464000Y-97800000D03*
D32*
%TO.P,J5,1,Pin_1*%
%TO.N,/GPS_1PPS*%
X104000000Y-97800000D03*
D33*
%TO.P,J5,2,Pin_2*%
%TO.N,VCC*%
X104000000Y-100340000D03*
%TO.P,J5,3,Pin_3*%
%TO.N,GND*%
X104000000Y-102880000D03*
%TO.P,J5,4,Pin_4*%
%TO.N,/DSPIC_TX*%
X104000000Y-105420000D03*
%TO.P,J5,5,Pin_5*%
%TO.N,/DSPIC_RX*%
X104000000Y-107960000D03*
%TO.P,J5,6,Pin_6*%
%TO.N,unconnected-(J5-Pin_6-Pad6)*%
X104000000Y-110500000D03*
%TO.P,J5,7,Pin_7*%
%TO.N,unconnected-(J5-Pin_7-Pad7)*%
X104000000Y-113040000D03*
%TO.P,J5,8,Pin_8*%
%TO.N,VCC*%
X104000000Y-115580000D03*
%TO.P,J5,9,Pin_9*%
%TO.N,unconnected-(J5-Pin_9-Pad9)*%
X104000000Y-118120000D03*
%TD*%
D47*
%TO.P,J6,*%
%TO.N,*%
X125530000Y-90270000D03*
X183530000Y-90270000D03*
D32*
%TO.P,J6,1,3V3*%
%TO.N,unconnected-(J6-3V3-Pad1)*%
X178660000Y-89000000D03*
D33*
%TO.P,J6,2,5V*%
%TO.N,+5V*%
X178660000Y-91540000D03*
%TO.P,J6,3,SDA_I2C1/GPIO8*%
%TO.N,unconnected-(J6-SDA_I2C1{slash}GPIO8-Pad3)*%
X176120000Y-89000000D03*
%TO.P,J6,4,5V*%
%TO.N,+5V*%
X176120000Y-91540000D03*
%TO.P,J6,5,SCL_I2C1/GPIO9*%
%TO.N,unconnected-(J6-SCL_I2C1{slash}GPIO9-Pad5)*%
X173580000Y-89000000D03*
%TO.P,J6,6,GND*%
%TO.N,GND*%
X173580000Y-91540000D03*
%TO.P,J6,7,GPCLK0/GPIO7*%
%TO.N,unconnected-(J6-GPCLK0{slash}GPIO7-Pad7)*%
X171040000Y-89000000D03*
%TO.P,J6,8,GPIO15/UART_TXD*%
%TO.N,unconnected-(J6-GPIO15{slash}UART_TXD-Pad8)*%
X171040000Y-91540000D03*
%TO.P,J6,9,GND*%
%TO.N,GND*%
X168500000Y-89000000D03*
%TO.P,J6,10,GPIO16/UART_RXD*%
%TO.N,unconnected-(J6-GPIO16{slash}UART_RXD-Pad10)*%
X168500000Y-91540000D03*
%TO.P,J6,11,GPIO0*%
%TO.N,/RPI_INT1*%
X165960000Y-89000000D03*
%TO.P,J6,12,GPIO1/PCM_CLK/PWM0*%
%TO.N,unconnected-(J6-GPIO1{slash}PCM_CLK{slash}PWM0-Pad12)*%
X165960000Y-91540000D03*
%TO.P,J6,13,GPIO2*%
%TO.N,/RPI_INT2*%
X163420000Y-89000000D03*
%TO.P,J6,14,GND*%
%TO.N,GND*%
X163420000Y-91540000D03*
%TO.P,J6,15,GPIO3*%
%TO.N,unconnected-(J6-GPIO3-Pad15)*%
X160880000Y-89000000D03*
%TO.P,J6,16,GPIO4*%
%TO.N,unconnected-(J6-GPIO4-Pad16)*%
X160880000Y-91540000D03*
%TO.P,J6,17,3V3*%
%TO.N,unconnected-(J6-3V3-Pad17)*%
X158340000Y-89000000D03*
%TO.P,J6,18,GPIO5*%
%TO.N,unconnected-(J6-GPIO5-Pad18)*%
X158340000Y-91540000D03*
%TO.P,J6,19,MOSI_SPI0/GPIO12*%
%TO.N,/SPI1_MOSI*%
X155800000Y-89000000D03*
%TO.P,J6,20,GND*%
%TO.N,GND*%
X155800000Y-91540000D03*
%TO.P,J6,21,MISO_SPI0/GPIO13*%
%TO.N,/SPI1_MISO*%
X153260000Y-89000000D03*
%TO.P,J6,22,GPIO6*%
%TO.N,unconnected-(J6-GPIO6-Pad22)*%
X153260000Y-91540000D03*
%TO.P,J6,23,SCLK_SPI0/GPIO14*%
%TO.N,/SPI1_SCK*%
X150720000Y-89000000D03*
%TO.P,J6,24,~{CE0}_SPI0/GPIO10*%
%TO.N,/SPI1_DSPIC_SS*%
X150720000Y-91540000D03*
%TO.P,J6,25,GND*%
%TO.N,GND*%
X148180000Y-89000000D03*
%TO.P,J6,26,~{CE1}_SPI0/GPIO11*%
%TO.N,unconnected-(J6-~{CE1}_SPI0{slash}GPIO11-Pad26)*%
X148180000Y-91540000D03*
%TO.P,J6,27,ID_SD_I2C0*%
%TO.N,unconnected-(J6-ID_SD_I2C0-Pad27)*%
X145640000Y-89000000D03*
%TO.P,J6,28,ID_SC_I2C0*%
%TO.N,unconnected-(J6-ID_SC_I2C0-Pad28)*%
X145640000Y-91540000D03*
%TO.P,J6,29,GPCLK1/GPIO21*%
%TO.N,unconnected-(J6-GPCLK1{slash}GPIO21-Pad29)*%
X143100000Y-89000000D03*
%TO.P,J6,30,GND*%
%TO.N,GND*%
X143100000Y-91540000D03*
%TO.P,J6,31,GPCLK2/GPIO22*%
%TO.N,unconnected-(J6-GPCLK2{slash}GPIO22-Pad31)*%
X140560000Y-89000000D03*
%TO.P,J6,32,GPIO26/PWM0*%
%TO.N,/TEST2*%
X140560000Y-91540000D03*
%TO.P,J6,33,GPIO23/PWM1*%
%TO.N,unconnected-(J6-GPIO23{slash}PWM1-Pad33)*%
X138020000Y-89000000D03*
%TO.P,J6,34,GND*%
%TO.N,GND*%
X138020000Y-91540000D03*
%TO.P,J6,35,GPIO24/PWM1/PCM_FS*%
%TO.N,unconnected-(J6-GPIO24{slash}PWM1{slash}PCM_FS-Pad35)*%
X135480000Y-89000000D03*
%TO.P,J6,36,GPIO27*%
%TO.N,/ONOFF*%
X135480000Y-91540000D03*
%TO.P,J6,37,GPIO25*%
%TO.N,unconnected-(J6-GPIO25-Pad37)*%
X132940000Y-89000000D03*
%TO.P,J6,38,GPIO28/PCM_DIN*%
%TO.N,/RESETMICRO*%
X132940000Y-91540000D03*
%TO.P,J6,39,GND*%
%TO.N,GND*%
X130400000Y-89000000D03*
%TO.P,J6,40,GPIO29/PCM_DOUT*%
%TO.N,unconnected-(J6-GPIO29{slash}PCM_DOUT-Pad40)*%
X130400000Y-91540000D03*
%TD*%
D48*
%TO.N,GND*%
X155300000Y-134000000D03*
X160300000Y-133900000D03*
X159100000Y-147100000D03*
X157800000Y-134000000D03*
X160600000Y-74900000D03*
X185900000Y-80000000D03*
X155000000Y-74600000D03*
X156500000Y-147000000D03*
X151500000Y-72300000D03*
X146000000Y-130200000D03*
X136500000Y-85800000D03*
X151500000Y-73100000D03*
X139600000Y-116300000D03*
X160500000Y-105000000D03*
X150210000Y-146690000D03*
X107600000Y-103200000D03*
X162000000Y-83000000D03*
X139100000Y-85700000D03*
X161700000Y-75800000D03*
X156600000Y-134100000D03*
X157800000Y-147000000D03*
X107600000Y-94800000D03*
X107600000Y-122100000D03*
X138400000Y-71900000D03*
X160600000Y-74000000D03*
X148800000Y-114900000D03*
X166000000Y-75800000D03*
X137900000Y-85700000D03*
X160400000Y-146900000D03*
X160600000Y-75700000D03*
X138300000Y-66500000D03*
X151500000Y-74600000D03*
X151200000Y-133100000D03*
X163000000Y-75800000D03*
X157500000Y-104900000D03*
X159100000Y-133900000D03*
%TO.N,/VIN*%
X156500000Y-82000000D03*
X166100000Y-79600000D03*
%TO.N,Net-(D6-K)*%
X166100000Y-78100000D03*
X171000000Y-81500000D03*
%TO.N,/MCLR*%
X137100000Y-130500000D03*
%TO.N,Net-(D10-A)*%
X159010000Y-75590000D03*
X170100000Y-85300000D03*
X161900000Y-68200000D03*
%TO.N,+5V*%
X156200000Y-63500000D03*
X156100000Y-64600000D03*
X153700000Y-64600000D03*
X153700000Y-63500000D03*
X155000000Y-63500000D03*
X155100000Y-64600000D03*
%TO.N,VCC*%
X151600000Y-148050000D03*
X152410000Y-129890000D03*
X136900000Y-114800000D03*
X120100000Y-117600000D03*
X103200000Y-122800000D03*
%TO.N,/SPI2_ADXL355Z_CS*%
X158800000Y-123300000D03*
%TO.N,/TEST1*%
X143520000Y-116920000D03*
X160500000Y-114400000D03*
%TO.N,/SPI2_MISO*%
X149600000Y-132400000D03*
X158800000Y-130400000D03*
%TO.N,/_DSPIC_RX*%
X143500000Y-126400000D03*
%TO.N,/DSPIC_TX*%
X123000000Y-126900000D03*
X123000000Y-122400000D03*
%TO.N,/SPI2_DS3234_CS*%
X146600000Y-137100000D03*
X147400000Y-130800000D03*
%TO.N,/SPI2_MOSI*%
X153700000Y-116700000D03*
X152750000Y-133850000D03*
%TO.N,/ADXL_INT1*%
X161900000Y-124200000D03*
%TO.N,/DS3231_SQW*%
X139700000Y-121200000D03*
X154020000Y-142720000D03*
%TO.N,/GPS_1PPS*%
X129000000Y-111500000D03*
%TO.N,/ADXL_INT2*%
X161000000Y-121500000D03*
%TO.N,/ADXL_DRDY*%
X159600000Y-122200000D03*
%TO.N,/SPI2_SCK*%
X153680000Y-126520000D03*
%TO.N,/TEST2*%
X155800000Y-112900000D03*
%TO.N,/RESETMICRO*%
X117500000Y-113700000D03*
X117500000Y-115600000D03*
%TO.N,/SPI1_DSPIC_SS*%
X132800000Y-124400000D03*
%TD*%
D49*
%TO.N,GND*%
X184100000Y-80000000D02*
X185900000Y-80000000D01*
D50*
X148775000Y-114925000D02*
X148800000Y-114900000D01*
X150210000Y-145000000D02*
X150210000Y-146690000D01*
D51*
X155990000Y-74500000D02*
X155100000Y-74500000D01*
D50*
X155290000Y-134010000D02*
X155300000Y-134000000D01*
D51*
X148600000Y-116275000D02*
X148775000Y-116100000D01*
D50*
X157500000Y-106175000D02*
X157500000Y-104900000D01*
X156560000Y-134140000D02*
X156600000Y-134100000D01*
X148980000Y-147120000D02*
X149410000Y-146690000D01*
D51*
X107600000Y-101975000D02*
X107600000Y-103200000D01*
X138475000Y-116300000D02*
X139600000Y-116300000D01*
D50*
X146060000Y-128200000D02*
X146060000Y-130140000D01*
X150200000Y-146700000D02*
X150210000Y-146690000D01*
X146060000Y-130140000D02*
X146000000Y-130200000D01*
X148980000Y-148050000D02*
X148980000Y-147120000D01*
X155290000Y-135700000D02*
X155290000Y-134010000D01*
D51*
X107600000Y-96175000D02*
X107600000Y-94800000D01*
D50*
X159100000Y-145000000D02*
X159100000Y-147100000D01*
X157830000Y-135700000D02*
X157830000Y-134030000D01*
X180775000Y-116535000D02*
X181165000Y-116145000D01*
X156560000Y-135700000D02*
X156560000Y-134140000D01*
X160370000Y-135700000D02*
X160370000Y-133970000D01*
X160370000Y-133970000D02*
X160300000Y-133900000D01*
D51*
X148600000Y-118900000D02*
X148600000Y-116275000D01*
D50*
X157830000Y-146970000D02*
X157800000Y-147000000D01*
X151400000Y-132900000D02*
X151200000Y-133100000D01*
X157830000Y-145000000D02*
X157830000Y-146970000D01*
D51*
X155000000Y-75690000D02*
X155000000Y-74600000D01*
X155100000Y-74500000D02*
X155000000Y-74600000D01*
X138440000Y-118900000D02*
X138440000Y-116335000D01*
D50*
X157830000Y-134030000D02*
X157800000Y-134000000D01*
X180775000Y-120000000D02*
X180775000Y-116535000D01*
D51*
X138440000Y-116335000D02*
X138475000Y-116300000D01*
D50*
X151400000Y-132275000D02*
X151400000Y-132900000D01*
X159100000Y-135700000D02*
X159100000Y-133900000D01*
X160370000Y-145000000D02*
X160370000Y-146870000D01*
X160500000Y-106175000D02*
X160500000Y-105000000D01*
D51*
X109175000Y-122100000D02*
X107600000Y-122100000D01*
D50*
X156560000Y-146940000D02*
X156500000Y-147000000D01*
X160370000Y-146870000D02*
X160400000Y-146900000D01*
D51*
X160775000Y-83000000D02*
X162000000Y-83000000D01*
D50*
X148775000Y-116100000D02*
X148775000Y-114925000D01*
X149410000Y-146690000D02*
X150210000Y-146690000D01*
X156560000Y-145000000D02*
X156560000Y-146940000D01*
D51*
%TO.N,Net-(U1-VCAP)*%
X147330000Y-118900000D02*
X147330000Y-116205000D01*
X147330000Y-116205000D02*
X147225000Y-116100000D01*
%TO.N,/VIN*%
X156500000Y-81010000D02*
X156500000Y-82000000D01*
%TO.N,Net-(D6-K)*%
X169775000Y-81500000D02*
X171000000Y-81500000D01*
D50*
%TO.N,Net-(D7-K)*%
X168225000Y-82775000D02*
X168225000Y-81500000D01*
X164325000Y-80780000D02*
X166280000Y-80780000D01*
X166280000Y-80780000D02*
X167000000Y-81500000D01*
X167900000Y-83500000D02*
X167900000Y-83100000D01*
X167900000Y-83100000D02*
X168225000Y-82775000D01*
X167000000Y-81500000D02*
X168225000Y-81500000D01*
%TO.N,/MCLR*%
X120120000Y-127820000D02*
X120120000Y-125225000D01*
D51*
X137170000Y-128200000D02*
X137170000Y-130430000D01*
D50*
X137100000Y-130500000D02*
X122800000Y-130500000D01*
X129350000Y-140560000D02*
X129290000Y-140500000D01*
X122800000Y-130500000D02*
X120120000Y-127820000D01*
X129350000Y-147500000D02*
X129350000Y-140560000D01*
D51*
X137170000Y-130430000D02*
X137100000Y-130500000D01*
%TO.N,Net-(U2-SS)*%
X157920000Y-80780000D02*
X159365000Y-80780000D01*
X157600000Y-81100000D02*
X157920000Y-80780000D01*
X157800000Y-83000000D02*
X157600000Y-82800000D01*
X157600000Y-82800000D02*
X157600000Y-81100000D01*
X159225000Y-83000000D02*
X157800000Y-83000000D01*
%TO.N,Net-(D10-A)*%
X170100000Y-83500000D02*
X170100000Y-85300000D01*
X159010000Y-74500000D02*
X159010000Y-75590000D01*
X159000000Y-75600000D02*
X159010000Y-75590000D01*
D50*
%TO.N,Net-(C10-Pad1)*%
X155015000Y-76725000D02*
X155000000Y-76710000D01*
X156500000Y-76725000D02*
X155015000Y-76725000D01*
D49*
%TO.N,VCC*%
X117760000Y-100340000D02*
X104000000Y-100340000D01*
X139475000Y-81500000D02*
X140200000Y-82225000D01*
D51*
X137170000Y-118900000D02*
X137170000Y-116545000D01*
D49*
X131050000Y-81250000D02*
X131200000Y-81100000D01*
D50*
X176085000Y-116145000D02*
X178625000Y-116145000D01*
D49*
X137350000Y-81500000D02*
X139475000Y-81500000D01*
D51*
X152410000Y-128200000D02*
X152410000Y-129890000D01*
D50*
X152630000Y-148050000D02*
X152630000Y-145120000D01*
D49*
X137350000Y-81500000D02*
X131050000Y-81500000D01*
D50*
X120120000Y-118850000D02*
X120120000Y-117620000D01*
X120120000Y-117620000D02*
X120100000Y-117600000D01*
D51*
X151400000Y-130400000D02*
X151910000Y-129890000D01*
D49*
X142200000Y-82225000D02*
X140200000Y-82225000D01*
X124400000Y-81500000D02*
X121900000Y-84000000D01*
D50*
X179225000Y-120000000D02*
X179225000Y-116745000D01*
X150530000Y-148050000D02*
X151600000Y-148050000D01*
X103190000Y-122810000D02*
X103200000Y-122800000D01*
D49*
X121900000Y-96200000D02*
X117760000Y-100340000D01*
D50*
X179225000Y-116745000D02*
X178625000Y-116145000D01*
X136925000Y-116300000D02*
X136925000Y-114825000D01*
X151600000Y-148050000D02*
X152630000Y-148050000D01*
D49*
X131050000Y-81500000D02*
X124400000Y-81500000D01*
D51*
X137170000Y-116545000D02*
X136925000Y-116300000D01*
D49*
X131050000Y-81500000D02*
X131050000Y-81250000D01*
D51*
X152400000Y-129900000D02*
X152410000Y-129890000D01*
D50*
X103190000Y-137750000D02*
X103190000Y-125250000D01*
D49*
X121900000Y-84000000D02*
X121900000Y-96200000D01*
D50*
X152630000Y-145120000D02*
X152750000Y-145000000D01*
D51*
X151400000Y-130725000D02*
X151400000Y-130400000D01*
X151910000Y-129890000D02*
X152410000Y-129890000D01*
D50*
X136925000Y-114825000D02*
X136900000Y-114800000D01*
D49*
X131200000Y-81100000D02*
X131200000Y-69500000D01*
D50*
X103190000Y-125250000D02*
X103190000Y-122810000D01*
%TO.N,Net-(D1-K)*%
X120120000Y-123575000D02*
X120120000Y-120950000D01*
D51*
%TO.N,/SPI2_ADXL355Z_CS*%
X150900000Y-124500000D02*
X148600000Y-126800000D01*
X158800000Y-123300000D02*
X157600000Y-124500000D01*
X148600000Y-126800000D02*
X148600000Y-128200000D01*
X157600000Y-124500000D02*
X150900000Y-124500000D01*
%TO.N,/TEST1*%
X143520000Y-118900000D02*
X143520000Y-116920000D01*
X160500000Y-112937500D02*
X160500000Y-114400000D01*
X143500000Y-116900000D02*
X143520000Y-116920000D01*
%TO.N,Net-(D8-K)*%
X160500000Y-111062500D02*
X160500000Y-107825000D01*
D50*
%TO.N,/SPI2_MISO*%
X160200000Y-130400000D02*
X167000000Y-123600000D01*
D51*
X142900000Y-132400000D02*
X142250000Y-131750000D01*
D50*
X167000000Y-108800000D02*
X170400000Y-105400000D01*
D51*
X149600000Y-132400000D02*
X142900000Y-132400000D01*
D50*
X180000000Y-105400000D02*
X181165000Y-104235000D01*
D51*
X142250000Y-131750000D02*
X142250000Y-128200000D01*
X150210000Y-133010000D02*
X149600000Y-132400000D01*
D50*
X170400000Y-105400000D02*
X180000000Y-105400000D01*
X158800000Y-130400000D02*
X160200000Y-130400000D01*
D51*
X150210000Y-135700000D02*
X150210000Y-133010000D01*
D50*
X167000000Y-123600000D02*
X167000000Y-108800000D01*
X181165000Y-104235000D02*
X181165000Y-100645000D01*
D51*
%TO.N,Net-(D9-K)*%
X157500000Y-111000000D02*
X157500000Y-107825000D01*
D50*
%TO.N,Net-(U2-FB)*%
X158470000Y-76970000D02*
X157990000Y-76490000D01*
X157990000Y-76490000D02*
X157990000Y-74500000D01*
X157990000Y-74500000D02*
X157010000Y-74500000D01*
X159365000Y-76970000D02*
X158470000Y-76970000D01*
%TO.N,/_DSPIC_RX*%
X119190000Y-140560000D02*
X119250000Y-140500000D01*
D51*
X143520000Y-126420000D02*
X143500000Y-126400000D01*
X143520000Y-128200000D02*
X143520000Y-126420000D01*
D50*
%TO.N,/COMP*%
X159365000Y-78240000D02*
X156535000Y-78240000D01*
X156535000Y-78240000D02*
X156500000Y-78275000D01*
D51*
%TO.N,/DSPIC_TX*%
X123000000Y-122400000D02*
X142100000Y-122400000D01*
X144790000Y-125090000D02*
X144790000Y-128200000D01*
X123000000Y-122400000D02*
X123000000Y-126900000D01*
X142100000Y-122400000D02*
X144790000Y-125090000D01*
D50*
%TO.N,/EN_MP1482*%
X156980000Y-79510000D02*
X156500000Y-79990000D01*
X159365000Y-79510000D02*
X156980000Y-79510000D01*
D51*
%TO.N,/SPI2_DS3234_CS*%
X148940000Y-145000000D02*
X148940000Y-141040000D01*
X147330000Y-130730000D02*
X147400000Y-130800000D01*
X148940000Y-141040000D02*
X146600000Y-138700000D01*
X147330000Y-128200000D02*
X147330000Y-130730000D01*
X146600000Y-138700000D02*
X146600000Y-137100000D01*
%TO.N,/SPI2_MOSI*%
X153680000Y-116720000D02*
X153700000Y-116700000D01*
X152700000Y-133800000D02*
X152750000Y-133850000D01*
X153680000Y-118900000D02*
X153680000Y-116720000D01*
X152750000Y-135700000D02*
X152750000Y-133850000D01*
%TO.N,/ADXL_INT1*%
X161300000Y-120800000D02*
X146700000Y-120800000D01*
X146060000Y-120160000D02*
X146060000Y-118900000D01*
X161900000Y-121400000D02*
X161300000Y-120800000D01*
X146700000Y-120800000D02*
X146060000Y-120160000D01*
X161900000Y-124200000D02*
X161900000Y-121400000D01*
%TO.N,/DS3231_SQW*%
X154280000Y-146940000D02*
X154020000Y-146680000D01*
X154280000Y-148050000D02*
X154280000Y-146940000D01*
X154000000Y-142700000D02*
X154020000Y-142720000D01*
X154020000Y-145000000D02*
X154020000Y-142720000D01*
X139710000Y-118900000D02*
X139710000Y-121190000D01*
X139710000Y-121190000D02*
X139700000Y-121200000D01*
X154020000Y-146680000D02*
X154020000Y-145000000D01*
%TO.N,/GPS_1PPS*%
X136400000Y-111500000D02*
X140980000Y-116080000D01*
X129000000Y-111500000D02*
X136400000Y-111500000D01*
X107600000Y-97825000D02*
X104025000Y-97825000D01*
X104025000Y-97825000D02*
X104000000Y-97800000D01*
X140980000Y-116080000D02*
X140980000Y-118900000D01*
%TO.N,/ADXL_INT2*%
X160900000Y-121600000D02*
X145700000Y-121600000D01*
X144790000Y-120690000D02*
X144790000Y-118900000D01*
X161000000Y-121500000D02*
X160900000Y-121600000D01*
X145700000Y-121600000D02*
X144790000Y-120690000D01*
%TO.N,/ADXL_DRDY*%
X142250000Y-121150000D02*
X142250000Y-118900000D01*
X143300000Y-122200000D02*
X142250000Y-121150000D01*
X159600000Y-122200000D02*
X143300000Y-122200000D01*
%TO.N,/SPI2_SCK*%
X151480000Y-133920000D02*
X153680000Y-131720000D01*
X151480000Y-135700000D02*
X151480000Y-133920000D01*
X153680000Y-131720000D02*
X153680000Y-128200000D01*
X153680000Y-128200000D02*
X153680000Y-126520000D01*
X153700000Y-126500000D02*
X153680000Y-126520000D01*
%TO.N,Net-(BT1-+)*%
X154020000Y-135700000D02*
X154020000Y-133880000D01*
X154700000Y-133200000D02*
X164400000Y-133200000D01*
X154020000Y-133880000D02*
X154700000Y-133200000D01*
%TO.N,/TEST2*%
X157500000Y-112875000D02*
X155825000Y-112875000D01*
X155825000Y-112875000D02*
X155800000Y-112900000D01*
%TO.N,/SPI1_MOSI*%
X140600000Y-96700000D02*
X147800000Y-96700000D01*
X149569000Y-86431000D02*
X150300000Y-85700000D01*
X135000000Y-102300000D02*
X140600000Y-96700000D01*
X135000000Y-108900000D02*
X135000000Y-102300000D01*
X139800000Y-113700000D02*
X135000000Y-108900000D01*
X147800000Y-96700000D02*
X149569000Y-94931000D01*
X155100000Y-85700000D02*
X155800000Y-86400000D01*
X149870000Y-118900000D02*
X149870000Y-114470000D01*
X149100000Y-113700000D02*
X139800000Y-113700000D01*
X150300000Y-85700000D02*
X155100000Y-85700000D01*
X155800000Y-86400000D02*
X155800000Y-89000000D01*
X149569000Y-94931000D02*
X149569000Y-86431000D01*
X149870000Y-114470000D02*
X149100000Y-113700000D01*
%TO.N,/SPI1_SCK*%
X153900000Y-87200000D02*
X151500000Y-87200000D01*
X150720000Y-87980000D02*
X150720000Y-89000000D01*
X152410000Y-112890000D02*
X153300000Y-112000000D01*
X152410000Y-118900000D02*
X152410000Y-112890000D01*
X153300000Y-112000000D02*
X153300000Y-94200000D01*
X154500000Y-87800000D02*
X153900000Y-87200000D01*
X153300000Y-94200000D02*
X154500000Y-93000000D01*
X151500000Y-87200000D02*
X150720000Y-87980000D01*
X154500000Y-93000000D02*
X154500000Y-87800000D01*
%TO.N,/SPI1_MISO*%
X152000000Y-90260000D02*
X153260000Y-89000000D01*
X152000000Y-93600000D02*
X152000000Y-90260000D01*
X152500000Y-94100000D02*
X152000000Y-93600000D01*
X152500000Y-111500000D02*
X152500000Y-94100000D01*
X151140000Y-112860000D02*
X152500000Y-111500000D01*
X151140000Y-118900000D02*
X151140000Y-112860000D01*
%TO.N,/ONOFF*%
X110825000Y-122100000D02*
X110825000Y-115575000D01*
X110810000Y-122115000D02*
X110825000Y-122100000D01*
X110825000Y-115575000D02*
X111900000Y-114500000D01*
X111900000Y-114500000D02*
X120500000Y-114500000D01*
X135480000Y-92620000D02*
X135480000Y-91540000D01*
X110810000Y-125250000D02*
X110810000Y-137750000D01*
X130450000Y-104550000D02*
X130450000Y-97650000D01*
X130450000Y-97650000D02*
X135480000Y-92620000D01*
X110810000Y-125250000D02*
X110810000Y-122115000D01*
X120500000Y-114500000D02*
X130450000Y-104550000D01*
%TO.N,/RESETMICRO*%
X126750000Y-137050000D02*
X126700000Y-137000000D01*
X132940000Y-93360000D02*
X129300000Y-97000000D01*
X132940000Y-91540000D02*
X132940000Y-93360000D01*
X126750000Y-140500000D02*
X126750000Y-137050000D01*
X129300000Y-104400000D02*
X120000000Y-113700000D01*
X117500000Y-131600000D02*
X117500000Y-115600000D01*
X126700000Y-137000000D02*
X123500000Y-133800000D01*
X119700000Y-133800000D02*
X117500000Y-131600000D01*
X129300000Y-97000000D02*
X129300000Y-104400000D01*
X117500000Y-115600000D02*
X117500000Y-115800000D01*
X123500000Y-133800000D02*
X119700000Y-133800000D01*
X120000000Y-113700000D02*
X117500000Y-113700000D01*
%TO.N,/RPI_INT1*%
X162400000Y-125800000D02*
X165000000Y-123200000D01*
X165000000Y-123200000D02*
X165000000Y-96000000D01*
X151140000Y-126460000D02*
X151800000Y-125800000D01*
X151800000Y-125800000D02*
X162400000Y-125800000D01*
X165000000Y-96000000D02*
X167249000Y-93751000D01*
X151140000Y-128200000D02*
X151140000Y-126460000D01*
X167249000Y-90289000D02*
X165960000Y-89000000D01*
X167249000Y-93751000D02*
X167249000Y-90289000D01*
%TO.N,/RPI_INT2*%
X164100000Y-123000000D02*
X164100000Y-95300000D01*
X149870000Y-126530000D02*
X151200000Y-125200000D01*
X164100000Y-95300000D02*
X164809000Y-94591000D01*
X151200000Y-125200000D02*
X161900000Y-125200000D01*
X164809000Y-90389000D02*
X163420000Y-89000000D01*
X161900000Y-125200000D02*
X164100000Y-123000000D01*
X149870000Y-128200000D02*
X149870000Y-126530000D01*
X164809000Y-94591000D02*
X164809000Y-90389000D01*
%TO.N,/SPI1_DSPIC_SS*%
X139800000Y-124400000D02*
X140980000Y-125580000D01*
X132800000Y-124400000D02*
X139800000Y-124400000D01*
X140980000Y-125580000D02*
X140980000Y-128200000D01*
%TD*%
%TA.AperFunction,Conductor*%
%TO.N,+12V*%
G36*
X175308961Y-70919685D02*
G01*
X175337180Y-70944616D01*
X175771259Y-71465511D01*
X175799055Y-71529613D01*
X175800000Y-71544893D01*
X175800000Y-76870728D01*
X175786909Y-76926182D01*
X175681841Y-77136319D01*
X175634273Y-77231454D01*
X175586686Y-77282613D01*
X175523364Y-77300000D01*
X173651362Y-77300000D01*
X173621921Y-77291355D01*
X173591935Y-77284832D01*
X173586919Y-77281077D01*
X173584323Y-77280315D01*
X173563681Y-77263681D01*
X173436319Y-77136319D01*
X173402834Y-77074996D01*
X173400000Y-77048638D01*
X173400000Y-71351362D01*
X173419685Y-71284323D01*
X173436319Y-71263681D01*
X173763681Y-70936319D01*
X173825004Y-70902834D01*
X173851362Y-70900000D01*
X175241922Y-70900000D01*
X175308961Y-70919685D01*
G37*
%TD.AperFunction*%
%TD*%
%TA.AperFunction,Conductor*%
%TO.N,+5V*%
G36*
X159528526Y-62719685D02*
G01*
X159531728Y-62721813D01*
X161046251Y-63763047D01*
X161090341Y-63817246D01*
X161100000Y-63865227D01*
X161100000Y-67240395D01*
X161097028Y-67252984D01*
X161098040Y-67262357D01*
X161086909Y-67295850D01*
X161008080Y-67453506D01*
X160975693Y-67494022D01*
X160467625Y-67909715D01*
X160025374Y-68271557D01*
X160025370Y-68271560D01*
X160025366Y-68271564D01*
X159992595Y-68302974D01*
X159968155Y-68326400D01*
X159968151Y-68326403D01*
X159968143Y-68326412D01*
X159942378Y-68355311D01*
X159942354Y-68355341D01*
X159894431Y-68418425D01*
X159834664Y-68549294D01*
X159814976Y-68616342D01*
X159794500Y-68758761D01*
X159794500Y-69748640D01*
X159797397Y-69802688D01*
X159797397Y-69802689D01*
X159800229Y-69829022D01*
X159800232Y-69829049D01*
X159808885Y-69882445D01*
X159808885Y-69882447D01*
X159848825Y-69989528D01*
X159859168Y-70017257D01*
X159881555Y-70058256D01*
X159892651Y-70078577D01*
X159975267Y-70188938D01*
X159983005Y-70209685D01*
X159994977Y-70228314D01*
X159998128Y-70250232D01*
X159999684Y-70254403D01*
X160000000Y-70263249D01*
X160000000Y-70362456D01*
X159980315Y-70429495D01*
X159979174Y-70431239D01*
X159840478Y-70639283D01*
X159786913Y-70684144D01*
X159737304Y-70694500D01*
X156955198Y-70694500D01*
X156888159Y-70674815D01*
X156858370Y-70647962D01*
X156527172Y-70233965D01*
X156500664Y-70169319D01*
X156500000Y-70156503D01*
X156500000Y-66500000D01*
X155600000Y-65600000D01*
X147000000Y-65600000D01*
X146376867Y-66275059D01*
X145801668Y-66898192D01*
X145798233Y-66901766D01*
X145300000Y-67399999D01*
X145300000Y-78938942D01*
X145280315Y-79005981D01*
X145251604Y-79037227D01*
X144033430Y-79974285D01*
X143968291Y-79999558D01*
X143957826Y-80000000D01*
X136937544Y-80000000D01*
X136870505Y-79980315D01*
X136868761Y-79979174D01*
X136355217Y-79636811D01*
X136310356Y-79583246D01*
X136300000Y-79533637D01*
X136300000Y-78251362D01*
X136319685Y-78184323D01*
X136336319Y-78163681D01*
X136863681Y-77636319D01*
X136925004Y-77602834D01*
X136951362Y-77600000D01*
X140499999Y-77600000D01*
X140500000Y-77600000D01*
X141000000Y-77000000D01*
X141000000Y-63362000D01*
X141019685Y-63294961D01*
X141049600Y-63262800D01*
X141766933Y-62724800D01*
X141832375Y-62700324D01*
X141841333Y-62700000D01*
X159461487Y-62700000D01*
X159528526Y-62719685D01*
G37*
%TD.AperFunction*%
%TD*%
%TA.AperFunction,Conductor*%
%TO.N,/FUENTE_EXT12V*%
G36*
X184738984Y-74506068D02*
G01*
X184785215Y-74521090D01*
X185034038Y-74560500D01*
X185034039Y-74560500D01*
X185285961Y-74560500D01*
X185285962Y-74560500D01*
X185534785Y-74521090D01*
X185581015Y-74506068D01*
X185619332Y-74500000D01*
X187162456Y-74500000D01*
X187180540Y-74505310D01*
X187199385Y-74505627D01*
X187227811Y-74519190D01*
X187229495Y-74519685D01*
X187231239Y-74520826D01*
X187323600Y-74582400D01*
X187368461Y-74635965D01*
X187377241Y-74705281D01*
X187347152Y-74768340D01*
X187323708Y-74788676D01*
X187189711Y-74878210D01*
X187189707Y-74878213D01*
X187078213Y-74989707D01*
X187078210Y-74989711D01*
X186990609Y-75120814D01*
X186990602Y-75120827D01*
X186930264Y-75266498D01*
X186930261Y-75266510D01*
X186899500Y-75421153D01*
X186899500Y-75578846D01*
X186930261Y-75733489D01*
X186930264Y-75733501D01*
X186990602Y-75879172D01*
X186990609Y-75879185D01*
X187078210Y-76010288D01*
X187078213Y-76010292D01*
X187189707Y-76121786D01*
X187189711Y-76121789D01*
X187320814Y-76209390D01*
X187320827Y-76209397D01*
X187418988Y-76250056D01*
X187473392Y-76293896D01*
X187495457Y-76360190D01*
X187478178Y-76427890D01*
X187470736Y-76439017D01*
X187237200Y-76750400D01*
X187181229Y-76792221D01*
X187138000Y-76800000D01*
X183300000Y-76800000D01*
X182957143Y-77057142D01*
X182500000Y-77399999D01*
X182500000Y-81248638D01*
X182480315Y-81315677D01*
X182463681Y-81336319D01*
X181836319Y-81963681D01*
X181774996Y-81997166D01*
X181748638Y-82000000D01*
X177237544Y-82000000D01*
X177170505Y-81980315D01*
X177168761Y-81979174D01*
X176955217Y-81836811D01*
X176910356Y-81783246D01*
X176900000Y-81733637D01*
X176900000Y-78724000D01*
X176919685Y-78656961D01*
X176972489Y-78611206D01*
X177024000Y-78600000D01*
X179100000Y-78600000D01*
X180000000Y-77800000D01*
X180000000Y-75151362D01*
X180008644Y-75121921D01*
X180015168Y-75091935D01*
X180018922Y-75086919D01*
X180019685Y-75084323D01*
X180036319Y-75063681D01*
X180163681Y-74936319D01*
X180225004Y-74902834D01*
X180251362Y-74900000D01*
X184100000Y-74900000D01*
X184566035Y-74527172D01*
X184588309Y-74518038D01*
X184608562Y-74505023D01*
X184626254Y-74502479D01*
X184630681Y-74500664D01*
X184643497Y-74500000D01*
X184700668Y-74500000D01*
X184738984Y-74506068D01*
G37*
%TD.AperFunction*%
%TD*%
%TA.AperFunction,Conductor*%
%TO.N,GND*%
G36*
X186726182Y-62613091D02*
G01*
X187431454Y-62965727D01*
X187482613Y-63013314D01*
X187500000Y-63076636D01*
X187500000Y-64193533D01*
X187480315Y-64260572D01*
X187427511Y-64306327D01*
X187423453Y-64308094D01*
X187320824Y-64350604D01*
X187320814Y-64350609D01*
X187189711Y-64438210D01*
X187189707Y-64438213D01*
X187078213Y-64549707D01*
X187078210Y-64549711D01*
X186990609Y-64680814D01*
X186990602Y-64680827D01*
X186930264Y-64826498D01*
X186930261Y-64826510D01*
X186899500Y-64981153D01*
X186899500Y-65138846D01*
X186930261Y-65293489D01*
X186930264Y-65293501D01*
X186990602Y-65439172D01*
X186990609Y-65439185D01*
X187078210Y-65570288D01*
X187078213Y-65570292D01*
X187109449Y-65601528D01*
X187142934Y-65662851D01*
X187137950Y-65732543D01*
X187096078Y-65788476D01*
X187093842Y-65790112D01*
X186832336Y-65976903D01*
X186766342Y-65999851D01*
X186760262Y-66000000D01*
X186071224Y-66000000D01*
X186063170Y-65999589D01*
X186063167Y-65999661D01*
X186060014Y-65999500D01*
X186060010Y-65999500D01*
X184259990Y-65999500D01*
X184259985Y-65999500D01*
X184256833Y-65999661D01*
X184256829Y-65999589D01*
X184248776Y-66000000D01*
X176241333Y-66000000D01*
X176174294Y-65980315D01*
X176166933Y-65975200D01*
X175843390Y-65732543D01*
X175449600Y-65437200D01*
X175407779Y-65381229D01*
X175400000Y-65338000D01*
X175400000Y-63059597D01*
X175419685Y-62992558D01*
X175446536Y-62962771D01*
X175866035Y-62627172D01*
X175930681Y-62600664D01*
X175943497Y-62600000D01*
X186670728Y-62600000D01*
X186726182Y-62613091D01*
G37*
%TD.AperFunction*%
%TD*%
%TA.AperFunction,Conductor*%
%TO.N,Net-(D6-K)*%
G36*
X171915677Y-71419685D02*
G01*
X171936319Y-71436319D01*
X172391317Y-71891317D01*
X172406810Y-71910215D01*
X172579174Y-72168761D01*
X172599982Y-72235460D01*
X172600000Y-72237544D01*
X172600000Y-77765654D01*
X172582329Y-77829451D01*
X172336122Y-78239797D01*
X172284751Y-78287156D01*
X172229793Y-78300000D01*
X166400000Y-78300000D01*
X165933965Y-78672828D01*
X165869319Y-78699336D01*
X165856503Y-78700000D01*
X163779499Y-78700000D01*
X163712460Y-78680315D01*
X163666705Y-78627511D01*
X163655499Y-78576000D01*
X163655499Y-78029500D01*
X163675184Y-77962461D01*
X163727988Y-77916706D01*
X163779499Y-77905500D01*
X165348640Y-77905500D01*
X165356016Y-77905104D01*
X165402678Y-77902603D01*
X165420275Y-77900710D01*
X165433532Y-77900000D01*
X165600000Y-77900000D01*
X165728297Y-77771702D01*
X165741638Y-77760142D01*
X165781595Y-77730230D01*
X165847057Y-77705816D01*
X165855902Y-77705500D01*
X171048640Y-77705500D01*
X171058786Y-77704955D01*
X171102678Y-77702603D01*
X171102686Y-77702602D01*
X171102688Y-77702602D01*
X171102689Y-77702602D01*
X171109682Y-77701849D01*
X171129036Y-77699769D01*
X171129046Y-77699767D01*
X171129049Y-77699767D01*
X171138648Y-77698211D01*
X171182448Y-77691114D01*
X171317257Y-77640832D01*
X171364259Y-77615166D01*
X171423684Y-77600000D01*
X171500000Y-77600000D01*
X171800000Y-77300000D01*
X171800000Y-77264791D01*
X171819685Y-77197752D01*
X171831753Y-77181927D01*
X171857288Y-77153500D01*
X171873922Y-77132858D01*
X171905567Y-77088974D01*
X171965338Y-76958097D01*
X171985023Y-76891058D01*
X171985024Y-76891054D01*
X172005500Y-76748638D01*
X172005500Y-75670207D01*
X171992236Y-75555169D01*
X171979392Y-75500211D01*
X171940293Y-75391202D01*
X171858817Y-75272614D01*
X171858816Y-75272612D01*
X171858814Y-75272610D01*
X171832831Y-75244425D01*
X171801863Y-75181793D01*
X171800000Y-75160377D01*
X171800000Y-75100000D01*
X171500000Y-74700000D01*
X165000000Y-74700000D01*
X164999999Y-74700000D01*
X164941819Y-74758181D01*
X164880496Y-74791666D01*
X164854138Y-74794500D01*
X163624000Y-74794500D01*
X163556961Y-74774815D01*
X163511206Y-74722011D01*
X163500000Y-74670500D01*
X163500000Y-74237543D01*
X163519685Y-74170504D01*
X163520790Y-74168813D01*
X163659522Y-73960717D01*
X163713087Y-73915856D01*
X163762696Y-73905500D01*
X164958660Y-73905500D01*
X164958667Y-73905500D01*
X164976938Y-73905170D01*
X164985896Y-73904846D01*
X165004143Y-73903855D01*
X165008708Y-73902857D01*
X165035174Y-73900000D01*
X166800000Y-73900000D01*
X167400000Y-73300000D01*
X167400000Y-71841333D01*
X167419685Y-71774294D01*
X167424800Y-71766933D01*
X167662800Y-71449600D01*
X167718771Y-71407779D01*
X167762000Y-71400000D01*
X171848638Y-71400000D01*
X171915677Y-71419685D01*
G37*
%TD.AperFunction*%
%TD*%
%TA.AperFunction,Conductor*%
%TO.N,GND*%
G36*
X138722145Y-83019685D02*
G01*
X138734489Y-83028741D01*
X139300000Y-83500000D01*
X143152417Y-83500000D01*
X143219456Y-83519685D01*
X143235360Y-83531824D01*
X144158954Y-84363059D01*
X144195613Y-84422534D01*
X144200000Y-84455224D01*
X144200000Y-86131273D01*
X144180315Y-86198312D01*
X144141720Y-86236425D01*
X143430157Y-86681152D01*
X143364437Y-86700000D01*
X136537544Y-86700000D01*
X136470505Y-86680315D01*
X136468761Y-86679174D01*
X135655217Y-86136811D01*
X135610356Y-86083246D01*
X135600000Y-86033637D01*
X135600000Y-83657032D01*
X135619685Y-83589993D01*
X135643302Y-83562884D01*
X136265173Y-83029852D01*
X136328884Y-83001169D01*
X136345871Y-83000000D01*
X138655106Y-83000000D01*
X138722145Y-83019685D01*
G37*
%TD.AperFunction*%
%TD*%
%TA.AperFunction,Conductor*%
%TO.N,/FUENTE_12V*%
G36*
X187117781Y-66474225D02*
G01*
X187156684Y-66505347D01*
X187353462Y-66662770D01*
X187354908Y-66664835D01*
X187357203Y-66665884D01*
X187374828Y-66693310D01*
X187393514Y-66720019D01*
X187394034Y-66723195D01*
X187394977Y-66724662D01*
X187400000Y-66759597D01*
X187400000Y-66774954D01*
X187380315Y-66841993D01*
X187327511Y-66887748D01*
X187323460Y-66889512D01*
X187320828Y-66890602D01*
X187320814Y-66890609D01*
X187189711Y-66978210D01*
X187189707Y-66978213D01*
X187078213Y-67089707D01*
X187078210Y-67089711D01*
X186990609Y-67220814D01*
X186990602Y-67220827D01*
X186930264Y-67366498D01*
X186930261Y-67366510D01*
X186899500Y-67521153D01*
X186899500Y-67678846D01*
X186930261Y-67833489D01*
X186930264Y-67833501D01*
X186990602Y-67979172D01*
X186990609Y-67979185D01*
X187078210Y-68110288D01*
X187078213Y-68110292D01*
X187189710Y-68221789D01*
X187320815Y-68309390D01*
X187320821Y-68309394D01*
X187323444Y-68310480D01*
X187324604Y-68311415D01*
X187326192Y-68312264D01*
X187326031Y-68312564D01*
X187377849Y-68354314D01*
X187399921Y-68420605D01*
X187400000Y-68425044D01*
X187400000Y-68840402D01*
X187380315Y-68907441D01*
X187353462Y-68937230D01*
X186933143Y-69273485D01*
X186868497Y-69299993D01*
X186857560Y-69300643D01*
X180300924Y-69399986D01*
X180299045Y-69400000D01*
X179500000Y-69400000D01*
X179000000Y-70000000D01*
X179000000Y-77148638D01*
X178991355Y-77178078D01*
X178984832Y-77208065D01*
X178981077Y-77213080D01*
X178980315Y-77215677D01*
X178963681Y-77236319D01*
X178836319Y-77363681D01*
X178774996Y-77397166D01*
X178748638Y-77400000D01*
X176951362Y-77400000D01*
X176884323Y-77380315D01*
X176863681Y-77363681D01*
X176636319Y-77136319D01*
X176602834Y-77074996D01*
X176600000Y-77048638D01*
X176600000Y-70600000D01*
X176400000Y-70400000D01*
X173651362Y-70400000D01*
X173584323Y-70380315D01*
X173563681Y-70363681D01*
X173336319Y-70136319D01*
X173302834Y-70074996D01*
X173300000Y-70048638D01*
X173300000Y-68551362D01*
X173319685Y-68484323D01*
X173336319Y-68463681D01*
X173563681Y-68236319D01*
X173625004Y-68202834D01*
X173651362Y-68200000D01*
X179399999Y-68200000D01*
X179400000Y-68200000D01*
X180362819Y-67044616D01*
X180420858Y-67005718D01*
X180458078Y-67000000D01*
X184200000Y-67000000D01*
X184477094Y-66612067D01*
X184532077Y-66568958D01*
X184601640Y-66562417D01*
X184616314Y-66566211D01*
X184757445Y-66612067D01*
X184785215Y-66621090D01*
X185034038Y-66660500D01*
X185034039Y-66660500D01*
X185285961Y-66660500D01*
X185285962Y-66660500D01*
X185534785Y-66621090D01*
X185774379Y-66543241D01*
X185774384Y-66543238D01*
X185774388Y-66543237D01*
X185822906Y-66518516D01*
X185835907Y-66515394D01*
X185844266Y-66510023D01*
X185879201Y-66505000D01*
X186050026Y-66505000D01*
X186053185Y-66505040D01*
X186055733Y-66505104D01*
X186071224Y-66505500D01*
X186071233Y-66505500D01*
X186760230Y-66505500D01*
X186760262Y-66505500D01*
X186772646Y-66505348D01*
X186778726Y-66505199D01*
X186791127Y-66504743D01*
X186909396Y-66481770D01*
X186932369Y-66477309D01*
X186955996Y-66469092D01*
X186998362Y-66454361D01*
X186998363Y-66454360D01*
X186998362Y-66454360D01*
X186999591Y-66453933D01*
X187069376Y-66450506D01*
X187117781Y-66474225D01*
G37*
%TD.AperFunction*%
%TD*%
%TA.AperFunction,Conductor*%
%TO.N,GND*%
G36*
X160115677Y-71219685D02*
G01*
X160136319Y-71236319D01*
X160600000Y-71700000D01*
X164856503Y-71700000D01*
X164923542Y-71719685D01*
X164933965Y-71727172D01*
X165353462Y-72062770D01*
X165393514Y-72120019D01*
X165400000Y-72159597D01*
X165400000Y-73038000D01*
X165380315Y-73105039D01*
X165350400Y-73137200D01*
X165133334Y-73300000D01*
X165033067Y-73375200D01*
X164967625Y-73399676D01*
X164958667Y-73400000D01*
X162800000Y-73400000D01*
X162400000Y-73900000D01*
X162400000Y-75000000D01*
X162399999Y-75000000D01*
X162600000Y-75150000D01*
X162800000Y-75300000D01*
X170965655Y-75300000D01*
X171029452Y-75317671D01*
X171439797Y-75563878D01*
X171487156Y-75615249D01*
X171500000Y-75670207D01*
X171500000Y-76748638D01*
X171480315Y-76815677D01*
X171463681Y-76836319D01*
X171136319Y-77163681D01*
X171074996Y-77197166D01*
X171048638Y-77200000D01*
X165599999Y-77200000D01*
X165436319Y-77363681D01*
X165374996Y-77397166D01*
X165348638Y-77400000D01*
X163779499Y-77400000D01*
X163712460Y-77380315D01*
X163666705Y-77327511D01*
X163655499Y-77276000D01*
X163655499Y-77072129D01*
X163655498Y-77072123D01*
X163649091Y-77012516D01*
X163598797Y-76877671D01*
X163598796Y-76877669D01*
X163524733Y-76778734D01*
X163500316Y-76713270D01*
X163500000Y-76704423D01*
X163500000Y-76400000D01*
X163300000Y-76200000D01*
X160400208Y-76200000D01*
X160368636Y-76195913D01*
X160367117Y-76195513D01*
X160287569Y-76172402D01*
X160275829Y-76171478D01*
X160265069Y-76168645D01*
X160250084Y-76159600D01*
X160227860Y-76151906D01*
X160112764Y-76075176D01*
X160055217Y-76036811D01*
X160010356Y-75983245D01*
X160000000Y-75933637D01*
X160000000Y-73599999D01*
X159732901Y-73399676D01*
X159600000Y-73300000D01*
X159599999Y-73300000D01*
X156859598Y-73300000D01*
X156792559Y-73280315D01*
X156762770Y-73253462D01*
X156427172Y-72833965D01*
X156400664Y-72769319D01*
X156400000Y-72756503D01*
X156400000Y-71537544D01*
X156419685Y-71470505D01*
X156420826Y-71468761D01*
X156563189Y-71255217D01*
X156616754Y-71210356D01*
X156666363Y-71200000D01*
X160048638Y-71200000D01*
X160115677Y-71219685D01*
G37*
%TD.AperFunction*%
%TD*%
%TA.AperFunction,Conductor*%
%TO.N,/VIN*%
G36*
X175615677Y-78519685D02*
G01*
X175636319Y-78536319D01*
X175763681Y-78663681D01*
X175797166Y-78725004D01*
X175800000Y-78751362D01*
X175800000Y-81648638D01*
X175791355Y-81678078D01*
X175784832Y-81708065D01*
X175781077Y-81713080D01*
X175780315Y-81715677D01*
X175763681Y-81736319D01*
X175636319Y-81863681D01*
X175574996Y-81897166D01*
X175548638Y-81900000D01*
X172951362Y-81900000D01*
X172884323Y-81880315D01*
X172863681Y-81863681D01*
X172636319Y-81636319D01*
X172602834Y-81574996D01*
X172600000Y-81548638D01*
X172600000Y-80600000D01*
X172300000Y-80300000D01*
X166966363Y-80300000D01*
X166899324Y-80280315D01*
X166863189Y-80244783D01*
X166700000Y-80000000D01*
X165325788Y-80000000D01*
X165291193Y-79995076D01*
X165272095Y-79989527D01*
X165247570Y-79982402D01*
X165247567Y-79982401D01*
X165210701Y-79979500D01*
X165210694Y-79979500D01*
X163779500Y-79979500D01*
X163712461Y-79959815D01*
X163666706Y-79907011D01*
X163655500Y-79855500D01*
X163655499Y-79329500D01*
X163675183Y-79262461D01*
X163727987Y-79216706D01*
X163779499Y-79205500D01*
X165856523Y-79205500D01*
X165882637Y-79204824D01*
X165882654Y-79204823D01*
X165882658Y-79204823D01*
X165895474Y-79204159D01*
X165921565Y-79202129D01*
X166061102Y-79167043D01*
X166125748Y-79140535D01*
X166125749Y-79140534D01*
X166125750Y-79140533D01*
X166125863Y-79140487D01*
X166126171Y-79140285D01*
X166249748Y-79067557D01*
X166304866Y-79023462D01*
X166309838Y-79020212D01*
X166337823Y-79011756D01*
X166364875Y-79000664D01*
X166376536Y-79000059D01*
X166376721Y-79000004D01*
X166376858Y-79000043D01*
X166377691Y-79000000D01*
X166800000Y-79000000D01*
X166958181Y-78841819D01*
X167019504Y-78808334D01*
X167045862Y-78805500D01*
X172229794Y-78805500D01*
X172238871Y-78804453D01*
X172344831Y-78792236D01*
X172399789Y-78779392D01*
X172508798Y-78740293D01*
X172508801Y-78740291D01*
X172535718Y-78721798D01*
X172602120Y-78700059D01*
X172605937Y-78700000D01*
X173400000Y-78700000D01*
X173668761Y-78520826D01*
X173735460Y-78500018D01*
X173737544Y-78500000D01*
X175548638Y-78500000D01*
X175615677Y-78519685D01*
G37*
%TD.AperFunction*%
%TD*%
%TA.AperFunction,Conductor*%
%TO.N,Net-(D10-A)*%
G36*
X171329495Y-64619685D02*
G01*
X171331239Y-64620826D01*
X171844784Y-64963189D01*
X171889644Y-65016753D01*
X171900000Y-65066362D01*
X171900000Y-68156503D01*
X171880315Y-68223542D01*
X171872828Y-68233965D01*
X171537230Y-68653462D01*
X171479979Y-68693514D01*
X171440402Y-68700000D01*
X167043497Y-68700000D01*
X166976458Y-68680315D01*
X166966035Y-68672828D01*
X166499998Y-68299998D01*
X165973844Y-67905383D01*
X165700000Y-67700000D01*
X165699999Y-67700000D01*
X165366667Y-67700000D01*
X165700000Y-67300000D01*
X165000000Y-65500000D01*
X162400000Y-65500000D01*
X162200000Y-65700000D01*
X162200000Y-66200000D01*
X162100000Y-66400000D01*
X162100000Y-65059597D01*
X162119685Y-64992558D01*
X162146536Y-64962771D01*
X162566035Y-64627172D01*
X162630681Y-64600664D01*
X162643497Y-64600000D01*
X171262456Y-64600000D01*
X171329495Y-64619685D01*
G37*
%TD.AperFunction*%
%TD*%
%TA.AperFunction,Conductor*%
%TO.N,GND*%
G36*
X151726717Y-67419685D02*
G01*
X151732608Y-67423715D01*
X152748933Y-68162860D01*
X152791573Y-68218210D01*
X152800000Y-68263143D01*
X152800000Y-79048638D01*
X152780315Y-79115677D01*
X152763681Y-79136319D01*
X151936319Y-79963681D01*
X151874996Y-79997166D01*
X151848638Y-80000000D01*
X147248234Y-80000000D01*
X147181195Y-79980315D01*
X147164444Y-79967407D01*
X146040210Y-78936859D01*
X146004093Y-78877048D01*
X146000000Y-78845452D01*
X146000000Y-68070207D01*
X146019685Y-68003168D01*
X146060203Y-67963878D01*
X146960472Y-67423717D01*
X146970548Y-67417670D01*
X147034345Y-67400000D01*
X151659678Y-67400000D01*
X151726717Y-67419685D01*
G37*
%TD.AperFunction*%
%TD*%
%TA.AperFunction,Conductor*%
%TO.N,GND*%
G36*
X187015677Y-70019685D02*
G01*
X187036319Y-70036319D01*
X187563681Y-70563681D01*
X187597166Y-70625004D01*
X187600000Y-70651362D01*
X187600000Y-72061944D01*
X187580315Y-72128983D01*
X187527511Y-72174738D01*
X187500193Y-72183561D01*
X187466507Y-72190261D01*
X187466498Y-72190264D01*
X187320827Y-72250602D01*
X187320814Y-72250609D01*
X187189711Y-72338210D01*
X187189707Y-72338213D01*
X187078213Y-72449707D01*
X187078210Y-72449711D01*
X186990609Y-72580814D01*
X186990602Y-72580827D01*
X186930264Y-72726498D01*
X186930261Y-72726510D01*
X186899500Y-72881153D01*
X186899500Y-73038846D01*
X186930261Y-73193489D01*
X186930264Y-73193501D01*
X186990602Y-73339172D01*
X186990609Y-73339185D01*
X187078210Y-73470288D01*
X187078213Y-73470292D01*
X187181034Y-73573113D01*
X187188054Y-73585970D01*
X187198940Y-73595776D01*
X187204463Y-73616019D01*
X187214519Y-73634436D01*
X187213474Y-73649048D01*
X187217330Y-73663182D01*
X187211031Y-73683197D01*
X187209535Y-73704128D01*
X187200381Y-73717044D01*
X187196358Y-73729830D01*
X187172736Y-73756053D01*
X187034489Y-73871259D01*
X186970386Y-73899055D01*
X186955106Y-73900000D01*
X186071224Y-73900000D01*
X186063170Y-73899589D01*
X186063167Y-73899661D01*
X186060014Y-73899500D01*
X186060010Y-73899500D01*
X184259990Y-73899500D01*
X184259985Y-73899500D01*
X184256833Y-73899661D01*
X184256829Y-73899589D01*
X184248776Y-73900000D01*
X180343497Y-73900000D01*
X180276458Y-73880315D01*
X180266035Y-73872828D01*
X179846538Y-73537230D01*
X179806486Y-73479979D01*
X179800000Y-73440402D01*
X179800000Y-70337544D01*
X179819685Y-70270505D01*
X179820826Y-70268761D01*
X179963189Y-70055217D01*
X180016754Y-70010356D01*
X180066363Y-70000000D01*
X186948638Y-70000000D01*
X187015677Y-70019685D01*
G37*
%TD.AperFunction*%
%TD*%
%TA.AperFunction,Conductor*%
%TO.N,GND*%
G36*
X138527951Y-64919685D02*
G01*
X138532021Y-64922415D01*
X139447109Y-65562976D01*
X139490742Y-65617547D01*
X139500000Y-65664561D01*
X139500000Y-72756503D01*
X139480315Y-72823542D01*
X139472828Y-72833965D01*
X138737230Y-73753462D01*
X138679979Y-73793514D01*
X138640402Y-73800000D01*
X135147145Y-73800000D01*
X135080106Y-73780315D01*
X135064764Y-73768679D01*
X134241619Y-73036994D01*
X134204591Y-72977743D01*
X134200000Y-72944315D01*
X134200000Y-65855224D01*
X134219685Y-65788185D01*
X134241041Y-65763062D01*
X135164633Y-64931829D01*
X135227630Y-64901616D01*
X135247583Y-64900000D01*
X138460912Y-64900000D01*
X138527951Y-64919685D01*
G37*
%TD.AperFunction*%
%TD*%
%TA.AperFunction,Conductor*%
%TO.N,Net-(D10-A)*%
G36*
X165700000Y-67300000D02*
G01*
X165200000Y-67900000D01*
X165200000Y-69665654D01*
X165182329Y-69729451D01*
X164936122Y-70139797D01*
X164884751Y-70187156D01*
X164829793Y-70200000D01*
X160751362Y-70200000D01*
X160684323Y-70180315D01*
X160663681Y-70163681D01*
X160336319Y-69836319D01*
X160302834Y-69774996D01*
X160300000Y-69748638D01*
X160300000Y-68758760D01*
X160319685Y-68691721D01*
X160345476Y-68662792D01*
X161400000Y-67800000D01*
X161452859Y-67694282D01*
X162100000Y-66400001D01*
X162100000Y-66400000D01*
X162200000Y-66200000D01*
X162200000Y-65700000D01*
X162400000Y-65500000D01*
X165000000Y-65500000D01*
X165700000Y-67300000D01*
G37*
%TD.AperFunction*%
%TD*%
M02*
