%TF.GenerationSoftware,KiCad,Pcbnew,9.0.3*%
%TF.CreationDate,2025-10-27T19:17:52+08:00*%
%TF.ProjectId,Acelerografo,4163656c-6572-46f6-9772-61666f2e6b69,rev?*%
%TF.SameCoordinates,Original*%
%TF.FileFunction,Copper,L3,Inr*%
%TF.FilePolarity,Positive*%
%FSLAX46Y46*%
G04 Gerber Fmt 4.6, Leading zero omitted, Abs format (unit mm)*
G04 Created by KiCad (PCBNEW 9.0.3) date 2025-10-27 19:17:52*
%MOMM*%
%LPD*%
G01*
G04 APERTURE LIST*
G04 Aperture macros list*
%AMRoundRect*
0 Rectangle with rounded corners*
0 $1 Rounding radius*
0 $2 $3 $4 $5 $6 $7 $8 $9 X,Y pos of 4 corners*
0 Add a 4 corners polygon primitive as box body*
4,1,4,$2,$3,$4,$5,$6,$7,$8,$9,$2,$3,0*
0 Add four circle primitives for the rounded corners*
1,1,$1+$1,$2,$3*
1,1,$1+$1,$4,$5*
1,1,$1+$1,$6,$7*
1,1,$1+$1,$8,$9*
0 Add four rect primitives between the rounded corners*
20,1,$1+$1,$2,$3,$4,$5,0*
20,1,$1+$1,$4,$5,$6,$7,0*
20,1,$1+$1,$6,$7,$8,$9,0*
20,1,$1+$1,$8,$9,$2,$3,0*%
G04 Aperture macros list end*
%TA.AperFunction,ComponentPad*%
%ADD10C,1.400000*%
%TD*%
%TA.AperFunction,ComponentPad*%
%ADD11RoundRect,0.249999X0.850001X-0.850001X0.850001X0.850001X-0.850001X0.850001X-0.850001X-0.850001X0*%
%TD*%
%TA.AperFunction,ComponentPad*%
%ADD12C,2.200000*%
%TD*%
%TA.AperFunction,ComponentPad*%
%ADD13C,3.500000*%
%TD*%
%TA.AperFunction,ComponentPad*%
%ADD14C,2.000000*%
%TD*%
%TA.AperFunction,ComponentPad*%
%ADD15R,1.600000X2.000000*%
%TD*%
%TA.AperFunction,ComponentPad*%
%ADD16O,1.600000X2.000000*%
%TD*%
%TA.AperFunction,ComponentPad*%
%ADD17R,1.700000X1.700000*%
%TD*%
%TA.AperFunction,ComponentPad*%
%ADD18C,1.700000*%
%TD*%
%TA.AperFunction,ComponentPad*%
%ADD19C,3.000000*%
%TD*%
%TA.AperFunction,ComponentPad*%
%ADD20C,6.000000*%
%TD*%
%TA.AperFunction,ViaPad*%
%ADD21C,0.600000*%
%TD*%
G04 APERTURE END LIST*
D10*
%TO.N,/_DSPIC_RX*%
%TO.C,W1*%
X119250000Y-140500000D03*
%TO.N,/DSPIC_RX*%
X116710000Y-140500000D03*
%TD*%
D11*
%TO.N,/FUENTE_12V*%
%TO.C,J1*%
X185160000Y-67600000D03*
D12*
%TO.N,GND*%
X185160000Y-65060000D03*
%TD*%
D10*
%TO.N,+12V*%
%TO.C,W2*%
X174500000Y-72150000D03*
%TO.N,/FUENTE_12V*%
X174500000Y-69610000D03*
%TD*%
D13*
%TO.N,*%
%TO.C,U3*%
X171250000Y-99750000D03*
X171250000Y-114500000D03*
X186000000Y-99750000D03*
X186000000Y-114500000D03*
D14*
%TO.N,/ADXL_INT1*%
X176085000Y-113605000D03*
%TO.N,/ADXL_INT2*%
X178625000Y-113605000D03*
%TO.N,/ADXL_DRDY*%
X181165000Y-113605000D03*
%TO.N,VCC*%
X176085000Y-116145000D03*
X178625000Y-116145000D03*
%TO.N,GND*%
X181165000Y-116145000D03*
%TO.N,/SPI2_ADXL355Z_CS*%
X176085000Y-98105000D03*
%TO.N,/SPI2_SCK*%
X178625000Y-98105000D03*
%TO.N,/SPI2_MOSI*%
X181165000Y-98105000D03*
%TO.N,unconnected-(U3-VIP8A-Pad10)*%
X176085000Y-100645000D03*
%TO.N,unconnected-(U3-VIP8D-Pad11)*%
X178625000Y-100645000D03*
%TO.N,/SPI2_MISO*%
X181165000Y-100645000D03*
%TD*%
D15*
%TO.N,Net-(BT1-+)*%
%TO.C,BT1*%
X164400000Y-133200000D03*
D16*
%TO.N,GND*%
X184900000Y-133200000D03*
%TD*%
D17*
%TO.N,/MCLR*%
%TO.C,J3*%
X129350000Y-147500000D03*
D18*
%TO.N,VCC*%
X126810000Y-147500000D03*
%TO.N,GND*%
X124270000Y-147500000D03*
%TO.N,/DSPIC_TX*%
X121730000Y-147500000D03*
%TO.N,/_DSPIC_RX*%
X119190000Y-147500000D03*
%TO.N,unconnected-(J3-PGM{slash}LVP-Pad6)*%
X116650000Y-147500000D03*
%TD*%
D14*
%TO.N,+5V*%
%TO.C,5V1*%
X141800000Y-63700000D03*
%TD*%
D10*
%TO.N,/RESETMICRO*%
%TO.C,W3*%
X126750000Y-140500000D03*
%TO.N,/MCLR*%
X129290000Y-140500000D03*
%TD*%
D11*
%TO.N,/FUENTE_EXT12V*%
%TO.C,J2*%
X185160000Y-75500000D03*
D12*
%TO.N,GND*%
X185160000Y-72960000D03*
%TD*%
D14*
%TO.N,VCC*%
%TO.C,3V3*%
X176000000Y-119600000D03*
%TD*%
D19*
%TO.N,*%
%TO.C,J5*%
X133464000Y-118120000D03*
X133464000Y-97800000D03*
D17*
%TO.N,/GPS_1PPS*%
X104000000Y-97800000D03*
D18*
%TO.N,VCC*%
X104000000Y-100340000D03*
%TO.N,GND*%
X104000000Y-102880000D03*
%TO.N,/DSPIC_TX*%
X104000000Y-105420000D03*
%TO.N,/DSPIC_RX*%
X104000000Y-107960000D03*
%TO.N,unconnected-(J5-Pin_6-Pad6)*%
X104000000Y-110500000D03*
%TO.N,unconnected-(J5-Pin_7-Pad7)*%
X104000000Y-113040000D03*
%TO.N,VCC*%
X104000000Y-115580000D03*
%TO.N,unconnected-(J5-Pin_9-Pad9)*%
X104000000Y-118120000D03*
%TD*%
D20*
%TO.N,*%
%TO.C,J6*%
X125530000Y-90270000D03*
X183530000Y-90270000D03*
D17*
%TO.N,unconnected-(J6-3V3-Pad1)*%
X178660000Y-89000000D03*
D18*
%TO.N,+5V*%
X178660000Y-91540000D03*
%TO.N,unconnected-(J6-SDA_I2C1{slash}GPIO8-Pad3)*%
X176120000Y-89000000D03*
%TO.N,+5V*%
X176120000Y-91540000D03*
%TO.N,unconnected-(J6-SCL_I2C1{slash}GPIO9-Pad5)*%
X173580000Y-89000000D03*
%TO.N,GND*%
X173580000Y-91540000D03*
%TO.N,unconnected-(J6-GPCLK0{slash}GPIO7-Pad7)*%
X171040000Y-89000000D03*
%TO.N,unconnected-(J6-GPIO15{slash}UART_TXD-Pad8)*%
X171040000Y-91540000D03*
%TO.N,GND*%
X168500000Y-89000000D03*
%TO.N,unconnected-(J6-GPIO16{slash}UART_RXD-Pad10)*%
X168500000Y-91540000D03*
%TO.N,/RPI_INT1*%
X165960000Y-89000000D03*
%TO.N,unconnected-(J6-GPIO1{slash}PCM_CLK{slash}PWM0-Pad12)*%
X165960000Y-91540000D03*
%TO.N,/RPI_INT2*%
X163420000Y-89000000D03*
%TO.N,GND*%
X163420000Y-91540000D03*
%TO.N,unconnected-(J6-GPIO3-Pad15)*%
X160880000Y-89000000D03*
%TO.N,unconnected-(J6-GPIO4-Pad16)*%
X160880000Y-91540000D03*
%TO.N,unconnected-(J6-3V3-Pad17)*%
X158340000Y-89000000D03*
%TO.N,unconnected-(J6-GPIO5-Pad18)*%
X158340000Y-91540000D03*
%TO.N,/SPI1_MOSI*%
X155800000Y-89000000D03*
%TO.N,GND*%
X155800000Y-91540000D03*
%TO.N,/SPI1_MISO*%
X153260000Y-89000000D03*
%TO.N,unconnected-(J6-GPIO6-Pad22)*%
X153260000Y-91540000D03*
%TO.N,/SPI1_SCK*%
X150720000Y-89000000D03*
%TO.N,/SPI1_DSPIC_SS*%
X150720000Y-91540000D03*
%TO.N,GND*%
X148180000Y-89000000D03*
%TO.N,unconnected-(J6-~{CE1}_SPI0{slash}GPIO11-Pad26)*%
X148180000Y-91540000D03*
%TO.N,unconnected-(J6-ID_SD_I2C0-Pad27)*%
X145640000Y-89000000D03*
%TO.N,unconnected-(J6-ID_SC_I2C0-Pad28)*%
X145640000Y-91540000D03*
%TO.N,unconnected-(J6-GPCLK1{slash}GPIO21-Pad29)*%
X143100000Y-89000000D03*
%TO.N,GND*%
X143100000Y-91540000D03*
%TO.N,unconnected-(J6-GPCLK2{slash}GPIO22-Pad31)*%
X140560000Y-89000000D03*
%TO.N,/TEST2*%
X140560000Y-91540000D03*
%TO.N,unconnected-(J6-GPIO23{slash}PWM1-Pad33)*%
X138020000Y-89000000D03*
%TO.N,GND*%
X138020000Y-91540000D03*
%TO.N,unconnected-(J6-GPIO24{slash}PWM1{slash}PCM_FS-Pad35)*%
X135480000Y-89000000D03*
%TO.N,/ONOFF*%
X135480000Y-91540000D03*
%TO.N,unconnected-(J6-GPIO25-Pad37)*%
X132940000Y-89000000D03*
%TO.N,/RESETMICRO*%
X132940000Y-91540000D03*
%TO.N,GND*%
X130400000Y-89000000D03*
%TO.N,unconnected-(J6-GPIO29{slash}PCM_DOUT-Pad40)*%
X130400000Y-91540000D03*
%TD*%
D21*
%TO.N,GND*%
X155300000Y-134000000D03*
X160300000Y-133900000D03*
X159100000Y-147100000D03*
X157800000Y-134000000D03*
X160600000Y-74900000D03*
X185900000Y-80000000D03*
X155000000Y-74600000D03*
X156500000Y-147000000D03*
X151500000Y-72300000D03*
X146000000Y-130200000D03*
X136500000Y-85800000D03*
X151500000Y-73100000D03*
X139600000Y-116300000D03*
X160500000Y-105000000D03*
X150210000Y-146690000D03*
X107600000Y-103200000D03*
X162000000Y-83000000D03*
X139100000Y-85700000D03*
X161700000Y-75800000D03*
X156600000Y-134100000D03*
X157800000Y-147000000D03*
X107600000Y-94800000D03*
X107600000Y-122100000D03*
X138400000Y-71900000D03*
X160600000Y-74000000D03*
X148800000Y-114900000D03*
X166000000Y-75800000D03*
X137900000Y-85700000D03*
X160400000Y-146900000D03*
X160600000Y-75700000D03*
X138300000Y-66500000D03*
X151500000Y-74600000D03*
X151200000Y-133100000D03*
X163000000Y-75800000D03*
X157500000Y-104900000D03*
X159100000Y-133900000D03*
%TO.N,/VIN*%
X156500000Y-82000000D03*
X166100000Y-79600000D03*
%TO.N,Net-(D6-K)*%
X166100000Y-78100000D03*
X171000000Y-81500000D03*
%TO.N,/MCLR*%
X137100000Y-130500000D03*
%TO.N,Net-(D10-A)*%
X159010000Y-75590000D03*
X170100000Y-85300000D03*
X161900000Y-68200000D03*
%TO.N,+5V*%
X156200000Y-63500000D03*
X156100000Y-64600000D03*
X153700000Y-64600000D03*
X153700000Y-63500000D03*
X155000000Y-63500000D03*
X155100000Y-64600000D03*
%TO.N,VCC*%
X151600000Y-148050000D03*
X152410000Y-129890000D03*
X136900000Y-114800000D03*
X120100000Y-117600000D03*
X103200000Y-122800000D03*
%TO.N,/SPI2_ADXL355Z_CS*%
X158800000Y-123300000D03*
%TO.N,/TEST1*%
X143520000Y-116920000D03*
X160500000Y-114400000D03*
%TO.N,/SPI2_MISO*%
X149600000Y-132400000D03*
X158800000Y-130400000D03*
%TO.N,/_DSPIC_RX*%
X143500000Y-126400000D03*
%TO.N,/DSPIC_TX*%
X123000000Y-126900000D03*
X123000000Y-122400000D03*
%TO.N,/SPI2_DS3234_CS*%
X146600000Y-137100000D03*
X147400000Y-130800000D03*
%TO.N,/SPI2_MOSI*%
X153700000Y-116700000D03*
X152750000Y-133850000D03*
%TO.N,/ADXL_INT1*%
X161900000Y-124200000D03*
%TO.N,/DS3231_SQW*%
X139700000Y-121200000D03*
X154020000Y-142720000D03*
%TO.N,/GPS_1PPS*%
X129000000Y-111500000D03*
%TO.N,/ADXL_INT2*%
X161000000Y-121500000D03*
%TO.N,/ADXL_DRDY*%
X159600000Y-122200000D03*
%TO.N,/SPI2_SCK*%
X153680000Y-126520000D03*
%TO.N,/TEST2*%
X155800000Y-112900000D03*
%TO.N,/RESETMICRO*%
X117500000Y-113700000D03*
X117500000Y-115600000D03*
%TO.N,/SPI1_DSPIC_SS*%
X132800000Y-124400000D03*
%TD*%
%TA.AperFunction,Conductor*%
%TO.N,+5V*%
G36*
X156843039Y-62020185D02*
G01*
X156888794Y-62072989D01*
X156900000Y-62124500D01*
X156900000Y-81113651D01*
X156880315Y-81180690D01*
X156827511Y-81226445D01*
X156758353Y-81236389D01*
X156739562Y-81231244D01*
X156739324Y-81232031D01*
X156733500Y-81230264D01*
X156733497Y-81230263D01*
X156733492Y-81230262D01*
X156733489Y-81230261D01*
X156578845Y-81199500D01*
X156578842Y-81199500D01*
X156421158Y-81199500D01*
X156421155Y-81199500D01*
X156266510Y-81230261D01*
X156266498Y-81230264D01*
X156120827Y-81290602D01*
X156120814Y-81290609D01*
X155989711Y-81378210D01*
X155989707Y-81378213D01*
X155878213Y-81489707D01*
X155878210Y-81489711D01*
X155790609Y-81620814D01*
X155790602Y-81620827D01*
X155730264Y-81766498D01*
X155730261Y-81766510D01*
X155699500Y-81921153D01*
X155699500Y-82078846D01*
X155730261Y-82233489D01*
X155730264Y-82233501D01*
X155790602Y-82379172D01*
X155790609Y-82379185D01*
X155878210Y-82510288D01*
X155878213Y-82510292D01*
X155989707Y-82621786D01*
X155989711Y-82621789D01*
X156120814Y-82709390D01*
X156120827Y-82709397D01*
X156266498Y-82769735D01*
X156266503Y-82769737D01*
X156396404Y-82795576D01*
X156421153Y-82800499D01*
X156421156Y-82800500D01*
X156421158Y-82800500D01*
X156578844Y-82800500D01*
X156578845Y-82800499D01*
X156733497Y-82769737D01*
X156733509Y-82769731D01*
X156739324Y-82767969D01*
X156740106Y-82770549D01*
X156797992Y-82764314D01*
X156860477Y-82795576D01*
X156896142Y-82855657D01*
X156900000Y-82886348D01*
X156900000Y-84800000D01*
X169255073Y-84800000D01*
X169322112Y-84819685D01*
X169367867Y-84872489D01*
X169377811Y-84941647D01*
X169369634Y-84971453D01*
X169330263Y-85066502D01*
X169330261Y-85066510D01*
X169299500Y-85221153D01*
X169299500Y-85378846D01*
X169330261Y-85533489D01*
X169330264Y-85533501D01*
X169390602Y-85679172D01*
X169390609Y-85679185D01*
X169478210Y-85810288D01*
X169478213Y-85810292D01*
X169589707Y-85921786D01*
X169589711Y-85921789D01*
X169720814Y-86009390D01*
X169720827Y-86009397D01*
X169866498Y-86069735D01*
X169866503Y-86069737D01*
X170021153Y-86100499D01*
X170021156Y-86100500D01*
X170021158Y-86100500D01*
X170178844Y-86100500D01*
X170178845Y-86100499D01*
X170333497Y-86069737D01*
X170479179Y-86009394D01*
X170610289Y-85921789D01*
X170721789Y-85810289D01*
X170809394Y-85679179D01*
X170869737Y-85533497D01*
X170900500Y-85378842D01*
X170900500Y-85221158D01*
X170900500Y-85221155D01*
X170900499Y-85221153D01*
X170869738Y-85066510D01*
X170869737Y-85066503D01*
X170830365Y-84971452D01*
X170822897Y-84901983D01*
X170854172Y-84839504D01*
X170914261Y-84803852D01*
X170944927Y-84800000D01*
X188875500Y-84800000D01*
X188942539Y-84819685D01*
X188988294Y-84872489D01*
X188999500Y-84924000D01*
X188999500Y-95476000D01*
X188979815Y-95543039D01*
X188927011Y-95588794D01*
X188875500Y-95600000D01*
X152935029Y-95600000D01*
X152867990Y-95580315D01*
X152822235Y-95527511D01*
X152811032Y-95476816D01*
X152806718Y-94821235D01*
X152794602Y-92979540D01*
X152813844Y-92912377D01*
X152866346Y-92866276D01*
X152935437Y-92855878D01*
X152938936Y-92856536D01*
X152938945Y-92856484D01*
X153004223Y-92866823D01*
X153153713Y-92890500D01*
X153153714Y-92890500D01*
X153366286Y-92890500D01*
X153366287Y-92890500D01*
X153576243Y-92857246D01*
X153778412Y-92791557D01*
X153967816Y-92695051D01*
X154066117Y-92623632D01*
X154139786Y-92570109D01*
X154139788Y-92570106D01*
X154139792Y-92570104D01*
X154290104Y-92419792D01*
X154290106Y-92419788D01*
X154290109Y-92419786D01*
X154415048Y-92247820D01*
X154415047Y-92247820D01*
X154415051Y-92247816D01*
X154419514Y-92239054D01*
X154467488Y-92188259D01*
X154535308Y-92171463D01*
X154601444Y-92193999D01*
X154640486Y-92239056D01*
X154644951Y-92247820D01*
X154769890Y-92419786D01*
X154920213Y-92570109D01*
X155092179Y-92695048D01*
X155092181Y-92695049D01*
X155092184Y-92695051D01*
X155281588Y-92791557D01*
X155483757Y-92857246D01*
X155693713Y-92890500D01*
X155693714Y-92890500D01*
X155906286Y-92890500D01*
X155906287Y-92890500D01*
X156116243Y-92857246D01*
X156318412Y-92791557D01*
X156507816Y-92695051D01*
X156606117Y-92623632D01*
X156679786Y-92570109D01*
X156679788Y-92570106D01*
X156679792Y-92570104D01*
X156830104Y-92419792D01*
X156830106Y-92419788D01*
X156830109Y-92419786D01*
X156955048Y-92247820D01*
X156955047Y-92247820D01*
X156955051Y-92247816D01*
X156959514Y-92239054D01*
X157007488Y-92188259D01*
X157075308Y-92171463D01*
X157141444Y-92193999D01*
X157180486Y-92239056D01*
X157184951Y-92247820D01*
X157309890Y-92419786D01*
X157460213Y-92570109D01*
X157632179Y-92695048D01*
X157632181Y-92695049D01*
X157632184Y-92695051D01*
X157821588Y-92791557D01*
X158023757Y-92857246D01*
X158233713Y-92890500D01*
X158233714Y-92890500D01*
X158446286Y-92890500D01*
X158446287Y-92890500D01*
X158656243Y-92857246D01*
X158858412Y-92791557D01*
X159047816Y-92695051D01*
X159146117Y-92623632D01*
X159219786Y-92570109D01*
X159219788Y-92570106D01*
X159219792Y-92570104D01*
X159370104Y-92419792D01*
X159370106Y-92419788D01*
X159370109Y-92419786D01*
X159495048Y-92247820D01*
X159495047Y-92247820D01*
X159495051Y-92247816D01*
X159499514Y-92239054D01*
X159547488Y-92188259D01*
X159615308Y-92171463D01*
X159681444Y-92193999D01*
X159720486Y-92239056D01*
X159724951Y-92247820D01*
X159849890Y-92419786D01*
X160000213Y-92570109D01*
X160172179Y-92695048D01*
X160172181Y-92695049D01*
X160172184Y-92695051D01*
X160361588Y-92791557D01*
X160563757Y-92857246D01*
X160773713Y-92890500D01*
X160773714Y-92890500D01*
X160986286Y-92890500D01*
X160986287Y-92890500D01*
X161196243Y-92857246D01*
X161398412Y-92791557D01*
X161587816Y-92695051D01*
X161686117Y-92623632D01*
X161759786Y-92570109D01*
X161759788Y-92570106D01*
X161759792Y-92570104D01*
X161910104Y-92419792D01*
X161910106Y-92419788D01*
X161910109Y-92419786D01*
X162035048Y-92247820D01*
X162035047Y-92247820D01*
X162035051Y-92247816D01*
X162039514Y-92239054D01*
X162087488Y-92188259D01*
X162155308Y-92171463D01*
X162221444Y-92193999D01*
X162260486Y-92239056D01*
X162264951Y-92247820D01*
X162389890Y-92419786D01*
X162540213Y-92570109D01*
X162712179Y-92695048D01*
X162712181Y-92695049D01*
X162712184Y-92695051D01*
X162901588Y-92791557D01*
X163103757Y-92857246D01*
X163313713Y-92890500D01*
X163313714Y-92890500D01*
X163526286Y-92890500D01*
X163526287Y-92890500D01*
X163736243Y-92857246D01*
X163938412Y-92791557D01*
X164127816Y-92695051D01*
X164226117Y-92623632D01*
X164299786Y-92570109D01*
X164299788Y-92570106D01*
X164299792Y-92570104D01*
X164450104Y-92419792D01*
X164450106Y-92419788D01*
X164450109Y-92419786D01*
X164575048Y-92247820D01*
X164575047Y-92247820D01*
X164575051Y-92247816D01*
X164579514Y-92239054D01*
X164627488Y-92188259D01*
X164695308Y-92171463D01*
X164761444Y-92193999D01*
X164800486Y-92239056D01*
X164804951Y-92247820D01*
X164929890Y-92419786D01*
X165080213Y-92570109D01*
X165252179Y-92695048D01*
X165252181Y-92695049D01*
X165252184Y-92695051D01*
X165441588Y-92791557D01*
X165643757Y-92857246D01*
X165853713Y-92890500D01*
X165853714Y-92890500D01*
X166066286Y-92890500D01*
X166066287Y-92890500D01*
X166276243Y-92857246D01*
X166478412Y-92791557D01*
X166667816Y-92695051D01*
X166766117Y-92623632D01*
X166839786Y-92570109D01*
X166839788Y-92570106D01*
X166839792Y-92570104D01*
X166990104Y-92419792D01*
X166990106Y-92419788D01*
X166990109Y-92419786D01*
X167115048Y-92247820D01*
X167115047Y-92247820D01*
X167115051Y-92247816D01*
X167119514Y-92239054D01*
X167167488Y-92188259D01*
X167235308Y-92171463D01*
X167301444Y-92193999D01*
X167340486Y-92239056D01*
X167344951Y-92247820D01*
X167469890Y-92419786D01*
X167620213Y-92570109D01*
X167792179Y-92695048D01*
X167792181Y-92695049D01*
X167792184Y-92695051D01*
X167981588Y-92791557D01*
X168183757Y-92857246D01*
X168393713Y-92890500D01*
X168393714Y-92890500D01*
X168606286Y-92890500D01*
X168606287Y-92890500D01*
X168816243Y-92857246D01*
X169018412Y-92791557D01*
X169207816Y-92695051D01*
X169306117Y-92623632D01*
X169379786Y-92570109D01*
X169379788Y-92570106D01*
X169379792Y-92570104D01*
X169530104Y-92419792D01*
X169530106Y-92419788D01*
X169530109Y-92419786D01*
X169655048Y-92247820D01*
X169655047Y-92247820D01*
X169655051Y-92247816D01*
X169659514Y-92239054D01*
X169707488Y-92188259D01*
X169775308Y-92171463D01*
X169841444Y-92193999D01*
X169880486Y-92239056D01*
X169884951Y-92247820D01*
X170009890Y-92419786D01*
X170160213Y-92570109D01*
X170332179Y-92695048D01*
X170332181Y-92695049D01*
X170332184Y-92695051D01*
X170521588Y-92791557D01*
X170723757Y-92857246D01*
X170933713Y-92890500D01*
X170933714Y-92890500D01*
X171146286Y-92890500D01*
X171146287Y-92890500D01*
X171356243Y-92857246D01*
X171558412Y-92791557D01*
X171747816Y-92695051D01*
X171846117Y-92623632D01*
X171919786Y-92570109D01*
X171919788Y-92570106D01*
X171919792Y-92570104D01*
X172070104Y-92419792D01*
X172070106Y-92419788D01*
X172070109Y-92419786D01*
X172195048Y-92247820D01*
X172195047Y-92247820D01*
X172195051Y-92247816D01*
X172199514Y-92239054D01*
X172247488Y-92188259D01*
X172315308Y-92171463D01*
X172381444Y-92193999D01*
X172420486Y-92239056D01*
X172424951Y-92247820D01*
X172549890Y-92419786D01*
X172700213Y-92570109D01*
X172872179Y-92695048D01*
X172872181Y-92695049D01*
X172872184Y-92695051D01*
X173061588Y-92791557D01*
X173263757Y-92857246D01*
X173473713Y-92890500D01*
X173473714Y-92890500D01*
X173686286Y-92890500D01*
X173686287Y-92890500D01*
X173896243Y-92857246D01*
X174098412Y-92791557D01*
X174287816Y-92695051D01*
X174386117Y-92623632D01*
X174459786Y-92570109D01*
X174459788Y-92570106D01*
X174459792Y-92570104D01*
X174610104Y-92419792D01*
X174610106Y-92419788D01*
X174610109Y-92419786D01*
X174695890Y-92301717D01*
X174735051Y-92247816D01*
X174739793Y-92238508D01*
X174787763Y-92187711D01*
X174855583Y-92170911D01*
X174921719Y-92193445D01*
X174960763Y-92238500D01*
X174965373Y-92247547D01*
X175004728Y-92301716D01*
X175637037Y-91669408D01*
X175654075Y-91732993D01*
X175719901Y-91847007D01*
X175812993Y-91940099D01*
X175927007Y-92005925D01*
X175990590Y-92022962D01*
X175358282Y-92655269D01*
X175358282Y-92655270D01*
X175412449Y-92694624D01*
X175601782Y-92791095D01*
X175803870Y-92856757D01*
X176013754Y-92890000D01*
X176226246Y-92890000D01*
X176436127Y-92856757D01*
X176436130Y-92856757D01*
X176638217Y-92791095D01*
X176827554Y-92694622D01*
X176881716Y-92655270D01*
X176881717Y-92655270D01*
X176249408Y-92022962D01*
X176312993Y-92005925D01*
X176427007Y-91940099D01*
X176520099Y-91847007D01*
X176585925Y-91732993D01*
X176602962Y-91669408D01*
X177235270Y-92301717D01*
X177235270Y-92301716D01*
X177274622Y-92247554D01*
X177279514Y-92237954D01*
X177327488Y-92187157D01*
X177395308Y-92170361D01*
X177461444Y-92192897D01*
X177500486Y-92237954D01*
X177505375Y-92247550D01*
X177544728Y-92301716D01*
X178177037Y-91669408D01*
X178194075Y-91732993D01*
X178259901Y-91847007D01*
X178352993Y-91940099D01*
X178467007Y-92005925D01*
X178530590Y-92022962D01*
X177898282Y-92655269D01*
X177898282Y-92655270D01*
X177952449Y-92694624D01*
X178141782Y-92791095D01*
X178343870Y-92856757D01*
X178553754Y-92890000D01*
X178766246Y-92890000D01*
X178976127Y-92856757D01*
X178976130Y-92856757D01*
X179178217Y-92791095D01*
X179367554Y-92694622D01*
X179421716Y-92655270D01*
X179421717Y-92655270D01*
X178789408Y-92022962D01*
X178852993Y-92005925D01*
X178967007Y-91940099D01*
X179060099Y-91847007D01*
X179125925Y-91732993D01*
X179142962Y-91669408D01*
X179775270Y-92301717D01*
X179775270Y-92301716D01*
X179814622Y-92247554D01*
X179911095Y-92058217D01*
X179976757Y-91856130D01*
X179976757Y-91856127D01*
X180010000Y-91646246D01*
X180010000Y-91542605D01*
X180029685Y-91475566D01*
X180082489Y-91429811D01*
X180151647Y-91419867D01*
X180215203Y-91448892D01*
X180248559Y-91495150D01*
X180361769Y-91768462D01*
X180361770Y-91768464D01*
X180361772Y-91768469D01*
X180523893Y-92071775D01*
X180523904Y-92071793D01*
X180714975Y-92357751D01*
X180714985Y-92357765D01*
X180933176Y-92623632D01*
X181176367Y-92866823D01*
X181176372Y-92866827D01*
X181176373Y-92866828D01*
X181442240Y-93085019D01*
X181728213Y-93276100D01*
X181728222Y-93276105D01*
X181728224Y-93276106D01*
X182031530Y-93438227D01*
X182031532Y-93438227D01*
X182031538Y-93438231D01*
X182349295Y-93569850D01*
X182678422Y-93669690D01*
X183015750Y-93736789D01*
X183358031Y-93770500D01*
X183358034Y-93770500D01*
X183701966Y-93770500D01*
X183701969Y-93770500D01*
X184044250Y-93736789D01*
X184381578Y-93669690D01*
X184710705Y-93569850D01*
X185028462Y-93438231D01*
X185331787Y-93276100D01*
X185617760Y-93085019D01*
X185883627Y-92866828D01*
X186126828Y-92623627D01*
X186345019Y-92357760D01*
X186536100Y-92071787D01*
X186698231Y-91768462D01*
X186829850Y-91450705D01*
X186929690Y-91121578D01*
X186996789Y-90784250D01*
X187030500Y-90441969D01*
X187030500Y-90098031D01*
X186996789Y-89755750D01*
X186929690Y-89418422D01*
X186829850Y-89089295D01*
X186698231Y-88771538D01*
X186536100Y-88468213D01*
X186345019Y-88182240D01*
X186126828Y-87916373D01*
X186126827Y-87916372D01*
X186126823Y-87916367D01*
X185883632Y-87673176D01*
X185617765Y-87454985D01*
X185617764Y-87454984D01*
X185617760Y-87454981D01*
X185331787Y-87263900D01*
X185331782Y-87263897D01*
X185331775Y-87263893D01*
X185028469Y-87101772D01*
X185028464Y-87101770D01*
X184710706Y-86970150D01*
X184381572Y-86870308D01*
X184044248Y-86803210D01*
X184044249Y-86803210D01*
X183786456Y-86777821D01*
X183701969Y-86769500D01*
X183358031Y-86769500D01*
X183279966Y-86777188D01*
X183015750Y-86803210D01*
X182678427Y-86870308D01*
X182349293Y-86970150D01*
X182031535Y-87101770D01*
X182031530Y-87101772D01*
X181728224Y-87263893D01*
X181728206Y-87263904D01*
X181442248Y-87454975D01*
X181442234Y-87454985D01*
X181176367Y-87673176D01*
X180933176Y-87916367D01*
X180714985Y-88182234D01*
X180714975Y-88182248D01*
X180523904Y-88468206D01*
X180523893Y-88468224D01*
X180361772Y-88771530D01*
X180361770Y-88771535D01*
X180249060Y-89043641D01*
X180205219Y-89098044D01*
X180138925Y-89120109D01*
X180071225Y-89102830D01*
X180023615Y-89051692D01*
X180010499Y-88996188D01*
X180010499Y-88102129D01*
X180010498Y-88102123D01*
X180004091Y-88042516D01*
X179953797Y-87907671D01*
X179953793Y-87907664D01*
X179867547Y-87792455D01*
X179867544Y-87792452D01*
X179752335Y-87706206D01*
X179752328Y-87706202D01*
X179617482Y-87655908D01*
X179617483Y-87655908D01*
X179557883Y-87649501D01*
X179557881Y-87649500D01*
X179557873Y-87649500D01*
X179557864Y-87649500D01*
X177762129Y-87649500D01*
X177762123Y-87649501D01*
X177702516Y-87655908D01*
X177567671Y-87706202D01*
X177567664Y-87706206D01*
X177452455Y-87792452D01*
X177452452Y-87792455D01*
X177366206Y-87907664D01*
X177366203Y-87907669D01*
X177317189Y-88039083D01*
X177275317Y-88095016D01*
X177209853Y-88119433D01*
X177141580Y-88104581D01*
X177113326Y-88083430D01*
X176999786Y-87969890D01*
X176827820Y-87844951D01*
X176638414Y-87748444D01*
X176638413Y-87748443D01*
X176638412Y-87748443D01*
X176436243Y-87682754D01*
X176436241Y-87682753D01*
X176436240Y-87682753D01*
X176266998Y-87655948D01*
X176226287Y-87649500D01*
X176013713Y-87649500D01*
X175973002Y-87655948D01*
X175803760Y-87682753D01*
X175601585Y-87748444D01*
X175412179Y-87844951D01*
X175240213Y-87969890D01*
X175089890Y-88120213D01*
X174964949Y-88292182D01*
X174960484Y-88300946D01*
X174912509Y-88351742D01*
X174844688Y-88368536D01*
X174778553Y-88345998D01*
X174739516Y-88300946D01*
X174735050Y-88292182D01*
X174610109Y-88120213D01*
X174459786Y-87969890D01*
X174287820Y-87844951D01*
X174098414Y-87748444D01*
X174098413Y-87748443D01*
X174098412Y-87748443D01*
X173896243Y-87682754D01*
X173896241Y-87682753D01*
X173896240Y-87682753D01*
X173726998Y-87655948D01*
X173686287Y-87649500D01*
X173473713Y-87649500D01*
X173433002Y-87655948D01*
X173263760Y-87682753D01*
X173061585Y-87748444D01*
X172872179Y-87844951D01*
X172700213Y-87969890D01*
X172549890Y-88120213D01*
X172424949Y-88292182D01*
X172420484Y-88300946D01*
X172372509Y-88351742D01*
X172304688Y-88368536D01*
X172238553Y-88345998D01*
X172199516Y-88300946D01*
X172195050Y-88292182D01*
X172070109Y-88120213D01*
X171919786Y-87969890D01*
X171747820Y-87844951D01*
X171558414Y-87748444D01*
X171558413Y-87748443D01*
X171558412Y-87748443D01*
X171356243Y-87682754D01*
X171356241Y-87682753D01*
X171356240Y-87682753D01*
X171186998Y-87655948D01*
X171146287Y-87649500D01*
X170933713Y-87649500D01*
X170893002Y-87655948D01*
X170723760Y-87682753D01*
X170521585Y-87748444D01*
X170332179Y-87844951D01*
X170160213Y-87969890D01*
X170009890Y-88120213D01*
X169884949Y-88292182D01*
X169880484Y-88300946D01*
X169832509Y-88351742D01*
X169764688Y-88368536D01*
X169698553Y-88345998D01*
X169659516Y-88300946D01*
X169655050Y-88292182D01*
X169530109Y-88120213D01*
X169379786Y-87969890D01*
X169207820Y-87844951D01*
X169018414Y-87748444D01*
X169018413Y-87748443D01*
X169018412Y-87748443D01*
X168816243Y-87682754D01*
X168816241Y-87682753D01*
X168816240Y-87682753D01*
X168646998Y-87655948D01*
X168606287Y-87649500D01*
X168393713Y-87649500D01*
X168353002Y-87655948D01*
X168183760Y-87682753D01*
X167981585Y-87748444D01*
X167792179Y-87844951D01*
X167620213Y-87969890D01*
X167469890Y-88120213D01*
X167344949Y-88292182D01*
X167340484Y-88300946D01*
X167292509Y-88351742D01*
X167224688Y-88368536D01*
X167158553Y-88345998D01*
X167119516Y-88300946D01*
X167115050Y-88292182D01*
X166990109Y-88120213D01*
X166839786Y-87969890D01*
X166667820Y-87844951D01*
X166478414Y-87748444D01*
X166478413Y-87748443D01*
X166478412Y-87748443D01*
X166276243Y-87682754D01*
X166276241Y-87682753D01*
X166276240Y-87682753D01*
X166106998Y-87655948D01*
X166066287Y-87649500D01*
X165853713Y-87649500D01*
X165813002Y-87655948D01*
X165643760Y-87682753D01*
X165441585Y-87748444D01*
X165252179Y-87844951D01*
X165080213Y-87969890D01*
X164929890Y-88120213D01*
X164804949Y-88292182D01*
X164800484Y-88300946D01*
X164752509Y-88351742D01*
X164684688Y-88368536D01*
X164618553Y-88345998D01*
X164579516Y-88300946D01*
X164575050Y-88292182D01*
X164450109Y-88120213D01*
X164299786Y-87969890D01*
X164127820Y-87844951D01*
X163938414Y-87748444D01*
X163938413Y-87748443D01*
X163938412Y-87748443D01*
X163736243Y-87682754D01*
X163736241Y-87682753D01*
X163736240Y-87682753D01*
X163566998Y-87655948D01*
X163526287Y-87649500D01*
X163313713Y-87649500D01*
X163273002Y-87655948D01*
X163103760Y-87682753D01*
X162901585Y-87748444D01*
X162712179Y-87844951D01*
X162540213Y-87969890D01*
X162389890Y-88120213D01*
X162264949Y-88292182D01*
X162260484Y-88300946D01*
X162212509Y-88351742D01*
X162144688Y-88368536D01*
X162078553Y-88345998D01*
X162039516Y-88300946D01*
X162035050Y-88292182D01*
X161910109Y-88120213D01*
X161759786Y-87969890D01*
X161587820Y-87844951D01*
X161398414Y-87748444D01*
X161398413Y-87748443D01*
X161398412Y-87748443D01*
X161196243Y-87682754D01*
X161196241Y-87682753D01*
X161196240Y-87682753D01*
X161026998Y-87655948D01*
X160986287Y-87649500D01*
X160773713Y-87649500D01*
X160733002Y-87655948D01*
X160563760Y-87682753D01*
X160361585Y-87748444D01*
X160172179Y-87844951D01*
X160000213Y-87969890D01*
X159849890Y-88120213D01*
X159724949Y-88292182D01*
X159720484Y-88300946D01*
X159672509Y-88351742D01*
X159604688Y-88368536D01*
X159538553Y-88345998D01*
X159499516Y-88300946D01*
X159495050Y-88292182D01*
X159370109Y-88120213D01*
X159219786Y-87969890D01*
X159047820Y-87844951D01*
X158858414Y-87748444D01*
X158858413Y-87748443D01*
X158858412Y-87748443D01*
X158656243Y-87682754D01*
X158656241Y-87682753D01*
X158656240Y-87682753D01*
X158486998Y-87655948D01*
X158446287Y-87649500D01*
X158233713Y-87649500D01*
X158193002Y-87655948D01*
X158023760Y-87682753D01*
X157821585Y-87748444D01*
X157632179Y-87844951D01*
X157460213Y-87969890D01*
X157309890Y-88120213D01*
X157184949Y-88292182D01*
X157180484Y-88300946D01*
X157132509Y-88351742D01*
X157064688Y-88368536D01*
X156998553Y-88345998D01*
X156959516Y-88300946D01*
X156955050Y-88292182D01*
X156830109Y-88120213D01*
X156679786Y-87969890D01*
X156507820Y-87844951D01*
X156318414Y-87748444D01*
X156318413Y-87748443D01*
X156318412Y-87748443D01*
X156116243Y-87682754D01*
X156116241Y-87682753D01*
X156116240Y-87682753D01*
X155946998Y-87655948D01*
X155906287Y-87649500D01*
X155693713Y-87649500D01*
X155653002Y-87655948D01*
X155483760Y-87682753D01*
X155281585Y-87748444D01*
X155092179Y-87844951D01*
X154920213Y-87969890D01*
X154769890Y-88120213D01*
X154644949Y-88292182D01*
X154640484Y-88300946D01*
X154592509Y-88351742D01*
X154524688Y-88368536D01*
X154458553Y-88345998D01*
X154419516Y-88300946D01*
X154415050Y-88292182D01*
X154290109Y-88120213D01*
X154139786Y-87969890D01*
X153967820Y-87844951D01*
X153778414Y-87748444D01*
X153778413Y-87748443D01*
X153778412Y-87748443D01*
X153576243Y-87682754D01*
X153576241Y-87682753D01*
X153576240Y-87682753D01*
X153406998Y-87655948D01*
X153366287Y-87649500D01*
X153153713Y-87649500D01*
X153125006Y-87654046D01*
X152943757Y-87682753D01*
X152921344Y-87690036D01*
X152851503Y-87692030D01*
X152791671Y-87655948D01*
X152760844Y-87593247D01*
X152759032Y-87572935D01*
X152700003Y-78600456D01*
X152700000Y-78599640D01*
X152700000Y-74521153D01*
X154199500Y-74521153D01*
X154199500Y-74678846D01*
X154230261Y-74833489D01*
X154230264Y-74833501D01*
X154290602Y-74979172D01*
X154290609Y-74979185D01*
X154378210Y-75110288D01*
X154378213Y-75110292D01*
X154489707Y-75221786D01*
X154489711Y-75221789D01*
X154620814Y-75309390D01*
X154620827Y-75309397D01*
X154734553Y-75356503D01*
X154766503Y-75369737D01*
X154921153Y-75400499D01*
X154921156Y-75400500D01*
X154921158Y-75400500D01*
X155078844Y-75400500D01*
X155078845Y-75400499D01*
X155233497Y-75369737D01*
X155379179Y-75309394D01*
X155510289Y-75221789D01*
X155621789Y-75110289D01*
X155709394Y-74979179D01*
X155769737Y-74833497D01*
X155800500Y-74678842D01*
X155800500Y-74521158D01*
X155800500Y-74521155D01*
X155800499Y-74521153D01*
X155769738Y-74366510D01*
X155769737Y-74366503D01*
X155714645Y-74233497D01*
X155709397Y-74220827D01*
X155709390Y-74220814D01*
X155621789Y-74089711D01*
X155621786Y-74089707D01*
X155510292Y-73978213D01*
X155510288Y-73978210D01*
X155379185Y-73890609D01*
X155379172Y-73890602D01*
X155233501Y-73830264D01*
X155233489Y-73830261D01*
X155078845Y-73799500D01*
X155078842Y-73799500D01*
X154921158Y-73799500D01*
X154921155Y-73799500D01*
X154766510Y-73830261D01*
X154766498Y-73830264D01*
X154620827Y-73890602D01*
X154620814Y-73890609D01*
X154489711Y-73978210D01*
X154489707Y-73978213D01*
X154378213Y-74089707D01*
X154378210Y-74089711D01*
X154290609Y-74220814D01*
X154290602Y-74220827D01*
X154230264Y-74366498D01*
X154230261Y-74366510D01*
X154199500Y-74521153D01*
X152700000Y-74521153D01*
X152700000Y-64300000D01*
X152026120Y-63433582D01*
X152000500Y-63368579D01*
X152000000Y-63357453D01*
X152000000Y-62124500D01*
X152019685Y-62057461D01*
X152072489Y-62011706D01*
X152124000Y-62000500D01*
X156776000Y-62000500D01*
X156843039Y-62020185D01*
G37*
%TD.AperFunction*%
%TA.AperFunction,Conductor*%
G36*
X174921444Y-89653999D02*
G01*
X174960486Y-89699056D01*
X174964951Y-89707820D01*
X175089890Y-89879786D01*
X175240213Y-90030109D01*
X175412179Y-90155048D01*
X175412181Y-90155049D01*
X175412184Y-90155051D01*
X175421493Y-90159794D01*
X175472290Y-90207766D01*
X175489087Y-90275587D01*
X175466552Y-90341722D01*
X175421505Y-90380760D01*
X175412446Y-90385376D01*
X175412440Y-90385380D01*
X175358282Y-90424727D01*
X175358282Y-90424728D01*
X175990591Y-91057037D01*
X175927007Y-91074075D01*
X175812993Y-91139901D01*
X175719901Y-91232993D01*
X175654075Y-91347007D01*
X175637037Y-91410591D01*
X175004728Y-90778282D01*
X175004727Y-90778282D01*
X174965380Y-90832440D01*
X174965376Y-90832446D01*
X174960760Y-90841505D01*
X174912781Y-90892297D01*
X174844959Y-90909087D01*
X174778826Y-90886543D01*
X174739794Y-90841493D01*
X174735051Y-90832184D01*
X174735049Y-90832181D01*
X174735048Y-90832179D01*
X174610109Y-90660213D01*
X174459786Y-90509890D01*
X174287820Y-90384951D01*
X174279600Y-90380763D01*
X174279054Y-90380485D01*
X174228259Y-90332512D01*
X174211463Y-90264692D01*
X174233999Y-90198556D01*
X174279054Y-90159515D01*
X174287816Y-90155051D01*
X174374138Y-90092335D01*
X174459786Y-90030109D01*
X174459788Y-90030106D01*
X174459792Y-90030104D01*
X174610104Y-89879792D01*
X174610106Y-89879788D01*
X174610109Y-89879786D01*
X174735048Y-89707820D01*
X174735047Y-89707820D01*
X174735051Y-89707816D01*
X174739514Y-89699054D01*
X174787488Y-89648259D01*
X174855308Y-89631463D01*
X174921444Y-89653999D01*
G37*
%TD.AperFunction*%
%TA.AperFunction,Conductor*%
G36*
X177244340Y-89888068D02*
G01*
X177300274Y-89929939D01*
X177317189Y-89960917D01*
X177366202Y-90092328D01*
X177366206Y-90092335D01*
X177452452Y-90207544D01*
X177452455Y-90207547D01*
X177567664Y-90293793D01*
X177567671Y-90293797D01*
X177612618Y-90310561D01*
X177702517Y-90344091D01*
X177762127Y-90350500D01*
X177772685Y-90350499D01*
X177839723Y-90370179D01*
X177860372Y-90386818D01*
X178530591Y-91057037D01*
X178467007Y-91074075D01*
X178352993Y-91139901D01*
X178259901Y-91232993D01*
X178194075Y-91347007D01*
X178177037Y-91410591D01*
X177544728Y-90778282D01*
X177544727Y-90778282D01*
X177505380Y-90832440D01*
X177500483Y-90842051D01*
X177452506Y-90892845D01*
X177384684Y-90909638D01*
X177318550Y-90887098D01*
X177279516Y-90842048D01*
X177274626Y-90832452D01*
X177235270Y-90778282D01*
X177235269Y-90778282D01*
X176602962Y-91410590D01*
X176585925Y-91347007D01*
X176520099Y-91232993D01*
X176427007Y-91139901D01*
X176312993Y-91074075D01*
X176249409Y-91057037D01*
X176881716Y-90424728D01*
X176827547Y-90385373D01*
X176827547Y-90385372D01*
X176818500Y-90380763D01*
X176767706Y-90332788D01*
X176750912Y-90264966D01*
X176773451Y-90198832D01*
X176818508Y-90159793D01*
X176827816Y-90155051D01*
X176999792Y-90030104D01*
X177113329Y-89916566D01*
X177174648Y-89883084D01*
X177244340Y-89888068D01*
G37*
%TD.AperFunction*%
%TA.AperFunction,Conductor*%
G36*
X179964926Y-90225196D02*
G01*
X180014331Y-90274601D01*
X180029500Y-90334029D01*
X180029500Y-90441969D01*
X180036190Y-90509896D01*
X180063210Y-90784245D01*
X180063231Y-90784350D01*
X180063228Y-90784372D01*
X180063656Y-90787250D01*
X180063508Y-90787271D01*
X180063509Y-90787279D01*
X180063365Y-90787293D01*
X180062962Y-90787352D01*
X180057007Y-90853942D01*
X180014147Y-90909121D01*
X179948258Y-90932369D01*
X179880260Y-90916304D01*
X179831742Y-90866027D01*
X179831131Y-90864843D01*
X179814626Y-90832452D01*
X179775270Y-90778282D01*
X179775269Y-90778282D01*
X179142962Y-91410590D01*
X179125925Y-91347007D01*
X179060099Y-91232993D01*
X178967007Y-91139901D01*
X178852993Y-91074075D01*
X178789409Y-91057037D01*
X179459627Y-90386818D01*
X179520950Y-90353333D01*
X179547307Y-90350499D01*
X179557872Y-90350499D01*
X179617483Y-90344091D01*
X179752331Y-90293796D01*
X179831189Y-90234762D01*
X179896652Y-90210345D01*
X179964926Y-90225196D01*
G37*
%TD.AperFunction*%
%TD*%
%TA.AperFunction,Conductor*%
%TO.N,VCC*%
G36*
X177441420Y-114531833D02*
G01*
X177455315Y-114547870D01*
X177480483Y-114582510D01*
X177647490Y-114749517D01*
X177706716Y-114792547D01*
X177749381Y-114847875D01*
X177757448Y-114902593D01*
X177755893Y-114922340D01*
X178454766Y-115621212D01*
X178412708Y-115632482D01*
X178287292Y-115704890D01*
X178184890Y-115807292D01*
X178112482Y-115932708D01*
X178101212Y-115974765D01*
X177402340Y-115275894D01*
X177364733Y-115278854D01*
X177345276Y-115278854D01*
X177307658Y-115275893D01*
X176608787Y-115974765D01*
X176597518Y-115932708D01*
X176525110Y-115807292D01*
X176422708Y-115704890D01*
X176297292Y-115632482D01*
X176255234Y-115621212D01*
X176954105Y-114922340D01*
X176952551Y-114902594D01*
X176966915Y-114834216D01*
X177003284Y-114792547D01*
X177062510Y-114749517D01*
X177229517Y-114582510D01*
X177254682Y-114547872D01*
X177310011Y-114505207D01*
X177379625Y-114499228D01*
X177441420Y-114531833D01*
G37*
%TD.AperFunction*%
%TA.AperFunction,Conductor*%
G36*
X179981420Y-114531833D02*
G01*
X179995315Y-114547870D01*
X180020483Y-114582510D01*
X180187490Y-114749517D01*
X180222127Y-114774683D01*
X180264792Y-114830013D01*
X180270771Y-114899626D01*
X180238165Y-114961421D01*
X180222130Y-114975315D01*
X180217271Y-114978846D01*
X180187488Y-115000484D01*
X180020482Y-115167490D01*
X179977451Y-115226717D01*
X179922120Y-115269382D01*
X179867405Y-115277448D01*
X179847658Y-115275893D01*
X179148787Y-115974765D01*
X179137518Y-115932708D01*
X179065110Y-115807292D01*
X178962708Y-115704890D01*
X178837292Y-115632482D01*
X178795234Y-115621212D01*
X179494105Y-114922340D01*
X179492551Y-114902594D01*
X179506915Y-114834216D01*
X179543284Y-114792547D01*
X179602510Y-114749517D01*
X179769517Y-114582510D01*
X179794682Y-114547872D01*
X179850011Y-114505207D01*
X179919625Y-114499228D01*
X179981420Y-114531833D01*
G37*
%TD.AperFunction*%
%TA.AperFunction,Conductor*%
G36*
X141458935Y-62020185D02*
G01*
X141504690Y-62072989D01*
X141514634Y-62142147D01*
X141485609Y-62205703D01*
X141430215Y-62242431D01*
X141224003Y-62309433D01*
X141013566Y-62416657D01*
X140904550Y-62495862D01*
X140822490Y-62555483D01*
X140822488Y-62555485D01*
X140822487Y-62555485D01*
X140655485Y-62722487D01*
X140655485Y-62722488D01*
X140655483Y-62722490D01*
X140605994Y-62790606D01*
X140516657Y-62913566D01*
X140409433Y-63124003D01*
X140336446Y-63348631D01*
X140299500Y-63581902D01*
X140299500Y-63818097D01*
X140336446Y-64051368D01*
X140409433Y-64275996D01*
X140495862Y-64445621D01*
X140516657Y-64486433D01*
X140655483Y-64677510D01*
X140822490Y-64844517D01*
X141013567Y-64983343D01*
X141112991Y-65034002D01*
X141224003Y-65090566D01*
X141224005Y-65090566D01*
X141224008Y-65090568D01*
X141284703Y-65110289D01*
X141448631Y-65163553D01*
X141681903Y-65200500D01*
X141681908Y-65200500D01*
X141918097Y-65200500D01*
X142151368Y-65163553D01*
X142227420Y-65138842D01*
X142375992Y-65090568D01*
X142586433Y-64983343D01*
X142777510Y-64844517D01*
X142944517Y-64677510D01*
X143083343Y-64486433D01*
X143190568Y-64275992D01*
X143263553Y-64051368D01*
X143270059Y-64010289D01*
X143300500Y-63818097D01*
X143300500Y-63581902D01*
X143263553Y-63348631D01*
X143190566Y-63124003D01*
X143083342Y-62913566D01*
X143056837Y-62877085D01*
X142944517Y-62722490D01*
X142777510Y-62555483D01*
X142586433Y-62416657D01*
X142375996Y-62309433D01*
X142169785Y-62242431D01*
X142112110Y-62202993D01*
X142084912Y-62138634D01*
X142096827Y-62069788D01*
X142144071Y-62018312D01*
X142208104Y-62000500D01*
X150976000Y-62000500D01*
X151043039Y-62020185D01*
X151088794Y-62072989D01*
X151100000Y-62124500D01*
X151100000Y-71538238D01*
X151080315Y-71605277D01*
X151044891Y-71641340D01*
X150989711Y-71678210D01*
X150989707Y-71678213D01*
X150878213Y-71789707D01*
X150878210Y-71789711D01*
X150790609Y-71920814D01*
X150790602Y-71920827D01*
X150730264Y-72066498D01*
X150730261Y-72066510D01*
X150699500Y-72221153D01*
X150699500Y-72378846D01*
X150730261Y-72533489D01*
X150730264Y-72533501D01*
X150779574Y-72652548D01*
X150787043Y-72722018D01*
X150779574Y-72747452D01*
X150730264Y-72866498D01*
X150730261Y-72866510D01*
X150699500Y-73021153D01*
X150699500Y-73178846D01*
X150730261Y-73333489D01*
X150730264Y-73333501D01*
X150790602Y-73479172D01*
X150790609Y-73479185D01*
X150878210Y-73610288D01*
X150878213Y-73610292D01*
X150989706Y-73721785D01*
X150989709Y-73721787D01*
X150989711Y-73721789D01*
X151027290Y-73746898D01*
X151072093Y-73800508D01*
X151080801Y-73869833D01*
X151050647Y-73932861D01*
X151027290Y-73953100D01*
X150989713Y-73978208D01*
X150989707Y-73978213D01*
X150878213Y-74089707D01*
X150878210Y-74089711D01*
X150790609Y-74220814D01*
X150790602Y-74220827D01*
X150730264Y-74366498D01*
X150730261Y-74366510D01*
X150699500Y-74521153D01*
X150699500Y-74678846D01*
X150730261Y-74833489D01*
X150730264Y-74833501D01*
X150790602Y-74979172D01*
X150790609Y-74979185D01*
X150878210Y-75110288D01*
X150878213Y-75110292D01*
X150989705Y-75221784D01*
X150989708Y-75221786D01*
X150989711Y-75221789D01*
X151044892Y-75258660D01*
X151089695Y-75312269D01*
X151100000Y-75361760D01*
X151100000Y-87547666D01*
X151080315Y-87614705D01*
X151027511Y-87660460D01*
X150958353Y-87670404D01*
X150956603Y-87670139D01*
X150826287Y-87649500D01*
X150613713Y-87649500D01*
X150565042Y-87657208D01*
X150403760Y-87682753D01*
X150201585Y-87748444D01*
X150012179Y-87844951D01*
X149840213Y-87969890D01*
X149689890Y-88120213D01*
X149564949Y-88292182D01*
X149560484Y-88300946D01*
X149512509Y-88351742D01*
X149444688Y-88368536D01*
X149378553Y-88345998D01*
X149339516Y-88300946D01*
X149335050Y-88292182D01*
X149210109Y-88120213D01*
X149059786Y-87969890D01*
X148887820Y-87844951D01*
X148698414Y-87748444D01*
X148698413Y-87748443D01*
X148698412Y-87748443D01*
X148496243Y-87682754D01*
X148496241Y-87682753D01*
X148496240Y-87682753D01*
X148334957Y-87657208D01*
X148286287Y-87649500D01*
X148073713Y-87649500D01*
X148025042Y-87657208D01*
X147863760Y-87682753D01*
X147661585Y-87748444D01*
X147472179Y-87844951D01*
X147300213Y-87969890D01*
X147149890Y-88120213D01*
X147024949Y-88292182D01*
X147020484Y-88300946D01*
X146972509Y-88351742D01*
X146904688Y-88368536D01*
X146838553Y-88345998D01*
X146799516Y-88300946D01*
X146795050Y-88292182D01*
X146670109Y-88120213D01*
X146519786Y-87969890D01*
X146347820Y-87844951D01*
X146158414Y-87748444D01*
X146158413Y-87748443D01*
X146158412Y-87748443D01*
X145956243Y-87682754D01*
X145956241Y-87682753D01*
X145956240Y-87682753D01*
X145794957Y-87657208D01*
X145746287Y-87649500D01*
X145533713Y-87649500D01*
X145485042Y-87657208D01*
X145323760Y-87682753D01*
X145121585Y-87748444D01*
X144932179Y-87844951D01*
X144760213Y-87969890D01*
X144609890Y-88120213D01*
X144484949Y-88292182D01*
X144480484Y-88300946D01*
X144432509Y-88351742D01*
X144364688Y-88368536D01*
X144298553Y-88345998D01*
X144259516Y-88300946D01*
X144255050Y-88292182D01*
X144130109Y-88120213D01*
X143979786Y-87969890D01*
X143807820Y-87844951D01*
X143618414Y-87748444D01*
X143618413Y-87748443D01*
X143618412Y-87748443D01*
X143416243Y-87682754D01*
X143416241Y-87682753D01*
X143416240Y-87682753D01*
X143254957Y-87657208D01*
X143206287Y-87649500D01*
X142993713Y-87649500D01*
X142945042Y-87657208D01*
X142783760Y-87682753D01*
X142581585Y-87748444D01*
X142392179Y-87844951D01*
X142220213Y-87969890D01*
X142069890Y-88120213D01*
X141944949Y-88292182D01*
X141940484Y-88300946D01*
X141892509Y-88351742D01*
X141824688Y-88368536D01*
X141758553Y-88345998D01*
X141719516Y-88300946D01*
X141715050Y-88292182D01*
X141590109Y-88120213D01*
X141439786Y-87969890D01*
X141267820Y-87844951D01*
X141078414Y-87748444D01*
X141078413Y-87748443D01*
X141078412Y-87748443D01*
X140876243Y-87682754D01*
X140876241Y-87682753D01*
X140876240Y-87682753D01*
X140714957Y-87657208D01*
X140666287Y-87649500D01*
X140453713Y-87649500D01*
X140405042Y-87657208D01*
X140243760Y-87682753D01*
X140041585Y-87748444D01*
X139852179Y-87844951D01*
X139680213Y-87969890D01*
X139529890Y-88120213D01*
X139404949Y-88292182D01*
X139400484Y-88300946D01*
X139352509Y-88351742D01*
X139284688Y-88368536D01*
X139218553Y-88345998D01*
X139179516Y-88300946D01*
X139175050Y-88292182D01*
X139050109Y-88120213D01*
X138899786Y-87969890D01*
X138727820Y-87844951D01*
X138538414Y-87748444D01*
X138538413Y-87748443D01*
X138538412Y-87748443D01*
X138336243Y-87682754D01*
X138336241Y-87682753D01*
X138336240Y-87682753D01*
X138174957Y-87657208D01*
X138126287Y-87649500D01*
X137913713Y-87649500D01*
X137865042Y-87657208D01*
X137703760Y-87682753D01*
X137501585Y-87748444D01*
X137312179Y-87844951D01*
X137140213Y-87969890D01*
X136989890Y-88120213D01*
X136864949Y-88292182D01*
X136860484Y-88300946D01*
X136812509Y-88351742D01*
X136744688Y-88368536D01*
X136678553Y-88345998D01*
X136639516Y-88300946D01*
X136635050Y-88292182D01*
X136510109Y-88120213D01*
X136359786Y-87969890D01*
X136187820Y-87844951D01*
X135998414Y-87748444D01*
X135998413Y-87748443D01*
X135998412Y-87748443D01*
X135796243Y-87682754D01*
X135796241Y-87682753D01*
X135796240Y-87682753D01*
X135634957Y-87657208D01*
X135586287Y-87649500D01*
X135373713Y-87649500D01*
X135325042Y-87657208D01*
X135163760Y-87682753D01*
X134961585Y-87748444D01*
X134772179Y-87844951D01*
X134600213Y-87969890D01*
X134449890Y-88120213D01*
X134324949Y-88292182D01*
X134320484Y-88300946D01*
X134272509Y-88351742D01*
X134204688Y-88368536D01*
X134138553Y-88345998D01*
X134099516Y-88300946D01*
X134095050Y-88292182D01*
X133970109Y-88120213D01*
X133819786Y-87969890D01*
X133647820Y-87844951D01*
X133458414Y-87748444D01*
X133458413Y-87748443D01*
X133458412Y-87748443D01*
X133256243Y-87682754D01*
X133256241Y-87682753D01*
X133256240Y-87682753D01*
X133094957Y-87657208D01*
X133046287Y-87649500D01*
X132833713Y-87649500D01*
X132785042Y-87657208D01*
X132623760Y-87682753D01*
X132421585Y-87748444D01*
X132232179Y-87844951D01*
X132060213Y-87969890D01*
X131909890Y-88120213D01*
X131784949Y-88292182D01*
X131780484Y-88300946D01*
X131732509Y-88351742D01*
X131664688Y-88368536D01*
X131598553Y-88345998D01*
X131559516Y-88300946D01*
X131555050Y-88292182D01*
X131430109Y-88120213D01*
X131279786Y-87969890D01*
X131107820Y-87844951D01*
X130918414Y-87748444D01*
X130918413Y-87748443D01*
X130918412Y-87748443D01*
X130716243Y-87682754D01*
X130716241Y-87682753D01*
X130716240Y-87682753D01*
X130554957Y-87657208D01*
X130506287Y-87649500D01*
X130293713Y-87649500D01*
X130245042Y-87657208D01*
X130083760Y-87682753D01*
X129881585Y-87748444D01*
X129692179Y-87844951D01*
X129520213Y-87969890D01*
X129369890Y-88120213D01*
X129244951Y-88292179D01*
X129148444Y-88481585D01*
X129082753Y-88683760D01*
X129049500Y-88893713D01*
X129049500Y-88996187D01*
X129029815Y-89063226D01*
X128977011Y-89108981D01*
X128907853Y-89118925D01*
X128844297Y-89089900D01*
X128810939Y-89043640D01*
X128748837Y-88893713D01*
X128698231Y-88771538D01*
X128536100Y-88468213D01*
X128345019Y-88182240D01*
X128126828Y-87916373D01*
X128126827Y-87916372D01*
X128126823Y-87916367D01*
X127883632Y-87673176D01*
X127617765Y-87454985D01*
X127617764Y-87454984D01*
X127617760Y-87454981D01*
X127331787Y-87263900D01*
X127331782Y-87263897D01*
X127331775Y-87263893D01*
X127028469Y-87101772D01*
X127028464Y-87101770D01*
X126710706Y-86970150D01*
X126381572Y-86870308D01*
X126044248Y-86803210D01*
X126044249Y-86803210D01*
X125786456Y-86777821D01*
X125701969Y-86769500D01*
X125358031Y-86769500D01*
X125279966Y-86777188D01*
X125015750Y-86803210D01*
X124678427Y-86870308D01*
X124349293Y-86970150D01*
X124031535Y-87101770D01*
X124031530Y-87101772D01*
X123728224Y-87263893D01*
X123728206Y-87263904D01*
X123442248Y-87454975D01*
X123442234Y-87454985D01*
X123176367Y-87673176D01*
X122933176Y-87916367D01*
X122714985Y-88182234D01*
X122714975Y-88182248D01*
X122523904Y-88468206D01*
X122523893Y-88468224D01*
X122361772Y-88771530D01*
X122361770Y-88771535D01*
X122230150Y-89089293D01*
X122130308Y-89418427D01*
X122063210Y-89755750D01*
X122049213Y-89897873D01*
X122029500Y-90098031D01*
X122029500Y-90441969D01*
X122036190Y-90509896D01*
X122063210Y-90784249D01*
X122130308Y-91121572D01*
X122230150Y-91450706D01*
X122361770Y-91768464D01*
X122361772Y-91768469D01*
X122523893Y-92071775D01*
X122523904Y-92071793D01*
X122714975Y-92357751D01*
X122714985Y-92357765D01*
X122933176Y-92623632D01*
X123176367Y-92866823D01*
X123176372Y-92866827D01*
X123176373Y-92866828D01*
X123442240Y-93085019D01*
X123728213Y-93276100D01*
X123728222Y-93276105D01*
X123728224Y-93276106D01*
X124031530Y-93438227D01*
X124031532Y-93438227D01*
X124031538Y-93438231D01*
X124349295Y-93569850D01*
X124678422Y-93669690D01*
X125015750Y-93736789D01*
X125358031Y-93770500D01*
X125358034Y-93770500D01*
X125701966Y-93770500D01*
X125701969Y-93770500D01*
X126044250Y-93736789D01*
X126381578Y-93669690D01*
X126710705Y-93569850D01*
X127028462Y-93438231D01*
X127331787Y-93276100D01*
X127617760Y-93085019D01*
X127883627Y-92866828D01*
X128126828Y-92623627D01*
X128345019Y-92357760D01*
X128536100Y-92071787D01*
X128698231Y-91768462D01*
X128810940Y-91496357D01*
X128854780Y-91441956D01*
X128921074Y-91419891D01*
X128988773Y-91437170D01*
X129036384Y-91488307D01*
X129049500Y-91543812D01*
X129049500Y-91646286D01*
X129064111Y-91738540D01*
X129082754Y-91856243D01*
X129133285Y-92011762D01*
X129148444Y-92058414D01*
X129244951Y-92247820D01*
X129369890Y-92419786D01*
X129520213Y-92570109D01*
X129692179Y-92695048D01*
X129692181Y-92695049D01*
X129692184Y-92695051D01*
X129881588Y-92791557D01*
X130083757Y-92857246D01*
X130293713Y-92890500D01*
X130293714Y-92890500D01*
X130506286Y-92890500D01*
X130506287Y-92890500D01*
X130716243Y-92857246D01*
X130918412Y-92791557D01*
X131107816Y-92695051D01*
X131206117Y-92623632D01*
X131279786Y-92570109D01*
X131279788Y-92570106D01*
X131279792Y-92570104D01*
X131430104Y-92419792D01*
X131430106Y-92419788D01*
X131430109Y-92419786D01*
X131555048Y-92247820D01*
X131555047Y-92247820D01*
X131555051Y-92247816D01*
X131559514Y-92239054D01*
X131607488Y-92188259D01*
X131675308Y-92171463D01*
X131741444Y-92193999D01*
X131780486Y-92239056D01*
X131784951Y-92247820D01*
X131909890Y-92419786D01*
X132060213Y-92570109D01*
X132232179Y-92695048D01*
X132232181Y-92695049D01*
X132232184Y-92695051D01*
X132421588Y-92791557D01*
X132623757Y-92857246D01*
X132833713Y-92890500D01*
X132833714Y-92890500D01*
X133046286Y-92890500D01*
X133046287Y-92890500D01*
X133256243Y-92857246D01*
X133458412Y-92791557D01*
X133647816Y-92695051D01*
X133746117Y-92623632D01*
X133819786Y-92570109D01*
X133819788Y-92570106D01*
X133819792Y-92570104D01*
X133970104Y-92419792D01*
X133970106Y-92419788D01*
X133970109Y-92419786D01*
X134095048Y-92247820D01*
X134095047Y-92247820D01*
X134095051Y-92247816D01*
X134099514Y-92239054D01*
X134147488Y-92188259D01*
X134215308Y-92171463D01*
X134281444Y-92193999D01*
X134320486Y-92239056D01*
X134324951Y-92247820D01*
X134449890Y-92419786D01*
X134600213Y-92570109D01*
X134772179Y-92695048D01*
X134772181Y-92695049D01*
X134772184Y-92695051D01*
X134961588Y-92791557D01*
X135163757Y-92857246D01*
X135373713Y-92890500D01*
X135373714Y-92890500D01*
X135586286Y-92890500D01*
X135586287Y-92890500D01*
X135796243Y-92857246D01*
X135998412Y-92791557D01*
X136187816Y-92695051D01*
X136286117Y-92623632D01*
X136359786Y-92570109D01*
X136359788Y-92570106D01*
X136359792Y-92570104D01*
X136510104Y-92419792D01*
X136510106Y-92419788D01*
X136510109Y-92419786D01*
X136635048Y-92247820D01*
X136635047Y-92247820D01*
X136635051Y-92247816D01*
X136639514Y-92239054D01*
X136687488Y-92188259D01*
X136755308Y-92171463D01*
X136821444Y-92193999D01*
X136860486Y-92239056D01*
X136864951Y-92247820D01*
X136989890Y-92419786D01*
X137140213Y-92570109D01*
X137312179Y-92695048D01*
X137312181Y-92695049D01*
X137312184Y-92695051D01*
X137501588Y-92791557D01*
X137703757Y-92857246D01*
X137913713Y-92890500D01*
X137913714Y-92890500D01*
X138126286Y-92890500D01*
X138126287Y-92890500D01*
X138336243Y-92857246D01*
X138538412Y-92791557D01*
X138727816Y-92695051D01*
X138826117Y-92623632D01*
X138899786Y-92570109D01*
X138899788Y-92570106D01*
X138899792Y-92570104D01*
X139050104Y-92419792D01*
X139050106Y-92419788D01*
X139050109Y-92419786D01*
X139175048Y-92247820D01*
X139175047Y-92247820D01*
X139175051Y-92247816D01*
X139179514Y-92239054D01*
X139227488Y-92188259D01*
X139295308Y-92171463D01*
X139361444Y-92193999D01*
X139400486Y-92239056D01*
X139404951Y-92247820D01*
X139529890Y-92419786D01*
X139680213Y-92570109D01*
X139852179Y-92695048D01*
X139852181Y-92695049D01*
X139852184Y-92695051D01*
X140041588Y-92791557D01*
X140243757Y-92857246D01*
X140453713Y-92890500D01*
X140453714Y-92890500D01*
X140666286Y-92890500D01*
X140666287Y-92890500D01*
X140876243Y-92857246D01*
X141078412Y-92791557D01*
X141267816Y-92695051D01*
X141366117Y-92623632D01*
X141439786Y-92570109D01*
X141439788Y-92570106D01*
X141439792Y-92570104D01*
X141590104Y-92419792D01*
X141590106Y-92419788D01*
X141590109Y-92419786D01*
X141715048Y-92247820D01*
X141715047Y-92247820D01*
X141715051Y-92247816D01*
X141719514Y-92239054D01*
X141767488Y-92188259D01*
X141835308Y-92171463D01*
X141901444Y-92193999D01*
X141940486Y-92239056D01*
X141944951Y-92247820D01*
X142069890Y-92419786D01*
X142220213Y-92570109D01*
X142392179Y-92695048D01*
X142392181Y-92695049D01*
X142392184Y-92695051D01*
X142581588Y-92791557D01*
X142783757Y-92857246D01*
X142993713Y-92890500D01*
X142993714Y-92890500D01*
X143206286Y-92890500D01*
X143206287Y-92890500D01*
X143416243Y-92857246D01*
X143618412Y-92791557D01*
X143807816Y-92695051D01*
X143906117Y-92623632D01*
X143979786Y-92570109D01*
X143979788Y-92570106D01*
X143979792Y-92570104D01*
X144130104Y-92419792D01*
X144130106Y-92419788D01*
X144130109Y-92419786D01*
X144255048Y-92247820D01*
X144255047Y-92247820D01*
X144255051Y-92247816D01*
X144259514Y-92239054D01*
X144307488Y-92188259D01*
X144375308Y-92171463D01*
X144441444Y-92193999D01*
X144480486Y-92239056D01*
X144484951Y-92247820D01*
X144609890Y-92419786D01*
X144760213Y-92570109D01*
X144932179Y-92695048D01*
X144932181Y-92695049D01*
X144932184Y-92695051D01*
X145121588Y-92791557D01*
X145323757Y-92857246D01*
X145533713Y-92890500D01*
X145533714Y-92890500D01*
X145746286Y-92890500D01*
X145746287Y-92890500D01*
X145956243Y-92857246D01*
X146158412Y-92791557D01*
X146347816Y-92695051D01*
X146446117Y-92623632D01*
X146519786Y-92570109D01*
X146519788Y-92570106D01*
X146519792Y-92570104D01*
X146670104Y-92419792D01*
X146670106Y-92419788D01*
X146670109Y-92419786D01*
X146795048Y-92247820D01*
X146795047Y-92247820D01*
X146795051Y-92247816D01*
X146799514Y-92239054D01*
X146847488Y-92188259D01*
X146915308Y-92171463D01*
X146981444Y-92193999D01*
X147020486Y-92239056D01*
X147024951Y-92247820D01*
X147149890Y-92419786D01*
X147300213Y-92570109D01*
X147472179Y-92695048D01*
X147472181Y-92695049D01*
X147472184Y-92695051D01*
X147661588Y-92791557D01*
X147863757Y-92857246D01*
X148073713Y-92890500D01*
X148073714Y-92890500D01*
X148286286Y-92890500D01*
X148286287Y-92890500D01*
X148496243Y-92857246D01*
X148698412Y-92791557D01*
X148887816Y-92695051D01*
X148986117Y-92623632D01*
X149059786Y-92570109D01*
X149059788Y-92570106D01*
X149059792Y-92570104D01*
X149210104Y-92419792D01*
X149210106Y-92419788D01*
X149210109Y-92419786D01*
X149335048Y-92247820D01*
X149335047Y-92247820D01*
X149335051Y-92247816D01*
X149339514Y-92239054D01*
X149387488Y-92188259D01*
X149455308Y-92171463D01*
X149521444Y-92193999D01*
X149560486Y-92239056D01*
X149564951Y-92247820D01*
X149689890Y-92419786D01*
X149840213Y-92570109D01*
X150012179Y-92695048D01*
X150012181Y-92695049D01*
X150012184Y-92695051D01*
X150201588Y-92791557D01*
X150403757Y-92857246D01*
X150613713Y-92890500D01*
X150613714Y-92890500D01*
X150826286Y-92890500D01*
X150826287Y-92890500D01*
X150956602Y-92869860D01*
X151025896Y-92878815D01*
X151079348Y-92923811D01*
X151099987Y-92990562D01*
X151100000Y-92992333D01*
X151100000Y-96200000D01*
X188875500Y-96200000D01*
X188942539Y-96219685D01*
X188988294Y-96272489D01*
X188999500Y-96324000D01*
X188999500Y-102375500D01*
X188979815Y-102442539D01*
X188927011Y-102488294D01*
X188875500Y-102499500D01*
X184434108Y-102499500D01*
X184306812Y-102533608D01*
X184192686Y-102599500D01*
X184192683Y-102599502D01*
X184099502Y-102692683D01*
X184099500Y-102692686D01*
X184033608Y-102806812D01*
X183999500Y-102934108D01*
X183999500Y-110434108D01*
X183999500Y-110565892D01*
X184010324Y-110606287D01*
X184033608Y-110693187D01*
X184037253Y-110699500D01*
X184099500Y-110807314D01*
X184192686Y-110900500D01*
X184306814Y-110966392D01*
X184434108Y-111000500D01*
X188875500Y-111000500D01*
X188942539Y-111020185D01*
X188988294Y-111072989D01*
X188999500Y-111124500D01*
X188999500Y-147995572D01*
X188999184Y-148004418D01*
X188999184Y-148004419D01*
X188984869Y-148204557D01*
X188982351Y-148222068D01*
X188940646Y-148413787D01*
X188935662Y-148430763D01*
X188867090Y-148614609D01*
X188859740Y-148630701D01*
X188765711Y-148802904D01*
X188756146Y-148817789D01*
X188638558Y-148974867D01*
X188626972Y-148988237D01*
X188488237Y-149126972D01*
X188474867Y-149138558D01*
X188317789Y-149256146D01*
X188302904Y-149265711D01*
X188130701Y-149359740D01*
X188114609Y-149367090D01*
X187930763Y-149435662D01*
X187913787Y-149440646D01*
X187722068Y-149482351D01*
X187704557Y-149484869D01*
X187523779Y-149497799D01*
X187504417Y-149499184D01*
X187495572Y-149499500D01*
X102004428Y-149499500D01*
X101995582Y-149499184D01*
X101973622Y-149497613D01*
X101795442Y-149484869D01*
X101777931Y-149482351D01*
X101586212Y-149440646D01*
X101569236Y-149435662D01*
X101385390Y-149367090D01*
X101369298Y-149359740D01*
X101197095Y-149265711D01*
X101182210Y-149256146D01*
X101025132Y-149138558D01*
X101011762Y-149126972D01*
X100873027Y-148988237D01*
X100861441Y-148974867D01*
X100743849Y-148817784D01*
X100734288Y-148802904D01*
X100640259Y-148630701D01*
X100632909Y-148614609D01*
X100624600Y-148592331D01*
X100564334Y-148430755D01*
X100559355Y-148413797D01*
X100517647Y-148222063D01*
X100515130Y-148204556D01*
X100511064Y-148147711D01*
X100500816Y-148004418D01*
X100500500Y-147995572D01*
X100500500Y-147393713D01*
X115299500Y-147393713D01*
X115299500Y-147606287D01*
X115301520Y-147619043D01*
X115331669Y-147809397D01*
X115332754Y-147816243D01*
X115393896Y-148004419D01*
X115398444Y-148018414D01*
X115494951Y-148207820D01*
X115619890Y-148379786D01*
X115770213Y-148530109D01*
X115942179Y-148655048D01*
X115942181Y-148655049D01*
X115942184Y-148655051D01*
X116131588Y-148751557D01*
X116333757Y-148817246D01*
X116543713Y-148850500D01*
X116543714Y-148850500D01*
X116756286Y-148850500D01*
X116756287Y-148850500D01*
X116966243Y-148817246D01*
X117168412Y-148751557D01*
X117357816Y-148655051D01*
X117444138Y-148592335D01*
X117529786Y-148530109D01*
X117529788Y-148530106D01*
X117529792Y-148530104D01*
X117680104Y-148379792D01*
X117680106Y-148379788D01*
X117680109Y-148379786D01*
X117805048Y-148207820D01*
X117805047Y-148207820D01*
X117805051Y-148207816D01*
X117809514Y-148199054D01*
X117857488Y-148148259D01*
X117925308Y-148131463D01*
X117991444Y-148153999D01*
X118030484Y-148199054D01*
X118034591Y-148207115D01*
X118034951Y-148207820D01*
X118159890Y-148379786D01*
X118310213Y-148530109D01*
X118482179Y-148655048D01*
X118482181Y-148655049D01*
X118482184Y-148655051D01*
X118671588Y-148751557D01*
X118873757Y-148817246D01*
X119083713Y-148850500D01*
X119083714Y-148850500D01*
X119296286Y-148850500D01*
X119296287Y-148850500D01*
X119506243Y-148817246D01*
X119708412Y-148751557D01*
X119897816Y-148655051D01*
X119984138Y-148592335D01*
X120069786Y-148530109D01*
X120069788Y-148530106D01*
X120069792Y-148530104D01*
X120220104Y-148379792D01*
X120220106Y-148379788D01*
X120220109Y-148379786D01*
X120345048Y-148207820D01*
X120345047Y-148207820D01*
X120345051Y-148207816D01*
X120349514Y-148199054D01*
X120397488Y-148148259D01*
X120465308Y-148131463D01*
X120531444Y-148153999D01*
X120570484Y-148199054D01*
X120574591Y-148207115D01*
X120574951Y-148207820D01*
X120699890Y-148379786D01*
X120850213Y-148530109D01*
X121022179Y-148655048D01*
X121022181Y-148655049D01*
X121022184Y-148655051D01*
X121211588Y-148751557D01*
X121413757Y-148817246D01*
X121623713Y-148850500D01*
X121623714Y-148850500D01*
X121836286Y-148850500D01*
X121836287Y-148850500D01*
X122046243Y-148817246D01*
X122248412Y-148751557D01*
X122437816Y-148655051D01*
X122524138Y-148592335D01*
X122609786Y-148530109D01*
X122609788Y-148530106D01*
X122609792Y-148530104D01*
X122760104Y-148379792D01*
X122760106Y-148379788D01*
X122760109Y-148379786D01*
X122885048Y-148207820D01*
X122885047Y-148207820D01*
X122885051Y-148207816D01*
X122889514Y-148199054D01*
X122937488Y-148148259D01*
X123005308Y-148131463D01*
X123071444Y-148153999D01*
X123110484Y-148199054D01*
X123114591Y-148207115D01*
X123114951Y-148207820D01*
X123239890Y-148379786D01*
X123390213Y-148530109D01*
X123562179Y-148655048D01*
X123562181Y-148655049D01*
X123562184Y-148655051D01*
X123751588Y-148751557D01*
X123953757Y-148817246D01*
X124163713Y-148850500D01*
X124163714Y-148850500D01*
X124376286Y-148850500D01*
X124376287Y-148850500D01*
X124586243Y-148817246D01*
X124788412Y-148751557D01*
X124977816Y-148655051D01*
X125064138Y-148592335D01*
X125149786Y-148530109D01*
X125149788Y-148530106D01*
X125149792Y-148530104D01*
X125300104Y-148379792D01*
X125300106Y-148379788D01*
X125300109Y-148379786D01*
X125367515Y-148287007D01*
X125425051Y-148207816D01*
X125429793Y-148198508D01*
X125477763Y-148147711D01*
X125545583Y-148130911D01*
X125611719Y-148153445D01*
X125650763Y-148198500D01*
X125655373Y-148207547D01*
X125694728Y-148261716D01*
X126327037Y-147629408D01*
X126344075Y-147692993D01*
X126409901Y-147807007D01*
X126502993Y-147900099D01*
X126617007Y-147965925D01*
X126680590Y-147982962D01*
X126048282Y-148615269D01*
X126048282Y-148615270D01*
X126102449Y-148654624D01*
X126291782Y-148751095D01*
X126493870Y-148816757D01*
X126703754Y-148850000D01*
X126916246Y-148850000D01*
X127126127Y-148816757D01*
X127126130Y-148816757D01*
X127328217Y-148751095D01*
X127517554Y-148654622D01*
X127571716Y-148615270D01*
X127571717Y-148615270D01*
X126939408Y-147982962D01*
X127002993Y-147965925D01*
X127117007Y-147900099D01*
X127210099Y-147807007D01*
X127275925Y-147692993D01*
X127292962Y-147629408D01*
X127963181Y-148299628D01*
X127996666Y-148360951D01*
X127999500Y-148387300D01*
X127999500Y-148397865D01*
X127999501Y-148397876D01*
X128005908Y-148457483D01*
X128056202Y-148592328D01*
X128056206Y-148592335D01*
X128142452Y-148707544D01*
X128142455Y-148707547D01*
X128257664Y-148793793D01*
X128257671Y-148793797D01*
X128392517Y-148844091D01*
X128392516Y-148844091D01*
X128399444Y-148844835D01*
X128452127Y-148850500D01*
X130247872Y-148850499D01*
X130307483Y-148844091D01*
X130442331Y-148793796D01*
X130557546Y-148707546D01*
X130643796Y-148592331D01*
X130694091Y-148457483D01*
X130700500Y-148397873D01*
X130700499Y-146611153D01*
X149409500Y-146611153D01*
X149409500Y-146768846D01*
X149440261Y-146923489D01*
X149440264Y-146923501D01*
X149500602Y-147069172D01*
X149500609Y-147069185D01*
X149588210Y-147200288D01*
X149588213Y-147200292D01*
X149699707Y-147311786D01*
X149699711Y-147311789D01*
X149830814Y-147399390D01*
X149830827Y-147399397D01*
X149959070Y-147452516D01*
X149976503Y-147459737D01*
X150131153Y-147490499D01*
X150131156Y-147490500D01*
X150131158Y-147490500D01*
X150288844Y-147490500D01*
X150288845Y-147490499D01*
X150443497Y-147459737D01*
X150589179Y-147399394D01*
X150720289Y-147311789D01*
X150831789Y-147200289D01*
X150919394Y-147069179D01*
X150979737Y-146923497D01*
X150980203Y-146921153D01*
X155699500Y-146921153D01*
X155699500Y-147078846D01*
X155730261Y-147233489D01*
X155730264Y-147233501D01*
X155790602Y-147379172D01*
X155790609Y-147379185D01*
X155878210Y-147510288D01*
X155878213Y-147510292D01*
X155989707Y-147621786D01*
X155989711Y-147621789D01*
X156120814Y-147709390D01*
X156120827Y-147709397D01*
X156266498Y-147769735D01*
X156266503Y-147769737D01*
X156421153Y-147800499D01*
X156421156Y-147800500D01*
X156421158Y-147800500D01*
X156578844Y-147800500D01*
X156578845Y-147800499D01*
X156733497Y-147769737D01*
X156879179Y-147709394D01*
X157010289Y-147621789D01*
X157025792Y-147606286D01*
X157062319Y-147569760D01*
X157123642Y-147536275D01*
X157193334Y-147541259D01*
X157237681Y-147569760D01*
X157289707Y-147621786D01*
X157289711Y-147621789D01*
X157420814Y-147709390D01*
X157420827Y-147709397D01*
X157566498Y-147769735D01*
X157566503Y-147769737D01*
X157721153Y-147800499D01*
X157721156Y-147800500D01*
X157721158Y-147800500D01*
X157878844Y-147800500D01*
X157878845Y-147800499D01*
X158033497Y-147769737D01*
X158179179Y-147709394D01*
X158310289Y-147621789D01*
X158312313Y-147619764D01*
X158313633Y-147619043D01*
X158314993Y-147617928D01*
X158315204Y-147618185D01*
X158373631Y-147586276D01*
X158443323Y-147591255D01*
X158487680Y-147619759D01*
X158589707Y-147721786D01*
X158589711Y-147721789D01*
X158720814Y-147809390D01*
X158720827Y-147809397D01*
X158827433Y-147853554D01*
X158866503Y-147869737D01*
X159019142Y-147900099D01*
X159021153Y-147900499D01*
X159021156Y-147900500D01*
X159021158Y-147900500D01*
X159178844Y-147900500D01*
X159178845Y-147900499D01*
X159333497Y-147869737D01*
X159479179Y-147809394D01*
X159610289Y-147721789D01*
X159721789Y-147610289D01*
X159745611Y-147574635D01*
X159799220Y-147529833D01*
X159868544Y-147521124D01*
X159917603Y-147540426D01*
X160020814Y-147609390D01*
X160020827Y-147609397D01*
X160166498Y-147669735D01*
X160166503Y-147669737D01*
X160321153Y-147700499D01*
X160321156Y-147700500D01*
X160321158Y-147700500D01*
X160478844Y-147700500D01*
X160478845Y-147700499D01*
X160633497Y-147669737D01*
X160754139Y-147619766D01*
X160779172Y-147609397D01*
X160779172Y-147609396D01*
X160779179Y-147609394D01*
X160910289Y-147521789D01*
X161021789Y-147410289D01*
X161109394Y-147279179D01*
X161169737Y-147133497D01*
X161200500Y-146978842D01*
X161200500Y-146821158D01*
X161200500Y-146821155D01*
X161200499Y-146821153D01*
X161190094Y-146768844D01*
X161169737Y-146666503D01*
X161146813Y-146611158D01*
X161109397Y-146520827D01*
X161109390Y-146520814D01*
X161021789Y-146389711D01*
X161021786Y-146389707D01*
X160910292Y-146278213D01*
X160910288Y-146278210D01*
X160779185Y-146190609D01*
X160779172Y-146190602D01*
X160633501Y-146130264D01*
X160633489Y-146130261D01*
X160478845Y-146099500D01*
X160478842Y-146099500D01*
X160321158Y-146099500D01*
X160321155Y-146099500D01*
X160166510Y-146130261D01*
X160166498Y-146130264D01*
X160020827Y-146190602D01*
X160020814Y-146190609D01*
X159889711Y-146278210D01*
X159889707Y-146278213D01*
X159778213Y-146389707D01*
X159778210Y-146389711D01*
X159754389Y-146425362D01*
X159700776Y-146470167D01*
X159631451Y-146478874D01*
X159582396Y-146459573D01*
X159479185Y-146390609D01*
X159479172Y-146390602D01*
X159333501Y-146330264D01*
X159333489Y-146330261D01*
X159178845Y-146299500D01*
X159178842Y-146299500D01*
X159021158Y-146299500D01*
X159021155Y-146299500D01*
X158866510Y-146330261D01*
X158866498Y-146330264D01*
X158720827Y-146390602D01*
X158720814Y-146390609D01*
X158589714Y-146478208D01*
X158589706Y-146478215D01*
X158587674Y-146480247D01*
X158586349Y-146480970D01*
X158585007Y-146482072D01*
X158584797Y-146481817D01*
X158526349Y-146513727D01*
X158456657Y-146508737D01*
X158412319Y-146480240D01*
X158310292Y-146378213D01*
X158310288Y-146378210D01*
X158179185Y-146290609D01*
X158179172Y-146290602D01*
X158033501Y-146230264D01*
X158033489Y-146230261D01*
X157878845Y-146199500D01*
X157878842Y-146199500D01*
X157721158Y-146199500D01*
X157721155Y-146199500D01*
X157566510Y-146230261D01*
X157566498Y-146230264D01*
X157420827Y-146290602D01*
X157420814Y-146290609D01*
X157289711Y-146378210D01*
X157289707Y-146378213D01*
X157237681Y-146430240D01*
X157176358Y-146463725D01*
X157106666Y-146458741D01*
X157062319Y-146430240D01*
X157010292Y-146378213D01*
X157010288Y-146378210D01*
X156879185Y-146290609D01*
X156879172Y-146290602D01*
X156733501Y-146230264D01*
X156733489Y-146230261D01*
X156578845Y-146199500D01*
X156578842Y-146199500D01*
X156421158Y-146199500D01*
X156421155Y-146199500D01*
X156266510Y-146230261D01*
X156266498Y-146230264D01*
X156120827Y-146290602D01*
X156120814Y-146290609D01*
X155989711Y-146378210D01*
X155989707Y-146378213D01*
X155878213Y-146489707D01*
X155878210Y-146489711D01*
X155790609Y-146620814D01*
X155790602Y-146620827D01*
X155730264Y-146766498D01*
X155730261Y-146766510D01*
X155699500Y-146921153D01*
X150980203Y-146921153D01*
X150986227Y-146890873D01*
X150986227Y-146890871D01*
X151010499Y-146768846D01*
X151010500Y-146768844D01*
X151010500Y-146611155D01*
X151010499Y-146611153D01*
X150996846Y-146542516D01*
X150979737Y-146456503D01*
X150959510Y-146407671D01*
X150919397Y-146310827D01*
X150919390Y-146310814D01*
X150831789Y-146179711D01*
X150831786Y-146179707D01*
X150720292Y-146068213D01*
X150720288Y-146068210D01*
X150589185Y-145980609D01*
X150589172Y-145980602D01*
X150443501Y-145920264D01*
X150443489Y-145920261D01*
X150288845Y-145889500D01*
X150288842Y-145889500D01*
X150131158Y-145889500D01*
X150131155Y-145889500D01*
X149976510Y-145920261D01*
X149976498Y-145920264D01*
X149830827Y-145980602D01*
X149830814Y-145980609D01*
X149699711Y-146068210D01*
X149699707Y-146068213D01*
X149588213Y-146179707D01*
X149588210Y-146179711D01*
X149500609Y-146310814D01*
X149500602Y-146310827D01*
X149440264Y-146456498D01*
X149440261Y-146456510D01*
X149409500Y-146611153D01*
X130700499Y-146611153D01*
X130700499Y-146602128D01*
X130694091Y-146542517D01*
X130686001Y-146520827D01*
X130643797Y-146407671D01*
X130643793Y-146407664D01*
X130557547Y-146292455D01*
X130557544Y-146292452D01*
X130442335Y-146206206D01*
X130442328Y-146206202D01*
X130307482Y-146155908D01*
X130307483Y-146155908D01*
X130247883Y-146149501D01*
X130247881Y-146149500D01*
X130247873Y-146149500D01*
X130247864Y-146149500D01*
X128452129Y-146149500D01*
X128452123Y-146149501D01*
X128392516Y-146155908D01*
X128257671Y-146206202D01*
X128257664Y-146206206D01*
X128142455Y-146292452D01*
X128142452Y-146292455D01*
X128056206Y-146407664D01*
X128056202Y-146407671D01*
X128005908Y-146542517D01*
X128001505Y-146583479D01*
X127999501Y-146602123D01*
X127999500Y-146602135D01*
X127999500Y-146612690D01*
X127979815Y-146679729D01*
X127963181Y-146700371D01*
X127292962Y-147370590D01*
X127275925Y-147307007D01*
X127210099Y-147192993D01*
X127117007Y-147099901D01*
X127002993Y-147034075D01*
X126939409Y-147017037D01*
X127571716Y-146384728D01*
X127517550Y-146345375D01*
X127328217Y-146248904D01*
X127126129Y-146183242D01*
X126916246Y-146150000D01*
X126703754Y-146150000D01*
X126493872Y-146183242D01*
X126493869Y-146183242D01*
X126291782Y-146248904D01*
X126102439Y-146345380D01*
X126048282Y-146384727D01*
X126048282Y-146384728D01*
X126680591Y-147017037D01*
X126617007Y-147034075D01*
X126502993Y-147099901D01*
X126409901Y-147192993D01*
X126344075Y-147307007D01*
X126327037Y-147370591D01*
X125694728Y-146738282D01*
X125694727Y-146738282D01*
X125655380Y-146792440D01*
X125655376Y-146792446D01*
X125650760Y-146801505D01*
X125602781Y-146852297D01*
X125534959Y-146869087D01*
X125468826Y-146846543D01*
X125429794Y-146801493D01*
X125425051Y-146792184D01*
X125425049Y-146792181D01*
X125425048Y-146792179D01*
X125300109Y-146620213D01*
X125149786Y-146469890D01*
X124977820Y-146344951D01*
X124788414Y-146248444D01*
X124788413Y-146248443D01*
X124788412Y-146248443D01*
X124586243Y-146182754D01*
X124586241Y-146182753D01*
X124586240Y-146182753D01*
X124424957Y-146157208D01*
X124376287Y-146149500D01*
X124163713Y-146149500D01*
X124115042Y-146157208D01*
X123953760Y-146182753D01*
X123751585Y-146248444D01*
X123562179Y-146344951D01*
X123390213Y-146469890D01*
X123239890Y-146620213D01*
X123114949Y-146792182D01*
X123110484Y-146800946D01*
X123062509Y-146851742D01*
X122994688Y-146868536D01*
X122928553Y-146845998D01*
X122889516Y-146800946D01*
X122885050Y-146792182D01*
X122760109Y-146620213D01*
X122609786Y-146469890D01*
X122437820Y-146344951D01*
X122248414Y-146248444D01*
X122248413Y-146248443D01*
X122248412Y-146248443D01*
X122046243Y-146182754D01*
X122046241Y-146182753D01*
X122046240Y-146182753D01*
X121884957Y-146157208D01*
X121836287Y-146149500D01*
X121623713Y-146149500D01*
X121575042Y-146157208D01*
X121413760Y-146182753D01*
X121211585Y-146248444D01*
X121022179Y-146344951D01*
X120850213Y-146469890D01*
X120699890Y-146620213D01*
X120574949Y-146792182D01*
X120570484Y-146800946D01*
X120522509Y-146851742D01*
X120454688Y-146868536D01*
X120388553Y-146845998D01*
X120349516Y-146800946D01*
X120345050Y-146792182D01*
X120220109Y-146620213D01*
X120069786Y-146469890D01*
X119897820Y-146344951D01*
X119708414Y-146248444D01*
X119708413Y-146248443D01*
X119708412Y-146248443D01*
X119506243Y-146182754D01*
X119506241Y-146182753D01*
X119506240Y-146182753D01*
X119344957Y-146157208D01*
X119296287Y-146149500D01*
X119083713Y-146149500D01*
X119035042Y-146157208D01*
X118873760Y-146182753D01*
X118671585Y-146248444D01*
X118482179Y-146344951D01*
X118310213Y-146469890D01*
X118159890Y-146620213D01*
X118034949Y-146792182D01*
X118030484Y-146800946D01*
X117982509Y-146851742D01*
X117914688Y-146868536D01*
X117848553Y-146845998D01*
X117809516Y-146800946D01*
X117805050Y-146792182D01*
X117680109Y-146620213D01*
X117529786Y-146469890D01*
X117357820Y-146344951D01*
X117168414Y-146248444D01*
X117168413Y-146248443D01*
X117168412Y-146248443D01*
X116966243Y-146182754D01*
X116966241Y-146182753D01*
X116966240Y-146182753D01*
X116804957Y-146157208D01*
X116756287Y-146149500D01*
X116543713Y-146149500D01*
X116495042Y-146157208D01*
X116333760Y-146182753D01*
X116131585Y-146248444D01*
X115942179Y-146344951D01*
X115770213Y-146469890D01*
X115619890Y-146620213D01*
X115494951Y-146792179D01*
X115398444Y-146981585D01*
X115332753Y-147183760D01*
X115301803Y-147379172D01*
X115299500Y-147393713D01*
X100500500Y-147393713D01*
X100500500Y-142641153D01*
X153219500Y-142641153D01*
X153219500Y-142798846D01*
X153250261Y-142953489D01*
X153250264Y-142953501D01*
X153310602Y-143099172D01*
X153310609Y-143099185D01*
X153398210Y-143230288D01*
X153398213Y-143230292D01*
X153509707Y-143341786D01*
X153509711Y-143341789D01*
X153640814Y-143429390D01*
X153640827Y-143429397D01*
X153786498Y-143489735D01*
X153786503Y-143489737D01*
X153941153Y-143520499D01*
X153941156Y-143520500D01*
X153941158Y-143520500D01*
X154098844Y-143520500D01*
X154098845Y-143520499D01*
X154253497Y-143489737D01*
X154399179Y-143429394D01*
X154530289Y-143341789D01*
X154641789Y-143230289D01*
X154729394Y-143099179D01*
X154789737Y-142953497D01*
X154820500Y-142798842D01*
X154820500Y-142641158D01*
X154820500Y-142641155D01*
X154820499Y-142641153D01*
X154789738Y-142486510D01*
X154789737Y-142486503D01*
X154789735Y-142486498D01*
X154729397Y-142340827D01*
X154729390Y-142340814D01*
X154641789Y-142209711D01*
X154641786Y-142209707D01*
X154530292Y-142098213D01*
X154530288Y-142098210D01*
X154399185Y-142010609D01*
X154399172Y-142010602D01*
X154253501Y-141950264D01*
X154253489Y-141950261D01*
X154098845Y-141919500D01*
X154098842Y-141919500D01*
X153941158Y-141919500D01*
X153941155Y-141919500D01*
X153786510Y-141950261D01*
X153786498Y-141950264D01*
X153640827Y-142010602D01*
X153640814Y-142010609D01*
X153509711Y-142098210D01*
X153509707Y-142098213D01*
X153398213Y-142209707D01*
X153398210Y-142209711D01*
X153310609Y-142340814D01*
X153310602Y-142340827D01*
X153250264Y-142486498D01*
X153250261Y-142486510D01*
X153219500Y-142641153D01*
X100500500Y-142641153D01*
X100500500Y-140405513D01*
X115509500Y-140405513D01*
X115509500Y-140594486D01*
X115539059Y-140781118D01*
X115597454Y-140960836D01*
X115683240Y-141129199D01*
X115794310Y-141282073D01*
X115927927Y-141415690D01*
X116080801Y-141526760D01*
X116160347Y-141567290D01*
X116249163Y-141612545D01*
X116249165Y-141612545D01*
X116249168Y-141612547D01*
X116345497Y-141643846D01*
X116428881Y-141670940D01*
X116615514Y-141700500D01*
X116615519Y-141700500D01*
X116804486Y-141700500D01*
X116991118Y-141670940D01*
X117170832Y-141612547D01*
X117339199Y-141526760D01*
X117492073Y-141415690D01*
X117625690Y-141282073D01*
X117736760Y-141129199D01*
X117822547Y-140960832D01*
X117862069Y-140839195D01*
X117901507Y-140781521D01*
X117965866Y-140754323D01*
X118034712Y-140766238D01*
X118086188Y-140813482D01*
X118097931Y-140839196D01*
X118137454Y-140960836D01*
X118223240Y-141129199D01*
X118334310Y-141282073D01*
X118467927Y-141415690D01*
X118620801Y-141526760D01*
X118700347Y-141567290D01*
X118789163Y-141612545D01*
X118789165Y-141612545D01*
X118789168Y-141612547D01*
X118885497Y-141643846D01*
X118968881Y-141670940D01*
X119155514Y-141700500D01*
X119155519Y-141700500D01*
X119344486Y-141700500D01*
X119531118Y-141670940D01*
X119710832Y-141612547D01*
X119879199Y-141526760D01*
X120032073Y-141415690D01*
X120165690Y-141282073D01*
X120276760Y-141129199D01*
X120362547Y-140960832D01*
X120420940Y-140781118D01*
X120425184Y-140754323D01*
X120450500Y-140594486D01*
X120450500Y-140405513D01*
X125549500Y-140405513D01*
X125549500Y-140594486D01*
X125579059Y-140781118D01*
X125637454Y-140960836D01*
X125723240Y-141129199D01*
X125834310Y-141282073D01*
X125967927Y-141415690D01*
X126120801Y-141526760D01*
X126200347Y-141567290D01*
X126289163Y-141612545D01*
X126289165Y-141612545D01*
X126289168Y-141612547D01*
X126385497Y-141643846D01*
X126468881Y-141670940D01*
X126655514Y-141700500D01*
X126655519Y-141700500D01*
X126844486Y-141700500D01*
X127031118Y-141670940D01*
X127210832Y-141612547D01*
X127379199Y-141526760D01*
X127532073Y-141415690D01*
X127665690Y-141282073D01*
X127776760Y-141129199D01*
X127862547Y-140960832D01*
X127902069Y-140839195D01*
X127941507Y-140781521D01*
X128005866Y-140754323D01*
X128074712Y-140766238D01*
X128126188Y-140813482D01*
X128137931Y-140839196D01*
X128177454Y-140960836D01*
X128263240Y-141129199D01*
X128374310Y-141282073D01*
X128507927Y-141415690D01*
X128660801Y-141526760D01*
X128740347Y-141567290D01*
X128829163Y-141612545D01*
X128829165Y-141612545D01*
X128829168Y-141612547D01*
X128925497Y-141643846D01*
X129008881Y-141670940D01*
X129195514Y-141700500D01*
X129195519Y-141700500D01*
X129384486Y-141700500D01*
X129571118Y-141670940D01*
X129750832Y-141612547D01*
X129919199Y-141526760D01*
X130072073Y-141415690D01*
X130205690Y-141282073D01*
X130316760Y-141129199D01*
X130402547Y-140960832D01*
X130460940Y-140781118D01*
X130465184Y-140754323D01*
X130490500Y-140594486D01*
X130490500Y-140405513D01*
X130460940Y-140218881D01*
X130402545Y-140039163D01*
X130316759Y-139870800D01*
X130205690Y-139717927D01*
X130072073Y-139584310D01*
X129919199Y-139473240D01*
X129750836Y-139387454D01*
X129571118Y-139329059D01*
X129384486Y-139299500D01*
X129384481Y-139299500D01*
X129195519Y-139299500D01*
X129195514Y-139299500D01*
X129008881Y-139329059D01*
X128829163Y-139387454D01*
X128660800Y-139473240D01*
X128573579Y-139536610D01*
X128507927Y-139584310D01*
X128507925Y-139584312D01*
X128507924Y-139584312D01*
X128374312Y-139717924D01*
X128374312Y-139717925D01*
X128374310Y-139717927D01*
X128326610Y-139783579D01*
X128263240Y-139870800D01*
X128177454Y-140039163D01*
X128137931Y-140160803D01*
X128098493Y-140218478D01*
X128034134Y-140245676D01*
X127965288Y-140233761D01*
X127913812Y-140186516D01*
X127902069Y-140160803D01*
X127862545Y-140039163D01*
X127776759Y-139870800D01*
X127665690Y-139717927D01*
X127532073Y-139584310D01*
X127379199Y-139473240D01*
X127210836Y-139387454D01*
X127031118Y-139329059D01*
X126844486Y-139299500D01*
X126844481Y-139299500D01*
X126655519Y-139299500D01*
X126655514Y-139299500D01*
X126468881Y-139329059D01*
X126289163Y-139387454D01*
X126120800Y-139473240D01*
X126033579Y-139536610D01*
X125967927Y-139584310D01*
X125967925Y-139584312D01*
X125967924Y-139584312D01*
X125834312Y-139717924D01*
X125834312Y-139717925D01*
X125834310Y-139717927D01*
X125786610Y-139783579D01*
X125723240Y-139870800D01*
X125637454Y-140039163D01*
X125579059Y-140218881D01*
X125549500Y-140405513D01*
X120450500Y-140405513D01*
X120420940Y-140218881D01*
X120362545Y-140039163D01*
X120276759Y-139870800D01*
X120165690Y-139717927D01*
X120032073Y-139584310D01*
X119879199Y-139473240D01*
X119710836Y-139387454D01*
X119531118Y-139329059D01*
X119344486Y-139299500D01*
X119344481Y-139299500D01*
X119155519Y-139299500D01*
X119155514Y-139299500D01*
X118968881Y-139329059D01*
X118789163Y-139387454D01*
X118620800Y-139473240D01*
X118533579Y-139536610D01*
X118467927Y-139584310D01*
X118467925Y-139584312D01*
X118467924Y-139584312D01*
X118334312Y-139717924D01*
X118334312Y-139717925D01*
X118334310Y-139717927D01*
X118286610Y-139783579D01*
X118223240Y-139870800D01*
X118137454Y-140039163D01*
X118097931Y-140160803D01*
X118058493Y-140218478D01*
X117994134Y-140245676D01*
X117925288Y-140233761D01*
X117873812Y-140186516D01*
X117862069Y-140160803D01*
X117822545Y-140039163D01*
X117736759Y-139870800D01*
X117625690Y-139717927D01*
X117492073Y-139584310D01*
X117339199Y-139473240D01*
X117170836Y-139387454D01*
X116991118Y-139329059D01*
X116804486Y-139299500D01*
X116804481Y-139299500D01*
X116615519Y-139299500D01*
X116615514Y-139299500D01*
X116428881Y-139329059D01*
X116249163Y-139387454D01*
X116080800Y-139473240D01*
X115993579Y-139536610D01*
X115927927Y-139584310D01*
X115927925Y-139584312D01*
X115927924Y-139584312D01*
X115794312Y-139717924D01*
X115794312Y-139717925D01*
X115794310Y-139717927D01*
X115746610Y-139783579D01*
X115683240Y-139870800D01*
X115597454Y-140039163D01*
X115539059Y-140218881D01*
X115509500Y-140405513D01*
X100500500Y-140405513D01*
X100500500Y-137021153D01*
X145799500Y-137021153D01*
X145799500Y-137178846D01*
X145830261Y-137333489D01*
X145830264Y-137333501D01*
X145890602Y-137479172D01*
X145890609Y-137479185D01*
X145978210Y-137610288D01*
X145978213Y-137610292D01*
X146089707Y-137721786D01*
X146089711Y-137721789D01*
X146220814Y-137809390D01*
X146220827Y-137809397D01*
X146366498Y-137869735D01*
X146366503Y-137869737D01*
X146521153Y-137900499D01*
X146521156Y-137900500D01*
X146521158Y-137900500D01*
X146678844Y-137900500D01*
X146678845Y-137900499D01*
X146833497Y-137869737D01*
X146979179Y-137809394D01*
X147110289Y-137721789D01*
X147221789Y-137610289D01*
X147309394Y-137479179D01*
X147369737Y-137333497D01*
X147400500Y-137178842D01*
X147400500Y-137021158D01*
X147400500Y-137021155D01*
X147400499Y-137021153D01*
X147369738Y-136866510D01*
X147369737Y-136866503D01*
X147369735Y-136866498D01*
X147309397Y-136720827D01*
X147309390Y-136720814D01*
X147221789Y-136589711D01*
X147221786Y-136589707D01*
X147110292Y-136478213D01*
X147110288Y-136478210D01*
X146979185Y-136390609D01*
X146979172Y-136390602D01*
X146833501Y-136330264D01*
X146833489Y-136330261D01*
X146678845Y-136299500D01*
X146678842Y-136299500D01*
X146521158Y-136299500D01*
X146521155Y-136299500D01*
X146366510Y-136330261D01*
X146366498Y-136330264D01*
X146220827Y-136390602D01*
X146220814Y-136390609D01*
X146089711Y-136478210D01*
X146089707Y-136478213D01*
X145978213Y-136589707D01*
X145978210Y-136589711D01*
X145890609Y-136720814D01*
X145890602Y-136720827D01*
X145830264Y-136866498D01*
X145830261Y-136866510D01*
X145799500Y-137021153D01*
X100500500Y-137021153D01*
X100500500Y-132321153D01*
X148799500Y-132321153D01*
X148799500Y-132478846D01*
X148830261Y-132633489D01*
X148830264Y-132633501D01*
X148890602Y-132779172D01*
X148890609Y-132779185D01*
X148978210Y-132910288D01*
X148978213Y-132910292D01*
X149089707Y-133021786D01*
X149089711Y-133021789D01*
X149220814Y-133109390D01*
X149220827Y-133109397D01*
X149296181Y-133140609D01*
X149366503Y-133169737D01*
X149516131Y-133199500D01*
X149521153Y-133200499D01*
X149521156Y-133200500D01*
X149521158Y-133200500D01*
X149678844Y-133200500D01*
X149678845Y-133200499D01*
X149833497Y-133169737D01*
X149979179Y-133109394D01*
X150110289Y-133021789D01*
X150110925Y-133021153D01*
X150187819Y-132944260D01*
X150249142Y-132910775D01*
X150318834Y-132915759D01*
X150374767Y-132957631D01*
X150399184Y-133023095D01*
X150399500Y-133031941D01*
X150399500Y-133178846D01*
X150430261Y-133333489D01*
X150430264Y-133333501D01*
X150490602Y-133479172D01*
X150490609Y-133479185D01*
X150578210Y-133610288D01*
X150578213Y-133610292D01*
X150689707Y-133721786D01*
X150689711Y-133721789D01*
X150820814Y-133809390D01*
X150820827Y-133809397D01*
X150966498Y-133869735D01*
X150966503Y-133869737D01*
X151114718Y-133899219D01*
X151121153Y-133900499D01*
X151121156Y-133900500D01*
X151121158Y-133900500D01*
X151278844Y-133900500D01*
X151278845Y-133900499D01*
X151433497Y-133869737D01*
X151579179Y-133809394D01*
X151710289Y-133721789D01*
X151710292Y-133721786D01*
X151737819Y-133694260D01*
X151799142Y-133660775D01*
X151868834Y-133665759D01*
X151924767Y-133707631D01*
X151949184Y-133773095D01*
X151949500Y-133781941D01*
X151949500Y-133928846D01*
X151980261Y-134083489D01*
X151980264Y-134083501D01*
X152040602Y-134229172D01*
X152040609Y-134229185D01*
X152128210Y-134360288D01*
X152128213Y-134360292D01*
X152239707Y-134471786D01*
X152239711Y-134471789D01*
X152370814Y-134559390D01*
X152370827Y-134559397D01*
X152516498Y-134619735D01*
X152516503Y-134619737D01*
X152637440Y-134643793D01*
X152671153Y-134650499D01*
X152671156Y-134650500D01*
X152671158Y-134650500D01*
X152828844Y-134650500D01*
X152828845Y-134650499D01*
X152983497Y-134619737D01*
X153129179Y-134559394D01*
X153260289Y-134471789D01*
X153371789Y-134360289D01*
X153459394Y-134229179D01*
X153519737Y-134083497D01*
X153550500Y-133928842D01*
X153550500Y-133921153D01*
X154499500Y-133921153D01*
X154499500Y-134078846D01*
X154530261Y-134233489D01*
X154530264Y-134233501D01*
X154590602Y-134379172D01*
X154590609Y-134379185D01*
X154678210Y-134510288D01*
X154678213Y-134510292D01*
X154789707Y-134621786D01*
X154789711Y-134621789D01*
X154920814Y-134709390D01*
X154920827Y-134709397D01*
X155066498Y-134769735D01*
X155066503Y-134769737D01*
X155221153Y-134800499D01*
X155221156Y-134800500D01*
X155221158Y-134800500D01*
X155378844Y-134800500D01*
X155378845Y-134800499D01*
X155533497Y-134769737D01*
X155679179Y-134709394D01*
X155810289Y-134621789D01*
X155812313Y-134619764D01*
X155813633Y-134619043D01*
X155814993Y-134617928D01*
X155815204Y-134618185D01*
X155873631Y-134586276D01*
X155943323Y-134591255D01*
X155987680Y-134619759D01*
X156089707Y-134721786D01*
X156089711Y-134721789D01*
X156220814Y-134809390D01*
X156220827Y-134809397D01*
X156366498Y-134869735D01*
X156366503Y-134869737D01*
X156521153Y-134900499D01*
X156521156Y-134900500D01*
X156521158Y-134900500D01*
X156678844Y-134900500D01*
X156678845Y-134900499D01*
X156833497Y-134869737D01*
X156979179Y-134809394D01*
X157110289Y-134721789D01*
X157170144Y-134661933D01*
X157231463Y-134628450D01*
X157301155Y-134633434D01*
X157326714Y-134646514D01*
X157420814Y-134709390D01*
X157420827Y-134709397D01*
X157566498Y-134769735D01*
X157566503Y-134769737D01*
X157721153Y-134800499D01*
X157721156Y-134800500D01*
X157721158Y-134800500D01*
X157878844Y-134800500D01*
X157878845Y-134800499D01*
X158033497Y-134769737D01*
X158179179Y-134709394D01*
X158310289Y-134621789D01*
X158412320Y-134519757D01*
X158473641Y-134486274D01*
X158543333Y-134491258D01*
X158584939Y-134517999D01*
X158585001Y-134517924D01*
X158585647Y-134518454D01*
X158587688Y-134519766D01*
X158589711Y-134521789D01*
X158720814Y-134609390D01*
X158720827Y-134609397D01*
X158863461Y-134668477D01*
X158866503Y-134669737D01*
X158988938Y-134694091D01*
X159021153Y-134700499D01*
X159021156Y-134700500D01*
X159021158Y-134700500D01*
X159178844Y-134700500D01*
X159178845Y-134700499D01*
X159333497Y-134669737D01*
X159454139Y-134619766D01*
X159479172Y-134609397D01*
X159479172Y-134609396D01*
X159479179Y-134609394D01*
X159610289Y-134521789D01*
X159612312Y-134519766D01*
X159613634Y-134519043D01*
X159614999Y-134517924D01*
X159615211Y-134518182D01*
X159673632Y-134486276D01*
X159743324Y-134491255D01*
X159784939Y-134517999D01*
X159785001Y-134517924D01*
X159785648Y-134518454D01*
X159787688Y-134519766D01*
X159789711Y-134521789D01*
X159920814Y-134609390D01*
X159920827Y-134609397D01*
X160063461Y-134668477D01*
X160066503Y-134669737D01*
X160188938Y-134694091D01*
X160221153Y-134700499D01*
X160221156Y-134700500D01*
X160221158Y-134700500D01*
X160378844Y-134700500D01*
X160378845Y-134700499D01*
X160533497Y-134669737D01*
X160654139Y-134619766D01*
X160679172Y-134609397D01*
X160679172Y-134609396D01*
X160679179Y-134609394D01*
X160810289Y-134521789D01*
X160921789Y-134410289D01*
X161009394Y-134279179D01*
X161069737Y-134133497D01*
X161100500Y-133978842D01*
X161100500Y-133821158D01*
X161100500Y-133821155D01*
X161100499Y-133821153D01*
X161092699Y-133781941D01*
X161069737Y-133666503D01*
X161050812Y-133620814D01*
X161009397Y-133520827D01*
X161009390Y-133520814D01*
X160921789Y-133389711D01*
X160921786Y-133389707D01*
X160810292Y-133278213D01*
X160810288Y-133278210D01*
X160679185Y-133190609D01*
X160679172Y-133190602D01*
X160533501Y-133130264D01*
X160533489Y-133130261D01*
X160378845Y-133099500D01*
X160378842Y-133099500D01*
X160221158Y-133099500D01*
X160221155Y-133099500D01*
X160066510Y-133130261D01*
X160066498Y-133130264D01*
X159920827Y-133190602D01*
X159920814Y-133190609D01*
X159789711Y-133278210D01*
X159789707Y-133278213D01*
X159787681Y-133280240D01*
X159786357Y-133280962D01*
X159785001Y-133282076D01*
X159784789Y-133281818D01*
X159726358Y-133313725D01*
X159656666Y-133308741D01*
X159615060Y-133282001D01*
X159614999Y-133282076D01*
X159614360Y-133281552D01*
X159612319Y-133280240D01*
X159610292Y-133278213D01*
X159610288Y-133278210D01*
X159479185Y-133190609D01*
X159479172Y-133190602D01*
X159333501Y-133130264D01*
X159333489Y-133130261D01*
X159178845Y-133099500D01*
X159178842Y-133099500D01*
X159021158Y-133099500D01*
X159021155Y-133099500D01*
X158866510Y-133130261D01*
X158866498Y-133130264D01*
X158720827Y-133190602D01*
X158720814Y-133190609D01*
X158589711Y-133278210D01*
X158487680Y-133380241D01*
X158426357Y-133413725D01*
X158356665Y-133408741D01*
X158315060Y-133382000D01*
X158314999Y-133382076D01*
X158314350Y-133381544D01*
X158312311Y-133380233D01*
X158310288Y-133378210D01*
X158179185Y-133290609D01*
X158179172Y-133290602D01*
X158033501Y-133230264D01*
X158033489Y-133230261D01*
X157878845Y-133199500D01*
X157878842Y-133199500D01*
X157721158Y-133199500D01*
X157721155Y-133199500D01*
X157566510Y-133230261D01*
X157566498Y-133230264D01*
X157420827Y-133290602D01*
X157420814Y-133290609D01*
X157289711Y-133378210D01*
X157289707Y-133378213D01*
X157229857Y-133438064D01*
X157168534Y-133471549D01*
X157098842Y-133466565D01*
X157073285Y-133453485D01*
X156979185Y-133390609D01*
X156979172Y-133390602D01*
X156833501Y-133330264D01*
X156833489Y-133330261D01*
X156678845Y-133299500D01*
X156678842Y-133299500D01*
X156521158Y-133299500D01*
X156521155Y-133299500D01*
X156366510Y-133330261D01*
X156366498Y-133330264D01*
X156220827Y-133390602D01*
X156220814Y-133390609D01*
X156089714Y-133478208D01*
X156089706Y-133478215D01*
X156087674Y-133480247D01*
X156086349Y-133480970D01*
X156085007Y-133482072D01*
X156084797Y-133481817D01*
X156026349Y-133513727D01*
X155956657Y-133508737D01*
X155912319Y-133480240D01*
X155810292Y-133378213D01*
X155810288Y-133378210D01*
X155679185Y-133290609D01*
X155679172Y-133290602D01*
X155533501Y-133230264D01*
X155533489Y-133230261D01*
X155378845Y-133199500D01*
X155378842Y-133199500D01*
X155221158Y-133199500D01*
X155221155Y-133199500D01*
X155066510Y-133230261D01*
X155066498Y-133230264D01*
X154920827Y-133290602D01*
X154920814Y-133290609D01*
X154789711Y-133378210D01*
X154789707Y-133378213D01*
X154678213Y-133489707D01*
X154678210Y-133489711D01*
X154590609Y-133620814D01*
X154590602Y-133620827D01*
X154530264Y-133766498D01*
X154530261Y-133766510D01*
X154499500Y-133921153D01*
X153550500Y-133921153D01*
X153550500Y-133771158D01*
X153550500Y-133771155D01*
X153550499Y-133771153D01*
X153540679Y-133721786D01*
X153519737Y-133616503D01*
X153477166Y-133513727D01*
X153459397Y-133470827D01*
X153459390Y-133470814D01*
X153371789Y-133339711D01*
X153371786Y-133339707D01*
X153260292Y-133228213D01*
X153260288Y-133228210D01*
X153129185Y-133140609D01*
X153129172Y-133140602D01*
X152983501Y-133080264D01*
X152983489Y-133080261D01*
X152828845Y-133049500D01*
X152828842Y-133049500D01*
X152671158Y-133049500D01*
X152671155Y-133049500D01*
X152516510Y-133080261D01*
X152516498Y-133080264D01*
X152370827Y-133140602D01*
X152370814Y-133140609D01*
X152239711Y-133228210D01*
X152239707Y-133228213D01*
X152212181Y-133255740D01*
X152150858Y-133289225D01*
X152081166Y-133284241D01*
X152025233Y-133242369D01*
X152000816Y-133176905D01*
X152000500Y-133168059D01*
X152000500Y-133021155D01*
X152000499Y-133021153D01*
X151969737Y-132866503D01*
X151933569Y-132779185D01*
X151909397Y-132720827D01*
X151909390Y-132720814D01*
X151821789Y-132589711D01*
X151821786Y-132589707D01*
X151710292Y-132478213D01*
X151710288Y-132478210D01*
X151579185Y-132390609D01*
X151579172Y-132390602D01*
X151433501Y-132330264D01*
X151433489Y-132330261D01*
X151278845Y-132299500D01*
X151278842Y-132299500D01*
X151121158Y-132299500D01*
X151121155Y-132299500D01*
X150966510Y-132330261D01*
X150966498Y-132330264D01*
X150820827Y-132390602D01*
X150820814Y-132390609D01*
X150689711Y-132478210D01*
X150689707Y-132478213D01*
X150612181Y-132555740D01*
X150550858Y-132589225D01*
X150481166Y-132584241D01*
X150425233Y-132542369D01*
X150400816Y-132476905D01*
X150400500Y-132468059D01*
X150400500Y-132321155D01*
X150371029Y-132172998D01*
X150371028Y-132172995D01*
X150369737Y-132166503D01*
X150363786Y-132152135D01*
X163099500Y-132152135D01*
X163099500Y-134247870D01*
X163099501Y-134247876D01*
X163105908Y-134307483D01*
X163156202Y-134442328D01*
X163156206Y-134442335D01*
X163242452Y-134557544D01*
X163242455Y-134557547D01*
X163357664Y-134643793D01*
X163357671Y-134643797D01*
X163492517Y-134694091D01*
X163492516Y-134694091D01*
X163499444Y-134694835D01*
X163552127Y-134700500D01*
X165247872Y-134700499D01*
X165307483Y-134694091D01*
X165442331Y-134643796D01*
X165557546Y-134557546D01*
X165643796Y-134442331D01*
X165694091Y-134307483D01*
X165700500Y-134247873D01*
X165700499Y-132897648D01*
X183599500Y-132897648D01*
X183599500Y-133502351D01*
X183631522Y-133704534D01*
X183694781Y-133899223D01*
X183787715Y-134081613D01*
X183908028Y-134247213D01*
X184052786Y-134391971D01*
X184189446Y-134491258D01*
X184218390Y-134512287D01*
X184334607Y-134571503D01*
X184400776Y-134605218D01*
X184400778Y-134605218D01*
X184400781Y-134605220D01*
X184472276Y-134628450D01*
X184595465Y-134668477D01*
X184696557Y-134684488D01*
X184797648Y-134700500D01*
X184797649Y-134700500D01*
X185002351Y-134700500D01*
X185002352Y-134700500D01*
X185204534Y-134668477D01*
X185399219Y-134605220D01*
X185581610Y-134512287D01*
X185692009Y-134432078D01*
X185747213Y-134391971D01*
X185747215Y-134391968D01*
X185747219Y-134391966D01*
X185891966Y-134247219D01*
X185891968Y-134247215D01*
X185891971Y-134247213D01*
X185974595Y-134133489D01*
X186012287Y-134081610D01*
X186105220Y-133899219D01*
X186168477Y-133704534D01*
X186200500Y-133502352D01*
X186200500Y-132897648D01*
X186168477Y-132695466D01*
X186148339Y-132633489D01*
X186105218Y-132500776D01*
X186049081Y-132390602D01*
X186012287Y-132318390D01*
X185998563Y-132299500D01*
X185891971Y-132152786D01*
X185747213Y-132008028D01*
X185581613Y-131887715D01*
X185581612Y-131887714D01*
X185581610Y-131887713D01*
X185524653Y-131858691D01*
X185399223Y-131794781D01*
X185204534Y-131731522D01*
X185029995Y-131703878D01*
X185002352Y-131699500D01*
X184797648Y-131699500D01*
X184773329Y-131703351D01*
X184595465Y-131731522D01*
X184400776Y-131794781D01*
X184218386Y-131887715D01*
X184052786Y-132008028D01*
X183908028Y-132152786D01*
X183787715Y-132318386D01*
X183694781Y-132500776D01*
X183631522Y-132695465D01*
X183599500Y-132897648D01*
X165700499Y-132897648D01*
X165700499Y-132152128D01*
X165694091Y-132092517D01*
X165667352Y-132020827D01*
X165643797Y-131957671D01*
X165643793Y-131957664D01*
X165557547Y-131842455D01*
X165557544Y-131842452D01*
X165442335Y-131756206D01*
X165442328Y-131756202D01*
X165307482Y-131705908D01*
X165307483Y-131705908D01*
X165247883Y-131699501D01*
X165247881Y-131699500D01*
X165247873Y-131699500D01*
X165247864Y-131699500D01*
X163552129Y-131699500D01*
X163552123Y-131699501D01*
X163492516Y-131705908D01*
X163357671Y-131756202D01*
X163357664Y-131756206D01*
X163242455Y-131842452D01*
X163242452Y-131842455D01*
X163156206Y-131957664D01*
X163156202Y-131957671D01*
X163105908Y-132092517D01*
X163099501Y-132152116D01*
X163099501Y-132152123D01*
X163099500Y-132152135D01*
X150363786Y-132152135D01*
X150363778Y-132152116D01*
X150309397Y-132020827D01*
X150309390Y-132020814D01*
X150221789Y-131889711D01*
X150221786Y-131889707D01*
X150110292Y-131778213D01*
X150110288Y-131778210D01*
X149979185Y-131690609D01*
X149979172Y-131690602D01*
X149833501Y-131630264D01*
X149833489Y-131630261D01*
X149678845Y-131599500D01*
X149678842Y-131599500D01*
X149521158Y-131599500D01*
X149521155Y-131599500D01*
X149366510Y-131630261D01*
X149366498Y-131630264D01*
X149220827Y-131690602D01*
X149220814Y-131690609D01*
X149089711Y-131778210D01*
X149089707Y-131778213D01*
X148978213Y-131889707D01*
X148978210Y-131889711D01*
X148890609Y-132020814D01*
X148890602Y-132020827D01*
X148830264Y-132166498D01*
X148830261Y-132166510D01*
X148799500Y-132321153D01*
X100500500Y-132321153D01*
X100500500Y-130421153D01*
X136299500Y-130421153D01*
X136299500Y-130578846D01*
X136330261Y-130733489D01*
X136330264Y-130733501D01*
X136390602Y-130879172D01*
X136390609Y-130879185D01*
X136478210Y-131010288D01*
X136478213Y-131010292D01*
X136589707Y-131121786D01*
X136589711Y-131121789D01*
X136720814Y-131209390D01*
X136720827Y-131209397D01*
X136866498Y-131269735D01*
X136866503Y-131269737D01*
X137021153Y-131300499D01*
X137021156Y-131300500D01*
X137021158Y-131300500D01*
X137178844Y-131300500D01*
X137178845Y-131300499D01*
X137333497Y-131269737D01*
X137479179Y-131209394D01*
X137610289Y-131121789D01*
X137721789Y-131010289D01*
X137809394Y-130879179D01*
X137869737Y-130733497D01*
X137900500Y-130578842D01*
X137900500Y-130421158D01*
X137900500Y-130421155D01*
X137900499Y-130421153D01*
X137893100Y-130383957D01*
X137869737Y-130266503D01*
X137869735Y-130266498D01*
X137826666Y-130162518D01*
X137809532Y-130121153D01*
X145199500Y-130121153D01*
X145199500Y-130278846D01*
X145230261Y-130433489D01*
X145230264Y-130433501D01*
X145290602Y-130579172D01*
X145290609Y-130579185D01*
X145378210Y-130710288D01*
X145378213Y-130710292D01*
X145489707Y-130821786D01*
X145489711Y-130821789D01*
X145620814Y-130909390D01*
X145620827Y-130909397D01*
X145737875Y-130957879D01*
X145766503Y-130969737D01*
X145921153Y-131000499D01*
X145921156Y-131000500D01*
X145921158Y-131000500D01*
X146078844Y-131000500D01*
X146078845Y-131000499D01*
X146233497Y-130969737D01*
X146379179Y-130909394D01*
X146379184Y-130909390D01*
X146379187Y-130909389D01*
X146424712Y-130878970D01*
X146491389Y-130858091D01*
X146558770Y-130876575D01*
X146605460Y-130928553D01*
X146615221Y-130957879D01*
X146630261Y-131033491D01*
X146630264Y-131033501D01*
X146690602Y-131179172D01*
X146690609Y-131179185D01*
X146778210Y-131310288D01*
X146778213Y-131310292D01*
X146889707Y-131421786D01*
X146889711Y-131421789D01*
X147020814Y-131509390D01*
X147020827Y-131509397D01*
X147166498Y-131569735D01*
X147166503Y-131569737D01*
X147316131Y-131599500D01*
X147321153Y-131600499D01*
X147321156Y-131600500D01*
X147321158Y-131600500D01*
X147478844Y-131600500D01*
X147478845Y-131600499D01*
X147633497Y-131569737D01*
X147779179Y-131509394D01*
X147910289Y-131421789D01*
X148021789Y-131310289D01*
X148109394Y-131179179D01*
X148169737Y-131033497D01*
X148200500Y-130878842D01*
X148200500Y-130721158D01*
X148200500Y-130721155D01*
X148200499Y-130721153D01*
X148183061Y-130633489D01*
X148169737Y-130566503D01*
X148133427Y-130478842D01*
X148109397Y-130420827D01*
X148109390Y-130420814D01*
X148084763Y-130383957D01*
X148042798Y-130321153D01*
X157999500Y-130321153D01*
X157999500Y-130478846D01*
X158030261Y-130633489D01*
X158030264Y-130633501D01*
X158090602Y-130779172D01*
X158090609Y-130779185D01*
X158178210Y-130910288D01*
X158178213Y-130910292D01*
X158289707Y-131021786D01*
X158289711Y-131021789D01*
X158420814Y-131109390D01*
X158420827Y-131109397D01*
X158566498Y-131169735D01*
X158566503Y-131169737D01*
X158721153Y-131200499D01*
X158721156Y-131200500D01*
X158721158Y-131200500D01*
X158878844Y-131200500D01*
X158878845Y-131200499D01*
X159033497Y-131169737D01*
X159179179Y-131109394D01*
X159310289Y-131021789D01*
X159421789Y-130910289D01*
X159509394Y-130779179D01*
X159569737Y-130633497D01*
X159600500Y-130478842D01*
X159600500Y-130321158D01*
X159600500Y-130321155D01*
X159600499Y-130321153D01*
X159594244Y-130289707D01*
X159569737Y-130166503D01*
X159568086Y-130162518D01*
X159509397Y-130020827D01*
X159509390Y-130020814D01*
X159421789Y-129889711D01*
X159421786Y-129889707D01*
X159310292Y-129778213D01*
X159310288Y-129778210D01*
X159179185Y-129690609D01*
X159179172Y-129690602D01*
X159033501Y-129630264D01*
X159033489Y-129630261D01*
X158878845Y-129599500D01*
X158878842Y-129599500D01*
X158721158Y-129599500D01*
X158721155Y-129599500D01*
X158566510Y-129630261D01*
X158566498Y-129630264D01*
X158420827Y-129690602D01*
X158420814Y-129690609D01*
X158289711Y-129778210D01*
X158289707Y-129778213D01*
X158178213Y-129889707D01*
X158178210Y-129889711D01*
X158090609Y-130020814D01*
X158090602Y-130020827D01*
X158030264Y-130166498D01*
X158030261Y-130166510D01*
X157999500Y-130321153D01*
X148042798Y-130321153D01*
X148021789Y-130289711D01*
X148021786Y-130289707D01*
X147910292Y-130178213D01*
X147910288Y-130178210D01*
X147779185Y-130090609D01*
X147779172Y-130090602D01*
X147633501Y-130030264D01*
X147633489Y-130030261D01*
X147478845Y-129999500D01*
X147478842Y-129999500D01*
X147321158Y-129999500D01*
X147321155Y-129999500D01*
X147166510Y-130030261D01*
X147166498Y-130030264D01*
X147020827Y-130090602D01*
X147020816Y-130090608D01*
X146975285Y-130121031D01*
X146908607Y-130141908D01*
X146841227Y-130123423D01*
X146794537Y-130071443D01*
X146784779Y-130042126D01*
X146769737Y-129966503D01*
X146737929Y-129889711D01*
X146709397Y-129820827D01*
X146709390Y-129820814D01*
X146621789Y-129689711D01*
X146621786Y-129689707D01*
X146510292Y-129578213D01*
X146510288Y-129578210D01*
X146379185Y-129490609D01*
X146379172Y-129490602D01*
X146233501Y-129430264D01*
X146233489Y-129430261D01*
X146078845Y-129399500D01*
X146078842Y-129399500D01*
X145921158Y-129399500D01*
X145921155Y-129399500D01*
X145766510Y-129430261D01*
X145766498Y-129430264D01*
X145620827Y-129490602D01*
X145620814Y-129490609D01*
X145489711Y-129578210D01*
X145489707Y-129578213D01*
X145378213Y-129689707D01*
X145378210Y-129689711D01*
X145290609Y-129820814D01*
X145290602Y-129820827D01*
X145230264Y-129966498D01*
X145230261Y-129966510D01*
X145199500Y-130121153D01*
X137809532Y-130121153D01*
X137809395Y-130120823D01*
X137809390Y-130120814D01*
X137721789Y-129989711D01*
X137721786Y-129989707D01*
X137610292Y-129878213D01*
X137610288Y-129878210D01*
X137479185Y-129790609D01*
X137479172Y-129790602D01*
X137333501Y-129730264D01*
X137333489Y-129730261D01*
X137178845Y-129699500D01*
X137178842Y-129699500D01*
X137021158Y-129699500D01*
X137021155Y-129699500D01*
X136866510Y-129730261D01*
X136866498Y-129730264D01*
X136720827Y-129790602D01*
X136720814Y-129790609D01*
X136589711Y-129878210D01*
X136589707Y-129878213D01*
X136478213Y-129989707D01*
X136478210Y-129989711D01*
X136390609Y-130120814D01*
X136390602Y-130120827D01*
X136330264Y-130266498D01*
X136330261Y-130266510D01*
X136299500Y-130421153D01*
X100500500Y-130421153D01*
X100500500Y-126821153D01*
X122199500Y-126821153D01*
X122199500Y-126978846D01*
X122230261Y-127133489D01*
X122230264Y-127133501D01*
X122290602Y-127279172D01*
X122290609Y-127279185D01*
X122378210Y-127410288D01*
X122378213Y-127410292D01*
X122489707Y-127521786D01*
X122489711Y-127521789D01*
X122620814Y-127609390D01*
X122620827Y-127609397D01*
X122766498Y-127669735D01*
X122766503Y-127669737D01*
X122921153Y-127700499D01*
X122921156Y-127700500D01*
X122921158Y-127700500D01*
X123078844Y-127700500D01*
X123078845Y-127700499D01*
X123233497Y-127669737D01*
X123379179Y-127609394D01*
X123510289Y-127521789D01*
X123621789Y-127410289D01*
X123709394Y-127279179D01*
X123769737Y-127133497D01*
X123800500Y-126978842D01*
X123800500Y-126821158D01*
X123800500Y-126821155D01*
X123800499Y-126821153D01*
X123769738Y-126666510D01*
X123769737Y-126666503D01*
X123741711Y-126598842D01*
X123709397Y-126520827D01*
X123709390Y-126520814D01*
X123621790Y-126389712D01*
X123621784Y-126389705D01*
X123553232Y-126321153D01*
X142699500Y-126321153D01*
X142699500Y-126478846D01*
X142730261Y-126633489D01*
X142730264Y-126633501D01*
X142790602Y-126779172D01*
X142790609Y-126779185D01*
X142878210Y-126910288D01*
X142878213Y-126910292D01*
X142989707Y-127021786D01*
X142989711Y-127021789D01*
X143120814Y-127109390D01*
X143120827Y-127109397D01*
X143266498Y-127169735D01*
X143266503Y-127169737D01*
X143421153Y-127200499D01*
X143421156Y-127200500D01*
X143421158Y-127200500D01*
X143578844Y-127200500D01*
X143578845Y-127200499D01*
X143733497Y-127169737D01*
X143879179Y-127109394D01*
X144010289Y-127021789D01*
X144121789Y-126910289D01*
X144209394Y-126779179D01*
X144269737Y-126633497D01*
X144300500Y-126478842D01*
X144300500Y-126441153D01*
X152879500Y-126441153D01*
X152879500Y-126598846D01*
X152910261Y-126753489D01*
X152910264Y-126753501D01*
X152970602Y-126899172D01*
X152970609Y-126899185D01*
X153058210Y-127030288D01*
X153058213Y-127030292D01*
X153169707Y-127141786D01*
X153169711Y-127141789D01*
X153300814Y-127229390D01*
X153300827Y-127229397D01*
X153421028Y-127279185D01*
X153446503Y-127289737D01*
X153601153Y-127320499D01*
X153601156Y-127320500D01*
X153601158Y-127320500D01*
X153758844Y-127320500D01*
X153758845Y-127320499D01*
X153913497Y-127289737D01*
X154059179Y-127229394D01*
X154190289Y-127141789D01*
X154301789Y-127030289D01*
X154389394Y-126899179D01*
X154449737Y-126753497D01*
X154480500Y-126598842D01*
X154480500Y-126441158D01*
X154480500Y-126441155D01*
X154480499Y-126441153D01*
X154456630Y-126321158D01*
X154449737Y-126286503D01*
X154410017Y-126190609D01*
X154389397Y-126140827D01*
X154389390Y-126140814D01*
X154301789Y-126009711D01*
X154301786Y-126009707D01*
X154190292Y-125898213D01*
X154190288Y-125898210D01*
X154059185Y-125810609D01*
X154059172Y-125810602D01*
X153913501Y-125750264D01*
X153913489Y-125750261D01*
X153758845Y-125719500D01*
X153758842Y-125719500D01*
X153601158Y-125719500D01*
X153601155Y-125719500D01*
X153446510Y-125750261D01*
X153446498Y-125750264D01*
X153300827Y-125810602D01*
X153300814Y-125810609D01*
X153169711Y-125898210D01*
X153169707Y-125898213D01*
X153058213Y-126009707D01*
X153058210Y-126009711D01*
X152970609Y-126140814D01*
X152970602Y-126140827D01*
X152910264Y-126286498D01*
X152910261Y-126286510D01*
X152879500Y-126441153D01*
X144300500Y-126441153D01*
X144300500Y-126321158D01*
X144300500Y-126321155D01*
X144300499Y-126321153D01*
X144274531Y-126190606D01*
X144269737Y-126166503D01*
X144259096Y-126140814D01*
X144209397Y-126020827D01*
X144209390Y-126020814D01*
X144121789Y-125889711D01*
X144121786Y-125889707D01*
X144010292Y-125778213D01*
X144010288Y-125778210D01*
X143879185Y-125690609D01*
X143879172Y-125690602D01*
X143733501Y-125630264D01*
X143733489Y-125630261D01*
X143578845Y-125599500D01*
X143578842Y-125599500D01*
X143421158Y-125599500D01*
X143421155Y-125599500D01*
X143266510Y-125630261D01*
X143266498Y-125630264D01*
X143120827Y-125690602D01*
X143120814Y-125690609D01*
X142989711Y-125778210D01*
X142989707Y-125778213D01*
X142878213Y-125889707D01*
X142878210Y-125889711D01*
X142790609Y-126020814D01*
X142790602Y-126020827D01*
X142730264Y-126166498D01*
X142730261Y-126166510D01*
X142699500Y-126321153D01*
X123553232Y-126321153D01*
X123510292Y-126278213D01*
X123510288Y-126278210D01*
X123379185Y-126190609D01*
X123379172Y-126190602D01*
X123233501Y-126130264D01*
X123233489Y-126130261D01*
X123078845Y-126099500D01*
X123078842Y-126099500D01*
X122921158Y-126099500D01*
X122921155Y-126099500D01*
X122766510Y-126130261D01*
X122766498Y-126130264D01*
X122620827Y-126190602D01*
X122620814Y-126190609D01*
X122489711Y-126278210D01*
X122489707Y-126278213D01*
X122378213Y-126389707D01*
X122378210Y-126389711D01*
X122290609Y-126520814D01*
X122290602Y-126520827D01*
X122230264Y-126666498D01*
X122230261Y-126666510D01*
X122199500Y-126821153D01*
X100500500Y-126821153D01*
X100500500Y-124321153D01*
X131999500Y-124321153D01*
X131999500Y-124478846D01*
X132030261Y-124633489D01*
X132030264Y-124633501D01*
X132090602Y-124779172D01*
X132090609Y-124779185D01*
X132178210Y-124910288D01*
X132178213Y-124910292D01*
X132289707Y-125021786D01*
X132289711Y-125021789D01*
X132420814Y-125109390D01*
X132420827Y-125109397D01*
X132566498Y-125169735D01*
X132566503Y-125169737D01*
X132721153Y-125200499D01*
X132721156Y-125200500D01*
X132721158Y-125200500D01*
X132878844Y-125200500D01*
X132878845Y-125200499D01*
X133033497Y-125169737D01*
X133179179Y-125109394D01*
X133310289Y-125021789D01*
X133421789Y-124910289D01*
X133509394Y-124779179D01*
X133569737Y-124633497D01*
X133600500Y-124478842D01*
X133600500Y-124321158D01*
X133600500Y-124321155D01*
X133600499Y-124321153D01*
X133569737Y-124166503D01*
X133550955Y-124121158D01*
X133550953Y-124121153D01*
X161099500Y-124121153D01*
X161099500Y-124278846D01*
X161130261Y-124433489D01*
X161130264Y-124433501D01*
X161190602Y-124579172D01*
X161190609Y-124579185D01*
X161278210Y-124710288D01*
X161278213Y-124710292D01*
X161389707Y-124821786D01*
X161389711Y-124821789D01*
X161520814Y-124909390D01*
X161520827Y-124909397D01*
X161666498Y-124969735D01*
X161666503Y-124969737D01*
X161821153Y-125000499D01*
X161821156Y-125000500D01*
X161821158Y-125000500D01*
X161978844Y-125000500D01*
X161978845Y-125000499D01*
X162133497Y-124969737D01*
X162279179Y-124909394D01*
X162410289Y-124821789D01*
X162521789Y-124710289D01*
X162609394Y-124579179D01*
X162669737Y-124433497D01*
X162700500Y-124278842D01*
X162700500Y-124121158D01*
X162700500Y-124121155D01*
X162700499Y-124121153D01*
X162680543Y-124020827D01*
X162669737Y-123966503D01*
X162637929Y-123889711D01*
X162609397Y-123820827D01*
X162609390Y-123820814D01*
X162521789Y-123689711D01*
X162521786Y-123689707D01*
X162410292Y-123578213D01*
X162410288Y-123578210D01*
X162279185Y-123490609D01*
X162279172Y-123490602D01*
X162133501Y-123430264D01*
X162133489Y-123430261D01*
X161978845Y-123399500D01*
X161978842Y-123399500D01*
X161821158Y-123399500D01*
X161821155Y-123399500D01*
X161666510Y-123430261D01*
X161666498Y-123430264D01*
X161520827Y-123490602D01*
X161520814Y-123490609D01*
X161389711Y-123578210D01*
X161389707Y-123578213D01*
X161278213Y-123689707D01*
X161278210Y-123689711D01*
X161190609Y-123820814D01*
X161190602Y-123820827D01*
X161130264Y-123966498D01*
X161130261Y-123966510D01*
X161099500Y-124121153D01*
X133550953Y-124121153D01*
X133509397Y-124020827D01*
X133509390Y-124020814D01*
X133421789Y-123889711D01*
X133421786Y-123889707D01*
X133310292Y-123778213D01*
X133310288Y-123778210D01*
X133179185Y-123690609D01*
X133179172Y-123690602D01*
X133033501Y-123630264D01*
X133033489Y-123630261D01*
X132878845Y-123599500D01*
X132878842Y-123599500D01*
X132721158Y-123599500D01*
X132721155Y-123599500D01*
X132566510Y-123630261D01*
X132566498Y-123630264D01*
X132420827Y-123690602D01*
X132420814Y-123690609D01*
X132289711Y-123778210D01*
X132289707Y-123778213D01*
X132178213Y-123889707D01*
X132178210Y-123889711D01*
X132090609Y-124020814D01*
X132090602Y-124020827D01*
X132030264Y-124166498D01*
X132030261Y-124166510D01*
X131999500Y-124321153D01*
X100500500Y-124321153D01*
X100500500Y-123221153D01*
X157999500Y-123221153D01*
X157999500Y-123378846D01*
X158030261Y-123533489D01*
X158030264Y-123533501D01*
X158090602Y-123679172D01*
X158090609Y-123679185D01*
X158178210Y-123810288D01*
X158178213Y-123810292D01*
X158289707Y-123921786D01*
X158289711Y-123921789D01*
X158420814Y-124009390D01*
X158420827Y-124009397D01*
X158566498Y-124069735D01*
X158566503Y-124069737D01*
X158721153Y-124100499D01*
X158721156Y-124100500D01*
X158721158Y-124100500D01*
X158878844Y-124100500D01*
X158878845Y-124100499D01*
X159033497Y-124069737D01*
X159151592Y-124020821D01*
X159179172Y-124009397D01*
X159179172Y-124009396D01*
X159179179Y-124009394D01*
X159310289Y-123921789D01*
X159421789Y-123810289D01*
X159509394Y-123679179D01*
X159569737Y-123533497D01*
X159600500Y-123378842D01*
X159600500Y-123221158D01*
X159600500Y-123221155D01*
X159585452Y-123145506D01*
X159591679Y-123075914D01*
X159634542Y-123020737D01*
X159682877Y-122999697D01*
X159833497Y-122969737D01*
X159951592Y-122920821D01*
X159979172Y-122909397D01*
X159979172Y-122909396D01*
X159979179Y-122909394D01*
X160110289Y-122821789D01*
X160221789Y-122710289D01*
X160309394Y-122579179D01*
X160369737Y-122433497D01*
X160389628Y-122333501D01*
X160401689Y-122272868D01*
X160403562Y-122273240D01*
X160426385Y-122216681D01*
X160483409Y-122176308D01*
X160553208Y-122173173D01*
X160592537Y-122190496D01*
X160620814Y-122209390D01*
X160620827Y-122209397D01*
X160766498Y-122269735D01*
X160766503Y-122269737D01*
X160921153Y-122300499D01*
X160921156Y-122300500D01*
X160921158Y-122300500D01*
X161078844Y-122300500D01*
X161078845Y-122300499D01*
X161233497Y-122269737D01*
X161346166Y-122223067D01*
X161379172Y-122209397D01*
X161379172Y-122209396D01*
X161379179Y-122209394D01*
X161510289Y-122121789D01*
X161621789Y-122010289D01*
X161709394Y-121879179D01*
X161769737Y-121733497D01*
X161800500Y-121578842D01*
X161800500Y-121421158D01*
X161800500Y-121421155D01*
X161800499Y-121421153D01*
X161782419Y-121330261D01*
X161769737Y-121266503D01*
X161709534Y-121121158D01*
X161709397Y-121120827D01*
X161709390Y-121120814D01*
X161621789Y-120989711D01*
X161621786Y-120989707D01*
X161510292Y-120878213D01*
X161510286Y-120878208D01*
X161379185Y-120790609D01*
X161379172Y-120790602D01*
X161233501Y-120730264D01*
X161233489Y-120730261D01*
X161078845Y-120699500D01*
X161078842Y-120699500D01*
X160921158Y-120699500D01*
X160921155Y-120699500D01*
X160766510Y-120730261D01*
X160766498Y-120730264D01*
X160620827Y-120790602D01*
X160620814Y-120790609D01*
X160489711Y-120878210D01*
X160489707Y-120878213D01*
X160378213Y-120989707D01*
X160378210Y-120989711D01*
X160290609Y-121120814D01*
X160290602Y-121120827D01*
X160230264Y-121266498D01*
X160230261Y-121266510D01*
X160198311Y-121427132D01*
X160196444Y-121426760D01*
X160173590Y-121483348D01*
X160116553Y-121523704D01*
X160046753Y-121526816D01*
X160007463Y-121509504D01*
X159979183Y-121490608D01*
X159979172Y-121490602D01*
X159833501Y-121430264D01*
X159833489Y-121430261D01*
X159678845Y-121399500D01*
X159678842Y-121399500D01*
X159521158Y-121399500D01*
X159521155Y-121399500D01*
X159366510Y-121430261D01*
X159366498Y-121430264D01*
X159220827Y-121490602D01*
X159220814Y-121490609D01*
X159089711Y-121578210D01*
X159089707Y-121578213D01*
X158978213Y-121689707D01*
X158978210Y-121689711D01*
X158890609Y-121820814D01*
X158890602Y-121820827D01*
X158830264Y-121966498D01*
X158830261Y-121966510D01*
X158799500Y-122121153D01*
X158799500Y-122278846D01*
X158814547Y-122354494D01*
X158808320Y-122424086D01*
X158765456Y-122479263D01*
X158717122Y-122500302D01*
X158566508Y-122530261D01*
X158566498Y-122530264D01*
X158420827Y-122590602D01*
X158420814Y-122590609D01*
X158289711Y-122678210D01*
X158289707Y-122678213D01*
X158178213Y-122789707D01*
X158178210Y-122789711D01*
X158090609Y-122920814D01*
X158090602Y-122920827D01*
X158030264Y-123066498D01*
X158030261Y-123066510D01*
X157999500Y-123221153D01*
X100500500Y-123221153D01*
X100500500Y-122021153D01*
X106799500Y-122021153D01*
X106799500Y-122178846D01*
X106830261Y-122333489D01*
X106830264Y-122333501D01*
X106890602Y-122479172D01*
X106890609Y-122479185D01*
X106978210Y-122610288D01*
X106978213Y-122610292D01*
X107089707Y-122721786D01*
X107089711Y-122721789D01*
X107220814Y-122809390D01*
X107220827Y-122809397D01*
X107366498Y-122869735D01*
X107366503Y-122869737D01*
X107521153Y-122900499D01*
X107521156Y-122900500D01*
X107521158Y-122900500D01*
X107678844Y-122900500D01*
X107678845Y-122900499D01*
X107833497Y-122869737D01*
X107979179Y-122809394D01*
X108110289Y-122721789D01*
X108221789Y-122610289D01*
X108309394Y-122479179D01*
X108369737Y-122333497D01*
X108372192Y-122321153D01*
X122199500Y-122321153D01*
X122199500Y-122478846D01*
X122230261Y-122633489D01*
X122230264Y-122633501D01*
X122290602Y-122779172D01*
X122290609Y-122779185D01*
X122378210Y-122910288D01*
X122378213Y-122910292D01*
X122489707Y-123021786D01*
X122489711Y-123021789D01*
X122620814Y-123109390D01*
X122620827Y-123109397D01*
X122766498Y-123169735D01*
X122766503Y-123169737D01*
X122921153Y-123200499D01*
X122921156Y-123200500D01*
X122921158Y-123200500D01*
X123078844Y-123200500D01*
X123078845Y-123200499D01*
X123233497Y-123169737D01*
X123379179Y-123109394D01*
X123510289Y-123021789D01*
X123621789Y-122910289D01*
X123709394Y-122779179D01*
X123769737Y-122633497D01*
X123800500Y-122478842D01*
X123800500Y-122321158D01*
X123800500Y-122321155D01*
X123800499Y-122321153D01*
X123794476Y-122290873D01*
X123769737Y-122166503D01*
X123709534Y-122021158D01*
X123709397Y-122020827D01*
X123709390Y-122020814D01*
X123621789Y-121889711D01*
X123621786Y-121889707D01*
X123510292Y-121778213D01*
X123510288Y-121778210D01*
X123379185Y-121690609D01*
X123379172Y-121690602D01*
X123233501Y-121630264D01*
X123233489Y-121630261D01*
X123078845Y-121599500D01*
X123078842Y-121599500D01*
X122921158Y-121599500D01*
X122921155Y-121599500D01*
X122766510Y-121630261D01*
X122766498Y-121630264D01*
X122620827Y-121690602D01*
X122620814Y-121690609D01*
X122489711Y-121778210D01*
X122489707Y-121778213D01*
X122378213Y-121889707D01*
X122378210Y-121889711D01*
X122290609Y-122020814D01*
X122290602Y-122020827D01*
X122230264Y-122166498D01*
X122230261Y-122166510D01*
X122199500Y-122321153D01*
X108372192Y-122321153D01*
X108376301Y-122300499D01*
X108378216Y-122290874D01*
X108378216Y-122290873D01*
X108400499Y-122178846D01*
X108400500Y-122178844D01*
X108400500Y-122021155D01*
X108400499Y-122021153D01*
X108378269Y-121909397D01*
X108369737Y-121866503D01*
X108350812Y-121820814D01*
X108309397Y-121720827D01*
X108309390Y-121720814D01*
X108221789Y-121589711D01*
X108221786Y-121589707D01*
X108110292Y-121478213D01*
X108110288Y-121478210D01*
X107979185Y-121390609D01*
X107979172Y-121390602D01*
X107833501Y-121330264D01*
X107833489Y-121330261D01*
X107678845Y-121299500D01*
X107678842Y-121299500D01*
X107521158Y-121299500D01*
X107521155Y-121299500D01*
X107366510Y-121330261D01*
X107366498Y-121330264D01*
X107220827Y-121390602D01*
X107220814Y-121390609D01*
X107089711Y-121478210D01*
X107089707Y-121478213D01*
X106978213Y-121589707D01*
X106978210Y-121589711D01*
X106890609Y-121720814D01*
X106890602Y-121720827D01*
X106830264Y-121866498D01*
X106830261Y-121866510D01*
X106799500Y-122021153D01*
X100500500Y-122021153D01*
X100500500Y-121121153D01*
X138899500Y-121121153D01*
X138899500Y-121278846D01*
X138930261Y-121433489D01*
X138930264Y-121433501D01*
X138990602Y-121579172D01*
X138990609Y-121579185D01*
X139078210Y-121710288D01*
X139078213Y-121710292D01*
X139189707Y-121821786D01*
X139189711Y-121821789D01*
X139320814Y-121909390D01*
X139320827Y-121909397D01*
X139458683Y-121966498D01*
X139466503Y-121969737D01*
X139621153Y-122000499D01*
X139621156Y-122000500D01*
X139621158Y-122000500D01*
X139778844Y-122000500D01*
X139778845Y-122000499D01*
X139933497Y-121969737D01*
X140079179Y-121909394D01*
X140210289Y-121821789D01*
X140321789Y-121710289D01*
X140409394Y-121579179D01*
X140469737Y-121433497D01*
X140500500Y-121278842D01*
X140500500Y-121121158D01*
X140500500Y-121121155D01*
X140500499Y-121121153D01*
X140496291Y-121100000D01*
X140469737Y-120966503D01*
X140469735Y-120966498D01*
X140409397Y-120820827D01*
X140409390Y-120820814D01*
X140321789Y-120689711D01*
X140321786Y-120689707D01*
X140210292Y-120578213D01*
X140210288Y-120578210D01*
X140079185Y-120490609D01*
X140079172Y-120490602D01*
X139933501Y-120430264D01*
X139933489Y-120430261D01*
X139778845Y-120399500D01*
X139778842Y-120399500D01*
X139621158Y-120399500D01*
X139621155Y-120399500D01*
X139466510Y-120430261D01*
X139466498Y-120430264D01*
X139320827Y-120490602D01*
X139320814Y-120490609D01*
X139189711Y-120578210D01*
X139189707Y-120578213D01*
X139078213Y-120689707D01*
X139078210Y-120689711D01*
X138990609Y-120820814D01*
X138990602Y-120820827D01*
X138930264Y-120966498D01*
X138930261Y-120966510D01*
X138899500Y-121121153D01*
X100500500Y-121121153D01*
X100500500Y-96902135D01*
X102649500Y-96902135D01*
X102649500Y-98697870D01*
X102649501Y-98697876D01*
X102655908Y-98757483D01*
X102706202Y-98892328D01*
X102706206Y-98892335D01*
X102792452Y-99007544D01*
X102792455Y-99007547D01*
X102907664Y-99093793D01*
X102907671Y-99093797D01*
X102952618Y-99110561D01*
X103042517Y-99144091D01*
X103102127Y-99150500D01*
X103112685Y-99150499D01*
X103179723Y-99170179D01*
X103200372Y-99186818D01*
X103870591Y-99857037D01*
X103807007Y-99874075D01*
X103692993Y-99939901D01*
X103599901Y-100032993D01*
X103534075Y-100147007D01*
X103517037Y-100210591D01*
X102884728Y-99578282D01*
X102884727Y-99578282D01*
X102845380Y-99632439D01*
X102748904Y-99821782D01*
X102683242Y-100023869D01*
X102683242Y-100023872D01*
X102650000Y-100233753D01*
X102650000Y-100446246D01*
X102683242Y-100656127D01*
X102683242Y-100656130D01*
X102748904Y-100858217D01*
X102845375Y-101047550D01*
X102884728Y-101101716D01*
X103517037Y-100469408D01*
X103534075Y-100532993D01*
X103599901Y-100647007D01*
X103692993Y-100740099D01*
X103807007Y-100805925D01*
X103870590Y-100822962D01*
X103238282Y-101455269D01*
X103238282Y-101455270D01*
X103292452Y-101494626D01*
X103292451Y-101494626D01*
X103301495Y-101499234D01*
X103352292Y-101547208D01*
X103369087Y-101615029D01*
X103346550Y-101681164D01*
X103301499Y-101720202D01*
X103292182Y-101724949D01*
X103120213Y-101849890D01*
X102969890Y-102000213D01*
X102844951Y-102172179D01*
X102748444Y-102361585D01*
X102682753Y-102563760D01*
X102649500Y-102773713D01*
X102649500Y-102986286D01*
X102682269Y-103193186D01*
X102682754Y-103196243D01*
X102718843Y-103307314D01*
X102748444Y-103398414D01*
X102844951Y-103587820D01*
X102969890Y-103759786D01*
X103120213Y-103910109D01*
X103292182Y-104035050D01*
X103300946Y-104039516D01*
X103351742Y-104087491D01*
X103368536Y-104155312D01*
X103345998Y-104221447D01*
X103300946Y-104260484D01*
X103292182Y-104264949D01*
X103120213Y-104389890D01*
X102969890Y-104540213D01*
X102844951Y-104712179D01*
X102748444Y-104901585D01*
X102682753Y-105103760D01*
X102649500Y-105313713D01*
X102649500Y-105526286D01*
X102678501Y-105709394D01*
X102682754Y-105736243D01*
X102703632Y-105800500D01*
X102748444Y-105938414D01*
X102844951Y-106127820D01*
X102969890Y-106299786D01*
X103120213Y-106450109D01*
X103292182Y-106575050D01*
X103300946Y-106579516D01*
X103351742Y-106627491D01*
X103368536Y-106695312D01*
X103345998Y-106761447D01*
X103300946Y-106800484D01*
X103292182Y-106804949D01*
X103120213Y-106929890D01*
X102969890Y-107080213D01*
X102844951Y-107252179D01*
X102748444Y-107441585D01*
X102682753Y-107643760D01*
X102649500Y-107853713D01*
X102649500Y-108066286D01*
X102682753Y-108276239D01*
X102748444Y-108478414D01*
X102844951Y-108667820D01*
X102969890Y-108839786D01*
X103120213Y-108990109D01*
X103292182Y-109115050D01*
X103300946Y-109119516D01*
X103351742Y-109167491D01*
X103368536Y-109235312D01*
X103345998Y-109301447D01*
X103300946Y-109340484D01*
X103292182Y-109344949D01*
X103120213Y-109469890D01*
X102969890Y-109620213D01*
X102844951Y-109792179D01*
X102748444Y-109981585D01*
X102682753Y-110183760D01*
X102649500Y-110393713D01*
X102649500Y-110606286D01*
X102681339Y-110807314D01*
X102682754Y-110816243D01*
X102739117Y-110989711D01*
X102748444Y-111018414D01*
X102844951Y-111207820D01*
X102969890Y-111379786D01*
X103120213Y-111530109D01*
X103292182Y-111655050D01*
X103300946Y-111659516D01*
X103351742Y-111707491D01*
X103368536Y-111775312D01*
X103345998Y-111841447D01*
X103300946Y-111880484D01*
X103292182Y-111884949D01*
X103120213Y-112009890D01*
X102969890Y-112160213D01*
X102844951Y-112332179D01*
X102748444Y-112521585D01*
X102682753Y-112723760D01*
X102667327Y-112821158D01*
X102649500Y-112933713D01*
X102649500Y-113146287D01*
X102656377Y-113189707D01*
X102677144Y-113320827D01*
X102682754Y-113356243D01*
X102739045Y-113529489D01*
X102748444Y-113558414D01*
X102844951Y-113747820D01*
X102969890Y-113919786D01*
X103120213Y-114070109D01*
X103292179Y-114195048D01*
X103292181Y-114195049D01*
X103292184Y-114195051D01*
X103301493Y-114199794D01*
X103352290Y-114247766D01*
X103369087Y-114315587D01*
X103346552Y-114381722D01*
X103301505Y-114420760D01*
X103292446Y-114425376D01*
X103292440Y-114425380D01*
X103238282Y-114464727D01*
X103238282Y-114464728D01*
X103870591Y-115097037D01*
X103807007Y-115114075D01*
X103692993Y-115179901D01*
X103599901Y-115272993D01*
X103534075Y-115387007D01*
X103517037Y-115450591D01*
X102884728Y-114818282D01*
X102884727Y-114818282D01*
X102845380Y-114872439D01*
X102748904Y-115061782D01*
X102683242Y-115263869D01*
X102683242Y-115263872D01*
X102650000Y-115473753D01*
X102650000Y-115686246D01*
X102683242Y-115896127D01*
X102683242Y-115896130D01*
X102748904Y-116098217D01*
X102845375Y-116287550D01*
X102884728Y-116341716D01*
X103517037Y-115709408D01*
X103534075Y-115772993D01*
X103599901Y-115887007D01*
X103692993Y-115980099D01*
X103807007Y-116045925D01*
X103870590Y-116062962D01*
X103238282Y-116695269D01*
X103238282Y-116695270D01*
X103292452Y-116734626D01*
X103292451Y-116734626D01*
X103301495Y-116739234D01*
X103352292Y-116787208D01*
X103369087Y-116855029D01*
X103346550Y-116921164D01*
X103301499Y-116960202D01*
X103292182Y-116964949D01*
X103120213Y-117089890D01*
X102969890Y-117240213D01*
X102844951Y-117412179D01*
X102748444Y-117601585D01*
X102748443Y-117601587D01*
X102748443Y-117601588D01*
X102746180Y-117608553D01*
X102682753Y-117803760D01*
X102649500Y-118013713D01*
X102649500Y-118226286D01*
X102682753Y-118436239D01*
X102748444Y-118638414D01*
X102844951Y-118827820D01*
X102969890Y-118999786D01*
X103120213Y-119150109D01*
X103292179Y-119275048D01*
X103292181Y-119275049D01*
X103292184Y-119275051D01*
X103481588Y-119371557D01*
X103683757Y-119437246D01*
X103893713Y-119470500D01*
X103893714Y-119470500D01*
X104106286Y-119470500D01*
X104106287Y-119470500D01*
X104316243Y-119437246D01*
X104518412Y-119371557D01*
X104707816Y-119275051D01*
X104747188Y-119246446D01*
X104879786Y-119150109D01*
X104879788Y-119150106D01*
X104879792Y-119150104D01*
X105030104Y-118999792D01*
X105030106Y-118999788D01*
X105030109Y-118999786D01*
X105155048Y-118827820D01*
X105155047Y-118827820D01*
X105155051Y-118827816D01*
X105251557Y-118638412D01*
X105317246Y-118436243D01*
X105350500Y-118226287D01*
X105350500Y-118013713D01*
X105346566Y-117988872D01*
X131463500Y-117988872D01*
X131463500Y-118251127D01*
X131490123Y-118453339D01*
X131497730Y-118511116D01*
X131556619Y-118730893D01*
X131565602Y-118764418D01*
X131565605Y-118764428D01*
X131665953Y-119006690D01*
X131665958Y-119006700D01*
X131797075Y-119233803D01*
X131956718Y-119441851D01*
X131956726Y-119441860D01*
X132142140Y-119627274D01*
X132142148Y-119627281D01*
X132350196Y-119786924D01*
X132577299Y-119918041D01*
X132577309Y-119918046D01*
X132775403Y-120000099D01*
X132819581Y-120018398D01*
X133072884Y-120086270D01*
X133332880Y-120120500D01*
X133332887Y-120120500D01*
X133595113Y-120120500D01*
X133595120Y-120120500D01*
X133855116Y-120086270D01*
X134108419Y-120018398D01*
X134350697Y-119918043D01*
X134577803Y-119786924D01*
X134785851Y-119627282D01*
X134785855Y-119627277D01*
X134785860Y-119627274D01*
X134931187Y-119481947D01*
X174500000Y-119481947D01*
X174500000Y-119718052D01*
X174536934Y-119951247D01*
X174609897Y-120175802D01*
X174717087Y-120386174D01*
X174777338Y-120469104D01*
X174777340Y-120469105D01*
X175517037Y-119729408D01*
X175534075Y-119792993D01*
X175599901Y-119907007D01*
X175692993Y-120000099D01*
X175807007Y-120065925D01*
X175870590Y-120082962D01*
X175130893Y-120822658D01*
X175213828Y-120882914D01*
X175424197Y-120990102D01*
X175648752Y-121063065D01*
X175648751Y-121063065D01*
X175881948Y-121100000D01*
X176118052Y-121100000D01*
X176351247Y-121063065D01*
X176575802Y-120990102D01*
X176786163Y-120882918D01*
X176786169Y-120882914D01*
X176869104Y-120822658D01*
X176869105Y-120822658D01*
X176129408Y-120082962D01*
X176192993Y-120065925D01*
X176307007Y-120000099D01*
X176400099Y-119907007D01*
X176465925Y-119792993D01*
X176482962Y-119729408D01*
X177222658Y-120469105D01*
X177222658Y-120469104D01*
X177282914Y-120386169D01*
X177282918Y-120386163D01*
X177390102Y-120175802D01*
X177463065Y-119951247D01*
X177500000Y-119718052D01*
X177500000Y-119481947D01*
X177463065Y-119248752D01*
X177390102Y-119024197D01*
X177282914Y-118813828D01*
X177222658Y-118730894D01*
X177222658Y-118730893D01*
X176482962Y-119470590D01*
X176465925Y-119407007D01*
X176400099Y-119292993D01*
X176307007Y-119199901D01*
X176192993Y-119134075D01*
X176129409Y-119117037D01*
X176869105Y-118377340D01*
X176869104Y-118377338D01*
X176786174Y-118317087D01*
X176575802Y-118209897D01*
X176351247Y-118136934D01*
X176351248Y-118136934D01*
X176118052Y-118100000D01*
X175881948Y-118100000D01*
X175648752Y-118136934D01*
X175424197Y-118209897D01*
X175213830Y-118317084D01*
X175130894Y-118377340D01*
X175870591Y-119117037D01*
X175807007Y-119134075D01*
X175692993Y-119199901D01*
X175599901Y-119292993D01*
X175534075Y-119407007D01*
X175517037Y-119470591D01*
X174777340Y-118730894D01*
X174717084Y-118813830D01*
X174609897Y-119024197D01*
X174536934Y-119248752D01*
X174500000Y-119481947D01*
X134931187Y-119481947D01*
X134971274Y-119441860D01*
X134971277Y-119441855D01*
X134971282Y-119441851D01*
X135130924Y-119233803D01*
X135262043Y-119006697D01*
X135362398Y-118764419D01*
X135430270Y-118511116D01*
X135464500Y-118251120D01*
X135464500Y-117988880D01*
X135430270Y-117728884D01*
X135362398Y-117475581D01*
X135343639Y-117430292D01*
X135262046Y-117233309D01*
X135262041Y-117233299D01*
X135130924Y-117006196D01*
X134980597Y-116810289D01*
X134971282Y-116798149D01*
X134971281Y-116798148D01*
X134971274Y-116798140D01*
X134785860Y-116612726D01*
X134785851Y-116612718D01*
X134577803Y-116453075D01*
X134351556Y-116322453D01*
X134351555Y-116322452D01*
X134351554Y-116322452D01*
X134350697Y-116321957D01*
X134350690Y-116321953D01*
X134108428Y-116221605D01*
X134108421Y-116221603D01*
X134108419Y-116221602D01*
X134106743Y-116221153D01*
X138799500Y-116221153D01*
X138799500Y-116378846D01*
X138830261Y-116533489D01*
X138830264Y-116533501D01*
X138890602Y-116679172D01*
X138890609Y-116679185D01*
X138978210Y-116810288D01*
X138978213Y-116810292D01*
X139089707Y-116921786D01*
X139089711Y-116921789D01*
X139220814Y-117009390D01*
X139220827Y-117009397D01*
X139366498Y-117069735D01*
X139366503Y-117069737D01*
X139521153Y-117100499D01*
X139521156Y-117100500D01*
X139521158Y-117100500D01*
X139678844Y-117100500D01*
X139678845Y-117100499D01*
X139833497Y-117069737D01*
X139979179Y-117009394D01*
X140110289Y-116921789D01*
X140190925Y-116841153D01*
X142719500Y-116841153D01*
X142719500Y-116998846D01*
X142750261Y-117153489D01*
X142750264Y-117153501D01*
X142810602Y-117299172D01*
X142810609Y-117299185D01*
X142898210Y-117430288D01*
X142898213Y-117430292D01*
X143009707Y-117541786D01*
X143009711Y-117541789D01*
X143140814Y-117629390D01*
X143140827Y-117629397D01*
X143286498Y-117689735D01*
X143286503Y-117689737D01*
X143441153Y-117720499D01*
X143441156Y-117720500D01*
X143441158Y-117720500D01*
X143598844Y-117720500D01*
X143598845Y-117720499D01*
X143753497Y-117689737D01*
X143899179Y-117629394D01*
X144030289Y-117541789D01*
X144141789Y-117430289D01*
X144229394Y-117299179D01*
X144289737Y-117153497D01*
X144320500Y-116998842D01*
X144320500Y-116841158D01*
X144320500Y-116841155D01*
X144320499Y-116841153D01*
X144314360Y-116810289D01*
X144289737Y-116686503D01*
X144262668Y-116621153D01*
X152899500Y-116621153D01*
X152899500Y-116778846D01*
X152930261Y-116933489D01*
X152930264Y-116933501D01*
X152990602Y-117079172D01*
X152990609Y-117079185D01*
X153078210Y-117210288D01*
X153078213Y-117210292D01*
X153189707Y-117321786D01*
X153189711Y-117321789D01*
X153320814Y-117409390D01*
X153320827Y-117409397D01*
X153466498Y-117469735D01*
X153466503Y-117469737D01*
X153621153Y-117500499D01*
X153621156Y-117500500D01*
X153621158Y-117500500D01*
X153778844Y-117500500D01*
X153778845Y-117500499D01*
X153933497Y-117469737D01*
X154072443Y-117412184D01*
X154079172Y-117409397D01*
X154079172Y-117409396D01*
X154079179Y-117409394D01*
X154210289Y-117321789D01*
X154242564Y-117289514D01*
X154299361Y-117232718D01*
X154321786Y-117210292D01*
X154321789Y-117210289D01*
X154409394Y-117079179D01*
X154469737Y-116933497D01*
X154500500Y-116778842D01*
X154500500Y-116621158D01*
X154500500Y-116621155D01*
X154500499Y-116621153D01*
X154498821Y-116612718D01*
X154469737Y-116466503D01*
X154469735Y-116466498D01*
X154409397Y-116320827D01*
X154409390Y-116320814D01*
X154321789Y-116189711D01*
X154321786Y-116189707D01*
X154210292Y-116078213D01*
X154210288Y-116078210D01*
X154079185Y-115990609D01*
X154079172Y-115990602D01*
X153933501Y-115930264D01*
X153933489Y-115930261D01*
X153778845Y-115899500D01*
X153778842Y-115899500D01*
X153621158Y-115899500D01*
X153621155Y-115899500D01*
X153466510Y-115930261D01*
X153466498Y-115930264D01*
X153320827Y-115990602D01*
X153320814Y-115990609D01*
X153189711Y-116078210D01*
X153189707Y-116078213D01*
X153078213Y-116189707D01*
X153078210Y-116189711D01*
X152990609Y-116320814D01*
X152990602Y-116320827D01*
X152930264Y-116466498D01*
X152930261Y-116466510D01*
X152899500Y-116621153D01*
X144262668Y-116621153D01*
X144247739Y-116585110D01*
X144229397Y-116540826D01*
X144229390Y-116540814D01*
X144141789Y-116409711D01*
X144141786Y-116409707D01*
X144030292Y-116298213D01*
X144030288Y-116298210D01*
X143899185Y-116210609D01*
X143899172Y-116210602D01*
X143753501Y-116150264D01*
X143753489Y-116150261D01*
X143598845Y-116119500D01*
X143598842Y-116119500D01*
X143441158Y-116119500D01*
X143441155Y-116119500D01*
X143286510Y-116150261D01*
X143286498Y-116150264D01*
X143140827Y-116210602D01*
X143140814Y-116210609D01*
X143009711Y-116298210D01*
X143009707Y-116298213D01*
X142898213Y-116409707D01*
X142898210Y-116409711D01*
X142810609Y-116540814D01*
X142810602Y-116540827D01*
X142750264Y-116686498D01*
X142750261Y-116686510D01*
X142719500Y-116841153D01*
X140190925Y-116841153D01*
X140221789Y-116810289D01*
X140245046Y-116775481D01*
X140251266Y-116766174D01*
X140251267Y-116766172D01*
X140309390Y-116679185D01*
X140309390Y-116679184D01*
X140309394Y-116679179D01*
X140369737Y-116533497D01*
X140400500Y-116378842D01*
X140400500Y-116221158D01*
X140400500Y-116221155D01*
X140400499Y-116221153D01*
X140398400Y-116210602D01*
X140369737Y-116066503D01*
X140369735Y-116066498D01*
X140309397Y-115920827D01*
X140309390Y-115920814D01*
X140221789Y-115789711D01*
X140221786Y-115789707D01*
X140110292Y-115678213D01*
X140110288Y-115678210D01*
X139979185Y-115590609D01*
X139979172Y-115590602D01*
X139833501Y-115530264D01*
X139833489Y-115530261D01*
X139678845Y-115499500D01*
X139678842Y-115499500D01*
X139521158Y-115499500D01*
X139521155Y-115499500D01*
X139366510Y-115530261D01*
X139366498Y-115530264D01*
X139220827Y-115590602D01*
X139220814Y-115590609D01*
X139089711Y-115678210D01*
X139089707Y-115678213D01*
X138978213Y-115789707D01*
X138978210Y-115789711D01*
X138890609Y-115920814D01*
X138890602Y-115920827D01*
X138830264Y-116066498D01*
X138830261Y-116066510D01*
X138799500Y-116221153D01*
X134106743Y-116221153D01*
X133855116Y-116153730D01*
X133797339Y-116146123D01*
X133595127Y-116119500D01*
X133595120Y-116119500D01*
X133332880Y-116119500D01*
X133332872Y-116119500D01*
X133101772Y-116149926D01*
X133072884Y-116153730D01*
X132916451Y-116195646D01*
X132819581Y-116221602D01*
X132819571Y-116221605D01*
X132577309Y-116321953D01*
X132577299Y-116321958D01*
X132350196Y-116453075D01*
X132142148Y-116612718D01*
X131956718Y-116798148D01*
X131797075Y-117006196D01*
X131665958Y-117233299D01*
X131665953Y-117233309D01*
X131565605Y-117475571D01*
X131565602Y-117475581D01*
X131499977Y-117720500D01*
X131497730Y-117728885D01*
X131463500Y-117988872D01*
X105346566Y-117988872D01*
X105317246Y-117803757D01*
X105251557Y-117601588D01*
X105155051Y-117412184D01*
X105155049Y-117412181D01*
X105155048Y-117412179D01*
X105030109Y-117240213D01*
X104879786Y-117089890D01*
X104707817Y-116964949D01*
X104698504Y-116960204D01*
X104647707Y-116912230D01*
X104630912Y-116844409D01*
X104653449Y-116778274D01*
X104698507Y-116739232D01*
X104707555Y-116734622D01*
X104761716Y-116695270D01*
X104761717Y-116695270D01*
X104129408Y-116062962D01*
X104192993Y-116045925D01*
X104307007Y-115980099D01*
X104400099Y-115887007D01*
X104465925Y-115772993D01*
X104482962Y-115709409D01*
X105115270Y-116341717D01*
X105115270Y-116341716D01*
X105154622Y-116287554D01*
X105251095Y-116098217D01*
X105316757Y-115896130D01*
X105316757Y-115896127D01*
X105350000Y-115686246D01*
X105350000Y-115521153D01*
X116699500Y-115521153D01*
X116699500Y-115678846D01*
X116730261Y-115833489D01*
X116730264Y-115833501D01*
X116790602Y-115979172D01*
X116790609Y-115979185D01*
X116878210Y-116110288D01*
X116878213Y-116110292D01*
X116989707Y-116221786D01*
X116989711Y-116221789D01*
X117120814Y-116309390D01*
X117120827Y-116309397D01*
X117266498Y-116369735D01*
X117266503Y-116369737D01*
X117421153Y-116400499D01*
X117421156Y-116400500D01*
X117421158Y-116400500D01*
X117578844Y-116400500D01*
X117578845Y-116400499D01*
X117733497Y-116369737D01*
X117851592Y-116320821D01*
X117879172Y-116309397D01*
X117879172Y-116309396D01*
X117879179Y-116309394D01*
X118010289Y-116221789D01*
X118121789Y-116110289D01*
X118209394Y-115979179D01*
X118269737Y-115833497D01*
X118300500Y-115678842D01*
X118300500Y-115521158D01*
X118300500Y-115521155D01*
X118300499Y-115521153D01*
X118278447Y-115410292D01*
X118269737Y-115366503D01*
X118266450Y-115358567D01*
X118209397Y-115220827D01*
X118209390Y-115220814D01*
X118121789Y-115089711D01*
X118121786Y-115089707D01*
X118010292Y-114978213D01*
X118010288Y-114978210D01*
X117920429Y-114918168D01*
X117879185Y-114890609D01*
X117879172Y-114890602D01*
X117733501Y-114830264D01*
X117733489Y-114830261D01*
X117687701Y-114821153D01*
X147999500Y-114821153D01*
X147999500Y-114978846D01*
X148030261Y-115133489D01*
X148030264Y-115133501D01*
X148090602Y-115279172D01*
X148090609Y-115279185D01*
X148178210Y-115410288D01*
X148178213Y-115410292D01*
X148289707Y-115521786D01*
X148289711Y-115521789D01*
X148420814Y-115609390D01*
X148420827Y-115609397D01*
X148508776Y-115645826D01*
X148566503Y-115669737D01*
X148721153Y-115700499D01*
X148721156Y-115700500D01*
X148721158Y-115700500D01*
X148878844Y-115700500D01*
X148878845Y-115700499D01*
X149033497Y-115669737D01*
X149179179Y-115609394D01*
X149310289Y-115521789D01*
X149421789Y-115410289D01*
X149509394Y-115279179D01*
X149569737Y-115133497D01*
X149600500Y-114978842D01*
X149600500Y-114821158D01*
X149600500Y-114821155D01*
X149600499Y-114821153D01*
X149586250Y-114749519D01*
X149569737Y-114666503D01*
X149534947Y-114582511D01*
X149509397Y-114520827D01*
X149509390Y-114520814D01*
X149421790Y-114389712D01*
X149421784Y-114389705D01*
X149353232Y-114321153D01*
X159699500Y-114321153D01*
X159699500Y-114478846D01*
X159730261Y-114633489D01*
X159730264Y-114633501D01*
X159790602Y-114779172D01*
X159790609Y-114779185D01*
X159878210Y-114910288D01*
X159878213Y-114910292D01*
X159989707Y-115021786D01*
X159989711Y-115021789D01*
X160120814Y-115109390D01*
X160120827Y-115109397D01*
X160261071Y-115167487D01*
X160266503Y-115169737D01*
X160421153Y-115200499D01*
X160421156Y-115200500D01*
X160421158Y-115200500D01*
X160578844Y-115200500D01*
X160578845Y-115200499D01*
X160733497Y-115169737D01*
X160879179Y-115109394D01*
X161010289Y-115021789D01*
X161121789Y-114910289D01*
X161209394Y-114779179D01*
X161269737Y-114633497D01*
X161300500Y-114478842D01*
X161300500Y-114352486D01*
X168999500Y-114352486D01*
X168999500Y-114647513D01*
X169023561Y-114830264D01*
X169038007Y-114939993D01*
X169113254Y-115220821D01*
X169114361Y-115224951D01*
X169114364Y-115224961D01*
X169227254Y-115497500D01*
X169227258Y-115497510D01*
X169374761Y-115752993D01*
X169554352Y-115987040D01*
X169554358Y-115987047D01*
X169762952Y-116195641D01*
X169762959Y-116195647D01*
X169997006Y-116375238D01*
X170252489Y-116522741D01*
X170252490Y-116522741D01*
X170252493Y-116522743D01*
X170463296Y-116610060D01*
X170490080Y-116621155D01*
X170525048Y-116635639D01*
X170810007Y-116711993D01*
X171102494Y-116750500D01*
X171102501Y-116750500D01*
X171397499Y-116750500D01*
X171397506Y-116750500D01*
X171689993Y-116711993D01*
X171974952Y-116635639D01*
X172247507Y-116522743D01*
X172502994Y-116375238D01*
X172737042Y-116195646D01*
X172945646Y-115987042D01*
X173125238Y-115752994D01*
X173272743Y-115497507D01*
X173385639Y-115224952D01*
X173461993Y-114939993D01*
X173500500Y-114647506D01*
X173500500Y-114352494D01*
X173461993Y-114060007D01*
X173385639Y-113775048D01*
X173272743Y-113502493D01*
X173271592Y-113500500D01*
X173263741Y-113486902D01*
X174584500Y-113486902D01*
X174584500Y-113723097D01*
X174621446Y-113956368D01*
X174694433Y-114180996D01*
X174784238Y-114357246D01*
X174801657Y-114391433D01*
X174940483Y-114582510D01*
X175107490Y-114749517D01*
X175166716Y-114792547D01*
X175209381Y-114847875D01*
X175217448Y-114902593D01*
X175215893Y-114922340D01*
X175914766Y-115621212D01*
X175872708Y-115632482D01*
X175747292Y-115704890D01*
X175644890Y-115807292D01*
X175572482Y-115932708D01*
X175561212Y-115974766D01*
X174862340Y-115275894D01*
X174802084Y-115358830D01*
X174694897Y-115569197D01*
X174621934Y-115793752D01*
X174585000Y-116026947D01*
X174585000Y-116263052D01*
X174621934Y-116496247D01*
X174694897Y-116720802D01*
X174802087Y-116931174D01*
X174862338Y-117014104D01*
X174862340Y-117014105D01*
X175561212Y-116315233D01*
X175572482Y-116357292D01*
X175644890Y-116482708D01*
X175747292Y-116585110D01*
X175872708Y-116657518D01*
X175914765Y-116668787D01*
X175215893Y-117367658D01*
X175298828Y-117427914D01*
X175509197Y-117535102D01*
X175733752Y-117608065D01*
X175733751Y-117608065D01*
X175966948Y-117645000D01*
X176203052Y-117645000D01*
X176436247Y-117608065D01*
X176660802Y-117535102D01*
X176871163Y-117427918D01*
X176871169Y-117427914D01*
X176954104Y-117367658D01*
X176954105Y-117367658D01*
X176255233Y-116668787D01*
X176297292Y-116657518D01*
X176422708Y-116585110D01*
X176525110Y-116482708D01*
X176597518Y-116357292D01*
X176608787Y-116315234D01*
X177307657Y-117014104D01*
X177345275Y-117011144D01*
X177364735Y-117011144D01*
X177402340Y-117014104D01*
X178101212Y-116315233D01*
X178112482Y-116357292D01*
X178184890Y-116482708D01*
X178287292Y-116585110D01*
X178412708Y-116657518D01*
X178454765Y-116668787D01*
X177755893Y-117367658D01*
X177838828Y-117427914D01*
X178049197Y-117535102D01*
X178273752Y-117608065D01*
X178273751Y-117608065D01*
X178506948Y-117645000D01*
X178743052Y-117645000D01*
X178976247Y-117608065D01*
X179200802Y-117535102D01*
X179411163Y-117427918D01*
X179411169Y-117427914D01*
X179494104Y-117367658D01*
X179494105Y-117367658D01*
X178795233Y-116668787D01*
X178837292Y-116657518D01*
X178962708Y-116585110D01*
X179065110Y-116482708D01*
X179137518Y-116357292D01*
X179148787Y-116315233D01*
X179847657Y-117014104D01*
X179867404Y-117012550D01*
X179935781Y-117026914D01*
X179977451Y-117063282D01*
X180020483Y-117122510D01*
X180187490Y-117289517D01*
X180378567Y-117428343D01*
X180459809Y-117469738D01*
X180589003Y-117535566D01*
X180589005Y-117535566D01*
X180589008Y-117535568D01*
X180709412Y-117574689D01*
X180813631Y-117608553D01*
X181046903Y-117645500D01*
X181046908Y-117645500D01*
X181283097Y-117645500D01*
X181516368Y-117608553D01*
X181537813Y-117601585D01*
X181740992Y-117535568D01*
X181951433Y-117428343D01*
X182142510Y-117289517D01*
X182309517Y-117122510D01*
X182448343Y-116931433D01*
X182555568Y-116720992D01*
X182628553Y-116496368D01*
X182647167Y-116378844D01*
X182665500Y-116263097D01*
X182665500Y-116026902D01*
X182628553Y-115793631D01*
X182564013Y-115595000D01*
X182555568Y-115569008D01*
X182555566Y-115569005D01*
X182555566Y-115569003D01*
X182474698Y-115410292D01*
X182448343Y-115358567D01*
X182309517Y-115167490D01*
X182142510Y-115000483D01*
X182107872Y-114975317D01*
X182065207Y-114919989D01*
X182059228Y-114850375D01*
X182091833Y-114788580D01*
X182107873Y-114774682D01*
X182142510Y-114749517D01*
X182309517Y-114582510D01*
X182448343Y-114391433D01*
X182468187Y-114352486D01*
X183749500Y-114352486D01*
X183749500Y-114647513D01*
X183773561Y-114830264D01*
X183788007Y-114939993D01*
X183863254Y-115220821D01*
X183864361Y-115224951D01*
X183864364Y-115224961D01*
X183977254Y-115497500D01*
X183977258Y-115497510D01*
X184124761Y-115752993D01*
X184304352Y-115987040D01*
X184304358Y-115987047D01*
X184512952Y-116195641D01*
X184512959Y-116195647D01*
X184747006Y-116375238D01*
X185002489Y-116522741D01*
X185002490Y-116522741D01*
X185002493Y-116522743D01*
X185213296Y-116610060D01*
X185240080Y-116621155D01*
X185275048Y-116635639D01*
X185560007Y-116711993D01*
X185852494Y-116750500D01*
X185852501Y-116750500D01*
X186147499Y-116750500D01*
X186147506Y-116750500D01*
X186439993Y-116711993D01*
X186724952Y-116635639D01*
X186997507Y-116522743D01*
X187252994Y-116375238D01*
X187487042Y-116195646D01*
X187695646Y-115987042D01*
X187875238Y-115752994D01*
X188022743Y-115497507D01*
X188135639Y-115224952D01*
X188211993Y-114939993D01*
X188250500Y-114647506D01*
X188250500Y-114352494D01*
X188211993Y-114060007D01*
X188135639Y-113775048D01*
X188022743Y-113502493D01*
X188021592Y-113500500D01*
X187875238Y-113247006D01*
X187695647Y-113012959D01*
X187695641Y-113012952D01*
X187487047Y-112804358D01*
X187487040Y-112804352D01*
X187252993Y-112624761D01*
X186997510Y-112477258D01*
X186997500Y-112477254D01*
X186724961Y-112364364D01*
X186724954Y-112364362D01*
X186724952Y-112364361D01*
X186439993Y-112288007D01*
X186391113Y-112281571D01*
X186147513Y-112249500D01*
X186147506Y-112249500D01*
X185852494Y-112249500D01*
X185852486Y-112249500D01*
X185605049Y-112282077D01*
X185560007Y-112288007D01*
X185434423Y-112321657D01*
X185275048Y-112364361D01*
X185275038Y-112364364D01*
X185002499Y-112477254D01*
X185002489Y-112477258D01*
X184747006Y-112624761D01*
X184512959Y-112804352D01*
X184512952Y-112804358D01*
X184304358Y-113012952D01*
X184304352Y-113012959D01*
X184124761Y-113247006D01*
X183977258Y-113502489D01*
X183977254Y-113502499D01*
X183864364Y-113775038D01*
X183864361Y-113775048D01*
X183833639Y-113889707D01*
X183788008Y-114060004D01*
X183788006Y-114060015D01*
X183749500Y-114352486D01*
X182468187Y-114352486D01*
X182555568Y-114180992D01*
X182628553Y-113956368D01*
X182634347Y-113919786D01*
X182665500Y-113723097D01*
X182665500Y-113486902D01*
X182628553Y-113253631D01*
X182555566Y-113029003D01*
X182449663Y-112821158D01*
X182448343Y-112818567D01*
X182309517Y-112627490D01*
X182142510Y-112460483D01*
X181951433Y-112321657D01*
X181909908Y-112300499D01*
X181740996Y-112214433D01*
X181516368Y-112141446D01*
X181283097Y-112104500D01*
X181283092Y-112104500D01*
X181046908Y-112104500D01*
X181046903Y-112104500D01*
X180813631Y-112141446D01*
X180589003Y-112214433D01*
X180378566Y-112321657D01*
X180284899Y-112389711D01*
X180187490Y-112460483D01*
X180187488Y-112460485D01*
X180187487Y-112460485D01*
X180020484Y-112627488D01*
X179995318Y-112662127D01*
X179939987Y-112704792D01*
X179870374Y-112710771D01*
X179808579Y-112678165D01*
X179794682Y-112662127D01*
X179769517Y-112627490D01*
X179602510Y-112460483D01*
X179411433Y-112321657D01*
X179369908Y-112300499D01*
X179200996Y-112214433D01*
X178976368Y-112141446D01*
X178743097Y-112104500D01*
X178743092Y-112104500D01*
X178506908Y-112104500D01*
X178506903Y-112104500D01*
X178273631Y-112141446D01*
X178049003Y-112214433D01*
X177838566Y-112321657D01*
X177744899Y-112389711D01*
X177647490Y-112460483D01*
X177647488Y-112460485D01*
X177647487Y-112460485D01*
X177480484Y-112627488D01*
X177455318Y-112662127D01*
X177399987Y-112704792D01*
X177330374Y-112710771D01*
X177268579Y-112678165D01*
X177254682Y-112662127D01*
X177229517Y-112627490D01*
X177062510Y-112460483D01*
X176871433Y-112321657D01*
X176829908Y-112300499D01*
X176660996Y-112214433D01*
X176436368Y-112141446D01*
X176203097Y-112104500D01*
X176203092Y-112104500D01*
X175966908Y-112104500D01*
X175966903Y-112104500D01*
X175733631Y-112141446D01*
X175509003Y-112214433D01*
X175298566Y-112321657D01*
X175204899Y-112389711D01*
X175107490Y-112460483D01*
X175107488Y-112460485D01*
X175107487Y-112460485D01*
X174940485Y-112627487D01*
X174940485Y-112627488D01*
X174940483Y-112627490D01*
X174885001Y-112703854D01*
X174801657Y-112818566D01*
X174694433Y-113029003D01*
X174621446Y-113253631D01*
X174584500Y-113486902D01*
X173263741Y-113486902D01*
X173125238Y-113247006D01*
X172945647Y-113012959D01*
X172945641Y-113012952D01*
X172737047Y-112804358D01*
X172737040Y-112804352D01*
X172502993Y-112624761D01*
X172247510Y-112477258D01*
X172247500Y-112477254D01*
X171974961Y-112364364D01*
X171974954Y-112364362D01*
X171974952Y-112364361D01*
X171689993Y-112288007D01*
X171641113Y-112281571D01*
X171397513Y-112249500D01*
X171397506Y-112249500D01*
X171102494Y-112249500D01*
X171102486Y-112249500D01*
X170855049Y-112282077D01*
X170810007Y-112288007D01*
X170684423Y-112321657D01*
X170525048Y-112364361D01*
X170525038Y-112364364D01*
X170252499Y-112477254D01*
X170252489Y-112477258D01*
X169997006Y-112624761D01*
X169762959Y-112804352D01*
X169762952Y-112804358D01*
X169554358Y-113012952D01*
X169554352Y-113012959D01*
X169374761Y-113247006D01*
X169227258Y-113502489D01*
X169227254Y-113502499D01*
X169114364Y-113775038D01*
X169114361Y-113775048D01*
X169083639Y-113889707D01*
X169038008Y-114060004D01*
X169038006Y-114060015D01*
X168999500Y-114352486D01*
X161300500Y-114352486D01*
X161300500Y-114321158D01*
X161300500Y-114321155D01*
X161300499Y-114321153D01*
X161278447Y-114210292D01*
X161269737Y-114166503D01*
X161269735Y-114166498D01*
X161209397Y-114020827D01*
X161209390Y-114020814D01*
X161121789Y-113889711D01*
X161121786Y-113889707D01*
X161010292Y-113778213D01*
X161010288Y-113778210D01*
X160879185Y-113690609D01*
X160879172Y-113690602D01*
X160733501Y-113630264D01*
X160733489Y-113630261D01*
X160578845Y-113599500D01*
X160578842Y-113599500D01*
X160421158Y-113599500D01*
X160421155Y-113599500D01*
X160266510Y-113630261D01*
X160266498Y-113630264D01*
X160120827Y-113690602D01*
X160120814Y-113690609D01*
X159989711Y-113778210D01*
X159989707Y-113778213D01*
X159878213Y-113889707D01*
X159878210Y-113889711D01*
X159790609Y-114020814D01*
X159790602Y-114020827D01*
X159730264Y-114166498D01*
X159730261Y-114166510D01*
X159699500Y-114321153D01*
X149353232Y-114321153D01*
X149310292Y-114278213D01*
X149310288Y-114278210D01*
X149179185Y-114190609D01*
X149179172Y-114190602D01*
X149033501Y-114130264D01*
X149033489Y-114130261D01*
X148878845Y-114099500D01*
X148878842Y-114099500D01*
X148721158Y-114099500D01*
X148721155Y-114099500D01*
X148566510Y-114130261D01*
X148566498Y-114130264D01*
X148420827Y-114190602D01*
X148420814Y-114190609D01*
X148289711Y-114278210D01*
X148289707Y-114278213D01*
X148178213Y-114389707D01*
X148178210Y-114389711D01*
X148090609Y-114520814D01*
X148090602Y-114520827D01*
X148030264Y-114666498D01*
X148030261Y-114666510D01*
X147999500Y-114821153D01*
X117687701Y-114821153D01*
X117578845Y-114799500D01*
X117578842Y-114799500D01*
X117421158Y-114799500D01*
X117421155Y-114799500D01*
X117266510Y-114830261D01*
X117266498Y-114830264D01*
X117120827Y-114890602D01*
X117120814Y-114890609D01*
X116989711Y-114978210D01*
X116989707Y-114978213D01*
X116878213Y-115089707D01*
X116878210Y-115089711D01*
X116790609Y-115220814D01*
X116790602Y-115220827D01*
X116730264Y-115366498D01*
X116730261Y-115366510D01*
X116699500Y-115521153D01*
X105350000Y-115521153D01*
X105350000Y-115473753D01*
X105316757Y-115263872D01*
X105316757Y-115263869D01*
X105251095Y-115061782D01*
X105154624Y-114872449D01*
X105115270Y-114818282D01*
X105115269Y-114818282D01*
X104482962Y-115450590D01*
X104465925Y-115387007D01*
X104400099Y-115272993D01*
X104307007Y-115179901D01*
X104192993Y-115114075D01*
X104129409Y-115097037D01*
X104761716Y-114464728D01*
X104707547Y-114425373D01*
X104707547Y-114425372D01*
X104698500Y-114420763D01*
X104647706Y-114372788D01*
X104630912Y-114304966D01*
X104653451Y-114238832D01*
X104698508Y-114199793D01*
X104707816Y-114195051D01*
X104796990Y-114130263D01*
X104879786Y-114070109D01*
X104879788Y-114070106D01*
X104879792Y-114070104D01*
X105030104Y-113919792D01*
X105030106Y-113919788D01*
X105030109Y-113919786D01*
X105155048Y-113747820D01*
X105155047Y-113747820D01*
X105155051Y-113747816D01*
X105219589Y-113621153D01*
X116699500Y-113621153D01*
X116699500Y-113778846D01*
X116730261Y-113933489D01*
X116730264Y-113933501D01*
X116790602Y-114079172D01*
X116790609Y-114079185D01*
X116878210Y-114210288D01*
X116878213Y-114210292D01*
X116989707Y-114321786D01*
X116989711Y-114321789D01*
X117120814Y-114409390D01*
X117120827Y-114409397D01*
X117254410Y-114464728D01*
X117266503Y-114469737D01*
X117414763Y-114499228D01*
X117421153Y-114500499D01*
X117421156Y-114500500D01*
X117421158Y-114500500D01*
X117578844Y-114500500D01*
X117578845Y-114500499D01*
X117733497Y-114469737D01*
X117879179Y-114409394D01*
X118010289Y-114321789D01*
X118121789Y-114210289D01*
X118209394Y-114079179D01*
X118217337Y-114060004D01*
X118233569Y-114020814D01*
X118269737Y-113933497D01*
X118300500Y-113778842D01*
X118300500Y-113621158D01*
X118300500Y-113621155D01*
X118300499Y-113621153D01*
X118269738Y-113466506D01*
X118269735Y-113466498D01*
X118209397Y-113320827D01*
X118209390Y-113320814D01*
X118121789Y-113189711D01*
X118121786Y-113189707D01*
X118010292Y-113078213D01*
X118010288Y-113078210D01*
X117879185Y-112990609D01*
X117879172Y-112990602D01*
X117733501Y-112930264D01*
X117733489Y-112930261D01*
X117578845Y-112899500D01*
X117578842Y-112899500D01*
X117421158Y-112899500D01*
X117421155Y-112899500D01*
X117266510Y-112930261D01*
X117266498Y-112930264D01*
X117120827Y-112990602D01*
X117120814Y-112990609D01*
X116989711Y-113078210D01*
X116989707Y-113078213D01*
X116878213Y-113189707D01*
X116878210Y-113189711D01*
X116790609Y-113320814D01*
X116790602Y-113320827D01*
X116730264Y-113466498D01*
X116730262Y-113466506D01*
X116699500Y-113621153D01*
X105219589Y-113621153D01*
X105251557Y-113558412D01*
X105317246Y-113356243D01*
X105350500Y-113146287D01*
X105350500Y-112933713D01*
X105317246Y-112723757D01*
X105251557Y-112521588D01*
X105155051Y-112332184D01*
X105155049Y-112332181D01*
X105155048Y-112332179D01*
X105030109Y-112160213D01*
X104879786Y-112009890D01*
X104707820Y-111884951D01*
X104707115Y-111884591D01*
X104699054Y-111880485D01*
X104648259Y-111832512D01*
X104631463Y-111764692D01*
X104653999Y-111698556D01*
X104699054Y-111659515D01*
X104707816Y-111655051D01*
X104812707Y-111578844D01*
X104879786Y-111530109D01*
X104879788Y-111530106D01*
X104879792Y-111530104D01*
X104988743Y-111421153D01*
X128199500Y-111421153D01*
X128199500Y-111578846D01*
X128230261Y-111733489D01*
X128230264Y-111733501D01*
X128290602Y-111879172D01*
X128290609Y-111879185D01*
X128378210Y-112010288D01*
X128378213Y-112010292D01*
X128489707Y-112121786D01*
X128489711Y-112121789D01*
X128620814Y-112209390D01*
X128620827Y-112209397D01*
X128717646Y-112249500D01*
X128766503Y-112269737D01*
X128906936Y-112297671D01*
X128921153Y-112300499D01*
X128921156Y-112300500D01*
X128921158Y-112300500D01*
X129078844Y-112300500D01*
X129078845Y-112300499D01*
X129233497Y-112269737D01*
X129379179Y-112209394D01*
X129510289Y-112121789D01*
X129621789Y-112010289D01*
X129709394Y-111879179D01*
X129769737Y-111733497D01*
X129800500Y-111578842D01*
X129800500Y-111421158D01*
X129800500Y-111421155D01*
X129800499Y-111421153D01*
X129792271Y-111379790D01*
X129769737Y-111266503D01*
X129710918Y-111124500D01*
X129709397Y-111120827D01*
X129709390Y-111120814D01*
X129621789Y-110989711D01*
X129621786Y-110989707D01*
X129510292Y-110878213D01*
X129510288Y-110878210D01*
X129379185Y-110790609D01*
X129379172Y-110790602D01*
X129233501Y-110730264D01*
X129233489Y-110730261D01*
X129078845Y-110699500D01*
X129078842Y-110699500D01*
X128921158Y-110699500D01*
X128921155Y-110699500D01*
X128766510Y-110730261D01*
X128766498Y-110730264D01*
X128620827Y-110790602D01*
X128620814Y-110790609D01*
X128489711Y-110878210D01*
X128489707Y-110878213D01*
X128378213Y-110989707D01*
X128378210Y-110989711D01*
X128290609Y-111120814D01*
X128290602Y-111120827D01*
X128230264Y-111266498D01*
X128230261Y-111266510D01*
X128199500Y-111421153D01*
X104988743Y-111421153D01*
X105030104Y-111379792D01*
X105035133Y-111372869D01*
X105057428Y-111342184D01*
X105057430Y-111342181D01*
X105078580Y-111313068D01*
X105155051Y-111207816D01*
X105251557Y-111018412D01*
X105317246Y-110816243D01*
X105350500Y-110606287D01*
X105350500Y-110393713D01*
X105317246Y-110183757D01*
X105251557Y-109981588D01*
X105155051Y-109792184D01*
X105155049Y-109792181D01*
X105155048Y-109792179D01*
X105030109Y-109620213D01*
X104879786Y-109469890D01*
X104707820Y-109344951D01*
X104707115Y-109344591D01*
X104699054Y-109340485D01*
X104648259Y-109292512D01*
X104631463Y-109224692D01*
X104653999Y-109158556D01*
X104699054Y-109119515D01*
X104707816Y-109115051D01*
X104729789Y-109099086D01*
X104879786Y-108990109D01*
X104879788Y-108990106D01*
X104879792Y-108990104D01*
X105030104Y-108839792D01*
X105030106Y-108839788D01*
X105030109Y-108839786D01*
X105155048Y-108667820D01*
X105155047Y-108667820D01*
X105155051Y-108667816D01*
X105251557Y-108478412D01*
X105317246Y-108276243D01*
X105350500Y-108066287D01*
X105350500Y-107853713D01*
X105317246Y-107643757D01*
X105251557Y-107441588D01*
X105155051Y-107252184D01*
X105155049Y-107252181D01*
X105155048Y-107252179D01*
X105030109Y-107080213D01*
X104879786Y-106929890D01*
X104707820Y-106804951D01*
X104705859Y-106803952D01*
X104699054Y-106800485D01*
X104648259Y-106752512D01*
X104631463Y-106684692D01*
X104653999Y-106618556D01*
X104699054Y-106579515D01*
X104707816Y-106575051D01*
X104729789Y-106559086D01*
X104879786Y-106450109D01*
X104879788Y-106450106D01*
X104879792Y-106450104D01*
X105030104Y-106299792D01*
X105030106Y-106299788D01*
X105030109Y-106299786D01*
X105155048Y-106127820D01*
X105155047Y-106127820D01*
X105155051Y-106127816D01*
X105251557Y-105938412D01*
X105317246Y-105736243D01*
X105350500Y-105526287D01*
X105350500Y-105313713D01*
X105338523Y-105238091D01*
X135999500Y-105238091D01*
X135999500Y-105250172D01*
X135999500Y-105761909D01*
X136011069Y-105938414D01*
X136033759Y-106284611D01*
X136102130Y-106803941D01*
X136102132Y-106803952D01*
X136204317Y-107317673D01*
X136204323Y-107317699D01*
X136339895Y-107823661D01*
X136339899Y-107823675D01*
X136508272Y-108319683D01*
X136508276Y-108319694D01*
X136708731Y-108803634D01*
X136940408Y-109273430D01*
X137202312Y-109727061D01*
X137202328Y-109727086D01*
X137384350Y-109999500D01*
X137493336Y-110162609D01*
X137812217Y-110578182D01*
X138157594Y-110972010D01*
X138527990Y-111342406D01*
X138921818Y-111687783D01*
X139337391Y-112006664D01*
X139337397Y-112006668D01*
X139772913Y-112297671D01*
X139772938Y-112297687D01*
X140226569Y-112559591D01*
X140533133Y-112710771D01*
X140696369Y-112791270D01*
X141180314Y-112991727D01*
X141676333Y-113160103D01*
X142182303Y-113295677D01*
X142182312Y-113295678D01*
X142182326Y-113295682D01*
X142683228Y-113395317D01*
X142696057Y-113397869D01*
X143215394Y-113466241D01*
X143738091Y-113500500D01*
X143738102Y-113500500D01*
X144261898Y-113500500D01*
X144261909Y-113500500D01*
X144784606Y-113466241D01*
X145303943Y-113397869D01*
X145551198Y-113348686D01*
X145817673Y-113295682D01*
X145817680Y-113295680D01*
X145817697Y-113295677D01*
X146323667Y-113160103D01*
X146819686Y-112991727D01*
X147231487Y-112821153D01*
X154999500Y-112821153D01*
X154999500Y-112978846D01*
X155030261Y-113133489D01*
X155030264Y-113133501D01*
X155090602Y-113279172D01*
X155090609Y-113279185D01*
X155178210Y-113410288D01*
X155178213Y-113410292D01*
X155289707Y-113521786D01*
X155289711Y-113521789D01*
X155420814Y-113609390D01*
X155420827Y-113609397D01*
X155566498Y-113669735D01*
X155566503Y-113669737D01*
X155721153Y-113700499D01*
X155721156Y-113700500D01*
X155721158Y-113700500D01*
X155878844Y-113700500D01*
X155878845Y-113700499D01*
X156033497Y-113669737D01*
X156179179Y-113609394D01*
X156310289Y-113521789D01*
X156421789Y-113410289D01*
X156509394Y-113279179D01*
X156569737Y-113133497D01*
X156600500Y-112978842D01*
X156600500Y-112821158D01*
X156600500Y-112821155D01*
X156600499Y-112821153D01*
X156581126Y-112723760D01*
X156569737Y-112666503D01*
X156567924Y-112662127D01*
X156509397Y-112520827D01*
X156509390Y-112520814D01*
X156421789Y-112389711D01*
X156421786Y-112389707D01*
X156310292Y-112278213D01*
X156310288Y-112278210D01*
X156179185Y-112190609D01*
X156179172Y-112190602D01*
X156033501Y-112130264D01*
X156033489Y-112130261D01*
X155878845Y-112099500D01*
X155878842Y-112099500D01*
X155721158Y-112099500D01*
X155721155Y-112099500D01*
X155566510Y-112130261D01*
X155566498Y-112130264D01*
X155420827Y-112190602D01*
X155420814Y-112190609D01*
X155289711Y-112278210D01*
X155289707Y-112278213D01*
X155178213Y-112389707D01*
X155178210Y-112389711D01*
X155090609Y-112520814D01*
X155090602Y-112520827D01*
X155030264Y-112666498D01*
X155030261Y-112666510D01*
X154999500Y-112821153D01*
X147231487Y-112821153D01*
X147303631Y-112791270D01*
X147466867Y-112710771D01*
X147480894Y-112703854D01*
X147773430Y-112559591D01*
X148111573Y-112364364D01*
X148227070Y-112297682D01*
X148662609Y-112006664D01*
X149078182Y-111687783D01*
X149472010Y-111342406D01*
X149842406Y-110972010D01*
X150187783Y-110578182D01*
X150506664Y-110162609D01*
X150797682Y-109727070D01*
X151059591Y-109273430D01*
X151291270Y-108803631D01*
X151491727Y-108319686D01*
X151660103Y-107823667D01*
X151795677Y-107317697D01*
X151808709Y-107252184D01*
X151872815Y-106929896D01*
X151897869Y-106803943D01*
X151966241Y-106284606D01*
X152000500Y-105761909D01*
X152000500Y-105238091D01*
X151973173Y-104821153D01*
X156699500Y-104821153D01*
X156699500Y-104978846D01*
X156730261Y-105133489D01*
X156730264Y-105133501D01*
X156790602Y-105279172D01*
X156790609Y-105279185D01*
X156878210Y-105410288D01*
X156878213Y-105410292D01*
X156989707Y-105521786D01*
X156989711Y-105521789D01*
X157120814Y-105609390D01*
X157120827Y-105609397D01*
X157266498Y-105669735D01*
X157266503Y-105669737D01*
X157421153Y-105700499D01*
X157421156Y-105700500D01*
X157421158Y-105700500D01*
X157578844Y-105700500D01*
X157578845Y-105700499D01*
X157733497Y-105669737D01*
X157879179Y-105609394D01*
X158010289Y-105521789D01*
X158121789Y-105410289D01*
X158209394Y-105279179D01*
X158269737Y-105133497D01*
X158300500Y-104978842D01*
X158300500Y-104921153D01*
X159699500Y-104921153D01*
X159699500Y-105078846D01*
X159730261Y-105233489D01*
X159730264Y-105233501D01*
X159790602Y-105379172D01*
X159790609Y-105379185D01*
X159878210Y-105510288D01*
X159878213Y-105510292D01*
X159989707Y-105621786D01*
X159989711Y-105621789D01*
X160120814Y-105709390D01*
X160120827Y-105709397D01*
X160218438Y-105749828D01*
X160266503Y-105769737D01*
X160421153Y-105800499D01*
X160421156Y-105800500D01*
X160421158Y-105800500D01*
X160578844Y-105800500D01*
X160578845Y-105800499D01*
X160733497Y-105769737D01*
X160879179Y-105709394D01*
X161010289Y-105621789D01*
X161121789Y-105510289D01*
X161209394Y-105379179D01*
X161269737Y-105233497D01*
X161300500Y-105078842D01*
X161300500Y-104921158D01*
X161300500Y-104921155D01*
X161300499Y-104921153D01*
X161281010Y-104823176D01*
X161269737Y-104766503D01*
X161247238Y-104712184D01*
X161209397Y-104620827D01*
X161209390Y-104620814D01*
X161121789Y-104489711D01*
X161121786Y-104489707D01*
X161010292Y-104378213D01*
X161010288Y-104378210D01*
X160879185Y-104290609D01*
X160879172Y-104290602D01*
X160733501Y-104230264D01*
X160733489Y-104230261D01*
X160578845Y-104199500D01*
X160578842Y-104199500D01*
X160421158Y-104199500D01*
X160421155Y-104199500D01*
X160266510Y-104230261D01*
X160266498Y-104230264D01*
X160120827Y-104290602D01*
X160120814Y-104290609D01*
X159989711Y-104378210D01*
X159989707Y-104378213D01*
X159878213Y-104489707D01*
X159878210Y-104489711D01*
X159790609Y-104620814D01*
X159790602Y-104620827D01*
X159730264Y-104766498D01*
X159730261Y-104766510D01*
X159699500Y-104921153D01*
X158300500Y-104921153D01*
X158300500Y-104821158D01*
X158300500Y-104821155D01*
X158300499Y-104821153D01*
X158279461Y-104715388D01*
X158269737Y-104666503D01*
X158250812Y-104620814D01*
X158209397Y-104520827D01*
X158209390Y-104520814D01*
X158121789Y-104389711D01*
X158121786Y-104389707D01*
X158010292Y-104278213D01*
X158010288Y-104278210D01*
X157879185Y-104190609D01*
X157879172Y-104190602D01*
X157733501Y-104130264D01*
X157733489Y-104130261D01*
X157578845Y-104099500D01*
X157578842Y-104099500D01*
X157421158Y-104099500D01*
X157421155Y-104099500D01*
X157266510Y-104130261D01*
X157266498Y-104130264D01*
X157120827Y-104190602D01*
X157120814Y-104190609D01*
X156989711Y-104278210D01*
X156989707Y-104278213D01*
X156878213Y-104389707D01*
X156878210Y-104389711D01*
X156790609Y-104520814D01*
X156790602Y-104520827D01*
X156730264Y-104666498D01*
X156730261Y-104666510D01*
X156699500Y-104821153D01*
X151973173Y-104821153D01*
X151966241Y-104715394D01*
X151897869Y-104196057D01*
X151858970Y-104000499D01*
X151795682Y-103682326D01*
X151795676Y-103682300D01*
X151770359Y-103587816D01*
X151660103Y-103176333D01*
X151491727Y-102680314D01*
X151291270Y-102196369D01*
X151159105Y-101928365D01*
X151059591Y-101726569D01*
X150797687Y-101272938D01*
X150797671Y-101272913D01*
X150506668Y-100837397D01*
X150506664Y-100837391D01*
X150187783Y-100421818D01*
X149842406Y-100027990D01*
X149472010Y-99657594D01*
X149409171Y-99602486D01*
X168999500Y-99602486D01*
X168999500Y-99897513D01*
X169017337Y-100032993D01*
X169038007Y-100189993D01*
X169114361Y-100474951D01*
X169114364Y-100474961D01*
X169227254Y-100747500D01*
X169227258Y-100747510D01*
X169374761Y-101002993D01*
X169554352Y-101237040D01*
X169554358Y-101237047D01*
X169762952Y-101445641D01*
X169762959Y-101445647D01*
X169997006Y-101625238D01*
X170252489Y-101772741D01*
X170252490Y-101772741D01*
X170252493Y-101772743D01*
X170525048Y-101885639D01*
X170810007Y-101961993D01*
X171102494Y-102000500D01*
X171102501Y-102000500D01*
X171397499Y-102000500D01*
X171397506Y-102000500D01*
X171689993Y-101961993D01*
X171974952Y-101885639D01*
X172247507Y-101772743D01*
X172502994Y-101625238D01*
X172737042Y-101445646D01*
X172945646Y-101237042D01*
X173125238Y-101002994D01*
X173272743Y-100747507D01*
X173385639Y-100474952D01*
X173461993Y-100189993D01*
X173500500Y-99897506D01*
X173500500Y-99602494D01*
X173461993Y-99310007D01*
X173385639Y-99025048D01*
X173378389Y-99007546D01*
X173330666Y-98892331D01*
X173272743Y-98752493D01*
X173243780Y-98702328D01*
X173125238Y-98497006D01*
X172945647Y-98262959D01*
X172945641Y-98262952D01*
X172737047Y-98054358D01*
X172737040Y-98054352D01*
X172649138Y-97986902D01*
X174584500Y-97986902D01*
X174584500Y-98223097D01*
X174621446Y-98456368D01*
X174694433Y-98680996D01*
X174784975Y-98858693D01*
X174801657Y-98891433D01*
X174940483Y-99082510D01*
X175107490Y-99249517D01*
X175142127Y-99274683D01*
X175184792Y-99330013D01*
X175190771Y-99399626D01*
X175158165Y-99461421D01*
X175142130Y-99475315D01*
X175135228Y-99480330D01*
X175107488Y-99500484D01*
X174940485Y-99667487D01*
X174940485Y-99667488D01*
X174940483Y-99667490D01*
X174884320Y-99744792D01*
X174801657Y-99858566D01*
X174694433Y-100069003D01*
X174621446Y-100293631D01*
X174584500Y-100526902D01*
X174584500Y-100763097D01*
X174621446Y-100996368D01*
X174694433Y-101220996D01*
X174801657Y-101431433D01*
X174940483Y-101622510D01*
X175107490Y-101789517D01*
X175298567Y-101928343D01*
X175364605Y-101961991D01*
X175509003Y-102035566D01*
X175509005Y-102035566D01*
X175509008Y-102035568D01*
X175629412Y-102074689D01*
X175733631Y-102108553D01*
X175966903Y-102145500D01*
X175966908Y-102145500D01*
X176203097Y-102145500D01*
X176436368Y-102108553D01*
X176660992Y-102035568D01*
X176871433Y-101928343D01*
X177062510Y-101789517D01*
X177229517Y-101622510D01*
X177254682Y-101587872D01*
X177310011Y-101545207D01*
X177379625Y-101539228D01*
X177441420Y-101571833D01*
X177455315Y-101587870D01*
X177480483Y-101622510D01*
X177647490Y-101789517D01*
X177838567Y-101928343D01*
X177904605Y-101961991D01*
X178049003Y-102035566D01*
X178049005Y-102035566D01*
X178049008Y-102035568D01*
X178169412Y-102074689D01*
X178273631Y-102108553D01*
X178506903Y-102145500D01*
X178506908Y-102145500D01*
X178743097Y-102145500D01*
X178976368Y-102108553D01*
X179200992Y-102035568D01*
X179411433Y-101928343D01*
X179602510Y-101789517D01*
X179769517Y-101622510D01*
X179794682Y-101587872D01*
X179850011Y-101545207D01*
X179919625Y-101539228D01*
X179981420Y-101571833D01*
X179995315Y-101587870D01*
X180020483Y-101622510D01*
X180187490Y-101789517D01*
X180378567Y-101928343D01*
X180444605Y-101961991D01*
X180589003Y-102035566D01*
X180589005Y-102035566D01*
X180589008Y-102035568D01*
X180709412Y-102074689D01*
X180813631Y-102108553D01*
X181046903Y-102145500D01*
X181046908Y-102145500D01*
X181283097Y-102145500D01*
X181516368Y-102108553D01*
X181740992Y-102035568D01*
X181951433Y-101928343D01*
X182142510Y-101789517D01*
X182309517Y-101622510D01*
X182448343Y-101431433D01*
X182555568Y-101220992D01*
X182628553Y-100996368D01*
X182650434Y-100858217D01*
X182665500Y-100763097D01*
X182665500Y-100526902D01*
X182628553Y-100293631D01*
X182555566Y-100069003D01*
X182468180Y-99897499D01*
X182448343Y-99858567D01*
X182309517Y-99667490D01*
X182244513Y-99602486D01*
X183749500Y-99602486D01*
X183749500Y-99897513D01*
X183767337Y-100032993D01*
X183788007Y-100189993D01*
X183864361Y-100474951D01*
X183864364Y-100474961D01*
X183977254Y-100747500D01*
X183977258Y-100747510D01*
X184124761Y-101002993D01*
X184304352Y-101237040D01*
X184304358Y-101237047D01*
X184512952Y-101445641D01*
X184512959Y-101445647D01*
X184747006Y-101625238D01*
X185002489Y-101772741D01*
X185002490Y-101772741D01*
X185002493Y-101772743D01*
X185275048Y-101885639D01*
X185560007Y-101961993D01*
X185852494Y-102000500D01*
X185852501Y-102000500D01*
X186147499Y-102000500D01*
X186147506Y-102000500D01*
X186439993Y-101961993D01*
X186724952Y-101885639D01*
X186997507Y-101772743D01*
X187252994Y-101625238D01*
X187487042Y-101445646D01*
X187695646Y-101237042D01*
X187875238Y-101002994D01*
X188022743Y-100747507D01*
X188135639Y-100474952D01*
X188211993Y-100189993D01*
X188250500Y-99897506D01*
X188250500Y-99602494D01*
X188211993Y-99310007D01*
X188135639Y-99025048D01*
X188128389Y-99007546D01*
X188080666Y-98892331D01*
X188022743Y-98752493D01*
X187993780Y-98702328D01*
X187875238Y-98497006D01*
X187695647Y-98262959D01*
X187695641Y-98262952D01*
X187487047Y-98054358D01*
X187487040Y-98054352D01*
X187252993Y-97874761D01*
X186997510Y-97727258D01*
X186997500Y-97727254D01*
X186724961Y-97614364D01*
X186724954Y-97614362D01*
X186724952Y-97614361D01*
X186439993Y-97538007D01*
X186391113Y-97531571D01*
X186147513Y-97499500D01*
X186147506Y-97499500D01*
X185852494Y-97499500D01*
X185852486Y-97499500D01*
X185592273Y-97533759D01*
X185560007Y-97538007D01*
X185320695Y-97602130D01*
X185275048Y-97614361D01*
X185275038Y-97614364D01*
X185002499Y-97727254D01*
X185002489Y-97727258D01*
X184747006Y-97874761D01*
X184512959Y-98054352D01*
X184512952Y-98054358D01*
X184304358Y-98262952D01*
X184304352Y-98262959D01*
X184124761Y-98497006D01*
X183977258Y-98752489D01*
X183977254Y-98752499D01*
X183864364Y-99025038D01*
X183864361Y-99025048D01*
X183788738Y-99307281D01*
X183788008Y-99310004D01*
X183788006Y-99310015D01*
X183749500Y-99602486D01*
X182244513Y-99602486D01*
X182142510Y-99500483D01*
X182107872Y-99475317D01*
X182065207Y-99419989D01*
X182059228Y-99350375D01*
X182091833Y-99288580D01*
X182107873Y-99274682D01*
X182142510Y-99249517D01*
X182309517Y-99082510D01*
X182448343Y-98891433D01*
X182555568Y-98680992D01*
X182628553Y-98456368D01*
X182659186Y-98262959D01*
X182665500Y-98223097D01*
X182665500Y-97986902D01*
X182628553Y-97753631D01*
X182583301Y-97614361D01*
X182555568Y-97529008D01*
X182555566Y-97529005D01*
X182555566Y-97529003D01*
X182448342Y-97318566D01*
X182434999Y-97300201D01*
X182309517Y-97127490D01*
X182142510Y-96960483D01*
X181951433Y-96821657D01*
X181740996Y-96714433D01*
X181516368Y-96641446D01*
X181283097Y-96604500D01*
X181283092Y-96604500D01*
X181046908Y-96604500D01*
X181046903Y-96604500D01*
X180813631Y-96641446D01*
X180589003Y-96714433D01*
X180378566Y-96821657D01*
X180269550Y-96900862D01*
X180187490Y-96960483D01*
X180187488Y-96960485D01*
X180187487Y-96960485D01*
X180020484Y-97127488D01*
X179995318Y-97162127D01*
X179939987Y-97204792D01*
X179870374Y-97210771D01*
X179808579Y-97178165D01*
X179794682Y-97162127D01*
X179789919Y-97155571D01*
X179769517Y-97127490D01*
X179602510Y-96960483D01*
X179411433Y-96821657D01*
X179200996Y-96714433D01*
X178976368Y-96641446D01*
X178743097Y-96604500D01*
X178743092Y-96604500D01*
X178506908Y-96604500D01*
X178506903Y-96604500D01*
X178273631Y-96641446D01*
X178049003Y-96714433D01*
X177838566Y-96821657D01*
X177729550Y-96900862D01*
X177647490Y-96960483D01*
X177647488Y-96960485D01*
X177647487Y-96960485D01*
X177480484Y-97127488D01*
X177455318Y-97162127D01*
X177399987Y-97204792D01*
X177330374Y-97210771D01*
X177268579Y-97178165D01*
X177254682Y-97162127D01*
X177249919Y-97155571D01*
X177229517Y-97127490D01*
X177062510Y-96960483D01*
X176871433Y-96821657D01*
X176660996Y-96714433D01*
X176436368Y-96641446D01*
X176203097Y-96604500D01*
X176203092Y-96604500D01*
X175966908Y-96604500D01*
X175966903Y-96604500D01*
X175733631Y-96641446D01*
X175509003Y-96714433D01*
X175298566Y-96821657D01*
X175189550Y-96900862D01*
X175107490Y-96960483D01*
X175107488Y-96960485D01*
X175107487Y-96960485D01*
X174940485Y-97127487D01*
X174940485Y-97127488D01*
X174940483Y-97127490D01*
X174884320Y-97204792D01*
X174801657Y-97318566D01*
X174694433Y-97529003D01*
X174621446Y-97753631D01*
X174584500Y-97986902D01*
X172649138Y-97986902D01*
X172502993Y-97874761D01*
X172247510Y-97727258D01*
X172247500Y-97727254D01*
X171974961Y-97614364D01*
X171974954Y-97614362D01*
X171974952Y-97614361D01*
X171689993Y-97538007D01*
X171641113Y-97531571D01*
X171397513Y-97499500D01*
X171397506Y-97499500D01*
X171102494Y-97499500D01*
X171102486Y-97499500D01*
X170842273Y-97533759D01*
X170810007Y-97538007D01*
X170570695Y-97602130D01*
X170525048Y-97614361D01*
X170525038Y-97614364D01*
X170252499Y-97727254D01*
X170252489Y-97727258D01*
X169997006Y-97874761D01*
X169762959Y-98054352D01*
X169762952Y-98054358D01*
X169554358Y-98262952D01*
X169554352Y-98262959D01*
X169374761Y-98497006D01*
X169227258Y-98752489D01*
X169227254Y-98752499D01*
X169114364Y-99025038D01*
X169114361Y-99025048D01*
X169038738Y-99307281D01*
X169038008Y-99310004D01*
X169038006Y-99310015D01*
X168999500Y-99602486D01*
X149409171Y-99602486D01*
X149078182Y-99312217D01*
X148662609Y-98993336D01*
X148537586Y-98909798D01*
X148227086Y-98702328D01*
X148227061Y-98702312D01*
X147773430Y-98440408D01*
X147303634Y-98208731D01*
X146819694Y-98008276D01*
X146819683Y-98008272D01*
X146323675Y-97839899D01*
X146323661Y-97839895D01*
X145817699Y-97704323D01*
X145817673Y-97704317D01*
X145303952Y-97602132D01*
X145303941Y-97602130D01*
X144784611Y-97533759D01*
X144621263Y-97523053D01*
X144261909Y-97499500D01*
X143738091Y-97499500D01*
X143399875Y-97521667D01*
X143215388Y-97533759D01*
X142696058Y-97602130D01*
X142696047Y-97602132D01*
X142182326Y-97704317D01*
X142182300Y-97704323D01*
X141676338Y-97839895D01*
X141676324Y-97839899D01*
X141180316Y-98008272D01*
X141180305Y-98008276D01*
X140696365Y-98208731D01*
X140226569Y-98440408D01*
X139772938Y-98702312D01*
X139772913Y-98702328D01*
X139337397Y-98993331D01*
X139132571Y-99150500D01*
X138921818Y-99312217D01*
X138878307Y-99350375D01*
X138527985Y-99657598D01*
X138157598Y-100027985D01*
X138015520Y-100189995D01*
X137812217Y-100421818D01*
X137726909Y-100532993D01*
X137493331Y-100837397D01*
X137202328Y-101272913D01*
X137202312Y-101272938D01*
X136940408Y-101726569D01*
X136708731Y-102196365D01*
X136508276Y-102680305D01*
X136508272Y-102680316D01*
X136339899Y-103176324D01*
X136339895Y-103176338D01*
X136204323Y-103682300D01*
X136204317Y-103682326D01*
X136102132Y-104196047D01*
X136102130Y-104196058D01*
X136033759Y-104715388D01*
X136026827Y-104821153D01*
X135999500Y-105238091D01*
X105338523Y-105238091D01*
X105317246Y-105103757D01*
X105251557Y-104901588D01*
X105155051Y-104712184D01*
X105155049Y-104712181D01*
X105155048Y-104712179D01*
X105030109Y-104540213D01*
X104879786Y-104389890D01*
X104707820Y-104264951D01*
X104707115Y-104264591D01*
X104699054Y-104260485D01*
X104648259Y-104212512D01*
X104631463Y-104144692D01*
X104653999Y-104078556D01*
X104699054Y-104039515D01*
X104707816Y-104035051D01*
X104755373Y-104000499D01*
X104879786Y-103910109D01*
X104879788Y-103910106D01*
X104879792Y-103910104D01*
X105030104Y-103759792D01*
X105030106Y-103759788D01*
X105030109Y-103759786D01*
X105155048Y-103587820D01*
X105155047Y-103587820D01*
X105155051Y-103587816D01*
X105251557Y-103398412D01*
X105317246Y-103196243D01*
X105329139Y-103121153D01*
X106799500Y-103121153D01*
X106799500Y-103278846D01*
X106830261Y-103433489D01*
X106830264Y-103433501D01*
X106890602Y-103579172D01*
X106890609Y-103579185D01*
X106978210Y-103710288D01*
X106978213Y-103710292D01*
X107089707Y-103821786D01*
X107089711Y-103821789D01*
X107220814Y-103909390D01*
X107220827Y-103909397D01*
X107366498Y-103969735D01*
X107366503Y-103969737D01*
X107521153Y-104000499D01*
X107521156Y-104000500D01*
X107521158Y-104000500D01*
X107678844Y-104000500D01*
X107678845Y-104000499D01*
X107833497Y-103969737D01*
X107979179Y-103909394D01*
X108110289Y-103821789D01*
X108221789Y-103710289D01*
X108309394Y-103579179D01*
X108369737Y-103433497D01*
X108400500Y-103278842D01*
X108400500Y-103121158D01*
X108400500Y-103121155D01*
X108400499Y-103121153D01*
X108369738Y-102966510D01*
X108369737Y-102966503D01*
X108309637Y-102821407D01*
X108309397Y-102820827D01*
X108309390Y-102820814D01*
X108221789Y-102689711D01*
X108221786Y-102689707D01*
X108110292Y-102578213D01*
X108110288Y-102578210D01*
X107979185Y-102490609D01*
X107979172Y-102490602D01*
X107833501Y-102430264D01*
X107833489Y-102430261D01*
X107678845Y-102399500D01*
X107678842Y-102399500D01*
X107521158Y-102399500D01*
X107521155Y-102399500D01*
X107366510Y-102430261D01*
X107366498Y-102430264D01*
X107220827Y-102490602D01*
X107220814Y-102490609D01*
X107089711Y-102578210D01*
X107089707Y-102578213D01*
X106978213Y-102689707D01*
X106978210Y-102689711D01*
X106890609Y-102820814D01*
X106890602Y-102820827D01*
X106830264Y-102966498D01*
X106830261Y-102966510D01*
X106799500Y-103121153D01*
X105329139Y-103121153D01*
X105350500Y-102986287D01*
X105350500Y-102773713D01*
X105317246Y-102563757D01*
X105251557Y-102361588D01*
X105155051Y-102172184D01*
X105155049Y-102172181D01*
X105155048Y-102172179D01*
X105030109Y-102000213D01*
X104879786Y-101849890D01*
X104707817Y-101724949D01*
X104698504Y-101720204D01*
X104647707Y-101672230D01*
X104630912Y-101604409D01*
X104653449Y-101538274D01*
X104698507Y-101499232D01*
X104707555Y-101494622D01*
X104761716Y-101455270D01*
X104761717Y-101455270D01*
X104129408Y-100822962D01*
X104192993Y-100805925D01*
X104307007Y-100740099D01*
X104400099Y-100647007D01*
X104465925Y-100532993D01*
X104482962Y-100469409D01*
X105115270Y-101101717D01*
X105115270Y-101101716D01*
X105154622Y-101047554D01*
X105251095Y-100858217D01*
X105316757Y-100656130D01*
X105316757Y-100656127D01*
X105350000Y-100446246D01*
X105350000Y-100233753D01*
X105316757Y-100023872D01*
X105316757Y-100023869D01*
X105251095Y-99821782D01*
X105154624Y-99632449D01*
X105115270Y-99578282D01*
X105115269Y-99578282D01*
X104482962Y-100210590D01*
X104465925Y-100147007D01*
X104400099Y-100032993D01*
X104307007Y-99939901D01*
X104192993Y-99874075D01*
X104129409Y-99857037D01*
X104799627Y-99186818D01*
X104860950Y-99153333D01*
X104887307Y-99150499D01*
X104897872Y-99150499D01*
X104957483Y-99144091D01*
X105092331Y-99093796D01*
X105207546Y-99007546D01*
X105293796Y-98892331D01*
X105344091Y-98757483D01*
X105350500Y-98697873D01*
X105350499Y-97668872D01*
X131463500Y-97668872D01*
X131463500Y-97931127D01*
X131479724Y-98054352D01*
X131497730Y-98191116D01*
X131564528Y-98440409D01*
X131565602Y-98444418D01*
X131565605Y-98444428D01*
X131665953Y-98686690D01*
X131665958Y-98686700D01*
X131797075Y-98913803D01*
X131956718Y-99121851D01*
X131956726Y-99121860D01*
X132142140Y-99307274D01*
X132142148Y-99307281D01*
X132142149Y-99307282D01*
X132190554Y-99344424D01*
X132350196Y-99466924D01*
X132577299Y-99598041D01*
X132577309Y-99598046D01*
X132754211Y-99671321D01*
X132819581Y-99698398D01*
X133072884Y-99766270D01*
X133332880Y-99800500D01*
X133332887Y-99800500D01*
X133595113Y-99800500D01*
X133595120Y-99800500D01*
X133855116Y-99766270D01*
X134108419Y-99698398D01*
X134339937Y-99602500D01*
X134350690Y-99598046D01*
X134350691Y-99598045D01*
X134350697Y-99598043D01*
X134577803Y-99466924D01*
X134785851Y-99307282D01*
X134785855Y-99307277D01*
X134785860Y-99307274D01*
X134971274Y-99121860D01*
X134971277Y-99121855D01*
X134971282Y-99121851D01*
X135130924Y-98913803D01*
X135262043Y-98686697D01*
X135264405Y-98680996D01*
X135340616Y-98497006D01*
X135362398Y-98444419D01*
X135430270Y-98191116D01*
X135464500Y-97931120D01*
X135464500Y-97668880D01*
X135430270Y-97408884D01*
X135362398Y-97155581D01*
X135350762Y-97127490D01*
X135262046Y-96913309D01*
X135262041Y-96913299D01*
X135130924Y-96686196D01*
X134992811Y-96506206D01*
X134971282Y-96478149D01*
X134971281Y-96478148D01*
X134971274Y-96478140D01*
X134785860Y-96292726D01*
X134785851Y-96292718D01*
X134577803Y-96133075D01*
X134350700Y-96001958D01*
X134350690Y-96001953D01*
X134108428Y-95901605D01*
X134108421Y-95901603D01*
X134108419Y-95901602D01*
X133855116Y-95833730D01*
X133797339Y-95826123D01*
X133595127Y-95799500D01*
X133595120Y-95799500D01*
X133332880Y-95799500D01*
X133332872Y-95799500D01*
X133101772Y-95829926D01*
X133072884Y-95833730D01*
X132819581Y-95901602D01*
X132819571Y-95901605D01*
X132577309Y-96001953D01*
X132577299Y-96001958D01*
X132350196Y-96133075D01*
X132142148Y-96292718D01*
X131956718Y-96478148D01*
X131797075Y-96686196D01*
X131665958Y-96913299D01*
X131665953Y-96913309D01*
X131565605Y-97155571D01*
X131565602Y-97155581D01*
X131526852Y-97300201D01*
X131497730Y-97408885D01*
X131463500Y-97668872D01*
X105350499Y-97668872D01*
X105350499Y-96902128D01*
X105344091Y-96842517D01*
X105296318Y-96714432D01*
X105293797Y-96707671D01*
X105293793Y-96707664D01*
X105207547Y-96592455D01*
X105207544Y-96592452D01*
X105092335Y-96506206D01*
X105092328Y-96506202D01*
X104957482Y-96455908D01*
X104957483Y-96455908D01*
X104897883Y-96449501D01*
X104897881Y-96449500D01*
X104897873Y-96449500D01*
X104897864Y-96449500D01*
X103102129Y-96449500D01*
X103102123Y-96449501D01*
X103042516Y-96455908D01*
X102907671Y-96506202D01*
X102907664Y-96506206D01*
X102792455Y-96592452D01*
X102792452Y-96592455D01*
X102706206Y-96707664D01*
X102706202Y-96707671D01*
X102655908Y-96842517D01*
X102649501Y-96902116D01*
X102649501Y-96902123D01*
X102649500Y-96902135D01*
X100500500Y-96902135D01*
X100500500Y-94721153D01*
X106799500Y-94721153D01*
X106799500Y-94878846D01*
X106830261Y-95033489D01*
X106830264Y-95033501D01*
X106890602Y-95179172D01*
X106890609Y-95179185D01*
X106978210Y-95310288D01*
X106978213Y-95310292D01*
X107089707Y-95421786D01*
X107089711Y-95421789D01*
X107220814Y-95509390D01*
X107220827Y-95509397D01*
X107366498Y-95569735D01*
X107366503Y-95569737D01*
X107521153Y-95600499D01*
X107521156Y-95600500D01*
X107521158Y-95600500D01*
X107678844Y-95600500D01*
X107678845Y-95600499D01*
X107833497Y-95569737D01*
X107979179Y-95509394D01*
X108110289Y-95421789D01*
X108221789Y-95310289D01*
X108309394Y-95179179D01*
X108369737Y-95033497D01*
X108400500Y-94878842D01*
X108400500Y-94721158D01*
X108400500Y-94721155D01*
X108400499Y-94721153D01*
X108369738Y-94566510D01*
X108369737Y-94566503D01*
X108369735Y-94566498D01*
X108309397Y-94420827D01*
X108309390Y-94420814D01*
X108221789Y-94289711D01*
X108221786Y-94289707D01*
X108110292Y-94178213D01*
X108110288Y-94178210D01*
X107979185Y-94090609D01*
X107979172Y-94090602D01*
X107833501Y-94030264D01*
X107833489Y-94030261D01*
X107678845Y-93999500D01*
X107678842Y-93999500D01*
X107521158Y-93999500D01*
X107521155Y-93999500D01*
X107366510Y-94030261D01*
X107366498Y-94030264D01*
X107220827Y-94090602D01*
X107220814Y-94090609D01*
X107089711Y-94178210D01*
X107089707Y-94178213D01*
X106978213Y-94289707D01*
X106978210Y-94289711D01*
X106890609Y-94420814D01*
X106890602Y-94420827D01*
X106830264Y-94566498D01*
X106830261Y-94566510D01*
X106799500Y-94721153D01*
X100500500Y-94721153D01*
X100500500Y-93004427D01*
X100500816Y-92995581D01*
X100505949Y-92923811D01*
X100515130Y-92795436D01*
X100517646Y-92777938D01*
X100559356Y-92586199D01*
X100564333Y-92569248D01*
X100632911Y-92385385D01*
X100640259Y-92369298D01*
X100702815Y-92254734D01*
X100734291Y-92197089D01*
X100743845Y-92182221D01*
X100861448Y-92025123D01*
X100873020Y-92011769D01*
X101011769Y-91873020D01*
X101025123Y-91861448D01*
X101182221Y-91743845D01*
X101197089Y-91734291D01*
X101369298Y-91640258D01*
X101385385Y-91632911D01*
X101569248Y-91564333D01*
X101586199Y-91559356D01*
X101777938Y-91517646D01*
X101795436Y-91515130D01*
X101995582Y-91500816D01*
X102004428Y-91500500D01*
X120565890Y-91500500D01*
X120565892Y-91500500D01*
X120693186Y-91466392D01*
X120807314Y-91400500D01*
X120900500Y-91307314D01*
X120966392Y-91193186D01*
X121000500Y-91065892D01*
X121000500Y-85721153D01*
X135699500Y-85721153D01*
X135699500Y-85878846D01*
X135730261Y-86033489D01*
X135730264Y-86033501D01*
X135790602Y-86179172D01*
X135790609Y-86179185D01*
X135878210Y-86310288D01*
X135878213Y-86310292D01*
X135989707Y-86421786D01*
X135989711Y-86421789D01*
X136120814Y-86509390D01*
X136120827Y-86509397D01*
X136266498Y-86569735D01*
X136266503Y-86569737D01*
X136421153Y-86600499D01*
X136421156Y-86600500D01*
X136421158Y-86600500D01*
X136578844Y-86600500D01*
X136578845Y-86600499D01*
X136733497Y-86569737D01*
X136879179Y-86509394D01*
X137010289Y-86421789D01*
X137121789Y-86310289D01*
X137140553Y-86282205D01*
X137194162Y-86237402D01*
X137263486Y-86228692D01*
X137326515Y-86258845D01*
X137331336Y-86263415D01*
X137389707Y-86321786D01*
X137389711Y-86321789D01*
X137520814Y-86409390D01*
X137520827Y-86409397D01*
X137666498Y-86469735D01*
X137666503Y-86469737D01*
X137821153Y-86500499D01*
X137821156Y-86500500D01*
X137821158Y-86500500D01*
X137978844Y-86500500D01*
X137978845Y-86500499D01*
X138133497Y-86469737D01*
X138279179Y-86409394D01*
X138410289Y-86321789D01*
X138412312Y-86319766D01*
X138413634Y-86319043D01*
X138414999Y-86317924D01*
X138415211Y-86318182D01*
X138473632Y-86286276D01*
X138543324Y-86291255D01*
X138584939Y-86317999D01*
X138585001Y-86317924D01*
X138585648Y-86318454D01*
X138587688Y-86319766D01*
X138589711Y-86321789D01*
X138720814Y-86409390D01*
X138720827Y-86409397D01*
X138866498Y-86469735D01*
X138866503Y-86469737D01*
X139021153Y-86500499D01*
X139021156Y-86500500D01*
X139021158Y-86500500D01*
X139178844Y-86500500D01*
X139178845Y-86500499D01*
X139333497Y-86469737D01*
X139479179Y-86409394D01*
X139610289Y-86321789D01*
X139721789Y-86210289D01*
X139809394Y-86079179D01*
X139869737Y-85933497D01*
X139900500Y-85778842D01*
X139900500Y-85621158D01*
X139900500Y-85621155D01*
X139900499Y-85621153D01*
X139869738Y-85466510D01*
X139869737Y-85466503D01*
X139827774Y-85365194D01*
X139809397Y-85320827D01*
X139809390Y-85320814D01*
X139721789Y-85189711D01*
X139721786Y-85189707D01*
X139610292Y-85078213D01*
X139610288Y-85078210D01*
X139479185Y-84990609D01*
X139479172Y-84990602D01*
X139333501Y-84930264D01*
X139333489Y-84930261D01*
X139178845Y-84899500D01*
X139178842Y-84899500D01*
X139021158Y-84899500D01*
X139021155Y-84899500D01*
X138866510Y-84930261D01*
X138866498Y-84930264D01*
X138720827Y-84990602D01*
X138720814Y-84990609D01*
X138589711Y-85078210D01*
X138589707Y-85078213D01*
X138587681Y-85080240D01*
X138586357Y-85080962D01*
X138585001Y-85082076D01*
X138584789Y-85081818D01*
X138526358Y-85113725D01*
X138456666Y-85108741D01*
X138415060Y-85082001D01*
X138414999Y-85082076D01*
X138414360Y-85081552D01*
X138412319Y-85080240D01*
X138410292Y-85078213D01*
X138410288Y-85078210D01*
X138279185Y-84990609D01*
X138279172Y-84990602D01*
X138133501Y-84930264D01*
X138133489Y-84930261D01*
X137978845Y-84899500D01*
X137978842Y-84899500D01*
X137821158Y-84899500D01*
X137821155Y-84899500D01*
X137666510Y-84930261D01*
X137666498Y-84930264D01*
X137520827Y-84990602D01*
X137520814Y-84990609D01*
X137389711Y-85078210D01*
X137389707Y-85078213D01*
X137278213Y-85189707D01*
X137278210Y-85189711D01*
X137259446Y-85217794D01*
X137205833Y-85262599D01*
X137136508Y-85271306D01*
X137073481Y-85241151D01*
X137068663Y-85236584D01*
X137010292Y-85178213D01*
X137010288Y-85178210D01*
X136879185Y-85090609D01*
X136879172Y-85090602D01*
X136733501Y-85030264D01*
X136733489Y-85030261D01*
X136578845Y-84999500D01*
X136578842Y-84999500D01*
X136421158Y-84999500D01*
X136421155Y-84999500D01*
X136266510Y-85030261D01*
X136266498Y-85030264D01*
X136120827Y-85090602D01*
X136120814Y-85090609D01*
X135989711Y-85178210D01*
X135989707Y-85178213D01*
X135878213Y-85289707D01*
X135878210Y-85289711D01*
X135790609Y-85420814D01*
X135790602Y-85420827D01*
X135730264Y-85566498D01*
X135730261Y-85566510D01*
X135699500Y-85721153D01*
X121000500Y-85721153D01*
X121000500Y-71821153D01*
X137599500Y-71821153D01*
X137599500Y-71978846D01*
X137630261Y-72133489D01*
X137630264Y-72133501D01*
X137690602Y-72279172D01*
X137690609Y-72279185D01*
X137778210Y-72410288D01*
X137778213Y-72410292D01*
X137889707Y-72521786D01*
X137889711Y-72521789D01*
X138020814Y-72609390D01*
X138020827Y-72609397D01*
X138166498Y-72669735D01*
X138166503Y-72669737D01*
X138318644Y-72700000D01*
X138321153Y-72700499D01*
X138321156Y-72700500D01*
X138321158Y-72700500D01*
X138478844Y-72700500D01*
X138478845Y-72700499D01*
X138633497Y-72669737D01*
X138746166Y-72623067D01*
X138779172Y-72609397D01*
X138779172Y-72609396D01*
X138779179Y-72609394D01*
X138910289Y-72521789D01*
X139021789Y-72410289D01*
X139109394Y-72279179D01*
X139169737Y-72133497D01*
X139200500Y-71978842D01*
X139200500Y-71821158D01*
X139200500Y-71821155D01*
X139200499Y-71821153D01*
X139172066Y-71678211D01*
X139169737Y-71666503D01*
X139138300Y-71590606D01*
X139109397Y-71520827D01*
X139109390Y-71520814D01*
X139021789Y-71389711D01*
X139021786Y-71389707D01*
X138910292Y-71278213D01*
X138910288Y-71278210D01*
X138779185Y-71190609D01*
X138779172Y-71190602D01*
X138633501Y-71130264D01*
X138633489Y-71130261D01*
X138478845Y-71099500D01*
X138478842Y-71099500D01*
X138321158Y-71099500D01*
X138321155Y-71099500D01*
X138166510Y-71130261D01*
X138166498Y-71130264D01*
X138020827Y-71190602D01*
X138020814Y-71190609D01*
X137889711Y-71278210D01*
X137889707Y-71278213D01*
X137778213Y-71389707D01*
X137778210Y-71389711D01*
X137690609Y-71520814D01*
X137690602Y-71520827D01*
X137630264Y-71666498D01*
X137630261Y-71666510D01*
X137599500Y-71821153D01*
X121000500Y-71821153D01*
X121000500Y-66421153D01*
X137499500Y-66421153D01*
X137499500Y-66578846D01*
X137530261Y-66733489D01*
X137530264Y-66733501D01*
X137590602Y-66879172D01*
X137590609Y-66879185D01*
X137678210Y-67010288D01*
X137678213Y-67010292D01*
X137789707Y-67121786D01*
X137789711Y-67121789D01*
X137920814Y-67209390D01*
X137920827Y-67209397D01*
X138066498Y-67269735D01*
X138066503Y-67269737D01*
X138221153Y-67300499D01*
X138221156Y-67300500D01*
X138221158Y-67300500D01*
X138378844Y-67300500D01*
X138378845Y-67300499D01*
X138533497Y-67269737D01*
X138679179Y-67209394D01*
X138810289Y-67121789D01*
X138921789Y-67010289D01*
X139009394Y-66879179D01*
X139069737Y-66733497D01*
X139100500Y-66578842D01*
X139100500Y-66421158D01*
X139100500Y-66421155D01*
X139100499Y-66421153D01*
X139069738Y-66266510D01*
X139069737Y-66266503D01*
X139024499Y-66157288D01*
X139009397Y-66120827D01*
X139009390Y-66120814D01*
X138921789Y-65989711D01*
X138921786Y-65989707D01*
X138810292Y-65878213D01*
X138810288Y-65878210D01*
X138679185Y-65790609D01*
X138679172Y-65790602D01*
X138533501Y-65730264D01*
X138533489Y-65730261D01*
X138378845Y-65699500D01*
X138378842Y-65699500D01*
X138221158Y-65699500D01*
X138221155Y-65699500D01*
X138066510Y-65730261D01*
X138066498Y-65730264D01*
X137920827Y-65790602D01*
X137920814Y-65790609D01*
X137789711Y-65878210D01*
X137789707Y-65878213D01*
X137678213Y-65989707D01*
X137678210Y-65989711D01*
X137590609Y-66120814D01*
X137590602Y-66120827D01*
X137530264Y-66266498D01*
X137530261Y-66266510D01*
X137499500Y-66421153D01*
X121000500Y-66421153D01*
X121000500Y-63504427D01*
X121000816Y-63495581D01*
X121015130Y-63295443D01*
X121017646Y-63277938D01*
X121059356Y-63086199D01*
X121064333Y-63069248D01*
X121132911Y-62885385D01*
X121140259Y-62869298D01*
X121202815Y-62754734D01*
X121234291Y-62697089D01*
X121243845Y-62682221D01*
X121361448Y-62525123D01*
X121373020Y-62511769D01*
X121511769Y-62373020D01*
X121525123Y-62361448D01*
X121682221Y-62243845D01*
X121697089Y-62234291D01*
X121869298Y-62140258D01*
X121885385Y-62132911D01*
X122069248Y-62064333D01*
X122086199Y-62059356D01*
X122277938Y-62017646D01*
X122295436Y-62015130D01*
X122495582Y-62000816D01*
X122504428Y-62000500D01*
X122565892Y-62000500D01*
X141391896Y-62000500D01*
X141458935Y-62020185D01*
G37*
%TD.AperFunction*%
%TD*%
M02*
