G04*
G04 #@! TF.GenerationSoftware,Altium Limited,Altium Designer,24.0.1 (36)*
G04*
G04 Layer_Color=16711935*
%FSLAX25Y25*%
%MOIN*%
G70*
G04*
G04 #@! TF.SameCoordinates,6CE9B50B-F2D6-4DCE-9069-AC167603FEEC*
G04*
G04*
G04 #@! TF.FilePolarity,Negative*
G04*
G01*
G75*
G04:AMPARAMS|DCode=46|XSize=50.55mil|YSize=50.55mil|CornerRadius=6.63mil|HoleSize=0mil|Usage=FLASHONLY|Rotation=90.000|XOffset=0mil|YOffset=0mil|HoleType=Round|Shape=RoundedRectangle|*
%AMROUNDEDRECTD46*
21,1,0.05055,0.03729,0,0,90.0*
21,1,0.03729,0.05055,0,0,90.0*
1,1,0.01326,0.01865,0.01865*
1,1,0.01326,0.01865,-0.01865*
1,1,0.01326,-0.01865,-0.01865*
1,1,0.01326,-0.01865,0.01865*
%
%ADD46ROUNDEDRECTD46*%
%ADD47C,0.05055*%
G04:AMPARAMS|DCode=48|XSize=48.42mil|YSize=48.42mil|CornerRadius=6.42mil|HoleSize=0mil|Usage=FLASHONLY|Rotation=0.000|XOffset=0mil|YOffset=0mil|HoleType=Round|Shape=RoundedRectangle|*
%AMROUNDEDRECTD48*
21,1,0.04842,0.03559,0,0,0.0*
21,1,0.03559,0.04842,0,0,0.0*
1,1,0.01284,0.01780,-0.01780*
1,1,0.01284,-0.01780,-0.01780*
1,1,0.01284,-0.01780,0.01780*
1,1,0.01284,0.01780,0.01780*
%
%ADD48ROUNDEDRECTD48*%
%ADD49C,0.04842*%
%ADD50C,0.07087*%
%ADD51C,0.10843*%
G04:AMPARAMS|DCode=52|XSize=49.41mil|YSize=49.41mil|CornerRadius=6.52mil|HoleSize=0mil|Usage=FLASHONLY|Rotation=0.000|XOffset=0mil|YOffset=0mil|HoleType=Round|Shape=RoundedRectangle|*
%AMROUNDEDRECTD52*
21,1,0.04941,0.03638,0,0,0.0*
21,1,0.03638,0.04941,0,0,0.0*
1,1,0.01303,0.01819,-0.01819*
1,1,0.01303,-0.01819,-0.01819*
1,1,0.01303,-0.01819,0.01819*
1,1,0.01303,0.01819,0.01819*
%
%ADD52ROUNDEDRECTD52*%
%ADD53C,0.04941*%
G04:AMPARAMS|DCode=54|XSize=62.99mil|YSize=62.99mil|CornerRadius=7.87mil|HoleSize=0mil|Usage=FLASHONLY|Rotation=270.000|XOffset=0mil|YOffset=0mil|HoleType=Round|Shape=RoundedRectangle|*
%AMROUNDEDRECTD54*
21,1,0.06299,0.04724,0,0,270.0*
21,1,0.04724,0.06299,0,0,270.0*
1,1,0.01575,-0.02362,-0.02362*
1,1,0.01575,-0.02362,0.02362*
1,1,0.01575,0.02362,0.02362*
1,1,0.01575,0.02362,-0.02362*
%
%ADD54ROUNDEDRECTD54*%
%ADD55C,0.06299*%
%ADD56C,0.06906*%
%ADD57C,0.09268*%
%ADD58O,0.06299X0.07480*%
G04:AMPARAMS|DCode=59|XSize=62.99mil|YSize=74.8mil|CornerRadius=9.35mil|HoleSize=0mil|Usage=FLASHONLY|Rotation=0.000|XOffset=0mil|YOffset=0mil|HoleType=Round|Shape=RoundedRectangle|*
%AMROUNDEDRECTD59*
21,1,0.06299,0.05610,0,0,0.0*
21,1,0.04429,0.07480,0,0,0.0*
1,1,0.01870,0.02215,-0.02805*
1,1,0.01870,-0.02215,-0.02805*
1,1,0.01870,-0.02215,0.02805*
1,1,0.01870,0.02215,0.02805*
%
%ADD59ROUNDEDRECTD59*%
%ADD60C,0.06693*%
G04:AMPARAMS|DCode=61|XSize=66.93mil|YSize=66.93mil|CornerRadius=8.27mil|HoleSize=0mil|Usage=FLASHONLY|Rotation=270.000|XOffset=0mil|YOffset=0mil|HoleType=Round|Shape=RoundedRectangle|*
%AMROUNDEDRECTD61*
21,1,0.06693,0.05039,0,0,270.0*
21,1,0.05039,0.06693,0,0,270.0*
1,1,0.01654,-0.02520,-0.02520*
1,1,0.01654,-0.02520,0.02520*
1,1,0.01654,0.02520,0.02520*
1,1,0.01654,0.02520,-0.02520*
%
%ADD61ROUNDEDRECTD61*%
%ADD62O,0.07480X0.06299*%
G04:AMPARAMS|DCode=63|XSize=62.99mil|YSize=74.8mil|CornerRadius=7.87mil|HoleSize=0mil|Usage=FLASHONLY|Rotation=90.000|XOffset=0mil|YOffset=0mil|HoleType=Round|Shape=RoundedRectangle|*
%AMROUNDEDRECTD63*
21,1,0.06299,0.05906,0,0,90.0*
21,1,0.04724,0.07480,0,0,90.0*
1,1,0.01575,0.02953,0.02362*
1,1,0.01575,0.02953,-0.02362*
1,1,0.01575,-0.02953,-0.02362*
1,1,0.01575,-0.02953,0.02362*
%
%ADD63ROUNDEDRECTD63*%
%ADD64C,0.20079*%
D46*
X20000Y70000D02*
D03*
D47*
X30000D02*
D03*
X40000D02*
D03*
X50000D02*
D03*
X60000D02*
D03*
X70000D02*
D03*
X80000D02*
D03*
X90000D02*
D03*
X100000D02*
D03*
X110000D02*
D03*
X120000D02*
D03*
X130000D02*
D03*
X140000D02*
D03*
X150000D02*
D03*
X160000D02*
D03*
X170000D02*
D03*
X180000D02*
D03*
X190000D02*
D03*
X200000D02*
D03*
X210000D02*
D03*
Y130748D02*
D03*
X200000D02*
D03*
X190000D02*
D03*
X180000D02*
D03*
X170000D02*
D03*
X160000D02*
D03*
X150000D02*
D03*
X140000D02*
D03*
X130000D02*
D03*
X120000D02*
D03*
X110000D02*
D03*
X100000D02*
D03*
X90000D02*
D03*
X80000D02*
D03*
X70000D02*
D03*
X60000D02*
D03*
X50000D02*
D03*
X40000D02*
D03*
X30000D02*
D03*
X20000D02*
D03*
D48*
X160000Y320000D02*
D03*
X280000D02*
D03*
X400000D02*
D03*
D49*
X160000Y310000D02*
D03*
Y300000D02*
D03*
Y290000D02*
D03*
X191260D02*
D03*
Y300000D02*
D03*
Y310000D02*
D03*
Y320000D02*
D03*
X280000Y310000D02*
D03*
Y300000D02*
D03*
Y290000D02*
D03*
X311260D02*
D03*
Y300000D02*
D03*
Y310000D02*
D03*
Y320000D02*
D03*
X400000Y310000D02*
D03*
Y300000D02*
D03*
Y290000D02*
D03*
X431260D02*
D03*
Y300000D02*
D03*
Y310000D02*
D03*
Y320000D02*
D03*
D50*
X390000Y130000D02*
D03*
X380000D02*
D03*
X370000D02*
D03*
X360000D02*
D03*
X350000D02*
D03*
X340000D02*
D03*
X330000D02*
D03*
X320000D02*
D03*
X310000D02*
D03*
D51*
X390000Y14055D02*
D03*
X310000D02*
D03*
X242441Y174118D02*
D03*
X405857Y399036D02*
D03*
X510157Y42205D02*
D03*
X510157Y225669D02*
D03*
D52*
X135787Y50000D02*
D03*
D53*
X155000D02*
D03*
D54*
X413315Y67528D02*
D03*
D55*
Y57685D02*
D03*
Y47842D02*
D03*
Y38000D02*
D03*
D56*
X260000Y60000D02*
D03*
Y30472D02*
D03*
D57*
X318236Y52764D02*
D03*
X129173Y428445D02*
D03*
X280827D02*
D03*
D58*
X225000Y10000D02*
D03*
X215000D02*
D03*
X205000D02*
D03*
X195000D02*
D03*
X185000D02*
D03*
X45000Y235000D02*
D03*
X55000D02*
D03*
X65000D02*
D03*
X75000D02*
D03*
X85000D02*
D03*
X35000Y10000D02*
D03*
X45000D02*
D03*
X55000D02*
D03*
X65000D02*
D03*
X75000D02*
D03*
X85000D02*
D03*
X95000D02*
D03*
D59*
X175000D02*
D03*
X95000Y235000D02*
D03*
X105000Y10000D02*
D03*
D60*
X20000Y365000D02*
D03*
X30000D02*
D03*
X20000Y375000D02*
D03*
Y355000D02*
D03*
Y345000D02*
D03*
Y335000D02*
D03*
Y325000D02*
D03*
Y315000D02*
D03*
Y305000D02*
D03*
Y295000D02*
D03*
Y285000D02*
D03*
X30000Y355000D02*
D03*
Y345000D02*
D03*
Y335000D02*
D03*
Y325000D02*
D03*
Y315000D02*
D03*
Y305000D02*
D03*
Y295000D02*
D03*
Y285000D02*
D03*
X480000Y45000D02*
D03*
X470000D02*
D03*
X480000Y35000D02*
D03*
Y55000D02*
D03*
Y65000D02*
D03*
Y75000D02*
D03*
Y85000D02*
D03*
Y95000D02*
D03*
Y105000D02*
D03*
Y115000D02*
D03*
Y125000D02*
D03*
Y135000D02*
D03*
Y145000D02*
D03*
Y155000D02*
D03*
Y165000D02*
D03*
Y175000D02*
D03*
Y185000D02*
D03*
Y195000D02*
D03*
Y205000D02*
D03*
Y215000D02*
D03*
Y225000D02*
D03*
X470000Y55000D02*
D03*
Y65000D02*
D03*
Y75000D02*
D03*
Y85000D02*
D03*
Y95000D02*
D03*
Y105000D02*
D03*
Y115000D02*
D03*
Y125000D02*
D03*
Y135000D02*
D03*
Y145000D02*
D03*
Y155000D02*
D03*
Y165000D02*
D03*
Y175000D02*
D03*
Y185000D02*
D03*
Y195000D02*
D03*
Y205000D02*
D03*
Y215000D02*
D03*
Y225000D02*
D03*
D61*
X30000Y375000D02*
D03*
X470000Y35000D02*
D03*
D62*
X70000Y355000D02*
D03*
Y345000D02*
D03*
Y365000D02*
D03*
Y375000D02*
D03*
Y385000D02*
D03*
Y285000D02*
D03*
Y295000D02*
D03*
Y305000D02*
D03*
D63*
Y335000D02*
D03*
Y275000D02*
D03*
D64*
X505000Y400000D02*
D03*
Y15000D02*
D03*
X15000Y400000D02*
D03*
Y15000D02*
D03*
M02*
