M48
; DRILL file {KiCad 9.0.3} date 2025-11-17T14:27:35+0800
; FORMAT={-:-/ absolute / metric / decimal}
; #@! TF.CreationDate,2025-11-17T14:27:35+08:00
; #@! TF.GenerationSoftware,Kicad,Pcbnew,9.0.3
; #@! TF.FileFunction,Plated,1,4,PTH
FMAT,2
METRIC
; #@! TA.AperFunction,Plated,PTH,ViaDrill
T1C0.150
; #@! TA.AperFunction,Plated,PTH,ViaDrill
T2C0.300
; #@! TA.AperFunction,Plated,PTH,ComponentDrill
T3C0.800
; #@! TA.AperFunction,Plated,PTH,ComponentDrill
T4C1.000
; #@! TA.AperFunction,Plated,PTH,ComponentDrill
T5C1.300
; #@! TA.AperFunction,Plated,PTH,ComponentDrill
T6C1.520
; #@! TA.AperFunction,Plated,PTH,ComponentDrill
T7C1.900
%
G90
G05
T1
X108.625Y-82.775
X112.5Y-81.525
X118.0Y-75.3
X120.863Y-74.693
X126.713Y-89.925
X133.4Y-74.525
T2
X79.2Y-73.6
X79.6Y-89.0
X79.63Y-77.67
X79.8Y-64.7
X79.8Y-102.0
X79.8Y-113.5
X79.8Y-125.1
X79.9Y-61.0
X80.0Y-85.0
X80.0Y-98.2
X80.0Y-109.7
X80.0Y-121.5
X83.2Y-65.2
X83.3Y-77.8
X83.3Y-89.4
X83.3Y-102.4
X84.8Y-102.0
X84.9Y-125.3
X85.0Y-64.7
X85.1Y-113.4
X85.2Y-89.0
X85.3Y-73.7
X85.3Y-77.6
X85.5Y-109.6
X86.1Y-121.4
X86.4Y-107.4
X86.5Y-82.9
X86.5Y-96.1
X86.8Y-71.4
X86.8Y-92.5
X86.8Y-103.5
X86.8Y-119.3
X86.9Y-58.8
X86.9Y-115.5
X87.0Y-67.5
X87.2Y-79.0
X87.4Y-55.0
X87.4Y-73.8
X87.5Y-121.7
X87.6Y-98.4
X87.6Y-109.8
X88.7Y-62.7
X88.7Y-86.4
X93.758Y-113.458
X93.8Y-107.1
X93.9Y-75.8
X95.2Y-114.9
X95.9Y-107.3
X96.2Y-91.7
X96.3Y-114.9
X96.8Y-87.2
X96.8Y-92.4
X96.9Y-75.8
X97.2Y-85.3
X97.4Y-114.9
X98.4Y-94.8
X98.6Y-78.5
X98.6Y-83.0
X98.7Y-114.9
X98.8Y-93.8
X99.7Y-114.9
X100.1Y-77.3
X100.1Y-117.2
X103.7Y-125.4
X103.8Y-124.0
X105.1Y-124.0
X105.1Y-125.4
X106.4Y-94.8
X106.5Y-124.0
X106.5Y-125.4
X107.292Y-116.292
X107.5Y-93.025
X107.575Y-91.725
X107.6Y-118.0
X107.7Y-124.0
X107.7Y-125.4
X108.0Y-107.6
X108.625Y-86.375
X108.9Y-90.6
X109.85Y-86.45
X111.762Y-86.263
X112.8Y-91.0
X113.335Y-86.6
X113.4Y-79.7
X114.7Y-79.5
X114.9Y-54.3
X114.915Y-86.56
X115.5Y-78.3
X116.1Y-124.8
X116.2Y-126.6
X116.2Y-128.4
X116.272Y-83.872
X117.3Y-124.8
X117.4Y-126.6
X117.5Y-128.4
X118.4Y-91.3
X118.4Y-95.8
X118.7Y-124.8
X118.8Y-126.6
X118.9Y-128.4
X119.0Y-99.4
X119.1Y-106.5
X121.7Y-71.8
X121.799Y-76.099
X122.3Y-56.025
X122.3Y-98.8
X122.563Y-63.6
X122.613Y-82.6
X122.638Y-79.425
X123.6Y-84.0
X123.985Y-56.3
X124.2Y-67.5
X124.4Y-84.6
X124.563Y-65.275
X124.9Y-80.8
X124.944Y-81.756
X125.1Y-103.0
X125.3Y-60.001
X125.4Y-85.6
X125.913Y-81.975
X126.0Y-79.7
X126.088Y-67.586
X126.2Y-80.675
X126.273Y-71.911
X126.5Y-70.225
X126.513Y-97.85
X126.775Y-55.325
X127.663Y-73.3
X127.663Y-73.3
X127.663Y-73.3
X127.663Y-73.3
X127.831Y-67.613
X128.2Y-79.1
X128.7Y-63.6
X128.925Y-55.975
X129.3Y-81.4
X129.938Y-67.585
X130.575Y-61.875
X130.7Y-74.4
X130.784Y-84.721
X130.792Y-84.0
X131.088Y-89.35
X131.3Y-64.8
X131.475Y-53.875
X131.525Y-54.875
X131.688Y-79.1
X131.713Y-82.587
X133.3Y-75.575
X133.3Y-82.6
X133.313Y-63.613
X133.6Y-71.7
X133.66Y-77.151
X133.869Y-72.569
X134.163Y-89.975
X134.2Y-69.4
X134.3Y-71.7
X134.9Y-82.4
X135.1Y-69.6
X135.1Y-70.8
X135.5Y-68.85
X135.8Y-99.1
X135.905Y-54.2
X136.513Y-82.487
X136.571Y-91.834
X136.6Y-66.1
X136.7Y-56.2
X136.7Y-118.2
X136.7Y-119.3
X137.0Y-73.5
X137.4Y-79.8
X137.6Y-118.2
X137.6Y-119.3
X138.3Y-73.3
X138.4Y-118.2
X138.4Y-119.3
X138.5Y-58.0
X138.513Y-83.167
X138.6Y-95.7
X138.8Y-98.9
X138.9Y-72.3
X139.0Y-64.4
X139.2Y-119.3
X139.9Y-59.2
X140.0Y-54.7
X140.0Y-106.1
X140.0Y-106.9
X140.0Y-107.6
X140.2Y-73.3
X140.4Y-98.9
X140.6Y-114.7
X141.0Y-83.3
X141.2Y-63.7
X141.4Y-110.0
X141.6Y-105.4
X141.95Y-54.05
X142.5Y-105.4
X142.9Y-73.0
X143.3Y-121.4
X143.4Y-83.4
X144.2Y-99.0
X144.325Y-54.025
X144.6Y-73.1
X144.6Y-76.7
X145.1Y-82.9
X145.1Y-109.5
X145.2Y-114.9
X145.4Y-107.2
X145.7Y-105.4
X145.77Y-91.291
X146.7Y-54.1
X146.8Y-114.8
X147.86Y-84.18
X149.5Y-54.7
X150.1Y-104.4
X150.1Y-107.9
X150.55Y-120.7
X150.6Y-115.1
X150.664Y-93.293
X151.1Y-101.8
X151.188Y-52.512
X151.2Y-61.1
X151.2Y-103.4
X151.6Y-65.5
X151.7Y-67.1
X151.7Y-104.1
X151.8Y-72.0
X153.2Y-118.1
X153.8Y-60.1
X153.85Y-52.55
X154.023Y-96.177
X154.2Y-79.8
X154.4Y-102.1
X154.5Y-55.65
X154.8Y-118.1
X155.4Y-52.9
X155.4Y-57.0
X156.4Y-118.0
X157.0Y-57.0
X157.3Y-71.8
X157.4Y-65.2
X160.2Y-64.8
X161.325Y-71.75
X162.075Y-68.125
X162.325Y-66.25
X163.35Y-71.925
X163.575Y-69.5
X165.375Y-67.1
T3
X148.446Y-88.418
X148.446Y-90.958
T4
X103.935Y-81.521
X108.178Y-78.302
X133.672Y-84.594
X135.849Y-86.977
X137.294Y-107.634
X137.866Y-89.488
X161.5Y-100.729
T5
X72.727Y-81.955
X72.727Y-87.035
X72.727Y-93.455
X72.727Y-98.535
X72.727Y-105.155
X72.727Y-110.235
X72.727Y-116.855
X72.727Y-121.935
X72.8Y-70.455
X72.8Y-75.535
X72.828Y-59.155
X72.828Y-64.235
X161.5Y-106.1
X161.5Y-111.18
X161.725Y-82.895
X161.725Y-87.975
X161.725Y-93.055
T6
X159.925Y-62.88
X159.925Y-74.12
T7
X163.925Y-62.88
X163.925Y-74.12
M30
