%TF.GenerationSoftware,KiCad,Pcbnew,9.0.3*%
%TF.CreationDate,2025-11-17T14:27:32+08:00*%
%TF.ProjectId,elongometer,656c6f6e-676f-46d6-9574-65722e6b6963,rev?*%
%TF.SameCoordinates,Original*%
%TF.FileFunction,Copper,L4,Bot*%
%TF.FilePolarity,Positive*%
%FSLAX46Y46*%
G04 Gerber Fmt 4.6, Leading zero omitted, Abs format (unit mm)*
G04 Created by KiCad (PCBNEW 9.0.3) date 2025-11-17 14:27:32*
%MOMM*%
%LPD*%
G01*
G04 APERTURE LIST*
G04 Aperture macros list*
%AMRoundRect*
0 Rectangle with rounded corners*
0 $1 Rounding radius*
0 $2 $3 $4 $5 $6 $7 $8 $9 X,Y pos of 4 corners*
0 Add a 4 corners polygon primitive as box body*
4,1,4,$2,$3,$4,$5,$6,$7,$8,$9,$2,$3,0*
0 Add four circle primitives for the rounded corners*
1,1,$1+$1,$2,$3*
1,1,$1+$1,$4,$5*
1,1,$1+$1,$6,$7*
1,1,$1+$1,$8,$9*
0 Add four rect primitives between the rounded corners*
20,1,$1+$1,$2,$3,$4,$5,0*
20,1,$1+$1,$4,$5,$6,$7,0*
20,1,$1+$1,$6,$7,$8,$9,0*
20,1,$1+$1,$8,$9,$2,$3,0*%
G04 Aperture macros list end*
%TA.AperFunction,ComponentPad*%
%ADD10C,2.280000*%
%TD*%
%TA.AperFunction,ComponentPad*%
%ADD11C,2.850000*%
%TD*%
%TA.AperFunction,ComponentPad*%
%ADD12C,2.000000*%
%TD*%
%TA.AperFunction,ComponentPad*%
%ADD13RoundRect,0.250000X-1.050000X1.050000X-1.050000X-1.050000X1.050000X-1.050000X1.050000X1.050000X0*%
%TD*%
%TA.AperFunction,ComponentPad*%
%ADD14C,2.600000*%
%TD*%
%TA.AperFunction,WasherPad*%
%ADD15C,1.400000*%
%TD*%
%TA.AperFunction,ComponentPad*%
%ADD16C,1.400000*%
%TD*%
%TA.AperFunction,SMDPad,CuDef*%
%ADD17RoundRect,0.225000X0.225000X0.250000X-0.225000X0.250000X-0.225000X-0.250000X0.225000X-0.250000X0*%
%TD*%
%TA.AperFunction,SMDPad,CuDef*%
%ADD18RoundRect,0.225000X0.250000X-0.225000X0.250000X0.225000X-0.250000X0.225000X-0.250000X-0.225000X0*%
%TD*%
%TA.AperFunction,SMDPad,CuDef*%
%ADD19RoundRect,0.225000X-0.250000X0.225000X-0.250000X-0.225000X0.250000X-0.225000X0.250000X0.225000X0*%
%TD*%
%TA.AperFunction,SMDPad,CuDef*%
%ADD20RoundRect,0.225000X-0.225000X-0.250000X0.225000X-0.250000X0.225000X0.250000X-0.225000X0.250000X0*%
%TD*%
%TA.AperFunction,SMDPad,CuDef*%
%ADD21RoundRect,0.250000X0.650000X-0.325000X0.650000X0.325000X-0.650000X0.325000X-0.650000X-0.325000X0*%
%TD*%
%TA.AperFunction,ViaPad*%
%ADD22C,0.600000*%
%TD*%
%TA.AperFunction,ViaPad*%
%ADD23C,0.250000*%
%TD*%
%TA.AperFunction,ViaPad*%
%ADD24C,0.500000*%
%TD*%
%TA.AperFunction,ViaPad*%
%ADD25C,0.300000*%
%TD*%
%TA.AperFunction,Conductor*%
%ADD26C,0.254000*%
%TD*%
%TA.AperFunction,Conductor*%
%ADD27C,0.150000*%
%TD*%
%TA.AperFunction,Conductor*%
%ADD28C,0.120000*%
%TD*%
%TA.AperFunction,Conductor*%
%ADD29C,0.400000*%
%TD*%
G04 APERTURE END LIST*
D10*
%TO.P,U4,MH1,MH1*%
%TO.N,GND*%
X159925000Y-74120000D03*
%TO.P,U4,MH2,MH2*%
X159925000Y-62880000D03*
D11*
%TO.P,U4,MH3,MH3*%
X163925000Y-74120000D03*
%TO.P,U4,MH4,MH4*%
X163925000Y-62880000D03*
%TD*%
D12*
%TO.P,TX1,1,1*%
%TO.N,/RS485_TX*%
X133672000Y-84594000D03*
%TD*%
%TO.P,RX1,1,1*%
%TO.N,/RS485_RX*%
X137866000Y-89488000D03*
%TD*%
D13*
%TO.P,J6,1,Pin_1*%
%TO.N,Net-(J6-Pin_1)*%
X72800000Y-70455000D03*
D14*
%TO.P,J6,2,Pin_2*%
%TO.N,AGND*%
X72800000Y-75535000D03*
%TD*%
D12*
%TO.P,TP1,1,1*%
%TO.N,Vin*%
X161500000Y-100729000D03*
%TD*%
D15*
%TO.P,J2,*%
%TO.N,*%
X127900000Y-120900000D03*
X127900000Y-113400000D03*
%TD*%
D13*
%TO.P,J1,1,Pin_1*%
%TO.N,GND*%
X161725000Y-82895000D03*
D14*
%TO.P,J1,2,Pin_2*%
%TO.N,/B*%
X161725000Y-87975000D03*
%TO.P,J1,3,Pin_3*%
%TO.N,/A*%
X161725000Y-93055000D03*
%TD*%
D13*
%TO.P,J3,1,Pin_1*%
%TO.N,Net-(J3-Pin_1)*%
X72827500Y-59155000D03*
D14*
%TO.P,J3,2,Pin_2*%
%TO.N,AGND*%
X72827500Y-64235000D03*
%TD*%
D13*
%TO.P,J5,1,Pin_1*%
%TO.N,Vin*%
X161500000Y-106100000D03*
D14*
%TO.P,J5,2,Pin_2*%
%TO.N,GND*%
X161500000Y-111180000D03*
%TD*%
D13*
%TO.P,J9,1,Pin_1*%
%TO.N,Net-(J9-Pin_1)*%
X72727500Y-116855000D03*
D14*
%TO.P,J9,2,Pin_2*%
%TO.N,AGND*%
X72727500Y-121935000D03*
%TD*%
D16*
%TO.P,JP1,1,A*%
%TO.N,Net-(JP1-A)*%
X148446000Y-88418000D03*
%TO.P,JP1,2,B*%
%TO.N,/A*%
X148446000Y-90958000D03*
%TD*%
D12*
%TO.P,6V1,1,1*%
%TO.N,6V*%
X137294000Y-107634000D03*
%TD*%
D13*
%TO.P,J8,1,Pin_1*%
%TO.N,Net-(J8-Pin_1)*%
X72727500Y-105155000D03*
D14*
%TO.P,J8,2,Pin_2*%
%TO.N,AGND*%
X72727500Y-110235000D03*
%TD*%
D13*
%TO.P,J7,1,Pin_1*%
%TO.N,Net-(J7-Pin_1)*%
X72727500Y-81955000D03*
D14*
%TO.P,J7,2,Pin_2*%
%TO.N,AGND*%
X72727500Y-87035000D03*
%TD*%
D12*
%TO.P,3V3,1,1*%
%TO.N,VCC_3V3*%
X108178000Y-78302000D03*
%TD*%
%TO.P,RE1,1,1*%
%TO.N,/RS485_RE*%
X135849000Y-86977000D03*
%TD*%
%TO.P,A5V1,1,1*%
%TO.N,AVDD_5V0*%
X103935000Y-81521000D03*
%TD*%
D13*
%TO.P,J4,1,Pin_1*%
%TO.N,Net-(J4-Pin_1)*%
X72727500Y-93455000D03*
D14*
%TO.P,J4,2,Pin_2*%
%TO.N,AGND*%
X72727500Y-98535000D03*
%TD*%
D17*
%TO.P,C32,1*%
%TO.N,ESP_VDD_HP*%
X132387503Y-77375040D03*
%TO.P,C32,2*%
%TO.N,GND*%
X130837503Y-77375040D03*
%TD*%
D18*
%TO.P,C34,1*%
%TO.N,ESP_VDD_HP*%
X131312503Y-67450040D03*
%TO.P,C34,2*%
%TO.N,GND*%
X131312503Y-65900040D03*
%TD*%
D19*
%TO.P,C94,1*%
%TO.N,ESP_LDO_VO3*%
X128012503Y-79800040D03*
%TO.P,C94,2*%
%TO.N,GND*%
X128012503Y-81350040D03*
%TD*%
D17*
%TO.P,C92,1*%
%TO.N,ESP_LDO_VO2*%
X132387503Y-73100000D03*
%TO.P,C92,2*%
%TO.N,GND*%
X130837503Y-73100000D03*
%TD*%
D19*
%TO.P,C20,1*%
%TO.N,VCC_3V3*%
X125112503Y-68675040D03*
%TO.P,C20,2*%
%TO.N,GND*%
X125112503Y-70225040D03*
%TD*%
D20*
%TO.P,C26,1*%
%TO.N,VCC_3V3*%
X123037503Y-75875040D03*
%TO.P,C26,2*%
%TO.N,GND*%
X124587503Y-75875040D03*
%TD*%
D19*
%TO.P,C33,1*%
%TO.N,ESP_VDD_HP*%
X127812503Y-68700040D03*
%TO.P,C33,2*%
%TO.N,GND*%
X127812503Y-70250040D03*
%TD*%
D20*
%TO.P,C29,1*%
%TO.N,VCC_3V3*%
X123125000Y-73500000D03*
%TO.P,C29,2*%
%TO.N,GND*%
X124675000Y-73500000D03*
%TD*%
D19*
%TO.P,C18,1*%
%TO.N,VCC_3V3*%
X123512503Y-68700040D03*
%TO.P,C18,2*%
%TO.N,GND*%
X123512503Y-70250040D03*
%TD*%
D21*
%TO.P,C30,1*%
%TO.N,ESP_VDD_HP*%
X133312503Y-67750040D03*
%TO.P,C30,2*%
%TO.N,GND*%
X133312503Y-64800040D03*
%TD*%
D17*
%TO.P,C25,1*%
%TO.N,ESP_LDO_VO1*%
X132375000Y-71500000D03*
%TO.P,C25,2*%
%TO.N,GND*%
X130825000Y-71500000D03*
%TD*%
D19*
%TO.P,C31,1*%
%TO.N,ESP_VDD_HP*%
X122612503Y-80375040D03*
%TO.P,C31,2*%
%TO.N,GND*%
X122612503Y-81925040D03*
%TD*%
%TO.P,C17,1*%
%TO.N,VCC_3V3*%
X129312503Y-68700040D03*
%TO.P,C17,2*%
%TO.N,GND*%
X129312503Y-70250040D03*
%TD*%
D17*
%TO.P,C90,1*%
%TO.N,ESP_LDO_VO2*%
X132287503Y-75575040D03*
%TO.P,C90,2*%
%TO.N,GND*%
X130737503Y-75575040D03*
%TD*%
D20*
%TO.P,C28,1*%
%TO.N,VCC_3V3*%
X123137503Y-71875040D03*
%TO.P,C28,2*%
%TO.N,GND*%
X124687503Y-71875040D03*
%TD*%
D22*
%TO.N,GND*%
X144200000Y-99000000D03*
X145100000Y-109500000D03*
X145770000Y-91291000D03*
X144600000Y-76700000D03*
X118900000Y-128400000D03*
X122612503Y-82600000D03*
X134900000Y-82400000D03*
X141400000Y-110000000D03*
X126775000Y-55325000D03*
X157400000Y-65200000D03*
X136570897Y-91834060D03*
X150600000Y-115100000D03*
X122562503Y-63600040D03*
X149500000Y-54700000D03*
X138800000Y-98900000D03*
X114900000Y-54300000D03*
X155400000Y-52900000D03*
X138600000Y-95700000D03*
X125300000Y-60001208D03*
X145200000Y-114900000D03*
X131300000Y-64800000D03*
X126500000Y-70225040D03*
X127662533Y-73299960D03*
X118400000Y-95800000D03*
X143400000Y-83400000D03*
X161325000Y-71750000D03*
X140200000Y-73300000D03*
X140600000Y-114700000D03*
X118700000Y-124800000D03*
X151700000Y-104100000D03*
X122300000Y-56025000D03*
X129300000Y-81400000D03*
X133312503Y-63612503D03*
X157300000Y-71800000D03*
X140000000Y-106100000D03*
X119100000Y-106500000D03*
X117400000Y-126600000D03*
X156400000Y-118000000D03*
X140000000Y-107600000D03*
X157000000Y-57000000D03*
X144325000Y-54025000D03*
X131525000Y-54875000D03*
X153200000Y-118100000D03*
X125100000Y-103000000D03*
X122300000Y-98800000D03*
X128925000Y-55975000D03*
X108900000Y-90600000D03*
X106400000Y-94800000D03*
X160200000Y-64800000D03*
X128700000Y-63600000D03*
X150550000Y-120700000D03*
X140400000Y-98900000D03*
X127662533Y-73299960D03*
X138900000Y-72300000D03*
X116100000Y-124800000D03*
X145100000Y-82900000D03*
X141600000Y-105400000D03*
X154400000Y-102100000D03*
X143300000Y-121400000D03*
X163575000Y-69500000D03*
X131475000Y-53875000D03*
X135800000Y-99100000D03*
X151700000Y-67100000D03*
X146800000Y-114800000D03*
X165375000Y-67100000D03*
X117500000Y-128400000D03*
X141950000Y-54050000D03*
X124562503Y-65275040D03*
X141000000Y-83300000D03*
X117300000Y-124800000D03*
X162075000Y-68125000D03*
X126512503Y-97850040D03*
X126273285Y-71910712D03*
X140000000Y-106900000D03*
X133300000Y-82600000D03*
X151800000Y-72000000D03*
X150100000Y-104400000D03*
X151600000Y-65500000D03*
X162325000Y-66250000D03*
X138512503Y-83167000D03*
X139000000Y-64400000D03*
X131712503Y-82587497D03*
X154022600Y-96177400D03*
X151200000Y-103400000D03*
X140000000Y-54700000D03*
X112800000Y-91000000D03*
X119000000Y-99400000D03*
X141200000Y-63700000D03*
X142500000Y-105400000D03*
X118800000Y-126600000D03*
X154800000Y-118100000D03*
X98400000Y-94800000D03*
X127662533Y-73299960D03*
X107575000Y-91725000D03*
X145700000Y-105400000D03*
X146700000Y-54100000D03*
X136600000Y-66100000D03*
X116200000Y-126600000D03*
X127662533Y-73299960D03*
X136512503Y-82487497D03*
X163350000Y-71925000D03*
X116200000Y-128400000D03*
X130700000Y-74400000D03*
X154200000Y-79800000D03*
%TO.N,AVDD_5V0*%
X86800000Y-71400000D03*
X86500000Y-96100000D03*
X86400000Y-107400000D03*
X99700000Y-114900000D03*
X98700000Y-114900000D03*
X97400000Y-114900000D03*
X86500000Y-82900000D03*
X96300000Y-114900000D03*
X95200000Y-114900000D03*
X98600000Y-83000000D03*
X86900000Y-58800000D03*
X86800000Y-119300000D03*
%TO.N,VCC_3V3*%
X155400000Y-57000000D03*
X139200000Y-119300000D03*
X121798524Y-76098524D03*
X123985000Y-56300000D03*
X136700000Y-119300000D03*
X137400000Y-79800040D03*
D23*
X133400000Y-74525010D03*
D24*
X121700000Y-71800000D03*
D22*
X136700000Y-56200000D03*
X98800000Y-93800000D03*
X138400000Y-119300000D03*
D24*
X126087503Y-67586030D03*
D22*
X107500000Y-93025000D03*
X135100000Y-69600000D03*
X138400000Y-118200000D03*
X118400000Y-91300000D03*
X142900000Y-73000000D03*
X147860000Y-84180000D03*
D24*
X124200000Y-67500000D03*
D22*
X136700000Y-118200000D03*
X154500000Y-55650000D03*
X150664000Y-93293000D03*
X137600000Y-119300000D03*
X137600000Y-118200000D03*
X129937503Y-67585040D03*
X138300000Y-73300000D03*
X135500000Y-68850040D03*
X130575000Y-61875000D03*
X131687503Y-79100000D03*
X116272000Y-83872000D03*
X144600000Y-73100000D03*
D24*
%TO.N,ESP_LDO_VO1*%
X133600000Y-71700000D03*
D22*
X124943640Y-81756360D03*
D24*
X131087503Y-89350040D03*
D23*
X126712503Y-89925040D03*
D24*
X134162503Y-89975040D03*
%TO.N,ESP_VDD_HP*%
X122637503Y-79425040D03*
D22*
X133660085Y-77150840D03*
X139900000Y-59200000D03*
D24*
X134200000Y-69400000D03*
D22*
X127830522Y-67613467D03*
X138500000Y-58000000D03*
%TO.N,Net-(IC7-FB)*%
X150100000Y-107900000D03*
X145400000Y-107200000D03*
X151100000Y-101800000D03*
%TO.N,VREF_2V5*%
X85300000Y-73700000D03*
X83300000Y-89400000D03*
X85500000Y-109600000D03*
X83300000Y-102400000D03*
X83200000Y-65200000D03*
X86100000Y-121400000D03*
X83300000Y-77800000D03*
X93900000Y-75800000D03*
X93758000Y-113458000D03*
D24*
%TO.N,ESP_LDO_VO2*%
X133868771Y-72568771D03*
X134300000Y-71700000D03*
X133300000Y-75575040D03*
D22*
%TO.N,ESP_LDO_VO3*%
X128200000Y-79100000D03*
X135100000Y-70800000D03*
%TO.N,AGND*%
X97200000Y-85300000D03*
X85100000Y-113400000D03*
X79800000Y-102000000D03*
X96200000Y-91700000D03*
X79800000Y-113500000D03*
X105100000Y-124000000D03*
X105100000Y-125400000D03*
X88700000Y-86400000D03*
X79600000Y-89000000D03*
X87600000Y-109800000D03*
X100100000Y-77300000D03*
X108000000Y-107600000D03*
X106500000Y-125400000D03*
X80000000Y-109700000D03*
X93800000Y-107100000D03*
X95900000Y-107300000D03*
X80000000Y-121500000D03*
X106500000Y-124000000D03*
X86900000Y-115500000D03*
X96900000Y-75800000D03*
X88700000Y-62700000D03*
X79200000Y-73600000D03*
X107292500Y-116292500D03*
X79630000Y-77670000D03*
X100100000Y-117200000D03*
X87400000Y-73800000D03*
X107700000Y-124000000D03*
X103700000Y-125400000D03*
X80000000Y-98200000D03*
X87500000Y-121700000D03*
X98600000Y-78500000D03*
X107600000Y-118000000D03*
X80000000Y-85000000D03*
X87000000Y-67500000D03*
X79800000Y-125100000D03*
X85300000Y-77600000D03*
X96800000Y-92400000D03*
X96800000Y-87200000D03*
X85000000Y-64700000D03*
X87200000Y-79000000D03*
X84900000Y-125300000D03*
X103800000Y-124000000D03*
X85200000Y-89000000D03*
X79800000Y-64700000D03*
X87600000Y-98400000D03*
X84800000Y-102000000D03*
X79900000Y-61000000D03*
X87400000Y-55000000D03*
X86800000Y-92500000D03*
X107700000Y-125400000D03*
X86800000Y-103500000D03*
D23*
%TO.N,/ADC_SCLK*%
X108625000Y-82775000D03*
D22*
X108625000Y-86375000D03*
%TO.N,/ADC_DIN*%
X109850000Y-86450000D03*
X115500000Y-78300000D03*
D23*
%TO.N,/ADC_DOUT*%
X112500000Y-81525000D03*
D22*
X111762500Y-86262500D03*
%TO.N,/FB_DCDC*%
X153800000Y-60100000D03*
X153850000Y-52550000D03*
D25*
%TO.N,/RTC_MFP*%
X118000000Y-75300000D03*
X120862503Y-74692883D03*
D22*
%TO.N,/ADC_DADY*%
X113335000Y-86600000D03*
X113400000Y-79700000D03*
%TO.N,/ADC_CS*%
X114915000Y-86560000D03*
X114700000Y-79500000D03*
%TO.N,/BOOT_GPIO35*%
X135905000Y-54200000D03*
D24*
X137000000Y-73500000D03*
%TO.N,/FLASH_D*%
X125912503Y-81975040D03*
X126000000Y-79700000D03*
D22*
%TO.N,/EN_DCDC*%
X151200000Y-61100000D03*
X151187500Y-52512500D03*
D24*
%TO.N,/FLASH_HD*%
X126200000Y-80675040D03*
X124900000Y-80800000D03*
%TO.N,/RS485_RE*%
X130792000Y-84000000D03*
D22*
X123600000Y-84000000D03*
%TO.N,/RS485_TX*%
X125400000Y-85600000D03*
%TO.N,/RS485_RX*%
X124400000Y-84600000D03*
D24*
X130783876Y-84721124D03*
%TD*%
D26*
%TO.N,GND*%
X129312503Y-70250040D02*
X126525000Y-70250040D01*
X126525000Y-70250040D02*
X126500000Y-70225040D01*
X126500000Y-70225040D02*
X125112503Y-70225040D01*
X124687503Y-71875040D02*
X126237613Y-71875040D01*
X133312503Y-64800040D02*
X133312503Y-63612503D01*
X124587503Y-75875040D02*
X125087453Y-75875040D01*
X130825000Y-71500000D02*
X130620000Y-71705000D01*
X130837503Y-75675040D02*
X130737503Y-75575040D01*
X130620000Y-71705000D02*
X129257493Y-71705000D01*
X125112503Y-70225040D02*
X123537503Y-70225040D01*
X129250040Y-81350040D02*
X129300000Y-81400000D01*
X125087453Y-75875040D02*
X127662533Y-73299960D01*
X130837503Y-77375040D02*
X130837503Y-75675040D01*
X130837503Y-74262497D02*
X130700000Y-74400000D01*
X122612503Y-82600000D02*
X122612503Y-81925040D01*
X126237613Y-71875040D02*
X126273285Y-71910712D01*
X123537503Y-70225040D02*
X123512503Y-70250040D01*
X128012503Y-81350040D02*
X129250040Y-81350040D01*
X131312503Y-65900040D02*
X131312503Y-64812503D01*
X133300000Y-63600000D02*
X133312503Y-63612503D01*
X130825000Y-73087497D02*
X130837503Y-73100000D01*
X129257493Y-71705000D02*
X127662533Y-73299960D01*
D27*
X124675000Y-73500000D02*
X124675000Y-71887543D01*
D26*
X130837503Y-73100000D02*
X130837503Y-74262497D01*
D27*
X124675000Y-71887543D02*
X124687503Y-71875040D01*
D26*
X130737503Y-75575040D02*
X130737503Y-74437503D01*
X131312503Y-64812503D02*
X131300000Y-64800000D01*
X130737503Y-74437503D02*
X130700000Y-74400000D01*
D28*
%TO.N,VCC_3V3*%
X123998493Y-67586030D02*
X123987503Y-67575040D01*
X123512503Y-68187497D02*
X123512503Y-68700040D01*
X124200000Y-67500000D02*
X124200000Y-67762537D01*
D26*
X121775040Y-71875040D02*
X121700000Y-71800000D01*
D27*
X121700000Y-72600000D02*
X121700000Y-71800000D01*
D26*
X123137503Y-71875040D02*
X121775040Y-71875040D01*
D27*
X122600000Y-73500000D02*
X121700000Y-72600000D01*
D28*
X121924960Y-75875040D02*
X123037503Y-75875040D01*
X121798524Y-76001476D02*
X121924960Y-75875040D01*
X124200000Y-67500000D02*
X123512503Y-68187497D01*
D27*
X123125000Y-73500000D02*
X122600000Y-73500000D01*
D28*
X121798524Y-76098524D02*
X121798524Y-76001476D01*
X124200000Y-67762537D02*
X125112503Y-68675040D01*
X129312503Y-68700040D02*
X129312503Y-68210040D01*
X129312503Y-68210040D02*
X129937503Y-67585040D01*
D26*
%TO.N,ESP_LDO_VO1*%
X124000000Y-80800000D02*
X124000000Y-78500000D01*
D28*
X133537503Y-89350040D02*
X134162503Y-89975040D01*
D26*
X124943640Y-81756360D02*
X124643636Y-81456356D01*
X129200000Y-75500000D02*
X129200000Y-72700000D01*
X129200000Y-72700000D02*
X129553000Y-72347000D01*
X125300000Y-77200000D02*
X127500000Y-77200000D01*
X129553000Y-72347000D02*
X131528000Y-72347000D01*
X124643636Y-81443636D02*
X124000000Y-80800000D01*
X131528000Y-72347000D02*
X132375000Y-71500000D01*
D29*
X133322543Y-71500000D02*
X132375000Y-71500000D01*
D28*
X127287503Y-89350040D02*
X126712503Y-89925040D01*
D26*
X127500000Y-77200000D02*
X129200000Y-75500000D01*
D28*
X131087503Y-89350040D02*
X127287503Y-89350040D01*
X131087503Y-89350040D02*
X133537503Y-89350040D01*
D29*
X133522543Y-71700000D02*
X133322543Y-71500000D01*
D26*
X124643636Y-81456356D02*
X124643636Y-81443636D01*
D29*
X133600000Y-71700000D02*
X133522543Y-71700000D01*
D26*
X124000000Y-78500000D02*
X125300000Y-77200000D01*
%TO.N,ESP_VDD_HP*%
X134200000Y-69400000D02*
X134200000Y-68637537D01*
X133012503Y-67450040D02*
X133312503Y-67750040D01*
D28*
X133660085Y-77150840D02*
X133435885Y-77375040D01*
X122637503Y-80350040D02*
X122612503Y-80375040D01*
X122637503Y-79425040D02*
X122637503Y-80350040D01*
X127812503Y-67631486D02*
X127830522Y-67613467D01*
X127812503Y-68700040D02*
X127812503Y-67631486D01*
D26*
X131312503Y-67450040D02*
X133012503Y-67450040D01*
D28*
X133435885Y-77375040D02*
X132387503Y-77375040D01*
D26*
X134200000Y-68637537D02*
X133312503Y-67750040D01*
D28*
%TO.N,Net-(IC7-FB)*%
X149400000Y-107200000D02*
X150100000Y-107900000D01*
D26*
X145700000Y-107200000D02*
X145400000Y-107200000D01*
X151100000Y-101800000D02*
X145700000Y-107200000D01*
D28*
X145400000Y-107200000D02*
X149400000Y-107200000D01*
D29*
%TO.N,VREF_2V5*%
X83300000Y-89400000D02*
X83300000Y-77800000D01*
X84000000Y-78500000D02*
X86100000Y-78500000D01*
X85500000Y-109600000D02*
X85200000Y-109600000D01*
X83300000Y-102400000D02*
X83300000Y-89400000D01*
X85200000Y-109600000D02*
X83300000Y-107700000D01*
X83300000Y-65300000D02*
X83200000Y-65200000D01*
X93758000Y-113458000D02*
X93758000Y-118242000D01*
X88800000Y-75800000D02*
X93900000Y-75800000D01*
X91400000Y-120600000D02*
X86900000Y-120600000D01*
X83300000Y-77800000D02*
X84000000Y-78500000D01*
X83300000Y-107700000D02*
X83300000Y-102400000D01*
X93758000Y-118242000D02*
X91400000Y-120600000D01*
X86100000Y-78500000D02*
X88800000Y-75800000D01*
X86700000Y-113400000D02*
X85500000Y-112200000D01*
X93700000Y-113400000D02*
X86700000Y-113400000D01*
X93758000Y-113458000D02*
X93700000Y-113400000D01*
X86900000Y-120600000D02*
X86100000Y-121400000D01*
X83300000Y-77800000D02*
X83300000Y-65300000D01*
X85500000Y-112200000D02*
X85500000Y-109600000D01*
D26*
%TO.N,ESP_LDO_VO2*%
X134300000Y-72137542D02*
X133868771Y-72568771D01*
X134000000Y-72700000D02*
X134000000Y-75200000D01*
X134300000Y-71700000D02*
X134300000Y-72137542D01*
X133624960Y-75575040D02*
X133300000Y-75575040D01*
X133868771Y-72568771D02*
X134000000Y-72700000D01*
X132387503Y-72775040D02*
X132387503Y-73100000D01*
X133868771Y-72568771D02*
X133337543Y-73100000D01*
X133337543Y-73100000D02*
X132387503Y-73100000D01*
X132287503Y-75575040D02*
X133300000Y-75575040D01*
X134000000Y-75200000D02*
X133624960Y-75575040D01*
D28*
%TO.N,ESP_LDO_VO3*%
X128200000Y-79100000D02*
X128200000Y-79612543D01*
D26*
X135900000Y-72300000D02*
X135100000Y-71500000D01*
X135900000Y-78500000D02*
X135900000Y-72300000D01*
X134599960Y-79800040D02*
X135900000Y-78500000D01*
X135100000Y-71500000D02*
X135100000Y-70800000D01*
D28*
X128200000Y-79612543D02*
X128012503Y-79800040D01*
D26*
X128012503Y-79800040D02*
X134599960Y-79800040D01*
D28*
%TO.N,/ADC_SCLK*%
X108625000Y-86375000D02*
X108625000Y-82775000D01*
%TO.N,/ADC_DIN*%
X111800000Y-82625000D02*
X110800000Y-83625000D01*
X109850000Y-86450000D02*
X110250000Y-86050000D01*
X110800000Y-85500000D02*
X110800000Y-83700000D01*
X110250000Y-86050000D02*
X110800000Y-85500000D01*
X115500000Y-78300000D02*
X113200000Y-78300000D01*
X113200000Y-78300000D02*
X111800000Y-79700000D01*
X111800000Y-79700000D02*
X111800000Y-82625000D01*
X110800000Y-83625000D02*
X110800000Y-83700000D01*
%TO.N,/ADC_DOUT*%
X112500000Y-85525000D02*
X111762500Y-86262500D01*
X112500000Y-81525000D02*
X112500000Y-85525000D01*
D26*
%TO.N,/FB_DCDC*%
X153850000Y-60050000D02*
X153800000Y-60100000D01*
X153850000Y-52550000D02*
X153850000Y-60050000D01*
D27*
%TO.N,/RTC_MFP*%
X118712503Y-75150040D02*
X120405346Y-75150040D01*
X118000000Y-75300000D02*
X118562543Y-75300000D01*
X118562543Y-75300000D02*
X118712503Y-75150040D01*
X120405346Y-75150040D02*
X120862503Y-74692883D01*
%TO.N,/ADC_DADY*%
X113335000Y-86615000D02*
X113350000Y-86600000D01*
D28*
X113400000Y-79700000D02*
X113350000Y-79750000D01*
X113350000Y-86585000D02*
X113335000Y-86600000D01*
X113350000Y-79750000D02*
X113350000Y-86585000D01*
%TO.N,/ADC_CS*%
X114700000Y-79500000D02*
X114900000Y-79700000D01*
X114900000Y-79700000D02*
X114900000Y-86545000D01*
X114900000Y-86545000D02*
X114915000Y-86560000D01*
%TO.N,/BOOT_GPIO35*%
X137400000Y-55695000D02*
X135905000Y-54200000D01*
X137400000Y-73100000D02*
X137400000Y-55695000D01*
X137000000Y-73500000D02*
X137400000Y-73100000D01*
%TO.N,/FLASH_D*%
X126800000Y-81087543D02*
X125912503Y-81975040D01*
X126800000Y-80500000D02*
X126800000Y-81087543D01*
X126000000Y-79700000D02*
X126800000Y-80500000D01*
D26*
%TO.N,/EN_DCDC*%
X151187500Y-61087500D02*
X151200000Y-61100000D01*
X151187500Y-52512500D02*
X151187500Y-61087500D01*
D28*
%TO.N,/FLASH_HD*%
X126200000Y-80675040D02*
X125575040Y-80675040D01*
X125575040Y-80675040D02*
X125450080Y-80800000D01*
X125450080Y-80800000D02*
X124900000Y-80800000D01*
%TO.N,/RS485_RE*%
X130792000Y-84000000D02*
X123600000Y-84000000D01*
%TO.N,/RS485_TX*%
X133672000Y-84594000D02*
X132666000Y-85600000D01*
X132666000Y-85600000D02*
X125400000Y-85600000D01*
%TO.N,/RS485_RX*%
X130783876Y-84721124D02*
X130662752Y-84600000D01*
X130662752Y-84600000D02*
X124400000Y-84600000D01*
%TD*%
M02*
