%TF.GenerationSoftware,KiCad,Pcbnew,9.0.3*%
%TF.CreationDate,2025-11-17T14:27:33+08:00*%
%TF.ProjectId,elongometer,656c6f6e-676f-46d6-9574-65722e6b6963,rev?*%
%TF.SameCoordinates,Original*%
%TF.FileFunction,Soldermask,Bot*%
%TF.FilePolarity,Negative*%
%FSLAX46Y46*%
G04 Gerber Fmt 4.6, Leading zero omitted, Abs format (unit mm)*
G04 Created by KiCad (PCBNEW 9.0.3) date 2025-11-17 14:27:33*
%MOMM*%
%LPD*%
G01*
G04 APERTURE LIST*
G04 Aperture macros list*
%AMRoundRect*
0 Rectangle with rounded corners*
0 $1 Rounding radius*
0 $2 $3 $4 $5 $6 $7 $8 $9 X,Y pos of 4 corners*
0 Add a 4 corners polygon primitive as box body*
4,1,4,$2,$3,$4,$5,$6,$7,$8,$9,$2,$3,0*
0 Add four circle primitives for the rounded corners*
1,1,$1+$1,$2,$3*
1,1,$1+$1,$4,$5*
1,1,$1+$1,$6,$7*
1,1,$1+$1,$8,$9*
0 Add four rect primitives between the rounded corners*
20,1,$1+$1,$2,$3,$4,$5,0*
20,1,$1+$1,$4,$5,$6,$7,0*
20,1,$1+$1,$6,$7,$8,$9,0*
20,1,$1+$1,$8,$9,$2,$3,0*%
G04 Aperture macros list end*
%ADD10C,2.280000*%
%ADD11C,2.850000*%
%ADD12C,2.000000*%
%ADD13RoundRect,0.250000X-1.050000X1.050000X-1.050000X-1.050000X1.050000X-1.050000X1.050000X1.050000X0*%
%ADD14C,2.600000*%
%ADD15C,1.400000*%
%ADD16RoundRect,0.225000X0.225000X0.250000X-0.225000X0.250000X-0.225000X-0.250000X0.225000X-0.250000X0*%
%ADD17RoundRect,0.225000X0.250000X-0.225000X0.250000X0.225000X-0.250000X0.225000X-0.250000X-0.225000X0*%
%ADD18RoundRect,0.225000X-0.250000X0.225000X-0.250000X-0.225000X0.250000X-0.225000X0.250000X0.225000X0*%
%ADD19RoundRect,0.225000X-0.225000X-0.250000X0.225000X-0.250000X0.225000X0.250000X-0.225000X0.250000X0*%
%ADD20RoundRect,0.250000X0.650000X-0.325000X0.650000X0.325000X-0.650000X0.325000X-0.650000X-0.325000X0*%
G04 APERTURE END LIST*
D10*
%TO.C,U4*%
X159925000Y-74120000D03*
X159925000Y-62880000D03*
D11*
X163925000Y-74120000D03*
X163925000Y-62880000D03*
%TD*%
D12*
%TO.C,TX1*%
X133672000Y-84594000D03*
%TD*%
%TO.C,RX1*%
X137866000Y-89488000D03*
%TD*%
D13*
%TO.C,J6*%
X72800000Y-70455000D03*
D14*
X72800000Y-75535000D03*
%TD*%
D12*
%TO.C,TP1*%
X161500000Y-100729000D03*
%TD*%
D15*
%TO.C,J2*%
X127900000Y-120900000D03*
X127900000Y-113400000D03*
%TD*%
D13*
%TO.C,J1*%
X161725000Y-82895000D03*
D14*
X161725000Y-87975000D03*
X161725000Y-93055000D03*
%TD*%
D13*
%TO.C,J3*%
X72827500Y-59155000D03*
D14*
X72827500Y-64235000D03*
%TD*%
D13*
%TO.C,J5*%
X161500000Y-106100000D03*
D14*
X161500000Y-111180000D03*
%TD*%
D13*
%TO.C,J9*%
X72727500Y-116855000D03*
D14*
X72727500Y-121935000D03*
%TD*%
D15*
%TO.C,JP1*%
X148446000Y-88418000D03*
X148446000Y-90958000D03*
%TD*%
D12*
%TO.C,6V1*%
X137294000Y-107634000D03*
%TD*%
D13*
%TO.C,J8*%
X72727500Y-105155000D03*
D14*
X72727500Y-110235000D03*
%TD*%
D13*
%TO.C,J7*%
X72727500Y-81955000D03*
D14*
X72727500Y-87035000D03*
%TD*%
D12*
%TO.C,3V3*%
X108178000Y-78302000D03*
%TD*%
%TO.C,RE1*%
X135849000Y-86977000D03*
%TD*%
%TO.C,A5V1*%
X103935000Y-81521000D03*
%TD*%
D13*
%TO.C,J4*%
X72727500Y-93455000D03*
D14*
X72727500Y-98535000D03*
%TD*%
D16*
%TO.C,C32*%
X132387503Y-77375040D03*
X130837503Y-77375040D03*
%TD*%
D17*
%TO.C,C34*%
X131312503Y-67450040D03*
X131312503Y-65900040D03*
%TD*%
D18*
%TO.C,C94*%
X128012503Y-79800040D03*
X128012503Y-81350040D03*
%TD*%
D16*
%TO.C,C92*%
X132387503Y-73100000D03*
X130837503Y-73100000D03*
%TD*%
D18*
%TO.C,C20*%
X125112503Y-68675040D03*
X125112503Y-70225040D03*
%TD*%
D19*
%TO.C,C26*%
X123037503Y-75875040D03*
X124587503Y-75875040D03*
%TD*%
D18*
%TO.C,C33*%
X127812503Y-68700040D03*
X127812503Y-70250040D03*
%TD*%
D19*
%TO.C,C29*%
X123125000Y-73500000D03*
X124675000Y-73500000D03*
%TD*%
D18*
%TO.C,C18*%
X123512503Y-68700040D03*
X123512503Y-70250040D03*
%TD*%
D20*
%TO.C,C30*%
X133312503Y-67750040D03*
X133312503Y-64800040D03*
%TD*%
D16*
%TO.C,C25*%
X132375000Y-71500000D03*
X130825000Y-71500000D03*
%TD*%
D18*
%TO.C,C31*%
X122612503Y-80375040D03*
X122612503Y-81925040D03*
%TD*%
%TO.C,C17*%
X129312503Y-68700040D03*
X129312503Y-70250040D03*
%TD*%
D16*
%TO.C,C90*%
X132287503Y-75575040D03*
X130737503Y-75575040D03*
%TD*%
D19*
%TO.C,C28*%
X123137503Y-71875040D03*
X124687503Y-71875040D03*
%TD*%
M02*
