%TF.GenerationSoftware,KiCad,Pcbnew,9.0.3*%
%TF.CreationDate,2025-11-17T14:31:59+08:00*%
%TF.ProjectId,mobile_colimador_new,6d6f6269-6c65-45f6-936f-6c696d61646f,rev?*%
%TF.SameCoordinates,Original*%
%TF.FileFunction,Legend,Bot*%
%TF.FilePolarity,Positive*%
%FSLAX46Y46*%
G04 Gerber Fmt 4.6, Leading zero omitted, Abs format (unit mm)*
G04 Created by KiCad (PCBNEW 9.0.3) date 2025-11-17 14:31:59*
%MOMM*%
%LPD*%
G01*
G04 APERTURE LIST*
%ADD10C,0.250000*%
%ADD11C,0.300000*%
%ADD12C,0.150000*%
%ADD13C,0.120000*%
G04 APERTURE END LIST*
D10*
X56727095Y-49160380D02*
X56727095Y-50160380D01*
X57298523Y-49160380D02*
X56869952Y-49731809D01*
X57298523Y-50160380D02*
X56727095Y-49588952D01*
D11*
X166562285Y-96161685D02*
X166676571Y-96104542D01*
X166676571Y-96104542D02*
X166847999Y-96104542D01*
X166847999Y-96104542D02*
X167019428Y-96161685D01*
X167019428Y-96161685D02*
X167133713Y-96275971D01*
X167133713Y-96275971D02*
X167190856Y-96390257D01*
X167190856Y-96390257D02*
X167247999Y-96618828D01*
X167247999Y-96618828D02*
X167247999Y-96790257D01*
X167247999Y-96790257D02*
X167190856Y-97018828D01*
X167190856Y-97018828D02*
X167133713Y-97133114D01*
X167133713Y-97133114D02*
X167019428Y-97247400D01*
X167019428Y-97247400D02*
X166847999Y-97304542D01*
X166847999Y-97304542D02*
X166733713Y-97304542D01*
X166733713Y-97304542D02*
X166562285Y-97247400D01*
X166562285Y-97247400D02*
X166505142Y-97190257D01*
X166505142Y-97190257D02*
X166505142Y-96790257D01*
X166505142Y-96790257D02*
X166733713Y-96790257D01*
X165990856Y-97304542D02*
X165990856Y-96104542D01*
X165990856Y-96104542D02*
X165305142Y-97304542D01*
X165305142Y-97304542D02*
X165305142Y-96104542D01*
X164733713Y-97304542D02*
X164733713Y-96104542D01*
X164733713Y-96104542D02*
X164447999Y-96104542D01*
X164447999Y-96104542D02*
X164276570Y-96161685D01*
X164276570Y-96161685D02*
X164162285Y-96275971D01*
X164162285Y-96275971D02*
X164105142Y-96390257D01*
X164105142Y-96390257D02*
X164047999Y-96618828D01*
X164047999Y-96618828D02*
X164047999Y-96790257D01*
X164047999Y-96790257D02*
X164105142Y-97018828D01*
X164105142Y-97018828D02*
X164162285Y-97133114D01*
X164162285Y-97133114D02*
X164276570Y-97247400D01*
X164276570Y-97247400D02*
X164447999Y-97304542D01*
X164447999Y-97304542D02*
X164733713Y-97304542D01*
D10*
X127232095Y-51942904D02*
X127232095Y-51466714D01*
X126946380Y-52038142D02*
X127946380Y-51704809D01*
X127946380Y-51704809D02*
X126946380Y-51371476D01*
X127946380Y-50561952D02*
X127946380Y-51038142D01*
X127946380Y-51038142D02*
X127470190Y-51085761D01*
X127470190Y-51085761D02*
X127517809Y-51038142D01*
X127517809Y-51038142D02*
X127565428Y-50942904D01*
X127565428Y-50942904D02*
X127565428Y-50704809D01*
X127565428Y-50704809D02*
X127517809Y-50609571D01*
X127517809Y-50609571D02*
X127470190Y-50561952D01*
X127470190Y-50561952D02*
X127374952Y-50514333D01*
X127374952Y-50514333D02*
X127136857Y-50514333D01*
X127136857Y-50514333D02*
X127041619Y-50561952D01*
X127041619Y-50561952D02*
X126994000Y-50609571D01*
X126994000Y-50609571D02*
X126946380Y-50704809D01*
X126946380Y-50704809D02*
X126946380Y-50942904D01*
X126946380Y-50942904D02*
X126994000Y-51038142D01*
X126994000Y-51038142D02*
X127041619Y-51085761D01*
X127946380Y-50228618D02*
X126946380Y-49895285D01*
X126946380Y-49895285D02*
X127946380Y-49561952D01*
X127327333Y-49228618D02*
X127327333Y-48466714D01*
X126946380Y-48847666D02*
X127708285Y-48847666D01*
X118851352Y-55311761D02*
X119851352Y-55311761D01*
X119851352Y-55311761D02*
X119851352Y-54930809D01*
X119851352Y-54930809D02*
X119803733Y-54835571D01*
X119803733Y-54835571D02*
X119756114Y-54787952D01*
X119756114Y-54787952D02*
X119660876Y-54740333D01*
X119660876Y-54740333D02*
X119518019Y-54740333D01*
X119518019Y-54740333D02*
X119422781Y-54787952D01*
X119422781Y-54787952D02*
X119375162Y-54835571D01*
X119375162Y-54835571D02*
X119327543Y-54930809D01*
X119327543Y-54930809D02*
X119327543Y-55311761D01*
X118851352Y-54311761D02*
X119851352Y-54311761D01*
X119851352Y-54311761D02*
X119137067Y-53978428D01*
X119137067Y-53978428D02*
X119851352Y-53645095D01*
X119851352Y-53645095D02*
X118851352Y-53645095D01*
X119851352Y-53311761D02*
X119851352Y-52740333D01*
X118851352Y-53026047D02*
X119851352Y-53026047D01*
X118756114Y-52645095D02*
X118756114Y-51883190D01*
X119851352Y-51787951D02*
X118851352Y-51454618D01*
X118851352Y-51454618D02*
X119851352Y-51121285D01*
X118851352Y-50216523D02*
X119327543Y-50549856D01*
X118851352Y-50787951D02*
X119851352Y-50787951D01*
X119851352Y-50787951D02*
X119851352Y-50406999D01*
X119851352Y-50406999D02*
X119803733Y-50311761D01*
X119803733Y-50311761D02*
X119756114Y-50264142D01*
X119756114Y-50264142D02*
X119660876Y-50216523D01*
X119660876Y-50216523D02*
X119518019Y-50216523D01*
X119518019Y-50216523D02*
X119422781Y-50264142D01*
X119422781Y-50264142D02*
X119375162Y-50311761D01*
X119375162Y-50311761D02*
X119327543Y-50406999D01*
X119327543Y-50406999D02*
X119327543Y-50787951D01*
X119375162Y-49787951D02*
X119375162Y-49454618D01*
X118851352Y-49311761D02*
X118851352Y-49787951D01*
X118851352Y-49787951D02*
X119851352Y-49787951D01*
X119851352Y-49787951D02*
X119851352Y-49311761D01*
X119375162Y-48549856D02*
X119375162Y-48883189D01*
X118851352Y-48883189D02*
X119851352Y-48883189D01*
X119851352Y-48883189D02*
X119851352Y-48406999D01*
X57007952Y-61301380D02*
X56436524Y-61301380D01*
X56722238Y-61301380D02*
X56722238Y-62301380D01*
X56722238Y-62301380D02*
X56627000Y-62158523D01*
X56627000Y-62158523D02*
X56531762Y-62063285D01*
X56531762Y-62063285D02*
X56436524Y-62015666D01*
X57388905Y-62206142D02*
X57436524Y-62253761D01*
X57436524Y-62253761D02*
X57531762Y-62301380D01*
X57531762Y-62301380D02*
X57769857Y-62301380D01*
X57769857Y-62301380D02*
X57865095Y-62253761D01*
X57865095Y-62253761D02*
X57912714Y-62206142D01*
X57912714Y-62206142D02*
X57960333Y-62110904D01*
X57960333Y-62110904D02*
X57960333Y-62015666D01*
X57960333Y-62015666D02*
X57912714Y-61872809D01*
X57912714Y-61872809D02*
X57341286Y-61301380D01*
X57341286Y-61301380D02*
X57960333Y-61301380D01*
X58246048Y-62301380D02*
X58579381Y-61301380D01*
X58579381Y-61301380D02*
X58912714Y-62301380D01*
X116473380Y-55622809D02*
X117473380Y-55622809D01*
X117473380Y-55622809D02*
X117473380Y-55241857D01*
X117473380Y-55241857D02*
X117425761Y-55146619D01*
X117425761Y-55146619D02*
X117378142Y-55099000D01*
X117378142Y-55099000D02*
X117282904Y-55051381D01*
X117282904Y-55051381D02*
X117140047Y-55051381D01*
X117140047Y-55051381D02*
X117044809Y-55099000D01*
X117044809Y-55099000D02*
X116997190Y-55146619D01*
X116997190Y-55146619D02*
X116949571Y-55241857D01*
X116949571Y-55241857D02*
X116949571Y-55622809D01*
X116473380Y-54622809D02*
X117473380Y-54622809D01*
X117473380Y-54622809D02*
X116759095Y-54289476D01*
X116759095Y-54289476D02*
X117473380Y-53956143D01*
X117473380Y-53956143D02*
X116473380Y-53956143D01*
X117473380Y-53622809D02*
X117473380Y-53051381D01*
X116473380Y-53337095D02*
X117473380Y-53337095D01*
X116378142Y-52956143D02*
X116378142Y-52194238D01*
X116568619Y-51384714D02*
X116521000Y-51432333D01*
X116521000Y-51432333D02*
X116473380Y-51575190D01*
X116473380Y-51575190D02*
X116473380Y-51670428D01*
X116473380Y-51670428D02*
X116521000Y-51813285D01*
X116521000Y-51813285D02*
X116616238Y-51908523D01*
X116616238Y-51908523D02*
X116711476Y-51956142D01*
X116711476Y-51956142D02*
X116901952Y-52003761D01*
X116901952Y-52003761D02*
X117044809Y-52003761D01*
X117044809Y-52003761D02*
X117235285Y-51956142D01*
X117235285Y-51956142D02*
X117330523Y-51908523D01*
X117330523Y-51908523D02*
X117425761Y-51813285D01*
X117425761Y-51813285D02*
X117473380Y-51670428D01*
X117473380Y-51670428D02*
X117473380Y-51575190D01*
X117473380Y-51575190D02*
X117425761Y-51432333D01*
X117425761Y-51432333D02*
X117378142Y-51384714D01*
X117473380Y-50765666D02*
X117473380Y-50575190D01*
X117473380Y-50575190D02*
X117425761Y-50479952D01*
X117425761Y-50479952D02*
X117330523Y-50384714D01*
X117330523Y-50384714D02*
X117140047Y-50337095D01*
X117140047Y-50337095D02*
X116806714Y-50337095D01*
X116806714Y-50337095D02*
X116616238Y-50384714D01*
X116616238Y-50384714D02*
X116521000Y-50479952D01*
X116521000Y-50479952D02*
X116473380Y-50575190D01*
X116473380Y-50575190D02*
X116473380Y-50765666D01*
X116473380Y-50765666D02*
X116521000Y-50860904D01*
X116521000Y-50860904D02*
X116616238Y-50956142D01*
X116616238Y-50956142D02*
X116806714Y-51003761D01*
X116806714Y-51003761D02*
X117140047Y-51003761D01*
X117140047Y-51003761D02*
X117330523Y-50956142D01*
X117330523Y-50956142D02*
X117425761Y-50860904D01*
X117425761Y-50860904D02*
X117473380Y-50765666D01*
X116473380Y-49908523D02*
X117473380Y-49908523D01*
X117473380Y-49908523D02*
X116473380Y-49337095D01*
X116473380Y-49337095D02*
X117473380Y-49337095D01*
X117473380Y-49003761D02*
X117473380Y-48432333D01*
X116473380Y-48718047D02*
X117473380Y-48718047D01*
X56698095Y-55356761D02*
X56602857Y-55404380D01*
X56602857Y-55404380D02*
X56460000Y-55404380D01*
X56460000Y-55404380D02*
X56317143Y-55356761D01*
X56317143Y-55356761D02*
X56221905Y-55261523D01*
X56221905Y-55261523D02*
X56174286Y-55166285D01*
X56174286Y-55166285D02*
X56126667Y-54975809D01*
X56126667Y-54975809D02*
X56126667Y-54832952D01*
X56126667Y-54832952D02*
X56174286Y-54642476D01*
X56174286Y-54642476D02*
X56221905Y-54547238D01*
X56221905Y-54547238D02*
X56317143Y-54452000D01*
X56317143Y-54452000D02*
X56460000Y-54404380D01*
X56460000Y-54404380D02*
X56555238Y-54404380D01*
X56555238Y-54404380D02*
X56698095Y-54452000D01*
X56698095Y-54452000D02*
X56745714Y-54499619D01*
X56745714Y-54499619D02*
X56745714Y-54832952D01*
X56745714Y-54832952D02*
X56555238Y-54832952D01*
X57174286Y-54404380D02*
X57174286Y-55404380D01*
X57174286Y-55404380D02*
X57745714Y-54404380D01*
X57745714Y-54404380D02*
X57745714Y-55404380D01*
X58221905Y-54404380D02*
X58221905Y-55404380D01*
X58221905Y-55404380D02*
X58460000Y-55404380D01*
X58460000Y-55404380D02*
X58602857Y-55356761D01*
X58602857Y-55356761D02*
X58698095Y-55261523D01*
X58698095Y-55261523D02*
X58745714Y-55166285D01*
X58745714Y-55166285D02*
X58793333Y-54975809D01*
X58793333Y-54975809D02*
X58793333Y-54832952D01*
X58793333Y-54832952D02*
X58745714Y-54642476D01*
X58745714Y-54642476D02*
X58698095Y-54547238D01*
X58698095Y-54547238D02*
X58602857Y-54452000D01*
X58602857Y-54452000D02*
X58460000Y-54404380D01*
X58460000Y-54404380D02*
X58221905Y-54404380D01*
D11*
X166221856Y-102769542D02*
X166907570Y-102769542D01*
X166564713Y-102769542D02*
X166564713Y-101569542D01*
X166564713Y-101569542D02*
X166678999Y-101740971D01*
X166678999Y-101740971D02*
X166793284Y-101855257D01*
X166793284Y-101855257D02*
X166907570Y-101912400D01*
X165764713Y-101683828D02*
X165707570Y-101626685D01*
X165707570Y-101626685D02*
X165593285Y-101569542D01*
X165593285Y-101569542D02*
X165307570Y-101569542D01*
X165307570Y-101569542D02*
X165193285Y-101626685D01*
X165193285Y-101626685D02*
X165136142Y-101683828D01*
X165136142Y-101683828D02*
X165078999Y-101798114D01*
X165078999Y-101798114D02*
X165078999Y-101912400D01*
X165078999Y-101912400D02*
X165136142Y-102083828D01*
X165136142Y-102083828D02*
X165821856Y-102769542D01*
X165821856Y-102769542D02*
X165078999Y-102769542D01*
X164736142Y-101569542D02*
X164336142Y-102769542D01*
X164336142Y-102769542D02*
X163936142Y-101569542D01*
D10*
X57005095Y-64840761D02*
X56909857Y-64888380D01*
X56909857Y-64888380D02*
X56767000Y-64888380D01*
X56767000Y-64888380D02*
X56624143Y-64840761D01*
X56624143Y-64840761D02*
X56528905Y-64745523D01*
X56528905Y-64745523D02*
X56481286Y-64650285D01*
X56481286Y-64650285D02*
X56433667Y-64459809D01*
X56433667Y-64459809D02*
X56433667Y-64316952D01*
X56433667Y-64316952D02*
X56481286Y-64126476D01*
X56481286Y-64126476D02*
X56528905Y-64031238D01*
X56528905Y-64031238D02*
X56624143Y-63936000D01*
X56624143Y-63936000D02*
X56767000Y-63888380D01*
X56767000Y-63888380D02*
X56862238Y-63888380D01*
X56862238Y-63888380D02*
X57005095Y-63936000D01*
X57005095Y-63936000D02*
X57052714Y-63983619D01*
X57052714Y-63983619D02*
X57052714Y-64316952D01*
X57052714Y-64316952D02*
X56862238Y-64316952D01*
X57481286Y-63888380D02*
X57481286Y-64888380D01*
X57481286Y-64888380D02*
X58052714Y-63888380D01*
X58052714Y-63888380D02*
X58052714Y-64888380D01*
X58528905Y-63888380D02*
X58528905Y-64888380D01*
X58528905Y-64888380D02*
X58767000Y-64888380D01*
X58767000Y-64888380D02*
X58909857Y-64840761D01*
X58909857Y-64840761D02*
X59005095Y-64745523D01*
X59005095Y-64745523D02*
X59052714Y-64650285D01*
X59052714Y-64650285D02*
X59100333Y-64459809D01*
X59100333Y-64459809D02*
X59100333Y-64316952D01*
X59100333Y-64316952D02*
X59052714Y-64126476D01*
X59052714Y-64126476D02*
X59005095Y-64031238D01*
X59005095Y-64031238D02*
X58909857Y-63936000D01*
X58909857Y-63936000D02*
X58767000Y-63888380D01*
X58767000Y-63888380D02*
X58528905Y-63888380D01*
X57328095Y-100222380D02*
X57328095Y-101222380D01*
X57899523Y-100222380D02*
X57470952Y-100793809D01*
X57899523Y-101222380D02*
X57328095Y-100650952D01*
D11*
X165024285Y-79440971D02*
X164852857Y-79498114D01*
X164852857Y-79498114D02*
X164795714Y-79555257D01*
X164795714Y-79555257D02*
X164738571Y-79669542D01*
X164738571Y-79669542D02*
X164738571Y-79840971D01*
X164738571Y-79840971D02*
X164795714Y-79955257D01*
X164795714Y-79955257D02*
X164852857Y-80012400D01*
X164852857Y-80012400D02*
X164967142Y-80069542D01*
X164967142Y-80069542D02*
X165424285Y-80069542D01*
X165424285Y-80069542D02*
X165424285Y-78869542D01*
X165424285Y-78869542D02*
X165024285Y-78869542D01*
X165024285Y-78869542D02*
X164910000Y-78926685D01*
X164910000Y-78926685D02*
X164852857Y-78983828D01*
X164852857Y-78983828D02*
X164795714Y-79098114D01*
X164795714Y-79098114D02*
X164795714Y-79212400D01*
X164795714Y-79212400D02*
X164852857Y-79326685D01*
X164852857Y-79326685D02*
X164910000Y-79383828D01*
X164910000Y-79383828D02*
X165024285Y-79440971D01*
X165024285Y-79440971D02*
X165424285Y-79440971D01*
D10*
X57264905Y-98143095D02*
X57741095Y-98143095D01*
X57169667Y-97857380D02*
X57503000Y-98857380D01*
X57503000Y-98857380D02*
X57836333Y-97857380D01*
X57565523Y-74438380D02*
X57089333Y-74438380D01*
X57089333Y-74438380D02*
X57041714Y-73962190D01*
X57041714Y-73962190D02*
X57089333Y-74009809D01*
X57089333Y-74009809D02*
X57184571Y-74057428D01*
X57184571Y-74057428D02*
X57422666Y-74057428D01*
X57422666Y-74057428D02*
X57517904Y-74009809D01*
X57517904Y-74009809D02*
X57565523Y-73962190D01*
X57565523Y-73962190D02*
X57613142Y-73866952D01*
X57613142Y-73866952D02*
X57613142Y-73628857D01*
X57613142Y-73628857D02*
X57565523Y-73533619D01*
X57565523Y-73533619D02*
X57517904Y-73486000D01*
X57517904Y-73486000D02*
X57422666Y-73438380D01*
X57422666Y-73438380D02*
X57184571Y-73438380D01*
X57184571Y-73438380D02*
X57089333Y-73486000D01*
X57089333Y-73486000D02*
X57041714Y-73533619D01*
X57898857Y-74438380D02*
X58232190Y-73438380D01*
X58232190Y-73438380D02*
X58565523Y-74438380D01*
D11*
X166430285Y-84002685D02*
X166544571Y-83945542D01*
X166544571Y-83945542D02*
X166715999Y-83945542D01*
X166715999Y-83945542D02*
X166887428Y-84002685D01*
X166887428Y-84002685D02*
X167001713Y-84116971D01*
X167001713Y-84116971D02*
X167058856Y-84231257D01*
X167058856Y-84231257D02*
X167115999Y-84459828D01*
X167115999Y-84459828D02*
X167115999Y-84631257D01*
X167115999Y-84631257D02*
X167058856Y-84859828D01*
X167058856Y-84859828D02*
X167001713Y-84974114D01*
X167001713Y-84974114D02*
X166887428Y-85088400D01*
X166887428Y-85088400D02*
X166715999Y-85145542D01*
X166715999Y-85145542D02*
X166601713Y-85145542D01*
X166601713Y-85145542D02*
X166430285Y-85088400D01*
X166430285Y-85088400D02*
X166373142Y-85031257D01*
X166373142Y-85031257D02*
X166373142Y-84631257D01*
X166373142Y-84631257D02*
X166601713Y-84631257D01*
X165858856Y-85145542D02*
X165858856Y-83945542D01*
X165858856Y-83945542D02*
X165173142Y-85145542D01*
X165173142Y-85145542D02*
X165173142Y-83945542D01*
X164601713Y-85145542D02*
X164601713Y-83945542D01*
X164601713Y-83945542D02*
X164315999Y-83945542D01*
X164315999Y-83945542D02*
X164144570Y-84002685D01*
X164144570Y-84002685D02*
X164030285Y-84116971D01*
X164030285Y-84116971D02*
X163973142Y-84231257D01*
X163973142Y-84231257D02*
X163915999Y-84459828D01*
X163915999Y-84459828D02*
X163915999Y-84631257D01*
X163915999Y-84631257D02*
X163973142Y-84859828D01*
X163973142Y-84859828D02*
X164030285Y-84974114D01*
X164030285Y-84974114D02*
X164144570Y-85088400D01*
X164144570Y-85088400D02*
X164315999Y-85145542D01*
X164315999Y-85145542D02*
X164601713Y-85145542D01*
D10*
X57331905Y-92929095D02*
X57808095Y-92929095D01*
X57236667Y-92643380D02*
X57570000Y-93643380D01*
X57570000Y-93643380D02*
X57903333Y-92643380D01*
X57317523Y-69021380D02*
X56841333Y-69021380D01*
X56841333Y-69021380D02*
X56793714Y-68545190D01*
X56793714Y-68545190D02*
X56841333Y-68592809D01*
X56841333Y-68592809D02*
X56936571Y-68640428D01*
X56936571Y-68640428D02*
X57174666Y-68640428D01*
X57174666Y-68640428D02*
X57269904Y-68592809D01*
X57269904Y-68592809D02*
X57317523Y-68545190D01*
X57317523Y-68545190D02*
X57365142Y-68449952D01*
X57365142Y-68449952D02*
X57365142Y-68211857D01*
X57365142Y-68211857D02*
X57317523Y-68116619D01*
X57317523Y-68116619D02*
X57269904Y-68069000D01*
X57269904Y-68069000D02*
X57174666Y-68021380D01*
X57174666Y-68021380D02*
X56936571Y-68021380D01*
X56936571Y-68021380D02*
X56841333Y-68069000D01*
X56841333Y-68069000D02*
X56793714Y-68116619D01*
X57650857Y-69021380D02*
X57984190Y-68021380D01*
X57984190Y-68021380D02*
X58317523Y-69021380D01*
X56026952Y-80931380D02*
X56026952Y-81931380D01*
X56026952Y-81931380D02*
X56360285Y-81217095D01*
X56360285Y-81217095D02*
X56693618Y-81931380D01*
X56693618Y-81931380D02*
X56693618Y-80931380D01*
X56931714Y-80836142D02*
X57693618Y-80836142D01*
X57931714Y-81455190D02*
X58265047Y-81455190D01*
X58407904Y-80931380D02*
X57931714Y-80931380D01*
X57931714Y-80931380D02*
X57931714Y-81931380D01*
X57931714Y-81931380D02*
X58407904Y-81931380D01*
X58836476Y-80931380D02*
X58836476Y-81931380D01*
X58836476Y-81931380D02*
X59407904Y-80931380D01*
X59407904Y-80931380D02*
X59407904Y-81931380D01*
X59836476Y-81217095D02*
X60312666Y-81217095D01*
X59741238Y-80931380D02*
X60074571Y-81931380D01*
X60074571Y-81931380D02*
X60407904Y-80931380D01*
X57607523Y-79345380D02*
X57131333Y-79345380D01*
X57131333Y-79345380D02*
X57083714Y-78869190D01*
X57083714Y-78869190D02*
X57131333Y-78916809D01*
X57131333Y-78916809D02*
X57226571Y-78964428D01*
X57226571Y-78964428D02*
X57464666Y-78964428D01*
X57464666Y-78964428D02*
X57559904Y-78916809D01*
X57559904Y-78916809D02*
X57607523Y-78869190D01*
X57607523Y-78869190D02*
X57655142Y-78773952D01*
X57655142Y-78773952D02*
X57655142Y-78535857D01*
X57655142Y-78535857D02*
X57607523Y-78440619D01*
X57607523Y-78440619D02*
X57559904Y-78393000D01*
X57559904Y-78393000D02*
X57464666Y-78345380D01*
X57464666Y-78345380D02*
X57226571Y-78345380D01*
X57226571Y-78345380D02*
X57131333Y-78393000D01*
X57131333Y-78393000D02*
X57083714Y-78440619D01*
X57940857Y-79345380D02*
X58274190Y-78345380D01*
X58274190Y-78345380D02*
X58607523Y-79345380D01*
X121981095Y-51882904D02*
X121981095Y-51406714D01*
X121695380Y-51978142D02*
X122695380Y-51644809D01*
X122695380Y-51644809D02*
X121695380Y-51311476D01*
X122647761Y-50454333D02*
X122695380Y-50549571D01*
X122695380Y-50549571D02*
X122695380Y-50692428D01*
X122695380Y-50692428D02*
X122647761Y-50835285D01*
X122647761Y-50835285D02*
X122552523Y-50930523D01*
X122552523Y-50930523D02*
X122457285Y-50978142D01*
X122457285Y-50978142D02*
X122266809Y-51025761D01*
X122266809Y-51025761D02*
X122123952Y-51025761D01*
X122123952Y-51025761D02*
X121933476Y-50978142D01*
X121933476Y-50978142D02*
X121838238Y-50930523D01*
X121838238Y-50930523D02*
X121743000Y-50835285D01*
X121743000Y-50835285D02*
X121695380Y-50692428D01*
X121695380Y-50692428D02*
X121695380Y-50597190D01*
X121695380Y-50597190D02*
X121743000Y-50454333D01*
X121743000Y-50454333D02*
X121790619Y-50406714D01*
X121790619Y-50406714D02*
X122123952Y-50406714D01*
X122123952Y-50406714D02*
X122123952Y-50597190D01*
X121695380Y-49978142D02*
X122695380Y-49978142D01*
X122695380Y-49978142D02*
X121695380Y-49406714D01*
X121695380Y-49406714D02*
X122695380Y-49406714D01*
X121695380Y-48930523D02*
X122695380Y-48930523D01*
X122695380Y-48930523D02*
X122695380Y-48692428D01*
X122695380Y-48692428D02*
X122647761Y-48549571D01*
X122647761Y-48549571D02*
X122552523Y-48454333D01*
X122552523Y-48454333D02*
X122457285Y-48406714D01*
X122457285Y-48406714D02*
X122266809Y-48359095D01*
X122266809Y-48359095D02*
X122123952Y-48359095D01*
X122123952Y-48359095D02*
X121933476Y-48406714D01*
X121933476Y-48406714D02*
X121838238Y-48454333D01*
X121838238Y-48454333D02*
X121743000Y-48549571D01*
X121743000Y-48549571D02*
X121695380Y-48692428D01*
X121695380Y-48692428D02*
X121695380Y-48930523D01*
X129400352Y-54754523D02*
X130400352Y-54754523D01*
X130400352Y-54754523D02*
X130400352Y-54373571D01*
X130400352Y-54373571D02*
X130352733Y-54278333D01*
X130352733Y-54278333D02*
X130305114Y-54230714D01*
X130305114Y-54230714D02*
X130209876Y-54183095D01*
X130209876Y-54183095D02*
X130067019Y-54183095D01*
X130067019Y-54183095D02*
X129971781Y-54230714D01*
X129971781Y-54230714D02*
X129924162Y-54278333D01*
X129924162Y-54278333D02*
X129876543Y-54373571D01*
X129876543Y-54373571D02*
X129876543Y-54754523D01*
X129400352Y-53754523D02*
X130400352Y-53754523D01*
X130400352Y-53754523D02*
X129686067Y-53421190D01*
X129686067Y-53421190D02*
X130400352Y-53087857D01*
X130400352Y-53087857D02*
X129400352Y-53087857D01*
X130400352Y-52754523D02*
X130400352Y-52183095D01*
X129400352Y-52468809D02*
X130400352Y-52468809D01*
X129305114Y-52087857D02*
X129305114Y-51325952D01*
X129447972Y-51135475D02*
X129400352Y-50992618D01*
X129400352Y-50992618D02*
X129400352Y-50754523D01*
X129400352Y-50754523D02*
X129447972Y-50659285D01*
X129447972Y-50659285D02*
X129495591Y-50611666D01*
X129495591Y-50611666D02*
X129590829Y-50564047D01*
X129590829Y-50564047D02*
X129686067Y-50564047D01*
X129686067Y-50564047D02*
X129781305Y-50611666D01*
X129781305Y-50611666D02*
X129828924Y-50659285D01*
X129828924Y-50659285D02*
X129876543Y-50754523D01*
X129876543Y-50754523D02*
X129924162Y-50944999D01*
X129924162Y-50944999D02*
X129971781Y-51040237D01*
X129971781Y-51040237D02*
X130019400Y-51087856D01*
X130019400Y-51087856D02*
X130114638Y-51135475D01*
X130114638Y-51135475D02*
X130209876Y-51135475D01*
X130209876Y-51135475D02*
X130305114Y-51087856D01*
X130305114Y-51087856D02*
X130352733Y-51040237D01*
X130352733Y-51040237D02*
X130400352Y-50944999D01*
X130400352Y-50944999D02*
X130400352Y-50706904D01*
X130400352Y-50706904D02*
X130352733Y-50564047D01*
X129400352Y-50135475D02*
X130400352Y-50135475D01*
X130352733Y-49135476D02*
X130400352Y-49230714D01*
X130400352Y-49230714D02*
X130400352Y-49373571D01*
X130400352Y-49373571D02*
X130352733Y-49516428D01*
X130352733Y-49516428D02*
X130257495Y-49611666D01*
X130257495Y-49611666D02*
X130162257Y-49659285D01*
X130162257Y-49659285D02*
X129971781Y-49706904D01*
X129971781Y-49706904D02*
X129828924Y-49706904D01*
X129828924Y-49706904D02*
X129638448Y-49659285D01*
X129638448Y-49659285D02*
X129543210Y-49611666D01*
X129543210Y-49611666D02*
X129447972Y-49516428D01*
X129447972Y-49516428D02*
X129400352Y-49373571D01*
X129400352Y-49373571D02*
X129400352Y-49278333D01*
X129400352Y-49278333D02*
X129447972Y-49135476D01*
X129447972Y-49135476D02*
X129495591Y-49087857D01*
X129495591Y-49087857D02*
X129828924Y-49087857D01*
X129828924Y-49087857D02*
X129828924Y-49278333D01*
X56680952Y-51757380D02*
X56109524Y-51757380D01*
X56395238Y-51757380D02*
X56395238Y-52757380D01*
X56395238Y-52757380D02*
X56300000Y-52614523D01*
X56300000Y-52614523D02*
X56204762Y-52519285D01*
X56204762Y-52519285D02*
X56109524Y-52471666D01*
X57061905Y-52662142D02*
X57109524Y-52709761D01*
X57109524Y-52709761D02*
X57204762Y-52757380D01*
X57204762Y-52757380D02*
X57442857Y-52757380D01*
X57442857Y-52757380D02*
X57538095Y-52709761D01*
X57538095Y-52709761D02*
X57585714Y-52662142D01*
X57585714Y-52662142D02*
X57633333Y-52566904D01*
X57633333Y-52566904D02*
X57633333Y-52471666D01*
X57633333Y-52471666D02*
X57585714Y-52328809D01*
X57585714Y-52328809D02*
X57014286Y-51757380D01*
X57014286Y-51757380D02*
X57633333Y-51757380D01*
X57919048Y-52757380D02*
X58252381Y-51757380D01*
X58252381Y-51757380D02*
X58585714Y-52757380D01*
X56599095Y-106093761D02*
X56503857Y-106141380D01*
X56503857Y-106141380D02*
X56361000Y-106141380D01*
X56361000Y-106141380D02*
X56218143Y-106093761D01*
X56218143Y-106093761D02*
X56122905Y-105998523D01*
X56122905Y-105998523D02*
X56075286Y-105903285D01*
X56075286Y-105903285D02*
X56027667Y-105712809D01*
X56027667Y-105712809D02*
X56027667Y-105569952D01*
X56027667Y-105569952D02*
X56075286Y-105379476D01*
X56075286Y-105379476D02*
X56122905Y-105284238D01*
X56122905Y-105284238D02*
X56218143Y-105189000D01*
X56218143Y-105189000D02*
X56361000Y-105141380D01*
X56361000Y-105141380D02*
X56456238Y-105141380D01*
X56456238Y-105141380D02*
X56599095Y-105189000D01*
X56599095Y-105189000D02*
X56646714Y-105236619D01*
X56646714Y-105236619D02*
X56646714Y-105569952D01*
X56646714Y-105569952D02*
X56456238Y-105569952D01*
X57075286Y-105141380D02*
X57075286Y-106141380D01*
X57075286Y-106141380D02*
X57646714Y-105141380D01*
X57646714Y-105141380D02*
X57646714Y-106141380D01*
X58122905Y-105141380D02*
X58122905Y-106141380D01*
X58122905Y-106141380D02*
X58361000Y-106141380D01*
X58361000Y-106141380D02*
X58503857Y-106093761D01*
X58503857Y-106093761D02*
X58599095Y-105998523D01*
X58599095Y-105998523D02*
X58646714Y-105903285D01*
X58646714Y-105903285D02*
X58694333Y-105712809D01*
X58694333Y-105712809D02*
X58694333Y-105569952D01*
X58694333Y-105569952D02*
X58646714Y-105379476D01*
X58646714Y-105379476D02*
X58599095Y-105284238D01*
X58599095Y-105284238D02*
X58503857Y-105189000D01*
X58503857Y-105189000D02*
X58361000Y-105141380D01*
X58361000Y-105141380D02*
X58122905Y-105141380D01*
X124699067Y-52038904D02*
X124699067Y-51562714D01*
X124413352Y-52134142D02*
X125413352Y-51800809D01*
X125413352Y-51800809D02*
X124413352Y-51467476D01*
X125413352Y-50657952D02*
X125413352Y-51134142D01*
X125413352Y-51134142D02*
X124937162Y-51181761D01*
X124937162Y-51181761D02*
X124984781Y-51134142D01*
X124984781Y-51134142D02*
X125032400Y-51038904D01*
X125032400Y-51038904D02*
X125032400Y-50800809D01*
X125032400Y-50800809D02*
X124984781Y-50705571D01*
X124984781Y-50705571D02*
X124937162Y-50657952D01*
X124937162Y-50657952D02*
X124841924Y-50610333D01*
X124841924Y-50610333D02*
X124603829Y-50610333D01*
X124603829Y-50610333D02*
X124508591Y-50657952D01*
X124508591Y-50657952D02*
X124460972Y-50705571D01*
X124460972Y-50705571D02*
X124413352Y-50800809D01*
X124413352Y-50800809D02*
X124413352Y-51038904D01*
X124413352Y-51038904D02*
X124460972Y-51134142D01*
X124460972Y-51134142D02*
X124508591Y-51181761D01*
X125413352Y-50324618D02*
X124413352Y-49991285D01*
X124413352Y-49991285D02*
X125413352Y-49657952D01*
X124794305Y-49324618D02*
X124794305Y-48562714D01*
X56032143Y-70803380D02*
X56032143Y-71803380D01*
X56032143Y-71803380D02*
X56365476Y-71089095D01*
X56365476Y-71089095D02*
X56698809Y-71803380D01*
X56698809Y-71803380D02*
X56698809Y-70803380D01*
X56936905Y-70708142D02*
X57698809Y-70708142D01*
X57936905Y-70803380D02*
X57936905Y-71803380D01*
X57936905Y-71803380D02*
X58317857Y-71803380D01*
X58317857Y-71803380D02*
X58413095Y-71755761D01*
X58413095Y-71755761D02*
X58460714Y-71708142D01*
X58460714Y-71708142D02*
X58508333Y-71612904D01*
X58508333Y-71612904D02*
X58508333Y-71470047D01*
X58508333Y-71470047D02*
X58460714Y-71374809D01*
X58460714Y-71374809D02*
X58413095Y-71327190D01*
X58413095Y-71327190D02*
X58317857Y-71279571D01*
X58317857Y-71279571D02*
X57936905Y-71279571D01*
X58936905Y-71803380D02*
X58936905Y-70993857D01*
X58936905Y-70993857D02*
X58984524Y-70898619D01*
X58984524Y-70898619D02*
X59032143Y-70851000D01*
X59032143Y-70851000D02*
X59127381Y-70803380D01*
X59127381Y-70803380D02*
X59317857Y-70803380D01*
X59317857Y-70803380D02*
X59413095Y-70851000D01*
X59413095Y-70851000D02*
X59460714Y-70898619D01*
X59460714Y-70898619D02*
X59508333Y-70993857D01*
X59508333Y-70993857D02*
X59508333Y-71803380D01*
X60460714Y-70803380D02*
X59984524Y-70803380D01*
X59984524Y-70803380D02*
X59984524Y-71803380D01*
X57308095Y-95190380D02*
X57308095Y-96190380D01*
X57879523Y-95190380D02*
X57450952Y-95761809D01*
X57879523Y-96190380D02*
X57308095Y-95618952D01*
X56981523Y-103853380D02*
X56505333Y-103853380D01*
X56505333Y-103853380D02*
X56457714Y-103377190D01*
X56457714Y-103377190D02*
X56505333Y-103424809D01*
X56505333Y-103424809D02*
X56600571Y-103472428D01*
X56600571Y-103472428D02*
X56838666Y-103472428D01*
X56838666Y-103472428D02*
X56933904Y-103424809D01*
X56933904Y-103424809D02*
X56981523Y-103377190D01*
X56981523Y-103377190D02*
X57029142Y-103281952D01*
X57029142Y-103281952D02*
X57029142Y-103043857D01*
X57029142Y-103043857D02*
X56981523Y-102948619D01*
X56981523Y-102948619D02*
X56933904Y-102901000D01*
X56933904Y-102901000D02*
X56838666Y-102853380D01*
X56838666Y-102853380D02*
X56600571Y-102853380D01*
X56600571Y-102853380D02*
X56505333Y-102901000D01*
X56505333Y-102901000D02*
X56457714Y-102948619D01*
X57314857Y-103853380D02*
X57648190Y-102853380D01*
X57648190Y-102853380D02*
X57981523Y-103853380D01*
X56021619Y-75809380D02*
X56021619Y-76809380D01*
X56021619Y-76809380D02*
X56354952Y-76095095D01*
X56354952Y-76095095D02*
X56688285Y-76809380D01*
X56688285Y-76809380D02*
X56688285Y-75809380D01*
X56926381Y-75714142D02*
X57688285Y-75714142D01*
X57926381Y-75809380D02*
X57926381Y-76809380D01*
X57926381Y-76809380D02*
X58164476Y-76809380D01*
X58164476Y-76809380D02*
X58307333Y-76761761D01*
X58307333Y-76761761D02*
X58402571Y-76666523D01*
X58402571Y-76666523D02*
X58450190Y-76571285D01*
X58450190Y-76571285D02*
X58497809Y-76380809D01*
X58497809Y-76380809D02*
X58497809Y-76237952D01*
X58497809Y-76237952D02*
X58450190Y-76047476D01*
X58450190Y-76047476D02*
X58402571Y-75952238D01*
X58402571Y-75952238D02*
X58307333Y-75857000D01*
X58307333Y-75857000D02*
X58164476Y-75809380D01*
X58164476Y-75809380D02*
X57926381Y-75809380D01*
X58926381Y-75809380D02*
X58926381Y-76809380D01*
X59973999Y-75809380D02*
X59640666Y-76285571D01*
X59402571Y-75809380D02*
X59402571Y-76809380D01*
X59402571Y-76809380D02*
X59783523Y-76809380D01*
X59783523Y-76809380D02*
X59878761Y-76761761D01*
X59878761Y-76761761D02*
X59926380Y-76714142D01*
X59926380Y-76714142D02*
X59973999Y-76618904D01*
X59973999Y-76618904D02*
X59973999Y-76476047D01*
X59973999Y-76476047D02*
X59926380Y-76380809D01*
X59926380Y-76380809D02*
X59878761Y-76333190D01*
X59878761Y-76333190D02*
X59783523Y-76285571D01*
X59783523Y-76285571D02*
X59402571Y-76285571D01*
D11*
X165679713Y-74374685D02*
X165108285Y-74374685D01*
X165793999Y-74717542D02*
X165393999Y-73517542D01*
X165393999Y-73517542D02*
X164993999Y-74717542D01*
D10*
X56867095Y-58548380D02*
X56867095Y-59548380D01*
X57438523Y-58548380D02*
X57009952Y-59119809D01*
X57438523Y-59548380D02*
X56867095Y-58976952D01*
D12*
X91584580Y-66257142D02*
X91632200Y-66209523D01*
X91632200Y-66209523D02*
X91679819Y-66066666D01*
X91679819Y-66066666D02*
X91679819Y-65971428D01*
X91679819Y-65971428D02*
X91632200Y-65828571D01*
X91632200Y-65828571D02*
X91536961Y-65733333D01*
X91536961Y-65733333D02*
X91441723Y-65685714D01*
X91441723Y-65685714D02*
X91251247Y-65638095D01*
X91251247Y-65638095D02*
X91108390Y-65638095D01*
X91108390Y-65638095D02*
X90917914Y-65685714D01*
X90917914Y-65685714D02*
X90822676Y-65733333D01*
X90822676Y-65733333D02*
X90727438Y-65828571D01*
X90727438Y-65828571D02*
X90679819Y-65971428D01*
X90679819Y-65971428D02*
X90679819Y-66066666D01*
X90679819Y-66066666D02*
X90727438Y-66209523D01*
X90727438Y-66209523D02*
X90775057Y-66257142D01*
X90679819Y-66590476D02*
X90679819Y-67209523D01*
X90679819Y-67209523D02*
X91060771Y-66876190D01*
X91060771Y-66876190D02*
X91060771Y-67019047D01*
X91060771Y-67019047D02*
X91108390Y-67114285D01*
X91108390Y-67114285D02*
X91156009Y-67161904D01*
X91156009Y-67161904D02*
X91251247Y-67209523D01*
X91251247Y-67209523D02*
X91489342Y-67209523D01*
X91489342Y-67209523D02*
X91584580Y-67161904D01*
X91584580Y-67161904D02*
X91632200Y-67114285D01*
X91632200Y-67114285D02*
X91679819Y-67019047D01*
X91679819Y-67019047D02*
X91679819Y-66733333D01*
X91679819Y-66733333D02*
X91632200Y-66638095D01*
X91632200Y-66638095D02*
X91584580Y-66590476D01*
X90679819Y-67542857D02*
X90679819Y-68161904D01*
X90679819Y-68161904D02*
X91060771Y-67828571D01*
X91060771Y-67828571D02*
X91060771Y-67971428D01*
X91060771Y-67971428D02*
X91108390Y-68066666D01*
X91108390Y-68066666D02*
X91156009Y-68114285D01*
X91156009Y-68114285D02*
X91251247Y-68161904D01*
X91251247Y-68161904D02*
X91489342Y-68161904D01*
X91489342Y-68161904D02*
X91584580Y-68114285D01*
X91584580Y-68114285D02*
X91632200Y-68066666D01*
X91632200Y-68066666D02*
X91679819Y-67971428D01*
X91679819Y-67971428D02*
X91679819Y-67685714D01*
X91679819Y-67685714D02*
X91632200Y-67590476D01*
X91632200Y-67590476D02*
X91584580Y-67542857D01*
X78942857Y-73254819D02*
X79276190Y-72778628D01*
X79514285Y-73254819D02*
X79514285Y-72254819D01*
X79514285Y-72254819D02*
X79133333Y-72254819D01*
X79133333Y-72254819D02*
X79038095Y-72302438D01*
X79038095Y-72302438D02*
X78990476Y-72350057D01*
X78990476Y-72350057D02*
X78942857Y-72445295D01*
X78942857Y-72445295D02*
X78942857Y-72588152D01*
X78942857Y-72588152D02*
X78990476Y-72683390D01*
X78990476Y-72683390D02*
X79038095Y-72731009D01*
X79038095Y-72731009D02*
X79133333Y-72778628D01*
X79133333Y-72778628D02*
X79514285Y-72778628D01*
X78609523Y-72254819D02*
X77942857Y-72254819D01*
X77942857Y-72254819D02*
X78371428Y-73254819D01*
X77038095Y-73254819D02*
X77609523Y-73254819D01*
X77323809Y-73254819D02*
X77323809Y-72254819D01*
X77323809Y-72254819D02*
X77419047Y-72397676D01*
X77419047Y-72397676D02*
X77514285Y-72492914D01*
X77514285Y-72492914D02*
X77609523Y-72540533D01*
X92292857Y-74184580D02*
X92340476Y-74232200D01*
X92340476Y-74232200D02*
X92483333Y-74279819D01*
X92483333Y-74279819D02*
X92578571Y-74279819D01*
X92578571Y-74279819D02*
X92721428Y-74232200D01*
X92721428Y-74232200D02*
X92816666Y-74136961D01*
X92816666Y-74136961D02*
X92864285Y-74041723D01*
X92864285Y-74041723D02*
X92911904Y-73851247D01*
X92911904Y-73851247D02*
X92911904Y-73708390D01*
X92911904Y-73708390D02*
X92864285Y-73517914D01*
X92864285Y-73517914D02*
X92816666Y-73422676D01*
X92816666Y-73422676D02*
X92721428Y-73327438D01*
X92721428Y-73327438D02*
X92578571Y-73279819D01*
X92578571Y-73279819D02*
X92483333Y-73279819D01*
X92483333Y-73279819D02*
X92340476Y-73327438D01*
X92340476Y-73327438D02*
X92292857Y-73375057D01*
X91816666Y-74279819D02*
X91626190Y-74279819D01*
X91626190Y-74279819D02*
X91530952Y-74232200D01*
X91530952Y-74232200D02*
X91483333Y-74184580D01*
X91483333Y-74184580D02*
X91388095Y-74041723D01*
X91388095Y-74041723D02*
X91340476Y-73851247D01*
X91340476Y-73851247D02*
X91340476Y-73470295D01*
X91340476Y-73470295D02*
X91388095Y-73375057D01*
X91388095Y-73375057D02*
X91435714Y-73327438D01*
X91435714Y-73327438D02*
X91530952Y-73279819D01*
X91530952Y-73279819D02*
X91721428Y-73279819D01*
X91721428Y-73279819D02*
X91816666Y-73327438D01*
X91816666Y-73327438D02*
X91864285Y-73375057D01*
X91864285Y-73375057D02*
X91911904Y-73470295D01*
X91911904Y-73470295D02*
X91911904Y-73708390D01*
X91911904Y-73708390D02*
X91864285Y-73803628D01*
X91864285Y-73803628D02*
X91816666Y-73851247D01*
X91816666Y-73851247D02*
X91721428Y-73898866D01*
X91721428Y-73898866D02*
X91530952Y-73898866D01*
X91530952Y-73898866D02*
X91435714Y-73851247D01*
X91435714Y-73851247D02*
X91388095Y-73803628D01*
X91388095Y-73803628D02*
X91340476Y-73708390D01*
X90959523Y-73375057D02*
X90911904Y-73327438D01*
X90911904Y-73327438D02*
X90816666Y-73279819D01*
X90816666Y-73279819D02*
X90578571Y-73279819D01*
X90578571Y-73279819D02*
X90483333Y-73327438D01*
X90483333Y-73327438D02*
X90435714Y-73375057D01*
X90435714Y-73375057D02*
X90388095Y-73470295D01*
X90388095Y-73470295D02*
X90388095Y-73565533D01*
X90388095Y-73565533D02*
X90435714Y-73708390D01*
X90435714Y-73708390D02*
X91007142Y-74279819D01*
X91007142Y-74279819D02*
X90388095Y-74279819D01*
X86919000Y-66757142D02*
X86966620Y-66709523D01*
X86966620Y-66709523D02*
X87014239Y-66566666D01*
X87014239Y-66566666D02*
X87014239Y-66471428D01*
X87014239Y-66471428D02*
X86966620Y-66328571D01*
X86966620Y-66328571D02*
X86871381Y-66233333D01*
X86871381Y-66233333D02*
X86776143Y-66185714D01*
X86776143Y-66185714D02*
X86585667Y-66138095D01*
X86585667Y-66138095D02*
X86442810Y-66138095D01*
X86442810Y-66138095D02*
X86252334Y-66185714D01*
X86252334Y-66185714D02*
X86157096Y-66233333D01*
X86157096Y-66233333D02*
X86061858Y-66328571D01*
X86061858Y-66328571D02*
X86014239Y-66471428D01*
X86014239Y-66471428D02*
X86014239Y-66566666D01*
X86014239Y-66566666D02*
X86061858Y-66709523D01*
X86061858Y-66709523D02*
X86109477Y-66757142D01*
X87014239Y-67709523D02*
X87014239Y-67138095D01*
X87014239Y-67423809D02*
X86014239Y-67423809D01*
X86014239Y-67423809D02*
X86157096Y-67328571D01*
X86157096Y-67328571D02*
X86252334Y-67233333D01*
X86252334Y-67233333D02*
X86299953Y-67138095D01*
X86014239Y-68042857D02*
X86014239Y-68709523D01*
X86014239Y-68709523D02*
X87014239Y-68280952D01*
X89659580Y-74257142D02*
X89707200Y-74209523D01*
X89707200Y-74209523D02*
X89754819Y-74066666D01*
X89754819Y-74066666D02*
X89754819Y-73971428D01*
X89754819Y-73971428D02*
X89707200Y-73828571D01*
X89707200Y-73828571D02*
X89611961Y-73733333D01*
X89611961Y-73733333D02*
X89516723Y-73685714D01*
X89516723Y-73685714D02*
X89326247Y-73638095D01*
X89326247Y-73638095D02*
X89183390Y-73638095D01*
X89183390Y-73638095D02*
X88992914Y-73685714D01*
X88992914Y-73685714D02*
X88897676Y-73733333D01*
X88897676Y-73733333D02*
X88802438Y-73828571D01*
X88802438Y-73828571D02*
X88754819Y-73971428D01*
X88754819Y-73971428D02*
X88754819Y-74066666D01*
X88754819Y-74066666D02*
X88802438Y-74209523D01*
X88802438Y-74209523D02*
X88850057Y-74257142D01*
X89754819Y-74733333D02*
X89754819Y-74923809D01*
X89754819Y-74923809D02*
X89707200Y-75019047D01*
X89707200Y-75019047D02*
X89659580Y-75066666D01*
X89659580Y-75066666D02*
X89516723Y-75161904D01*
X89516723Y-75161904D02*
X89326247Y-75209523D01*
X89326247Y-75209523D02*
X88945295Y-75209523D01*
X88945295Y-75209523D02*
X88850057Y-75161904D01*
X88850057Y-75161904D02*
X88802438Y-75114285D01*
X88802438Y-75114285D02*
X88754819Y-75019047D01*
X88754819Y-75019047D02*
X88754819Y-74828571D01*
X88754819Y-74828571D02*
X88802438Y-74733333D01*
X88802438Y-74733333D02*
X88850057Y-74685714D01*
X88850057Y-74685714D02*
X88945295Y-74638095D01*
X88945295Y-74638095D02*
X89183390Y-74638095D01*
X89183390Y-74638095D02*
X89278628Y-74685714D01*
X89278628Y-74685714D02*
X89326247Y-74733333D01*
X89326247Y-74733333D02*
X89373866Y-74828571D01*
X89373866Y-74828571D02*
X89373866Y-75019047D01*
X89373866Y-75019047D02*
X89326247Y-75114285D01*
X89326247Y-75114285D02*
X89278628Y-75161904D01*
X89278628Y-75161904D02*
X89183390Y-75209523D01*
X89754819Y-76161904D02*
X89754819Y-75590476D01*
X89754819Y-75876190D02*
X88754819Y-75876190D01*
X88754819Y-75876190D02*
X88897676Y-75780952D01*
X88897676Y-75780952D02*
X88992914Y-75685714D01*
X88992914Y-75685714D02*
X89040533Y-75590476D01*
X84342857Y-77384580D02*
X84390476Y-77432200D01*
X84390476Y-77432200D02*
X84533333Y-77479819D01*
X84533333Y-77479819D02*
X84628571Y-77479819D01*
X84628571Y-77479819D02*
X84771428Y-77432200D01*
X84771428Y-77432200D02*
X84866666Y-77336961D01*
X84866666Y-77336961D02*
X84914285Y-77241723D01*
X84914285Y-77241723D02*
X84961904Y-77051247D01*
X84961904Y-77051247D02*
X84961904Y-76908390D01*
X84961904Y-76908390D02*
X84914285Y-76717914D01*
X84914285Y-76717914D02*
X84866666Y-76622676D01*
X84866666Y-76622676D02*
X84771428Y-76527438D01*
X84771428Y-76527438D02*
X84628571Y-76479819D01*
X84628571Y-76479819D02*
X84533333Y-76479819D01*
X84533333Y-76479819D02*
X84390476Y-76527438D01*
X84390476Y-76527438D02*
X84342857Y-76575057D01*
X83961904Y-76575057D02*
X83914285Y-76527438D01*
X83914285Y-76527438D02*
X83819047Y-76479819D01*
X83819047Y-76479819D02*
X83580952Y-76479819D01*
X83580952Y-76479819D02*
X83485714Y-76527438D01*
X83485714Y-76527438D02*
X83438095Y-76575057D01*
X83438095Y-76575057D02*
X83390476Y-76670295D01*
X83390476Y-76670295D02*
X83390476Y-76765533D01*
X83390476Y-76765533D02*
X83438095Y-76908390D01*
X83438095Y-76908390D02*
X84009523Y-77479819D01*
X84009523Y-77479819D02*
X83390476Y-77479819D01*
X83057142Y-76479819D02*
X82438095Y-76479819D01*
X82438095Y-76479819D02*
X82771428Y-76860771D01*
X82771428Y-76860771D02*
X82628571Y-76860771D01*
X82628571Y-76860771D02*
X82533333Y-76908390D01*
X82533333Y-76908390D02*
X82485714Y-76956009D01*
X82485714Y-76956009D02*
X82438095Y-77051247D01*
X82438095Y-77051247D02*
X82438095Y-77289342D01*
X82438095Y-77289342D02*
X82485714Y-77384580D01*
X82485714Y-77384580D02*
X82533333Y-77432200D01*
X82533333Y-77432200D02*
X82628571Y-77479819D01*
X82628571Y-77479819D02*
X82914285Y-77479819D01*
X82914285Y-77479819D02*
X83009523Y-77432200D01*
X83009523Y-77432200D02*
X83057142Y-77384580D01*
X124742857Y-66954819D02*
X125076190Y-66478628D01*
X125314285Y-66954819D02*
X125314285Y-65954819D01*
X125314285Y-65954819D02*
X124933333Y-65954819D01*
X124933333Y-65954819D02*
X124838095Y-66002438D01*
X124838095Y-66002438D02*
X124790476Y-66050057D01*
X124790476Y-66050057D02*
X124742857Y-66145295D01*
X124742857Y-66145295D02*
X124742857Y-66288152D01*
X124742857Y-66288152D02*
X124790476Y-66383390D01*
X124790476Y-66383390D02*
X124838095Y-66431009D01*
X124838095Y-66431009D02*
X124933333Y-66478628D01*
X124933333Y-66478628D02*
X125314285Y-66478628D01*
X123885714Y-66288152D02*
X123885714Y-66954819D01*
X124123809Y-65907200D02*
X124361904Y-66621485D01*
X124361904Y-66621485D02*
X123742857Y-66621485D01*
X122933333Y-66288152D02*
X122933333Y-66954819D01*
X123171428Y-65907200D02*
X123409523Y-66621485D01*
X123409523Y-66621485D02*
X122790476Y-66621485D01*
X92342857Y-77159580D02*
X92390476Y-77207200D01*
X92390476Y-77207200D02*
X92533333Y-77254819D01*
X92533333Y-77254819D02*
X92628571Y-77254819D01*
X92628571Y-77254819D02*
X92771428Y-77207200D01*
X92771428Y-77207200D02*
X92866666Y-77111961D01*
X92866666Y-77111961D02*
X92914285Y-77016723D01*
X92914285Y-77016723D02*
X92961904Y-76826247D01*
X92961904Y-76826247D02*
X92961904Y-76683390D01*
X92961904Y-76683390D02*
X92914285Y-76492914D01*
X92914285Y-76492914D02*
X92866666Y-76397676D01*
X92866666Y-76397676D02*
X92771428Y-76302438D01*
X92771428Y-76302438D02*
X92628571Y-76254819D01*
X92628571Y-76254819D02*
X92533333Y-76254819D01*
X92533333Y-76254819D02*
X92390476Y-76302438D01*
X92390476Y-76302438D02*
X92342857Y-76350057D01*
X91866666Y-77254819D02*
X91676190Y-77254819D01*
X91676190Y-77254819D02*
X91580952Y-77207200D01*
X91580952Y-77207200D02*
X91533333Y-77159580D01*
X91533333Y-77159580D02*
X91438095Y-77016723D01*
X91438095Y-77016723D02*
X91390476Y-76826247D01*
X91390476Y-76826247D02*
X91390476Y-76445295D01*
X91390476Y-76445295D02*
X91438095Y-76350057D01*
X91438095Y-76350057D02*
X91485714Y-76302438D01*
X91485714Y-76302438D02*
X91580952Y-76254819D01*
X91580952Y-76254819D02*
X91771428Y-76254819D01*
X91771428Y-76254819D02*
X91866666Y-76302438D01*
X91866666Y-76302438D02*
X91914285Y-76350057D01*
X91914285Y-76350057D02*
X91961904Y-76445295D01*
X91961904Y-76445295D02*
X91961904Y-76683390D01*
X91961904Y-76683390D02*
X91914285Y-76778628D01*
X91914285Y-76778628D02*
X91866666Y-76826247D01*
X91866666Y-76826247D02*
X91771428Y-76873866D01*
X91771428Y-76873866D02*
X91580952Y-76873866D01*
X91580952Y-76873866D02*
X91485714Y-76826247D01*
X91485714Y-76826247D02*
X91438095Y-76778628D01*
X91438095Y-76778628D02*
X91390476Y-76683390D01*
X90771428Y-76254819D02*
X90676190Y-76254819D01*
X90676190Y-76254819D02*
X90580952Y-76302438D01*
X90580952Y-76302438D02*
X90533333Y-76350057D01*
X90533333Y-76350057D02*
X90485714Y-76445295D01*
X90485714Y-76445295D02*
X90438095Y-76635771D01*
X90438095Y-76635771D02*
X90438095Y-76873866D01*
X90438095Y-76873866D02*
X90485714Y-77064342D01*
X90485714Y-77064342D02*
X90533333Y-77159580D01*
X90533333Y-77159580D02*
X90580952Y-77207200D01*
X90580952Y-77207200D02*
X90676190Y-77254819D01*
X90676190Y-77254819D02*
X90771428Y-77254819D01*
X90771428Y-77254819D02*
X90866666Y-77207200D01*
X90866666Y-77207200D02*
X90914285Y-77159580D01*
X90914285Y-77159580D02*
X90961904Y-77064342D01*
X90961904Y-77064342D02*
X91009523Y-76873866D01*
X91009523Y-76873866D02*
X91009523Y-76635771D01*
X91009523Y-76635771D02*
X90961904Y-76445295D01*
X90961904Y-76445295D02*
X90914285Y-76350057D01*
X90914285Y-76350057D02*
X90866666Y-76302438D01*
X90866666Y-76302438D02*
X90771428Y-76254819D01*
X98094580Y-63907142D02*
X98142200Y-63859523D01*
X98142200Y-63859523D02*
X98189819Y-63716666D01*
X98189819Y-63716666D02*
X98189819Y-63621428D01*
X98189819Y-63621428D02*
X98142200Y-63478571D01*
X98142200Y-63478571D02*
X98046961Y-63383333D01*
X98046961Y-63383333D02*
X97951723Y-63335714D01*
X97951723Y-63335714D02*
X97761247Y-63288095D01*
X97761247Y-63288095D02*
X97618390Y-63288095D01*
X97618390Y-63288095D02*
X97427914Y-63335714D01*
X97427914Y-63335714D02*
X97332676Y-63383333D01*
X97332676Y-63383333D02*
X97237438Y-63478571D01*
X97237438Y-63478571D02*
X97189819Y-63621428D01*
X97189819Y-63621428D02*
X97189819Y-63716666D01*
X97189819Y-63716666D02*
X97237438Y-63859523D01*
X97237438Y-63859523D02*
X97285057Y-63907142D01*
X97189819Y-64240476D02*
X97189819Y-64859523D01*
X97189819Y-64859523D02*
X97570771Y-64526190D01*
X97570771Y-64526190D02*
X97570771Y-64669047D01*
X97570771Y-64669047D02*
X97618390Y-64764285D01*
X97618390Y-64764285D02*
X97666009Y-64811904D01*
X97666009Y-64811904D02*
X97761247Y-64859523D01*
X97761247Y-64859523D02*
X97999342Y-64859523D01*
X97999342Y-64859523D02*
X98094580Y-64811904D01*
X98094580Y-64811904D02*
X98142200Y-64764285D01*
X98142200Y-64764285D02*
X98189819Y-64669047D01*
X98189819Y-64669047D02*
X98189819Y-64383333D01*
X98189819Y-64383333D02*
X98142200Y-64288095D01*
X98142200Y-64288095D02*
X98094580Y-64240476D01*
X97189819Y-65478571D02*
X97189819Y-65573809D01*
X97189819Y-65573809D02*
X97237438Y-65669047D01*
X97237438Y-65669047D02*
X97285057Y-65716666D01*
X97285057Y-65716666D02*
X97380295Y-65764285D01*
X97380295Y-65764285D02*
X97570771Y-65811904D01*
X97570771Y-65811904D02*
X97808866Y-65811904D01*
X97808866Y-65811904D02*
X97999342Y-65764285D01*
X97999342Y-65764285D02*
X98094580Y-65716666D01*
X98094580Y-65716666D02*
X98142200Y-65669047D01*
X98142200Y-65669047D02*
X98189819Y-65573809D01*
X98189819Y-65573809D02*
X98189819Y-65478571D01*
X98189819Y-65478571D02*
X98142200Y-65383333D01*
X98142200Y-65383333D02*
X98094580Y-65335714D01*
X98094580Y-65335714D02*
X97999342Y-65288095D01*
X97999342Y-65288095D02*
X97808866Y-65240476D01*
X97808866Y-65240476D02*
X97570771Y-65240476D01*
X97570771Y-65240476D02*
X97380295Y-65288095D01*
X97380295Y-65288095D02*
X97285057Y-65335714D01*
X97285057Y-65335714D02*
X97237438Y-65383333D01*
X97237438Y-65383333D02*
X97189819Y-65478571D01*
X88259580Y-66557142D02*
X88307200Y-66509523D01*
X88307200Y-66509523D02*
X88354819Y-66366666D01*
X88354819Y-66366666D02*
X88354819Y-66271428D01*
X88354819Y-66271428D02*
X88307200Y-66128571D01*
X88307200Y-66128571D02*
X88211961Y-66033333D01*
X88211961Y-66033333D02*
X88116723Y-65985714D01*
X88116723Y-65985714D02*
X87926247Y-65938095D01*
X87926247Y-65938095D02*
X87783390Y-65938095D01*
X87783390Y-65938095D02*
X87592914Y-65985714D01*
X87592914Y-65985714D02*
X87497676Y-66033333D01*
X87497676Y-66033333D02*
X87402438Y-66128571D01*
X87402438Y-66128571D02*
X87354819Y-66271428D01*
X87354819Y-66271428D02*
X87354819Y-66366666D01*
X87354819Y-66366666D02*
X87402438Y-66509523D01*
X87402438Y-66509523D02*
X87450057Y-66557142D01*
X88354819Y-67509523D02*
X88354819Y-66938095D01*
X88354819Y-67223809D02*
X87354819Y-67223809D01*
X87354819Y-67223809D02*
X87497676Y-67128571D01*
X87497676Y-67128571D02*
X87592914Y-67033333D01*
X87592914Y-67033333D02*
X87640533Y-66938095D01*
X88354819Y-67985714D02*
X88354819Y-68176190D01*
X88354819Y-68176190D02*
X88307200Y-68271428D01*
X88307200Y-68271428D02*
X88259580Y-68319047D01*
X88259580Y-68319047D02*
X88116723Y-68414285D01*
X88116723Y-68414285D02*
X87926247Y-68461904D01*
X87926247Y-68461904D02*
X87545295Y-68461904D01*
X87545295Y-68461904D02*
X87450057Y-68414285D01*
X87450057Y-68414285D02*
X87402438Y-68366666D01*
X87402438Y-68366666D02*
X87354819Y-68271428D01*
X87354819Y-68271428D02*
X87354819Y-68080952D01*
X87354819Y-68080952D02*
X87402438Y-67985714D01*
X87402438Y-67985714D02*
X87450057Y-67938095D01*
X87450057Y-67938095D02*
X87545295Y-67890476D01*
X87545295Y-67890476D02*
X87783390Y-67890476D01*
X87783390Y-67890476D02*
X87878628Y-67938095D01*
X87878628Y-67938095D02*
X87926247Y-67985714D01*
X87926247Y-67985714D02*
X87973866Y-68080952D01*
X87973866Y-68080952D02*
X87973866Y-68271428D01*
X87973866Y-68271428D02*
X87926247Y-68366666D01*
X87926247Y-68366666D02*
X87878628Y-68414285D01*
X87878628Y-68414285D02*
X87783390Y-68461904D01*
X102134580Y-59832042D02*
X102182200Y-59784423D01*
X102182200Y-59784423D02*
X102229819Y-59641566D01*
X102229819Y-59641566D02*
X102229819Y-59546328D01*
X102229819Y-59546328D02*
X102182200Y-59403471D01*
X102182200Y-59403471D02*
X102086961Y-59308233D01*
X102086961Y-59308233D02*
X101991723Y-59260614D01*
X101991723Y-59260614D02*
X101801247Y-59212995D01*
X101801247Y-59212995D02*
X101658390Y-59212995D01*
X101658390Y-59212995D02*
X101467914Y-59260614D01*
X101467914Y-59260614D02*
X101372676Y-59308233D01*
X101372676Y-59308233D02*
X101277438Y-59403471D01*
X101277438Y-59403471D02*
X101229819Y-59546328D01*
X101229819Y-59546328D02*
X101229819Y-59641566D01*
X101229819Y-59641566D02*
X101277438Y-59784423D01*
X101277438Y-59784423D02*
X101325057Y-59832042D01*
X101229819Y-60165376D02*
X101229819Y-60832042D01*
X101229819Y-60832042D02*
X102229819Y-60403471D01*
X101325057Y-61165376D02*
X101277438Y-61212995D01*
X101277438Y-61212995D02*
X101229819Y-61308233D01*
X101229819Y-61308233D02*
X101229819Y-61546328D01*
X101229819Y-61546328D02*
X101277438Y-61641566D01*
X101277438Y-61641566D02*
X101325057Y-61689185D01*
X101325057Y-61689185D02*
X101420295Y-61736804D01*
X101420295Y-61736804D02*
X101515533Y-61736804D01*
X101515533Y-61736804D02*
X101658390Y-61689185D01*
X101658390Y-61689185D02*
X102229819Y-61117757D01*
X102229819Y-61117757D02*
X102229819Y-61736804D01*
X85299580Y-83082142D02*
X85347200Y-83034523D01*
X85347200Y-83034523D02*
X85394819Y-82891666D01*
X85394819Y-82891666D02*
X85394819Y-82796428D01*
X85394819Y-82796428D02*
X85347200Y-82653571D01*
X85347200Y-82653571D02*
X85251961Y-82558333D01*
X85251961Y-82558333D02*
X85156723Y-82510714D01*
X85156723Y-82510714D02*
X84966247Y-82463095D01*
X84966247Y-82463095D02*
X84823390Y-82463095D01*
X84823390Y-82463095D02*
X84632914Y-82510714D01*
X84632914Y-82510714D02*
X84537676Y-82558333D01*
X84537676Y-82558333D02*
X84442438Y-82653571D01*
X84442438Y-82653571D02*
X84394819Y-82796428D01*
X84394819Y-82796428D02*
X84394819Y-82891666D01*
X84394819Y-82891666D02*
X84442438Y-83034523D01*
X84442438Y-83034523D02*
X84490057Y-83082142D01*
X84394819Y-83415476D02*
X84394819Y-84034523D01*
X84394819Y-84034523D02*
X84775771Y-83701190D01*
X84775771Y-83701190D02*
X84775771Y-83844047D01*
X84775771Y-83844047D02*
X84823390Y-83939285D01*
X84823390Y-83939285D02*
X84871009Y-83986904D01*
X84871009Y-83986904D02*
X84966247Y-84034523D01*
X84966247Y-84034523D02*
X85204342Y-84034523D01*
X85204342Y-84034523D02*
X85299580Y-83986904D01*
X85299580Y-83986904D02*
X85347200Y-83939285D01*
X85347200Y-83939285D02*
X85394819Y-83844047D01*
X85394819Y-83844047D02*
X85394819Y-83558333D01*
X85394819Y-83558333D02*
X85347200Y-83463095D01*
X85347200Y-83463095D02*
X85299580Y-83415476D01*
X84490057Y-84415476D02*
X84442438Y-84463095D01*
X84442438Y-84463095D02*
X84394819Y-84558333D01*
X84394819Y-84558333D02*
X84394819Y-84796428D01*
X84394819Y-84796428D02*
X84442438Y-84891666D01*
X84442438Y-84891666D02*
X84490057Y-84939285D01*
X84490057Y-84939285D02*
X84585295Y-84986904D01*
X84585295Y-84986904D02*
X84680533Y-84986904D01*
X84680533Y-84986904D02*
X84823390Y-84939285D01*
X84823390Y-84939285D02*
X85394819Y-84367857D01*
X85394819Y-84367857D02*
X85394819Y-84986904D01*
X89859580Y-81157142D02*
X89907200Y-81109523D01*
X89907200Y-81109523D02*
X89954819Y-80966666D01*
X89954819Y-80966666D02*
X89954819Y-80871428D01*
X89954819Y-80871428D02*
X89907200Y-80728571D01*
X89907200Y-80728571D02*
X89811961Y-80633333D01*
X89811961Y-80633333D02*
X89716723Y-80585714D01*
X89716723Y-80585714D02*
X89526247Y-80538095D01*
X89526247Y-80538095D02*
X89383390Y-80538095D01*
X89383390Y-80538095D02*
X89192914Y-80585714D01*
X89192914Y-80585714D02*
X89097676Y-80633333D01*
X89097676Y-80633333D02*
X89002438Y-80728571D01*
X89002438Y-80728571D02*
X88954819Y-80871428D01*
X88954819Y-80871428D02*
X88954819Y-80966666D01*
X88954819Y-80966666D02*
X89002438Y-81109523D01*
X89002438Y-81109523D02*
X89050057Y-81157142D01*
X89954819Y-81633333D02*
X89954819Y-81823809D01*
X89954819Y-81823809D02*
X89907200Y-81919047D01*
X89907200Y-81919047D02*
X89859580Y-81966666D01*
X89859580Y-81966666D02*
X89716723Y-82061904D01*
X89716723Y-82061904D02*
X89526247Y-82109523D01*
X89526247Y-82109523D02*
X89145295Y-82109523D01*
X89145295Y-82109523D02*
X89050057Y-82061904D01*
X89050057Y-82061904D02*
X89002438Y-82014285D01*
X89002438Y-82014285D02*
X88954819Y-81919047D01*
X88954819Y-81919047D02*
X88954819Y-81728571D01*
X88954819Y-81728571D02*
X89002438Y-81633333D01*
X89002438Y-81633333D02*
X89050057Y-81585714D01*
X89050057Y-81585714D02*
X89145295Y-81538095D01*
X89145295Y-81538095D02*
X89383390Y-81538095D01*
X89383390Y-81538095D02*
X89478628Y-81585714D01*
X89478628Y-81585714D02*
X89526247Y-81633333D01*
X89526247Y-81633333D02*
X89573866Y-81728571D01*
X89573866Y-81728571D02*
X89573866Y-81919047D01*
X89573866Y-81919047D02*
X89526247Y-82014285D01*
X89526247Y-82014285D02*
X89478628Y-82061904D01*
X89478628Y-82061904D02*
X89383390Y-82109523D01*
X88954819Y-82442857D02*
X88954819Y-83061904D01*
X88954819Y-83061904D02*
X89335771Y-82728571D01*
X89335771Y-82728571D02*
X89335771Y-82871428D01*
X89335771Y-82871428D02*
X89383390Y-82966666D01*
X89383390Y-82966666D02*
X89431009Y-83014285D01*
X89431009Y-83014285D02*
X89526247Y-83061904D01*
X89526247Y-83061904D02*
X89764342Y-83061904D01*
X89764342Y-83061904D02*
X89859580Y-83014285D01*
X89859580Y-83014285D02*
X89907200Y-82966666D01*
X89907200Y-82966666D02*
X89954819Y-82871428D01*
X89954819Y-82871428D02*
X89954819Y-82585714D01*
X89954819Y-82585714D02*
X89907200Y-82490476D01*
X89907200Y-82490476D02*
X89859580Y-82442857D01*
X98442857Y-72659580D02*
X98490476Y-72707200D01*
X98490476Y-72707200D02*
X98633333Y-72754819D01*
X98633333Y-72754819D02*
X98728571Y-72754819D01*
X98728571Y-72754819D02*
X98871428Y-72707200D01*
X98871428Y-72707200D02*
X98966666Y-72611961D01*
X98966666Y-72611961D02*
X99014285Y-72516723D01*
X99014285Y-72516723D02*
X99061904Y-72326247D01*
X99061904Y-72326247D02*
X99061904Y-72183390D01*
X99061904Y-72183390D02*
X99014285Y-71992914D01*
X99014285Y-71992914D02*
X98966666Y-71897676D01*
X98966666Y-71897676D02*
X98871428Y-71802438D01*
X98871428Y-71802438D02*
X98728571Y-71754819D01*
X98728571Y-71754819D02*
X98633333Y-71754819D01*
X98633333Y-71754819D02*
X98490476Y-71802438D01*
X98490476Y-71802438D02*
X98442857Y-71850057D01*
X98061904Y-71850057D02*
X98014285Y-71802438D01*
X98014285Y-71802438D02*
X97919047Y-71754819D01*
X97919047Y-71754819D02*
X97680952Y-71754819D01*
X97680952Y-71754819D02*
X97585714Y-71802438D01*
X97585714Y-71802438D02*
X97538095Y-71850057D01*
X97538095Y-71850057D02*
X97490476Y-71945295D01*
X97490476Y-71945295D02*
X97490476Y-72040533D01*
X97490476Y-72040533D02*
X97538095Y-72183390D01*
X97538095Y-72183390D02*
X98109523Y-72754819D01*
X98109523Y-72754819D02*
X97490476Y-72754819D01*
X96585714Y-71754819D02*
X97061904Y-71754819D01*
X97061904Y-71754819D02*
X97109523Y-72231009D01*
X97109523Y-72231009D02*
X97061904Y-72183390D01*
X97061904Y-72183390D02*
X96966666Y-72135771D01*
X96966666Y-72135771D02*
X96728571Y-72135771D01*
X96728571Y-72135771D02*
X96633333Y-72183390D01*
X96633333Y-72183390D02*
X96585714Y-72231009D01*
X96585714Y-72231009D02*
X96538095Y-72326247D01*
X96538095Y-72326247D02*
X96538095Y-72564342D01*
X96538095Y-72564342D02*
X96585714Y-72659580D01*
X96585714Y-72659580D02*
X96633333Y-72707200D01*
X96633333Y-72707200D02*
X96728571Y-72754819D01*
X96728571Y-72754819D02*
X96966666Y-72754819D01*
X96966666Y-72754819D02*
X97061904Y-72707200D01*
X97061904Y-72707200D02*
X97109523Y-72659580D01*
X107434580Y-60507142D02*
X107482200Y-60459523D01*
X107482200Y-60459523D02*
X107529819Y-60316666D01*
X107529819Y-60316666D02*
X107529819Y-60221428D01*
X107529819Y-60221428D02*
X107482200Y-60078571D01*
X107482200Y-60078571D02*
X107386961Y-59983333D01*
X107386961Y-59983333D02*
X107291723Y-59935714D01*
X107291723Y-59935714D02*
X107101247Y-59888095D01*
X107101247Y-59888095D02*
X106958390Y-59888095D01*
X106958390Y-59888095D02*
X106767914Y-59935714D01*
X106767914Y-59935714D02*
X106672676Y-59983333D01*
X106672676Y-59983333D02*
X106577438Y-60078571D01*
X106577438Y-60078571D02*
X106529819Y-60221428D01*
X106529819Y-60221428D02*
X106529819Y-60316666D01*
X106529819Y-60316666D02*
X106577438Y-60459523D01*
X106577438Y-60459523D02*
X106625057Y-60507142D01*
X106529819Y-60840476D02*
X106529819Y-61507142D01*
X106529819Y-61507142D02*
X107529819Y-61078571D01*
X107529819Y-62411904D02*
X107529819Y-61840476D01*
X107529819Y-62126190D02*
X106529819Y-62126190D01*
X106529819Y-62126190D02*
X106672676Y-62030952D01*
X106672676Y-62030952D02*
X106767914Y-61935714D01*
X106767914Y-61935714D02*
X106815533Y-61840476D01*
X84042857Y-74859580D02*
X84090476Y-74907200D01*
X84090476Y-74907200D02*
X84233333Y-74954819D01*
X84233333Y-74954819D02*
X84328571Y-74954819D01*
X84328571Y-74954819D02*
X84471428Y-74907200D01*
X84471428Y-74907200D02*
X84566666Y-74811961D01*
X84566666Y-74811961D02*
X84614285Y-74716723D01*
X84614285Y-74716723D02*
X84661904Y-74526247D01*
X84661904Y-74526247D02*
X84661904Y-74383390D01*
X84661904Y-74383390D02*
X84614285Y-74192914D01*
X84614285Y-74192914D02*
X84566666Y-74097676D01*
X84566666Y-74097676D02*
X84471428Y-74002438D01*
X84471428Y-74002438D02*
X84328571Y-73954819D01*
X84328571Y-73954819D02*
X84233333Y-73954819D01*
X84233333Y-73954819D02*
X84090476Y-74002438D01*
X84090476Y-74002438D02*
X84042857Y-74050057D01*
X83661904Y-74050057D02*
X83614285Y-74002438D01*
X83614285Y-74002438D02*
X83519047Y-73954819D01*
X83519047Y-73954819D02*
X83280952Y-73954819D01*
X83280952Y-73954819D02*
X83185714Y-74002438D01*
X83185714Y-74002438D02*
X83138095Y-74050057D01*
X83138095Y-74050057D02*
X83090476Y-74145295D01*
X83090476Y-74145295D02*
X83090476Y-74240533D01*
X83090476Y-74240533D02*
X83138095Y-74383390D01*
X83138095Y-74383390D02*
X83709523Y-74954819D01*
X83709523Y-74954819D02*
X83090476Y-74954819D01*
X82519047Y-74383390D02*
X82614285Y-74335771D01*
X82614285Y-74335771D02*
X82661904Y-74288152D01*
X82661904Y-74288152D02*
X82709523Y-74192914D01*
X82709523Y-74192914D02*
X82709523Y-74145295D01*
X82709523Y-74145295D02*
X82661904Y-74050057D01*
X82661904Y-74050057D02*
X82614285Y-74002438D01*
X82614285Y-74002438D02*
X82519047Y-73954819D01*
X82519047Y-73954819D02*
X82328571Y-73954819D01*
X82328571Y-73954819D02*
X82233333Y-74002438D01*
X82233333Y-74002438D02*
X82185714Y-74050057D01*
X82185714Y-74050057D02*
X82138095Y-74145295D01*
X82138095Y-74145295D02*
X82138095Y-74192914D01*
X82138095Y-74192914D02*
X82185714Y-74288152D01*
X82185714Y-74288152D02*
X82233333Y-74335771D01*
X82233333Y-74335771D02*
X82328571Y-74383390D01*
X82328571Y-74383390D02*
X82519047Y-74383390D01*
X82519047Y-74383390D02*
X82614285Y-74431009D01*
X82614285Y-74431009D02*
X82661904Y-74478628D01*
X82661904Y-74478628D02*
X82709523Y-74573866D01*
X82709523Y-74573866D02*
X82709523Y-74764342D01*
X82709523Y-74764342D02*
X82661904Y-74859580D01*
X82661904Y-74859580D02*
X82614285Y-74907200D01*
X82614285Y-74907200D02*
X82519047Y-74954819D01*
X82519047Y-74954819D02*
X82328571Y-74954819D01*
X82328571Y-74954819D02*
X82233333Y-74907200D01*
X82233333Y-74907200D02*
X82185714Y-74859580D01*
X82185714Y-74859580D02*
X82138095Y-74764342D01*
X82138095Y-74764342D02*
X82138095Y-74573866D01*
X82138095Y-74573866D02*
X82185714Y-74478628D01*
X82185714Y-74478628D02*
X82233333Y-74431009D01*
X82233333Y-74431009D02*
X82328571Y-74383390D01*
X92317857Y-78699580D02*
X92365476Y-78747200D01*
X92365476Y-78747200D02*
X92508333Y-78794819D01*
X92508333Y-78794819D02*
X92603571Y-78794819D01*
X92603571Y-78794819D02*
X92746428Y-78747200D01*
X92746428Y-78747200D02*
X92841666Y-78651961D01*
X92841666Y-78651961D02*
X92889285Y-78556723D01*
X92889285Y-78556723D02*
X92936904Y-78366247D01*
X92936904Y-78366247D02*
X92936904Y-78223390D01*
X92936904Y-78223390D02*
X92889285Y-78032914D01*
X92889285Y-78032914D02*
X92841666Y-77937676D01*
X92841666Y-77937676D02*
X92746428Y-77842438D01*
X92746428Y-77842438D02*
X92603571Y-77794819D01*
X92603571Y-77794819D02*
X92508333Y-77794819D01*
X92508333Y-77794819D02*
X92365476Y-77842438D01*
X92365476Y-77842438D02*
X92317857Y-77890057D01*
X91984523Y-77794819D02*
X91365476Y-77794819D01*
X91365476Y-77794819D02*
X91698809Y-78175771D01*
X91698809Y-78175771D02*
X91555952Y-78175771D01*
X91555952Y-78175771D02*
X91460714Y-78223390D01*
X91460714Y-78223390D02*
X91413095Y-78271009D01*
X91413095Y-78271009D02*
X91365476Y-78366247D01*
X91365476Y-78366247D02*
X91365476Y-78604342D01*
X91365476Y-78604342D02*
X91413095Y-78699580D01*
X91413095Y-78699580D02*
X91460714Y-78747200D01*
X91460714Y-78747200D02*
X91555952Y-78794819D01*
X91555952Y-78794819D02*
X91841666Y-78794819D01*
X91841666Y-78794819D02*
X91936904Y-78747200D01*
X91936904Y-78747200D02*
X91984523Y-78699580D01*
X90413095Y-78794819D02*
X90984523Y-78794819D01*
X90698809Y-78794819D02*
X90698809Y-77794819D01*
X90698809Y-77794819D02*
X90794047Y-77937676D01*
X90794047Y-77937676D02*
X90889285Y-78032914D01*
X90889285Y-78032914D02*
X90984523Y-78080533D01*
X90369580Y-66257142D02*
X90417200Y-66209523D01*
X90417200Y-66209523D02*
X90464819Y-66066666D01*
X90464819Y-66066666D02*
X90464819Y-65971428D01*
X90464819Y-65971428D02*
X90417200Y-65828571D01*
X90417200Y-65828571D02*
X90321961Y-65733333D01*
X90321961Y-65733333D02*
X90226723Y-65685714D01*
X90226723Y-65685714D02*
X90036247Y-65638095D01*
X90036247Y-65638095D02*
X89893390Y-65638095D01*
X89893390Y-65638095D02*
X89702914Y-65685714D01*
X89702914Y-65685714D02*
X89607676Y-65733333D01*
X89607676Y-65733333D02*
X89512438Y-65828571D01*
X89512438Y-65828571D02*
X89464819Y-65971428D01*
X89464819Y-65971428D02*
X89464819Y-66066666D01*
X89464819Y-66066666D02*
X89512438Y-66209523D01*
X89512438Y-66209523D02*
X89560057Y-66257142D01*
X89560057Y-66638095D02*
X89512438Y-66685714D01*
X89512438Y-66685714D02*
X89464819Y-66780952D01*
X89464819Y-66780952D02*
X89464819Y-67019047D01*
X89464819Y-67019047D02*
X89512438Y-67114285D01*
X89512438Y-67114285D02*
X89560057Y-67161904D01*
X89560057Y-67161904D02*
X89655295Y-67209523D01*
X89655295Y-67209523D02*
X89750533Y-67209523D01*
X89750533Y-67209523D02*
X89893390Y-67161904D01*
X89893390Y-67161904D02*
X90464819Y-66590476D01*
X90464819Y-66590476D02*
X90464819Y-67209523D01*
X89798152Y-68066666D02*
X90464819Y-68066666D01*
X89417200Y-67828571D02*
X90131485Y-67590476D01*
X90131485Y-67590476D02*
X90131485Y-68209523D01*
X121142857Y-67024819D02*
X121476190Y-66548628D01*
X121714285Y-67024819D02*
X121714285Y-66024819D01*
X121714285Y-66024819D02*
X121333333Y-66024819D01*
X121333333Y-66024819D02*
X121238095Y-66072438D01*
X121238095Y-66072438D02*
X121190476Y-66120057D01*
X121190476Y-66120057D02*
X121142857Y-66215295D01*
X121142857Y-66215295D02*
X121142857Y-66358152D01*
X121142857Y-66358152D02*
X121190476Y-66453390D01*
X121190476Y-66453390D02*
X121238095Y-66501009D01*
X121238095Y-66501009D02*
X121333333Y-66548628D01*
X121333333Y-66548628D02*
X121714285Y-66548628D01*
X120285714Y-66358152D02*
X120285714Y-67024819D01*
X120523809Y-65977200D02*
X120761904Y-66691485D01*
X120761904Y-66691485D02*
X120142857Y-66691485D01*
X119238095Y-67024819D02*
X119809523Y-67024819D01*
X119523809Y-67024819D02*
X119523809Y-66024819D01*
X119523809Y-66024819D02*
X119619047Y-66167676D01*
X119619047Y-66167676D02*
X119714285Y-66262914D01*
X119714285Y-66262914D02*
X119809523Y-66310533D01*
X92659580Y-60757142D02*
X92707200Y-60709523D01*
X92707200Y-60709523D02*
X92754819Y-60566666D01*
X92754819Y-60566666D02*
X92754819Y-60471428D01*
X92754819Y-60471428D02*
X92707200Y-60328571D01*
X92707200Y-60328571D02*
X92611961Y-60233333D01*
X92611961Y-60233333D02*
X92516723Y-60185714D01*
X92516723Y-60185714D02*
X92326247Y-60138095D01*
X92326247Y-60138095D02*
X92183390Y-60138095D01*
X92183390Y-60138095D02*
X91992914Y-60185714D01*
X91992914Y-60185714D02*
X91897676Y-60233333D01*
X91897676Y-60233333D02*
X91802438Y-60328571D01*
X91802438Y-60328571D02*
X91754819Y-60471428D01*
X91754819Y-60471428D02*
X91754819Y-60566666D01*
X91754819Y-60566666D02*
X91802438Y-60709523D01*
X91802438Y-60709523D02*
X91850057Y-60757142D01*
X91850057Y-61138095D02*
X91802438Y-61185714D01*
X91802438Y-61185714D02*
X91754819Y-61280952D01*
X91754819Y-61280952D02*
X91754819Y-61519047D01*
X91754819Y-61519047D02*
X91802438Y-61614285D01*
X91802438Y-61614285D02*
X91850057Y-61661904D01*
X91850057Y-61661904D02*
X91945295Y-61709523D01*
X91945295Y-61709523D02*
X92040533Y-61709523D01*
X92040533Y-61709523D02*
X92183390Y-61661904D01*
X92183390Y-61661904D02*
X92754819Y-61090476D01*
X92754819Y-61090476D02*
X92754819Y-61709523D01*
X91754819Y-62042857D02*
X91754819Y-62709523D01*
X91754819Y-62709523D02*
X92754819Y-62280952D01*
X84042857Y-71859580D02*
X84090476Y-71907200D01*
X84090476Y-71907200D02*
X84233333Y-71954819D01*
X84233333Y-71954819D02*
X84328571Y-71954819D01*
X84328571Y-71954819D02*
X84471428Y-71907200D01*
X84471428Y-71907200D02*
X84566666Y-71811961D01*
X84566666Y-71811961D02*
X84614285Y-71716723D01*
X84614285Y-71716723D02*
X84661904Y-71526247D01*
X84661904Y-71526247D02*
X84661904Y-71383390D01*
X84661904Y-71383390D02*
X84614285Y-71192914D01*
X84614285Y-71192914D02*
X84566666Y-71097676D01*
X84566666Y-71097676D02*
X84471428Y-71002438D01*
X84471428Y-71002438D02*
X84328571Y-70954819D01*
X84328571Y-70954819D02*
X84233333Y-70954819D01*
X84233333Y-70954819D02*
X84090476Y-71002438D01*
X84090476Y-71002438D02*
X84042857Y-71050057D01*
X83661904Y-71050057D02*
X83614285Y-71002438D01*
X83614285Y-71002438D02*
X83519047Y-70954819D01*
X83519047Y-70954819D02*
X83280952Y-70954819D01*
X83280952Y-70954819D02*
X83185714Y-71002438D01*
X83185714Y-71002438D02*
X83138095Y-71050057D01*
X83138095Y-71050057D02*
X83090476Y-71145295D01*
X83090476Y-71145295D02*
X83090476Y-71240533D01*
X83090476Y-71240533D02*
X83138095Y-71383390D01*
X83138095Y-71383390D02*
X83709523Y-71954819D01*
X83709523Y-71954819D02*
X83090476Y-71954819D01*
X82614285Y-71954819D02*
X82423809Y-71954819D01*
X82423809Y-71954819D02*
X82328571Y-71907200D01*
X82328571Y-71907200D02*
X82280952Y-71859580D01*
X82280952Y-71859580D02*
X82185714Y-71716723D01*
X82185714Y-71716723D02*
X82138095Y-71526247D01*
X82138095Y-71526247D02*
X82138095Y-71145295D01*
X82138095Y-71145295D02*
X82185714Y-71050057D01*
X82185714Y-71050057D02*
X82233333Y-71002438D01*
X82233333Y-71002438D02*
X82328571Y-70954819D01*
X82328571Y-70954819D02*
X82519047Y-70954819D01*
X82519047Y-70954819D02*
X82614285Y-71002438D01*
X82614285Y-71002438D02*
X82661904Y-71050057D01*
X82661904Y-71050057D02*
X82709523Y-71145295D01*
X82709523Y-71145295D02*
X82709523Y-71383390D01*
X82709523Y-71383390D02*
X82661904Y-71478628D01*
X82661904Y-71478628D02*
X82614285Y-71526247D01*
X82614285Y-71526247D02*
X82519047Y-71573866D01*
X82519047Y-71573866D02*
X82328571Y-71573866D01*
X82328571Y-71573866D02*
X82233333Y-71526247D01*
X82233333Y-71526247D02*
X82185714Y-71478628D01*
X82185714Y-71478628D02*
X82138095Y-71383390D01*
X96119580Y-65157142D02*
X96167200Y-65109523D01*
X96167200Y-65109523D02*
X96214819Y-64966666D01*
X96214819Y-64966666D02*
X96214819Y-64871428D01*
X96214819Y-64871428D02*
X96167200Y-64728571D01*
X96167200Y-64728571D02*
X96071961Y-64633333D01*
X96071961Y-64633333D02*
X95976723Y-64585714D01*
X95976723Y-64585714D02*
X95786247Y-64538095D01*
X95786247Y-64538095D02*
X95643390Y-64538095D01*
X95643390Y-64538095D02*
X95452914Y-64585714D01*
X95452914Y-64585714D02*
X95357676Y-64633333D01*
X95357676Y-64633333D02*
X95262438Y-64728571D01*
X95262438Y-64728571D02*
X95214819Y-64871428D01*
X95214819Y-64871428D02*
X95214819Y-64966666D01*
X95214819Y-64966666D02*
X95262438Y-65109523D01*
X95262438Y-65109523D02*
X95310057Y-65157142D01*
X95214819Y-65490476D02*
X95214819Y-66109523D01*
X95214819Y-66109523D02*
X95595771Y-65776190D01*
X95595771Y-65776190D02*
X95595771Y-65919047D01*
X95595771Y-65919047D02*
X95643390Y-66014285D01*
X95643390Y-66014285D02*
X95691009Y-66061904D01*
X95691009Y-66061904D02*
X95786247Y-66109523D01*
X95786247Y-66109523D02*
X96024342Y-66109523D01*
X96024342Y-66109523D02*
X96119580Y-66061904D01*
X96119580Y-66061904D02*
X96167200Y-66014285D01*
X96167200Y-66014285D02*
X96214819Y-65919047D01*
X96214819Y-65919047D02*
X96214819Y-65633333D01*
X96214819Y-65633333D02*
X96167200Y-65538095D01*
X96167200Y-65538095D02*
X96119580Y-65490476D01*
X95548152Y-66966666D02*
X96214819Y-66966666D01*
X95167200Y-66728571D02*
X95881485Y-66490476D01*
X95881485Y-66490476D02*
X95881485Y-67109523D01*
X127942857Y-66954819D02*
X128276190Y-66478628D01*
X128514285Y-66954819D02*
X128514285Y-65954819D01*
X128514285Y-65954819D02*
X128133333Y-65954819D01*
X128133333Y-65954819D02*
X128038095Y-66002438D01*
X128038095Y-66002438D02*
X127990476Y-66050057D01*
X127990476Y-66050057D02*
X127942857Y-66145295D01*
X127942857Y-66145295D02*
X127942857Y-66288152D01*
X127942857Y-66288152D02*
X127990476Y-66383390D01*
X127990476Y-66383390D02*
X128038095Y-66431009D01*
X128038095Y-66431009D02*
X128133333Y-66478628D01*
X128133333Y-66478628D02*
X128514285Y-66478628D01*
X127085714Y-66288152D02*
X127085714Y-66954819D01*
X127323809Y-65907200D02*
X127561904Y-66621485D01*
X127561904Y-66621485D02*
X126942857Y-66621485D01*
X126657142Y-65954819D02*
X126038095Y-65954819D01*
X126038095Y-65954819D02*
X126371428Y-66335771D01*
X126371428Y-66335771D02*
X126228571Y-66335771D01*
X126228571Y-66335771D02*
X126133333Y-66383390D01*
X126133333Y-66383390D02*
X126085714Y-66431009D01*
X126085714Y-66431009D02*
X126038095Y-66526247D01*
X126038095Y-66526247D02*
X126038095Y-66764342D01*
X126038095Y-66764342D02*
X126085714Y-66859580D01*
X126085714Y-66859580D02*
X126133333Y-66907200D01*
X126133333Y-66907200D02*
X126228571Y-66954819D01*
X126228571Y-66954819D02*
X126514285Y-66954819D01*
X126514285Y-66954819D02*
X126609523Y-66907200D01*
X126609523Y-66907200D02*
X126657142Y-66859580D01*
X118042857Y-66704819D02*
X118376190Y-66228628D01*
X118614285Y-66704819D02*
X118614285Y-65704819D01*
X118614285Y-65704819D02*
X118233333Y-65704819D01*
X118233333Y-65704819D02*
X118138095Y-65752438D01*
X118138095Y-65752438D02*
X118090476Y-65800057D01*
X118090476Y-65800057D02*
X118042857Y-65895295D01*
X118042857Y-65895295D02*
X118042857Y-66038152D01*
X118042857Y-66038152D02*
X118090476Y-66133390D01*
X118090476Y-66133390D02*
X118138095Y-66181009D01*
X118138095Y-66181009D02*
X118233333Y-66228628D01*
X118233333Y-66228628D02*
X118614285Y-66228628D01*
X117185714Y-66038152D02*
X117185714Y-66704819D01*
X117423809Y-65657200D02*
X117661904Y-66371485D01*
X117661904Y-66371485D02*
X117042857Y-66371485D01*
X116471428Y-65704819D02*
X116376190Y-65704819D01*
X116376190Y-65704819D02*
X116280952Y-65752438D01*
X116280952Y-65752438D02*
X116233333Y-65800057D01*
X116233333Y-65800057D02*
X116185714Y-65895295D01*
X116185714Y-65895295D02*
X116138095Y-66085771D01*
X116138095Y-66085771D02*
X116138095Y-66323866D01*
X116138095Y-66323866D02*
X116185714Y-66514342D01*
X116185714Y-66514342D02*
X116233333Y-66609580D01*
X116233333Y-66609580D02*
X116280952Y-66657200D01*
X116280952Y-66657200D02*
X116376190Y-66704819D01*
X116376190Y-66704819D02*
X116471428Y-66704819D01*
X116471428Y-66704819D02*
X116566666Y-66657200D01*
X116566666Y-66657200D02*
X116614285Y-66609580D01*
X116614285Y-66609580D02*
X116661904Y-66514342D01*
X116661904Y-66514342D02*
X116709523Y-66323866D01*
X116709523Y-66323866D02*
X116709523Y-66085771D01*
X116709523Y-66085771D02*
X116661904Y-65895295D01*
X116661904Y-65895295D02*
X116614285Y-65800057D01*
X116614285Y-65800057D02*
X116566666Y-65752438D01*
X116566666Y-65752438D02*
X116471428Y-65704819D01*
X93174580Y-84157142D02*
X93222200Y-84109523D01*
X93222200Y-84109523D02*
X93269819Y-83966666D01*
X93269819Y-83966666D02*
X93269819Y-83871428D01*
X93269819Y-83871428D02*
X93222200Y-83728571D01*
X93222200Y-83728571D02*
X93126961Y-83633333D01*
X93126961Y-83633333D02*
X93031723Y-83585714D01*
X93031723Y-83585714D02*
X92841247Y-83538095D01*
X92841247Y-83538095D02*
X92698390Y-83538095D01*
X92698390Y-83538095D02*
X92507914Y-83585714D01*
X92507914Y-83585714D02*
X92412676Y-83633333D01*
X92412676Y-83633333D02*
X92317438Y-83728571D01*
X92317438Y-83728571D02*
X92269819Y-83871428D01*
X92269819Y-83871428D02*
X92269819Y-83966666D01*
X92269819Y-83966666D02*
X92317438Y-84109523D01*
X92317438Y-84109523D02*
X92365057Y-84157142D01*
X93269819Y-84633333D02*
X93269819Y-84823809D01*
X93269819Y-84823809D02*
X93222200Y-84919047D01*
X93222200Y-84919047D02*
X93174580Y-84966666D01*
X93174580Y-84966666D02*
X93031723Y-85061904D01*
X93031723Y-85061904D02*
X92841247Y-85109523D01*
X92841247Y-85109523D02*
X92460295Y-85109523D01*
X92460295Y-85109523D02*
X92365057Y-85061904D01*
X92365057Y-85061904D02*
X92317438Y-85014285D01*
X92317438Y-85014285D02*
X92269819Y-84919047D01*
X92269819Y-84919047D02*
X92269819Y-84728571D01*
X92269819Y-84728571D02*
X92317438Y-84633333D01*
X92317438Y-84633333D02*
X92365057Y-84585714D01*
X92365057Y-84585714D02*
X92460295Y-84538095D01*
X92460295Y-84538095D02*
X92698390Y-84538095D01*
X92698390Y-84538095D02*
X92793628Y-84585714D01*
X92793628Y-84585714D02*
X92841247Y-84633333D01*
X92841247Y-84633333D02*
X92888866Y-84728571D01*
X92888866Y-84728571D02*
X92888866Y-84919047D01*
X92888866Y-84919047D02*
X92841247Y-85014285D01*
X92841247Y-85014285D02*
X92793628Y-85061904D01*
X92793628Y-85061904D02*
X92698390Y-85109523D01*
X92603152Y-85966666D02*
X93269819Y-85966666D01*
X92222200Y-85728571D02*
X92936485Y-85490476D01*
X92936485Y-85490476D02*
X92936485Y-86109523D01*
D13*
%TO.C,C33*%
X90590000Y-70359420D02*
X90590000Y-70640580D01*
X91610000Y-70359420D02*
X91610000Y-70640580D01*
%TO.C,R71*%
X82262742Y-72277500D02*
X82737258Y-72277500D01*
X82262742Y-73322500D02*
X82737258Y-73322500D01*
%TO.C,C92*%
X94740580Y-73290000D02*
X94459420Y-73290000D01*
X94740580Y-74310000D02*
X94459420Y-74310000D01*
%TO.C,C17*%
X85790000Y-70234420D02*
X85790000Y-70515580D01*
X86810000Y-70234420D02*
X86810000Y-70515580D01*
%TO.C,C91*%
X88690000Y-78440580D02*
X88690000Y-78159420D01*
X89710000Y-78440580D02*
X89710000Y-78159420D01*
%TO.C,C23*%
X86759420Y-76490000D02*
X87040580Y-76490000D01*
X86759420Y-77510000D02*
X87040580Y-77510000D01*
%TO.C,R44*%
X124337258Y-67477500D02*
X123862742Y-67477500D01*
X124337258Y-68522500D02*
X123862742Y-68522500D01*
%TO.C,C90*%
X94740580Y-76190000D02*
X94459420Y-76190000D01*
X94740580Y-77210000D02*
X94459420Y-77210000D01*
%TO.C,C30*%
X96890000Y-69011252D02*
X96890000Y-67588748D01*
X98710000Y-69011252D02*
X98710000Y-67588748D01*
%TO.C,C19*%
X87390000Y-70234420D02*
X87390000Y-70515580D01*
X88410000Y-70234420D02*
X88410000Y-70515580D01*
%TO.C,C72*%
X102690000Y-60640580D02*
X102690000Y-60359420D01*
X103710000Y-60640580D02*
X103710000Y-60359420D01*
%TO.C,C32*%
X84390000Y-80659420D02*
X84390000Y-80940580D01*
X85410000Y-80659420D02*
X85410000Y-80940580D01*
%TO.C,C93*%
X90790000Y-81659420D02*
X90790000Y-81940580D01*
X91810000Y-81659420D02*
X91810000Y-81940580D01*
%TO.C,C25*%
X94740580Y-71690000D02*
X94459420Y-71690000D01*
X94740580Y-72710000D02*
X94459420Y-72710000D01*
%TO.C,C71*%
X104290000Y-60665580D02*
X104290000Y-60384420D01*
X105310000Y-60665580D02*
X105310000Y-60384420D01*
%TO.C,C28*%
X86559420Y-73790000D02*
X86840580Y-73790000D01*
X86559420Y-74810000D02*
X86840580Y-74810000D01*
%TO.C,C31*%
X94740580Y-77790000D02*
X94459420Y-77790000D01*
X94740580Y-78810000D02*
X94459420Y-78810000D01*
%TO.C,C24*%
X88990000Y-70359420D02*
X88990000Y-70640580D01*
X90010000Y-70359420D02*
X90010000Y-70640580D01*
%TO.C,R41*%
X120737258Y-67477500D02*
X120262742Y-67477500D01*
X120737258Y-68522500D02*
X120262742Y-68522500D01*
%TO.C,C27*%
X92490000Y-66940580D02*
X92490000Y-66659420D01*
X93510000Y-66940580D02*
X93510000Y-66659420D01*
%TO.C,C29*%
X86559420Y-72190000D02*
X86840580Y-72190000D01*
X86559420Y-73210000D02*
X86840580Y-73210000D01*
%TO.C,C34*%
X95290000Y-68865580D02*
X95290000Y-68584420D01*
X96310000Y-68865580D02*
X96310000Y-68584420D01*
%TO.C,R43*%
X127437258Y-67477500D02*
X126962742Y-67477500D01*
X127437258Y-68522500D02*
X126962742Y-68522500D01*
%TO.C,R40*%
X117637258Y-67477500D02*
X117162742Y-67477500D01*
X117637258Y-68522500D02*
X117162742Y-68522500D01*
%TO.C,C94*%
X92390000Y-81659420D02*
X92390000Y-81940580D01*
X93410000Y-81659420D02*
X93410000Y-81940580D01*
%TD*%
M02*
