%TF.GenerationSoftware,KiCad,Pcbnew,9.0.3*%
%TF.CreationDate,2025-10-29T14:16:54+08:00*%
%TF.ProjectId,fixed_colimador,66697865-645f-4636-9f6c-696d61646f72,rev?*%
%TF.SameCoordinates,Original*%
%TF.FileFunction,Paste,Top*%
%TF.FilePolarity,Positive*%
%FSLAX46Y46*%
G04 Gerber Fmt 4.6, Leading zero omitted, Abs format (unit mm)*
G04 Created by KiCad (PCBNEW 9.0.3) date 2025-10-29 14:16:54*
%MOMM*%
%LPD*%
G01*
G04 APERTURE LIST*
G04 Aperture macros list*
%AMRoundRect*
0 Rectangle with rounded corners*
0 $1 Rounding radius*
0 $2 $3 $4 $5 $6 $7 $8 $9 X,Y pos of 4 corners*
0 Add a 4 corners polygon primitive as box body*
4,1,4,$2,$3,$4,$5,$6,$7,$8,$9,$2,$3,0*
0 Add four circle primitives for the rounded corners*
1,1,$1+$1,$2,$3*
1,1,$1+$1,$4,$5*
1,1,$1+$1,$6,$7*
1,1,$1+$1,$8,$9*
0 Add four rect primitives between the rounded corners*
20,1,$1+$1,$2,$3,$4,$5,0*
20,1,$1+$1,$4,$5,$6,$7,0*
20,1,$1+$1,$6,$7,$8,$9,0*
20,1,$1+$1,$8,$9,$2,$3,0*%
%AMRotRect*
0 Rectangle, with rotation*
0 The origin of the aperture is its center*
0 $1 length*
0 $2 width*
0 $3 Rotation angle, in degrees counterclockwise*
0 Add horizontal line*
21,1,$1,$2,0,0,$3*%
G04 Aperture macros list end*
%ADD10C,0.000000*%
%ADD11RoundRect,0.200000X0.275000X-0.200000X0.275000X0.200000X-0.275000X0.200000X-0.275000X-0.200000X0*%
%ADD12RoundRect,0.225000X-0.225000X-0.250000X0.225000X-0.250000X0.225000X0.250000X-0.225000X0.250000X0*%
%ADD13RoundRect,0.250000X-0.650000X0.412500X-0.650000X-0.412500X0.650000X-0.412500X0.650000X0.412500X0*%
%ADD14RoundRect,0.250000X-0.475000X0.250000X-0.475000X-0.250000X0.475000X-0.250000X0.475000X0.250000X0*%
%ADD15RoundRect,0.225000X0.250000X-0.225000X0.250000X0.225000X-0.250000X0.225000X-0.250000X-0.225000X0*%
%ADD16R,2.150000X2.250000*%
%ADD17RoundRect,0.150000X-0.825000X-0.150000X0.825000X-0.150000X0.825000X0.150000X-0.825000X0.150000X0*%
%ADD18RoundRect,0.200000X0.200000X0.275000X-0.200000X0.275000X-0.200000X-0.275000X0.200000X-0.275000X0*%
%ADD19RotRect,1.200000X1.400000X45.000000*%
%ADD20R,0.300000X1.400000*%
%ADD21RoundRect,0.225000X-0.250000X0.225000X-0.250000X-0.225000X0.250000X-0.225000X0.250000X0.225000X0*%
%ADD22RoundRect,0.200000X-0.275000X0.200000X-0.275000X-0.200000X0.275000X-0.200000X0.275000X0.200000X0*%
%ADD23RoundRect,0.218750X-0.256250X0.218750X-0.256250X-0.218750X0.256250X-0.218750X0.256250X0.218750X0*%
%ADD24RoundRect,0.200000X-0.200000X-0.275000X0.200000X-0.275000X0.200000X0.275000X-0.200000X0.275000X0*%
%ADD25R,1.350000X1.800000*%
%ADD26RoundRect,0.218750X-0.218750X-0.256250X0.218750X-0.256250X0.218750X0.256250X-0.218750X0.256250X0*%
%ADD27RoundRect,0.250000X-0.412500X-0.650000X0.412500X-0.650000X0.412500X0.650000X-0.412500X0.650000X0*%
%ADD28RoundRect,0.200000X1.150000X-0.200000X1.150000X0.200000X-1.150000X0.200000X-1.150000X-0.200000X0*%
%ADD29RoundRect,0.218750X0.218750X0.256250X-0.218750X0.256250X-0.218750X-0.256250X0.218750X-0.256250X0*%
%ADD30R,1.640000X1.400000*%
%ADD31R,1.900000X1.300000*%
%ADD32R,1.100000X0.600000*%
%ADD33R,1.100000X0.300000*%
%ADD34RoundRect,0.218750X0.256250X-0.218750X0.256250X0.218750X-0.256250X0.218750X-0.256250X-0.218750X0*%
%ADD35RoundRect,0.225000X0.225000X0.250000X-0.225000X0.250000X-0.225000X-0.250000X0.225000X-0.250000X0*%
%ADD36RoundRect,0.225000X0.335876X0.017678X0.017678X0.335876X-0.335876X-0.017678X-0.017678X-0.335876X0*%
%ADD37RoundRect,0.250000X0.275000X0.700000X-0.275000X0.700000X-0.275000X-0.700000X0.275000X-0.700000X0*%
%ADD38C,0.370000*%
%ADD39RoundRect,0.250000X0.650000X-0.412500X0.650000X0.412500X-0.650000X0.412500X-0.650000X-0.412500X0*%
%ADD40R,1.200000X0.600000*%
%ADD41R,2.300000X4.000000*%
%ADD42R,2.300000X4.400000*%
%ADD43RoundRect,0.162500X-0.650000X-0.162500X0.650000X-0.162500X0.650000X0.162500X-0.650000X0.162500X0*%
%ADD44RoundRect,0.150000X-0.512500X-0.150000X0.512500X-0.150000X0.512500X0.150000X-0.512500X0.150000X0*%
%ADD45R,1.450000X0.450000*%
%ADD46R,2.940000X3.580000*%
%ADD47RoundRect,0.225000X0.017678X-0.335876X0.335876X-0.017678X-0.017678X0.335876X-0.335876X0.017678X0*%
G04 APERTURE END LIST*
D10*
%TO.C,U1*%
G36*
X123390040Y-68372890D02*
G01*
X122725040Y-68372890D01*
X122725040Y-68176880D01*
X123390040Y-68176880D01*
X123390040Y-68372890D01*
G37*
G36*
X123390040Y-68722880D02*
G01*
X122725040Y-68722880D01*
X122725040Y-68526870D01*
X123390040Y-68526870D01*
X123390040Y-68722880D01*
G37*
G36*
X123390040Y-69072890D02*
G01*
X122725040Y-69072890D01*
X122725040Y-68876880D01*
X123390040Y-68876880D01*
X123390040Y-69072890D01*
G37*
G36*
X123390040Y-69422880D02*
G01*
X122725040Y-69422880D01*
X122725040Y-69226870D01*
X123390040Y-69226870D01*
X123390040Y-69422880D01*
G37*
G36*
X123390040Y-69772890D02*
G01*
X122725040Y-69772890D01*
X122725040Y-69576880D01*
X123390040Y-69576880D01*
X123390040Y-69772890D01*
G37*
G36*
X123390040Y-70122880D02*
G01*
X122725040Y-70122880D01*
X122725040Y-69926870D01*
X123390040Y-69926870D01*
X123390040Y-70122880D01*
G37*
G36*
X123390040Y-70472890D02*
G01*
X122725040Y-70472890D01*
X122725040Y-70276880D01*
X123390040Y-70276880D01*
X123390040Y-70472890D01*
G37*
G36*
X123390040Y-70822880D02*
G01*
X122725040Y-70822880D01*
X122725040Y-70626860D01*
X123390040Y-70626860D01*
X123390040Y-70822880D01*
G37*
G36*
X123390040Y-71172890D02*
G01*
X122725040Y-71172890D01*
X122725040Y-70976880D01*
X123390040Y-70976880D01*
X123390040Y-71172890D01*
G37*
G36*
X123390040Y-71522870D02*
G01*
X122725040Y-71522870D01*
X122725040Y-71326860D01*
X123390040Y-71326860D01*
X123390040Y-71522870D01*
G37*
G36*
X123390040Y-71872890D02*
G01*
X122725040Y-71872890D01*
X122725040Y-71676870D01*
X123390040Y-71676870D01*
X123390040Y-71872890D01*
G37*
G36*
X123390040Y-72222870D02*
G01*
X122725040Y-72222870D01*
X122725040Y-72026860D01*
X123390040Y-72026860D01*
X123390040Y-72222870D01*
G37*
G36*
X123390040Y-72572890D02*
G01*
X122725040Y-72572890D01*
X122725040Y-72376870D01*
X123390040Y-72376870D01*
X123390040Y-72572890D01*
G37*
G36*
X123390040Y-72922870D02*
G01*
X122725040Y-72922870D01*
X122725040Y-72726860D01*
X123390040Y-72726860D01*
X123390040Y-72922870D01*
G37*
G36*
X123390040Y-73272880D02*
G01*
X122725040Y-73272880D01*
X122725040Y-73076870D01*
X123390040Y-73076870D01*
X123390040Y-73272880D01*
G37*
G36*
X123390040Y-73622870D02*
G01*
X122725040Y-73622870D01*
X122725040Y-73426860D01*
X123390040Y-73426860D01*
X123390040Y-73622870D01*
G37*
G36*
X123390040Y-73972880D02*
G01*
X122725040Y-73972880D01*
X122725040Y-73776870D01*
X123390040Y-73776870D01*
X123390040Y-73972880D01*
G37*
G36*
X123390040Y-74322870D02*
G01*
X122725040Y-74322870D01*
X122725040Y-74126860D01*
X123390040Y-74126860D01*
X123390040Y-74322870D01*
G37*
G36*
X123390040Y-74672880D02*
G01*
X122725040Y-74672880D01*
X122725040Y-74476870D01*
X123390040Y-74476870D01*
X123390040Y-74672880D01*
G37*
G36*
X123390040Y-75022870D02*
G01*
X122725040Y-75022870D01*
X122725040Y-74826860D01*
X123390040Y-74826860D01*
X123390040Y-75022870D01*
G37*
G36*
X123390040Y-75372880D02*
G01*
X122725040Y-75372880D01*
X122725040Y-75176870D01*
X123390040Y-75176870D01*
X123390040Y-75372880D01*
G37*
G36*
X123390040Y-75722870D02*
G01*
X122725040Y-75722870D01*
X122725040Y-75526860D01*
X123390040Y-75526860D01*
X123390040Y-75722870D01*
G37*
G36*
X123390040Y-76072880D02*
G01*
X122725040Y-76072880D01*
X122725040Y-75876870D01*
X123390040Y-75876870D01*
X123390040Y-76072880D01*
G37*
G36*
X123390040Y-76422870D02*
G01*
X122725040Y-76422870D01*
X122725040Y-76226850D01*
X123390040Y-76226850D01*
X123390040Y-76422870D01*
G37*
G36*
X123390040Y-76772880D02*
G01*
X122725040Y-76772880D01*
X122725040Y-76576870D01*
X123390040Y-76576870D01*
X123390040Y-76772880D01*
G37*
G36*
X123390040Y-77122860D02*
G01*
X122725040Y-77122860D01*
X122725040Y-76926850D01*
X123390040Y-76926850D01*
X123390040Y-77122860D01*
G37*
G36*
X123773250Y-67989910D02*
G01*
X123577240Y-67989910D01*
X123577240Y-67324910D01*
X123773250Y-67324910D01*
X123773250Y-67989910D01*
G37*
G36*
X123773330Y-77975010D02*
G01*
X123577290Y-77975010D01*
X123577290Y-77310010D01*
X123773330Y-77310010D01*
X123773330Y-77975010D01*
G37*
G36*
X124123010Y-67989910D02*
G01*
X123927000Y-67989910D01*
X123927000Y-67324910D01*
X124123010Y-67324910D01*
X124123010Y-67989910D01*
G37*
G36*
X124123010Y-77975010D02*
G01*
X123927000Y-77975010D01*
X123927000Y-77310010D01*
X124123010Y-77310010D01*
X124123010Y-77975010D01*
G37*
G36*
X124473020Y-67989910D02*
G01*
X124277010Y-67989910D01*
X124277010Y-67324910D01*
X124473020Y-67324910D01*
X124473020Y-67989910D01*
G37*
G36*
X124473020Y-77975010D02*
G01*
X124277010Y-77975010D01*
X124277010Y-77310010D01*
X124473020Y-77310010D01*
X124473020Y-77975010D01*
G37*
G36*
X124823010Y-67989910D02*
G01*
X124626990Y-67989910D01*
X124626990Y-67324910D01*
X124823010Y-67324910D01*
X124823010Y-67989910D01*
G37*
G36*
X124823010Y-77975010D02*
G01*
X124626990Y-77975010D01*
X124626990Y-77310010D01*
X124823010Y-77310010D01*
X124823010Y-77975010D01*
G37*
G36*
X131449990Y-76049870D02*
G01*
X124650010Y-76049870D01*
X124650010Y-69249880D01*
X131449990Y-69249880D01*
X131449990Y-76049870D01*
G37*
G36*
X125173020Y-67989910D02*
G01*
X124977010Y-67989910D01*
X124977010Y-67324910D01*
X125173020Y-67324910D01*
X125173020Y-67989910D01*
G37*
G36*
X125173020Y-77975010D02*
G01*
X124977010Y-77975010D01*
X124977010Y-77310010D01*
X125173020Y-77310010D01*
X125173020Y-77975010D01*
G37*
G36*
X125523000Y-67989910D02*
G01*
X125326990Y-67989910D01*
X125326990Y-67324910D01*
X125523000Y-67324910D01*
X125523000Y-67989910D01*
G37*
G36*
X125523000Y-77975010D02*
G01*
X125326990Y-77975010D01*
X125326990Y-77310010D01*
X125523000Y-77310010D01*
X125523000Y-77975010D01*
G37*
G36*
X125873020Y-67989910D02*
G01*
X125677000Y-67989910D01*
X125677000Y-67324910D01*
X125873020Y-67324910D01*
X125873020Y-67989910D01*
G37*
G36*
X125873020Y-77975010D02*
G01*
X125677000Y-77975010D01*
X125677000Y-77310010D01*
X125873020Y-77310010D01*
X125873020Y-77975010D01*
G37*
G36*
X126223000Y-67989910D02*
G01*
X126026990Y-67989910D01*
X126026990Y-67324910D01*
X126223000Y-67324910D01*
X126223000Y-67989910D01*
G37*
G36*
X126223000Y-77975010D02*
G01*
X126026990Y-77975010D01*
X126026990Y-77310010D01*
X126223000Y-77310010D01*
X126223000Y-77975010D01*
G37*
G36*
X126573010Y-67989910D02*
G01*
X126377000Y-67989910D01*
X126377000Y-67324910D01*
X126573010Y-67324910D01*
X126573010Y-67989910D01*
G37*
G36*
X126573010Y-77975010D02*
G01*
X126377000Y-77975010D01*
X126377000Y-77310010D01*
X126573010Y-77310010D01*
X126573010Y-77975010D01*
G37*
G36*
X126923000Y-67989910D02*
G01*
X126726990Y-67989910D01*
X126726990Y-67324910D01*
X126923000Y-67324910D01*
X126923000Y-67989910D01*
G37*
G36*
X126923000Y-77975010D02*
G01*
X126726990Y-77975010D01*
X126726990Y-77310010D01*
X126923000Y-77310010D01*
X126923000Y-77975010D01*
G37*
G36*
X127273010Y-67989910D02*
G01*
X127077000Y-67989910D01*
X127077000Y-67324910D01*
X127273010Y-67324910D01*
X127273010Y-67989910D01*
G37*
G36*
X127273010Y-77975010D02*
G01*
X127077000Y-77975010D01*
X127077000Y-77310010D01*
X127273010Y-77310010D01*
X127273010Y-77975010D01*
G37*
G36*
X127623000Y-67989910D02*
G01*
X127426990Y-67989910D01*
X127426990Y-67324910D01*
X127623000Y-67324910D01*
X127623000Y-67989910D01*
G37*
G36*
X127623000Y-77975010D02*
G01*
X127426990Y-77975010D01*
X127426990Y-77310010D01*
X127623000Y-77310010D01*
X127623000Y-77975010D01*
G37*
G36*
X127973010Y-67989910D02*
G01*
X127777000Y-67989910D01*
X127777000Y-67324910D01*
X127973010Y-67324910D01*
X127973010Y-67989910D01*
G37*
G36*
X127973010Y-77975010D02*
G01*
X127777000Y-77975010D01*
X127777000Y-77310010D01*
X127973010Y-77310010D01*
X127973010Y-77975010D01*
G37*
G36*
X128323000Y-67989910D02*
G01*
X128126990Y-67989910D01*
X128126990Y-67324910D01*
X128323000Y-67324910D01*
X128323000Y-67989910D01*
G37*
G36*
X128323000Y-77975010D02*
G01*
X128126990Y-77975010D01*
X128126990Y-77310010D01*
X128323000Y-77310010D01*
X128323000Y-77975010D01*
G37*
G36*
X128673010Y-67989910D02*
G01*
X128477000Y-67989910D01*
X128477000Y-67324910D01*
X128673010Y-67324910D01*
X128673010Y-67989910D01*
G37*
G36*
X128673010Y-77975010D02*
G01*
X128477000Y-77975010D01*
X128477000Y-77310010D01*
X128673010Y-77310010D01*
X128673010Y-77975010D01*
G37*
G36*
X129023000Y-67989910D02*
G01*
X128826990Y-67989910D01*
X128826990Y-67324910D01*
X129023000Y-67324910D01*
X129023000Y-67989910D01*
G37*
G36*
X129023000Y-77975010D02*
G01*
X128826990Y-77975010D01*
X128826990Y-77310010D01*
X129023000Y-77310010D01*
X129023000Y-77975010D01*
G37*
G36*
X129373010Y-67989910D02*
G01*
X129177000Y-67989910D01*
X129177000Y-67324910D01*
X129373010Y-67324910D01*
X129373010Y-67989910D01*
G37*
G36*
X129373010Y-77975010D02*
G01*
X129177000Y-77975010D01*
X129177000Y-77310010D01*
X129373010Y-77310010D01*
X129373010Y-77975010D01*
G37*
G36*
X129723000Y-67989910D02*
G01*
X129526990Y-67989910D01*
X129526990Y-67324910D01*
X129723000Y-67324910D01*
X129723000Y-67989910D01*
G37*
G36*
X129723000Y-77975010D02*
G01*
X129526990Y-77975010D01*
X129526990Y-77310010D01*
X129723000Y-77310010D01*
X129723000Y-77975010D01*
G37*
G36*
X130073010Y-67989910D02*
G01*
X129877000Y-67989910D01*
X129877000Y-67324910D01*
X130073010Y-67324910D01*
X130073010Y-67989910D01*
G37*
G36*
X130073010Y-77975010D02*
G01*
X129877000Y-77975010D01*
X129877000Y-77310010D01*
X130073010Y-77310010D01*
X130073010Y-77975010D01*
G37*
G36*
X130423000Y-67989910D02*
G01*
X130226980Y-67989910D01*
X130226980Y-67324910D01*
X130423000Y-67324910D01*
X130423000Y-67989910D01*
G37*
G36*
X130423000Y-77975010D02*
G01*
X130226980Y-77975010D01*
X130226980Y-77310010D01*
X130423000Y-77310010D01*
X130423000Y-77975010D01*
G37*
G36*
X130773010Y-67989910D02*
G01*
X130577000Y-67989910D01*
X130577000Y-67324910D01*
X130773010Y-67324910D01*
X130773010Y-67989910D01*
G37*
G36*
X130773010Y-77975010D02*
G01*
X130577000Y-77975010D01*
X130577000Y-77310010D01*
X130773010Y-77310010D01*
X130773010Y-77975010D01*
G37*
G36*
X131122990Y-67989910D02*
G01*
X130926980Y-67989910D01*
X130926980Y-67324910D01*
X131122990Y-67324910D01*
X131122990Y-67989910D01*
G37*
G36*
X131122990Y-77975010D02*
G01*
X130926980Y-77975010D01*
X130926980Y-77310010D01*
X131122990Y-77310010D01*
X131122990Y-77975010D01*
G37*
G36*
X131473010Y-67989910D02*
G01*
X131276990Y-67989910D01*
X131276990Y-67324910D01*
X131473010Y-67324910D01*
X131473010Y-67989910D01*
G37*
G36*
X131473010Y-77975010D02*
G01*
X131276990Y-77975010D01*
X131276990Y-77310010D01*
X131473010Y-77310010D01*
X131473010Y-77975010D01*
G37*
G36*
X131822990Y-67989910D02*
G01*
X131626980Y-67989910D01*
X131626980Y-67324910D01*
X131822990Y-67324910D01*
X131822990Y-67989910D01*
G37*
G36*
X131822990Y-77975010D02*
G01*
X131626980Y-77975010D01*
X131626980Y-77310010D01*
X131822990Y-77310010D01*
X131822990Y-77975010D01*
G37*
G36*
X132173000Y-67989910D02*
G01*
X131976990Y-67989910D01*
X131976990Y-67324910D01*
X132173000Y-67324910D01*
X132173000Y-67989910D01*
G37*
G36*
X132173000Y-77975010D02*
G01*
X131976990Y-77975010D01*
X131976990Y-77310010D01*
X132173000Y-77310010D01*
X132173000Y-77975010D01*
G37*
G36*
X132522790Y-77975010D02*
G01*
X132326750Y-77975010D01*
X132326750Y-77310010D01*
X132522790Y-77310010D01*
X132522790Y-77975010D01*
G37*
G36*
X132523020Y-67989910D02*
G01*
X132327030Y-67989910D01*
X132327030Y-67324910D01*
X132523020Y-67324910D01*
X132523020Y-67989910D01*
G37*
G36*
X133375010Y-68372890D02*
G01*
X132710010Y-68372890D01*
X132710010Y-68176880D01*
X133375010Y-68176880D01*
X133375010Y-68372890D01*
G37*
G36*
X133375010Y-68722880D02*
G01*
X132710010Y-68722880D01*
X132710010Y-68526870D01*
X133375010Y-68526870D01*
X133375010Y-68722880D01*
G37*
G36*
X133375010Y-69072890D02*
G01*
X132710010Y-69072890D01*
X132710010Y-68876880D01*
X133375010Y-68876880D01*
X133375010Y-69072890D01*
G37*
G36*
X133375010Y-69422880D02*
G01*
X132710010Y-69422880D01*
X132710010Y-69226870D01*
X133375010Y-69226870D01*
X133375010Y-69422880D01*
G37*
G36*
X133375010Y-69772890D02*
G01*
X132710010Y-69772890D01*
X132710010Y-69576880D01*
X133375010Y-69576880D01*
X133375010Y-69772890D01*
G37*
G36*
X133375010Y-70122880D02*
G01*
X132710010Y-70122880D01*
X132710010Y-69926870D01*
X133375010Y-69926870D01*
X133375010Y-70122880D01*
G37*
G36*
X133375010Y-70472890D02*
G01*
X132710010Y-70472890D01*
X132710010Y-70276880D01*
X133375010Y-70276880D01*
X133375010Y-70472890D01*
G37*
G36*
X133375010Y-70822880D02*
G01*
X132710010Y-70822880D01*
X132710010Y-70626860D01*
X133375010Y-70626860D01*
X133375010Y-70822880D01*
G37*
G36*
X133375010Y-71172890D02*
G01*
X132710010Y-71172890D01*
X132710010Y-70976880D01*
X133375010Y-70976880D01*
X133375010Y-71172890D01*
G37*
G36*
X133375010Y-71522870D02*
G01*
X132710010Y-71522870D01*
X132710010Y-71326860D01*
X133375010Y-71326860D01*
X133375010Y-71522870D01*
G37*
G36*
X133375010Y-71872890D02*
G01*
X132710010Y-71872890D01*
X132710010Y-71676870D01*
X133375010Y-71676870D01*
X133375010Y-71872890D01*
G37*
G36*
X133375010Y-72222870D02*
G01*
X132710010Y-72222870D01*
X132710010Y-72026860D01*
X133375010Y-72026860D01*
X133375010Y-72222870D01*
G37*
G36*
X133375010Y-72572890D02*
G01*
X132710010Y-72572890D01*
X132710010Y-72376870D01*
X133375010Y-72376870D01*
X133375010Y-72572890D01*
G37*
G36*
X133375010Y-72922870D02*
G01*
X132710010Y-72922870D01*
X132710010Y-72726860D01*
X133375010Y-72726860D01*
X133375010Y-72922870D01*
G37*
G36*
X133375010Y-73272880D02*
G01*
X132710010Y-73272880D01*
X132710010Y-73076870D01*
X133375010Y-73076870D01*
X133375010Y-73272880D01*
G37*
G36*
X133375010Y-73622870D02*
G01*
X132710010Y-73622870D01*
X132710010Y-73426860D01*
X133375010Y-73426860D01*
X133375010Y-73622870D01*
G37*
G36*
X133375010Y-73972880D02*
G01*
X132710010Y-73972880D01*
X132710010Y-73776870D01*
X133375010Y-73776870D01*
X133375010Y-73972880D01*
G37*
G36*
X133375010Y-74322870D02*
G01*
X132710010Y-74322870D01*
X132710010Y-74126860D01*
X133375010Y-74126860D01*
X133375010Y-74322870D01*
G37*
G36*
X133375010Y-74672880D02*
G01*
X132710010Y-74672880D01*
X132710010Y-74476870D01*
X133375010Y-74476870D01*
X133375010Y-74672880D01*
G37*
G36*
X133375010Y-75022870D02*
G01*
X132710010Y-75022870D01*
X132710010Y-74826860D01*
X133375010Y-74826860D01*
X133375010Y-75022870D01*
G37*
G36*
X133375010Y-75372880D02*
G01*
X132710010Y-75372880D01*
X132710010Y-75176870D01*
X133375010Y-75176870D01*
X133375010Y-75372880D01*
G37*
G36*
X133375010Y-75722870D02*
G01*
X132710010Y-75722870D01*
X132710010Y-75526860D01*
X133375010Y-75526860D01*
X133375010Y-75722870D01*
G37*
G36*
X133375010Y-76072880D02*
G01*
X132710010Y-76072880D01*
X132710010Y-75876870D01*
X133375010Y-75876870D01*
X133375010Y-76072880D01*
G37*
G36*
X133375010Y-76422870D02*
G01*
X132710010Y-76422870D01*
X132710010Y-76226850D01*
X133375010Y-76226850D01*
X133375010Y-76422870D01*
G37*
G36*
X133375010Y-76772880D02*
G01*
X132710010Y-76772880D01*
X132710010Y-76576870D01*
X133375010Y-76576870D01*
X133375010Y-76772880D01*
G37*
G36*
X133375010Y-77122860D02*
G01*
X132710010Y-77122860D01*
X132710010Y-76926850D01*
X133375010Y-76926850D01*
X133375010Y-77122860D01*
G37*
%TD*%
D11*
%TO.C,R15*%
X124425000Y-86200000D03*
X124425000Y-84550000D03*
%TD*%
D12*
%TO.C,C40*%
X152775000Y-80810000D03*
X154325000Y-80810000D03*
%TD*%
D13*
%TO.C,C57*%
X142500000Y-103037500D03*
X142500000Y-106162500D03*
%TD*%
D14*
%TO.C,C50*%
X162884000Y-106978000D03*
X162884000Y-108878000D03*
%TD*%
D15*
%TO.C,C53*%
X149900000Y-95875000D03*
X149900000Y-94325000D03*
%TD*%
D13*
%TO.C,C22*%
X138500000Y-79837500D03*
X138500000Y-82962500D03*
%TD*%
D11*
%TO.C,R57*%
X158785000Y-88801000D03*
X158785000Y-87151000D03*
%TD*%
D16*
%TO.C,D2*%
X162100000Y-78200000D03*
X162100000Y-82600000D03*
%TD*%
D17*
%TO.C,U3*%
X148624000Y-82610000D03*
X148624000Y-83880000D03*
X148624000Y-85150000D03*
X148624000Y-86420000D03*
X153574000Y-86420000D03*
X153574000Y-85150000D03*
X153574000Y-83880000D03*
X153574000Y-82610000D03*
%TD*%
D11*
%TO.C,R58*%
X141882500Y-60140000D03*
X141882500Y-58490000D03*
%TD*%
D18*
%TO.C,R10*%
X157312000Y-73137500D03*
X155662000Y-73137500D03*
%TD*%
D19*
%TO.C,Y3*%
X124044142Y-61300223D03*
X125599777Y-62855858D03*
X126801858Y-61653777D03*
X125246223Y-60098142D03*
%TD*%
D20*
%TO.C,IC8*%
X120275000Y-93400000D03*
X120775000Y-93400000D03*
X121275000Y-93400000D03*
X121775000Y-93400000D03*
X122275000Y-93400000D03*
X122275000Y-89000000D03*
X121775000Y-89000000D03*
X121275000Y-89000000D03*
X120775000Y-89000000D03*
X120275000Y-89000000D03*
%TD*%
D21*
%TO.C,C89*%
X164650000Y-62905000D03*
X164650000Y-64455000D03*
%TD*%
D22*
%TO.C,R17*%
X123925000Y-92050000D03*
X123925000Y-93700000D03*
%TD*%
D21*
%TO.C,C45*%
X153167500Y-103935000D03*
X153167500Y-105485000D03*
%TD*%
D23*
%TO.C,D1*%
X143200000Y-92712500D03*
X143200000Y-94287500D03*
%TD*%
D21*
%TO.C,C48*%
X159443000Y-107070000D03*
X159443000Y-108620000D03*
%TD*%
D15*
%TO.C,C20*%
X135600000Y-67675000D03*
X135600000Y-66125000D03*
%TD*%
D24*
%TO.C,R65*%
X159700000Y-67950000D03*
X161350000Y-67950000D03*
%TD*%
D21*
%TO.C,C56*%
X154475000Y-94425000D03*
X154475000Y-95975000D03*
%TD*%
D24*
%TO.C,R55*%
X128150000Y-87875000D03*
X129800000Y-87875000D03*
%TD*%
D22*
%TO.C,R24*%
X143200000Y-95875000D03*
X143200000Y-97525000D03*
%TD*%
D25*
%TO.C,SW1*%
X145975000Y-59725000D03*
X150125000Y-59725000D03*
%TD*%
D24*
%TO.C,R29*%
X134532500Y-98200000D03*
X136182500Y-98200000D03*
%TD*%
D12*
%TO.C,C95*%
X133950000Y-87875000D03*
X135500000Y-87875000D03*
%TD*%
D26*
%TO.C,D9*%
X130900000Y-58500000D03*
X132475000Y-58500000D03*
%TD*%
D27*
%TO.C,C37*%
X146637000Y-76775000D03*
X149762000Y-76775000D03*
%TD*%
D12*
%TO.C,C51*%
X154752500Y-100085000D03*
X156302500Y-100085000D03*
%TD*%
D28*
%TO.C,L1*%
X152699500Y-77300000D03*
X152699500Y-75000000D03*
%TD*%
D29*
%TO.C,D4*%
X139170000Y-98200000D03*
X137595000Y-98200000D03*
%TD*%
D11*
%TO.C,R21*%
X148592500Y-105535000D03*
X148592500Y-103885000D03*
%TD*%
%TO.C,R70*%
X158808000Y-81717000D03*
X158808000Y-80067000D03*
%TD*%
D21*
%TO.C,C49*%
X161000000Y-107119000D03*
X161000000Y-108669000D03*
%TD*%
D18*
%TO.C,R56*%
X135550000Y-58500000D03*
X133900000Y-58500000D03*
%TD*%
%TO.C,R3*%
X117157500Y-67195000D03*
X115507500Y-67195000D03*
%TD*%
D15*
%TO.C,C44*%
X123925000Y-90600000D03*
X123925000Y-89050000D03*
%TD*%
D30*
%TO.C,D5*%
X162500000Y-101415000D03*
X162500000Y-97385000D03*
%TD*%
D18*
%TO.C,R2*%
X113057500Y-65320000D03*
X111407500Y-65320000D03*
%TD*%
D22*
%TO.C,R18*%
X118575000Y-91775000D03*
X118575000Y-93425000D03*
%TD*%
D12*
%TO.C,C1*%
X115532500Y-69145000D03*
X117082500Y-69145000D03*
%TD*%
%TO.C,C42*%
X118625000Y-96025000D03*
X120175000Y-96025000D03*
%TD*%
D24*
%TO.C,R64*%
X159700000Y-66425000D03*
X161350000Y-66425000D03*
%TD*%
D15*
%TO.C,C18*%
X137100000Y-67675000D03*
X137100000Y-66125000D03*
%TD*%
D13*
%TO.C,C59*%
X128545000Y-100912500D03*
X128545000Y-104037500D03*
%TD*%
D31*
%TO.C,Y4*%
X119875000Y-99125000D03*
X119875000Y-104625000D03*
X123075000Y-104625000D03*
X123075000Y-99125000D03*
%TD*%
D32*
%TO.C,U4*%
X167500000Y-70275000D03*
X167500000Y-69475000D03*
D33*
X167500000Y-68325000D03*
X167500000Y-67325000D03*
X167500000Y-66825000D03*
X167500000Y-65825000D03*
D32*
X167500000Y-63875000D03*
X167500000Y-64675000D03*
D33*
X167500000Y-65325000D03*
X167500000Y-66325000D03*
X167500000Y-67825000D03*
X167500000Y-68825000D03*
%TD*%
D11*
%TO.C,R13*%
X121370000Y-86200000D03*
X121370000Y-84550000D03*
%TD*%
D24*
%TO.C,R30*%
X129175000Y-97200000D03*
X130825000Y-97200000D03*
%TD*%
D16*
%TO.C,D3*%
X162225000Y-90400000D03*
X162225000Y-86000000D03*
%TD*%
D34*
%TO.C,D11*%
X109082500Y-71957500D03*
X109082500Y-70382500D03*
%TD*%
D13*
%TO.C,C58*%
X144900000Y-103037500D03*
X144900000Y-106162500D03*
%TD*%
D35*
%TO.C,C43*%
X124300000Y-95975000D03*
X122750000Y-95975000D03*
%TD*%
D11*
%TO.C,R12*%
X119825000Y-86200000D03*
X119825000Y-84550000D03*
%TD*%
D22*
%TO.C,R25*%
X156100000Y-94375000D03*
X156100000Y-96025000D03*
%TD*%
D11*
%TO.C,R11*%
X158825000Y-85238000D03*
X158825000Y-83588000D03*
%TD*%
D21*
%TO.C,C35*%
X160000000Y-74325000D03*
X160000000Y-75875000D03*
%TD*%
D36*
%TO.C,C15*%
X122923008Y-64527008D03*
X121826992Y-63430992D03*
%TD*%
D24*
%TO.C,R20*%
X154702500Y-101885000D03*
X156352500Y-101885000D03*
%TD*%
%TO.C,R23*%
X146575000Y-95900000D03*
X148225000Y-95900000D03*
%TD*%
D27*
%TO.C,C38*%
X146649500Y-72000000D03*
X149774500Y-72000000D03*
%TD*%
D13*
%TO.C,C88*%
X133500000Y-79837500D03*
X133500000Y-82962500D03*
%TD*%
D37*
%TO.C,L2*%
X161375000Y-104500000D03*
X158225000Y-104500000D03*
%TD*%
D24*
%TO.C,R63*%
X159700000Y-64900000D03*
X161350000Y-64900000D03*
%TD*%
D27*
%TO.C,C39*%
X146649500Y-74375000D03*
X149774500Y-74375000D03*
%TD*%
D24*
%TO.C,R4*%
X111457500Y-73920000D03*
X113107500Y-73920000D03*
%TD*%
D11*
%TO.C,R14*%
X122900000Y-86200000D03*
X122900000Y-84550000D03*
%TD*%
D35*
%TO.C,C36*%
X153424500Y-73425000D03*
X151874500Y-73425000D03*
%TD*%
D38*
%TO.C,IC7*%
X152227500Y-101285000D03*
X151577500Y-101285000D03*
X150927500Y-101285000D03*
X150277500Y-101285000D03*
X149627500Y-101285000D03*
X152227500Y-100635000D03*
X151577500Y-100635000D03*
X150927500Y-100635000D03*
X150277500Y-100635000D03*
X149627500Y-100635000D03*
X152227500Y-99985000D03*
X151577500Y-99985000D03*
X150927500Y-99985000D03*
X150277500Y-99985000D03*
X149627500Y-99985000D03*
X152227500Y-99335000D03*
X151577500Y-99335000D03*
X150927500Y-99335000D03*
X150277500Y-99335000D03*
X149627500Y-99335000D03*
X152227500Y-98685000D03*
X151577500Y-98685000D03*
X150927500Y-98685000D03*
X150277500Y-98685000D03*
X149627500Y-98685000D03*
%TD*%
D35*
%TO.C,C2*%
X113057500Y-72395000D03*
X111507500Y-72395000D03*
%TD*%
D13*
%TO.C,C12*%
X136000000Y-79837500D03*
X136000000Y-82962500D03*
%TD*%
D18*
%TO.C,R9*%
X153499500Y-71850000D03*
X151849500Y-71850000D03*
%TD*%
D39*
%TO.C,C52*%
X152200000Y-95862500D03*
X152200000Y-92737500D03*
%TD*%
D21*
%TO.C,C96*%
X143432500Y-58540000D03*
X143432500Y-60090000D03*
%TD*%
D13*
%TO.C,C47*%
X155700000Y-104537500D03*
X155700000Y-107662500D03*
%TD*%
D21*
%TO.C,C55*%
X144975000Y-97525000D03*
X144975000Y-99075000D03*
%TD*%
D22*
%TO.C,R1*%
X109107500Y-66075000D03*
X109107500Y-67725000D03*
%TD*%
D24*
%TO.C,R62*%
X159700000Y-69475000D03*
X161350000Y-69475000D03*
%TD*%
D40*
%TO.C,IC2*%
X113507500Y-69095000D03*
X113507500Y-68145000D03*
X113507500Y-67195000D03*
X111007500Y-67195000D03*
X111007500Y-69095000D03*
%TD*%
D12*
%TO.C,C90*%
X136525000Y-71400000D03*
X138075000Y-71400000D03*
%TD*%
D22*
%TO.C,R59*%
X153057500Y-58840000D03*
X153057500Y-60490000D03*
%TD*%
D41*
%TO.C,J2*%
X108775000Y-103225000D03*
D42*
X108775000Y-87225000D03*
%TD*%
D21*
%TO.C,C54*%
X146500000Y-97525000D03*
X146500000Y-99075000D03*
%TD*%
D22*
%TO.C,R16*%
X118275000Y-84550000D03*
X118275000Y-86200000D03*
%TD*%
D18*
%TO.C,R54*%
X138125000Y-69800000D03*
X136475000Y-69800000D03*
%TD*%
D21*
%TO.C,C41*%
X118575000Y-88775000D03*
X118575000Y-90325000D03*
%TD*%
D43*
%TO.C,U5*%
X128100000Y-89865000D03*
X128100000Y-91135000D03*
X128100000Y-92405000D03*
X128100000Y-93675000D03*
X135275000Y-93675000D03*
X135275000Y-92405000D03*
X135275000Y-91135000D03*
X135275000Y-89865000D03*
%TD*%
D44*
%TO.C,U2*%
X155562500Y-75350000D03*
X155562500Y-76300000D03*
X155562500Y-77250000D03*
X157837500Y-77250000D03*
X157837500Y-75350000D03*
%TD*%
D11*
%TO.C,R19*%
X150117500Y-105535000D03*
X150117500Y-103885000D03*
%TD*%
D18*
%TO.C,R28*%
X130825000Y-98800000D03*
X129175000Y-98800000D03*
%TD*%
D13*
%TO.C,C60*%
X130945000Y-100912500D03*
X130945000Y-104037500D03*
%TD*%
D24*
%TO.C,R22*%
X154675000Y-98100000D03*
X156325000Y-98100000D03*
%TD*%
D45*
%TO.C,IC5*%
X133800000Y-99900000D03*
X133800000Y-100550000D03*
X133800000Y-101200000D03*
X133800000Y-101850000D03*
X133800000Y-102500000D03*
X133800000Y-103150000D03*
X133800000Y-103800000D03*
X133800000Y-104450000D03*
X139650000Y-104450000D03*
X139650000Y-103800000D03*
X139650000Y-103150000D03*
X139650000Y-102500000D03*
X139650000Y-101850000D03*
X139650000Y-101200000D03*
X139650000Y-100550000D03*
X139650000Y-99900000D03*
D46*
X136725000Y-102175000D03*
%TD*%
D35*
%TO.C,C3*%
X113057500Y-70870000D03*
X111507500Y-70870000D03*
%TD*%
D47*
%TO.C,C14*%
X127399992Y-64750008D03*
X128496008Y-63653992D03*
%TD*%
D13*
%TO.C,C21*%
X141000000Y-79837500D03*
X141000000Y-82962500D03*
%TD*%
D25*
%TO.C,SW2*%
X155600000Y-59550000D03*
X159750000Y-59550000D03*
%TD*%
D21*
%TO.C,C13*%
X131500000Y-80725000D03*
X131500000Y-82275000D03*
%TD*%
%TO.C,C46*%
X151652500Y-103935000D03*
X151652500Y-105485000D03*
%TD*%
M02*
