%TF.GenerationSoftware,KiCad,Pcbnew,9.0.3*%
%TF.CreationDate,2025-11-17T14:31:59+08:00*%
%TF.ProjectId,mobile_colimador_new,6d6f6269-6c65-45f6-936f-6c696d61646f,rev?*%
%TF.SameCoordinates,Original*%
%TF.FileFunction,Paste,Bot*%
%TF.FilePolarity,Positive*%
%FSLAX46Y46*%
G04 Gerber Fmt 4.6, Leading zero omitted, Abs format (unit mm)*
G04 Created by KiCad (PCBNEW 9.0.3) date 2025-11-17 14:31:59*
%MOMM*%
%LPD*%
G01*
G04 APERTURE LIST*
G04 Aperture macros list*
%AMRoundRect*
0 Rectangle with rounded corners*
0 $1 Rounding radius*
0 $2 $3 $4 $5 $6 $7 $8 $9 X,Y pos of 4 corners*
0 Add a 4 corners polygon primitive as box body*
4,1,4,$2,$3,$4,$5,$6,$7,$8,$9,$2,$3,0*
0 Add four circle primitives for the rounded corners*
1,1,$1+$1,$2,$3*
1,1,$1+$1,$4,$5*
1,1,$1+$1,$6,$7*
1,1,$1+$1,$8,$9*
0 Add four rect primitives between the rounded corners*
20,1,$1+$1,$2,$3,$4,$5,0*
20,1,$1+$1,$4,$5,$6,$7,0*
20,1,$1+$1,$6,$7,$8,$9,0*
20,1,$1+$1,$8,$9,$2,$3,0*%
G04 Aperture macros list end*
%ADD10RoundRect,0.225000X-0.250000X0.225000X-0.250000X-0.225000X0.250000X-0.225000X0.250000X0.225000X0*%
%ADD11RoundRect,0.200000X-0.200000X-0.275000X0.200000X-0.275000X0.200000X0.275000X-0.200000X0.275000X0*%
%ADD12RoundRect,0.225000X0.225000X0.250000X-0.225000X0.250000X-0.225000X-0.250000X0.225000X-0.250000X0*%
%ADD13RoundRect,0.225000X0.250000X-0.225000X0.250000X0.225000X-0.250000X0.225000X-0.250000X-0.225000X0*%
%ADD14RoundRect,0.225000X-0.225000X-0.250000X0.225000X-0.250000X0.225000X0.250000X-0.225000X0.250000X0*%
%ADD15RoundRect,0.200000X0.200000X0.275000X-0.200000X0.275000X-0.200000X-0.275000X0.200000X-0.275000X0*%
%ADD16RoundRect,0.250000X0.650000X-0.325000X0.650000X0.325000X-0.650000X0.325000X-0.650000X-0.325000X0*%
G04 APERTURE END LIST*
D10*
%TO.C,C33*%
X91100000Y-69725000D03*
X91100000Y-71275000D03*
%TD*%
D11*
%TO.C,R71*%
X81675000Y-72800000D03*
X83325000Y-72800000D03*
%TD*%
D12*
%TO.C,C92*%
X95375000Y-73800000D03*
X93825000Y-73800000D03*
%TD*%
D10*
%TO.C,C17*%
X86300000Y-69600000D03*
X86300000Y-71150000D03*
%TD*%
D13*
%TO.C,C91*%
X89200000Y-79075000D03*
X89200000Y-77525000D03*
%TD*%
D14*
%TO.C,C23*%
X86125000Y-77000000D03*
X87675000Y-77000000D03*
%TD*%
D15*
%TO.C,R44*%
X124925000Y-68000000D03*
X123275000Y-68000000D03*
%TD*%
D12*
%TO.C,C90*%
X95375000Y-76700000D03*
X93825000Y-76700000D03*
%TD*%
D16*
%TO.C,C30*%
X97800000Y-69775000D03*
X97800000Y-66825000D03*
%TD*%
D10*
%TO.C,C19*%
X87900000Y-69600000D03*
X87900000Y-71150000D03*
%TD*%
D13*
%TO.C,C72*%
X103200000Y-61275000D03*
X103200000Y-59725000D03*
%TD*%
D10*
%TO.C,C32*%
X84900000Y-80025000D03*
X84900000Y-81575000D03*
%TD*%
%TO.C,C93*%
X91300000Y-81025000D03*
X91300000Y-82575000D03*
%TD*%
D12*
%TO.C,C25*%
X95375000Y-72200000D03*
X93825000Y-72200000D03*
%TD*%
D13*
%TO.C,C71*%
X104800000Y-61300000D03*
X104800000Y-59750000D03*
%TD*%
D14*
%TO.C,C28*%
X85925000Y-74300000D03*
X87475000Y-74300000D03*
%TD*%
D12*
%TO.C,C31*%
X95375000Y-78300000D03*
X93825000Y-78300000D03*
%TD*%
D10*
%TO.C,C24*%
X89500000Y-69725000D03*
X89500000Y-71275000D03*
%TD*%
D15*
%TO.C,R41*%
X121325000Y-68000000D03*
X119675000Y-68000000D03*
%TD*%
D13*
%TO.C,C27*%
X93000000Y-67575000D03*
X93000000Y-66025000D03*
%TD*%
D14*
%TO.C,C29*%
X85925000Y-72700000D03*
X87475000Y-72700000D03*
%TD*%
D13*
%TO.C,C34*%
X95800000Y-69500000D03*
X95800000Y-67950000D03*
%TD*%
D15*
%TO.C,R43*%
X128025000Y-68000000D03*
X126375000Y-68000000D03*
%TD*%
%TO.C,R40*%
X118225000Y-68000000D03*
X116575000Y-68000000D03*
%TD*%
D10*
%TO.C,C94*%
X92900000Y-81025000D03*
X92900000Y-82575000D03*
%TD*%
M02*
