%TF.GenerationSoftware,KiCad,Pcbnew,9.0.3*%
%TF.CreationDate,2025-11-17T14:31:59+08:00*%
%TF.ProjectId,mobile_colimador_new,6d6f6269-6c65-45f6-936f-6c696d61646f,rev?*%
%TF.SameCoordinates,Original*%
%TF.FileFunction,Copper,L4,Bot*%
%TF.FilePolarity,Positive*%
%FSLAX46Y46*%
G04 Gerber Fmt 4.6, Leading zero omitted, Abs format (unit mm)*
G04 Created by KiCad (PCBNEW 9.0.3) date 2025-11-17 14:31:59*
%MOMM*%
%LPD*%
G01*
G04 APERTURE LIST*
G04 Aperture macros list*
%AMRoundRect*
0 Rectangle with rounded corners*
0 $1 Rounding radius*
0 $2 $3 $4 $5 $6 $7 $8 $9 X,Y pos of 4 corners*
0 Add a 4 corners polygon primitive as box body*
4,1,4,$2,$3,$4,$5,$6,$7,$8,$9,$2,$3,0*
0 Add four circle primitives for the rounded corners*
1,1,$1+$1,$2,$3*
1,1,$1+$1,$4,$5*
1,1,$1+$1,$6,$7*
1,1,$1+$1,$8,$9*
0 Add four rect primitives between the rounded corners*
20,1,$1+$1,$2,$3,$4,$5,0*
20,1,$1+$1,$4,$5,$6,$7,0*
20,1,$1+$1,$6,$7,$8,$9,0*
20,1,$1+$1,$8,$9,$2,$3,0*%
G04 Aperture macros list end*
%TA.AperFunction,ComponentPad*%
%ADD10C,2.000000*%
%TD*%
%TA.AperFunction,ComponentPad*%
%ADD11RoundRect,0.250000X1.050000X-1.050000X1.050000X1.050000X-1.050000X1.050000X-1.050000X-1.050000X0*%
%TD*%
%TA.AperFunction,ComponentPad*%
%ADD12C,2.600000*%
%TD*%
%TA.AperFunction,ComponentPad*%
%ADD13RoundRect,0.249999X-0.850001X0.850001X-0.850001X-0.850001X0.850001X-0.850001X0.850001X0.850001X0*%
%TD*%
%TA.AperFunction,ComponentPad*%
%ADD14C,2.200000*%
%TD*%
%TA.AperFunction,ComponentPad*%
%ADD15C,2.280000*%
%TD*%
%TA.AperFunction,ComponentPad*%
%ADD16C,2.850000*%
%TD*%
%TA.AperFunction,WasherPad*%
%ADD17C,1.400000*%
%TD*%
%TA.AperFunction,ComponentPad*%
%ADD18C,1.400000*%
%TD*%
%TA.AperFunction,ComponentPad*%
%ADD19RoundRect,0.249999X0.850001X0.850001X-0.850001X0.850001X-0.850001X-0.850001X0.850001X-0.850001X0*%
%TD*%
%TA.AperFunction,SMDPad,CuDef*%
%ADD20RoundRect,0.225000X-0.250000X0.225000X-0.250000X-0.225000X0.250000X-0.225000X0.250000X0.225000X0*%
%TD*%
%TA.AperFunction,SMDPad,CuDef*%
%ADD21RoundRect,0.200000X-0.200000X-0.275000X0.200000X-0.275000X0.200000X0.275000X-0.200000X0.275000X0*%
%TD*%
%TA.AperFunction,SMDPad,CuDef*%
%ADD22RoundRect,0.225000X0.225000X0.250000X-0.225000X0.250000X-0.225000X-0.250000X0.225000X-0.250000X0*%
%TD*%
%TA.AperFunction,SMDPad,CuDef*%
%ADD23RoundRect,0.225000X0.250000X-0.225000X0.250000X0.225000X-0.250000X0.225000X-0.250000X-0.225000X0*%
%TD*%
%TA.AperFunction,SMDPad,CuDef*%
%ADD24RoundRect,0.225000X-0.225000X-0.250000X0.225000X-0.250000X0.225000X0.250000X-0.225000X0.250000X0*%
%TD*%
%TA.AperFunction,SMDPad,CuDef*%
%ADD25RoundRect,0.200000X0.200000X0.275000X-0.200000X0.275000X-0.200000X-0.275000X0.200000X-0.275000X0*%
%TD*%
%TA.AperFunction,SMDPad,CuDef*%
%ADD26RoundRect,0.250000X0.650000X-0.325000X0.650000X0.325000X-0.650000X0.325000X-0.650000X-0.325000X0*%
%TD*%
%TA.AperFunction,ViaPad*%
%ADD27C,0.400000*%
%TD*%
%TA.AperFunction,ViaPad*%
%ADD28C,0.600000*%
%TD*%
%TA.AperFunction,ViaPad*%
%ADD29C,0.250000*%
%TD*%
%TA.AperFunction,ViaPad*%
%ADD30C,0.300000*%
%TD*%
%TA.AperFunction,Conductor*%
%ADD31C,0.254000*%
%TD*%
%TA.AperFunction,Conductor*%
%ADD32C,0.400000*%
%TD*%
%TA.AperFunction,Conductor*%
%ADD33C,0.200000*%
%TD*%
%TA.AperFunction,Conductor*%
%ADD34C,0.120000*%
%TD*%
G04 APERTURE END LIST*
D10*
%TO.P,RX1,1,1*%
%TO.N,/RS485_RX*%
X138161000Y-82893000D03*
%TD*%
%TO.P,TX1,1,1*%
%TO.N,/RS485_TX*%
X138112000Y-75591000D03*
%TD*%
D11*
%TO.P,J6,1,Pin_1*%
%TO.N,+12P*%
X162150000Y-101945000D03*
D12*
%TO.P,J6,2,Pin_2*%
%TO.N,GND*%
X162150000Y-96865000D03*
%TD*%
D13*
%TO.P,J4,1,Pin_1*%
%TO.N,Net-(J4-Pin_1)*%
X54400000Y-93140000D03*
D14*
%TO.P,J4,2,Pin_2*%
%TO.N,Net-(J4-Pin_2)*%
X54400000Y-95680000D03*
%TO.P,J4,3,Pin_3*%
%TO.N,Net-(J4-Pin_3)*%
X54400000Y-98220000D03*
%TO.P,J4,4,Pin_4*%
%TO.N,Net-(J4-Pin_4)*%
X54400000Y-100760000D03*
%TO.P,J4,5,Pin_5*%
%TO.N,5V*%
X54400000Y-103300000D03*
%TO.P,J4,6,Pin_6*%
%TO.N,GND*%
X54400000Y-105840000D03*
%TD*%
D13*
%TO.P,J3,1,Pin_1*%
%TO.N,5V*%
X54400000Y-68540000D03*
D14*
%TO.P,J3,2,Pin_2*%
%TO.N,Net-(J3-Pin_2)*%
X54400000Y-71080000D03*
%TO.P,J3,3,Pin_3*%
%TO.N,5V*%
X54400000Y-73620000D03*
%TO.P,J3,4,Pin_4*%
%TO.N,Net-(J3-Pin_4)*%
X54400000Y-76160000D03*
%TO.P,J3,5,Pin_5*%
%TO.N,5V*%
X54400000Y-78700000D03*
%TO.P,J3,6,Pin_6*%
%TO.N,Net-(J3-Pin_6)*%
X54400000Y-81240000D03*
%TO.P,J3,7,Pin_7*%
%TO.N,unconnected-(J3-Pin_7-Pad7)*%
X54400000Y-83780000D03*
%TO.P,J3,8,Pin_8*%
%TO.N,unconnected-(J3-Pin_8-Pad8)*%
X54400000Y-86320000D03*
%TO.P,J3,9,Pin_9*%
%TO.N,unconnected-(J3-Pin_9-Pad9)*%
X54400000Y-88860000D03*
%TD*%
D15*
%TO.P,U15,MH1,MH1*%
%TO.N,GND*%
X83680000Y-106575000D03*
%TO.P,U15,MH2,MH2*%
X94920000Y-106575000D03*
D16*
%TO.P,U15,MH3,MH3*%
X83680000Y-110575000D03*
%TO.P,U15,MH4,MH4*%
X94920000Y-110575000D03*
%TD*%
D10*
%TO.P,6V-1,1,1*%
%TO.N,V6-*%
X132800000Y-77300000D03*
%TD*%
%TO.P,6V+1,1,1*%
%TO.N,V6+*%
X115248000Y-77949000D03*
%TD*%
%TO.P,A5V+1,1,1*%
%TO.N,AV5+*%
X131774000Y-62910000D03*
%TD*%
D17*
%TO.P,J2,*%
%TO.N,*%
X66100000Y-105200000D03*
X73600000Y-105200000D03*
%TD*%
D10*
%TO.P,RE1,1,1*%
%TO.N,/RS485_RE*%
X137985000Y-79169000D03*
%TD*%
D13*
%TO.P,J5,1,Pin_1*%
%TO.N,Net-(J5-Pin_1)*%
X54700000Y-59150000D03*
D14*
%TO.P,J5,2,Pin_2*%
%TO.N,+12P*%
X54700000Y-61690000D03*
%TO.P,J5,3,Pin_3*%
%TO.N,GND*%
X54700000Y-64230000D03*
%TD*%
D10*
%TO.P,5V1,1,1*%
%TO.N,5V*%
X135846000Y-98009000D03*
%TD*%
D13*
%TO.P,J7,1,Pin_1*%
%TO.N,Net-(J7-Pin_1)*%
X54700000Y-49650000D03*
D14*
%TO.P,J7,2,Pin_2*%
%TO.N,+12P*%
X54700000Y-52190000D03*
%TO.P,J7,3,Pin_3*%
%TO.N,GND*%
X54700000Y-54730000D03*
%TD*%
D10*
%TO.P,3V3,1,1*%
%TO.N,VCC_3V3*%
X146102000Y-71967000D03*
%TD*%
D11*
%TO.P,J1,1,Pin_1*%
%TO.N,GND*%
X162150000Y-84475000D03*
D12*
%TO.P,J1,2,Pin_2*%
%TO.N,/B*%
X162150000Y-79395000D03*
%TO.P,J1,3,Pin_3*%
%TO.N,/A*%
X162150000Y-74315000D03*
%TD*%
D10*
%TO.P,A5V-1,1,1*%
%TO.N,AV5-*%
X112888000Y-45936000D03*
%TD*%
D18*
%TO.P,JP1,1,A*%
%TO.N,Net-(JP1-A)*%
X148673000Y-79201000D03*
%TO.P,JP1,2,B*%
%TO.N,/A*%
X148673000Y-81741000D03*
%TD*%
D19*
%TO.P,J8,1,Pin_1*%
%TO.N,/PMT_SIG*%
X129780000Y-47000000D03*
D14*
%TO.P,J8,2,Pin_2*%
%TO.N,AV5+*%
X127240000Y-47000000D03*
%TO.P,J8,3,Pin_3*%
%TO.N,AV5-*%
X124700000Y-47000000D03*
%TO.P,J8,4,Pin_4*%
%TO.N,AGND*%
X122160000Y-47000000D03*
%TO.P,J8,5,Pin_5*%
%TO.N,/PMT_VREF*%
X119620000Y-47000000D03*
%TO.P,J8,6,Pin_6*%
%TO.N,/PMT_CONT*%
X117080000Y-47000000D03*
%TD*%
D10*
%TO.P,12V1,1,1*%
%TO.N,+12P*%
X161683000Y-106723000D03*
%TD*%
D20*
%TO.P,C33,1*%
%TO.N,ESP_VDD_HP*%
X91100000Y-69725000D03*
%TO.P,C33,2*%
%TO.N,GND*%
X91100000Y-71275000D03*
%TD*%
D21*
%TO.P,R71,1*%
%TO.N,VCC_3V3*%
X81675000Y-72800000D03*
%TO.P,R71,2*%
%TO.N,/VDDPST1*%
X83325000Y-72800000D03*
%TD*%
D22*
%TO.P,C92,1*%
%TO.N,ESP_LDO_VO2*%
X95375000Y-73800000D03*
%TO.P,C92,2*%
%TO.N,GND*%
X93825000Y-73800000D03*
%TD*%
D20*
%TO.P,C17,1*%
%TO.N,VCC_3V3*%
X86300000Y-69600000D03*
%TO.P,C17,2*%
%TO.N,GND*%
X86300000Y-71150000D03*
%TD*%
D23*
%TO.P,C91,1*%
%TO.N,ESP_LDO_VO1*%
X89200000Y-79075000D03*
%TO.P,C91,2*%
%TO.N,GND*%
X89200000Y-77525000D03*
%TD*%
D24*
%TO.P,C23,1*%
%TO.N,VCC_3V3*%
X86125000Y-77000000D03*
%TO.P,C23,2*%
%TO.N,GND*%
X87675000Y-77000000D03*
%TD*%
D25*
%TO.P,R44,1*%
%TO.N,Net-(U11-ADJ)*%
X124925000Y-68000000D03*
%TO.P,R44,2*%
%TO.N,AV5-*%
X123275000Y-68000000D03*
%TD*%
D22*
%TO.P,C90,1*%
%TO.N,ESP_LDO_VO2*%
X95375000Y-76700000D03*
%TO.P,C90,2*%
%TO.N,GND*%
X93825000Y-76700000D03*
%TD*%
D26*
%TO.P,C30,1*%
%TO.N,ESP_VDD_HP*%
X97800000Y-69775000D03*
%TO.P,C30,2*%
%TO.N,GND*%
X97800000Y-66825000D03*
%TD*%
D20*
%TO.P,C19,1*%
%TO.N,VCC_3V3*%
X87900000Y-69600000D03*
%TO.P,C19,2*%
%TO.N,GND*%
X87900000Y-71150000D03*
%TD*%
D23*
%TO.P,C72,1*%
%TO.N,GND*%
X103200000Y-61275000D03*
%TO.P,C72,2*%
%TO.N,VCC_3V3*%
X103200000Y-59725000D03*
%TD*%
D20*
%TO.P,C32,1*%
%TO.N,ESP_VDD_HP*%
X84900000Y-80025000D03*
%TO.P,C32,2*%
%TO.N,GND*%
X84900000Y-81575000D03*
%TD*%
%TO.P,C93,1*%
%TO.N,ESP_LDO_VO3*%
X91300000Y-81025000D03*
%TO.P,C93,2*%
%TO.N,GND*%
X91300000Y-82575000D03*
%TD*%
D22*
%TO.P,C25,1*%
%TO.N,ESP_LDO_VO1*%
X95375000Y-72200000D03*
%TO.P,C25,2*%
%TO.N,GND*%
X93825000Y-72200000D03*
%TD*%
D23*
%TO.P,C71,1*%
%TO.N,GND*%
X104800000Y-61300000D03*
%TO.P,C71,2*%
%TO.N,VCC_3V3*%
X104800000Y-59750000D03*
%TD*%
D24*
%TO.P,C28,1*%
%TO.N,/VDDPST1*%
X85925000Y-74300000D03*
%TO.P,C28,2*%
%TO.N,GND*%
X87475000Y-74300000D03*
%TD*%
D22*
%TO.P,C31,1*%
%TO.N,ESP_VDD_HP*%
X95375000Y-78300000D03*
%TO.P,C31,2*%
%TO.N,GND*%
X93825000Y-78300000D03*
%TD*%
D20*
%TO.P,C24,1*%
%TO.N,VCC_3V3*%
X89500000Y-69725000D03*
%TO.P,C24,2*%
%TO.N,GND*%
X89500000Y-71275000D03*
%TD*%
D25*
%TO.P,R41,1*%
%TO.N,AGND*%
X121325000Y-68000000D03*
%TO.P,R41,2*%
%TO.N,Net-(U10-SENSE{slash}ADJ)*%
X119675000Y-68000000D03*
%TD*%
D23*
%TO.P,C27,1*%
%TO.N,VCC_3V3*%
X93000000Y-67575000D03*
%TO.P,C27,2*%
%TO.N,GND*%
X93000000Y-66025000D03*
%TD*%
D24*
%TO.P,C29,1*%
%TO.N,/VDDPST1*%
X85925000Y-72700000D03*
%TO.P,C29,2*%
%TO.N,GND*%
X87475000Y-72700000D03*
%TD*%
D23*
%TO.P,C34,1*%
%TO.N,ESP_VDD_HP*%
X95800000Y-69500000D03*
%TO.P,C34,2*%
%TO.N,GND*%
X95800000Y-67950000D03*
%TD*%
D25*
%TO.P,R43,1*%
%TO.N,AGND*%
X128025000Y-68000000D03*
%TO.P,R43,2*%
%TO.N,Net-(U11-ADJ)*%
X126375000Y-68000000D03*
%TD*%
%TO.P,R40,1*%
%TO.N,Net-(U10-SENSE{slash}ADJ)*%
X118225000Y-68000000D03*
%TO.P,R40,2*%
%TO.N,AV5+*%
X116575000Y-68000000D03*
%TD*%
D20*
%TO.P,C94,1*%
%TO.N,ESP_LDO_VO3*%
X92900000Y-81025000D03*
%TO.P,C94,2*%
%TO.N,GND*%
X92900000Y-82575000D03*
%TD*%
D27*
%TO.N,GND*%
X149600000Y-108900000D03*
X118500000Y-105400000D03*
D28*
X104400000Y-86000000D03*
D27*
X100500000Y-65600000D03*
D28*
X107200000Y-108000000D03*
D27*
X145900000Y-103400000D03*
D28*
X101900000Y-86000000D03*
D27*
X144800000Y-103100000D03*
D28*
X80200000Y-57000000D03*
X118500000Y-93000000D03*
X84000000Y-88200000D03*
D27*
X145500000Y-92800000D03*
X86100000Y-104300000D03*
D28*
X65400000Y-74200000D03*
D27*
X79000000Y-89700000D03*
X120900000Y-105600000D03*
X92800000Y-73900000D03*
X137000000Y-89200000D03*
D28*
X110600000Y-104700000D03*
D27*
X131500000Y-105300000D03*
D28*
X146885000Y-82636000D03*
X98600000Y-110500000D03*
X111200000Y-82300000D03*
D29*
X92400000Y-76350000D03*
X122850000Y-94025000D03*
D27*
X61700000Y-102600000D03*
D28*
X71050000Y-58650000D03*
D27*
X121600000Y-111500000D03*
D28*
X113400000Y-100000000D03*
X95000000Y-84900000D03*
X118800000Y-90400000D03*
D27*
X141300000Y-102900000D03*
D28*
X127300000Y-94300000D03*
X126500000Y-88400000D03*
X144800000Y-74400000D03*
D27*
X142550000Y-98950000D03*
X102600000Y-66700000D03*
X97800000Y-65500000D03*
D28*
X87500000Y-65800000D03*
D27*
X138600000Y-92500000D03*
D28*
X112500000Y-106000000D03*
X87700000Y-96800000D03*
D27*
X73400000Y-88000000D03*
X84900000Y-83300000D03*
D28*
X132000000Y-94300000D03*
X154000000Y-71300000D03*
X134200000Y-80300000D03*
D27*
X150400000Y-94200000D03*
D28*
X66700000Y-80400000D03*
D27*
X97900000Y-108500000D03*
X141900000Y-98900000D03*
X129100000Y-105100000D03*
X143100000Y-98900000D03*
D28*
X111400000Y-98100000D03*
D27*
X137625000Y-103175000D03*
X129100000Y-101800000D03*
D28*
X128375000Y-111787500D03*
X65300000Y-68800000D03*
X92450000Y-103850000D03*
D27*
X93900000Y-82600000D03*
X97800000Y-106100000D03*
X143300000Y-94300000D03*
D28*
X132000000Y-92800000D03*
D27*
X151300000Y-108900000D03*
X149600000Y-109800000D03*
X95800000Y-66600000D03*
D28*
X99400000Y-86000000D03*
X85050000Y-99500000D03*
D29*
X93000000Y-64800000D03*
X80000000Y-86500000D03*
D28*
X113200000Y-92200000D03*
X101300000Y-76000000D03*
X94750000Y-102150000D03*
D27*
X87000000Y-61000000D03*
X150400000Y-108900000D03*
X106600000Y-58400000D03*
X104700000Y-62500000D03*
X140200000Y-92600000D03*
X90300000Y-71275000D03*
D28*
X90750030Y-74324920D03*
D27*
X150400000Y-109800000D03*
D28*
X72000000Y-52500000D03*
X154900000Y-95700000D03*
D27*
X97800000Y-103800000D03*
D28*
X75000000Y-85000000D03*
X92250000Y-99500000D03*
D29*
X126200000Y-108575000D03*
D27*
X83700000Y-64700000D03*
X147600000Y-94100000D03*
X103200000Y-63000000D03*
D28*
X79350000Y-97300000D03*
D27*
X126800000Y-104300000D03*
X134200000Y-105300000D03*
D28*
X153900000Y-87300000D03*
D27*
X151400000Y-109800000D03*
X89200000Y-76400000D03*
X122100000Y-85600000D03*
X113100000Y-93800000D03*
D29*
X90500000Y-64650000D03*
D28*
%TO.N,AGND*%
X122900000Y-80700000D03*
X121200000Y-82400000D03*
D27*
X112400000Y-51800000D03*
X133200000Y-54100000D03*
D28*
X118375000Y-76225000D03*
D27*
X133100000Y-53200000D03*
D28*
X122000000Y-80700000D03*
X109000000Y-68800000D03*
D27*
X112300000Y-61500000D03*
D28*
X111300000Y-62900000D03*
X122200000Y-78600000D03*
X118700000Y-70100000D03*
X123100000Y-82400000D03*
D27*
X128100000Y-70100000D03*
D28*
X109800000Y-70300000D03*
D27*
X121050000Y-55750000D03*
D28*
X121300000Y-66800000D03*
D27*
X112400000Y-55000000D03*
D28*
X94900000Y-56300000D03*
X128000000Y-66800000D03*
X111100000Y-77500000D03*
X122100000Y-81600000D03*
D27*
X112400000Y-56500000D03*
X124200000Y-55700000D03*
D28*
X94100000Y-51300000D03*
X124100000Y-76100000D03*
D27*
%TO.N,V6+*%
X113300000Y-95300000D03*
X118487500Y-86387500D03*
D28*
%TO.N,AV5+*%
X109000000Y-65000000D03*
D27*
X115400000Y-68000000D03*
D28*
X95900000Y-55700000D03*
X132300000Y-56875000D03*
X107600000Y-77500000D03*
D27*
%TO.N,V6-*%
X126112500Y-86287500D03*
D28*
X131800000Y-97400000D03*
D29*
%TO.N,VCC_3V3*%
X93000000Y-68600000D03*
D28*
X103200000Y-81425000D03*
X76105000Y-81700000D03*
X71400000Y-96600000D03*
D27*
X96700000Y-63100000D03*
D28*
X114900000Y-103500000D03*
X116300000Y-103500000D03*
X114900000Y-102600000D03*
D29*
X89200000Y-68700000D03*
D27*
X69700000Y-50000000D03*
D28*
X80500000Y-72800000D03*
D27*
X69600000Y-59700000D03*
D28*
X104468500Y-58400000D03*
X97900000Y-70800000D03*
D29*
X87126763Y-68623237D03*
D28*
X104200000Y-70500000D03*
X71700000Y-91300000D03*
D27*
X81700000Y-57000000D03*
D28*
X150764000Y-84586000D03*
X116200000Y-102600000D03*
D29*
X94774910Y-80050000D03*
D28*
X147324906Y-76575094D03*
X98500000Y-77000000D03*
D27*
X80150000Y-54050000D03*
D29*
X102700000Y-70600000D03*
X85000000Y-76950010D03*
D27*
%TO.N,ESP_LDO_VO1*%
X90100000Y-82200000D03*
X87373651Y-80955899D03*
D29*
X96550000Y-72500000D03*
D28*
%TO.N,ESP_VDD_HP*%
X104000000Y-103300000D03*
D29*
X85100000Y-79100000D03*
D28*
X103900000Y-101500000D03*
X102700000Y-101500000D03*
D29*
X96400000Y-70649800D03*
X90925030Y-68700000D03*
X96200000Y-78350000D03*
D28*
X103900000Y-102400000D03*
%TO.N,Net-(IC7-TR{slash}SS)*%
X148800000Y-96900000D03*
X145700000Y-101000000D03*
D27*
%TO.N,AV5-*%
X123325000Y-66725000D03*
D28*
%TO.N,/AD_VREF*%
X95900000Y-56950000D03*
X105700000Y-64800000D03*
%TO.N,/PMT_CONT*%
X113600000Y-53400000D03*
X112775000Y-62625000D03*
D29*
%TO.N,ESP_LDO_VO2*%
X96450090Y-73799910D03*
X96300000Y-76600000D03*
X96700000Y-72000000D03*
%TO.N,ESP_LDO_VO3*%
X91275040Y-80000000D03*
D30*
X97850000Y-72250000D03*
D27*
%TO.N,/RESET*%
X84550000Y-67550000D03*
X80150000Y-61400000D03*
D29*
%TO.N,/M_PUL*%
X73600000Y-79029000D03*
X83770000Y-79200000D03*
%TO.N,/M_DIR*%
X73600000Y-79539000D03*
X83800000Y-79700000D03*
D28*
%TO.N,/M_ENA*%
X70100000Y-82500000D03*
D29*
X89000000Y-67500000D03*
D27*
%TO.N,/FB_DCDC*%
X99200000Y-65000000D03*
X103300000Y-76800000D03*
D29*
%TO.N,/RTC_MFP*%
X84250000Y-75584950D03*
X81300000Y-75600000D03*
D28*
%TO.N,DVDD_3V3*%
X114900000Y-106300000D03*
X119500000Y-104300000D03*
D27*
%TO.N,/PON_A6V*%
X113300000Y-98300000D03*
D28*
X109600000Y-100700000D03*
D27*
X99400000Y-92800000D03*
X123200000Y-98800000D03*
D28*
%TO.N,Net-(U10-SENSE{slash}ADJ)*%
X121300000Y-70900000D03*
%TO.N,Net-(U11-ADJ)*%
X129100000Y-71000000D03*
D27*
%TO.N,/PON_PMT*%
X121725000Y-72875000D03*
D29*
X84300000Y-78300000D03*
D28*
%TO.N,Net-(U11-EN)*%
X127300000Y-74800000D03*
X122450000Y-75850000D03*
%TO.N,/PMT_VREF*%
X108100000Y-63600000D03*
X112500000Y-58150000D03*
%TO.N,Net-(U12-SDA)*%
X107200000Y-73200000D03*
X111100000Y-73800000D03*
D29*
%TO.N,/BOOT_GPIO35*%
X89900000Y-56000000D03*
D30*
X102300000Y-74140000D03*
D27*
%TO.N,/EN_DCDC*%
X103900000Y-76500000D03*
X99200000Y-64400000D03*
D29*
%TO.N,/RS485_TX*%
X82465000Y-80100000D03*
%TO.N,/RS485_RX*%
X82600000Y-80800000D03*
%TO.N,/RS485_RE*%
X83100000Y-81200000D03*
%TO.N,/EB*%
X70600000Y-89800000D03*
X90473074Y-68128492D03*
D28*
%TO.N,/FLASH_CK*%
X91150000Y-86885000D03*
D29*
X88500000Y-81050000D03*
%TO.N,/FLASH_Q*%
X86001500Y-81450000D03*
D28*
X86703000Y-86171900D03*
D29*
%TO.N,/FLASH_HD*%
X88600000Y-81650000D03*
X91000000Y-85600000D03*
%TO.N,/EA*%
X88465000Y-68409091D03*
D28*
X69700000Y-95900000D03*
%TO.N,/SW_B*%
X80700000Y-62700000D03*
D29*
X91600000Y-68500000D03*
%TO.N,/SW_A*%
X85800000Y-57200000D03*
X92000000Y-68100000D03*
%TO.N,/ADC_RESET*%
X84635000Y-70762500D03*
D28*
X104400000Y-57600000D03*
D29*
%TO.N,/ADC_CS*%
X82300000Y-70685000D03*
X83900000Y-70685000D03*
%TO.N,/ADC_DOUT*%
X87900000Y-57900000D03*
X89000000Y-59300000D03*
%TO.N,/ADC_START*%
X84635000Y-69800000D03*
X81700000Y-69800000D03*
%TO.N,/VDDPST1*%
X85000000Y-72749870D03*
X100300000Y-71700000D03*
D28*
%TO.N,/A*%
X154506000Y-79212500D03*
%TD*%
D31*
%TO.N,GND*%
X104800000Y-61300000D02*
X103225000Y-61300000D01*
D32*
X93825000Y-76700000D02*
X92750000Y-76700000D01*
X93825000Y-78300000D02*
X93825000Y-76700000D01*
D33*
X83680000Y-106575000D02*
X94920000Y-106575000D01*
D31*
X92900000Y-73800000D02*
X92800000Y-73900000D01*
D32*
X87475000Y-74300000D02*
X87475000Y-72700000D01*
X89500000Y-71275000D02*
X91100000Y-71275000D01*
X87475000Y-72700000D02*
X89125110Y-72700000D01*
X88675000Y-77000000D02*
X89200000Y-77525000D01*
D31*
X93825000Y-72200000D02*
X92874950Y-72200000D01*
X93825000Y-72200000D02*
X93825000Y-72100000D01*
D32*
X97800000Y-66825000D02*
X97800000Y-65500000D01*
D31*
X93825000Y-73800000D02*
X92900000Y-73800000D01*
D32*
X89200000Y-77525000D02*
X89200000Y-76400000D01*
X95800000Y-67950000D02*
X95800000Y-66600000D01*
D33*
X94920000Y-106575000D02*
X94865000Y-106520000D01*
D31*
X92874950Y-72200000D02*
X90750030Y-74324920D01*
D32*
X90300000Y-71275000D02*
X91100000Y-71275000D01*
D31*
X93000000Y-66025000D02*
X93000000Y-64800000D01*
X103225000Y-61300000D02*
X103200000Y-61275000D01*
X103200000Y-61275000D02*
X103200000Y-63000000D01*
X93875000Y-82575000D02*
X93900000Y-82600000D01*
D32*
X87900000Y-71150000D02*
X89375000Y-71150000D01*
X89375000Y-71150000D02*
X89500000Y-71275000D01*
X86300000Y-71150000D02*
X87900000Y-71150000D01*
D31*
X84900000Y-81575000D02*
X84900000Y-83300000D01*
D32*
X87675000Y-77000000D02*
X88675000Y-77000000D01*
D31*
X92900000Y-82575000D02*
X93875000Y-82575000D01*
D33*
X94865000Y-106520000D02*
X94865000Y-105901000D01*
D32*
X92750000Y-76700000D02*
X92400000Y-76350000D01*
X89125110Y-72700000D02*
X90750030Y-74324920D01*
D31*
X91300000Y-82575000D02*
X92900000Y-82575000D01*
D33*
X162275000Y-96767500D02*
X162372000Y-96865000D01*
D31*
%TO.N,AGND*%
X128025000Y-68000000D02*
X128025000Y-66825000D01*
X121325000Y-66825000D02*
X121300000Y-66800000D01*
X121325000Y-68000000D02*
X121325000Y-66825000D01*
X128025000Y-66825000D02*
X128000000Y-66800000D01*
D32*
%TO.N,V6+*%
X115800000Y-92800000D02*
X115800000Y-89075000D01*
X113300000Y-95300000D02*
X115800000Y-92800000D01*
X115800000Y-89075000D02*
X118487500Y-86387500D01*
%TO.N,AV5+*%
X116575000Y-68000000D02*
X115400000Y-68000000D01*
D31*
%TO.N,V6-*%
X131800000Y-96300000D02*
X128100000Y-92600000D01*
X128100000Y-92600000D02*
X128100000Y-87700000D01*
X126687500Y-86287500D02*
X126112500Y-86287500D01*
X128100000Y-87700000D02*
X126687500Y-86287500D01*
X131800000Y-97400000D02*
X131800000Y-96300000D01*
D32*
%TO.N,VCC_3V3*%
X86300000Y-69600000D02*
X86300000Y-69450000D01*
D34*
X89500000Y-69725000D02*
X89500000Y-69000000D01*
D31*
X104017900Y-58400000D02*
X103200000Y-59217900D01*
X86125000Y-77000000D02*
X85049990Y-77000000D01*
D32*
X86300000Y-69450000D02*
X87126763Y-68623237D01*
X93000000Y-69725000D02*
X93000000Y-68600000D01*
D34*
X94774910Y-80050000D02*
X94800000Y-80075090D01*
D32*
X87900000Y-69600000D02*
X87900000Y-69396474D01*
D34*
X81675000Y-72800000D02*
X80500000Y-72800000D01*
D31*
X104468500Y-58400000D02*
X104017900Y-58400000D01*
X103200000Y-59217900D02*
X103200000Y-59725000D01*
D34*
X89500000Y-69000000D02*
X89200000Y-68700000D01*
D31*
X104468500Y-58400000D02*
X104800000Y-58731500D01*
D34*
X93000000Y-67575000D02*
X93000000Y-68600000D01*
D31*
X85049990Y-77000000D02*
X85000000Y-76950010D01*
D32*
X87900000Y-69396474D02*
X87126763Y-68623237D01*
D31*
X104800000Y-58731500D02*
X104800000Y-59750000D01*
D34*
%TO.N,ESP_LDO_VO1*%
X90100000Y-82000000D02*
X89200000Y-81100000D01*
X89200000Y-81100000D02*
X89200000Y-79075000D01*
D31*
X91700000Y-78500000D02*
X91700000Y-74000000D01*
X91700000Y-74000000D02*
X92700000Y-73000000D01*
X89200000Y-79075000D02*
X87725000Y-79075000D01*
D34*
X95375000Y-72200000D02*
X96250000Y-72200000D01*
X90100000Y-82200000D02*
X90100000Y-82000000D01*
X96250000Y-72200000D02*
X96550000Y-72500000D01*
D31*
X87373651Y-79426349D02*
X87373651Y-80955899D01*
X94575000Y-73000000D02*
X95375000Y-72200000D01*
X91125000Y-79075000D02*
X91700000Y-78500000D01*
X89200000Y-79075000D02*
X91125000Y-79075000D01*
X87725000Y-79075000D02*
X87373651Y-79426349D01*
X92700000Y-73000000D02*
X94575000Y-73000000D01*
%TO.N,ESP_VDD_HP*%
X84900000Y-79300000D02*
X85100000Y-79100000D01*
D32*
X96150000Y-78300000D02*
X96200000Y-78350000D01*
X97800000Y-69775000D02*
X97274800Y-69775000D01*
X91100000Y-69725000D02*
X91100000Y-68874970D01*
X95800000Y-69500000D02*
X95800000Y-70049800D01*
X97274800Y-69775000D02*
X96400000Y-70649800D01*
D31*
X84900000Y-80025000D02*
X84900000Y-79300000D01*
D34*
X98200000Y-70250000D02*
X98200000Y-69350000D01*
X98150000Y-70300000D02*
X98200000Y-70250000D01*
D32*
X95375000Y-78300000D02*
X96150000Y-78300000D01*
X95800000Y-70049800D02*
X96400000Y-70649800D01*
X91100000Y-68874970D02*
X90925030Y-68700000D01*
%TO.N,+12P*%
X58300000Y-65290000D02*
X54700000Y-61690000D01*
D33*
X162150000Y-101945000D02*
X162372000Y-101945000D01*
D32*
X162150000Y-101945000D02*
X162372500Y-101722500D01*
X62400000Y-113200000D02*
X58300000Y-109100000D01*
X162150000Y-101945000D02*
X161717000Y-102378000D01*
D33*
X162372000Y-101945000D02*
X162372000Y-101168000D01*
D32*
X56900000Y-60200000D02*
X56900000Y-53200000D01*
X58300000Y-109100000D02*
X58300000Y-65290000D01*
X161717000Y-102378000D02*
X161717000Y-110683000D01*
X161717000Y-110683000D02*
X159200000Y-113200000D01*
X55890000Y-52190000D02*
X54700000Y-52190000D01*
X54700000Y-61690000D02*
X55410000Y-61690000D01*
X159200000Y-113200000D02*
X62400000Y-113200000D01*
D33*
X162372000Y-101168000D02*
X162372000Y-101945000D01*
D32*
X55410000Y-61690000D02*
X56900000Y-60200000D01*
X56900000Y-53200000D02*
X55890000Y-52190000D01*
D34*
%TO.N,Net-(IC7-TR{slash}SS)*%
X146600000Y-97700000D02*
X148000000Y-97700000D01*
X146100000Y-98200000D02*
X146600000Y-97700000D01*
X145700000Y-101000000D02*
X146100000Y-100600000D01*
X146100000Y-100600000D02*
X146100000Y-98200000D01*
X148000000Y-97700000D02*
X148800000Y-96900000D01*
D33*
%TO.N,5V*%
X54400000Y-69097800D02*
X53202200Y-69097800D01*
X54400000Y-73620000D02*
X55370000Y-73620000D01*
X52350000Y-69950000D02*
X52350000Y-72600000D01*
X54400000Y-68540000D02*
X54400000Y-69097800D01*
X51900000Y-100800000D02*
X51900000Y-81200000D01*
X55370000Y-73620000D02*
X56500000Y-74750000D01*
X55800000Y-78700000D02*
X54400000Y-78700000D01*
X52350000Y-72600000D02*
X53370000Y-73620000D01*
X56500000Y-74750000D02*
X56500000Y-78000000D01*
X56500000Y-78000000D02*
X55800000Y-78700000D01*
X54400000Y-103300000D02*
X51900000Y-100800000D01*
X53202200Y-69097800D02*
X52350000Y-69950000D01*
X51900000Y-81200000D02*
X54400000Y-78700000D01*
X53370000Y-73620000D02*
X54400000Y-73620000D01*
D32*
%TO.N,AV5-*%
X124700000Y-49800000D02*
X124700000Y-47000000D01*
X123275000Y-66775000D02*
X123325000Y-66725000D01*
X123325000Y-56625000D02*
X122700000Y-56000000D01*
X123325000Y-66725000D02*
X123325000Y-56625000D01*
X122700000Y-56000000D02*
X122700000Y-51800000D01*
X122700000Y-51800000D02*
X124700000Y-49800000D01*
X123275000Y-68000000D02*
X123275000Y-66775000D01*
D31*
%TO.N,/AD_VREF*%
X99600000Y-63700000D02*
X97800000Y-61900000D01*
X97800000Y-61900000D02*
X97800000Y-57300000D01*
X97450000Y-56950000D02*
X95900000Y-56950000D01*
X105700000Y-64800000D02*
X104600000Y-63700000D01*
X104600000Y-63700000D02*
X99600000Y-63700000D01*
X97800000Y-57300000D02*
X97450000Y-56950000D01*
D32*
%TO.N,/PMT_CONT*%
X113600000Y-61800000D02*
X112775000Y-62625000D01*
X113600000Y-53400000D02*
X113600000Y-61800000D01*
%TO.N,ESP_LDO_VO2*%
X95375000Y-76700000D02*
X96200000Y-76700000D01*
D31*
X96450090Y-76449910D02*
X96450090Y-73799910D01*
D34*
X95375000Y-73800000D02*
X96450000Y-73800000D01*
D31*
X97100000Y-72400000D02*
X97100000Y-73150000D01*
X96700000Y-72000000D02*
X97100000Y-72400000D01*
X96300000Y-76600000D02*
X96450090Y-76449910D01*
X97100000Y-73150000D02*
X96450090Y-73799910D01*
D34*
X96450000Y-73800000D02*
X96450090Y-73799910D01*
D32*
X96200000Y-76700000D02*
X96300000Y-76600000D01*
%TO.N,ESP_LDO_VO3*%
X98400000Y-72800000D02*
X98400000Y-74200000D01*
X98400000Y-74200000D02*
X97700000Y-74900000D01*
X97700000Y-74900000D02*
X97700000Y-78600000D01*
X97850000Y-72250000D02*
X98400000Y-72800000D01*
D31*
X92900000Y-81025000D02*
X91300000Y-81025000D01*
X91300000Y-81025000D02*
X91300000Y-80024960D01*
D32*
X97700000Y-78600000D02*
X96800000Y-79500000D01*
D31*
X91300000Y-80024960D02*
X91275040Y-80000000D01*
D32*
X93700000Y-80000000D02*
X91275040Y-80000000D01*
X94200000Y-79500000D02*
X93700000Y-80000000D01*
X96800000Y-79500000D02*
X94200000Y-79500000D01*
D34*
%TO.N,/RESET*%
X84550000Y-67550000D02*
X80150000Y-63150000D01*
X80150000Y-63150000D02*
X80150000Y-61400000D01*
%TO.N,/M_PUL*%
X75171000Y-79200000D02*
X75000000Y-79029000D01*
X75000000Y-79029000D02*
X73600000Y-79029000D01*
X83770000Y-79200000D02*
X75171000Y-79200000D01*
%TO.N,/M_DIR*%
X83800000Y-79700000D02*
X75161000Y-79700000D01*
X75000000Y-79539000D02*
X73600000Y-79539000D01*
X75161000Y-79700000D02*
X75000000Y-79539000D01*
%TO.N,/M_ENA*%
X70100000Y-77300000D02*
X70100000Y-82500000D01*
X85500000Y-67500000D02*
X85000000Y-68000000D01*
X76100000Y-71300000D02*
X70100000Y-77300000D01*
X84600000Y-71300000D02*
X76100000Y-71300000D01*
X85000000Y-70900000D02*
X84600000Y-71300000D01*
X89000000Y-67500000D02*
X85500000Y-67500000D01*
X85000000Y-68000000D02*
X85000000Y-70900000D01*
D33*
%TO.N,Net-(J4-Pin_1)*%
X54820700Y-93560700D02*
X54400000Y-93140000D01*
D34*
%TO.N,/FB_DCDC*%
X103300000Y-76700000D02*
X103100000Y-76500000D01*
X103100000Y-67800000D02*
X102900000Y-67600000D01*
X102900000Y-67600000D02*
X101800000Y-67600000D01*
X103100000Y-76500000D02*
X103100000Y-67800000D01*
X101800000Y-67600000D02*
X99200000Y-65000000D01*
X103300000Y-76800000D02*
X103300000Y-76700000D01*
%TO.N,/RTC_MFP*%
X81315050Y-75584950D02*
X84250000Y-75584950D01*
X81300000Y-75600000D02*
X81315050Y-75584950D01*
D32*
%TO.N,DVDD_3V3*%
X117800000Y-104300000D02*
X115800000Y-106300000D01*
X115800000Y-106300000D02*
X114900000Y-106300000D01*
X119500000Y-104300000D02*
X117800000Y-104300000D01*
D34*
%TO.N,/PON_A6V*%
X123200000Y-98800000D02*
X113800000Y-98800000D01*
X113800000Y-98800000D02*
X113300000Y-98300000D01*
D33*
X109600000Y-100700000D02*
X101700000Y-92800000D01*
X101700000Y-92800000D02*
X99400000Y-92800000D01*
D31*
%TO.N,Net-(U10-SENSE{slash}ADJ)*%
X119675000Y-68000000D02*
X119675000Y-69275000D01*
X118225000Y-68000000D02*
X119675000Y-68000000D01*
X119675000Y-69275000D02*
X121300000Y-70900000D01*
D32*
%TO.N,Net-(U11-ADJ)*%
X126375000Y-69775000D02*
X127600000Y-71000000D01*
X127600000Y-71000000D02*
X129100000Y-71000000D01*
X124925000Y-68000000D02*
X126375000Y-68000000D01*
X126375000Y-68000000D02*
X126375000Y-69775000D01*
D34*
%TO.N,/PON_PMT*%
X84300000Y-78300000D02*
X84200000Y-78400000D01*
X86600000Y-89300000D02*
X107100000Y-89300000D01*
X109100000Y-81100000D02*
X117325000Y-72875000D01*
X84200000Y-78400000D02*
X84200000Y-86900000D01*
X107100000Y-89300000D02*
X109100000Y-87300000D01*
X117325000Y-72875000D02*
X121725000Y-72875000D01*
X109100000Y-87300000D02*
X109100000Y-81100000D01*
X84200000Y-86900000D02*
X86600000Y-89300000D01*
D31*
%TO.N,Net-(U11-EN)*%
X127300000Y-74800000D02*
X126800000Y-75300000D01*
X123000000Y-75300000D02*
X122450000Y-75850000D01*
X126800000Y-75300000D02*
X123000000Y-75300000D01*
%TO.N,/PMT_VREF*%
X108100000Y-63600000D02*
X112500000Y-59200000D01*
X112500000Y-59200000D02*
X112500000Y-58150000D01*
%TO.N,Net-(U12-SDA)*%
X107200000Y-73200000D02*
X107800000Y-73800000D01*
X107800000Y-73800000D02*
X111100000Y-73800000D01*
D33*
%TO.N,/BOOT_GPIO35*%
X96400000Y-64600000D02*
X98100000Y-64600000D01*
X102300000Y-68800000D02*
X102300000Y-74140000D01*
X98100000Y-64600000D02*
X102300000Y-68800000D01*
X89900000Y-56000000D02*
X89900000Y-58100000D01*
X89900000Y-58100000D02*
X96400000Y-64600000D01*
D34*
%TO.N,/EN_DCDC*%
X103900000Y-76500000D02*
X103600000Y-76200000D01*
X103600000Y-76200000D02*
X103600000Y-66500000D01*
X103600000Y-66500000D02*
X101500000Y-64400000D01*
X101500000Y-64400000D02*
X99200000Y-64400000D01*
D33*
%TO.N,/RS485_TX*%
X102200000Y-89700000D02*
X113200000Y-100700000D01*
X83600000Y-80400000D02*
X83600000Y-81600000D01*
X135083000Y-90183000D02*
X135083000Y-77262000D01*
X82500000Y-80100000D02*
X83300000Y-80100000D01*
X83200000Y-88900000D02*
X84000000Y-89700000D01*
X135083000Y-77262000D02*
X136754000Y-75591000D01*
X83600000Y-81600000D02*
X83200000Y-82000000D01*
X137400000Y-92500000D02*
X135083000Y-90183000D01*
X137400000Y-101700000D02*
X137400000Y-92500000D01*
X119700000Y-100700000D02*
X121300000Y-102300000D01*
X121300000Y-102300000D02*
X136800000Y-102300000D01*
X83200000Y-82000000D02*
X83200000Y-88900000D01*
X84000000Y-89700000D02*
X102200000Y-89700000D01*
X83300000Y-80100000D02*
X83600000Y-80400000D01*
X136754000Y-75591000D02*
X138112000Y-75591000D01*
X113200000Y-100700000D02*
X119700000Y-100700000D01*
X136800000Y-102300000D02*
X137400000Y-101700000D01*
D31*
%TO.N,/RS485_RX*%
X82500000Y-91000000D02*
X101200000Y-91000000D01*
X141100000Y-86430000D02*
X141100000Y-85832000D01*
X81800000Y-90300000D02*
X82500000Y-91000000D01*
X141100000Y-86430000D02*
X141107000Y-86423000D01*
X81800000Y-81600000D02*
X81800000Y-90300000D01*
X112200000Y-102000000D02*
X119322000Y-102000000D01*
X141100000Y-101900000D02*
X141100000Y-86430000D01*
X135100000Y-104700000D02*
X138300000Y-104700000D01*
X82600000Y-80800000D02*
X81800000Y-81600000D01*
X101200000Y-91000000D02*
X112200000Y-102000000D01*
X120522000Y-103200000D02*
X133600000Y-103200000D01*
X138300000Y-104700000D02*
X141100000Y-101900000D01*
X141100000Y-85832000D02*
X138161000Y-82893000D01*
X133600000Y-103200000D02*
X135100000Y-104700000D01*
X119322000Y-102000000D02*
X120522000Y-103200000D01*
D33*
%TO.N,/RS485_RE*%
X101400000Y-90400000D02*
X112300000Y-101300000D01*
X138200000Y-104100000D02*
X138215000Y-104085000D01*
X135500000Y-104100000D02*
X138200000Y-104100000D01*
X137180000Y-79169000D02*
X137985000Y-79169000D01*
X138149000Y-92686811D02*
X138149000Y-92313189D01*
X136190000Y-84934000D02*
X136190000Y-80159000D01*
X112300000Y-101300000D02*
X119400000Y-101300000D01*
X136190000Y-80159000D02*
X137180000Y-79169000D01*
X138215000Y-92752811D02*
X138149000Y-92686811D01*
X82500000Y-88965428D02*
X83934572Y-90400000D01*
X138215000Y-104085000D02*
X138215000Y-92752811D01*
X138215000Y-92247189D02*
X138215000Y-86959000D01*
X138215000Y-86959000D02*
X136190000Y-84934000D01*
X83100000Y-81200000D02*
X82500000Y-81800000D01*
X134100000Y-102700000D02*
X135500000Y-104100000D01*
X138149000Y-92313189D02*
X138215000Y-92247189D01*
X83934572Y-90400000D02*
X101400000Y-90400000D01*
X82500000Y-81800000D02*
X82500000Y-88965428D01*
X120800000Y-102700000D02*
X134100000Y-102700000D01*
X119400000Y-101300000D02*
X120800000Y-102700000D01*
D34*
%TO.N,/EB*%
X71200000Y-89200000D02*
X70600000Y-89800000D01*
X90473074Y-68128492D02*
X89028492Y-68128492D01*
X85021000Y-71679000D02*
X76521000Y-71679000D01*
X71200000Y-77000000D02*
X71200000Y-89200000D01*
X88800000Y-67900000D02*
X85700000Y-67900000D01*
X85700000Y-67900000D02*
X85300000Y-68300000D01*
X85300000Y-71400000D02*
X85021000Y-71679000D01*
X89028492Y-68128492D02*
X88800000Y-67900000D01*
X76521000Y-71679000D02*
X71200000Y-77000000D01*
X85300000Y-68300000D02*
X85300000Y-71400000D01*
D33*
%TO.N,/FLASH_CK*%
X88550000Y-86885000D02*
X87699800Y-86034800D01*
X87533500Y-83914400D02*
X87699800Y-84080700D01*
X87474600Y-83855500D02*
X87533500Y-83914400D01*
X87533500Y-83914400D02*
X87699800Y-84080700D01*
X91150000Y-86885000D02*
X88550000Y-86885000D01*
X88500000Y-81050000D02*
X87474600Y-82075400D01*
X87474600Y-82075400D02*
X87474600Y-83855500D01*
X87699800Y-86034800D02*
X87699800Y-84080700D01*
%TO.N,/FLASH_Q*%
X86001500Y-81450000D02*
X86703000Y-82151500D01*
X86703000Y-82151500D02*
X86703000Y-86171900D01*
D34*
%TO.N,/FLASH_HD*%
X88600000Y-83200000D02*
X91000000Y-85600000D01*
X88600000Y-81650000D02*
X88600000Y-83200000D01*
%TO.N,/EA*%
X85621000Y-70731168D02*
X85621000Y-70575038D01*
X72800000Y-95000000D02*
X72800000Y-76700000D01*
X77550000Y-71950000D02*
X85450000Y-71950000D01*
X69700000Y-95900000D02*
X71900000Y-95900000D01*
X88100000Y-68200000D02*
X88309091Y-68409091D01*
X85621000Y-71779000D02*
X85621000Y-71568832D01*
X71900000Y-95900000D02*
X72800000Y-95000000D01*
X85571000Y-70525038D02*
X85571000Y-68729000D01*
X85450000Y-71950000D02*
X85621000Y-71779000D01*
X85614000Y-70738168D02*
X85621000Y-70731168D01*
X85621000Y-70575038D02*
X85571000Y-70525038D01*
X85614000Y-71561832D02*
X85614000Y-70738168D01*
X85571000Y-68729000D02*
X86100000Y-68200000D01*
X85621000Y-71568832D02*
X85614000Y-71561832D01*
X86100000Y-68200000D02*
X88100000Y-68200000D01*
X72800000Y-76700000D02*
X77550000Y-71950000D01*
X88309091Y-68409091D02*
X88465000Y-68409091D01*
%TO.N,/SW_B*%
X91600000Y-68500000D02*
X91600000Y-68200000D01*
X86250000Y-62850000D02*
X86100000Y-62700000D01*
X86100000Y-62700000D02*
X80700000Y-62700000D01*
X91600000Y-68200000D02*
X86250000Y-62850000D01*
%TO.N,/SW_A*%
X92200000Y-64600000D02*
X85800000Y-58200000D01*
X85800000Y-58200000D02*
X85800000Y-57200000D01*
X92200000Y-67900000D02*
X92200000Y-64600000D01*
X92000000Y-68100000D02*
X92200000Y-67900000D01*
%TO.N,/ADC_RESET*%
X80100000Y-60100000D02*
X82200000Y-60100000D01*
X82200000Y-60100000D02*
X87300000Y-55000000D01*
X98700000Y-57600000D02*
X104400000Y-57600000D01*
X87300000Y-55000000D02*
X97800000Y-55000000D01*
X98300000Y-57200000D02*
X98700000Y-57600000D01*
X79300000Y-68600000D02*
X79300000Y-60900000D01*
X98300000Y-55500000D02*
X98300000Y-57200000D01*
X79300000Y-60900000D02*
X80100000Y-60100000D01*
X97800000Y-55000000D02*
X98300000Y-55500000D01*
X84635000Y-70762500D02*
X84612500Y-70762500D01*
X84150000Y-70300000D02*
X81000000Y-70300000D01*
X84612500Y-70762500D02*
X84150000Y-70300000D01*
X81000000Y-70300000D02*
X79300000Y-68600000D01*
%TO.N,/ADC_CS*%
X82300000Y-70685000D02*
X83900000Y-70685000D01*
%TO.N,/ADC_DOUT*%
X88500000Y-58800000D02*
X88500000Y-58500000D01*
X88500000Y-58500000D02*
X87900000Y-57900000D01*
X89000000Y-59300000D02*
X88500000Y-58800000D01*
%TO.N,/ADC_START*%
X84635000Y-69800000D02*
X81700000Y-69800000D01*
D31*
%TO.N,/VDDPST1*%
X97600000Y-71800000D02*
X97100000Y-71800000D01*
X86353000Y-71947000D02*
X85925000Y-72375000D01*
X96600000Y-71300000D02*
X92700000Y-71300000D01*
X85925000Y-74300000D02*
X85925000Y-72700000D01*
X88979416Y-71947000D02*
X86353000Y-71947000D01*
D32*
X83325000Y-72800000D02*
X84949870Y-72800000D01*
D31*
X85925000Y-72700000D02*
X85049870Y-72700000D01*
X92700000Y-71300000D02*
X91800000Y-72200000D01*
X91800000Y-72200000D02*
X89232416Y-72200000D01*
X85049870Y-72700000D02*
X85000000Y-72749870D01*
X85925000Y-72375000D02*
X85925000Y-72700000D01*
D32*
X84949870Y-72800000D02*
X85000000Y-72749870D01*
D31*
X97700000Y-71700000D02*
X97600000Y-71800000D01*
X100300000Y-71700000D02*
X97700000Y-71700000D01*
X97100000Y-71800000D02*
X96600000Y-71300000D01*
X89232416Y-72200000D02*
X88979416Y-71947000D01*
D33*
%TO.N,/A*%
X159404000Y-74315000D02*
X162150000Y-74315000D01*
X154506000Y-79212500D02*
X159404000Y-74315000D01*
X151163000Y-79212500D02*
X154506000Y-79212500D01*
%TD*%
M02*
