M48
; DRILL file {KiCad 9.0.3} date 2025-11-17T14:32:01+0800
; FORMAT={-:-/ absolute / metric / decimal}
; #@! TF.CreationDate,2025-11-17T14:32:01+08:00
; #@! TF.GenerationSoftware,Kicad,Pcbnew,9.0.3
; #@! TF.FileFunction,Plated,1,4,PTH
FMAT,2
METRIC
; #@! TA.AperFunction,Plated,PTH,ViaDrill
T1C0.150
; #@! TA.AperFunction,Plated,PTH,ViaDrill
T2C0.200
; #@! TA.AperFunction,Plated,PTH,ViaDrill
T3C0.300
; #@! TA.AperFunction,Plated,PTH,ComponentDrill
T4C0.800
; #@! TA.AperFunction,Plated,PTH,ComponentDrill
T5C1.000
; #@! TA.AperFunction,Plated,PTH,ComponentDrill
T6C1.100
; #@! TA.AperFunction,Plated,PTH,ComponentDrill
T7C1.300
; #@! TA.AperFunction,Plated,PTH,ComponentDrill
T8C1.520
; #@! TA.AperFunction,Plated,PTH,ComponentDrill
T9C1.900
%
G90
G05
T1
X70.6Y-89.8
X73.6Y-79.029
X73.6Y-79.539
X80.0Y-86.5
X81.3Y-75.6
X81.7Y-69.8
X82.3Y-70.685
X82.465Y-80.1
X82.6Y-80.8
X83.1Y-81.2
X83.77Y-79.2
X83.8Y-79.7
X83.9Y-70.685
X84.25Y-75.585
X84.3Y-78.3
X84.635Y-69.8
X84.635Y-70.763
X85.0Y-72.75
X85.0Y-76.95
X85.1Y-79.1
X85.8Y-57.2
X86.001Y-81.45
X87.127Y-68.623
X87.9Y-57.9
X88.465Y-68.409
X88.5Y-81.05
X88.6Y-81.65
X89.0Y-59.3
X89.0Y-67.5
X89.2Y-68.7
X89.9Y-56.0
X90.473Y-68.128
X90.5Y-64.65
X90.925Y-68.7
X91.0Y-85.6
X91.275Y-80.0
X91.6Y-68.5
X92.0Y-68.1
X92.4Y-76.35
X93.0Y-64.8
X93.0Y-68.6
X94.775Y-80.05
X96.2Y-78.35
X96.3Y-76.6
X96.4Y-70.65
X96.45Y-73.8
X96.55Y-72.5
X96.7Y-72.0
X100.3Y-71.7
X102.7Y-70.6
X122.85Y-94.025
X126.2Y-108.575
T2
X97.85Y-72.25
X102.3Y-74.14
T3
X61.7Y-102.6
X65.3Y-68.8
X65.4Y-74.2
X66.7Y-80.4
X69.6Y-59.7
X69.7Y-50.0
X69.7Y-95.9
X70.1Y-82.5
X71.05Y-58.65
X71.4Y-96.6
X71.7Y-91.3
X72.0Y-52.5
X73.4Y-88.0
X75.0Y-85.0
X76.105Y-81.7
X79.0Y-89.7
X79.35Y-97.3
X80.15Y-54.05
X80.15Y-61.4
X80.2Y-57.0
X80.5Y-72.8
X80.7Y-62.7
X81.7Y-57.0
X83.7Y-64.7
X84.0Y-88.2
X84.55Y-67.55
X84.9Y-83.3
X85.05Y-99.5
X86.1Y-104.3
X86.703Y-86.172
X87.0Y-61.0
X87.374Y-80.956
X87.5Y-65.8
X87.7Y-96.8
X89.2Y-76.4
X90.1Y-82.2
X90.3Y-71.275
X90.75Y-74.325
X91.15Y-86.885
X92.25Y-99.5
X92.45Y-103.85
X92.8Y-73.9
X93.9Y-82.6
X94.1Y-51.3
X94.75Y-102.15
X94.9Y-56.3
X95.0Y-84.9
X95.8Y-66.6
X95.9Y-55.7
X95.9Y-56.95
X96.7Y-63.1
X97.8Y-65.5
X97.8Y-103.8
X97.8Y-106.1
X97.9Y-70.8
X97.9Y-108.5
X98.5Y-77.0
X98.6Y-110.5
X99.2Y-64.4
X99.2Y-65.0
X99.4Y-86.0
X99.4Y-92.8
X100.5Y-65.6
X101.3Y-76.0
X101.9Y-86.0
X102.6Y-66.7
X102.7Y-101.5
X103.2Y-63.0
X103.2Y-81.425
X103.3Y-76.8
X103.9Y-76.5
X103.9Y-101.5
X103.9Y-102.4
X104.0Y-103.3
X104.2Y-70.5
X104.4Y-57.6
X104.4Y-86.0
X104.468Y-58.4
X104.7Y-62.5
X105.7Y-64.8
X106.6Y-58.4
X107.2Y-73.2
X107.2Y-108.0
X107.6Y-77.5
X108.1Y-63.6
X109.0Y-65.0
X109.0Y-68.8
X109.6Y-100.7
X109.8Y-70.3
X110.6Y-104.7
X111.1Y-73.8
X111.1Y-77.5
X111.2Y-82.3
X111.3Y-62.9
X111.4Y-98.1
X112.3Y-61.5
X112.4Y-51.8
X112.4Y-55.0
X112.4Y-56.5
X112.5Y-58.15
X112.5Y-106.0
X112.775Y-62.625
X113.1Y-93.8
X113.2Y-92.2
X113.3Y-95.3
X113.3Y-98.3
X113.4Y-100.0
X113.6Y-53.4
X114.9Y-102.6
X114.9Y-103.5
X114.9Y-106.3
X115.4Y-68.0
X116.2Y-102.6
X116.3Y-103.5
X118.375Y-76.225
X118.487Y-86.388
X118.5Y-93.0
X118.5Y-105.4
X118.7Y-70.1
X118.8Y-90.4
X119.5Y-104.3
X120.9Y-105.6
X121.05Y-55.75
X121.2Y-82.4
X121.3Y-66.8
X121.3Y-70.9
X121.6Y-111.5
X121.725Y-72.875
X122.0Y-80.7
X122.1Y-81.6
X122.1Y-85.6
X122.2Y-78.6
X122.45Y-75.85
X122.9Y-80.7
X123.1Y-82.4
X123.2Y-98.8
X123.325Y-66.725
X124.1Y-76.1
X124.2Y-55.7
X126.112Y-86.287
X126.5Y-88.4
X126.8Y-104.3
X127.3Y-74.8
X127.3Y-94.3
X128.0Y-66.8
X128.1Y-70.1
X128.375Y-111.787
X129.1Y-71.0
X129.1Y-101.8
X129.1Y-105.1
X131.5Y-105.3
X131.8Y-97.4
X132.0Y-92.8
X132.0Y-94.3
X132.3Y-56.875
X133.1Y-53.2
X133.2Y-54.1
X134.2Y-80.3
X134.2Y-105.3
X137.0Y-89.2
X137.625Y-103.175
X138.6Y-92.5
X140.2Y-92.6
X141.3Y-102.9
X141.9Y-98.9
X142.55Y-98.95
X143.1Y-98.9
X143.3Y-94.3
X144.8Y-74.4
X144.8Y-103.1
X145.5Y-92.8
X145.7Y-101.0
X145.9Y-103.4
X146.885Y-82.636
X147.325Y-76.575
X147.6Y-94.1
X148.8Y-96.9
X149.6Y-108.9
X149.6Y-109.8
X150.4Y-94.2
X150.4Y-108.9
X150.4Y-109.8
X150.764Y-84.586
X151.3Y-108.9
X151.4Y-109.8
X153.9Y-87.3
X154.0Y-71.3
X154.506Y-79.212
X154.9Y-95.7
T4
X148.673Y-79.201
X148.673Y-81.741
T5
X112.888Y-45.936
X115.248Y-77.949
X131.774Y-62.91
X132.8Y-77.3
X135.846Y-98.009
X137.985Y-79.169
X138.112Y-75.591
X138.161Y-82.893
X146.102Y-71.967
X161.683Y-106.723
T6
X54.4Y-68.54
X54.4Y-71.08
X54.4Y-73.62
X54.4Y-76.16
X54.4Y-78.7
X54.4Y-81.24
X54.4Y-83.78
X54.4Y-86.32
X54.4Y-88.86
X54.4Y-93.14
X54.4Y-95.68
X54.4Y-98.22
X54.4Y-100.76
X54.4Y-103.3
X54.4Y-105.84
X54.7Y-49.65
X54.7Y-52.19
X54.7Y-54.73
X54.7Y-59.15
X54.7Y-61.69
X54.7Y-64.23
X117.08Y-47.0
X119.62Y-47.0
X122.16Y-47.0
X124.7Y-47.0
X127.24Y-47.0
X129.78Y-47.0
T7
X162.15Y-74.315
X162.15Y-79.395
X162.15Y-84.475
X162.15Y-96.865
X162.15Y-101.945
T8
X83.68Y-106.575
X94.92Y-106.575
T9
X83.68Y-110.575
X94.92Y-110.575
M30
