%TF.GenerationSoftware,KiCad,Pcbnew,9.0.3*%
%TF.CreationDate,2025-11-17T14:31:59+08:00*%
%TF.ProjectId,mobile_colimador_new,6d6f6269-6c65-45f6-936f-6c696d61646f,rev?*%
%TF.SameCoordinates,Original*%
%TF.FileFunction,Soldermask,Top*%
%TF.FilePolarity,Negative*%
%FSLAX46Y46*%
G04 Gerber Fmt 4.6, Leading zero omitted, Abs format (unit mm)*
G04 Created by KiCad (PCBNEW 9.0.3) date 2025-11-17 14:31:59*
%MOMM*%
%LPD*%
G01*
G04 APERTURE LIST*
G04 Aperture macros list*
%AMRoundRect*
0 Rectangle with rounded corners*
0 $1 Rounding radius*
0 $2 $3 $4 $5 $6 $7 $8 $9 X,Y pos of 4 corners*
0 Add a 4 corners polygon primitive as box body*
4,1,4,$2,$3,$4,$5,$6,$7,$8,$9,$2,$3,0*
0 Add four circle primitives for the rounded corners*
1,1,$1+$1,$2,$3*
1,1,$1+$1,$4,$5*
1,1,$1+$1,$6,$7*
1,1,$1+$1,$8,$9*
0 Add four rect primitives between the rounded corners*
20,1,$1+$1,$2,$3,$4,$5,0*
20,1,$1+$1,$4,$5,$6,$7,0*
20,1,$1+$1,$6,$7,$8,$9,0*
20,1,$1+$1,$8,$9,$2,$3,0*%
%AMRotRect*
0 Rectangle, with rotation*
0 The origin of the aperture is its center*
0 $1 length*
0 $2 width*
0 $3 Rotation angle, in degrees counterclockwise*
0 Add horizontal line*
21,1,$1,$2,0,0,$3*%
G04 Aperture macros list end*
%ADD10RoundRect,0.200000X0.275000X-0.200000X0.275000X0.200000X-0.275000X0.200000X-0.275000X-0.200000X0*%
%ADD11RoundRect,0.225000X0.250000X-0.225000X0.250000X0.225000X-0.250000X0.225000X-0.250000X-0.225000X0*%
%ADD12RoundRect,0.200000X-0.275000X0.200000X-0.275000X-0.200000X0.275000X-0.200000X0.275000X0.200000X0*%
%ADD13RoundRect,0.150000X0.587500X0.150000X-0.587500X0.150000X-0.587500X-0.150000X0.587500X-0.150000X0*%
%ADD14R,1.640000X1.400000*%
%ADD15RoundRect,0.225000X-0.250000X0.225000X-0.250000X-0.225000X0.250000X-0.225000X0.250000X0.225000X0*%
%ADD16C,2.000000*%
%ADD17RoundRect,0.100000X-0.637500X-0.100000X0.637500X-0.100000X0.637500X0.100000X-0.637500X0.100000X0*%
%ADD18R,2.850000X5.400000*%
%ADD19RoundRect,0.225000X0.225000X0.250000X-0.225000X0.250000X-0.225000X-0.250000X0.225000X-0.250000X0*%
%ADD20RoundRect,0.200000X0.200000X0.275000X-0.200000X0.275000X-0.200000X-0.275000X0.200000X-0.275000X0*%
%ADD21RoundRect,0.200000X-0.200000X-0.275000X0.200000X-0.275000X0.200000X0.275000X-0.200000X0.275000X0*%
%ADD22RoundRect,0.250000X-0.475000X0.250000X-0.475000X-0.250000X0.475000X-0.250000X0.475000X0.250000X0*%
%ADD23RoundRect,0.218750X-0.256250X0.218750X-0.256250X-0.218750X0.256250X-0.218750X0.256250X0.218750X0*%
%ADD24RoundRect,0.250000X1.000000X0.650000X-1.000000X0.650000X-1.000000X-0.650000X1.000000X-0.650000X0*%
%ADD25RoundRect,0.100000X0.100000X-0.350000X0.100000X0.350000X-0.100000X0.350000X-0.100000X-0.350000X0*%
%ADD26RoundRect,0.218750X0.256250X-0.218750X0.256250X0.218750X-0.256250X0.218750X-0.256250X-0.218750X0*%
%ADD27RoundRect,0.250000X-0.650000X0.325000X-0.650000X-0.325000X0.650000X-0.325000X0.650000X0.325000X0*%
%ADD28RoundRect,0.150000X-0.512500X-0.150000X0.512500X-0.150000X0.512500X0.150000X-0.512500X0.150000X0*%
%ADD29RoundRect,0.250000X0.650000X-0.325000X0.650000X0.325000X-0.650000X0.325000X-0.650000X-0.325000X0*%
%ADD30RoundRect,0.150000X-0.662500X-0.150000X0.662500X-0.150000X0.662500X0.150000X-0.662500X0.150000X0*%
%ADD31RoundRect,0.250000X-0.325000X-0.650000X0.325000X-0.650000X0.325000X0.650000X-0.325000X0.650000X0*%
%ADD32R,1.350000X1.800000*%
%ADD33RoundRect,0.162500X-0.650000X-0.162500X0.650000X-0.162500X0.650000X0.162500X-0.650000X0.162500X0*%
%ADD34RoundRect,0.250000X1.050000X-1.050000X1.050000X1.050000X-1.050000X1.050000X-1.050000X-1.050000X0*%
%ADD35C,2.600000*%
%ADD36RoundRect,0.249999X-0.850001X0.850001X-0.850001X-0.850001X0.850001X-0.850001X0.850001X0.850001X0*%
%ADD37C,2.200000*%
%ADD38R,2.150000X2.250000*%
%ADD39RoundRect,0.250000X-0.300000X-1.600000X0.300000X-1.600000X0.300000X1.600000X-0.300000X1.600000X0*%
%ADD40R,1.300000X1.900000*%
%ADD41R,0.600000X1.100000*%
%ADD42R,0.300000X1.100000*%
%ADD43C,2.280000*%
%ADD44C,2.850000*%
%ADD45RoundRect,0.225000X-0.225000X-0.250000X0.225000X-0.250000X0.225000X0.250000X-0.225000X0.250000X0*%
%ADD46RoundRect,0.150000X-0.825000X-0.150000X0.825000X-0.150000X0.825000X0.150000X-0.825000X0.150000X0*%
%ADD47RoundRect,0.150000X0.150000X-0.512500X0.150000X0.512500X-0.150000X0.512500X-0.150000X-0.512500X0*%
%ADD48RoundRect,0.200000X1.150000X-0.200000X1.150000X0.200000X-1.150000X0.200000X-1.150000X-0.200000X0*%
%ADD49RoundRect,0.250000X0.325000X0.650000X-0.325000X0.650000X-0.325000X-0.650000X0.325000X-0.650000X0*%
%ADD50R,1.450000X0.450000*%
%ADD51R,2.940000X3.580000*%
%ADD52RoundRect,0.250000X0.700000X-0.275000X0.700000X0.275000X-0.700000X0.275000X-0.700000X-0.275000X0*%
%ADD53R,3.000000X4.200000*%
%ADD54C,0.370000*%
%ADD55RoundRect,0.225000X0.335876X0.017678X0.017678X0.335876X-0.335876X-0.017678X-0.017678X-0.335876X0*%
%ADD56C,1.400000*%
%ADD57R,4.000000X2.300000*%
%ADD58R,4.400000X2.300000*%
%ADD59RoundRect,0.050000X-0.325005X-0.075005X0.325005X-0.075005X0.325005X0.075005X-0.325005X0.075005X0*%
%ADD60RoundRect,0.050000X0.075005X-0.325005X0.075005X0.325005X-0.075005X0.325005X-0.075005X-0.325005X0*%
%ADD61RoundRect,0.050000X-0.075005X-0.325005X0.075005X-0.325005X0.075005X0.325005X-0.075005X0.325005X0*%
%ADD62RoundRect,0.050000X-4.249990X-4.249990X4.249990X-4.249990X4.249990X4.249990X-4.249990X4.249990X0*%
%ADD63C,1.100000*%
%ADD64RoundRect,0.150000X-0.150000X0.512500X-0.150000X-0.512500X0.150000X-0.512500X0.150000X0.512500X0*%
%ADD65RoundRect,0.225000X0.017678X-0.335876X0.335876X-0.017678X-0.017678X0.335876X-0.335876X0.017678X0*%
%ADD66RoundRect,0.250000X0.275000X0.700000X-0.275000X0.700000X-0.275000X-0.700000X0.275000X-0.700000X0*%
%ADD67RotRect,1.200000X1.400000X45.000000*%
%ADD68RoundRect,0.218750X0.218750X0.256250X-0.218750X0.256250X-0.218750X-0.256250X0.218750X-0.256250X0*%
%ADD69R,0.300000X1.400000*%
%ADD70RoundRect,0.249999X0.850001X0.850001X-0.850001X0.850001X-0.850001X-0.850001X0.850001X-0.850001X0*%
G04 APERTURE END LIST*
D10*
%TO.C,R52*%
X114050000Y-71927500D03*
X114050000Y-70277500D03*
%TD*%
D11*
%TO.C,C66*%
X95400000Y-54475000D03*
X95400000Y-52925000D03*
%TD*%
D12*
%TO.C,R70*%
X87895000Y-99475000D03*
X87895000Y-101125000D03*
%TD*%
%TO.C,R25*%
X147175000Y-101775000D03*
X147175000Y-103425000D03*
%TD*%
D13*
%TO.C,Q3*%
X65275000Y-82312500D03*
X65275000Y-80412500D03*
X63400000Y-81362500D03*
%TD*%
D14*
%TO.C,D7*%
X155000000Y-101530000D03*
X155000000Y-97500000D03*
%TD*%
D15*
%TO.C,C46*%
X144900000Y-105925000D03*
X144900000Y-107475000D03*
%TD*%
D16*
%TO.C,RX1*%
X138161000Y-82893000D03*
%TD*%
D17*
%TO.C,IC1*%
X97425000Y-52400000D03*
X97425000Y-53050000D03*
X97425000Y-53700000D03*
X97425000Y-54350000D03*
X97425000Y-55000000D03*
X97425000Y-55650000D03*
X97425000Y-56300000D03*
X97425000Y-56950000D03*
X97425000Y-57600000D03*
X97425000Y-58250000D03*
X97425000Y-58900000D03*
X97425000Y-59550000D03*
X97425000Y-60200000D03*
X97425000Y-60850000D03*
X103150000Y-60850000D03*
X103150000Y-60200000D03*
X103150000Y-59550000D03*
X103150000Y-58900000D03*
X103150000Y-58250000D03*
X103150000Y-57600000D03*
X103150000Y-56950000D03*
X103150000Y-56300000D03*
X103150000Y-55650000D03*
X103150000Y-55000000D03*
X103150000Y-54350000D03*
X103150000Y-53700000D03*
X103150000Y-53050000D03*
X103150000Y-52400000D03*
D18*
X100287500Y-56625000D03*
%TD*%
D19*
%TO.C,C61*%
X125575000Y-82400000D03*
X124025000Y-82400000D03*
%TD*%
D20*
%TO.C,R64*%
X111225000Y-50200000D03*
X109575000Y-50200000D03*
%TD*%
D10*
%TO.C,R15*%
X80900000Y-80200000D03*
X80900000Y-78550000D03*
%TD*%
D20*
%TO.C,R56*%
X95625000Y-63100000D03*
X93975000Y-63100000D03*
%TD*%
D21*
%TO.C,R5*%
X59425000Y-93850000D03*
X61075000Y-93850000D03*
%TD*%
D22*
%TO.C,C50*%
X153500000Y-105850000D03*
X153500000Y-107750000D03*
%TD*%
D10*
%TO.C,R28*%
X116300000Y-109500000D03*
X116300000Y-107850000D03*
%TD*%
D23*
%TO.C,D1*%
X137025000Y-90467500D03*
X137025000Y-92042500D03*
%TD*%
D15*
%TO.C,C43*%
X78700000Y-90725000D03*
X78700000Y-92275000D03*
%TD*%
D21*
%TO.C,R21*%
X137625000Y-101650000D03*
X139275000Y-101650000D03*
%TD*%
D24*
%TO.C,D5*%
X115900000Y-84600000D03*
X111900000Y-84600000D03*
%TD*%
D25*
%TO.C,U12*%
X108530000Y-76002500D03*
X109180000Y-76002500D03*
X109830000Y-76002500D03*
X109830000Y-73802500D03*
X109180000Y-73802500D03*
X108530000Y-73802500D03*
%TD*%
D20*
%TO.C,R3*%
X69050000Y-82437500D03*
X67400000Y-82437500D03*
%TD*%
D26*
%TO.C,FB2*%
X119600000Y-86387500D03*
X119600000Y-84812500D03*
%TD*%
D19*
%TO.C,C86*%
X111202500Y-61450000D03*
X109652500Y-61450000D03*
%TD*%
D27*
%TO.C,C22*%
X101900000Y-81425000D03*
X101900000Y-84375000D03*
%TD*%
D12*
%TO.C,R17*%
X81625000Y-86425000D03*
X81625000Y-88075000D03*
%TD*%
%TO.C,R48*%
X122450000Y-72875000D03*
X122450000Y-74525000D03*
%TD*%
D28*
%TO.C,U2*%
X108262500Y-106975000D03*
X108262500Y-107925000D03*
X108262500Y-108875000D03*
X110537500Y-108875000D03*
X110537500Y-106975000D03*
%TD*%
D29*
%TO.C,C58*%
X134175000Y-109675000D03*
X134175000Y-106725000D03*
%TD*%
D12*
%TO.C,R24*%
X137025000Y-93730000D03*
X137025000Y-95380000D03*
%TD*%
D21*
%TO.C,R23*%
X140200000Y-96955000D03*
X141850000Y-96955000D03*
%TD*%
D30*
%TO.C,U4*%
X63137500Y-88415000D03*
X63137500Y-89685000D03*
X69512500Y-89685000D03*
X69512500Y-88415000D03*
%TD*%
D16*
%TO.C,TX1*%
X138112000Y-75591000D03*
%TD*%
D15*
%TO.C,C45*%
X143300000Y-105925000D03*
X143300000Y-107475000D03*
%TD*%
D30*
%TO.C,U6*%
X63012500Y-93840000D03*
X63012500Y-95110000D03*
X69387500Y-95110000D03*
X69387500Y-93840000D03*
%TD*%
%TO.C,U8*%
X61687500Y-51765000D03*
X61687500Y-53035000D03*
X68062500Y-53035000D03*
X68062500Y-51765000D03*
%TD*%
D15*
%TO.C,C13*%
X95000000Y-82025000D03*
X95000000Y-83575000D03*
%TD*%
D31*
%TO.C,C38*%
X99050000Y-106125000D03*
X102000000Y-106125000D03*
%TD*%
D19*
%TO.C,C85*%
X131700000Y-53200000D03*
X130150000Y-53200000D03*
%TD*%
D32*
%TO.C,SW2*%
X77550000Y-52475000D03*
X73400000Y-52475000D03*
%TD*%
D15*
%TO.C,C44*%
X74700000Y-86425000D03*
X74700000Y-87975000D03*
%TD*%
D33*
%TO.C,U5*%
X85437500Y-84345000D03*
X85437500Y-85615000D03*
X85437500Y-86885000D03*
X85437500Y-88155000D03*
X92612500Y-88155000D03*
X92612500Y-86885000D03*
X92612500Y-85615000D03*
X92612500Y-84345000D03*
%TD*%
D11*
%TO.C,C53*%
X143425000Y-97030000D03*
X143425000Y-95480000D03*
%TD*%
D34*
%TO.C,J6*%
X162150000Y-101945000D03*
D35*
X162150000Y-96865000D03*
%TD*%
D10*
%TO.C,R27*%
X59750000Y-53175000D03*
X59750000Y-51525000D03*
%TD*%
D36*
%TO.C,J4*%
X54400000Y-93140000D03*
D37*
X54400000Y-95680000D03*
X54400000Y-98220000D03*
X54400000Y-100760000D03*
X54400000Y-103300000D03*
X54400000Y-105840000D03*
%TD*%
D38*
%TO.C,D2*%
X153950000Y-73175000D03*
X153950000Y-77575000D03*
%TD*%
D12*
%TO.C,R67*%
X86370000Y-99475000D03*
X86370000Y-101125000D03*
%TD*%
D10*
%TO.C,R19*%
X150400000Y-100425000D03*
X150400000Y-98775000D03*
%TD*%
D39*
%TO.C,L5*%
X129100000Y-87600000D03*
X132100000Y-87600000D03*
%TD*%
D11*
%TO.C,C74*%
X109000000Y-67750000D03*
X109000000Y-66200000D03*
%TD*%
D12*
%TO.C,R50*%
X107300000Y-66150000D03*
X107300000Y-67800000D03*
%TD*%
%TO.C,R16*%
X74500000Y-78550000D03*
X74500000Y-80200000D03*
%TD*%
D30*
%TO.C,U7*%
X61912500Y-61465000D03*
X61912500Y-62735000D03*
X68287500Y-62735000D03*
X68287500Y-61465000D03*
%TD*%
D11*
%TO.C,C96*%
X80150000Y-59650000D03*
X80150000Y-58100000D03*
%TD*%
D21*
%TO.C,R60*%
X108375000Y-79300000D03*
X110025000Y-79300000D03*
%TD*%
D40*
%TO.C,Y4*%
X81850000Y-95200000D03*
X87350000Y-95200000D03*
X87350000Y-92000000D03*
X81850000Y-92000000D03*
%TD*%
D19*
%TO.C,C65*%
X130700000Y-94300000D03*
X129150000Y-94300000D03*
%TD*%
D20*
%TO.C,R39*%
X116100000Y-95275000D03*
X114450000Y-95275000D03*
%TD*%
D15*
%TO.C,C49*%
X155500000Y-105925000D03*
X155500000Y-107475000D03*
%TD*%
D11*
%TO.C,C20*%
X98200000Y-69475000D03*
X98200000Y-67925000D03*
%TD*%
D21*
%TO.C,R26*%
X67025000Y-59700000D03*
X68675000Y-59700000D03*
%TD*%
D36*
%TO.C,J3*%
X54400000Y-68540000D03*
D37*
X54400000Y-71080000D03*
X54400000Y-73620000D03*
X54400000Y-76160000D03*
X54400000Y-78700000D03*
X54400000Y-81240000D03*
X54400000Y-83780000D03*
X54400000Y-86320000D03*
X54400000Y-88860000D03*
%TD*%
D29*
%TO.C,C59*%
X118525000Y-109525000D03*
X118525000Y-106575000D03*
%TD*%
D41*
%TO.C,U15*%
X86100000Y-105425000D03*
X86900000Y-105425000D03*
D42*
X88050000Y-105425000D03*
X89050000Y-105425000D03*
X89550000Y-105425000D03*
X90550000Y-105425000D03*
D41*
X92500000Y-105425000D03*
X91700000Y-105425000D03*
D42*
X91050000Y-105425000D03*
X90050000Y-105425000D03*
X88550000Y-105425000D03*
X87550000Y-105425000D03*
D43*
X83680000Y-106575000D03*
X94920000Y-106575000D03*
D44*
X83680000Y-110575000D03*
X94920000Y-110575000D03*
%TD*%
D11*
%TO.C,C77*%
X121050000Y-54375000D03*
X121050000Y-52825000D03*
%TD*%
D21*
%TO.C,R33*%
X114450000Y-96800000D03*
X116100000Y-96800000D03*
%TD*%
%TO.C,R47*%
X129100000Y-95825000D03*
X130750000Y-95825000D03*
%TD*%
D13*
%TO.C,Q1*%
X65162500Y-72000000D03*
X65162500Y-70100000D03*
X63287500Y-71050000D03*
%TD*%
D21*
%TO.C,R46*%
X129100000Y-97375000D03*
X130750000Y-97375000D03*
%TD*%
D27*
%TO.C,C88*%
X99500000Y-81425000D03*
X99500000Y-84375000D03*
%TD*%
D21*
%TO.C,R29*%
X120775000Y-104275000D03*
X122425000Y-104275000D03*
%TD*%
D10*
%TO.C,R51*%
X105700000Y-67800000D03*
X105700000Y-66150000D03*
%TD*%
D19*
%TO.C,C73*%
X109975000Y-77500000D03*
X108425000Y-77500000D03*
%TD*%
D21*
%TO.C,R55*%
X85397500Y-82200000D03*
X87047500Y-82200000D03*
%TD*%
%TO.C,R38*%
X114450000Y-93750000D03*
X116100000Y-93750000D03*
%TD*%
D45*
%TO.C,C79*%
X110975000Y-71852500D03*
X112525000Y-71852500D03*
%TD*%
D11*
%TO.C,C75*%
X124255000Y-54375000D03*
X124255000Y-52825000D03*
%TD*%
D12*
%TO.C,R22*%
X148725000Y-98725000D03*
X148725000Y-100375000D03*
%TD*%
D46*
%TO.C,U3*%
X141118000Y-77495000D03*
X141118000Y-78765000D03*
X141118000Y-80035000D03*
X141118000Y-81305000D03*
X146068000Y-81305000D03*
X146068000Y-80035000D03*
X146068000Y-78765000D03*
X146068000Y-77495000D03*
%TD*%
D45*
%TO.C,C1*%
X111375000Y-96810000D03*
X112925000Y-96810000D03*
%TD*%
D20*
%TO.C,R65*%
X131750000Y-51400000D03*
X130100000Y-51400000D03*
%TD*%
D27*
%TO.C,C47*%
X146900000Y-106025000D03*
X146900000Y-108975000D03*
%TD*%
D31*
%TO.C,C9*%
X116825000Y-70100000D03*
X119775000Y-70100000D03*
%TD*%
D24*
%TO.C,D6*%
X132700000Y-83400000D03*
X128700000Y-83400000D03*
%TD*%
D45*
%TO.C,C81*%
X111225000Y-63975000D03*
X112775000Y-63975000D03*
%TD*%
D19*
%TO.C,C82*%
X111200000Y-56600000D03*
X109650000Y-56600000D03*
%TD*%
D47*
%TO.C,U13*%
X110850000Y-68175000D03*
X111800000Y-68175000D03*
X112750000Y-68175000D03*
X112750000Y-65900000D03*
X110850000Y-65900000D03*
%TD*%
D19*
%TO.C,C83*%
X111175000Y-55000000D03*
X109625000Y-55000000D03*
%TD*%
D48*
%TO.C,L1*%
X105200000Y-108975000D03*
X105200000Y-106675000D03*
%TD*%
D19*
%TO.C,C6*%
X120275000Y-80700000D03*
X118725000Y-80700000D03*
%TD*%
D16*
%TO.C,6V-1*%
X132800000Y-77300000D03*
%TD*%
D45*
%TO.C,C36*%
X99850000Y-110500000D03*
X101400000Y-110500000D03*
%TD*%
D10*
%TO.C,R14*%
X79300000Y-80200000D03*
X79300000Y-78550000D03*
%TD*%
D11*
%TO.C,C54*%
X140225000Y-95330000D03*
X140225000Y-93780000D03*
%TD*%
D12*
%TO.C,R18*%
X76350000Y-86425000D03*
X76350000Y-88075000D03*
%TD*%
D20*
%TO.C,R62*%
X111252500Y-58150000D03*
X109602500Y-58150000D03*
%TD*%
D21*
%TO.C,R61*%
X105500000Y-70500000D03*
X107150000Y-70500000D03*
%TD*%
D49*
%TO.C,C5*%
X115575000Y-81200000D03*
X112625000Y-81200000D03*
%TD*%
D50*
%TO.C,IC5*%
X123275000Y-106300000D03*
X123275000Y-106950000D03*
X123275000Y-107600000D03*
X123275000Y-108250000D03*
X123275000Y-108900000D03*
X123275000Y-109550000D03*
X123275000Y-110200000D03*
X123275000Y-110850000D03*
X129125000Y-110850000D03*
X129125000Y-110200000D03*
X129125000Y-109550000D03*
X129125000Y-108900000D03*
X129125000Y-108250000D03*
X129125000Y-107600000D03*
X129125000Y-106950000D03*
X129125000Y-106300000D03*
D51*
X126200000Y-108575000D03*
%TD*%
D15*
%TO.C,C70*%
X133180000Y-55325000D03*
X133180000Y-56875000D03*
%TD*%
D31*
%TO.C,C64*%
X123825000Y-70100000D03*
X126775000Y-70100000D03*
%TD*%
D52*
%TO.C,FB1*%
X134900000Y-95375000D03*
X134900000Y-92225000D03*
%TD*%
D31*
%TO.C,C39*%
X99050000Y-108500000D03*
X102000000Y-108500000D03*
%TD*%
D26*
%TO.C,FB3*%
X124800000Y-86287500D03*
X124800000Y-84712500D03*
%TD*%
D50*
%TO.C,U9*%
X119900000Y-91100000D03*
X119900000Y-91750000D03*
X119900000Y-92400000D03*
X119900000Y-93050000D03*
X119900000Y-93700000D03*
X119900000Y-94350000D03*
X119900000Y-95000000D03*
X119900000Y-95650000D03*
X119900000Y-96300000D03*
X119900000Y-96950000D03*
X125800000Y-96950000D03*
X125800000Y-96300000D03*
X125800000Y-95650000D03*
X125800000Y-95000000D03*
X125800000Y-94350000D03*
X125800000Y-93700000D03*
X125800000Y-93050000D03*
X125800000Y-92400000D03*
X125800000Y-91750000D03*
X125800000Y-91100000D03*
D53*
X122850000Y-94025000D03*
%TD*%
D45*
%TO.C,C80*%
X110980000Y-70277500D03*
X112530000Y-70277500D03*
%TD*%
D11*
%TO.C,C78*%
X122600000Y-54375000D03*
X122600000Y-52825000D03*
%TD*%
D54*
%TO.C,IC7*%
X144500000Y-102350000D03*
X143850000Y-102350000D03*
X143200000Y-102350000D03*
X142550000Y-102350000D03*
X141900000Y-102350000D03*
X144500000Y-101700000D03*
X143850000Y-101700000D03*
X143200000Y-101700000D03*
X142550000Y-101700000D03*
X141900000Y-101700000D03*
X144500000Y-101050000D03*
X143850000Y-101050000D03*
X143200000Y-101050000D03*
X142550000Y-101050000D03*
X141900000Y-101050000D03*
X144500000Y-100400000D03*
X143850000Y-100400000D03*
X143200000Y-100400000D03*
X142550000Y-100400000D03*
X141900000Y-100400000D03*
X144500000Y-99750000D03*
X143850000Y-99750000D03*
X143200000Y-99750000D03*
X142550000Y-99750000D03*
X141900000Y-99750000D03*
%TD*%
D11*
%TO.C,C51*%
X147600000Y-96875000D03*
X147600000Y-95325000D03*
%TD*%
D15*
%TO.C,C35*%
X112500000Y-107275000D03*
X112500000Y-108825000D03*
%TD*%
D21*
%TO.C,R31*%
X66800000Y-49975000D03*
X68450000Y-49975000D03*
%TD*%
D12*
%TO.C,R69*%
X89420000Y-99475000D03*
X89420000Y-101125000D03*
%TD*%
D38*
%TO.C,D3*%
X153975000Y-85250000D03*
X153975000Y-80850000D03*
%TD*%
D55*
%TO.C,C15*%
X85719208Y-66671208D03*
X84623192Y-65575192D03*
%TD*%
D21*
%TO.C,R35*%
X124475000Y-98825000D03*
X126125000Y-98825000D03*
%TD*%
D19*
%TO.C,C63*%
X124875000Y-68000000D03*
X123325000Y-68000000D03*
%TD*%
D45*
%TO.C,C26*%
X98525000Y-76000000D03*
X100075000Y-76000000D03*
%TD*%
D13*
%TO.C,Q2*%
X65225000Y-77250000D03*
X65225000Y-75350000D03*
X63350000Y-76300000D03*
%TD*%
D16*
%TO.C,6V+1*%
X115248000Y-77949000D03*
%TD*%
%TO.C,A5V+1*%
X131774000Y-62910000D03*
%TD*%
D45*
%TO.C,C95*%
X90950000Y-82175000D03*
X92500000Y-82175000D03*
%TD*%
D56*
%TO.C,J2*%
X66100000Y-105200000D03*
X73600000Y-105200000D03*
D57*
X61700000Y-105200000D03*
D58*
X77700000Y-105200000D03*
%TD*%
D19*
%TO.C,C89*%
X93375000Y-102700000D03*
X91825000Y-102700000D03*
%TD*%
D15*
%TO.C,C67*%
X92200000Y-53825000D03*
X92200000Y-55375000D03*
%TD*%
D59*
%TO.C,U1*%
X85750030Y-69950030D03*
X85750030Y-70300040D03*
X85750030Y-70650050D03*
X85750030Y-71000060D03*
X85750030Y-71349820D03*
X85750030Y-71699830D03*
X85750030Y-72049850D03*
X85750030Y-72399860D03*
X85750030Y-72749870D03*
X85750030Y-73099880D03*
X85750030Y-73449890D03*
X85750030Y-73799910D03*
X85750030Y-74149920D03*
X85750030Y-74499930D03*
X85750030Y-74849940D03*
X85750030Y-75199950D03*
X85750030Y-75549970D03*
X85750030Y-75899980D03*
X85750030Y-76249990D03*
X85750030Y-76600000D03*
X85750030Y-76950010D03*
X85750030Y-77300030D03*
X85750030Y-77650040D03*
X85750030Y-78000050D03*
X85750030Y-78349810D03*
X85750030Y-78699820D03*
D60*
X86375130Y-79324970D03*
X86725140Y-79324970D03*
D61*
X87074900Y-79324910D03*
X87425160Y-79324910D03*
X87774670Y-79324910D03*
X88124930Y-79324910D03*
X88474950Y-79324910D03*
X88824700Y-79324910D03*
X89174970Y-79324910D03*
X89524980Y-79324910D03*
X89874740Y-79324910D03*
X90225010Y-79324910D03*
X90575020Y-79324910D03*
X90924780Y-79324910D03*
X91275040Y-79324910D03*
X91625060Y-79324910D03*
X91974810Y-79324910D03*
X92325080Y-79324910D03*
X92675090Y-79324910D03*
X93025100Y-79324910D03*
X93375120Y-79324910D03*
X93725130Y-79324910D03*
X94075140Y-79324910D03*
X94425150Y-79324910D03*
X94774910Y-79324910D03*
X95124670Y-79324910D03*
D59*
X95750020Y-78699820D03*
X95750020Y-78349810D03*
X95750020Y-77999800D03*
X95750020Y-77649780D03*
X95750020Y-77300030D03*
X95750020Y-76950010D03*
X95750020Y-76600000D03*
X95750020Y-76249990D03*
X95750020Y-75899980D03*
X95750020Y-75549970D03*
X95750020Y-75199950D03*
X95750020Y-74849940D03*
X95750020Y-74499930D03*
X95750020Y-74149920D03*
X95750020Y-73799910D03*
X95750020Y-73449890D03*
X95750020Y-73099880D03*
X95750020Y-72749870D03*
X95750020Y-72399860D03*
X95750020Y-72049850D03*
X95750020Y-71699830D03*
X95750020Y-71349820D03*
X95750020Y-70999810D03*
X95750020Y-70649800D03*
X95750020Y-70300040D03*
X95750020Y-69950030D03*
D60*
X95124920Y-69324930D03*
X94774910Y-69324930D03*
D61*
X94424900Y-69324930D03*
X94074890Y-69324930D03*
X93725130Y-69324930D03*
X93375120Y-69324930D03*
X93025100Y-69324930D03*
X92675090Y-69324930D03*
X92325080Y-69324930D03*
X91975070Y-69324930D03*
X91625060Y-69324930D03*
X91275040Y-69324930D03*
X90925030Y-69324930D03*
X90575020Y-69324930D03*
X90225010Y-69324930D03*
X89874990Y-69324930D03*
X89524980Y-69324930D03*
X89174970Y-69324930D03*
X88824960Y-69324930D03*
X88474950Y-69324930D03*
X88124930Y-69324930D03*
X87774920Y-69324930D03*
X87424910Y-69324930D03*
X87074900Y-69324930D03*
X86725140Y-69324930D03*
X86375130Y-69324930D03*
D62*
X90750030Y-74324920D03*
%TD*%
D11*
%TO.C,C76*%
X125800000Y-54375000D03*
X125800000Y-52825000D03*
%TD*%
D16*
%TO.C,RE1*%
X137985000Y-79169000D03*
%TD*%
D12*
%TO.C,R68*%
X90960000Y-99475000D03*
X90960000Y-101125000D03*
%TD*%
D63*
%TO.C,J5*%
X52160000Y-59150000D03*
X52160000Y-61690000D03*
X52160000Y-64230000D03*
D36*
X54700000Y-59150000D03*
D37*
X54700000Y-61690000D03*
X54700000Y-64230000D03*
%TD*%
D21*
%TO.C,R37*%
X114425000Y-92200000D03*
X116075000Y-92200000D03*
%TD*%
D45*
%TO.C,C40*%
X144825000Y-75625000D03*
X146375000Y-75625000D03*
%TD*%
D10*
%TO.C,R11*%
X150725000Y-80125000D03*
X150725000Y-78475000D03*
%TD*%
%TO.C,R30*%
X116300000Y-106300000D03*
X116300000Y-104650000D03*
%TD*%
D16*
%TO.C,5V1*%
X135846000Y-98009000D03*
%TD*%
D12*
%TO.C,R58*%
X81700000Y-58050000D03*
X81700000Y-59700000D03*
%TD*%
D10*
%TO.C,R8*%
X59975000Y-62850000D03*
X59975000Y-61200000D03*
%TD*%
%TO.C,R13*%
X77700000Y-80200000D03*
X77700000Y-78550000D03*
%TD*%
D63*
%TO.C,J7*%
X52160000Y-49650000D03*
X52160000Y-52190000D03*
X52160000Y-54730000D03*
D36*
X54700000Y-49650000D03*
D37*
X54700000Y-52190000D03*
X54700000Y-54730000D03*
%TD*%
D64*
%TO.C,U14*%
X131500000Y-55000000D03*
X130550000Y-55000000D03*
X129600000Y-55000000D03*
X129600000Y-57275000D03*
X131500000Y-57275000D03*
%TD*%
D16*
%TO.C,3V3*%
X146102000Y-71967000D03*
%TD*%
D12*
%TO.C,R7*%
X71425000Y-93650000D03*
X71425000Y-95300000D03*
%TD*%
D15*
%TO.C,C41*%
X76350000Y-83325000D03*
X76350000Y-84875000D03*
%TD*%
D29*
%TO.C,C57*%
X131550000Y-109575000D03*
X131550000Y-106625000D03*
%TD*%
D11*
%TO.C,C42*%
X78700000Y-96075000D03*
X78700000Y-94525000D03*
%TD*%
%TO.C,C69*%
X93800000Y-55375000D03*
X93800000Y-53825000D03*
%TD*%
D19*
%TO.C,C8*%
X118175000Y-68000000D03*
X116625000Y-68000000D03*
%TD*%
D11*
%TO.C,C56*%
X147175000Y-100300000D03*
X147175000Y-98750000D03*
%TD*%
D29*
%TO.C,C16*%
X100500000Y-70075000D03*
X100500000Y-67125000D03*
%TD*%
D65*
%TO.C,C14*%
X90248192Y-66596208D03*
X91344208Y-65500192D03*
%TD*%
D26*
%TO.C,FB4*%
X122100000Y-84287500D03*
X122100000Y-82712500D03*
%TD*%
D15*
%TO.C,C68*%
X105525000Y-58050000D03*
X105525000Y-59600000D03*
%TD*%
D34*
%TO.C,J1*%
X162150000Y-84475000D03*
D35*
X162150000Y-79395000D03*
X162150000Y-74315000D03*
%TD*%
D49*
%TO.C,C10*%
X132575000Y-80200000D03*
X129625000Y-80200000D03*
%TD*%
D66*
%TO.C,L2*%
X153875000Y-103800000D03*
X150725000Y-103800000D03*
%TD*%
D10*
%TO.C,R12*%
X76100000Y-80200000D03*
X76100000Y-78550000D03*
%TD*%
D12*
%TO.C,R49*%
X120937500Y-72875000D03*
X120937500Y-74525000D03*
%TD*%
D10*
%TO.C,R72*%
X150758000Y-83378000D03*
X150758000Y-81728000D03*
%TD*%
D19*
%TO.C,C84*%
X111175000Y-51800000D03*
X109625000Y-51800000D03*
%TD*%
D20*
%TO.C,R9*%
X106075000Y-104700000D03*
X104425000Y-104700000D03*
%TD*%
D11*
%TO.C,C18*%
X102700000Y-69475000D03*
X102700000Y-67925000D03*
%TD*%
D47*
%TO.C,U10*%
X117425000Y-74762500D03*
X118375000Y-74762500D03*
X119325000Y-74762500D03*
X119325000Y-72487500D03*
X117425000Y-72487500D03*
%TD*%
D10*
%TO.C,R59*%
X80150000Y-53150000D03*
X80150000Y-51500000D03*
%TD*%
D67*
%TO.C,Y3*%
X86742342Y-63271423D03*
X88297977Y-64827058D03*
X89500058Y-63624977D03*
X87944423Y-62069342D03*
%TD*%
D29*
%TO.C,C52*%
X145525000Y-97030000D03*
X145525000Y-94080000D03*
%TD*%
D45*
%TO.C,C3*%
X129125000Y-100525000D03*
X130675000Y-100525000D03*
%TD*%
D20*
%TO.C,R36*%
X130725000Y-98900000D03*
X129075000Y-98900000D03*
%TD*%
D19*
%TO.C,C7*%
X120275000Y-82400000D03*
X118725000Y-82400000D03*
%TD*%
D29*
%TO.C,C60*%
X120900000Y-109525000D03*
X120900000Y-106575000D03*
%TD*%
D21*
%TO.C,R4*%
X59575000Y-88575000D03*
X61225000Y-88575000D03*
%TD*%
D27*
%TO.C,C21*%
X104300000Y-81425000D03*
X104300000Y-84375000D03*
%TD*%
D68*
%TO.C,D4*%
X125587500Y-104275000D03*
X124012500Y-104275000D03*
%TD*%
D21*
%TO.C,R34*%
X114450000Y-98350000D03*
X116100000Y-98350000D03*
%TD*%
D31*
%TO.C,C11*%
X123425000Y-78600000D03*
X126375000Y-78600000D03*
%TD*%
D16*
%TO.C,A5V-1*%
X112888000Y-45936000D03*
%TD*%
D20*
%TO.C,R10*%
X109625000Y-104700000D03*
X107975000Y-104700000D03*
%TD*%
D31*
%TO.C,C4*%
X118025000Y-78600000D03*
X120975000Y-78600000D03*
%TD*%
D20*
%TO.C,R66*%
X111252500Y-59850000D03*
X109602500Y-59850000D03*
%TD*%
D69*
%TO.C,IC8*%
X77975000Y-87800000D03*
X78475000Y-87800000D03*
X78975000Y-87800000D03*
X79475000Y-87800000D03*
X79975000Y-87800000D03*
X79975000Y-83400000D03*
X79475000Y-83400000D03*
X78975000Y-83400000D03*
X78475000Y-83400000D03*
X77975000Y-83400000D03*
%TD*%
D21*
%TO.C,R32*%
X114450000Y-99925000D03*
X116100000Y-99925000D03*
%TD*%
D12*
%TO.C,R6*%
X71700000Y-88375000D03*
X71700000Y-90025000D03*
%TD*%
%TO.C,R1*%
X67162500Y-70275000D03*
X67162500Y-71925000D03*
%TD*%
D15*
%TO.C,C48*%
X157050000Y-105925000D03*
X157050000Y-107475000D03*
%TD*%
D19*
%TO.C,C62*%
X125575000Y-80700000D03*
X124025000Y-80700000D03*
%TD*%
D56*
%TO.C,JP1*%
X148673000Y-79201000D03*
X148673000Y-81741000D03*
%TD*%
D20*
%TO.C,R42*%
X121325000Y-68000000D03*
X119675000Y-68000000D03*
%TD*%
D70*
%TO.C,J8*%
X129780000Y-47000000D03*
D37*
X127240000Y-47000000D03*
X124700000Y-47000000D03*
X122160000Y-47000000D03*
X119620000Y-47000000D03*
X117080000Y-47000000D03*
%TD*%
D27*
%TO.C,C12*%
X97100000Y-81425000D03*
X97100000Y-84375000D03*
%TD*%
D20*
%TO.C,R57*%
X100925000Y-71800000D03*
X99275000Y-71800000D03*
%TD*%
D10*
%TO.C,R20*%
X150400000Y-96925000D03*
X150400000Y-95275000D03*
%TD*%
D12*
%TO.C,R2*%
X67162500Y-75420000D03*
X67162500Y-77070000D03*
%TD*%
D31*
%TO.C,C37*%
X99050000Y-103725000D03*
X102000000Y-103725000D03*
%TD*%
D20*
%TO.C,R54*%
X100925000Y-73400000D03*
X99275000Y-73400000D03*
%TD*%
D16*
%TO.C,12V1*%
X161683000Y-106723000D03*
%TD*%
D39*
%TO.C,L4*%
X112700000Y-88800000D03*
X115700000Y-88800000D03*
%TD*%
D20*
%TO.C,R45*%
X128025000Y-68000000D03*
X126375000Y-68000000D03*
%TD*%
D11*
%TO.C,C55*%
X138625000Y-95330000D03*
X138625000Y-93780000D03*
%TD*%
D20*
%TO.C,R63*%
X111225000Y-53400000D03*
X109575000Y-53400000D03*
%TD*%
D47*
%TO.C,U11*%
X124100000Y-74837500D03*
X125050000Y-74837500D03*
X126000000Y-74837500D03*
X126000000Y-72562500D03*
X124100000Y-72562500D03*
%TD*%
D32*
%TO.C,SW1*%
X77525000Y-58600000D03*
X73375000Y-58600000D03*
%TD*%
D19*
%TO.C,C2*%
X130700000Y-92775000D03*
X129150000Y-92775000D03*
%TD*%
D10*
%TO.C,R73*%
X150744000Y-76801000D03*
X150744000Y-75151000D03*
%TD*%
D26*
%TO.C,D9*%
X94100000Y-66287500D03*
X94100000Y-64712500D03*
%TD*%
D21*
%TO.C,R53*%
X105500000Y-72100000D03*
X107150000Y-72100000D03*
%TD*%
M02*
