G04 #@! TF.GenerationSoftware,KiCad,Pcbnew,9.0.3*
G04 #@! TF.CreationDate,2025-11-17T14:21:09+08:00*
G04 #@! TF.ProjectId,thermocouple_new,74686572-6d6f-4636-9f75-706c655f6e65,rev?*
G04 #@! TF.SameCoordinates,Original*
G04 #@! TF.FileFunction,Copper,L4,Bot*
G04 #@! TF.FilePolarity,Positive*
%FSLAX46Y46*%
G04 Gerber Fmt 4.6, Leading zero omitted, Abs format (unit mm)*
G04 Created by KiCad (PCBNEW 9.0.3) date 2025-11-17 14:21:09*
%MOMM*%
%LPD*%
G01*
G04 APERTURE LIST*
G04 Aperture macros list*
%AMRoundRect*
0 Rectangle with rounded corners*
0 $1 Rounding radius*
0 $2 $3 $4 $5 $6 $7 $8 $9 X,Y pos of 4 corners*
0 Add a 4 corners polygon primitive as box body*
4,1,4,$2,$3,$4,$5,$6,$7,$8,$9,$2,$3,0*
0 Add four circle primitives for the rounded corners*
1,1,$1+$1,$2,$3*
1,1,$1+$1,$4,$5*
1,1,$1+$1,$6,$7*
1,1,$1+$1,$8,$9*
0 Add four rect primitives between the rounded corners*
20,1,$1+$1,$2,$3,$4,$5,0*
20,1,$1+$1,$4,$5,$6,$7,0*
20,1,$1+$1,$6,$7,$8,$9,0*
20,1,$1+$1,$8,$9,$2,$3,0*%
G04 Aperture macros list end*
G04 #@! TA.AperFunction,ComponentPad*
%ADD10RoundRect,0.250000X1.050000X-1.050000X1.050000X1.050000X-1.050000X1.050000X-1.050000X-1.050000X0*%
G04 #@! TD*
G04 #@! TA.AperFunction,ComponentPad*
%ADD11C,2.600000*%
G04 #@! TD*
G04 #@! TA.AperFunction,ComponentPad*
%ADD12C,2.000000*%
G04 #@! TD*
G04 #@! TA.AperFunction,ComponentPad*
%ADD13C,2.280000*%
G04 #@! TD*
G04 #@! TA.AperFunction,ComponentPad*
%ADD14C,2.850000*%
G04 #@! TD*
G04 #@! TA.AperFunction,ComponentPad*
%ADD15R,1.416000X1.416000*%
G04 #@! TD*
G04 #@! TA.AperFunction,ComponentPad*
%ADD16C,1.416000*%
G04 #@! TD*
G04 #@! TA.AperFunction,ComponentPad*
%ADD17RoundRect,0.250000X1.050000X1.050000X-1.050000X1.050000X-1.050000X-1.050000X1.050000X-1.050000X0*%
G04 #@! TD*
G04 #@! TA.AperFunction,ComponentPad*
%ADD18RoundRect,0.250000X-1.050000X1.050000X-1.050000X-1.050000X1.050000X-1.050000X1.050000X1.050000X0*%
G04 #@! TD*
G04 #@! TA.AperFunction,ComponentPad*
%ADD19C,1.400000*%
G04 #@! TD*
G04 #@! TA.AperFunction,ComponentPad*
%ADD20R,1.950000X1.950000*%
G04 #@! TD*
G04 #@! TA.AperFunction,ComponentPad*
%ADD21C,1.950000*%
G04 #@! TD*
G04 #@! TA.AperFunction,SMDPad,CuDef*
%ADD22RoundRect,0.225000X0.225000X0.250000X-0.225000X0.250000X-0.225000X-0.250000X0.225000X-0.250000X0*%
G04 #@! TD*
G04 #@! TA.AperFunction,SMDPad,CuDef*
%ADD23RoundRect,0.225000X-0.225000X-0.250000X0.225000X-0.250000X0.225000X0.250000X-0.225000X0.250000X0*%
G04 #@! TD*
G04 #@! TA.AperFunction,SMDPad,CuDef*
%ADD24RoundRect,0.200000X-0.200000X-0.275000X0.200000X-0.275000X0.200000X0.275000X-0.200000X0.275000X0*%
G04 #@! TD*
G04 #@! TA.AperFunction,SMDPad,CuDef*
%ADD25RoundRect,0.200000X0.275000X-0.200000X0.275000X0.200000X-0.275000X0.200000X-0.275000X-0.200000X0*%
G04 #@! TD*
G04 #@! TA.AperFunction,SMDPad,CuDef*
%ADD26RoundRect,0.200000X-0.275000X0.200000X-0.275000X-0.200000X0.275000X-0.200000X0.275000X0.200000X0*%
G04 #@! TD*
G04 #@! TA.AperFunction,SMDPad,CuDef*
%ADD27RoundRect,0.225000X-0.250000X0.225000X-0.250000X-0.225000X0.250000X-0.225000X0.250000X0.225000X0*%
G04 #@! TD*
G04 #@! TA.AperFunction,SMDPad,CuDef*
%ADD28R,1.350000X1.800000*%
G04 #@! TD*
G04 #@! TA.AperFunction,SMDPad,CuDef*
%ADD29RoundRect,0.200000X0.200000X0.275000X-0.200000X0.275000X-0.200000X-0.275000X0.200000X-0.275000X0*%
G04 #@! TD*
G04 #@! TA.AperFunction,ViaPad*
%ADD30C,3.500000*%
G04 #@! TD*
G04 #@! TA.AperFunction,ViaPad*
%ADD31C,0.250000*%
G04 #@! TD*
G04 #@! TA.AperFunction,ViaPad*
%ADD32C,0.600000*%
G04 #@! TD*
G04 #@! TA.AperFunction,ViaPad*
%ADD33C,0.609600*%
G04 #@! TD*
G04 #@! TA.AperFunction,ViaPad*
%ADD34C,0.406400*%
G04 #@! TD*
G04 #@! TA.AperFunction,ViaPad*
%ADD35C,0.300000*%
G04 #@! TD*
G04 #@! TA.AperFunction,ViaPad*
%ADD36C,0.508000*%
G04 #@! TD*
G04 #@! TA.AperFunction,ViaPad*
%ADD37C,0.457200*%
G04 #@! TD*
G04 #@! TA.AperFunction,Conductor*
%ADD38C,0.550000*%
G04 #@! TD*
G04 #@! TA.AperFunction,Conductor*
%ADD39C,0.381000*%
G04 #@! TD*
G04 #@! TA.AperFunction,Conductor*
%ADD40C,0.254000*%
G04 #@! TD*
G04 #@! TA.AperFunction,Conductor*
%ADD41C,0.200000*%
G04 #@! TD*
G04 #@! TA.AperFunction,Conductor*
%ADD42C,0.304800*%
G04 #@! TD*
G04 #@! TA.AperFunction,Conductor*
%ADD43C,0.152400*%
G04 #@! TD*
G04 #@! TA.AperFunction,Conductor*
%ADD44C,0.700000*%
G04 #@! TD*
G04 #@! TA.AperFunction,Conductor*
%ADD45C,0.101600*%
G04 #@! TD*
G04 #@! TA.AperFunction,Conductor*
%ADD46C,0.158000*%
G04 #@! TD*
G04 APERTURE END LIST*
D10*
G04 #@! TO.P,J7,1,Pin_1*
G04 #@! TO.N,GND*
X170009000Y-39154000D03*
D11*
G04 #@! TO.P,J7,2,Pin_2*
G04 #@! TO.N,/LOAD*
X170009000Y-34074000D03*
G04 #@! TD*
D12*
G04 #@! TO.P,TP10,1,1*
G04 #@! TO.N,/ADC_VIN0*
X93556000Y-56095000D03*
G04 #@! TD*
G04 #@! TO.P,TP1,1,1*
G04 #@! TO.N,SYS_LOAD*
X112512000Y-24698000D03*
G04 #@! TD*
D13*
G04 #@! TO.P,U4,MH1,MH1*
G04 #@! TO.N,GND*
X122342500Y-83320000D03*
G04 #@! TO.P,U4,MH2,MH2*
X133582500Y-83320000D03*
D14*
G04 #@! TO.P,U4,MH3,MH3*
X122342500Y-87320000D03*
G04 #@! TO.P,U4,MH4,MH4*
X133582500Y-87320000D03*
G04 #@! TD*
D10*
G04 #@! TO.P,J1,1,Pin_1*
G04 #@! TO.N,GND*
X169381000Y-79902000D03*
D11*
G04 #@! TO.P,J1,2,Pin_2*
G04 #@! TO.N,/RS485_P*
X169381000Y-74822000D03*
G04 #@! TO.P,J1,3,Pin_3*
G04 #@! TO.N,/RS485_N*
X169381000Y-69742000D03*
G04 #@! TD*
D12*
G04 #@! TO.P,3V3,1,1*
G04 #@! TO.N,VCC_3V3*
X145156000Y-84295000D03*
G04 #@! TD*
G04 #@! TO.P,TP11,1,1*
G04 #@! TO.N,/control*
X140356000Y-44595000D03*
G04 #@! TD*
G04 #@! TO.P,TP7,1,1*
G04 #@! TO.N,/RS485_TX*
X132756000Y-69995000D03*
G04 #@! TD*
D15*
G04 #@! TO.P,RT1,1*
G04 #@! TO.N,GND*
X155575000Y-56740000D03*
D16*
G04 #@! TO.P,RT1,2*
G04 #@! TO.N,Net-(IC3-TS)*
X155575000Y-54200000D03*
G04 #@! TD*
D12*
G04 #@! TO.P,TP8,1,1*
G04 #@! TO.N,/RS485_RE*
X140156000Y-74495000D03*
G04 #@! TD*
G04 #@! TO.P,TP9,1,1*
G04 #@! TO.N,/RS485_RX*
X136556000Y-76895000D03*
G04 #@! TD*
D10*
G04 #@! TO.P,J4,1,Pin_1*
G04 #@! TO.N,GND*
X169642000Y-63209000D03*
D11*
G04 #@! TO.P,J4,2,Pin_2*
G04 #@! TO.N,/BATP*
X169642000Y-58129000D03*
G04 #@! TD*
D17*
G04 #@! TO.P,J8,1,Pin_1*
G04 #@! TO.N,GND*
X123632000Y-28304000D03*
D11*
G04 #@! TO.P,J8,2,Pin_2*
G04 #@! TO.N,SYS_LOAD*
X118552000Y-28304000D03*
G04 #@! TD*
D18*
G04 #@! TO.P,J3,1,Pin_1*
G04 #@! TO.N,Net-(J3-Pin_1)*
X81483500Y-47050000D03*
D11*
G04 #@! TO.P,J3,2,Pin_2*
G04 #@! TO.N,Net-(J3-Pin_2)*
X81483500Y-52130000D03*
G04 #@! TD*
D19*
G04 #@! TO.P,JP1,1,A*
G04 #@! TO.N,Net-(JP1-A)*
X153156000Y-75945000D03*
G04 #@! TO.P,JP1,2,B*
G04 #@! TO.N,/RS485_P*
X153156000Y-78485000D03*
G04 #@! TD*
D12*
G04 #@! TO.P,V5A1,1,1*
G04 #@! TO.N,AVDD_5V0*
X86289000Y-28785000D03*
G04 #@! TD*
G04 #@! TO.P,5V1,1,1*
G04 #@! TO.N,5V*
X157056000Y-60095000D03*
G04 #@! TD*
D10*
G04 #@! TO.P,J5,1,Pin_1*
G04 #@! TO.N,GND*
X169658000Y-51344000D03*
D11*
G04 #@! TO.P,J5,2,Pin_2*
G04 #@! TO.N,/Vin*
X169658000Y-46264000D03*
G04 #@! TD*
D20*
G04 #@! TO.P,K1,1,1*
G04 #@! TO.N,Net-(D7-K)*
X145987000Y-33195000D03*
D21*
G04 #@! TO.P,K1,2,2*
G04 #@! TO.N,5V*
X145987000Y-25595000D03*
G04 #@! TO.P,K1,3,3*
G04 #@! TO.N,/LOAD*
X160487000Y-25595000D03*
G04 #@! TO.P,K1,4,4*
G04 #@! TO.N,Net-(D13-K)*
X157987000Y-33195000D03*
G04 #@! TD*
D18*
G04 #@! TO.P,J6,1,Pin_1*
G04 #@! TO.N,AGND*
X81583500Y-35050000D03*
D11*
G04 #@! TO.P,J6,2,Pin_2*
G04 #@! TO.N,Net-(J3-Pin_1)*
X81583500Y-40130000D03*
G04 #@! TD*
D22*
G04 #@! TO.P,C26,1*
G04 #@! TO.N,VCC_3V3*
X121031000Y-62995000D03*
G04 #@! TO.P,C26,2*
G04 #@! TO.N,GND*
X119481000Y-62995000D03*
G04 #@! TD*
D23*
G04 #@! TO.P,C79,1*
G04 #@! TO.N,Net-(IC3-SYS_1)*
X156006000Y-40495000D03*
G04 #@! TO.P,C79,2*
G04 #@! TO.N,GND*
X157556000Y-40495000D03*
G04 #@! TD*
D24*
G04 #@! TO.P,R42,1*
G04 #@! TO.N,Net-(IC3-PROG)*
X154231000Y-50195000D03*
G04 #@! TO.P,R42,2*
G04 #@! TO.N,GND*
X155881000Y-50195000D03*
G04 #@! TD*
D25*
G04 #@! TO.P,R55,1*
G04 #@! TO.N,/FLASH_CS*
X114456000Y-71620000D03*
G04 #@! TO.P,R55,2*
G04 #@! TO.N,ESP_LDO_VO1*
X114456000Y-69970000D03*
G04 #@! TD*
D22*
G04 #@! TO.P,C75,1*
G04 #@! TO.N,Net-(IC3-PMID_1)*
X146275000Y-44425000D03*
G04 #@! TO.P,C75,2*
G04 #@! TO.N,GND*
X144725000Y-44425000D03*
G04 #@! TD*
D26*
G04 #@! TO.P,R43,1*
G04 #@! TO.N,GND*
X146256000Y-47495000D03*
G04 #@! TO.P,R43,2*
G04 #@! TO.N,Net-(IC3-ILIM_HIZ)*
X146256000Y-49145000D03*
G04 #@! TD*
D22*
G04 #@! TO.P,C77,1*
G04 #@! TO.N,Net-(IC3-PMID_1)*
X146125000Y-41150000D03*
G04 #@! TO.P,C77,2*
G04 #@! TO.N,GND*
X144575000Y-41150000D03*
G04 #@! TD*
D27*
G04 #@! TO.P,C24,1*
G04 #@! TO.N,VCC_3V3*
X114556000Y-57220000D03*
G04 #@! TO.P,C24,2*
G04 #@! TO.N,GND*
X114556000Y-58770000D03*
G04 #@! TD*
D23*
G04 #@! TO.P,C29,1*
G04 #@! TO.N,VCC_3V3*
X111381000Y-61995000D03*
G04 #@! TO.P,C29,2*
G04 #@! TO.N,GND*
X112931000Y-61995000D03*
G04 #@! TD*
D22*
G04 #@! TO.P,C76,1*
G04 #@! TO.N,Net-(IC3-PMID_1)*
X146275000Y-45975000D03*
G04 #@! TO.P,C76,2*
G04 #@! TO.N,GND*
X144725000Y-45975000D03*
G04 #@! TD*
D27*
G04 #@! TO.P,C91,1*
G04 #@! TO.N,ESP_LDO_VO1*
X112856000Y-70020000D03*
G04 #@! TO.P,C91,2*
G04 #@! TO.N,GND*
X112856000Y-71570000D03*
G04 #@! TD*
G04 #@! TO.P,C13,1*
G04 #@! TO.N,VCC_3V3*
X120156000Y-68720000D03*
G04 #@! TO.P,C13,2*
G04 #@! TO.N,GND*
X120156000Y-70270000D03*
G04 #@! TD*
D25*
G04 #@! TO.P,R46,1*
G04 #@! TO.N,GND*
X152556000Y-54120000D03*
G04 #@! TO.P,R46,2*
G04 #@! TO.N,Net-(IC3-BATN)*
X152556000Y-52470000D03*
G04 #@! TD*
D23*
G04 #@! TO.P,C28,1*
G04 #@! TO.N,VCC_3V3*
X111381000Y-60395000D03*
G04 #@! TO.P,C28,2*
G04 #@! TO.N,GND*
X112931000Y-60395000D03*
G04 #@! TD*
D27*
G04 #@! TO.P,C16,1*
G04 #@! TO.N,VCC_3V3*
X111356000Y-57220000D03*
G04 #@! TO.P,C16,2*
G04 #@! TO.N,GND*
X111356000Y-58770000D03*
G04 #@! TD*
D26*
G04 #@! TO.P,R44,1*
G04 #@! TO.N,REGN*
X144700000Y-47450000D03*
G04 #@! TO.P,R44,2*
G04 #@! TO.N,Net-(IC3-ILIM_HIZ)*
X144700000Y-49100000D03*
G04 #@! TD*
D22*
G04 #@! TO.P,C30,1*
G04 #@! TO.N,ESP_VDD_HP*
X120956000Y-65795000D03*
G04 #@! TO.P,C30,2*
G04 #@! TO.N,GND*
X119406000Y-65795000D03*
G04 #@! TD*
D23*
G04 #@! TO.P,C80,1*
G04 #@! TO.N,Net-(IC3-SYS_1)*
X155981000Y-42095000D03*
G04 #@! TO.P,C80,2*
G04 #@! TO.N,GND*
X157531000Y-42095000D03*
G04 #@! TD*
G04 #@! TO.P,C23,1*
G04 #@! TO.N,VCC_3V3*
X112281000Y-64395000D03*
G04 #@! TO.P,C23,2*
G04 #@! TO.N,GND*
X113831000Y-64395000D03*
G04 #@! TD*
D26*
G04 #@! TO.P,R51,1*
G04 #@! TO.N,/BQ_CE*
X149375000Y-52450000D03*
G04 #@! TO.P,R51,2*
G04 #@! TO.N,VCC_3V3*
X149375000Y-54100000D03*
G04 #@! TD*
D27*
G04 #@! TO.P,C12,1*
G04 #@! TO.N,VCC_3V3*
X121756000Y-68720000D03*
G04 #@! TO.P,C12,2*
G04 #@! TO.N,GND*
X121756000Y-70270000D03*
G04 #@! TD*
D22*
G04 #@! TO.P,C85,1*
G04 #@! TO.N,GND*
X155831000Y-51795000D03*
G04 #@! TO.P,C85,2*
G04 #@! TO.N,Net-(IC3-SDRV)*
X154281000Y-51795000D03*
G04 #@! TD*
D27*
G04 #@! TO.P,C17,1*
G04 #@! TO.N,VCC_3V3*
X112956000Y-57220000D03*
G04 #@! TO.P,C17,2*
G04 #@! TO.N,GND*
X112956000Y-58770000D03*
G04 #@! TD*
D28*
G04 #@! TO.P,SW3,1,A*
G04 #@! TO.N,GND*
X138500000Y-50150000D03*
G04 #@! TO.P,SW3,2,B*
G04 #@! TO.N,/BQ_QON*
X142650000Y-50150000D03*
G04 #@! TD*
D22*
G04 #@! TO.P,C25,1*
G04 #@! TO.N,ESP_LDO_VO1*
X120531000Y-60395000D03*
G04 #@! TO.P,C25,2*
G04 #@! TO.N,GND*
X118981000Y-60395000D03*
G04 #@! TD*
D27*
G04 #@! TO.P,C31,1*
G04 #@! TO.N,ESP_VDD_HP*
X116356000Y-57220000D03*
G04 #@! TO.P,C31,2*
G04 #@! TO.N,GND*
X116356000Y-58770000D03*
G04 #@! TD*
G04 #@! TO.P,C27,1*
G04 #@! TO.N,VCC_3V3*
X118356000Y-57220000D03*
G04 #@! TO.P,C27,2*
G04 #@! TO.N,GND*
X118356000Y-58770000D03*
G04 #@! TD*
D29*
G04 #@! TO.P,R16,1*
G04 #@! TO.N,/RTC_MFP*
X105280000Y-74300000D03*
G04 #@! TO.P,R16,2*
G04 #@! TO.N,VCC_3V3*
X103630000Y-74300000D03*
G04 #@! TD*
D23*
G04 #@! TO.P,C83,1*
G04 #@! TO.N,Net-(IC3-SYS_1)*
X155981000Y-43695000D03*
G04 #@! TO.P,C83,2*
G04 #@! TO.N,GND*
X157531000Y-43695000D03*
G04 #@! TD*
D27*
G04 #@! TO.P,C88,1*
G04 #@! TO.N,VCC_3V3*
X118556000Y-68720000D03*
G04 #@! TO.P,C88,2*
G04 #@! TO.N,GND*
X118556000Y-70270000D03*
G04 #@! TD*
D26*
G04 #@! TO.P,R50,1*
G04 #@! TO.N,/BQ_INT*
X150875000Y-52450000D03*
G04 #@! TO.P,R50,2*
G04 #@! TO.N,VCC_3V3*
X150875000Y-54100000D03*
G04 #@! TD*
D22*
G04 #@! TO.P,C78,1*
G04 #@! TO.N,Net-(IC3-PMID_1)*
X146225000Y-42850000D03*
G04 #@! TO.P,C78,2*
G04 #@! TO.N,GND*
X144675000Y-42850000D03*
G04 #@! TD*
D30*
G04 #@! TO.N,*
X80000000Y-27000000D03*
X171000000Y-86000000D03*
X171000000Y-27000000D03*
X80000000Y-86000000D03*
D31*
G04 #@! TO.N,GND*
X149820000Y-48120000D03*
D32*
X113256000Y-72895000D03*
X149856000Y-65695000D03*
D33*
X128225000Y-39550000D03*
D32*
X118340000Y-39208000D03*
D33*
X121831000Y-76395000D03*
D32*
X110256000Y-70595000D03*
D34*
X144200000Y-48275000D03*
D32*
X145031000Y-59920000D03*
D34*
X114325000Y-62050000D03*
D35*
X149881798Y-46509881D03*
D32*
X125956000Y-49095000D03*
X128356000Y-25797000D03*
X146056000Y-66995000D03*
D33*
X128325000Y-36525000D03*
D34*
X147825933Y-51241015D03*
X115150000Y-63000000D03*
D32*
X138156000Y-41395000D03*
D36*
X109376000Y-78875000D03*
D32*
X92156000Y-67895000D03*
X139281000Y-34947000D03*
X114544000Y-36764000D03*
D31*
X149820000Y-48520000D03*
D34*
X115225000Y-62075000D03*
D32*
X152456000Y-65695000D03*
D34*
X106256000Y-72895000D03*
D32*
X120956000Y-37895000D03*
D33*
X136256000Y-50195000D03*
D34*
X116225000Y-61025000D03*
D35*
X149939000Y-46026000D03*
D36*
X168093000Y-24472000D03*
D32*
X112456000Y-48095000D03*
X149556000Y-78195000D03*
X137276000Y-23741000D03*
X126751000Y-55320000D03*
X122939000Y-70367000D03*
D34*
X115275000Y-61025000D03*
D32*
X157556000Y-70995000D03*
X134756000Y-61395000D03*
X134056000Y-64495000D03*
X149256000Y-62195000D03*
D34*
X113300000Y-62050000D03*
D32*
X148656000Y-65695000D03*
X131156000Y-81195000D03*
X153456000Y-59895000D03*
D34*
X156180000Y-49267000D03*
D32*
X127676000Y-24417000D03*
X114342000Y-34284000D03*
X153756000Y-54095000D03*
D33*
X127756000Y-61250000D03*
D32*
X138156000Y-43395000D03*
X118556000Y-71395000D03*
D34*
X117225000Y-61050000D03*
D32*
X130956000Y-48995000D03*
X129656000Y-48995000D03*
D33*
X138956000Y-68845000D03*
D32*
X124756000Y-81095000D03*
D31*
X149820000Y-47720000D03*
D32*
X123556000Y-55320000D03*
X115556000Y-38095000D03*
X122295000Y-37276000D03*
D33*
X87075000Y-84025000D03*
D32*
X153956000Y-65695000D03*
X143347000Y-36581000D03*
X158518000Y-43643000D03*
D33*
X134200000Y-33125000D03*
D32*
X125156000Y-55320000D03*
X101156000Y-55195000D03*
D34*
X105150000Y-50850000D03*
X116175000Y-62075000D03*
D32*
X129556000Y-65095000D03*
D33*
X92125000Y-78875000D03*
X96175000Y-78375000D03*
D35*
X149833000Y-47013000D03*
D32*
X131056000Y-74195000D03*
X119613000Y-70952000D03*
X119406000Y-64495000D03*
X145583000Y-58662000D03*
X115862000Y-36753000D03*
X129956000Y-25820000D03*
D33*
X116956000Y-46395000D03*
D32*
X110556000Y-50879000D03*
X132456000Y-64395000D03*
X160356000Y-83295000D03*
X151056000Y-65695000D03*
X100856000Y-59495000D03*
X99556000Y-55195000D03*
X138156000Y-44295000D03*
X105756000Y-61095000D03*
X101356000Y-67995000D03*
X153556000Y-68195000D03*
D33*
X137375000Y-37975000D03*
D32*
X118158000Y-62995000D03*
X125056000Y-75195000D03*
D33*
X143756000Y-41195000D03*
D32*
X137756000Y-64395000D03*
X122261000Y-36298000D03*
X138156000Y-42295000D03*
X135856000Y-64095000D03*
D34*
X155259000Y-48464000D03*
D31*
G04 #@! TO.N,/BQ_QON*
X149420000Y-50120000D03*
D34*
X138358000Y-54457000D03*
D32*
G04 #@! TO.N,/BOOT_GPIO35*
X120956000Y-45395000D03*
X130956000Y-58195000D03*
G04 #@! TO.N,AVDD_5V0*
X90006000Y-31183000D03*
X88911000Y-30380000D03*
X88874000Y-31242000D03*
D37*
X109956000Y-38695000D03*
D32*
X90029000Y-30356000D03*
D37*
X96356000Y-42195000D03*
D33*
X93656000Y-47195000D03*
D34*
G04 #@! TO.N,/ADC_DOUT*
X108549970Y-60849970D03*
X106856000Y-46740000D03*
D32*
G04 #@! TO.N,/ADC_DIN*
X106956000Y-54995000D03*
D34*
X107361000Y-46090000D03*
D32*
G04 #@! TO.N,/ADC_SCLK*
X105356000Y-56195000D03*
X107256000Y-44595000D03*
G04 #@! TO.N,/ADC_DADY*
X108256000Y-50541000D03*
X108156000Y-47395000D03*
G04 #@! TO.N,5V*
X144623000Y-27330000D03*
X126456000Y-41895000D03*
X126456000Y-41195000D03*
X154756000Y-61395000D03*
X156556000Y-61395000D03*
X155656000Y-61395000D03*
X127956000Y-41895000D03*
X127256000Y-41895000D03*
X142846000Y-27323000D03*
X157456000Y-61395000D03*
X143712000Y-27338000D03*
X144633000Y-26457000D03*
X143709000Y-26441000D03*
X127956000Y-41195000D03*
X127256000Y-41195000D03*
X153956000Y-61395000D03*
X142857000Y-26409000D03*
G04 #@! TO.N,VCC_3V3*
X133440000Y-57040000D03*
D37*
X112456000Y-46495000D03*
D33*
X112669390Y-55944790D03*
D37*
X111756000Y-42595000D03*
X155256000Y-72495000D03*
D32*
X99356000Y-51395000D03*
X101256000Y-51395000D03*
X134408000Y-57111000D03*
D33*
X149375000Y-54861415D03*
D32*
X132402000Y-57032000D03*
D36*
X108881000Y-59706000D03*
D32*
X100256000Y-51395000D03*
D37*
X111756000Y-44195000D03*
X111856000Y-48995000D03*
D32*
X148456000Y-71195000D03*
X145856000Y-71195000D03*
D33*
X110350000Y-64375000D03*
D37*
X111756000Y-47395000D03*
D33*
X127025000Y-69375000D03*
D37*
X111756000Y-45795000D03*
X121856000Y-55295000D03*
D33*
X118125000Y-55825000D03*
X147800000Y-55125000D03*
D32*
X130082000Y-55270000D03*
D33*
X127637500Y-63712500D03*
D32*
X144856000Y-71195000D03*
D37*
X131556000Y-51295000D03*
D33*
X120125000Y-67500000D03*
X102275000Y-72825000D03*
D32*
X125806000Y-57945000D03*
X135337000Y-57126000D03*
D37*
X156456000Y-83495000D03*
D32*
X147356000Y-71195000D03*
D33*
X122302240Y-63267498D03*
X146056000Y-55295000D03*
X114556000Y-55795000D03*
D32*
G04 #@! TO.N,VREF_2V5*
X90856000Y-39495000D03*
D33*
X93656000Y-53595000D03*
D32*
G04 #@! TO.N,AGND*
X92056000Y-44995000D03*
X95856000Y-40495000D03*
X101256000Y-32195000D03*
X97756000Y-31995000D03*
X109256000Y-33195000D03*
D33*
X87950000Y-52090000D03*
D32*
X96556000Y-48095000D03*
X98256000Y-33395000D03*
X100556000Y-25295000D03*
X107656000Y-33195000D03*
X95356000Y-54995000D03*
X106106000Y-31645000D03*
X96301000Y-46740000D03*
X102256000Y-25295000D03*
X102031000Y-29370000D03*
X110756000Y-33195000D03*
D33*
X99800000Y-44150000D03*
D32*
X102656000Y-32195000D03*
X99056000Y-25295000D03*
X98556000Y-39295000D03*
X96556000Y-33395000D03*
X96656000Y-38095000D03*
X106156000Y-27095000D03*
G04 #@! TO.N,Net-(D14-K)*
X157349000Y-47129000D03*
X158735000Y-53044000D03*
X157621000Y-54385000D03*
X153859000Y-47722000D03*
X158701000Y-54374000D03*
X154958000Y-47495000D03*
X152195000Y-47667000D03*
X158292000Y-47122000D03*
X157655000Y-53033000D03*
D31*
G04 #@! TO.N,/BQ_CE*
X149820000Y-50120000D03*
D33*
X142450000Y-53950000D03*
D34*
G04 #@! TO.N,Net-(IC3-BTST2)*
X152338500Y-48356500D03*
D36*
X153909000Y-44354000D03*
D34*
G04 #@! TO.N,Net-(D6-K)*
X146173000Y-50339000D03*
D31*
X148262000Y-50098000D03*
G04 #@! TO.N,Net-(IC3-PROG)*
X150220000Y-49720000D03*
G04 #@! TO.N,Net-(IC3-PMID_1)*
X149016000Y-49339000D03*
D36*
X148239300Y-46662700D03*
D31*
X149024133Y-48113982D03*
D34*
X146943000Y-43603000D03*
X146991000Y-40708000D03*
D31*
X149020641Y-48526637D03*
X149020969Y-47715348D03*
D34*
G04 #@! TO.N,Net-(IC3-TS)*
X151517000Y-50649000D03*
X152283000Y-50205000D03*
D31*
G04 #@! TO.N,Net-(IC3-ILIM_HIZ)*
X149820000Y-49720000D03*
G04 #@! TO.N,Net-(IC3-SW2_1)*
X150220000Y-48120000D03*
D36*
X151386000Y-41863000D03*
D31*
X150219275Y-48526080D03*
X150983000Y-46182000D03*
X150220000Y-47720000D03*
D36*
X151356000Y-40558000D03*
X151407000Y-43048000D03*
G04 #@! TO.N,Net-(IC3-BTST1)*
X148476000Y-46047000D03*
X148111600Y-48426546D03*
G04 #@! TO.N,Net-(IC3-SW1_1)*
X149660000Y-42996000D03*
D31*
X149420000Y-48116463D03*
X149420000Y-47713611D03*
D36*
X149652000Y-40585000D03*
D31*
X149420000Y-48515097D03*
D36*
X149697000Y-41687000D03*
G04 #@! TO.N,REGN*
X153675000Y-48972200D03*
D32*
X143456000Y-46295000D03*
D36*
X147812000Y-49210800D03*
D31*
G04 #@! TO.N,Net-(IC3-BATN)*
X150620000Y-50120000D03*
D32*
G04 #@! TO.N,/BQ_IBAT*
X122498000Y-52725000D03*
D33*
X120456000Y-52795000D03*
G04 #@! TO.N,/BQ_INT*
X140076000Y-53395000D03*
D31*
X150220000Y-50120000D03*
G04 #@! TO.N,Net-(IC3-SDRV)*
X150620000Y-49720000D03*
D34*
G04 #@! TO.N,/BQ_IIC_SDA*
X148432100Y-55998100D03*
X110056000Y-54695000D03*
G04 #@! TO.N,/BQ_IIC_SCL*
X109556000Y-55195000D03*
X147099500Y-56800500D03*
G04 #@! TO.N,Net-(IC7-VOUT_1)*
X132475000Y-40925000D03*
X132150000Y-38900000D03*
D33*
G04 #@! TO.N,ESP_LDO_VO3*
X117125000Y-68225000D03*
D34*
X122625000Y-59175000D03*
D32*
G04 #@! TO.N,/FLASH_CS*
X109456000Y-73895000D03*
D37*
G04 #@! TO.N,ESP_LDO_VO1*
X115343200Y-70595000D03*
D34*
X121800000Y-60150000D03*
D33*
X113088000Y-69248000D03*
D37*
G04 #@! TO.N,/FB_DCDC*
X143506000Y-67920000D03*
X121556000Y-56695000D03*
D34*
G04 #@! TO.N,ESP_VDD_HP*
X121790000Y-58132000D03*
D32*
X133256000Y-67070000D03*
X134856000Y-67070000D03*
X135506000Y-67995000D03*
D33*
X122086000Y-66153000D03*
D34*
X110400000Y-66275000D03*
D32*
X136856000Y-67070000D03*
D34*
X116400914Y-55895000D03*
G04 #@! TO.N,/RTC_MFP*
X108800000Y-73150000D03*
X106225000Y-73475000D03*
D32*
G04 #@! TO.N,/control*
X140072000Y-41295000D03*
D34*
X108883000Y-54695000D03*
D37*
G04 #@! TO.N,/EN_DCDC*
X121207000Y-56105000D03*
X138856000Y-67895000D03*
D34*
G04 #@! TO.N,/FLASH_D*
X116525000Y-69800000D03*
X116693500Y-78582500D03*
G04 #@! TO.N,/FLASH_CK*
X115750000Y-69695000D03*
X115856000Y-77420000D03*
G04 #@! TO.N,/RS485_RE*
X129175500Y-71475500D03*
G04 #@! TO.N,ESP_LDO_VO2*
X122756000Y-61199990D03*
D33*
X122200000Y-64000000D03*
D34*
X122400000Y-59950000D03*
D32*
G04 #@! TO.N,Net-(IC3-SYS_1)*
X134556000Y-29895000D03*
X154756000Y-39395000D03*
X133756000Y-28995000D03*
X154756000Y-38695000D03*
X133756000Y-29895000D03*
X155756000Y-38695000D03*
X155756000Y-39395000D03*
D31*
X152539000Y-46503000D03*
X151615000Y-46698000D03*
X150621384Y-47723042D03*
X150623493Y-48522419D03*
X150619275Y-48121676D03*
X152117000Y-46593000D03*
D32*
X134556000Y-28995000D03*
G04 #@! TD*
D38*
G04 #@! TO.N,GND*
X118356000Y-58770000D02*
X118356000Y-59770000D01*
D39*
X144725000Y-45975000D02*
X144725000Y-44425000D01*
D38*
X111356000Y-58770000D02*
X112956000Y-58770000D01*
D40*
X153731000Y-54120000D02*
X153756000Y-54095000D01*
D39*
X144675000Y-42850000D02*
X144675000Y-44375000D01*
D38*
X112931000Y-61681000D02*
X113300000Y-62050000D01*
X112931000Y-60395000D02*
X112931000Y-61681000D01*
D39*
X157531000Y-42095000D02*
X157531000Y-43695000D01*
D41*
X118556000Y-70270000D02*
X118556000Y-71395000D01*
X120156000Y-70270000D02*
X120156000Y-70409000D01*
D38*
X118356000Y-59770000D02*
X118981000Y-60395000D01*
X112956000Y-58770000D02*
X114556000Y-58770000D01*
D40*
X115150000Y-63076000D02*
X113831000Y-64395000D01*
D38*
X112931000Y-60395000D02*
X112931000Y-58795000D01*
D40*
X155881000Y-50195000D02*
X155881000Y-49589000D01*
D41*
X121756000Y-70270000D02*
X122842000Y-70270000D01*
D39*
X143756000Y-41195000D02*
X144530000Y-41195000D01*
D40*
X155881000Y-49589000D02*
X156175000Y-49295000D01*
D39*
X144575000Y-41150000D02*
X144575000Y-42750000D01*
D40*
X119481000Y-62995000D02*
X118158000Y-62995000D01*
D41*
X120156000Y-70409000D02*
X119613000Y-70952000D01*
D39*
X157556000Y-40495000D02*
X157556000Y-42070000D01*
D42*
X145400000Y-48275000D02*
X144200000Y-48275000D01*
D39*
X136256000Y-50195000D02*
X138080000Y-50195000D01*
D41*
X112856000Y-71570000D02*
X112856000Y-72495000D01*
D39*
X158466000Y-43695000D02*
X157531000Y-43695000D01*
D40*
X115150000Y-63000000D02*
X115150000Y-63076000D01*
D41*
X122842000Y-70270000D02*
X122939000Y-70367000D01*
D40*
X152556000Y-54120000D02*
X153731000Y-54120000D01*
X155831000Y-51795000D02*
X155831000Y-50245000D01*
D38*
X114556000Y-58770000D02*
X116356000Y-58770000D01*
D39*
X158518000Y-43643000D02*
X158466000Y-43695000D01*
D41*
X112856000Y-72495000D02*
X113256000Y-72895000D01*
D42*
X146175000Y-47500000D02*
X145400000Y-48275000D01*
D38*
X118356000Y-58770000D02*
X116356000Y-58770000D01*
D40*
X119406000Y-64495000D02*
X119406000Y-65795000D01*
D43*
G04 #@! TO.N,/BQ_QON*
X141586000Y-50150000D02*
X142650000Y-50150000D01*
X148083000Y-51719000D02*
X145939000Y-51719000D01*
X149420000Y-50120000D02*
X149420000Y-50382000D01*
X138358000Y-54406000D02*
X138756000Y-54008000D01*
X138756000Y-52980000D02*
X141586000Y-50150000D01*
X149420000Y-50382000D02*
X148083000Y-51719000D01*
X138358000Y-54457000D02*
X138358000Y-54406000D01*
X138756000Y-54008000D02*
X138756000Y-52980000D01*
X144370000Y-50150000D02*
X142650000Y-50150000D01*
X145939000Y-51719000D02*
X144370000Y-50150000D01*
G04 #@! TO.N,/BOOT_GPIO35*
X127956000Y-54995000D02*
X127456000Y-54495000D01*
X128956000Y-58195000D02*
X127956000Y-57195000D01*
X110156000Y-49895000D02*
X119056000Y-49895000D01*
X127956000Y-57195000D02*
X127956000Y-54995000D01*
X110056000Y-56095000D02*
X108356000Y-56095000D01*
X107956000Y-55695000D02*
X107956000Y-52095000D01*
X120956000Y-47995000D02*
X120956000Y-45395000D01*
X127456000Y-54495000D02*
X111656000Y-54495000D01*
X111656000Y-54495000D02*
X110056000Y-56095000D01*
X130956000Y-58195000D02*
X128956000Y-58195000D01*
X107956000Y-52095000D02*
X110156000Y-49895000D01*
X108356000Y-56095000D02*
X107956000Y-55695000D01*
X119056000Y-49895000D02*
X120956000Y-47995000D01*
G04 #@! TO.N,/ADC_DOUT*
X108156000Y-60456000D02*
X108549970Y-60849970D01*
X106056000Y-56195000D02*
X108156000Y-58295000D01*
X106456000Y-53695000D02*
X106056000Y-54095000D01*
X106856000Y-46740000D02*
X106811000Y-46740000D01*
X108156000Y-58295000D02*
X108156000Y-60456000D01*
X106811000Y-46740000D02*
X106456000Y-47095000D01*
X106056000Y-54095000D02*
X106056000Y-56195000D01*
X106456000Y-47095000D02*
X106456000Y-53695000D01*
G04 #@! TO.N,/ADC_DIN*
X107361000Y-50190000D02*
X106956000Y-50595000D01*
X107361000Y-46090000D02*
X107361000Y-50190000D01*
X106956000Y-50595000D02*
X106956000Y-54995000D01*
G04 #@! TO.N,/ADC_SCLK*
X105756000Y-44995000D02*
X106156000Y-44595000D01*
X106156000Y-44595000D02*
X107256000Y-44595000D01*
X105356000Y-52495000D02*
X105756000Y-52095000D01*
X105356000Y-56195000D02*
X105356000Y-52495000D01*
X105756000Y-52095000D02*
X105756000Y-44995000D01*
G04 #@! TO.N,/ADC_DADY*
X108256000Y-50473200D02*
X108156000Y-50373200D01*
X108156000Y-50373200D02*
X108156000Y-47395000D01*
X108256000Y-50541000D02*
X108256000Y-50473200D01*
D42*
G04 #@! TO.N,VCC_3V3*
X112669390Y-55944790D02*
X112324000Y-55944790D01*
D44*
X150371585Y-54861415D02*
X150875000Y-54358000D01*
X147800000Y-55125000D02*
X149111415Y-55125000D01*
D42*
X112669390Y-55944790D02*
X112956000Y-56231400D01*
X122265500Y-63040500D02*
X122220000Y-62995000D01*
X120156000Y-67531000D02*
X120125000Y-67500000D01*
D40*
X109501000Y-60395000D02*
X111381000Y-60395000D01*
D42*
X122302240Y-63267498D02*
X122302240Y-63109240D01*
D44*
X150875000Y-54358000D02*
X150875000Y-54100000D01*
X147630000Y-55295000D02*
X147800000Y-55125000D01*
D40*
X108881000Y-59775000D02*
X109501000Y-60395000D01*
D42*
X110370000Y-64395000D02*
X110350000Y-64375000D01*
X122265500Y-63072500D02*
X122265500Y-63040500D01*
X118356000Y-57220000D02*
X118356000Y-56056000D01*
D44*
X149375000Y-54861415D02*
X149375000Y-54100000D01*
X146056000Y-55295000D02*
X147630000Y-55295000D01*
D40*
X108881000Y-59706000D02*
X108881000Y-59775000D01*
D42*
X114556000Y-55795000D02*
X114556000Y-57220000D01*
X122302240Y-63109240D02*
X122265500Y-63072500D01*
D44*
X103630000Y-74180000D02*
X102275000Y-72825000D01*
D42*
X118556000Y-68720000D02*
X120156000Y-68720000D01*
D44*
X149111415Y-55125000D02*
X149375000Y-54861415D01*
D42*
X122220000Y-62995000D02*
X121031000Y-62995000D01*
X112956000Y-56231400D02*
X112956000Y-57220000D01*
X121756000Y-68720000D02*
X120156000Y-68720000D01*
X118356000Y-56056000D02*
X118125000Y-55825000D01*
X111356000Y-56912790D02*
X111356000Y-57220000D01*
X112324000Y-55944790D02*
X111356000Y-56912790D01*
X111381000Y-61995000D02*
X111381000Y-60395000D01*
X112281000Y-64395000D02*
X110370000Y-64395000D01*
D44*
X149375000Y-54861415D02*
X150371585Y-54861415D01*
D42*
X120156000Y-68720000D02*
X120156000Y-67531000D01*
D40*
G04 #@! TO.N,VREF_2V5*
X90856000Y-52295000D02*
X92156000Y-53595000D01*
X90856000Y-39495000D02*
X90856000Y-52295000D01*
X92156000Y-53595000D02*
X93656000Y-53595000D01*
D43*
G04 #@! TO.N,/BQ_CE*
X143805000Y-52595000D02*
X149270000Y-52595000D01*
X142450000Y-53950000D02*
X143805000Y-52595000D01*
X149820000Y-52005000D02*
X149820000Y-50120000D01*
X149375000Y-52450000D02*
X149820000Y-52005000D01*
D40*
G04 #@! TO.N,Net-(IC3-BTST2)*
X152610000Y-48085000D02*
X152610000Y-48065000D01*
X152338500Y-48356500D02*
X152610000Y-48085000D01*
X153909000Y-46766000D02*
X153909000Y-44354000D01*
X152610000Y-48065000D02*
X153909000Y-46766000D01*
D43*
G04 #@! TO.N,Net-(D6-K)*
X146667000Y-50833000D02*
X146173000Y-50339000D01*
X148262000Y-50274000D02*
X148129400Y-50406600D01*
X148129400Y-50406600D02*
X148111000Y-50406600D01*
X148262000Y-50098000D02*
X148262000Y-50274000D01*
X147684600Y-50833000D02*
X146667000Y-50833000D01*
X148111000Y-50406600D02*
X147684600Y-50833000D01*
D45*
G04 #@! TO.N,Net-(IC3-PROG)*
X153420000Y-49384000D02*
X154231000Y-50195000D01*
X150220000Y-49720000D02*
X150220000Y-49707000D01*
X150220000Y-49707000D02*
X150543000Y-49384000D01*
X150543000Y-49384000D02*
X153420000Y-49384000D01*
D42*
G04 #@! TO.N,Net-(IC3-PMID_1)*
X146279000Y-45979000D02*
X146275000Y-45975000D01*
X148239300Y-46662700D02*
X147555600Y-45979000D01*
X147555600Y-45979000D02*
X146279000Y-45979000D01*
D45*
G04 #@! TO.N,Net-(IC3-TS)*
X152283000Y-50205000D02*
X152257191Y-50230809D01*
X151517000Y-50649000D02*
X151517000Y-50521000D01*
X151517000Y-50521000D02*
X151514000Y-50518000D01*
X152257191Y-50230809D02*
X152257191Y-50257809D01*
D41*
X152283000Y-50205000D02*
X151968000Y-50520000D01*
X151968000Y-50520000D02*
X151646000Y-50520000D01*
X151646000Y-50520000D02*
X151517000Y-50649000D01*
D43*
G04 #@! TO.N,Net-(IC3-ILIM_HIZ)*
X149015000Y-49683000D02*
X149012000Y-49680000D01*
X149629748Y-49720000D02*
X149628748Y-49719000D01*
X149252000Y-49683000D02*
X149015000Y-49683000D01*
X147445362Y-49758000D02*
X146292000Y-49758000D01*
X147523362Y-49680000D02*
X147445362Y-49758000D01*
X146175000Y-49614000D02*
X146175000Y-49150000D01*
X146292000Y-49758000D02*
X146177000Y-49643000D01*
X146177000Y-49612000D02*
X146175000Y-49614000D01*
X149252000Y-49699561D02*
X149252000Y-49683000D01*
X149628748Y-49719000D02*
X149234000Y-49719000D01*
X149012000Y-49680000D02*
X147523362Y-49680000D01*
X144700000Y-49100000D02*
X146125000Y-49100000D01*
X149820000Y-49720000D02*
X149629748Y-49720000D01*
X146177000Y-49643000D02*
X146177000Y-49612000D01*
X149234000Y-49719000D02*
X149234000Y-49717561D01*
X149234000Y-49717561D02*
X149252000Y-49699561D01*
D42*
G04 #@! TO.N,Net-(IC3-BTST1)*
X148656000Y-47416000D02*
X148944000Y-47128000D01*
X148563000Y-47519000D02*
X148656000Y-47426000D01*
X148127454Y-48426546D02*
X148563000Y-47991000D01*
X148563000Y-47991000D02*
X148563000Y-47519000D01*
X148544000Y-46115000D02*
X148485000Y-46056000D01*
X148658000Y-46115000D02*
X148544000Y-46115000D01*
X148944000Y-47128000D02*
X148944000Y-46401000D01*
X148111600Y-48426546D02*
X148127454Y-48426546D01*
X148656000Y-47426000D02*
X148656000Y-47416000D01*
X148944000Y-46401000D02*
X148658000Y-46115000D01*
D40*
G04 #@! TO.N,REGN*
X148434800Y-48972200D02*
X148873311Y-48972200D01*
X146980000Y-46742000D02*
X145408000Y-46742000D01*
X149261408Y-48972200D02*
X149272954Y-48960654D01*
X150347560Y-48972200D02*
X153675000Y-48972200D01*
X148224000Y-49183000D02*
X148434800Y-48972200D01*
X147812000Y-49210800D02*
X147877735Y-49145065D01*
X149578592Y-48972200D02*
X149665754Y-48972200D01*
X149567046Y-48960654D02*
X149578592Y-48972200D01*
X150039640Y-48965000D02*
X150340360Y-48965000D01*
X148873311Y-48972200D02*
X148882251Y-48963260D01*
X147260000Y-48782776D02*
X147260000Y-47022000D01*
X147877735Y-49145065D02*
X147877735Y-49087661D01*
X150032440Y-48972200D02*
X150039640Y-48965000D01*
X149176343Y-48963260D02*
X149185283Y-48972200D01*
X149185283Y-48972200D02*
X149261408Y-48972200D01*
X145408000Y-46742000D02*
X144700000Y-47450000D01*
X144700000Y-47450000D02*
X143843000Y-47450000D01*
X149967046Y-48965000D02*
X149974246Y-48972200D01*
X143843000Y-47450000D02*
X143456000Y-47063000D01*
X149665754Y-48972200D02*
X149672954Y-48965000D01*
X147812000Y-49210800D02*
X147688024Y-49210800D01*
X149672954Y-48965000D02*
X149967046Y-48965000D01*
X149272954Y-48960654D02*
X149567046Y-48960654D01*
X148882251Y-48963260D02*
X149176343Y-48963260D01*
X147973074Y-49183000D02*
X148224000Y-49183000D01*
X149974246Y-48972200D02*
X150032440Y-48972200D01*
X150340360Y-48965000D02*
X150347560Y-48972200D01*
X147688024Y-49210800D02*
X147260000Y-48782776D01*
X143456000Y-47063000D02*
X143456000Y-46295000D01*
X147260000Y-47022000D02*
X146980000Y-46742000D01*
X147877735Y-49087661D02*
X147973074Y-49183000D01*
D46*
G04 #@! TO.N,Net-(IC3-BATN)*
X152177000Y-51316000D02*
X152556000Y-51695000D01*
X151649000Y-51316000D02*
X152177000Y-51316000D01*
D43*
X151495000Y-51301000D02*
X150620000Y-50426000D01*
X150620000Y-50426000D02*
X150620000Y-50120000D01*
D46*
X152556000Y-51695000D02*
X152556000Y-52470000D01*
X151634000Y-51301000D02*
X151649000Y-51316000D01*
D43*
X151634000Y-51301000D02*
X151495000Y-51301000D01*
G04 #@! TO.N,/BQ_IBAT*
X120526000Y-52725000D02*
X122498000Y-52725000D01*
X120456000Y-52795000D02*
X120526000Y-52725000D01*
G04 #@! TO.N,/BQ_INT*
X150233000Y-50133000D02*
X150233000Y-50532000D01*
X140076000Y-53395000D02*
X141516000Y-54835000D01*
X143216000Y-54835000D02*
X144856000Y-53195000D01*
X150130000Y-53195000D02*
X150875000Y-52450000D01*
D46*
X150233000Y-50963000D02*
X150233000Y-50532000D01*
D43*
X150220000Y-50120000D02*
X150233000Y-50133000D01*
D46*
X150875000Y-51605000D02*
X150233000Y-50963000D01*
X150875000Y-52450000D02*
X150875000Y-51605000D01*
D43*
X141516000Y-54835000D02*
X143216000Y-54835000D01*
X144856000Y-53195000D02*
X150130000Y-53195000D01*
D40*
G04 #@! TO.N,Net-(IC3-SDRV)*
X150620000Y-49720000D02*
X152086816Y-49720000D01*
X153310000Y-50436362D02*
X153310000Y-51573000D01*
X152088816Y-49718000D02*
X152591638Y-49718000D01*
X152086816Y-49720000D02*
X152088816Y-49718000D01*
X153310000Y-51573000D02*
X153320000Y-51573000D01*
X152591638Y-49718000D02*
X153310000Y-50436362D01*
X153542000Y-51795000D02*
X154281000Y-51795000D01*
X153320000Y-51573000D02*
X153542000Y-51795000D01*
D43*
G04 #@! TO.N,/BQ_IIC_SDA*
X148432100Y-55998100D02*
X148105200Y-56325000D01*
X148105200Y-56325000D02*
X137086000Y-56325000D01*
X110756000Y-53595000D02*
X110056000Y-54295000D01*
X134356000Y-53595000D02*
X110756000Y-53595000D01*
X137086000Y-56325000D02*
X134356000Y-53595000D01*
X110056000Y-54295000D02*
X110056000Y-54695000D01*
G04 #@! TO.N,/BQ_IIC_SCL*
X136956000Y-56795000D02*
X147094000Y-56795000D01*
X147094000Y-56795000D02*
X147099500Y-56800500D01*
X134256000Y-54095000D02*
X136956000Y-56795000D01*
X109556000Y-55195000D02*
X110156000Y-55195000D01*
X110156000Y-55195000D02*
X111256000Y-54095000D01*
X111256000Y-54095000D02*
X134256000Y-54095000D01*
G04 #@! TO.N,Net-(IC7-VOUT_1)*
X132475000Y-39225000D02*
X132150000Y-38900000D01*
X132475000Y-40925000D02*
X132475000Y-39225000D01*
D42*
G04 #@! TO.N,ESP_LDO_VO3*
X123856000Y-65695000D02*
X123856000Y-62795000D01*
X117125000Y-68225000D02*
X117326000Y-68225000D01*
X117326000Y-68225000D02*
X118756000Y-66795000D01*
X118756000Y-66795000D02*
X122756000Y-66795000D01*
X122756000Y-66795000D02*
X123856000Y-65695000D01*
X123256000Y-62195000D02*
X123256000Y-59806000D01*
X123856000Y-62795000D02*
X123256000Y-62195000D01*
X123256000Y-59806000D02*
X122625000Y-59175000D01*
D41*
G04 #@! TO.N,/FLASH_CS*
X114456000Y-73295000D02*
X113856000Y-73895000D01*
X113856000Y-73895000D02*
X109456000Y-73895000D01*
X114456000Y-71620000D02*
X114456000Y-73295000D01*
G04 #@! TO.N,ESP_LDO_VO1*
X120531000Y-60395000D02*
X121555000Y-60395000D01*
X113050000Y-68874000D02*
X113129000Y-68795000D01*
X114731000Y-69970000D02*
X115356000Y-70595000D01*
X112856000Y-69480000D02*
X112856000Y-70020000D01*
X113088000Y-69248000D02*
X113050000Y-69210000D01*
X115356000Y-70595000D02*
X115343200Y-70595000D01*
X113129000Y-68795000D02*
X115456000Y-68795000D01*
X115456000Y-68795000D02*
X117097000Y-67154000D01*
X121555000Y-60395000D02*
X121800000Y-60150000D01*
X114456000Y-69970000D02*
X112906000Y-69970000D01*
X118356000Y-61695000D02*
X120256000Y-61695000D01*
X117097000Y-62954000D02*
X118356000Y-61695000D01*
X120256000Y-61695000D02*
X120531000Y-61420000D01*
X120531000Y-61420000D02*
X120531000Y-60395000D01*
X113088000Y-69248000D02*
X112856000Y-69480000D01*
X117097000Y-67154000D02*
X117097000Y-62954000D01*
X113050000Y-69210000D02*
X113050000Y-68874000D01*
D45*
G04 #@! TO.N,/FB_DCDC*
X143556000Y-66695000D02*
X143556000Y-67870000D01*
X126856000Y-60595000D02*
X126856000Y-62495000D01*
X126856000Y-62495000D02*
X127556000Y-63195000D01*
X121556000Y-56695000D02*
X122956000Y-56695000D01*
X127556000Y-63195000D02*
X140056000Y-63195000D01*
X122956000Y-56695000D02*
X126856000Y-60595000D01*
X143556000Y-67870000D02*
X143506000Y-67920000D01*
X140056000Y-63195000D02*
X143556000Y-66695000D01*
D42*
G04 #@! TO.N,ESP_VDD_HP*
X116256000Y-56295000D02*
X116256000Y-56595000D01*
X122086000Y-66153000D02*
X122086000Y-65986000D01*
X121895000Y-65795000D02*
X120956000Y-65795000D01*
X122086000Y-65986000D02*
X121895000Y-65795000D01*
X116400914Y-55895000D02*
X116400914Y-56150086D01*
X116400914Y-56150086D02*
X116256000Y-56295000D01*
X116356000Y-56695000D02*
X116356000Y-57220000D01*
X116256000Y-56595000D02*
X116356000Y-56695000D01*
D43*
G04 #@! TO.N,/RTC_MFP*
X106125000Y-73475000D02*
X105300000Y-74300000D01*
X106775000Y-73475000D02*
X106850000Y-73400000D01*
X108625000Y-73400000D02*
X108800000Y-73225000D01*
X106850000Y-73400000D02*
X108625000Y-73400000D01*
X106225000Y-73475000D02*
X106125000Y-73475000D01*
X106225000Y-73475000D02*
X106775000Y-73475000D01*
G04 #@! TO.N,/control*
X140325000Y-44638000D02*
X140325000Y-41548000D01*
X134438000Y-50525000D02*
X140325000Y-44638000D01*
X108883000Y-53468000D02*
X111826000Y-50525000D01*
X108883000Y-54695000D02*
X108883000Y-53468000D01*
X111826000Y-50525000D02*
X134438000Y-50525000D01*
X140325000Y-41548000D02*
X140072000Y-41295000D01*
D45*
G04 #@! TO.N,/EN_DCDC*
X144656000Y-65995000D02*
X144656000Y-68995000D01*
X139956000Y-69095000D02*
X139956000Y-67995000D01*
X127256000Y-62295000D02*
X127756000Y-62795000D01*
X127756000Y-62795000D02*
X141456000Y-62795000D01*
X141456000Y-62795000D02*
X144656000Y-65995000D01*
X121217000Y-56095000D02*
X122956000Y-56095000D01*
X121207000Y-56105000D02*
X121217000Y-56095000D01*
X122956000Y-56095000D02*
X127256000Y-60395000D01*
X144056000Y-69595000D02*
X140456000Y-69595000D01*
X140456000Y-69595000D02*
X139956000Y-69095000D01*
X139856000Y-67895000D02*
X138856000Y-67895000D01*
X144656000Y-68995000D02*
X144056000Y-69595000D01*
X127256000Y-60395000D02*
X127256000Y-62295000D01*
X139956000Y-67995000D02*
X139856000Y-67895000D01*
D43*
G04 #@! TO.N,/FLASH_D*
X116656000Y-78545000D02*
X116693500Y-78582500D01*
X116656000Y-73970000D02*
X116656000Y-78545000D01*
X116525000Y-73839000D02*
X116656000Y-73970000D01*
X116525000Y-69800000D02*
X116525000Y-73839000D01*
G04 #@! TO.N,/FLASH_CK*
X115750000Y-69695000D02*
X115874000Y-69819000D01*
X115874000Y-77402000D02*
X115856000Y-77420000D01*
X115874000Y-69819000D02*
X115874000Y-77402000D01*
G04 #@! TO.N,/RS485_RE*
X139956000Y-74095000D02*
X139086000Y-73225000D01*
X130925000Y-73225000D02*
X129175500Y-71475500D01*
X139086000Y-73225000D02*
X130925000Y-73225000D01*
D40*
G04 #@! TO.N,ESP_LDO_VO2*
X122756000Y-60306000D02*
X122400000Y-59950000D01*
X122651000Y-64000000D02*
X123156000Y-63495000D01*
X122200000Y-64000000D02*
X122651000Y-64000000D01*
X122756000Y-61199990D02*
X122756000Y-60306000D01*
X122756000Y-62395000D02*
X122756000Y-61199990D01*
X123156000Y-62795000D02*
X122756000Y-62395000D01*
X123156000Y-63495000D02*
X123156000Y-62795000D01*
G04 #@! TD*
G04 #@! TA.AperFunction,Conductor*
G04 #@! TO.N,Net-(IC3-SW2_1)*
G36*
X153901598Y-37450616D02*
G01*
X153968077Y-37472116D01*
X154012379Y-37526144D01*
X154022167Y-37578388D01*
X153828440Y-43866702D01*
X153825001Y-43877204D01*
X153825883Y-43888222D01*
X153814322Y-43909822D01*
X153806701Y-43933104D01*
X153797267Y-43941691D01*
X153792915Y-43949825D01*
X153775242Y-43961742D01*
X153764839Y-43971213D01*
X153755686Y-43976311D01*
X153752869Y-43977066D01*
X153712835Y-44000179D01*
X153711928Y-44000685D01*
X153708722Y-44001410D01*
X153668458Y-44015203D01*
X152381000Y-44192000D01*
X152380999Y-44192001D01*
X152351348Y-45745941D01*
X152330388Y-45812592D01*
X152276721Y-45857332D01*
X152225928Y-45867567D01*
X151549587Y-45859693D01*
X151490000Y-45859000D01*
X151489999Y-45859000D01*
X151489998Y-45859000D01*
X150389000Y-46926998D01*
X150388999Y-46926999D01*
X150387000Y-47544712D01*
X150377562Y-47591764D01*
X150345884Y-47668240D01*
X150345884Y-47777840D01*
X150345885Y-47777845D01*
X150376413Y-47851548D01*
X150378069Y-47859948D01*
X150380941Y-47864448D01*
X150385851Y-47899399D01*
X150385716Y-47941352D01*
X150376278Y-47988405D01*
X150343776Y-48066872D01*
X150343775Y-48066877D01*
X150343775Y-48176478D01*
X150375117Y-48252142D01*
X150376774Y-48260545D01*
X150379646Y-48265046D01*
X150384555Y-48299997D01*
X150384375Y-48355518D01*
X150374937Y-48402568D01*
X150347994Y-48467615D01*
X150347993Y-48467620D01*
X150347993Y-48563500D01*
X150345442Y-48572185D01*
X150346731Y-48581147D01*
X150335752Y-48605187D01*
X150328308Y-48630539D01*
X150321467Y-48636466D01*
X150317706Y-48644703D01*
X150295471Y-48658992D01*
X150275504Y-48676294D01*
X150264989Y-48678581D01*
X150258928Y-48682477D01*
X150223993Y-48687500D01*
X150219500Y-48687500D01*
X150152461Y-48667815D01*
X150106706Y-48615011D01*
X150095500Y-48563500D01*
X150095500Y-48465201D01*
X150095500Y-48465200D01*
X150055010Y-48367451D01*
X150047542Y-48297985D01*
X150055009Y-48272552D01*
X150095500Y-48174800D01*
X150095500Y-48065200D01*
X150055010Y-47967451D01*
X150047542Y-47897985D01*
X150055009Y-47872552D01*
X150095500Y-47774800D01*
X150095500Y-47665200D01*
X150053557Y-47563942D01*
X150053555Y-47563940D01*
X150046772Y-47553788D01*
X150049088Y-47552239D01*
X150042877Y-47540864D01*
X150026240Y-47514553D01*
X150025484Y-47509012D01*
X150024305Y-47506852D01*
X150021474Y-47479589D01*
X150022756Y-47305315D01*
X150023024Y-47298040D01*
X150023501Y-47290872D01*
X150047590Y-47225292D01*
X150059537Y-47211433D01*
X150073460Y-47197511D01*
X150113021Y-47128989D01*
X150133500Y-47052562D01*
X150133500Y-46973438D01*
X150113021Y-46897011D01*
X150089811Y-46856811D01*
X150073339Y-46788912D01*
X150096191Y-46722885D01*
X150109509Y-46707140D01*
X150122258Y-46694392D01*
X150161819Y-46625870D01*
X150182298Y-46549443D01*
X150182298Y-46470319D01*
X150161819Y-46393892D01*
X150148726Y-46371215D01*
X150132256Y-46303316D01*
X150155108Y-46237289D01*
X150168425Y-46221545D01*
X150179460Y-46210511D01*
X150219021Y-46141989D01*
X150239500Y-46065562D01*
X150239500Y-45986438D01*
X150239500Y-45985100D01*
X150259185Y-45918061D01*
X150311989Y-45872306D01*
X150341813Y-45863011D01*
X150905000Y-45763000D01*
X150930792Y-44340751D01*
X150951689Y-44274080D01*
X151005314Y-44229290D01*
X151031273Y-44223889D01*
X151036180Y-44219000D01*
X151036181Y-44219000D01*
X151061746Y-37500318D01*
X151081685Y-37433355D01*
X151134663Y-37387801D01*
X151189115Y-37376837D01*
X153901598Y-37450616D01*
G37*
G04 #@! TD.AperFunction*
G04 #@! TD*
G04 #@! TA.AperFunction,Conductor*
G04 #@! TO.N,Net-(IC3-SYS_1)*
G36*
X156720137Y-38006775D02*
G01*
X156766859Y-38058725D01*
X156779035Y-38112275D01*
X156779488Y-39721968D01*
X156761027Y-39787100D01*
X156668998Y-39936300D01*
X156668996Y-39936305D01*
X156615651Y-40097290D01*
X156605500Y-40196647D01*
X156605500Y-40793337D01*
X156605501Y-40793355D01*
X156615650Y-40892707D01*
X156615651Y-40892710D01*
X156668996Y-41053694D01*
X156668999Y-41053701D01*
X156761462Y-41203604D01*
X156766158Y-41220153D01*
X156774891Y-41233734D01*
X156779924Y-41268667D01*
X156779931Y-41293658D01*
X156760265Y-41360703D01*
X156743615Y-41381371D01*
X156733030Y-41391956D01*
X156644001Y-41536294D01*
X156643996Y-41536305D01*
X156590651Y-41697290D01*
X156580500Y-41796647D01*
X156580500Y-42393337D01*
X156580501Y-42393355D01*
X156590650Y-42492707D01*
X156590651Y-42492710D01*
X156643996Y-42653694D01*
X156644001Y-42653705D01*
X156733029Y-42798040D01*
X156733032Y-42798044D01*
X156742306Y-42807318D01*
X156775791Y-42868641D01*
X156770807Y-42938333D01*
X156742309Y-42982677D01*
X156733030Y-42991956D01*
X156644001Y-43136294D01*
X156643996Y-43136305D01*
X156590651Y-43297290D01*
X156580500Y-43396647D01*
X156580500Y-43993337D01*
X156580501Y-43993355D01*
X156590650Y-44092707D01*
X156590651Y-44092710D01*
X156643996Y-44253694D01*
X156644001Y-44253705D01*
X156733029Y-44398040D01*
X156733032Y-44398044D01*
X156744514Y-44409526D01*
X156777999Y-44470849D01*
X156780833Y-44497172D01*
X156780964Y-44962560D01*
X156761298Y-45029605D01*
X156708507Y-45075375D01*
X156656560Y-45086594D01*
X154756688Y-45080400D01*
X154689713Y-45060497D01*
X154644130Y-45007544D01*
X154633095Y-44957317D01*
X154630509Y-44606563D01*
X154634318Y-44580255D01*
X154633317Y-44580056D01*
X154663499Y-44428316D01*
X154663500Y-44428313D01*
X154663500Y-44279687D01*
X154663499Y-44279683D01*
X154634506Y-44133927D01*
X154634505Y-44133920D01*
X154634500Y-44133909D01*
X154632737Y-44128093D01*
X154634084Y-44127684D01*
X154626711Y-44091351D01*
X154582908Y-38149199D01*
X154602098Y-38082017D01*
X154654563Y-38035874D01*
X154704609Y-38024308D01*
X156652746Y-37988331D01*
X156720137Y-38006775D01*
G37*
G04 #@! TD.AperFunction*
G04 #@! TD*
G04 #@! TA.AperFunction,Conductor*
G04 #@! TO.N,Net-(IC3-SW1_1)*
G36*
X149976791Y-37673966D02*
G01*
X150043552Y-37694570D01*
X150088577Y-37747998D01*
X150099068Y-37800017D01*
X149994902Y-44060834D01*
X150297335Y-44077591D01*
X150363183Y-44100954D01*
X150405946Y-44156208D01*
X150414465Y-44199833D01*
X150427257Y-45211282D01*
X150408422Y-45278565D01*
X150383045Y-45307779D01*
X149900785Y-45713070D01*
X149853103Y-45737915D01*
X149823015Y-45745977D01*
X149823004Y-45745982D01*
X149754495Y-45785535D01*
X149754487Y-45785541D01*
X149698539Y-45841489D01*
X149662850Y-45903305D01*
X149635245Y-45936229D01*
X149626001Y-45943997D01*
X149626000Y-45944000D01*
X149620903Y-46329159D01*
X149604309Y-46389505D01*
X149601780Y-46393886D01*
X149601777Y-46393892D01*
X149581298Y-46470319D01*
X149581298Y-46549443D01*
X149601777Y-46625870D01*
X149601779Y-46625875D01*
X149604887Y-46633376D01*
X149602766Y-46634254D01*
X149603781Y-46638144D01*
X149611626Y-46650713D01*
X149616186Y-46685712D01*
X149615224Y-46758458D01*
X149595937Y-46821066D01*
X149596603Y-46821450D01*
X149594923Y-46824358D01*
X149594655Y-46825231D01*
X149593418Y-46826965D01*
X149552982Y-46897004D01*
X149552979Y-46897009D01*
X149549212Y-46911069D01*
X149532500Y-46973438D01*
X149532500Y-47052562D01*
X149546152Y-47103513D01*
X149552979Y-47128990D01*
X149552982Y-47128995D01*
X149592244Y-47197000D01*
X149592597Y-47198458D01*
X149593662Y-47199522D01*
X149608856Y-47259584D01*
X149607746Y-47495027D01*
X149590592Y-47552442D01*
X149591117Y-47552660D01*
X149589001Y-47557766D01*
X149587745Y-47561973D01*
X149586855Y-47563324D01*
X149586446Y-47563935D01*
X149544500Y-47665199D01*
X149544500Y-47774802D01*
X149584988Y-47872547D01*
X149585381Y-47876206D01*
X149587523Y-47879201D01*
X149589087Y-47910679D01*
X149592457Y-47942016D01*
X149590809Y-47945307D01*
X149590992Y-47948984D01*
X149584988Y-47967453D01*
X149544498Y-48065202D01*
X149544280Y-48066301D01*
X149543144Y-48068471D01*
X149539826Y-48076483D01*
X149539108Y-48076185D01*
X149518657Y-48115276D01*
X149519391Y-48115806D01*
X149543086Y-48167690D01*
X149544500Y-48174802D01*
X149584988Y-48272547D01*
X149588211Y-48302525D01*
X149593831Y-48332141D01*
X149592126Y-48338945D01*
X149592457Y-48342016D01*
X149590257Y-48346409D01*
X149584988Y-48367453D01*
X149544500Y-48465197D01*
X149544500Y-48559154D01*
X149541949Y-48567839D01*
X149543238Y-48576801D01*
X149532259Y-48600841D01*
X149524815Y-48626193D01*
X149517974Y-48632120D01*
X149514213Y-48640357D01*
X149491978Y-48654646D01*
X149472011Y-48671948D01*
X149461496Y-48674235D01*
X149455435Y-48678131D01*
X149420500Y-48683154D01*
X149420141Y-48683154D01*
X149353102Y-48663469D01*
X149307347Y-48610665D01*
X149296141Y-48559154D01*
X149296141Y-48471838D01*
X149296141Y-48471837D01*
X149254776Y-48371976D01*
X149251553Y-48341998D01*
X149245934Y-48312384D01*
X149247857Y-48307619D01*
X149247308Y-48302510D01*
X149254777Y-48277071D01*
X149257688Y-48270041D01*
X149257690Y-48270040D01*
X149299633Y-48168782D01*
X149299633Y-48168781D01*
X149299850Y-48167691D01*
X149300978Y-48165533D01*
X149304307Y-48157498D01*
X149305025Y-48157795D01*
X149325474Y-48118700D01*
X149324734Y-48118167D01*
X149301045Y-48066286D01*
X149299633Y-48059185D01*
X149299633Y-48059182D01*
X149299631Y-48059179D01*
X149299631Y-48059175D01*
X149257845Y-47958299D01*
X149257451Y-47954639D01*
X149255309Y-47951644D01*
X149253743Y-47920159D01*
X149250375Y-47888830D01*
X149251924Y-47883554D01*
X149251840Y-47881861D01*
X149253028Y-47879791D01*
X149257841Y-47863401D01*
X149296469Y-47770148D01*
X149296469Y-47660548D01*
X149254526Y-47559290D01*
X149204734Y-47509498D01*
X149191329Y-47484949D01*
X149175151Y-47462129D01*
X149173157Y-47451670D01*
X149171249Y-47448175D01*
X149168544Y-47427466D01*
X149166707Y-47387147D01*
X149183192Y-47319508D01*
X149198484Y-47293021D01*
X149226258Y-47244915D01*
X149228448Y-47236742D01*
X149246901Y-47167878D01*
X149246901Y-47088122D01*
X149246901Y-47080527D01*
X149246900Y-47080509D01*
X149246900Y-46361124D01*
X149246900Y-46361122D01*
X149226258Y-46284085D01*
X149186381Y-46215015D01*
X149143840Y-46172474D01*
X149110355Y-46111151D01*
X149107649Y-46090441D01*
X149019000Y-44144000D01*
X149018999Y-44143999D01*
X147785230Y-44099371D01*
X147718945Y-44077276D01*
X147675129Y-44022852D01*
X147665712Y-43975779D01*
X147649338Y-37768008D01*
X147668846Y-37700919D01*
X147721529Y-37655025D01*
X147775039Y-37643695D01*
X149976791Y-37673966D01*
G37*
G04 #@! TD.AperFunction*
G04 #@! TD*
G04 #@! TA.AperFunction,Conductor*
G04 #@! TO.N,Net-(IC3-PMID_1)*
G36*
X147036790Y-40418304D02*
G01*
X147083488Y-40470276D01*
X147095637Y-40522974D01*
X147132477Y-45989664D01*
X147113245Y-46056835D01*
X147060750Y-46102945D01*
X147008480Y-46114500D01*
X145799500Y-46114500D01*
X145732461Y-46094815D01*
X145686706Y-46042011D01*
X145675500Y-45990500D01*
X145675499Y-45676663D01*
X145675498Y-45676644D01*
X145665349Y-45577292D01*
X145665348Y-45577289D01*
X145612003Y-45416303D01*
X145611999Y-45416297D01*
X145611998Y-45416294D01*
X145519177Y-45265809D01*
X145521778Y-45264204D01*
X145500755Y-45212222D01*
X145513736Y-45143569D01*
X145519596Y-45134449D01*
X145519177Y-45134191D01*
X145611998Y-44983705D01*
X145611997Y-44983705D01*
X145612003Y-44983697D01*
X145665349Y-44822708D01*
X145675500Y-44723345D01*
X145675499Y-44126656D01*
X145665349Y-44027292D01*
X145612003Y-43866303D01*
X145611999Y-43866297D01*
X145611998Y-43866294D01*
X145522970Y-43721959D01*
X145522967Y-43721955D01*
X145496932Y-43695920D01*
X145463447Y-43634597D01*
X145468431Y-43564905D01*
X145479070Y-43543151D01*
X145562003Y-43408697D01*
X145615349Y-43247708D01*
X145625500Y-43148345D01*
X145625499Y-42551656D01*
X145615349Y-42452292D01*
X145562003Y-42291303D01*
X145561999Y-42291297D01*
X145561998Y-42291294D01*
X145472970Y-42146959D01*
X145472969Y-42146958D01*
X145472968Y-42146956D01*
X145386318Y-42060306D01*
X145371613Y-42033375D01*
X145355023Y-42007560D01*
X145354131Y-42001357D01*
X145352834Y-41998982D01*
X145350000Y-41972625D01*
X145350000Y-41925193D01*
X145369348Y-41859298D01*
X145369176Y-41859192D01*
X145369565Y-41858560D01*
X145369685Y-41858154D01*
X145370648Y-41856804D01*
X145372965Y-41853046D01*
X145372968Y-41853044D01*
X145462003Y-41708697D01*
X145515349Y-41547708D01*
X145525500Y-41448345D01*
X145525499Y-40851656D01*
X145515349Y-40752292D01*
X145462003Y-40591303D01*
X145462002Y-40591301D01*
X145460877Y-40587906D01*
X145458475Y-40518078D01*
X145494207Y-40458036D01*
X145556727Y-40426843D01*
X145576338Y-40424923D01*
X146969408Y-40399830D01*
X147036790Y-40418304D01*
G37*
G04 #@! TD.AperFunction*
G04 #@! TD*
M02*
