M48
; DRILL file {KiCad 9.0.3} date 2025-11-17T14:21:11+0800
; FORMAT={-:-/ absolute / metric / decimal}
; #@! TF.CreationDate,2025-11-17T14:21:11+08:00
; #@! TF.GenerationSoftware,Kicad,Pcbnew,9.0.3
; #@! TF.FileFunction,Plated,1,4,PTH
FMAT,2
METRIC
; #@! TA.AperFunction,Plated,PTH,ViaDrill
T1C0.150
; #@! TA.AperFunction,Plated,PTH,ViaDrill
T2C0.200
; #@! TA.AperFunction,Plated,PTH,ViaDrill
T3C0.203
; #@! TA.AperFunction,Plated,PTH,ViaDrill
T4C0.254
; #@! TA.AperFunction,Plated,PTH,ViaDrill
T5C0.300
; #@! TA.AperFunction,Plated,PTH,ViaDrill
T6C0.305
; #@! TA.AperFunction,Plated,PTH,ComponentDrill
T7C0.800
; #@! TA.AperFunction,Plated,PTH,ComponentDrill
T8C0.910
; #@! TA.AperFunction,Plated,PTH,ComponentDrill
T9C1.000
; #@! TA.AperFunction,Plated,PTH,ComponentDrill
T10C1.300
; #@! TA.AperFunction,Plated,PTH,ComponentDrill
T11C1.520
; #@! TA.AperFunction,Plated,PTH,ComponentDrill
T12C1.900
; #@! TA.AperFunction,Plated,PTH,ViaDrill
T13C3.000
%
G90
G05
T1
X148.262Y-50.098
X149.016Y-49.339
X149.021Y-48.527
X149.021Y-47.715
X149.024Y-48.114
X149.42Y-47.714
X149.42Y-48.116
X149.42Y-48.515
X149.42Y-50.12
X149.82Y-47.72
X149.82Y-48.12
X149.82Y-48.52
X149.82Y-49.72
X149.82Y-50.12
X150.219Y-48.526
X150.22Y-47.72
X150.22Y-48.12
X150.22Y-49.72
X150.22Y-50.12
X150.619Y-48.122
X150.62Y-49.72
X150.62Y-50.12
X150.621Y-47.723
X150.623Y-48.522
X150.983Y-46.182
X151.615Y-46.698
X152.117Y-46.593
X152.539Y-46.503
T2
X149.833Y-47.013
X149.882Y-46.51
X149.939Y-46.026
T3
X105.15Y-50.85
X106.225Y-73.475
X106.256Y-72.895
X106.856Y-46.74
X107.361Y-46.09
X108.55Y-60.85
X108.8Y-73.15
X108.883Y-54.695
X109.556Y-55.195
X110.056Y-54.695
X110.4Y-66.275
X113.3Y-62.05
X114.325Y-62.05
X115.15Y-63.0
X115.225Y-62.075
X115.275Y-61.025
X115.75Y-69.695
X115.856Y-77.42
X116.175Y-62.075
X116.225Y-61.025
X116.401Y-55.895
X116.525Y-69.8
X116.694Y-78.582
X117.225Y-61.05
X121.79Y-58.132
X121.8Y-60.15
X122.4Y-59.95
X122.625Y-59.175
X122.756Y-61.2
X129.175Y-71.475
X132.15Y-38.9
X132.475Y-40.925
X138.358Y-54.457
X144.2Y-48.275
X146.173Y-50.339
X146.943Y-43.603
X146.991Y-40.708
X147.1Y-56.8
X147.826Y-51.241
X148.432Y-55.998
X151.517Y-50.649
X152.283Y-50.205
X152.338Y-48.356
X155.259Y-48.464
X156.18Y-49.267
T4
X108.881Y-59.706
X109.376Y-78.875
X147.812Y-49.211
X148.112Y-48.427
X148.239Y-46.663
X148.476Y-46.047
X149.652Y-40.585
X149.66Y-42.996
X149.697Y-41.687
X151.356Y-40.558
X151.386Y-41.863
X151.407Y-43.048
X153.675Y-48.972
X153.909Y-44.354
X168.093Y-24.472
T5
X88.874Y-31.242
X88.911Y-30.38
X90.006Y-31.183
X90.029Y-30.356
X90.856Y-39.495
X92.056Y-44.995
X92.156Y-67.895
X95.356Y-54.995
X95.856Y-40.495
X96.301Y-46.74
X96.556Y-33.395
X96.556Y-48.095
X96.656Y-38.095
X97.756Y-31.995
X98.256Y-33.395
X98.556Y-39.295
X99.056Y-25.295
X99.356Y-51.395
X99.556Y-55.195
X100.256Y-51.395
X100.556Y-25.295
X100.856Y-59.495
X101.156Y-55.195
X101.256Y-32.195
X101.256Y-51.395
X101.356Y-67.995
X102.031Y-29.37
X102.256Y-25.295
X102.656Y-32.195
X105.356Y-56.195
X105.756Y-61.095
X106.106Y-31.645
X106.156Y-27.095
X106.956Y-54.995
X107.256Y-44.595
X107.656Y-33.195
X108.156Y-47.395
X108.256Y-50.541
X109.256Y-33.195
X109.456Y-73.895
X110.256Y-70.595
X110.556Y-50.879
X110.756Y-33.195
X112.456Y-48.095
X113.256Y-72.895
X114.342Y-34.284
X114.544Y-36.764
X115.556Y-38.095
X115.862Y-36.753
X118.158Y-62.995
X118.34Y-39.208
X118.556Y-71.395
X119.406Y-64.495
X119.613Y-70.952
X120.956Y-37.895
X120.956Y-45.395
X122.261Y-36.298
X122.295Y-37.276
X122.498Y-52.725
X122.939Y-70.367
X123.556Y-55.32
X124.756Y-81.095
X125.056Y-75.195
X125.156Y-55.32
X125.806Y-57.945
X125.956Y-49.095
X126.456Y-41.195
X126.456Y-41.895
X126.751Y-55.32
X127.256Y-41.195
X127.256Y-41.895
X127.676Y-24.417
X127.956Y-41.195
X127.956Y-41.895
X128.356Y-25.797
X129.556Y-65.095
X129.656Y-48.995
X129.956Y-25.82
X130.082Y-55.27
X130.956Y-48.995
X130.956Y-58.195
X131.056Y-74.195
X131.156Y-81.195
X132.402Y-57.032
X132.456Y-64.395
X133.256Y-67.07
X133.44Y-57.04
X133.756Y-28.995
X133.756Y-29.895
X134.056Y-64.495
X134.408Y-57.111
X134.556Y-28.995
X134.556Y-29.895
X134.756Y-61.395
X134.856Y-67.07
X135.337Y-57.126
X135.506Y-67.995
X135.856Y-64.095
X136.856Y-67.07
X137.276Y-23.741
X137.756Y-64.395
X138.156Y-41.395
X138.156Y-42.295
X138.156Y-43.395
X138.156Y-44.295
X139.281Y-34.947
X140.072Y-41.295
X142.846Y-27.323
X142.857Y-26.409
X143.347Y-36.581
X143.456Y-46.295
X143.709Y-26.441
X143.712Y-27.338
X144.623Y-27.33
X144.633Y-26.457
X144.856Y-71.195
X145.031Y-59.92
X145.583Y-58.662
X145.856Y-71.195
X146.056Y-66.995
X147.356Y-71.195
X148.456Y-71.195
X148.656Y-65.695
X149.256Y-62.195
X149.556Y-78.195
X149.856Y-65.695
X151.056Y-65.695
X152.195Y-47.667
X152.456Y-65.695
X153.456Y-59.895
X153.556Y-68.195
X153.756Y-54.095
X153.859Y-47.722
X153.956Y-61.395
X153.956Y-65.695
X154.756Y-38.695
X154.756Y-39.395
X154.756Y-61.395
X154.958Y-47.495
X155.656Y-61.395
X155.756Y-38.695
X155.756Y-39.395
X156.556Y-61.395
X157.349Y-47.129
X157.456Y-61.395
X157.556Y-70.995
X157.621Y-54.385
X157.655Y-53.033
X158.292Y-47.122
X158.518Y-43.643
X158.701Y-54.374
X158.735Y-53.044
X160.356Y-83.295
T6
X87.075Y-84.025
X87.95Y-52.09
X92.125Y-78.875
X93.656Y-47.195
X93.656Y-53.595
X96.175Y-78.375
X96.356Y-42.195
X99.8Y-44.15
X102.275Y-72.825
X109.956Y-38.695
X110.35Y-64.375
X111.756Y-42.595
X111.756Y-44.195
X111.756Y-45.795
X111.756Y-47.395
X111.856Y-48.995
X112.456Y-46.495
X112.669Y-55.945
X113.088Y-69.248
X114.556Y-55.795
X115.343Y-70.595
X116.956Y-46.395
X117.125Y-68.225
X118.125Y-55.825
X120.125Y-67.5
X120.456Y-52.795
X121.207Y-56.105
X121.556Y-56.695
X121.831Y-76.395
X121.856Y-55.295
X122.086Y-66.153
X122.2Y-64.0
X122.302Y-63.267
X127.025Y-69.375
X127.637Y-63.712
X127.756Y-61.25
X128.225Y-39.55
X128.325Y-36.525
X131.556Y-51.295
X134.2Y-33.125
X136.256Y-50.195
X137.375Y-37.975
X138.856Y-67.895
X138.956Y-68.845
X140.076Y-53.395
X142.45Y-53.95
X143.506Y-67.92
X143.756Y-41.195
X146.056Y-55.295
X147.8Y-55.125
X149.375Y-54.861
X155.256Y-72.495
X156.456Y-83.495
T7
X153.156Y-75.945
X153.156Y-78.485
T8
X155.575Y-54.2
X155.575Y-56.74
T9
X86.289Y-28.785
X93.556Y-56.095
X112.512Y-24.698
X132.756Y-69.995
X136.556Y-76.895
X140.156Y-74.495
X140.356Y-44.595
X145.156Y-84.295
X157.056Y-60.095
T10
X81.483Y-47.05
X81.483Y-52.13
X81.584Y-35.05
X81.584Y-40.13
X118.552Y-28.304
X123.632Y-28.304
X145.987Y-25.595
X145.987Y-33.195
X157.987Y-33.195
X160.487Y-25.595
X169.381Y-69.742
X169.381Y-74.822
X169.381Y-79.902
X169.642Y-58.129
X169.642Y-63.209
X169.658Y-46.264
X169.658Y-51.344
X170.009Y-34.074
X170.009Y-39.154
T11
X122.343Y-83.32
X133.582Y-83.32
T12
X122.343Y-87.32
X133.582Y-87.32
T13
X80.0Y-27.0
X80.0Y-86.0
X171.0Y-27.0
X171.0Y-86.0
M30
