%TF.GenerationSoftware,KiCad,Pcbnew,9.0.3*%
%TF.CreationDate,2025-11-17T14:25:06+08:00*%
%TF.ProjectId,piezometer,7069657a-6f6d-4657-9465-722e6b696361,rev?*%
%TF.SameCoordinates,Original*%
%TF.FileFunction,Copper,L4,Bot*%
%TF.FilePolarity,Positive*%
%FSLAX46Y46*%
G04 Gerber Fmt 4.6, Leading zero omitted, Abs format (unit mm)*
G04 Created by KiCad (PCBNEW 9.0.3) date 2025-11-17 14:25:06*
%MOMM*%
%LPD*%
G01*
G04 APERTURE LIST*
G04 Aperture macros list*
%AMRoundRect*
0 Rectangle with rounded corners*
0 $1 Rounding radius*
0 $2 $3 $4 $5 $6 $7 $8 $9 X,Y pos of 4 corners*
0 Add a 4 corners polygon primitive as box body*
4,1,4,$2,$3,$4,$5,$6,$7,$8,$9,$2,$3,0*
0 Add four circle primitives for the rounded corners*
1,1,$1+$1,$2,$3*
1,1,$1+$1,$4,$5*
1,1,$1+$1,$6,$7*
1,1,$1+$1,$8,$9*
0 Add four rect primitives between the rounded corners*
20,1,$1+$1,$2,$3,$4,$5,0*
20,1,$1+$1,$4,$5,$6,$7,0*
20,1,$1+$1,$6,$7,$8,$9,0*
20,1,$1+$1,$8,$9,$2,$3,0*%
G04 Aperture macros list end*
%TA.AperFunction,ComponentPad*%
%ADD10C,2.000000*%
%TD*%
%TA.AperFunction,ComponentPad*%
%ADD11RoundRect,0.250000X-1.050000X1.050000X-1.050000X-1.050000X1.050000X-1.050000X1.050000X1.050000X0*%
%TD*%
%TA.AperFunction,ComponentPad*%
%ADD12C,2.600000*%
%TD*%
%TA.AperFunction,ComponentPad*%
%ADD13C,2.200000*%
%TD*%
%TA.AperFunction,ComponentPad*%
%ADD14R,1.800000X1.800000*%
%TD*%
%TA.AperFunction,ComponentPad*%
%ADD15C,1.800000*%
%TD*%
%TA.AperFunction,ComponentPad*%
%ADD16C,2.280000*%
%TD*%
%TA.AperFunction,ComponentPad*%
%ADD17C,2.850000*%
%TD*%
%TA.AperFunction,WasherPad*%
%ADD18C,1.400000*%
%TD*%
%TA.AperFunction,ComponentPad*%
%ADD19RoundRect,0.250000X1.050000X-1.050000X1.050000X1.050000X-1.050000X1.050000X-1.050000X-1.050000X0*%
%TD*%
%TA.AperFunction,ComponentPad*%
%ADD20C,1.400000*%
%TD*%
%TA.AperFunction,SMDPad,CuDef*%
%ADD21RoundRect,0.225000X0.225000X0.250000X-0.225000X0.250000X-0.225000X-0.250000X0.225000X-0.250000X0*%
%TD*%
%TA.AperFunction,SMDPad,CuDef*%
%ADD22RoundRect,0.225000X0.250000X-0.225000X0.250000X0.225000X-0.250000X0.225000X-0.250000X-0.225000X0*%
%TD*%
%TA.AperFunction,SMDPad,CuDef*%
%ADD23RoundRect,0.200000X0.275000X-0.200000X0.275000X0.200000X-0.275000X0.200000X-0.275000X-0.200000X0*%
%TD*%
%TA.AperFunction,SMDPad,CuDef*%
%ADD24RoundRect,0.225000X-0.250000X0.225000X-0.250000X-0.225000X0.250000X-0.225000X0.250000X0.225000X0*%
%TD*%
%TA.AperFunction,SMDPad,CuDef*%
%ADD25RoundRect,0.250000X0.650000X-0.325000X0.650000X0.325000X-0.650000X0.325000X-0.650000X-0.325000X0*%
%TD*%
%TA.AperFunction,SMDPad,CuDef*%
%ADD26RoundRect,0.225000X-0.225000X-0.250000X0.225000X-0.250000X0.225000X0.250000X-0.225000X0.250000X0*%
%TD*%
%TA.AperFunction,ViaPad*%
%ADD27C,0.600000*%
%TD*%
%TA.AperFunction,ViaPad*%
%ADD28C,0.400000*%
%TD*%
%TA.AperFunction,ViaPad*%
%ADD29C,0.300000*%
%TD*%
%TA.AperFunction,ViaPad*%
%ADD30C,0.250000*%
%TD*%
%TA.AperFunction,ViaPad*%
%ADD31C,0.500000*%
%TD*%
%TA.AperFunction,Conductor*%
%ADD32C,0.254000*%
%TD*%
%TA.AperFunction,Conductor*%
%ADD33C,0.120000*%
%TD*%
%TA.AperFunction,Conductor*%
%ADD34C,0.150000*%
%TD*%
%TA.AperFunction,Conductor*%
%ADD35C,1.000000*%
%TD*%
%TA.AperFunction,Conductor*%
%ADD36C,0.400000*%
%TD*%
%TA.AperFunction,Conductor*%
%ADD37C,0.200000*%
%TD*%
G04 APERTURE END LIST*
D10*
%TO.P,TX1,1,1*%
%TO.N,/RS485_TX*%
X125948000Y-70616000D03*
%TD*%
D11*
%TO.P,J4,1,Pin_1*%
%TO.N,/Vin_A*%
X64550000Y-53250000D03*
D12*
%TO.P,J4,2,Pin_2*%
%TO.N,Net-(D6-A1)*%
X64550000Y-58330000D03*
%TD*%
D13*
%TO.P,K2,11*%
%TO.N,/Vin*%
X79637500Y-82042500D03*
%TO.P,K2,12*%
%TO.N,unconnected-(K2-Pad12)*%
X72017500Y-89662500D03*
%TO.P,K2,14*%
%TO.N,/LOAD*%
X72017500Y-82042500D03*
D14*
%TO.P,K2,A1*%
%TO.N,6V*%
X89797500Y-82042500D03*
D15*
%TO.P,K2,A2*%
%TO.N,Net-(D7-K)*%
X89797500Y-89662500D03*
%TD*%
D10*
%TO.P,6V1,1,1*%
%TO.N,6V*%
X107337000Y-96417000D03*
%TD*%
%TO.P,TP1,1,1*%
%TO.N,/Vin*%
X152656000Y-102400000D03*
%TD*%
D16*
%TO.P,U4,MH1,MH1*%
%TO.N,GND*%
X151575000Y-61770000D03*
%TO.P,U4,MH2,MH2*%
X151575000Y-50530000D03*
D17*
%TO.P,U4,MH3,MH3*%
X155575000Y-61770000D03*
%TO.P,U4,MH4,MH4*%
X155575000Y-50530000D03*
%TD*%
D10*
%TO.P,RX1,1,1*%
%TO.N,/RS485_RX*%
X126016000Y-78021000D03*
%TD*%
%TO.P,A5V1,1,1*%
%TO.N,AVDD_5V0*%
X65627000Y-63082000D03*
%TD*%
D18*
%TO.P,J3,*%
%TO.N,*%
X118485000Y-95457500D03*
X118485000Y-87957500D03*
%TD*%
D10*
%TO.P,RE1,1,1*%
%TO.N,/RS485_RE*%
X126050000Y-74361000D03*
%TD*%
D19*
%TO.P,J2,1,Pin_1*%
%TO.N,GND*%
X153350000Y-81475000D03*
D12*
%TO.P,J2,2,Pin_2*%
%TO.N,/B*%
X153350000Y-76395000D03*
%TO.P,J2,3,Pin_3*%
%TO.N,/A*%
X153350000Y-71315000D03*
%TD*%
D20*
%TO.P,JP1,1,A*%
%TO.N,Net-(JP1-A)*%
X138043000Y-75861000D03*
%TO.P,JP1,2,B*%
%TO.N,/A*%
X138043000Y-78401000D03*
%TD*%
D10*
%TO.P,3V3,1,1*%
%TO.N,VCC_3V3*%
X61986000Y-96291000D03*
%TD*%
D19*
%TO.P,J1,1,Pin_1*%
%TO.N,/Vin*%
X153400000Y-95850000D03*
D12*
%TO.P,J1,2,Pin_2*%
%TO.N,GND*%
X153400000Y-90770000D03*
%TD*%
D11*
%TO.P,J5,1,Pin_1*%
%TO.N,/LOAD*%
X64700000Y-83320000D03*
D12*
%TO.P,J5,2,Pin_2*%
%TO.N,GND*%
X64700000Y-88400000D03*
%TD*%
D21*
%TO.P,C90,1*%
%TO.N,ESP_LDO_VO2*%
X118075000Y-56600000D03*
%TO.P,C90,2*%
%TO.N,GND*%
X116525000Y-56600000D03*
%TD*%
%TO.P,C92,1*%
%TO.N,ESP_LDO_VO2*%
X118275000Y-51900000D03*
%TO.P,C92,2*%
%TO.N,GND*%
X116725000Y-51900000D03*
%TD*%
D22*
%TO.P,C34,1*%
%TO.N,ESP_VDD_HP*%
X119400000Y-48075000D03*
%TO.P,C34,2*%
%TO.N,GND*%
X119400000Y-46525000D03*
%TD*%
D23*
%TO.P,R54,1*%
%TO.N,VCC_1V8*%
X114100000Y-62625000D03*
%TO.P,R54,2*%
%TO.N,ESP_LDO_VO3*%
X114100000Y-60975000D03*
%TD*%
D22*
%TO.P,C91,1*%
%TO.N,ESP_LDO_VO1*%
X110400000Y-61075000D03*
%TO.P,C91,2*%
%TO.N,GND*%
X110400000Y-59525000D03*
%TD*%
D24*
%TO.P,C31,1*%
%TO.N,ESP_VDD_HP*%
X108300000Y-60125000D03*
%TO.P,C31,2*%
%TO.N,GND*%
X108300000Y-61675000D03*
%TD*%
D25*
%TO.P,C30,1*%
%TO.N,ESP_VDD_HP*%
X121600000Y-48575000D03*
%TO.P,C30,2*%
%TO.N,GND*%
X121600000Y-45625000D03*
%TD*%
D24*
%TO.P,C32,1*%
%TO.N,ESP_VDD_HP*%
X114100000Y-49500000D03*
%TO.P,C32,2*%
%TO.N,GND*%
X114100000Y-51050000D03*
%TD*%
D21*
%TO.P,C33,1*%
%TO.N,ESP_VDD_HP*%
X118075000Y-58100000D03*
%TO.P,C33,2*%
%TO.N,GND*%
X116525000Y-58100000D03*
%TD*%
D24*
%TO.P,C13,1*%
%TO.N,VCC_3V3*%
X112370000Y-49500000D03*
%TO.P,C13,2*%
%TO.N,GND*%
X112370000Y-51050000D03*
%TD*%
%TO.P,C94,1*%
%TO.N,ESP_LDO_VO3*%
X115700000Y-61025000D03*
%TO.P,C94,2*%
%TO.N,GND*%
X115700000Y-62575000D03*
%TD*%
D26*
%TO.P,C19,1*%
%TO.N,VCC_3V3*%
X109025000Y-56800000D03*
%TO.P,C19,2*%
%TO.N,GND*%
X110575000Y-56800000D03*
%TD*%
D21*
%TO.P,C25,1*%
%TO.N,ESP_LDO_VO1*%
X118275000Y-53400000D03*
%TO.P,C25,2*%
%TO.N,GND*%
X116725000Y-53400000D03*
%TD*%
D26*
%TO.P,C29,1*%
%TO.N,VCC_3V3*%
X109025000Y-52600000D03*
%TO.P,C29,2*%
%TO.N,GND*%
X110575000Y-52600000D03*
%TD*%
%TO.P,C28,1*%
%TO.N,VCC_3V3*%
X109025000Y-54200000D03*
%TO.P,C28,2*%
%TO.N,GND*%
X110575000Y-54200000D03*
%TD*%
D21*
%TO.P,C20,1*%
%TO.N,VCC_3V3*%
X118075000Y-55000000D03*
%TO.P,C20,2*%
%TO.N,GND*%
X116525000Y-55000000D03*
%TD*%
D24*
%TO.P,C18,1*%
%TO.N,VCC_3V3*%
X110800000Y-49525000D03*
%TO.P,C18,2*%
%TO.N,GND*%
X110800000Y-51075000D03*
%TD*%
%TO.P,C17,1*%
%TO.N,VCC_3V3*%
X109200000Y-49525000D03*
%TO.P,C17,2*%
%TO.N,GND*%
X109200000Y-51075000D03*
%TD*%
D27*
%TO.N,GND*%
X143262500Y-44937500D03*
X110600000Y-57800000D03*
X131700000Y-91800000D03*
X140700000Y-103000000D03*
X111900000Y-78500000D03*
X115700000Y-63700000D03*
X136100000Y-84500000D03*
X86200000Y-102400000D03*
X90000000Y-44300000D03*
X115200000Y-56600000D03*
X97500000Y-94100000D03*
X119300000Y-64000000D03*
X110600000Y-45800000D03*
X144600000Y-103000000D03*
X129100000Y-48900000D03*
X142900000Y-46200000D03*
X117800000Y-64100000D03*
X115400000Y-53100000D03*
X131800000Y-92700000D03*
X115300000Y-50500000D03*
X137825000Y-90775000D03*
X143000000Y-102000000D03*
D28*
X80300000Y-42400000D03*
D27*
X137100000Y-94600000D03*
X145300000Y-67300000D03*
X149100000Y-52900000D03*
X134000000Y-85400000D03*
X87200000Y-102400000D03*
X132900000Y-94900000D03*
X128000000Y-44700000D03*
D29*
X113600030Y-54162420D03*
D27*
X104200000Y-76900000D03*
X93800000Y-67100000D03*
X140900000Y-90100000D03*
X87700000Y-74900000D03*
X108000000Y-77700000D03*
X119500000Y-72400000D03*
X88100000Y-71400000D03*
X108300000Y-62800000D03*
X114794379Y-55121623D03*
X127100000Y-65400000D03*
X122500000Y-64000000D03*
X130800000Y-92700000D03*
X83100000Y-74700000D03*
X88300000Y-102400000D03*
D28*
X93200000Y-42400000D03*
D27*
X130800000Y-91800000D03*
X144000000Y-47500000D03*
X90500000Y-97000000D03*
X128000000Y-42300000D03*
X149200000Y-103100000D03*
X111100000Y-81900000D03*
X98600000Y-83500000D03*
X145900000Y-88700000D03*
X119400000Y-45500000D03*
X86100000Y-74900000D03*
X141800000Y-102000000D03*
X124100000Y-44400000D03*
X113600000Y-78600000D03*
X90400000Y-72800000D03*
X128000000Y-47000000D03*
X132200000Y-100000000D03*
X143100000Y-103000000D03*
X144500000Y-53100000D03*
X121000000Y-64000000D03*
X124600000Y-64900000D03*
X140000000Y-58500000D03*
X135007000Y-78694000D03*
X124000000Y-51700000D03*
X105900000Y-44300000D03*
X84200000Y-74700000D03*
X145200000Y-84300000D03*
X89900000Y-102400000D03*
X143400000Y-89500000D03*
X115000000Y-58000000D03*
X120900000Y-99900000D03*
D28*
X88550000Y-39250000D03*
D27*
X137025000Y-70925000D03*
X97700000Y-70600000D03*
X84400000Y-74000000D03*
X110100000Y-40100000D03*
X114500000Y-44500000D03*
X129700000Y-65400000D03*
X132400000Y-85500000D03*
X146100000Y-103000000D03*
D28*
X97125000Y-38900000D03*
D27*
X147700000Y-103000000D03*
X141800000Y-103000000D03*
X98900000Y-97000000D03*
X148900000Y-59300000D03*
X140000000Y-53800000D03*
X104097600Y-80602400D03*
X121600000Y-44300000D03*
X113600030Y-51050000D03*
%TO.N,AVDD_5V0*%
X62200000Y-65200000D03*
X76600000Y-61100000D03*
X61600000Y-66200000D03*
X95000000Y-52500000D03*
X63190000Y-64710000D03*
X84700000Y-59800000D03*
%TO.N,VCC_3V3*%
X85600000Y-94200000D03*
X85600000Y-93400000D03*
X122500000Y-60000000D03*
X144300000Y-49900000D03*
X134100000Y-54300000D03*
X117600000Y-39900000D03*
X88345000Y-44255000D03*
X99625000Y-56725000D03*
X120900000Y-60100000D03*
X86500000Y-95000000D03*
X141859000Y-81424000D03*
D30*
X119400000Y-55387500D03*
D27*
X98000000Y-56800000D03*
X96500000Y-56800000D03*
X106900000Y-52800000D03*
X140000000Y-72000000D03*
X134000000Y-56200000D03*
X86600000Y-67300000D03*
X84900000Y-93400000D03*
X102400000Y-43100000D03*
X84900000Y-95000000D03*
X115875100Y-48324900D03*
D29*
X107914534Y-57081753D03*
D27*
X101200000Y-56800000D03*
X136519000Y-73692000D03*
X84900000Y-94200000D03*
X124100000Y-49800000D03*
X121600000Y-49900000D03*
X85700000Y-95000000D03*
X104200000Y-72700000D03*
X144500000Y-48900000D03*
X109900000Y-48200000D03*
X112024970Y-48224970D03*
D31*
%TO.N,ESP_LDO_VO1*%
X119400000Y-52900000D03*
D27*
X117484375Y-69355625D03*
X115100000Y-70400000D03*
X110550000Y-62650000D03*
D29*
X120125000Y-70725000D03*
D27*
%TO.N,ESP_VDD_HP*%
X135500000Y-45100000D03*
X113800000Y-48400000D03*
X134300000Y-42500000D03*
D29*
X119500000Y-50487300D03*
D27*
X108100000Y-59100000D03*
X134300000Y-45100000D03*
X135400000Y-43800000D03*
X134300000Y-43800000D03*
X135400000Y-42500000D03*
X119900000Y-58200000D03*
%TO.N,VREF_2V5*%
X75300000Y-61275000D03*
X84325000Y-62875000D03*
X80800000Y-52100000D03*
%TO.N,ESP_LDO_VO2*%
X119898248Y-52277000D03*
X119800000Y-53600000D03*
X119400000Y-56500000D03*
D30*
%TO.N,ESP_LDO_VO3*%
X114111000Y-59900000D03*
X120100000Y-51605300D03*
D27*
%TO.N,/RESET*%
X91350000Y-41775000D03*
X101550000Y-45675000D03*
%TO.N,AGND*%
X78725000Y-73500000D03*
X75300000Y-53800000D03*
X77500000Y-72475000D03*
X72400000Y-73900000D03*
X84800000Y-64200000D03*
X78200000Y-61200000D03*
X67300000Y-49100000D03*
X75400000Y-75550000D03*
X74900000Y-68200000D03*
X84600000Y-60900000D03*
X72700000Y-49900000D03*
X82900000Y-46600000D03*
X74500000Y-66500000D03*
X73800000Y-73900000D03*
X80800000Y-46700000D03*
X83100000Y-51800000D03*
X90100000Y-55700000D03*
X75100000Y-50200000D03*
X73900000Y-60200000D03*
X88900000Y-57900000D03*
X70615000Y-70485000D03*
X96800000Y-48100000D03*
X66400000Y-68200000D03*
X77700000Y-74800000D03*
%TO.N,/ADC_DIN*%
X98045000Y-60700000D03*
X100350000Y-55086001D03*
%TO.N,/ADC_DADY*%
X103440520Y-51600000D03*
X101195000Y-60600000D03*
%TO.N,/ADC_CS*%
X102628000Y-60537400D03*
D29*
X104915072Y-51915072D03*
D31*
%TO.N,/RTC_MFP*%
X103600000Y-56800000D03*
D30*
X106734600Y-55409600D03*
D27*
%TO.N,/control*%
X97100000Y-54800000D03*
X99800000Y-83500000D03*
%TO.N,/BOOT_GPIO35*%
X102400000Y-41400000D03*
X125800000Y-42500000D03*
D30*
%TO.N,/FLASH_D*%
X122375000Y-77575000D03*
X122850000Y-73800000D03*
D27*
%TO.N,/RS485_RE*%
X112100000Y-67450000D03*
D30*
%TO.N,/FLASH_CK*%
X119350000Y-76250000D03*
X119200000Y-74475000D03*
D27*
%TO.N,/RS485_RX*%
X106790000Y-62400000D03*
%TO.N,/EN_DCDC*%
X138000000Y-46200000D03*
X139600000Y-43300000D03*
%TO.N,/RS485_TX*%
X108100000Y-65000000D03*
%TO.N,/Vin_A*%
X72700000Y-77300000D03*
%TO.N,/A*%
X151182000Y-76616500D03*
%TD*%
D32*
%TO.N,GND*%
X110800000Y-51075000D02*
X112345000Y-51075000D01*
X110575000Y-52600000D02*
X112037610Y-52600000D01*
D33*
X119400000Y-46525000D02*
X119400000Y-45500000D01*
D32*
X114916002Y-55000000D02*
X114794379Y-55121623D01*
X108300000Y-61675000D02*
X108300000Y-62800000D01*
X110400000Y-58000000D02*
X110600000Y-57800000D01*
X114750000Y-51050000D02*
X115300000Y-50500000D01*
X114100000Y-51050000D02*
X114750000Y-51050000D01*
D33*
X121600000Y-45625000D02*
X121600000Y-44300000D01*
X115700000Y-62575000D02*
X115700000Y-63700000D01*
D32*
X110400000Y-59525000D02*
X110400000Y-58000000D01*
X112370000Y-51050000D02*
X113600030Y-51050000D01*
X109200000Y-51075000D02*
X110800000Y-51075000D01*
X110575000Y-57775000D02*
X110600000Y-57800000D01*
D34*
X110575000Y-54200000D02*
X110575000Y-52600000D01*
D32*
X110575000Y-56800000D02*
X110575000Y-57775000D01*
X116725000Y-53400000D02*
X115700000Y-53400000D01*
X112037610Y-52600000D02*
X113600030Y-54162420D01*
X116725000Y-51900000D02*
X116725000Y-53400000D01*
X116525000Y-58100000D02*
X115100000Y-58100000D01*
X116525000Y-56600000D02*
X115200000Y-56600000D01*
X115700000Y-53400000D02*
X115400000Y-53100000D01*
X115100000Y-58100000D02*
X115000000Y-58000000D01*
X112345000Y-51075000D02*
X112370000Y-51050000D01*
X114100000Y-51050000D02*
X113600030Y-51050000D01*
X116525000Y-55000000D02*
X114916002Y-55000000D01*
%TO.N,VCC_3V3*%
X109025000Y-56800000D02*
X108196287Y-56800000D01*
D34*
X108300000Y-54200000D02*
X106900000Y-52800000D01*
D32*
X107100000Y-52600000D02*
X106900000Y-52800000D01*
D33*
X112000000Y-48275030D02*
X112024970Y-48300000D01*
X112500000Y-47700000D02*
X115250200Y-47700000D01*
X112024970Y-48224970D02*
X112500000Y-47749940D01*
D32*
X110800000Y-48900000D02*
X110100000Y-48200000D01*
X112370000Y-49500000D02*
X112370000Y-49070000D01*
X112000000Y-48700000D02*
X112000000Y-48324970D01*
X109200000Y-48800000D02*
X109200000Y-49525000D01*
X109025000Y-52600000D02*
X107100000Y-52600000D01*
X110800000Y-49525000D02*
X110800000Y-48900000D01*
X109025000Y-52600000D02*
X109025000Y-52275000D01*
X108196287Y-56800000D02*
X107914534Y-57081753D01*
D34*
X109025000Y-54200000D02*
X108300000Y-54200000D01*
D32*
X109800000Y-48200000D02*
X109200000Y-48800000D01*
X112000000Y-48324970D02*
X112024970Y-48300000D01*
X112370000Y-49070000D02*
X112000000Y-48700000D01*
D33*
X115250200Y-47700000D02*
X115875100Y-48324900D01*
D32*
X118912500Y-54900000D02*
X119400000Y-55387500D01*
X118075000Y-54900000D02*
X118912500Y-54900000D01*
X110100000Y-48200000D02*
X109900000Y-48200000D01*
X109900000Y-48200000D02*
X109800000Y-48200000D01*
D33*
X112500000Y-47749940D02*
X112500000Y-47700000D01*
D32*
%TO.N,ESP_LDO_VO1*%
X112400000Y-60800000D02*
X112400000Y-56700000D01*
X114900000Y-54200000D02*
X118100000Y-54200000D01*
D33*
X116144375Y-69355625D02*
X115100000Y-70400000D01*
X117484375Y-69355625D02*
X116144375Y-69355625D01*
D32*
X118100000Y-54200000D02*
X118275000Y-54025000D01*
X118275000Y-54025000D02*
X118275000Y-53400000D01*
X110550000Y-62650000D02*
X112400000Y-60800000D01*
D33*
X120125000Y-70325000D02*
X120125000Y-70725000D01*
X117484375Y-69355625D02*
X119155625Y-69355625D01*
X119155625Y-69355625D02*
X120125000Y-70325000D01*
X110400000Y-61075000D02*
X110400000Y-62500000D01*
D32*
X118275000Y-53400000D02*
X118900000Y-53400000D01*
X118900000Y-53400000D02*
X119400000Y-52900000D01*
X112400000Y-56700000D02*
X114900000Y-54200000D01*
D33*
X110400000Y-62500000D02*
X110550000Y-62650000D01*
%TO.N,ESP_VDD_HP*%
X108100000Y-59100000D02*
X108100000Y-59925000D01*
X119590861Y-58200000D02*
X119490861Y-58100000D01*
X114100000Y-49500000D02*
X114100000Y-48700000D01*
X114100000Y-48700000D02*
X113800000Y-48400000D01*
X121600000Y-48575000D02*
X119687700Y-50487300D01*
X119687700Y-50487300D02*
X119500000Y-50487300D01*
X119490861Y-58100000D02*
X118075000Y-58100000D01*
X108100000Y-59925000D02*
X108300000Y-60125000D01*
X119400000Y-48075000D02*
X119400000Y-50387300D01*
X119900000Y-58200000D02*
X119590861Y-58200000D01*
X119400000Y-50387300D02*
X119500000Y-50487300D01*
D35*
%TO.N,/Vin*%
X108000000Y-101900000D02*
X106200000Y-103700000D01*
X83900000Y-103700000D02*
X82300000Y-102100000D01*
X82300000Y-102100000D02*
X82300000Y-84705000D01*
X135400000Y-100800000D02*
X134300000Y-101900000D01*
X106200000Y-103700000D02*
X83900000Y-103700000D01*
X146750000Y-95850000D02*
X141800000Y-100800000D01*
X82300000Y-84705000D02*
X79637500Y-82042500D01*
X141800000Y-100800000D02*
X135400000Y-100800000D01*
X153400000Y-95850000D02*
X146750000Y-95850000D01*
X134300000Y-101900000D02*
X108000000Y-101900000D01*
D32*
%TO.N,VREF_2V5*%
X83900000Y-63300000D02*
X84325000Y-62875000D01*
D36*
X80800000Y-52100000D02*
X80800000Y-59350000D01*
X80800000Y-59350000D02*
X84325000Y-62875000D01*
D32*
X75300000Y-61275000D02*
X75300000Y-62700000D01*
X75900000Y-63300000D02*
X83900000Y-63300000D01*
X75300000Y-62700000D02*
X75900000Y-63300000D01*
D33*
%TO.N,ESP_LDO_VO2*%
X119800000Y-53600000D02*
X119800000Y-56100000D01*
X118275000Y-51900000D02*
X119400000Y-51900000D01*
X119400000Y-51900000D02*
X119777000Y-52277000D01*
X119800000Y-53600000D02*
X120100000Y-53300000D01*
X120100000Y-53300000D02*
X120100000Y-52478752D01*
X118075000Y-56500000D02*
X119400000Y-56500000D01*
X119777000Y-52277000D02*
X119898248Y-52277000D01*
X120100000Y-52478752D02*
X119898248Y-52277000D01*
X119800000Y-56100000D02*
X119400000Y-56500000D01*
D32*
%TO.N,ESP_LDO_VO3*%
X121300000Y-58300000D02*
X121300000Y-52300000D01*
X115700000Y-61025000D02*
X118575000Y-61025000D01*
X121300000Y-52300000D02*
X120605300Y-51605300D01*
D33*
X115700000Y-61025000D02*
X114150000Y-61025000D01*
X114150000Y-61025000D02*
X114100000Y-60975000D01*
X114100000Y-60975000D02*
X114100000Y-59911000D01*
D32*
X120605300Y-51605300D02*
X119583304Y-51605300D01*
X118575000Y-61025000D02*
X121300000Y-58300000D01*
D33*
X114100000Y-59911000D02*
X114111000Y-59900000D01*
%TO.N,/RESET*%
X101550000Y-45675000D02*
X92750000Y-45675000D01*
X92750000Y-45675000D02*
X91475000Y-44400000D01*
X91475000Y-44400000D02*
X91475000Y-41900000D01*
X91475000Y-41900000D02*
X91350000Y-41775000D01*
%TO.N,/ADC_DIN*%
X98800000Y-58900000D02*
X98800000Y-56000000D01*
X100350000Y-55086001D02*
X100350000Y-55150000D01*
X98045000Y-59655000D02*
X98800000Y-58900000D01*
X99713999Y-55086001D02*
X100350000Y-55086001D01*
X98800000Y-56000000D02*
X99713999Y-55086001D01*
X98045000Y-60700000D02*
X98045000Y-59655000D01*
D37*
%TO.N,/ADC_DADY*%
X101195000Y-60405000D02*
X101195000Y-60600000D01*
X101900000Y-53140520D02*
X101900000Y-59700000D01*
X101900000Y-59700000D02*
X101195000Y-60405000D01*
X103440520Y-51600000D02*
X101900000Y-53140520D01*
D33*
%TO.N,/ADC_CS*%
X104915072Y-51915072D02*
X104915072Y-51923510D01*
X102628000Y-54210582D02*
X102628000Y-60537400D01*
X104915072Y-51923510D02*
X102628000Y-54210582D01*
%TO.N,/RTC_MFP*%
X104300000Y-56800000D02*
X105627800Y-55472200D01*
X105627800Y-55472200D02*
X106672000Y-55472200D01*
X106672000Y-55472200D02*
X106734600Y-55409600D01*
X103600000Y-56800000D02*
X104300000Y-56800000D01*
%TO.N,/control*%
X95400000Y-79100000D02*
X99800000Y-83500000D01*
X95400000Y-70200000D02*
X95400000Y-79100000D01*
X97100000Y-68500000D02*
X95400000Y-70200000D01*
X97100000Y-54800000D02*
X97100000Y-68500000D01*
%TO.N,/BOOT_GPIO35*%
X122000000Y-38700000D02*
X105100000Y-38700000D01*
X125800000Y-42500000D02*
X122000000Y-38700000D01*
X105100000Y-38700000D02*
X102400000Y-41400000D01*
%TO.N,/FLASH_D*%
X122850000Y-73800000D02*
X122850000Y-77100000D01*
X122850000Y-77100000D02*
X122375000Y-77575000D01*
%TO.N,/RS485_RE*%
X123552000Y-71863000D02*
X126050000Y-74361000D01*
X121344000Y-67500000D02*
X123552000Y-69708000D01*
X112100000Y-67450000D02*
X114325015Y-67450000D01*
X114375015Y-67500000D02*
X121344000Y-67500000D01*
X114325015Y-67450000D02*
X114375015Y-67500000D01*
X123552000Y-69708000D02*
X123552000Y-71863000D01*
%TO.N,/FLASH_CK*%
X119200000Y-74475000D02*
X119200000Y-76100000D01*
X119200000Y-76100000D02*
X119350000Y-76250000D01*
%TO.N,/RS485_RX*%
X106800000Y-65100000D02*
X110100000Y-68400000D01*
X106790000Y-62400000D02*
X106800000Y-62410000D01*
X106800000Y-62410000D02*
X106800000Y-65100000D01*
X121300000Y-68400000D02*
X122854000Y-69954000D01*
X110100000Y-68400000D02*
X121300000Y-68400000D01*
X123848000Y-73680000D02*
X123848000Y-75853000D01*
X123848000Y-75853000D02*
X126016000Y-78021000D01*
X122854000Y-69954000D02*
X122854000Y-72686000D01*
X122854000Y-72686000D02*
X123848000Y-73680000D01*
%TO.N,/EN_DCDC*%
X139600000Y-43300000D02*
X139600000Y-44600000D01*
X139600000Y-44600000D02*
X138000000Y-46200000D01*
%TO.N,/RS485_TX*%
X123304000Y-66200000D02*
X125948000Y-68844000D01*
X109200000Y-66200000D02*
X123304000Y-66200000D01*
X125948000Y-68844000D02*
X125948000Y-70616000D01*
X109200000Y-66100000D02*
X109200000Y-66200000D01*
X108100000Y-65000000D02*
X109200000Y-66100000D01*
D36*
%TO.N,/Vin_A*%
X64550000Y-53250000D02*
X64550000Y-53900000D01*
X62200000Y-77300000D02*
X60700000Y-75800000D01*
X72700000Y-77300000D02*
X62200000Y-77300000D01*
X64550000Y-53250000D02*
X64500000Y-53300000D01*
X60700000Y-75800000D02*
X60700000Y-54900000D01*
X62350000Y-53250000D02*
X64550000Y-53250000D01*
X64500000Y-53300000D02*
X64100000Y-53300000D01*
X60700000Y-54900000D02*
X62350000Y-53250000D01*
D37*
%TO.N,/A*%
X151182000Y-74007500D02*
X153450000Y-71739500D01*
X153450000Y-71739500D02*
X153450000Y-71415000D01*
X151182000Y-76616500D02*
X151182000Y-74007500D01*
X153450000Y-71415000D02*
X153350000Y-71315000D01*
%TD*%
M02*
