M48
; DRILL file {KiCad 9.0.3} date 2025-10-29T14:16:56+0800
; FORMAT={-:-/ absolute / metric / decimal}
; #@! TF.CreationDate,2025-10-29T14:16:56+08:00
; #@! TF.GenerationSoftware,Kicad,Pcbnew,9.0.3
; #@! TF.FileFunction,Plated,1,4,PTH
FMAT,2
METRIC
; #@! TA.AperFunction,Plated,PTH,ViaDrill
T1C0.150
; #@! TA.AperFunction,Plated,PTH,ViaDrill
T2C0.200
; #@! TA.AperFunction,Plated,PTH,ViaDrill
T3C0.300
; #@! TA.AperFunction,Plated,PTH,ComponentDrill
T4C0.800
; #@! TA.AperFunction,Plated,PTH,ComponentDrill
T5C1.000
; #@! TA.AperFunction,Plated,PTH,ComponentDrill
T6C1.100
; #@! TA.AperFunction,Plated,PTH,ComponentDrill
T7C1.300
; #@! TA.AperFunction,Plated,PTH,ComponentDrill
T8C1.520
; #@! TA.AperFunction,Plated,PTH,ComponentDrill
T9C1.900
%
G90
G05
T1
X104.7Y-103.35
X107.65Y-108.95
X107.8Y-67.85
X107.9Y-73.5
X110.6Y-92.3
X110.85Y-85.7
X110.95Y-68.25
X112.5Y-109.6
X113.35Y-104.65
X114.5Y-68.2
X115.55Y-82.6
X116.45Y-82.9
X116.75Y-65.25
X116.8Y-91.3
X117.1Y-100.85
X117.15Y-92.45
X117.55Y-109.35
X118.35Y-82.35
X118.7Y-83.75
X118.75Y-101.5
X119.1Y-84.55
X119.85Y-92.35
X120.05Y-90.5
X120.5Y-81.1
X120.7Y-101.4
X120.899Y-74.0
X120.899Y-73.349
X121.2Y-72.801
X121.75Y-90.3
X122.3Y-94.475
X122.4Y-71.075
X122.4Y-77.0
X122.5Y-75.3
X122.546Y-81.654
X122.7Y-92.4
X123.173Y-80.618
X123.7Y-80.6
X123.85Y-85.45
X124.1Y-109.35
X124.2Y-87.85
X124.4Y-95.0
X124.4Y-101.75
X124.45Y-82.0
X124.55Y-66.85
X124.577Y-79.873
X125.6Y-91.25
X125.759Y-80.373
X125.8Y-88.8
X126.0Y-99.9
X126.146Y-79.994
X126.475Y-66.9
X126.6Y-95.95
X126.875Y-82.3
X127.211Y-79.736
X127.246Y-80.549
X127.3Y-85.6
X127.8Y-85.1
X127.9Y-84.65
X128.05Y-72.65
X128.2Y-67.1
X128.6Y-78.3
X128.95Y-109.85
X129.85Y-57.1
X129.95Y-105.8
X130.25Y-106.35
X130.325Y-66.9
X130.4Y-64.45
X131.95Y-57.45
X132.65Y-106.35
X133.1Y-59.7
X133.609Y-70.76
X133.609Y-73.9
X133.8Y-76.7
X133.825Y-68.94
X135.2Y-57.2
X135.7Y-59.65
X136.125Y-72.45
X136.2Y-106.05
X136.35Y-106.8
X136.725Y-102.175
X137.15Y-56.85
X138.35Y-58.3
X140.55Y-59.1
X142.0Y-92.6
X143.599Y-61.399
X146.15Y-66.55
X146.906Y-88.047
X147.7Y-99.0
X147.7Y-99.5
X148.061Y-87.877
X148.2Y-99.0
X149.45Y-102.0
X149.75Y-109.25
X150.225Y-89.57
X151.075Y-81.17
X151.1Y-59.7
X151.575Y-80.62
X153.096Y-98.975
X154.372Y-60.476
X154.65Y-62.9
X154.7Y-64.65
X155.95Y-108.7
X156.056Y-80.003
X156.9Y-63.75
X158.15Y-65.05
X159.6Y-70.5
X160.4Y-63.45
X161.7Y-59.3
X161.85Y-108.75
X162.3Y-63.15
X162.9Y-64.5
X163.05Y-58.8
X164.1Y-60.3
X165.55Y-57.35
X167.65Y-107.75
X169.7Y-70.45
X171.15Y-68.1
X171.35Y-65.35
X171.95Y-65.85
X172.7Y-70.05
X172.8Y-67.45
X173.6Y-80.55
X173.65Y-97.45
X173.65Y-104.2
X173.8Y-102.3
X174.05Y-84.4
X174.25Y-89.4
T2
X114.25Y-70.125
X134.8Y-68.5
T3
X108.8Y-106.0
X113.1Y-75.4
X114.3Y-65.3
X117.082Y-70.582
X117.3Y-90.4
X117.3Y-96.0
X118.575Y-87.6
X119.0Y-65.7
X119.7Y-76.6
X120.0Y-87.6
X120.9Y-62.5
X121.393Y-83.727
X122.135Y-85.317
X122.5Y-80.8
X123.249Y-83.151
X124.903Y-91.836
X125.2Y-58.6
X125.6Y-64.4
X126.6Y-93.6
X129.175Y-98.1
X129.3Y-62.9
X129.395Y-73.995
X129.73Y-90.056
X129.73Y-91.289
X129.73Y-92.521
X130.2Y-82.1
X132.0Y-84.44
X132.1Y-78.5
X132.1Y-95.9
X132.1Y-96.9
X132.6Y-99.9
X133.1Y-95.9
X133.1Y-96.9
X133.2Y-98.2
X133.5Y-93.7
X133.9Y-74.911
X134.11Y-68.11
X134.2Y-71.9
X134.45Y-70.95
X135.3Y-70.025
X135.6Y-65.36
X136.7Y-87.8
X137.0Y-58.5
X137.1Y-65.4
X139.3Y-71.4
X140.5Y-98.2
X140.9Y-99.9
X141.882Y-61.182
X142.4Y-101.5
X142.459Y-81.558
X142.5Y-108.0
X143.2Y-91.4
X144.8Y-72.0
X144.8Y-74.4
X144.825Y-76.775
X144.9Y-108.0
X146.1Y-67.4
X149.5Y-102.8
X149.8Y-69.0
X149.8Y-70.1
X149.9Y-93.0
X150.9Y-70.1
X151.0Y-69.0
X152.2Y-91.2
X152.988Y-101.285
X153.1Y-57.6
X153.426Y-100.608
X153.5Y-101.9
X153.791Y-87.832
X154.4Y-73.4
X154.4Y-76.3
X154.6Y-71.85
X154.7Y-74.4
X155.3Y-94.425
X155.75Y-81.35
X156.3Y-99.0
X157.2Y-72.0
X157.2Y-96.0
X157.4Y-100.1
X157.4Y-101.9
X158.781Y-89.977
X158.8Y-79.0
X160.0Y-72.8
X161.275Y-75.875
X162.1Y-76.1
X162.2Y-92.4
X162.5Y-95.3
X164.6Y-61.8
X166.4Y-63.9
T4
X156.508Y-84.524
X156.508Y-87.064
T5
X104.442Y-73.891
X114.137Y-77.658
X114.965Y-108.724
X145.105Y-85.435
X145.152Y-88.806
X145.201Y-81.94
X166.03Y-106.686
T6
X104.51Y-66.56
X104.51Y-69.1
T7
X169.925Y-79.19
X169.925Y-84.27
X169.925Y-89.35
X170.062Y-96.859
X170.062Y-101.939
T8
X168.65Y-61.455
X168.65Y-72.695
T9
X172.65Y-61.455
X172.65Y-72.695
M30
