%TF.GenerationSoftware,KiCad,Pcbnew,9.0.3*%
%TF.CreationDate,2025-10-29T14:16:54+08:00*%
%TF.ProjectId,fixed_colimador,66697865-645f-4636-9f6c-696d61646f72,rev?*%
%TF.SameCoordinates,Original*%
%TF.FileFunction,Copper,L4,Bot*%
%TF.FilePolarity,Positive*%
%FSLAX46Y46*%
G04 Gerber Fmt 4.6, Leading zero omitted, Abs format (unit mm)*
G04 Created by KiCad (PCBNEW 9.0.3) date 2025-10-29 14:16:54*
%MOMM*%
%LPD*%
G01*
G04 APERTURE LIST*
G04 Aperture macros list*
%AMRoundRect*
0 Rectangle with rounded corners*
0 $1 Rounding radius*
0 $2 $3 $4 $5 $6 $7 $8 $9 X,Y pos of 4 corners*
0 Add a 4 corners polygon primitive as box body*
4,1,4,$2,$3,$4,$5,$6,$7,$8,$9,$2,$3,0*
0 Add four circle primitives for the rounded corners*
1,1,$1+$1,$2,$3*
1,1,$1+$1,$4,$5*
1,1,$1+$1,$6,$7*
1,1,$1+$1,$8,$9*
0 Add four rect primitives between the rounded corners*
20,1,$1+$1,$2,$3,$4,$5,0*
20,1,$1+$1,$4,$5,$6,$7,0*
20,1,$1+$1,$6,$7,$8,$9,0*
20,1,$1+$1,$8,$9,$2,$3,0*%
G04 Aperture macros list end*
%TA.AperFunction,ComponentPad*%
%ADD10C,2.000000*%
%TD*%
%TA.AperFunction,ComponentPad*%
%ADD11C,2.280000*%
%TD*%
%TA.AperFunction,ComponentPad*%
%ADD12C,2.850000*%
%TD*%
%TA.AperFunction,ComponentPad*%
%ADD13RoundRect,0.250000X-1.050000X1.050000X-1.050000X-1.050000X1.050000X-1.050000X1.050000X1.050000X0*%
%TD*%
%TA.AperFunction,ComponentPad*%
%ADD14C,2.600000*%
%TD*%
%TA.AperFunction,WasherPad*%
%ADD15C,1.400000*%
%TD*%
%TA.AperFunction,ComponentPad*%
%ADD16RoundRect,0.249999X0.850001X-0.850001X0.850001X0.850001X-0.850001X0.850001X-0.850001X-0.850001X0*%
%TD*%
%TA.AperFunction,ComponentPad*%
%ADD17C,2.200000*%
%TD*%
%TA.AperFunction,ComponentPad*%
%ADD18C,1.400000*%
%TD*%
%TA.AperFunction,SMDPad,CuDef*%
%ADD19RoundRect,0.225000X0.225000X0.250000X-0.225000X0.250000X-0.225000X-0.250000X0.225000X-0.250000X0*%
%TD*%
%TA.AperFunction,SMDPad,CuDef*%
%ADD20RoundRect,0.225000X-0.225000X-0.250000X0.225000X-0.250000X0.225000X0.250000X-0.225000X0.250000X0*%
%TD*%
%TA.AperFunction,SMDPad,CuDef*%
%ADD21RoundRect,0.225000X-0.250000X0.225000X-0.250000X-0.225000X0.250000X-0.225000X0.250000X0.225000X0*%
%TD*%
%TA.AperFunction,SMDPad,CuDef*%
%ADD22RoundRect,0.225000X0.250000X-0.225000X0.250000X0.225000X-0.250000X0.225000X-0.250000X-0.225000X0*%
%TD*%
%TA.AperFunction,SMDPad,CuDef*%
%ADD23RoundRect,0.250000X0.412500X0.650000X-0.412500X0.650000X-0.412500X-0.650000X0.412500X-0.650000X0*%
%TD*%
%TA.AperFunction,ViaPad*%
%ADD24C,0.600000*%
%TD*%
%TA.AperFunction,ViaPad*%
%ADD25C,0.250000*%
%TD*%
%TA.AperFunction,ViaPad*%
%ADD26C,0.300000*%
%TD*%
%TA.AperFunction,Conductor*%
%ADD27C,0.200000*%
%TD*%
%TA.AperFunction,Conductor*%
%ADD28C,0.120000*%
%TD*%
%TA.AperFunction,Conductor*%
%ADD29C,0.400000*%
%TD*%
G04 APERTURE END LIST*
D10*
%TO.P,6V1,1,1*%
%TO.N,6V*%
X114137000Y-77658000D03*
%TD*%
%TO.P,RX1,1,1*%
%TO.N,/RS485_RX*%
X145152000Y-88806000D03*
%TD*%
%TO.P,TX1,1,1*%
%TO.N,/RS485_TX*%
X145201000Y-81940000D03*
%TD*%
%TO.P,RE1,1,1*%
%TO.N,/RS485_RE*%
X145105000Y-85435000D03*
%TD*%
%TO.P,3V3,1,1*%
%TO.N,VCC_3V3*%
X114965000Y-108724000D03*
%TD*%
%TO.P,5V1,1,1*%
%TO.N,AVDD_5V0*%
X104442000Y-73891000D03*
%TD*%
D11*
%TO.P,U4,MH1,MH1*%
%TO.N,GND*%
X168650000Y-72695000D03*
%TO.P,U4,MH2,MH2*%
X168650000Y-61455000D03*
D12*
%TO.P,U4,MH3,MH3*%
X172650000Y-72695000D03*
%TO.P,U4,MH4,MH4*%
X172650000Y-61455000D03*
%TD*%
D10*
%TO.P,12V1,1,1*%
%TO.N,/Vin*%
X166030000Y-106686000D03*
%TD*%
D13*
%TO.P,J6,1,Pin_1*%
%TO.N,/Vin*%
X170062000Y-96859000D03*
D14*
%TO.P,J6,2,Pin_2*%
%TO.N,GND*%
X170062000Y-101939000D03*
%TD*%
D13*
%TO.P,J1,1,Pin_1*%
%TO.N,GND*%
X169925000Y-79190000D03*
D14*
%TO.P,J1,2,Pin_2*%
%TO.N,/B*%
X169925000Y-84270000D03*
%TO.P,J1,3,Pin_3*%
%TO.N,/A*%
X169925000Y-89350000D03*
%TD*%
D15*
%TO.P,J2,*%
%TO.N,*%
X108775000Y-98825000D03*
X108775000Y-91325000D03*
%TD*%
D16*
%TO.P,J3,1,Pin_1*%
%TO.N,AVDD_5V0*%
X104510000Y-69100000D03*
D17*
%TO.P,J3,2,Pin_2*%
%TO.N,GND*%
X104510000Y-66560000D03*
%TD*%
D18*
%TO.P,JP1,1,A*%
%TO.N,Net-(JP1-A)*%
X156508000Y-84524000D03*
%TO.P,JP1,2,B*%
%TO.N,/A*%
X156508000Y-87064000D03*
%TD*%
D19*
%TO.P,C23,1*%
%TO.N,VCC_3V3*%
X121475000Y-75300000D03*
%TO.P,C23,2*%
%TO.N,GND*%
X119925000Y-75300000D03*
%TD*%
D20*
%TO.P,C28,1*%
%TO.N,VCC_3V3*%
X123525000Y-71100000D03*
%TO.P,C28,2*%
%TO.N,GND*%
X125075000Y-71100000D03*
%TD*%
D21*
%TO.P,C19,1*%
%TO.N,VCC_3V3*%
X126500000Y-67825000D03*
%TO.P,C19,2*%
%TO.N,GND*%
X126500000Y-69375000D03*
%TD*%
D19*
%TO.P,C92,1*%
%TO.N,ESP_LDO_VO2*%
X132475000Y-74800000D03*
%TO.P,C92,2*%
%TO.N,GND*%
X130925000Y-74800000D03*
%TD*%
D20*
%TO.P,C29,1*%
%TO.N,VCC_3V3*%
X123525000Y-72700000D03*
%TO.P,C29,2*%
%TO.N,GND*%
X125075000Y-72700000D03*
%TD*%
D22*
%TO.P,C91,1*%
%TO.N,ESP_LDO_VO1*%
X124700000Y-77175000D03*
%TO.P,C91,2*%
%TO.N,GND*%
X124700000Y-75625000D03*
%TD*%
D19*
%TO.P,C17,1*%
%TO.N,VCC_3V3*%
X122375000Y-65700000D03*
%TO.P,C17,2*%
%TO.N,GND*%
X120825000Y-65700000D03*
%TD*%
D21*
%TO.P,C24,1*%
%TO.N,VCC_3V3*%
X124900000Y-67825000D03*
%TO.P,C24,2*%
%TO.N,GND*%
X124900000Y-69375000D03*
%TD*%
D23*
%TO.P,C16,1*%
%TO.N,VCC_3V3*%
X123162500Y-67700000D03*
%TO.P,C16,2*%
%TO.N,GND*%
X120037500Y-67700000D03*
%TD*%
%TO.P,C30,1*%
%TO.N,ESP_VDD_HP*%
X133662500Y-65500000D03*
%TO.P,C30,2*%
%TO.N,GND*%
X130537500Y-65500000D03*
%TD*%
D19*
%TO.P,C25,1*%
%TO.N,ESP_LDO_VO1*%
X132675000Y-71400000D03*
%TO.P,C25,2*%
%TO.N,GND*%
X131125000Y-71400000D03*
%TD*%
D21*
%TO.P,C33,1*%
%TO.N,ESP_VDD_HP*%
X128200000Y-67800000D03*
%TO.P,C33,2*%
%TO.N,GND*%
X128200000Y-69350000D03*
%TD*%
D19*
%TO.P,C32,1*%
%TO.N,ESP_VDD_HP*%
X132475000Y-76700000D03*
%TO.P,C32,2*%
%TO.N,GND*%
X130925000Y-76700000D03*
%TD*%
D21*
%TO.P,C94,1*%
%TO.N,ESP_LDO_VO3*%
X130200000Y-79325000D03*
%TO.P,C94,2*%
%TO.N,GND*%
X130200000Y-80875000D03*
%TD*%
%TO.P,C27,1*%
%TO.N,VCC_3V3*%
X129800000Y-67825000D03*
%TO.P,C27,2*%
%TO.N,GND*%
X129800000Y-69375000D03*
%TD*%
D19*
%TO.P,C26,1*%
%TO.N,VCC_3V3*%
X132475000Y-73200000D03*
%TO.P,C26,2*%
%TO.N,GND*%
X130925000Y-73200000D03*
%TD*%
D21*
%TO.P,C93,1*%
%TO.N,ESP_LDO_VO3*%
X128600000Y-79325000D03*
%TO.P,C93,2*%
%TO.N,GND*%
X128600000Y-80875000D03*
%TD*%
%TO.P,C34,1*%
%TO.N,ESP_VDD_HP*%
X122500000Y-78225000D03*
%TO.P,C34,2*%
%TO.N,GND*%
X122500000Y-79775000D03*
%TD*%
D19*
%TO.P,C31,1*%
%TO.N,ESP_VDD_HP*%
X132900000Y-68000000D03*
%TO.P,C31,2*%
%TO.N,GND*%
X131350000Y-68000000D03*
%TD*%
D24*
%TO.N,GND*%
X158800000Y-79000000D03*
D25*
X122300000Y-94475000D03*
X167650000Y-107750000D03*
D24*
X140500000Y-98200000D03*
D25*
X117550000Y-109350000D03*
X142000000Y-92600000D03*
D24*
X162200000Y-92400000D03*
X162100000Y-76100000D03*
D25*
X122700000Y-92400000D03*
X121750000Y-90300000D03*
X117100000Y-100850000D03*
X110600000Y-92300000D03*
X123850000Y-85450000D03*
X147700000Y-99000000D03*
X132650000Y-106350000D03*
X173650000Y-104200000D03*
X149750000Y-109250000D03*
X137150000Y-56850000D03*
D24*
X157200000Y-96000000D03*
D25*
X129850000Y-57100000D03*
D24*
X157400000Y-101900000D03*
X119000000Y-65700000D03*
D25*
X162300000Y-63150000D03*
D24*
X144900000Y-108000000D03*
D25*
X151575000Y-80620000D03*
D24*
X154400000Y-76300000D03*
X154400000Y-73400000D03*
D25*
X126000000Y-99900000D03*
X124400000Y-101750000D03*
D24*
X119700000Y-76600000D03*
X164600000Y-61800000D03*
D25*
X130400000Y-64450000D03*
X112500000Y-109600000D03*
X116800000Y-91300000D03*
X117150000Y-92450000D03*
X107900000Y-73500000D03*
X135700000Y-59650000D03*
X135200000Y-57200000D03*
X116750000Y-65250000D03*
X174050000Y-84400000D03*
X107650000Y-108950000D03*
X118700000Y-83750000D03*
D24*
X130200000Y-82100000D03*
D25*
X162900000Y-64500000D03*
X128050030Y-72649920D03*
D24*
X166400000Y-63900000D03*
D25*
X169700000Y-70450000D03*
X124200000Y-87850000D03*
D24*
X153791000Y-87832000D03*
X120900000Y-62500000D03*
D25*
X172700000Y-70050000D03*
X104700000Y-103350000D03*
D24*
X142500000Y-108000000D03*
X137100000Y-65400000D03*
D25*
X149450000Y-102000000D03*
X154700000Y-64650000D03*
D24*
X108800000Y-106000000D03*
D25*
X129950000Y-105800000D03*
X161700000Y-59300000D03*
X147700000Y-99500000D03*
D24*
X149900000Y-93000000D03*
D25*
X174250000Y-89400000D03*
D24*
X142459000Y-81558000D03*
D25*
X171350000Y-65350000D03*
X124100000Y-109350000D03*
X155950000Y-108700000D03*
X151100000Y-59700000D03*
X159600000Y-70500000D03*
X110850000Y-85700000D03*
X172800000Y-67450000D03*
X119850000Y-92350000D03*
D24*
X144800000Y-72000000D03*
X117300000Y-96000000D03*
D25*
X173600000Y-80550000D03*
X114500000Y-68200000D03*
X164100000Y-60300000D03*
D24*
X113100000Y-75400000D03*
X144800000Y-74400000D03*
D25*
X143598821Y-61398821D03*
D24*
X136700000Y-87800000D03*
X135600000Y-65360000D03*
X157400000Y-100100000D03*
D25*
X120700000Y-101400000D03*
X140550000Y-59100000D03*
X160400000Y-63450000D03*
X131950000Y-57450000D03*
D24*
X117300000Y-90400000D03*
D25*
X128950000Y-109850000D03*
D24*
X129395030Y-73994920D03*
X117082500Y-70582500D03*
D25*
X124400000Y-95000000D03*
D24*
X152987851Y-101285421D03*
X129300000Y-62900000D03*
D25*
X126600000Y-95950000D03*
X154650000Y-62900000D03*
D24*
X152200000Y-91200000D03*
D25*
X110950000Y-68250000D03*
D24*
X125600000Y-64400000D03*
D25*
X113350000Y-104650000D03*
D24*
X140900000Y-99900000D03*
D25*
X161850000Y-108750000D03*
X148200000Y-99000000D03*
X171150000Y-68100000D03*
D24*
X162500000Y-95300000D03*
D25*
X120050000Y-90500000D03*
X173800000Y-102300000D03*
X125600000Y-91250000D03*
D24*
X157200000Y-72000000D03*
X139300000Y-71400000D03*
D25*
X148061000Y-87877000D03*
D24*
X126600000Y-93600000D03*
D25*
X171950000Y-65850000D03*
X133100000Y-59700000D03*
X173650000Y-97450000D03*
D24*
X144825000Y-76775000D03*
D25*
X118750000Y-101500000D03*
D24*
X114300000Y-65300000D03*
D25*
X116450000Y-82900000D03*
D24*
X143200000Y-91400000D03*
X160000000Y-72800000D03*
D25*
X150225000Y-89570000D03*
X165550000Y-57350000D03*
X156900000Y-63750000D03*
X125800000Y-88800000D03*
D24*
X125200000Y-58600000D03*
D25*
X136200000Y-106050000D03*
X156056000Y-80003000D03*
X163050000Y-58800000D03*
X151075000Y-81170000D03*
X136350000Y-106800000D03*
X138350000Y-58300000D03*
D24*
X132600000Y-99900000D03*
D25*
X158150000Y-65050000D03*
X130250000Y-106350000D03*
D24*
X122500000Y-80800000D03*
D25*
X107800000Y-67850000D03*
X136725000Y-102175000D03*
X146906000Y-88047000D03*
X115550000Y-82600000D03*
D26*
%TO.N,6V*%
X114250000Y-70125000D03*
D24*
X142400000Y-101500000D03*
%TO.N,Net-(IC7-RUN)*%
X149500000Y-102800000D03*
X153500000Y-101900000D03*
%TO.N,Net-(IC7-FB)*%
X155300000Y-94425000D03*
D25*
X153096000Y-98975000D03*
D24*
%TO.N,Net-(IC7-PG)*%
X156300000Y-99000000D03*
X153426000Y-100608000D03*
D25*
%TO.N,VCC_3V3*%
X133609300Y-73900000D03*
D24*
X158781000Y-89977000D03*
X132100000Y-96900000D03*
D25*
X124550000Y-66850000D03*
D26*
X134800000Y-68500000D03*
D24*
X137000000Y-58500000D03*
X118575000Y-87600000D03*
X133100000Y-95900000D03*
D25*
X126474970Y-66900000D03*
D24*
X133100000Y-96900000D03*
X132100000Y-78500000D03*
X134109557Y-68109557D03*
X132100000Y-95900000D03*
X120000000Y-87600000D03*
X141882500Y-61182500D03*
X153100000Y-57600000D03*
D25*
X122500000Y-75300000D03*
D24*
X155750000Y-81350000D03*
X161275000Y-75875000D03*
D25*
X130325100Y-66900000D03*
D24*
%TO.N,/FB_DCDC*%
X154600000Y-71850000D03*
D25*
X146150000Y-66550000D03*
D24*
%TO.N,/EN_DCDC*%
X154700000Y-74400000D03*
X146100000Y-67400000D03*
D25*
%TO.N,/RS485_TX*%
X127300000Y-85600000D03*
X122545952Y-81654048D03*
%TO.N,/RS485_RE*%
X127900000Y-84650000D03*
X123700000Y-80600000D03*
%TO.N,/RS485_RX*%
X127800000Y-85100000D03*
X123173204Y-80617677D03*
%TO.N,ESP_LDO_VO1*%
X126146216Y-79993884D03*
X126875000Y-82300000D03*
X133609300Y-70759850D03*
%TO.N,/FLASH_CK*%
X127210574Y-79735574D03*
D24*
X129730000Y-91288700D03*
%TO.N,/FLASH_D*%
X133500000Y-93700000D03*
X132000000Y-84440000D03*
%TO.N,/FLASH_HD*%
X129730000Y-90056200D03*
D25*
X127245850Y-80549044D03*
D24*
%TO.N,/FLASH_WP*%
X129730000Y-92521200D03*
D25*
X125759288Y-80373264D03*
%TO.N,/FLASH_Q*%
X124450000Y-82000000D03*
X124576981Y-79873019D03*
%TO.N,VCC_3V3*%
X122400000Y-71074870D03*
D24*
%TO.N,ESP_VDD_HP*%
X149800000Y-70100000D03*
D25*
X133800000Y-76700000D03*
X128200000Y-67100000D03*
X133825200Y-68939800D03*
D24*
X151000000Y-69000000D03*
X149800000Y-69000000D03*
D25*
X122400000Y-77000000D03*
D24*
X150900000Y-70100000D03*
%TO.N,ESP_LDO_VO2*%
X134200000Y-71900000D03*
X134450000Y-70950000D03*
X133900000Y-74910995D03*
%TO.N,ESP_LDO_VO3*%
X135300000Y-70024830D03*
D25*
X128600000Y-78300000D03*
%TO.N,/RTC_MFP*%
X118350000Y-82350000D03*
X119100000Y-84550000D03*
D24*
%TO.N,/RTC_SCK*%
X121393165Y-83726835D03*
D25*
X120500000Y-81100000D03*
%TO.N,/RTC_SO*%
X121200000Y-72801200D03*
D24*
X122135000Y-85317200D03*
D25*
%TO.N,/RTC_SI*%
X120899000Y-73348945D03*
D24*
X123249265Y-83150735D03*
%TO.N,/RTC_CS*%
X124903000Y-91835900D03*
D25*
X120898999Y-74000040D03*
D24*
%TO.N,DVDD_3V3*%
X133200000Y-98200000D03*
X129175000Y-98100000D03*
D25*
%TO.N,/BOOT_GPIO35*%
X136125000Y-72450000D03*
X154372000Y-60476200D03*
%TD*%
D27*
%TO.N,/FLASH_HD*%
X127244850Y-81144850D02*
X129730000Y-83630000D01*
X129730000Y-83630000D02*
X129730000Y-90056200D01*
X127244850Y-80554150D02*
X127244850Y-81144850D01*
%TO.N,/FLASH_CK*%
X126644850Y-81244850D02*
X128782300Y-83382300D01*
X126644850Y-80305207D02*
X126644850Y-81244850D01*
X128782300Y-90341000D02*
X129730000Y-91288700D01*
X126919383Y-80030674D02*
X126644850Y-80305207D01*
X126919383Y-80026766D02*
X126919383Y-80030674D01*
X127210574Y-79735574D02*
X126919383Y-80026766D01*
X128782300Y-83382300D02*
X128782300Y-90341000D01*
D28*
%TO.N,ESP_LDO_VO1*%
X126150000Y-79997668D02*
X126146216Y-79993884D01*
X126875000Y-82275000D02*
X126150000Y-81550000D01*
X126875000Y-82300000D02*
X126875000Y-82275000D01*
X126150000Y-81550000D02*
X126150000Y-79997668D01*
D29*
%TO.N,GND*%
X130800000Y-69375000D02*
X129800000Y-69375000D01*
X131125000Y-69700000D02*
X130800000Y-69375000D01*
D27*
X125075000Y-72700000D02*
X125075000Y-71100000D01*
%TO.N,VCC_3V3*%
X123525000Y-72700000D02*
X123525000Y-71100000D01*
D29*
%TO.N,GND*%
X131125000Y-69700000D02*
X131125000Y-71400000D01*
X125074950Y-75625000D02*
X128050030Y-72649920D01*
X130200110Y-74800000D02*
X129395030Y-73994920D01*
X130925000Y-74800000D02*
X130200110Y-74800000D01*
X124700000Y-75625000D02*
X125074950Y-75625000D01*
X126500110Y-71100000D02*
X128050030Y-72649920D01*
X125075000Y-71100000D02*
X125075000Y-69550000D01*
X126500000Y-69375000D02*
X128175000Y-69375000D01*
D28*
X122500000Y-79775000D02*
X122500000Y-80800000D01*
D29*
X130925000Y-76700000D02*
X130925000Y-74800000D01*
X125075000Y-71100000D02*
X126500110Y-71100000D01*
X131350000Y-66312500D02*
X130537500Y-65500000D01*
X130400000Y-65362500D02*
X130537500Y-65500000D01*
X119925000Y-76375000D02*
X119700000Y-76600000D01*
X129775000Y-69350000D02*
X129800000Y-69375000D01*
X120037500Y-66487500D02*
X120825000Y-65700000D01*
X125075000Y-69550000D02*
X124900000Y-69375000D01*
X131350000Y-68000000D02*
X131350000Y-66312500D01*
X131125000Y-73000000D02*
X130925000Y-73200000D01*
X120825000Y-65700000D02*
X119000000Y-65700000D01*
X128175000Y-69375000D02*
X128200000Y-69350000D01*
X120037500Y-67700000D02*
X120037500Y-66487500D01*
X128200000Y-69350000D02*
X129775000Y-69350000D01*
X130925000Y-73200000D02*
X130925000Y-74800000D01*
X130200000Y-80875000D02*
X130200000Y-82100000D01*
X128600000Y-80875000D02*
X130200000Y-80875000D01*
X119925000Y-75300000D02*
X119925000Y-76375000D01*
X124900000Y-69375000D02*
X126500000Y-69375000D01*
X130400000Y-64450000D02*
X130400000Y-65362500D01*
%TO.N,6V*%
X114250000Y-70125000D02*
X114250000Y-100718000D01*
X122300000Y-108800000D02*
X138400000Y-108800000D01*
X114250000Y-100718000D02*
X117375000Y-103843000D01*
X138400000Y-108800000D02*
X142400000Y-104800000D01*
X117375000Y-103875000D02*
X122300000Y-108800000D01*
X142400000Y-104800000D02*
X142400000Y-101500000D01*
X117375000Y-103843000D02*
X117375000Y-103875000D01*
D28*
%TO.N,Net-(IC7-RUN)*%
X149800000Y-102500000D02*
X152900000Y-102500000D01*
X152900000Y-102500000D02*
X153500000Y-101900000D01*
X149500000Y-102800000D02*
X149800000Y-102500000D01*
D27*
%TO.N,Net-(IC7-FB)*%
X153096000Y-98975000D02*
X153096000Y-98987900D01*
D28*
X155300000Y-96771000D02*
X153096000Y-98975000D01*
X155300000Y-94425000D02*
X155300000Y-96771000D01*
%TO.N,Net-(IC7-PG)*%
X154692000Y-100608000D02*
X153426000Y-100608000D01*
X156300000Y-99000000D02*
X154692000Y-100608000D01*
D29*
%TO.N,VCC_3V3*%
X132909300Y-73200000D02*
X133609300Y-73900000D01*
X121475000Y-75300000D02*
X122500000Y-75300000D01*
X124900000Y-67200000D02*
X124550000Y-66850000D01*
X123700000Y-67700000D02*
X124550000Y-66850000D01*
X122600000Y-65700000D02*
X123200000Y-66300000D01*
X123200000Y-66300000D02*
X123162500Y-66337500D01*
X129800000Y-67425100D02*
X130325100Y-66900000D01*
X122375000Y-65700000D02*
X122600000Y-65700000D01*
D28*
X126500000Y-67825000D02*
X126500000Y-66925030D01*
D29*
X132475000Y-73200000D02*
X132909300Y-73200000D01*
X129800000Y-67825000D02*
X129800000Y-67425100D01*
X123162500Y-66337500D02*
X123162500Y-67700000D01*
D28*
X126500000Y-66925030D02*
X126474970Y-66900000D01*
D29*
X123162500Y-67700000D02*
X123700000Y-67700000D01*
X124900000Y-67825000D02*
X124900000Y-67200000D01*
D28*
%TO.N,/FB_DCDC*%
X153100000Y-67700000D02*
X154600000Y-69200000D01*
X147300000Y-67700000D02*
X153100000Y-67700000D01*
X154600000Y-69200000D02*
X154600000Y-71850000D01*
X146150000Y-66550000D02*
X147300000Y-67700000D01*
%TO.N,/EN_DCDC*%
X153000000Y-68900000D02*
X152121000Y-68021000D01*
X153000000Y-73500000D02*
X153000000Y-68900000D01*
X153900000Y-74400000D02*
X153000000Y-73500000D01*
X152121000Y-68021000D02*
X146721000Y-68021000D01*
X146721000Y-68021000D02*
X146100000Y-67400000D01*
X154700000Y-74400000D02*
X153900000Y-74400000D01*
%TO.N,/RS485_TX*%
X122545952Y-81654048D02*
X126491904Y-85600000D01*
X126491904Y-85600000D02*
X127300000Y-85600000D01*
%TO.N,/RS485_RE*%
X123700000Y-81795887D02*
X123700000Y-80600000D01*
X127900000Y-84650000D02*
X126554113Y-84650000D01*
X126554113Y-84650000D02*
X123700000Y-81795887D01*
%TO.N,/RS485_RX*%
X126550000Y-85100000D02*
X123173204Y-81723204D01*
X123173204Y-81723204D02*
X123173204Y-80617677D01*
X127800000Y-85100000D02*
X126550000Y-85100000D01*
%TO.N,ESP_LDO_VO1*%
X126146216Y-79993884D02*
X126146216Y-79986316D01*
D29*
X124700000Y-78547668D02*
X126146216Y-79993884D01*
D28*
X126146216Y-79986316D02*
X124700000Y-78540100D01*
D29*
X130076000Y-72324000D02*
X128200000Y-74200000D01*
X132675000Y-72025000D02*
X132376000Y-72324000D01*
X132376000Y-72324000D02*
X130076000Y-72324000D01*
X132675000Y-71400000D02*
X132675000Y-72025000D01*
X126625000Y-77175000D02*
X124700000Y-77175000D01*
X128200000Y-74200000D02*
X128200000Y-75600000D01*
X132969150Y-71400000D02*
X133609300Y-70759850D01*
D28*
X133549450Y-70700000D02*
X133609300Y-70759850D01*
D29*
X132675000Y-71400000D02*
X132969150Y-71400000D01*
X124700000Y-77175000D02*
X124700000Y-78547668D01*
X128200000Y-75600000D02*
X126625000Y-77175000D01*
D27*
%TO.N,/FLASH_CK*%
X127217458Y-79728691D02*
X127210574Y-79735574D01*
%TO.N,/FLASH_D*%
X133500000Y-93700000D02*
X133500000Y-85940000D01*
X133500000Y-85940000D02*
X132000000Y-84440000D01*
D28*
%TO.N,/FLASH_WP*%
X128400000Y-84500000D02*
X128400000Y-91191200D01*
X128400000Y-91191200D02*
X129730000Y-92521200D01*
X125829000Y-81929000D02*
X128400000Y-84500000D01*
X125829000Y-80442976D02*
X125829000Y-81929000D01*
X125759288Y-80373264D02*
X125829000Y-80442976D01*
%TO.N,/FLASH_Q*%
X124364000Y-80086000D02*
X124576981Y-79873019D01*
X124364000Y-81914000D02*
X124364000Y-80086000D01*
X124450000Y-82000000D02*
X124364000Y-81914000D01*
D29*
%TO.N,VCC_3V3*%
X122425130Y-71100000D02*
X122400000Y-71074870D01*
X123525000Y-71100000D02*
X122425130Y-71100000D01*
D27*
%TO.N,ESP_VDD_HP*%
X133662500Y-67237500D02*
X132900000Y-68000000D01*
X122500000Y-77100000D02*
X122400000Y-77000000D01*
D28*
X133860200Y-68939800D02*
X133825200Y-68939800D01*
D27*
X122500000Y-78225000D02*
X122500000Y-77100000D01*
X128200000Y-67800000D02*
X128200000Y-67100000D01*
X132900000Y-68000000D02*
X132900000Y-68014600D01*
X133662500Y-65500000D02*
X133662500Y-67237500D01*
X132900000Y-68014600D02*
X133825200Y-68939800D01*
X132475000Y-76700000D02*
X133800000Y-76700000D01*
D29*
%TO.N,ESP_LDO_VO2*%
X133900000Y-74910995D02*
X134210300Y-74600695D01*
X134210300Y-71910300D02*
X134200000Y-71900000D01*
X133789005Y-74800000D02*
X133900000Y-74910995D01*
X134450000Y-71650000D02*
X134200000Y-71900000D01*
X134450000Y-70950000D02*
X134450000Y-71650000D01*
X132475000Y-74800000D02*
X133789005Y-74800000D01*
X134210300Y-74600695D02*
X134210300Y-71910300D01*
D28*
%TO.N,ESP_LDO_VO3*%
X128600000Y-78300000D02*
X128575040Y-78324960D01*
D29*
X133975000Y-79325000D02*
X135300000Y-78000000D01*
X130200000Y-79325000D02*
X128600000Y-79325000D01*
X135300000Y-78000000D02*
X135300000Y-70024830D01*
X128600000Y-78300000D02*
X128600000Y-79325000D01*
X130200000Y-79325000D02*
X133975000Y-79325000D01*
D28*
%TO.N,/RTC_MFP*%
X119100000Y-83100000D02*
X119100000Y-84550000D01*
X118350000Y-82350000D02*
X119100000Y-83100000D01*
%TO.N,/RTC_SCK*%
X120500000Y-81100000D02*
X121082000Y-81682000D01*
X121082000Y-83415670D02*
X121393165Y-83726835D01*
X121082000Y-81682000D02*
X121082000Y-83415670D01*
D27*
%TO.N,/RTC_SO*%
X118998800Y-72801200D02*
X117300000Y-74500000D01*
X121200000Y-72801200D02*
X118998800Y-72801200D01*
X117300000Y-80482200D02*
X122135000Y-85317200D01*
X117300000Y-74500000D02*
X117300000Y-80482200D01*
%TO.N,/RTC_SI*%
X121350000Y-73850000D02*
X120899000Y-73399000D01*
X118600000Y-74700000D02*
X118898960Y-74401040D01*
X121350000Y-74200000D02*
X121350000Y-73850000D01*
X118924960Y-74426000D02*
X121124000Y-74426000D01*
X120899000Y-73399000D02*
X120899000Y-73348945D01*
X118600000Y-77800000D02*
X118600000Y-74700000D01*
X118900000Y-74401040D02*
X118924960Y-74426000D01*
X121124000Y-74426000D02*
X121350000Y-74200000D01*
X121901000Y-81101000D02*
X118600000Y-77800000D01*
X118898960Y-74401040D02*
X118900000Y-74401040D01*
X123249265Y-83150735D02*
X121901000Y-81802470D01*
X121901000Y-81802470D02*
X121901000Y-81101000D01*
%TO.N,/RTC_CS*%
X121500000Y-82250000D02*
X124903000Y-85653000D01*
X120598959Y-73700000D02*
X118900000Y-73700000D01*
X121500000Y-81300000D02*
X121500000Y-82250000D01*
X118900000Y-73700000D02*
X117900000Y-74700000D01*
X117900000Y-77700000D02*
X121500000Y-81300000D01*
X124903000Y-85653000D02*
X124903000Y-91835900D01*
X120898999Y-74000040D02*
X120598959Y-73700000D01*
X117900000Y-74700000D02*
X117900000Y-77700000D01*
%TO.N,DVDD_3V3*%
X129275000Y-98200000D02*
X129175000Y-98100000D01*
X133200000Y-98200000D02*
X129275000Y-98200000D01*
%TO.N,/BOOT_GPIO35*%
X142000000Y-70600000D02*
X142000000Y-62396600D01*
X136150000Y-72450000D02*
X140150000Y-72450000D01*
X140150000Y-72450000D02*
X142000000Y-70600000D01*
X143920400Y-60476200D02*
X154372000Y-60476200D01*
X142000000Y-62396600D02*
X143920400Y-60476200D01*
%TD*%
M02*
