%TF.GenerationSoftware,KiCad,Pcbnew,9.0.3*%
%TF.CreationDate,2025-10-29T14:16:54+08:00*%
%TF.ProjectId,fixed_colimador,66697865-645f-4636-9f6c-696d61646f72,rev?*%
%TF.SameCoordinates,Original*%
%TF.FileFunction,Legend,Bot*%
%TF.FilePolarity,Positive*%
%FSLAX46Y46*%
G04 Gerber Fmt 4.6, Leading zero omitted, Abs format (unit mm)*
G04 Created by KiCad (PCBNEW 9.0.3) date 2025-10-29 14:16:54*
%MOMM*%
%LPD*%
G01*
G04 APERTURE LIST*
%ADD10C,0.300000*%
%ADD11C,0.150000*%
%ADD12C,0.120000*%
G04 APERTURE END LIST*
D10*
X174494856Y-97723542D02*
X175180570Y-97723542D01*
X174837713Y-97723542D02*
X174837713Y-96523542D01*
X174837713Y-96523542D02*
X174951999Y-96694971D01*
X174951999Y-96694971D02*
X175066284Y-96809257D01*
X175066284Y-96809257D02*
X175180570Y-96866400D01*
X174037713Y-96637828D02*
X173980570Y-96580685D01*
X173980570Y-96580685D02*
X173866285Y-96523542D01*
X173866285Y-96523542D02*
X173580570Y-96523542D01*
X173580570Y-96523542D02*
X173466285Y-96580685D01*
X173466285Y-96580685D02*
X173409142Y-96637828D01*
X173409142Y-96637828D02*
X173351999Y-96752114D01*
X173351999Y-96752114D02*
X173351999Y-96866400D01*
X173351999Y-96866400D02*
X173409142Y-97037828D01*
X173409142Y-97037828D02*
X174094856Y-97723542D01*
X174094856Y-97723542D02*
X173351999Y-97723542D01*
X173009142Y-96523542D02*
X172609142Y-97723542D01*
X172609142Y-97723542D02*
X172209142Y-96523542D01*
X174525285Y-101379685D02*
X174639571Y-101322542D01*
X174639571Y-101322542D02*
X174810999Y-101322542D01*
X174810999Y-101322542D02*
X174982428Y-101379685D01*
X174982428Y-101379685D02*
X175096713Y-101493971D01*
X175096713Y-101493971D02*
X175153856Y-101608257D01*
X175153856Y-101608257D02*
X175210999Y-101836828D01*
X175210999Y-101836828D02*
X175210999Y-102008257D01*
X175210999Y-102008257D02*
X175153856Y-102236828D01*
X175153856Y-102236828D02*
X175096713Y-102351114D01*
X175096713Y-102351114D02*
X174982428Y-102465400D01*
X174982428Y-102465400D02*
X174810999Y-102522542D01*
X174810999Y-102522542D02*
X174696713Y-102522542D01*
X174696713Y-102522542D02*
X174525285Y-102465400D01*
X174525285Y-102465400D02*
X174468142Y-102408257D01*
X174468142Y-102408257D02*
X174468142Y-102008257D01*
X174468142Y-102008257D02*
X174696713Y-102008257D01*
X173953856Y-102522542D02*
X173953856Y-101322542D01*
X173953856Y-101322542D02*
X173268142Y-102522542D01*
X173268142Y-102522542D02*
X173268142Y-101322542D01*
X172696713Y-102522542D02*
X172696713Y-101322542D01*
X172696713Y-101322542D02*
X172410999Y-101322542D01*
X172410999Y-101322542D02*
X172239570Y-101379685D01*
X172239570Y-101379685D02*
X172125285Y-101493971D01*
X172125285Y-101493971D02*
X172068142Y-101608257D01*
X172068142Y-101608257D02*
X172010999Y-101836828D01*
X172010999Y-101836828D02*
X172010999Y-102008257D01*
X172010999Y-102008257D02*
X172068142Y-102236828D01*
X172068142Y-102236828D02*
X172125285Y-102351114D01*
X172125285Y-102351114D02*
X172239570Y-102465400D01*
X172239570Y-102465400D02*
X172410999Y-102522542D01*
X172410999Y-102522542D02*
X172696713Y-102522542D01*
X101168685Y-64666714D02*
X101111542Y-64552429D01*
X101111542Y-64552429D02*
X101111542Y-64381000D01*
X101111542Y-64381000D02*
X101168685Y-64209571D01*
X101168685Y-64209571D02*
X101282971Y-64095286D01*
X101282971Y-64095286D02*
X101397257Y-64038143D01*
X101397257Y-64038143D02*
X101625828Y-63981000D01*
X101625828Y-63981000D02*
X101797257Y-63981000D01*
X101797257Y-63981000D02*
X102025828Y-64038143D01*
X102025828Y-64038143D02*
X102140114Y-64095286D01*
X102140114Y-64095286D02*
X102254400Y-64209571D01*
X102254400Y-64209571D02*
X102311542Y-64381000D01*
X102311542Y-64381000D02*
X102311542Y-64495286D01*
X102311542Y-64495286D02*
X102254400Y-64666714D01*
X102254400Y-64666714D02*
X102197257Y-64723857D01*
X102197257Y-64723857D02*
X101797257Y-64723857D01*
X101797257Y-64723857D02*
X101797257Y-64495286D01*
X102311542Y-65238143D02*
X101111542Y-65238143D01*
X101111542Y-65238143D02*
X102311542Y-65923857D01*
X102311542Y-65923857D02*
X101111542Y-65923857D01*
X102311542Y-66495286D02*
X101111542Y-66495286D01*
X101111542Y-66495286D02*
X101111542Y-66781000D01*
X101111542Y-66781000D02*
X101168685Y-66952429D01*
X101168685Y-66952429D02*
X101282971Y-67066714D01*
X101282971Y-67066714D02*
X101397257Y-67123857D01*
X101397257Y-67123857D02*
X101625828Y-67181000D01*
X101625828Y-67181000D02*
X101797257Y-67181000D01*
X101797257Y-67181000D02*
X102025828Y-67123857D01*
X102025828Y-67123857D02*
X102140114Y-67066714D01*
X102140114Y-67066714D02*
X102254400Y-66952429D01*
X102254400Y-66952429D02*
X102311542Y-66781000D01*
X102311542Y-66781000D02*
X102311542Y-66495286D01*
X172998285Y-84278971D02*
X172826857Y-84336114D01*
X172826857Y-84336114D02*
X172769714Y-84393257D01*
X172769714Y-84393257D02*
X172712571Y-84507542D01*
X172712571Y-84507542D02*
X172712571Y-84678971D01*
X172712571Y-84678971D02*
X172769714Y-84793257D01*
X172769714Y-84793257D02*
X172826857Y-84850400D01*
X172826857Y-84850400D02*
X172941142Y-84907542D01*
X172941142Y-84907542D02*
X173398285Y-84907542D01*
X173398285Y-84907542D02*
X173398285Y-83707542D01*
X173398285Y-83707542D02*
X172998285Y-83707542D01*
X172998285Y-83707542D02*
X172884000Y-83764685D01*
X172884000Y-83764685D02*
X172826857Y-83821828D01*
X172826857Y-83821828D02*
X172769714Y-83936114D01*
X172769714Y-83936114D02*
X172769714Y-84050400D01*
X172769714Y-84050400D02*
X172826857Y-84164685D01*
X172826857Y-84164685D02*
X172884000Y-84221828D01*
X172884000Y-84221828D02*
X172998285Y-84278971D01*
X172998285Y-84278971D02*
X173398285Y-84278971D01*
X174498285Y-78642685D02*
X174612571Y-78585542D01*
X174612571Y-78585542D02*
X174783999Y-78585542D01*
X174783999Y-78585542D02*
X174955428Y-78642685D01*
X174955428Y-78642685D02*
X175069713Y-78756971D01*
X175069713Y-78756971D02*
X175126856Y-78871257D01*
X175126856Y-78871257D02*
X175183999Y-79099828D01*
X175183999Y-79099828D02*
X175183999Y-79271257D01*
X175183999Y-79271257D02*
X175126856Y-79499828D01*
X175126856Y-79499828D02*
X175069713Y-79614114D01*
X175069713Y-79614114D02*
X174955428Y-79728400D01*
X174955428Y-79728400D02*
X174783999Y-79785542D01*
X174783999Y-79785542D02*
X174669713Y-79785542D01*
X174669713Y-79785542D02*
X174498285Y-79728400D01*
X174498285Y-79728400D02*
X174441142Y-79671257D01*
X174441142Y-79671257D02*
X174441142Y-79271257D01*
X174441142Y-79271257D02*
X174669713Y-79271257D01*
X173926856Y-79785542D02*
X173926856Y-78585542D01*
X173926856Y-78585542D02*
X173241142Y-79785542D01*
X173241142Y-79785542D02*
X173241142Y-78585542D01*
X172669713Y-79785542D02*
X172669713Y-78585542D01*
X172669713Y-78585542D02*
X172383999Y-78585542D01*
X172383999Y-78585542D02*
X172212570Y-78642685D01*
X172212570Y-78642685D02*
X172098285Y-78756971D01*
X172098285Y-78756971D02*
X172041142Y-78871257D01*
X172041142Y-78871257D02*
X171983999Y-79099828D01*
X171983999Y-79099828D02*
X171983999Y-79271257D01*
X171983999Y-79271257D02*
X172041142Y-79499828D01*
X172041142Y-79499828D02*
X172098285Y-79614114D01*
X172098285Y-79614114D02*
X172212570Y-79728400D01*
X172212570Y-79728400D02*
X172383999Y-79785542D01*
X172383999Y-79785542D02*
X172669713Y-79785542D01*
X101349542Y-69329428D02*
X101349542Y-68758000D01*
X101349542Y-68758000D02*
X101920971Y-68700857D01*
X101920971Y-68700857D02*
X101863828Y-68758000D01*
X101863828Y-68758000D02*
X101806685Y-68872286D01*
X101806685Y-68872286D02*
X101806685Y-69158000D01*
X101806685Y-69158000D02*
X101863828Y-69272286D01*
X101863828Y-69272286D02*
X101920971Y-69329428D01*
X101920971Y-69329428D02*
X102035257Y-69386571D01*
X102035257Y-69386571D02*
X102320971Y-69386571D01*
X102320971Y-69386571D02*
X102435257Y-69329428D01*
X102435257Y-69329428D02*
X102492400Y-69272286D01*
X102492400Y-69272286D02*
X102549542Y-69158000D01*
X102549542Y-69158000D02*
X102549542Y-68872286D01*
X102549542Y-68872286D02*
X102492400Y-68758000D01*
X102492400Y-68758000D02*
X102435257Y-68700857D01*
X101349542Y-69729428D02*
X102549542Y-70129428D01*
X102549542Y-70129428D02*
X101349542Y-70529428D01*
X173293713Y-89647685D02*
X172722285Y-89647685D01*
X173407999Y-89990542D02*
X173007999Y-88790542D01*
X173007999Y-88790542D02*
X172607999Y-89990542D01*
D11*
X118342857Y-75149580D02*
X118390476Y-75197200D01*
X118390476Y-75197200D02*
X118533333Y-75244819D01*
X118533333Y-75244819D02*
X118628571Y-75244819D01*
X118628571Y-75244819D02*
X118771428Y-75197200D01*
X118771428Y-75197200D02*
X118866666Y-75101961D01*
X118866666Y-75101961D02*
X118914285Y-75006723D01*
X118914285Y-75006723D02*
X118961904Y-74816247D01*
X118961904Y-74816247D02*
X118961904Y-74673390D01*
X118961904Y-74673390D02*
X118914285Y-74482914D01*
X118914285Y-74482914D02*
X118866666Y-74387676D01*
X118866666Y-74387676D02*
X118771428Y-74292438D01*
X118771428Y-74292438D02*
X118628571Y-74244819D01*
X118628571Y-74244819D02*
X118533333Y-74244819D01*
X118533333Y-74244819D02*
X118390476Y-74292438D01*
X118390476Y-74292438D02*
X118342857Y-74340057D01*
X117961904Y-74340057D02*
X117914285Y-74292438D01*
X117914285Y-74292438D02*
X117819047Y-74244819D01*
X117819047Y-74244819D02*
X117580952Y-74244819D01*
X117580952Y-74244819D02*
X117485714Y-74292438D01*
X117485714Y-74292438D02*
X117438095Y-74340057D01*
X117438095Y-74340057D02*
X117390476Y-74435295D01*
X117390476Y-74435295D02*
X117390476Y-74530533D01*
X117390476Y-74530533D02*
X117438095Y-74673390D01*
X117438095Y-74673390D02*
X118009523Y-75244819D01*
X118009523Y-75244819D02*
X117390476Y-75244819D01*
X117057142Y-74244819D02*
X116438095Y-74244819D01*
X116438095Y-74244819D02*
X116771428Y-74625771D01*
X116771428Y-74625771D02*
X116628571Y-74625771D01*
X116628571Y-74625771D02*
X116533333Y-74673390D01*
X116533333Y-74673390D02*
X116485714Y-74721009D01*
X116485714Y-74721009D02*
X116438095Y-74816247D01*
X116438095Y-74816247D02*
X116438095Y-75054342D01*
X116438095Y-75054342D02*
X116485714Y-75149580D01*
X116485714Y-75149580D02*
X116533333Y-75197200D01*
X116533333Y-75197200D02*
X116628571Y-75244819D01*
X116628571Y-75244819D02*
X116914285Y-75244819D01*
X116914285Y-75244819D02*
X117009523Y-75197200D01*
X117009523Y-75197200D02*
X117057142Y-75149580D01*
X121342857Y-71459580D02*
X121390476Y-71507200D01*
X121390476Y-71507200D02*
X121533333Y-71554819D01*
X121533333Y-71554819D02*
X121628571Y-71554819D01*
X121628571Y-71554819D02*
X121771428Y-71507200D01*
X121771428Y-71507200D02*
X121866666Y-71411961D01*
X121866666Y-71411961D02*
X121914285Y-71316723D01*
X121914285Y-71316723D02*
X121961904Y-71126247D01*
X121961904Y-71126247D02*
X121961904Y-70983390D01*
X121961904Y-70983390D02*
X121914285Y-70792914D01*
X121914285Y-70792914D02*
X121866666Y-70697676D01*
X121866666Y-70697676D02*
X121771428Y-70602438D01*
X121771428Y-70602438D02*
X121628571Y-70554819D01*
X121628571Y-70554819D02*
X121533333Y-70554819D01*
X121533333Y-70554819D02*
X121390476Y-70602438D01*
X121390476Y-70602438D02*
X121342857Y-70650057D01*
X120961904Y-70650057D02*
X120914285Y-70602438D01*
X120914285Y-70602438D02*
X120819047Y-70554819D01*
X120819047Y-70554819D02*
X120580952Y-70554819D01*
X120580952Y-70554819D02*
X120485714Y-70602438D01*
X120485714Y-70602438D02*
X120438095Y-70650057D01*
X120438095Y-70650057D02*
X120390476Y-70745295D01*
X120390476Y-70745295D02*
X120390476Y-70840533D01*
X120390476Y-70840533D02*
X120438095Y-70983390D01*
X120438095Y-70983390D02*
X121009523Y-71554819D01*
X121009523Y-71554819D02*
X120390476Y-71554819D01*
X119819047Y-70983390D02*
X119914285Y-70935771D01*
X119914285Y-70935771D02*
X119961904Y-70888152D01*
X119961904Y-70888152D02*
X120009523Y-70792914D01*
X120009523Y-70792914D02*
X120009523Y-70745295D01*
X120009523Y-70745295D02*
X119961904Y-70650057D01*
X119961904Y-70650057D02*
X119914285Y-70602438D01*
X119914285Y-70602438D02*
X119819047Y-70554819D01*
X119819047Y-70554819D02*
X119628571Y-70554819D01*
X119628571Y-70554819D02*
X119533333Y-70602438D01*
X119533333Y-70602438D02*
X119485714Y-70650057D01*
X119485714Y-70650057D02*
X119438095Y-70745295D01*
X119438095Y-70745295D02*
X119438095Y-70792914D01*
X119438095Y-70792914D02*
X119485714Y-70888152D01*
X119485714Y-70888152D02*
X119533333Y-70935771D01*
X119533333Y-70935771D02*
X119628571Y-70983390D01*
X119628571Y-70983390D02*
X119819047Y-70983390D01*
X119819047Y-70983390D02*
X119914285Y-71031009D01*
X119914285Y-71031009D02*
X119961904Y-71078628D01*
X119961904Y-71078628D02*
X120009523Y-71173866D01*
X120009523Y-71173866D02*
X120009523Y-71364342D01*
X120009523Y-71364342D02*
X119961904Y-71459580D01*
X119961904Y-71459580D02*
X119914285Y-71507200D01*
X119914285Y-71507200D02*
X119819047Y-71554819D01*
X119819047Y-71554819D02*
X119628571Y-71554819D01*
X119628571Y-71554819D02*
X119533333Y-71507200D01*
X119533333Y-71507200D02*
X119485714Y-71459580D01*
X119485714Y-71459580D02*
X119438095Y-71364342D01*
X119438095Y-71364342D02*
X119438095Y-71173866D01*
X119438095Y-71173866D02*
X119485714Y-71078628D01*
X119485714Y-71078628D02*
X119533333Y-71031009D01*
X119533333Y-71031009D02*
X119628571Y-70983390D01*
X126859580Y-70857142D02*
X126907200Y-70809523D01*
X126907200Y-70809523D02*
X126954819Y-70666666D01*
X126954819Y-70666666D02*
X126954819Y-70571428D01*
X126954819Y-70571428D02*
X126907200Y-70428571D01*
X126907200Y-70428571D02*
X126811961Y-70333333D01*
X126811961Y-70333333D02*
X126716723Y-70285714D01*
X126716723Y-70285714D02*
X126526247Y-70238095D01*
X126526247Y-70238095D02*
X126383390Y-70238095D01*
X126383390Y-70238095D02*
X126192914Y-70285714D01*
X126192914Y-70285714D02*
X126097676Y-70333333D01*
X126097676Y-70333333D02*
X126002438Y-70428571D01*
X126002438Y-70428571D02*
X125954819Y-70571428D01*
X125954819Y-70571428D02*
X125954819Y-70666666D01*
X125954819Y-70666666D02*
X126002438Y-70809523D01*
X126002438Y-70809523D02*
X126050057Y-70857142D01*
X126954819Y-71809523D02*
X126954819Y-71238095D01*
X126954819Y-71523809D02*
X125954819Y-71523809D01*
X125954819Y-71523809D02*
X126097676Y-71428571D01*
X126097676Y-71428571D02*
X126192914Y-71333333D01*
X126192914Y-71333333D02*
X126240533Y-71238095D01*
X126954819Y-72285714D02*
X126954819Y-72476190D01*
X126954819Y-72476190D02*
X126907200Y-72571428D01*
X126907200Y-72571428D02*
X126859580Y-72619047D01*
X126859580Y-72619047D02*
X126716723Y-72714285D01*
X126716723Y-72714285D02*
X126526247Y-72761904D01*
X126526247Y-72761904D02*
X126145295Y-72761904D01*
X126145295Y-72761904D02*
X126050057Y-72714285D01*
X126050057Y-72714285D02*
X126002438Y-72666666D01*
X126002438Y-72666666D02*
X125954819Y-72571428D01*
X125954819Y-72571428D02*
X125954819Y-72380952D01*
X125954819Y-72380952D02*
X126002438Y-72285714D01*
X126002438Y-72285714D02*
X126050057Y-72238095D01*
X126050057Y-72238095D02*
X126145295Y-72190476D01*
X126145295Y-72190476D02*
X126383390Y-72190476D01*
X126383390Y-72190476D02*
X126478628Y-72238095D01*
X126478628Y-72238095D02*
X126526247Y-72285714D01*
X126526247Y-72285714D02*
X126573866Y-72380952D01*
X126573866Y-72380952D02*
X126573866Y-72571428D01*
X126573866Y-72571428D02*
X126526247Y-72666666D01*
X126526247Y-72666666D02*
X126478628Y-72714285D01*
X126478628Y-72714285D02*
X126383390Y-72761904D01*
X136242857Y-75359580D02*
X136290476Y-75407200D01*
X136290476Y-75407200D02*
X136433333Y-75454819D01*
X136433333Y-75454819D02*
X136528571Y-75454819D01*
X136528571Y-75454819D02*
X136671428Y-75407200D01*
X136671428Y-75407200D02*
X136766666Y-75311961D01*
X136766666Y-75311961D02*
X136814285Y-75216723D01*
X136814285Y-75216723D02*
X136861904Y-75026247D01*
X136861904Y-75026247D02*
X136861904Y-74883390D01*
X136861904Y-74883390D02*
X136814285Y-74692914D01*
X136814285Y-74692914D02*
X136766666Y-74597676D01*
X136766666Y-74597676D02*
X136671428Y-74502438D01*
X136671428Y-74502438D02*
X136528571Y-74454819D01*
X136528571Y-74454819D02*
X136433333Y-74454819D01*
X136433333Y-74454819D02*
X136290476Y-74502438D01*
X136290476Y-74502438D02*
X136242857Y-74550057D01*
X135766666Y-75454819D02*
X135576190Y-75454819D01*
X135576190Y-75454819D02*
X135480952Y-75407200D01*
X135480952Y-75407200D02*
X135433333Y-75359580D01*
X135433333Y-75359580D02*
X135338095Y-75216723D01*
X135338095Y-75216723D02*
X135290476Y-75026247D01*
X135290476Y-75026247D02*
X135290476Y-74645295D01*
X135290476Y-74645295D02*
X135338095Y-74550057D01*
X135338095Y-74550057D02*
X135385714Y-74502438D01*
X135385714Y-74502438D02*
X135480952Y-74454819D01*
X135480952Y-74454819D02*
X135671428Y-74454819D01*
X135671428Y-74454819D02*
X135766666Y-74502438D01*
X135766666Y-74502438D02*
X135814285Y-74550057D01*
X135814285Y-74550057D02*
X135861904Y-74645295D01*
X135861904Y-74645295D02*
X135861904Y-74883390D01*
X135861904Y-74883390D02*
X135814285Y-74978628D01*
X135814285Y-74978628D02*
X135766666Y-75026247D01*
X135766666Y-75026247D02*
X135671428Y-75073866D01*
X135671428Y-75073866D02*
X135480952Y-75073866D01*
X135480952Y-75073866D02*
X135385714Y-75026247D01*
X135385714Y-75026247D02*
X135338095Y-74978628D01*
X135338095Y-74978628D02*
X135290476Y-74883390D01*
X134909523Y-74550057D02*
X134861904Y-74502438D01*
X134861904Y-74502438D02*
X134766666Y-74454819D01*
X134766666Y-74454819D02*
X134528571Y-74454819D01*
X134528571Y-74454819D02*
X134433333Y-74502438D01*
X134433333Y-74502438D02*
X134385714Y-74550057D01*
X134385714Y-74550057D02*
X134338095Y-74645295D01*
X134338095Y-74645295D02*
X134338095Y-74740533D01*
X134338095Y-74740533D02*
X134385714Y-74883390D01*
X134385714Y-74883390D02*
X134957142Y-75454819D01*
X134957142Y-75454819D02*
X134338095Y-75454819D01*
X121442857Y-73159580D02*
X121490476Y-73207200D01*
X121490476Y-73207200D02*
X121633333Y-73254819D01*
X121633333Y-73254819D02*
X121728571Y-73254819D01*
X121728571Y-73254819D02*
X121871428Y-73207200D01*
X121871428Y-73207200D02*
X121966666Y-73111961D01*
X121966666Y-73111961D02*
X122014285Y-73016723D01*
X122014285Y-73016723D02*
X122061904Y-72826247D01*
X122061904Y-72826247D02*
X122061904Y-72683390D01*
X122061904Y-72683390D02*
X122014285Y-72492914D01*
X122014285Y-72492914D02*
X121966666Y-72397676D01*
X121966666Y-72397676D02*
X121871428Y-72302438D01*
X121871428Y-72302438D02*
X121728571Y-72254819D01*
X121728571Y-72254819D02*
X121633333Y-72254819D01*
X121633333Y-72254819D02*
X121490476Y-72302438D01*
X121490476Y-72302438D02*
X121442857Y-72350057D01*
X121061904Y-72350057D02*
X121014285Y-72302438D01*
X121014285Y-72302438D02*
X120919047Y-72254819D01*
X120919047Y-72254819D02*
X120680952Y-72254819D01*
X120680952Y-72254819D02*
X120585714Y-72302438D01*
X120585714Y-72302438D02*
X120538095Y-72350057D01*
X120538095Y-72350057D02*
X120490476Y-72445295D01*
X120490476Y-72445295D02*
X120490476Y-72540533D01*
X120490476Y-72540533D02*
X120538095Y-72683390D01*
X120538095Y-72683390D02*
X121109523Y-73254819D01*
X121109523Y-73254819D02*
X120490476Y-73254819D01*
X120014285Y-73254819D02*
X119823809Y-73254819D01*
X119823809Y-73254819D02*
X119728571Y-73207200D01*
X119728571Y-73207200D02*
X119680952Y-73159580D01*
X119680952Y-73159580D02*
X119585714Y-73016723D01*
X119585714Y-73016723D02*
X119538095Y-72826247D01*
X119538095Y-72826247D02*
X119538095Y-72445295D01*
X119538095Y-72445295D02*
X119585714Y-72350057D01*
X119585714Y-72350057D02*
X119633333Y-72302438D01*
X119633333Y-72302438D02*
X119728571Y-72254819D01*
X119728571Y-72254819D02*
X119919047Y-72254819D01*
X119919047Y-72254819D02*
X120014285Y-72302438D01*
X120014285Y-72302438D02*
X120061904Y-72350057D01*
X120061904Y-72350057D02*
X120109523Y-72445295D01*
X120109523Y-72445295D02*
X120109523Y-72683390D01*
X120109523Y-72683390D02*
X120061904Y-72778628D01*
X120061904Y-72778628D02*
X120014285Y-72826247D01*
X120014285Y-72826247D02*
X119919047Y-72873866D01*
X119919047Y-72873866D02*
X119728571Y-72873866D01*
X119728571Y-72873866D02*
X119633333Y-72826247D01*
X119633333Y-72826247D02*
X119585714Y-72778628D01*
X119585714Y-72778628D02*
X119538095Y-72683390D01*
X125359580Y-78857142D02*
X125407200Y-78809523D01*
X125407200Y-78809523D02*
X125454819Y-78666666D01*
X125454819Y-78666666D02*
X125454819Y-78571428D01*
X125454819Y-78571428D02*
X125407200Y-78428571D01*
X125407200Y-78428571D02*
X125311961Y-78333333D01*
X125311961Y-78333333D02*
X125216723Y-78285714D01*
X125216723Y-78285714D02*
X125026247Y-78238095D01*
X125026247Y-78238095D02*
X124883390Y-78238095D01*
X124883390Y-78238095D02*
X124692914Y-78285714D01*
X124692914Y-78285714D02*
X124597676Y-78333333D01*
X124597676Y-78333333D02*
X124502438Y-78428571D01*
X124502438Y-78428571D02*
X124454819Y-78571428D01*
X124454819Y-78571428D02*
X124454819Y-78666666D01*
X124454819Y-78666666D02*
X124502438Y-78809523D01*
X124502438Y-78809523D02*
X124550057Y-78857142D01*
X125454819Y-79333333D02*
X125454819Y-79523809D01*
X125454819Y-79523809D02*
X125407200Y-79619047D01*
X125407200Y-79619047D02*
X125359580Y-79666666D01*
X125359580Y-79666666D02*
X125216723Y-79761904D01*
X125216723Y-79761904D02*
X125026247Y-79809523D01*
X125026247Y-79809523D02*
X124645295Y-79809523D01*
X124645295Y-79809523D02*
X124550057Y-79761904D01*
X124550057Y-79761904D02*
X124502438Y-79714285D01*
X124502438Y-79714285D02*
X124454819Y-79619047D01*
X124454819Y-79619047D02*
X124454819Y-79428571D01*
X124454819Y-79428571D02*
X124502438Y-79333333D01*
X124502438Y-79333333D02*
X124550057Y-79285714D01*
X124550057Y-79285714D02*
X124645295Y-79238095D01*
X124645295Y-79238095D02*
X124883390Y-79238095D01*
X124883390Y-79238095D02*
X124978628Y-79285714D01*
X124978628Y-79285714D02*
X125026247Y-79333333D01*
X125026247Y-79333333D02*
X125073866Y-79428571D01*
X125073866Y-79428571D02*
X125073866Y-79619047D01*
X125073866Y-79619047D02*
X125026247Y-79714285D01*
X125026247Y-79714285D02*
X124978628Y-79761904D01*
X124978628Y-79761904D02*
X124883390Y-79809523D01*
X125454819Y-80761904D02*
X125454819Y-80190476D01*
X125454819Y-80476190D02*
X124454819Y-80476190D01*
X124454819Y-80476190D02*
X124597676Y-80380952D01*
X124597676Y-80380952D02*
X124692914Y-80285714D01*
X124692914Y-80285714D02*
X124740533Y-80190476D01*
X122442857Y-64559580D02*
X122490476Y-64607200D01*
X122490476Y-64607200D02*
X122633333Y-64654819D01*
X122633333Y-64654819D02*
X122728571Y-64654819D01*
X122728571Y-64654819D02*
X122871428Y-64607200D01*
X122871428Y-64607200D02*
X122966666Y-64511961D01*
X122966666Y-64511961D02*
X123014285Y-64416723D01*
X123014285Y-64416723D02*
X123061904Y-64226247D01*
X123061904Y-64226247D02*
X123061904Y-64083390D01*
X123061904Y-64083390D02*
X123014285Y-63892914D01*
X123014285Y-63892914D02*
X122966666Y-63797676D01*
X122966666Y-63797676D02*
X122871428Y-63702438D01*
X122871428Y-63702438D02*
X122728571Y-63654819D01*
X122728571Y-63654819D02*
X122633333Y-63654819D01*
X122633333Y-63654819D02*
X122490476Y-63702438D01*
X122490476Y-63702438D02*
X122442857Y-63750057D01*
X121490476Y-64654819D02*
X122061904Y-64654819D01*
X121776190Y-64654819D02*
X121776190Y-63654819D01*
X121776190Y-63654819D02*
X121871428Y-63797676D01*
X121871428Y-63797676D02*
X121966666Y-63892914D01*
X121966666Y-63892914D02*
X122061904Y-63940533D01*
X121157142Y-63654819D02*
X120490476Y-63654819D01*
X120490476Y-63654819D02*
X120919047Y-64654819D01*
X125259580Y-64457142D02*
X125307200Y-64409523D01*
X125307200Y-64409523D02*
X125354819Y-64266666D01*
X125354819Y-64266666D02*
X125354819Y-64171428D01*
X125354819Y-64171428D02*
X125307200Y-64028571D01*
X125307200Y-64028571D02*
X125211961Y-63933333D01*
X125211961Y-63933333D02*
X125116723Y-63885714D01*
X125116723Y-63885714D02*
X124926247Y-63838095D01*
X124926247Y-63838095D02*
X124783390Y-63838095D01*
X124783390Y-63838095D02*
X124592914Y-63885714D01*
X124592914Y-63885714D02*
X124497676Y-63933333D01*
X124497676Y-63933333D02*
X124402438Y-64028571D01*
X124402438Y-64028571D02*
X124354819Y-64171428D01*
X124354819Y-64171428D02*
X124354819Y-64266666D01*
X124354819Y-64266666D02*
X124402438Y-64409523D01*
X124402438Y-64409523D02*
X124450057Y-64457142D01*
X124450057Y-64838095D02*
X124402438Y-64885714D01*
X124402438Y-64885714D02*
X124354819Y-64980952D01*
X124354819Y-64980952D02*
X124354819Y-65219047D01*
X124354819Y-65219047D02*
X124402438Y-65314285D01*
X124402438Y-65314285D02*
X124450057Y-65361904D01*
X124450057Y-65361904D02*
X124545295Y-65409523D01*
X124545295Y-65409523D02*
X124640533Y-65409523D01*
X124640533Y-65409523D02*
X124783390Y-65361904D01*
X124783390Y-65361904D02*
X125354819Y-64790476D01*
X125354819Y-64790476D02*
X125354819Y-65409523D01*
X124688152Y-66266666D02*
X125354819Y-66266666D01*
X124307200Y-66028571D02*
X125021485Y-65790476D01*
X125021485Y-65790476D02*
X125021485Y-66409523D01*
X120242857Y-70259580D02*
X120290476Y-70307200D01*
X120290476Y-70307200D02*
X120433333Y-70354819D01*
X120433333Y-70354819D02*
X120528571Y-70354819D01*
X120528571Y-70354819D02*
X120671428Y-70307200D01*
X120671428Y-70307200D02*
X120766666Y-70211961D01*
X120766666Y-70211961D02*
X120814285Y-70116723D01*
X120814285Y-70116723D02*
X120861904Y-69926247D01*
X120861904Y-69926247D02*
X120861904Y-69783390D01*
X120861904Y-69783390D02*
X120814285Y-69592914D01*
X120814285Y-69592914D02*
X120766666Y-69497676D01*
X120766666Y-69497676D02*
X120671428Y-69402438D01*
X120671428Y-69402438D02*
X120528571Y-69354819D01*
X120528571Y-69354819D02*
X120433333Y-69354819D01*
X120433333Y-69354819D02*
X120290476Y-69402438D01*
X120290476Y-69402438D02*
X120242857Y-69450057D01*
X119290476Y-70354819D02*
X119861904Y-70354819D01*
X119576190Y-70354819D02*
X119576190Y-69354819D01*
X119576190Y-69354819D02*
X119671428Y-69497676D01*
X119671428Y-69497676D02*
X119766666Y-69592914D01*
X119766666Y-69592914D02*
X119861904Y-69640533D01*
X118433333Y-69354819D02*
X118623809Y-69354819D01*
X118623809Y-69354819D02*
X118719047Y-69402438D01*
X118719047Y-69402438D02*
X118766666Y-69450057D01*
X118766666Y-69450057D02*
X118861904Y-69592914D01*
X118861904Y-69592914D02*
X118909523Y-69783390D01*
X118909523Y-69783390D02*
X118909523Y-70164342D01*
X118909523Y-70164342D02*
X118861904Y-70259580D01*
X118861904Y-70259580D02*
X118814285Y-70307200D01*
X118814285Y-70307200D02*
X118719047Y-70354819D01*
X118719047Y-70354819D02*
X118528571Y-70354819D01*
X118528571Y-70354819D02*
X118433333Y-70307200D01*
X118433333Y-70307200D02*
X118385714Y-70259580D01*
X118385714Y-70259580D02*
X118338095Y-70164342D01*
X118338095Y-70164342D02*
X118338095Y-69926247D01*
X118338095Y-69926247D02*
X118385714Y-69831009D01*
X118385714Y-69831009D02*
X118433333Y-69783390D01*
X118433333Y-69783390D02*
X118528571Y-69735771D01*
X118528571Y-69735771D02*
X118719047Y-69735771D01*
X118719047Y-69735771D02*
X118814285Y-69783390D01*
X118814285Y-69783390D02*
X118861904Y-69831009D01*
X118861904Y-69831009D02*
X118909523Y-69926247D01*
X132742857Y-64009580D02*
X132790476Y-64057200D01*
X132790476Y-64057200D02*
X132933333Y-64104819D01*
X132933333Y-64104819D02*
X133028571Y-64104819D01*
X133028571Y-64104819D02*
X133171428Y-64057200D01*
X133171428Y-64057200D02*
X133266666Y-63961961D01*
X133266666Y-63961961D02*
X133314285Y-63866723D01*
X133314285Y-63866723D02*
X133361904Y-63676247D01*
X133361904Y-63676247D02*
X133361904Y-63533390D01*
X133361904Y-63533390D02*
X133314285Y-63342914D01*
X133314285Y-63342914D02*
X133266666Y-63247676D01*
X133266666Y-63247676D02*
X133171428Y-63152438D01*
X133171428Y-63152438D02*
X133028571Y-63104819D01*
X133028571Y-63104819D02*
X132933333Y-63104819D01*
X132933333Y-63104819D02*
X132790476Y-63152438D01*
X132790476Y-63152438D02*
X132742857Y-63200057D01*
X132409523Y-63104819D02*
X131790476Y-63104819D01*
X131790476Y-63104819D02*
X132123809Y-63485771D01*
X132123809Y-63485771D02*
X131980952Y-63485771D01*
X131980952Y-63485771D02*
X131885714Y-63533390D01*
X131885714Y-63533390D02*
X131838095Y-63581009D01*
X131838095Y-63581009D02*
X131790476Y-63676247D01*
X131790476Y-63676247D02*
X131790476Y-63914342D01*
X131790476Y-63914342D02*
X131838095Y-64009580D01*
X131838095Y-64009580D02*
X131885714Y-64057200D01*
X131885714Y-64057200D02*
X131980952Y-64104819D01*
X131980952Y-64104819D02*
X132266666Y-64104819D01*
X132266666Y-64104819D02*
X132361904Y-64057200D01*
X132361904Y-64057200D02*
X132409523Y-64009580D01*
X131171428Y-63104819D02*
X131076190Y-63104819D01*
X131076190Y-63104819D02*
X130980952Y-63152438D01*
X130980952Y-63152438D02*
X130933333Y-63200057D01*
X130933333Y-63200057D02*
X130885714Y-63295295D01*
X130885714Y-63295295D02*
X130838095Y-63485771D01*
X130838095Y-63485771D02*
X130838095Y-63723866D01*
X130838095Y-63723866D02*
X130885714Y-63914342D01*
X130885714Y-63914342D02*
X130933333Y-64009580D01*
X130933333Y-64009580D02*
X130980952Y-64057200D01*
X130980952Y-64057200D02*
X131076190Y-64104819D01*
X131076190Y-64104819D02*
X131171428Y-64104819D01*
X131171428Y-64104819D02*
X131266666Y-64057200D01*
X131266666Y-64057200D02*
X131314285Y-64009580D01*
X131314285Y-64009580D02*
X131361904Y-63914342D01*
X131361904Y-63914342D02*
X131409523Y-63723866D01*
X131409523Y-63723866D02*
X131409523Y-63485771D01*
X131409523Y-63485771D02*
X131361904Y-63295295D01*
X131361904Y-63295295D02*
X131314285Y-63200057D01*
X131314285Y-63200057D02*
X131266666Y-63152438D01*
X131266666Y-63152438D02*
X131171428Y-63104819D01*
X136142857Y-71859580D02*
X136190476Y-71907200D01*
X136190476Y-71907200D02*
X136333333Y-71954819D01*
X136333333Y-71954819D02*
X136428571Y-71954819D01*
X136428571Y-71954819D02*
X136571428Y-71907200D01*
X136571428Y-71907200D02*
X136666666Y-71811961D01*
X136666666Y-71811961D02*
X136714285Y-71716723D01*
X136714285Y-71716723D02*
X136761904Y-71526247D01*
X136761904Y-71526247D02*
X136761904Y-71383390D01*
X136761904Y-71383390D02*
X136714285Y-71192914D01*
X136714285Y-71192914D02*
X136666666Y-71097676D01*
X136666666Y-71097676D02*
X136571428Y-71002438D01*
X136571428Y-71002438D02*
X136428571Y-70954819D01*
X136428571Y-70954819D02*
X136333333Y-70954819D01*
X136333333Y-70954819D02*
X136190476Y-71002438D01*
X136190476Y-71002438D02*
X136142857Y-71050057D01*
X135761904Y-71050057D02*
X135714285Y-71002438D01*
X135714285Y-71002438D02*
X135619047Y-70954819D01*
X135619047Y-70954819D02*
X135380952Y-70954819D01*
X135380952Y-70954819D02*
X135285714Y-71002438D01*
X135285714Y-71002438D02*
X135238095Y-71050057D01*
X135238095Y-71050057D02*
X135190476Y-71145295D01*
X135190476Y-71145295D02*
X135190476Y-71240533D01*
X135190476Y-71240533D02*
X135238095Y-71383390D01*
X135238095Y-71383390D02*
X135809523Y-71954819D01*
X135809523Y-71954819D02*
X135190476Y-71954819D01*
X134285714Y-70954819D02*
X134761904Y-70954819D01*
X134761904Y-70954819D02*
X134809523Y-71431009D01*
X134809523Y-71431009D02*
X134761904Y-71383390D01*
X134761904Y-71383390D02*
X134666666Y-71335771D01*
X134666666Y-71335771D02*
X134428571Y-71335771D01*
X134428571Y-71335771D02*
X134333333Y-71383390D01*
X134333333Y-71383390D02*
X134285714Y-71431009D01*
X134285714Y-71431009D02*
X134238095Y-71526247D01*
X134238095Y-71526247D02*
X134238095Y-71764342D01*
X134238095Y-71764342D02*
X134285714Y-71859580D01*
X134285714Y-71859580D02*
X134333333Y-71907200D01*
X134333333Y-71907200D02*
X134428571Y-71954819D01*
X134428571Y-71954819D02*
X134666666Y-71954819D01*
X134666666Y-71954819D02*
X134761904Y-71907200D01*
X134761904Y-71907200D02*
X134809523Y-71859580D01*
X128659580Y-64557142D02*
X128707200Y-64509523D01*
X128707200Y-64509523D02*
X128754819Y-64366666D01*
X128754819Y-64366666D02*
X128754819Y-64271428D01*
X128754819Y-64271428D02*
X128707200Y-64128571D01*
X128707200Y-64128571D02*
X128611961Y-64033333D01*
X128611961Y-64033333D02*
X128516723Y-63985714D01*
X128516723Y-63985714D02*
X128326247Y-63938095D01*
X128326247Y-63938095D02*
X128183390Y-63938095D01*
X128183390Y-63938095D02*
X127992914Y-63985714D01*
X127992914Y-63985714D02*
X127897676Y-64033333D01*
X127897676Y-64033333D02*
X127802438Y-64128571D01*
X127802438Y-64128571D02*
X127754819Y-64271428D01*
X127754819Y-64271428D02*
X127754819Y-64366666D01*
X127754819Y-64366666D02*
X127802438Y-64509523D01*
X127802438Y-64509523D02*
X127850057Y-64557142D01*
X127754819Y-64890476D02*
X127754819Y-65509523D01*
X127754819Y-65509523D02*
X128135771Y-65176190D01*
X128135771Y-65176190D02*
X128135771Y-65319047D01*
X128135771Y-65319047D02*
X128183390Y-65414285D01*
X128183390Y-65414285D02*
X128231009Y-65461904D01*
X128231009Y-65461904D02*
X128326247Y-65509523D01*
X128326247Y-65509523D02*
X128564342Y-65509523D01*
X128564342Y-65509523D02*
X128659580Y-65461904D01*
X128659580Y-65461904D02*
X128707200Y-65414285D01*
X128707200Y-65414285D02*
X128754819Y-65319047D01*
X128754819Y-65319047D02*
X128754819Y-65033333D01*
X128754819Y-65033333D02*
X128707200Y-64938095D01*
X128707200Y-64938095D02*
X128659580Y-64890476D01*
X127754819Y-65842857D02*
X127754819Y-66461904D01*
X127754819Y-66461904D02*
X128135771Y-66128571D01*
X128135771Y-66128571D02*
X128135771Y-66271428D01*
X128135771Y-66271428D02*
X128183390Y-66366666D01*
X128183390Y-66366666D02*
X128231009Y-66414285D01*
X128231009Y-66414285D02*
X128326247Y-66461904D01*
X128326247Y-66461904D02*
X128564342Y-66461904D01*
X128564342Y-66461904D02*
X128659580Y-66414285D01*
X128659580Y-66414285D02*
X128707200Y-66366666D01*
X128707200Y-66366666D02*
X128754819Y-66271428D01*
X128754819Y-66271428D02*
X128754819Y-65985714D01*
X128754819Y-65985714D02*
X128707200Y-65890476D01*
X128707200Y-65890476D02*
X128659580Y-65842857D01*
X136242857Y-76859580D02*
X136290476Y-76907200D01*
X136290476Y-76907200D02*
X136433333Y-76954819D01*
X136433333Y-76954819D02*
X136528571Y-76954819D01*
X136528571Y-76954819D02*
X136671428Y-76907200D01*
X136671428Y-76907200D02*
X136766666Y-76811961D01*
X136766666Y-76811961D02*
X136814285Y-76716723D01*
X136814285Y-76716723D02*
X136861904Y-76526247D01*
X136861904Y-76526247D02*
X136861904Y-76383390D01*
X136861904Y-76383390D02*
X136814285Y-76192914D01*
X136814285Y-76192914D02*
X136766666Y-76097676D01*
X136766666Y-76097676D02*
X136671428Y-76002438D01*
X136671428Y-76002438D02*
X136528571Y-75954819D01*
X136528571Y-75954819D02*
X136433333Y-75954819D01*
X136433333Y-75954819D02*
X136290476Y-76002438D01*
X136290476Y-76002438D02*
X136242857Y-76050057D01*
X135909523Y-75954819D02*
X135290476Y-75954819D01*
X135290476Y-75954819D02*
X135623809Y-76335771D01*
X135623809Y-76335771D02*
X135480952Y-76335771D01*
X135480952Y-76335771D02*
X135385714Y-76383390D01*
X135385714Y-76383390D02*
X135338095Y-76431009D01*
X135338095Y-76431009D02*
X135290476Y-76526247D01*
X135290476Y-76526247D02*
X135290476Y-76764342D01*
X135290476Y-76764342D02*
X135338095Y-76859580D01*
X135338095Y-76859580D02*
X135385714Y-76907200D01*
X135385714Y-76907200D02*
X135480952Y-76954819D01*
X135480952Y-76954819D02*
X135766666Y-76954819D01*
X135766666Y-76954819D02*
X135861904Y-76907200D01*
X135861904Y-76907200D02*
X135909523Y-76859580D01*
X134909523Y-76050057D02*
X134861904Y-76002438D01*
X134861904Y-76002438D02*
X134766666Y-75954819D01*
X134766666Y-75954819D02*
X134528571Y-75954819D01*
X134528571Y-75954819D02*
X134433333Y-76002438D01*
X134433333Y-76002438D02*
X134385714Y-76050057D01*
X134385714Y-76050057D02*
X134338095Y-76145295D01*
X134338095Y-76145295D02*
X134338095Y-76240533D01*
X134338095Y-76240533D02*
X134385714Y-76383390D01*
X134385714Y-76383390D02*
X134957142Y-76954819D01*
X134957142Y-76954819D02*
X134338095Y-76954819D01*
X130759580Y-82757142D02*
X130807200Y-82709523D01*
X130807200Y-82709523D02*
X130854819Y-82566666D01*
X130854819Y-82566666D02*
X130854819Y-82471428D01*
X130854819Y-82471428D02*
X130807200Y-82328571D01*
X130807200Y-82328571D02*
X130711961Y-82233333D01*
X130711961Y-82233333D02*
X130616723Y-82185714D01*
X130616723Y-82185714D02*
X130426247Y-82138095D01*
X130426247Y-82138095D02*
X130283390Y-82138095D01*
X130283390Y-82138095D02*
X130092914Y-82185714D01*
X130092914Y-82185714D02*
X129997676Y-82233333D01*
X129997676Y-82233333D02*
X129902438Y-82328571D01*
X129902438Y-82328571D02*
X129854819Y-82471428D01*
X129854819Y-82471428D02*
X129854819Y-82566666D01*
X129854819Y-82566666D02*
X129902438Y-82709523D01*
X129902438Y-82709523D02*
X129950057Y-82757142D01*
X130854819Y-83233333D02*
X130854819Y-83423809D01*
X130854819Y-83423809D02*
X130807200Y-83519047D01*
X130807200Y-83519047D02*
X130759580Y-83566666D01*
X130759580Y-83566666D02*
X130616723Y-83661904D01*
X130616723Y-83661904D02*
X130426247Y-83709523D01*
X130426247Y-83709523D02*
X130045295Y-83709523D01*
X130045295Y-83709523D02*
X129950057Y-83661904D01*
X129950057Y-83661904D02*
X129902438Y-83614285D01*
X129902438Y-83614285D02*
X129854819Y-83519047D01*
X129854819Y-83519047D02*
X129854819Y-83328571D01*
X129854819Y-83328571D02*
X129902438Y-83233333D01*
X129902438Y-83233333D02*
X129950057Y-83185714D01*
X129950057Y-83185714D02*
X130045295Y-83138095D01*
X130045295Y-83138095D02*
X130283390Y-83138095D01*
X130283390Y-83138095D02*
X130378628Y-83185714D01*
X130378628Y-83185714D02*
X130426247Y-83233333D01*
X130426247Y-83233333D02*
X130473866Y-83328571D01*
X130473866Y-83328571D02*
X130473866Y-83519047D01*
X130473866Y-83519047D02*
X130426247Y-83614285D01*
X130426247Y-83614285D02*
X130378628Y-83661904D01*
X130378628Y-83661904D02*
X130283390Y-83709523D01*
X130188152Y-84566666D02*
X130854819Y-84566666D01*
X129807200Y-84328571D02*
X130521485Y-84090476D01*
X130521485Y-84090476D02*
X130521485Y-84709523D01*
X129959580Y-70857142D02*
X130007200Y-70809523D01*
X130007200Y-70809523D02*
X130054819Y-70666666D01*
X130054819Y-70666666D02*
X130054819Y-70571428D01*
X130054819Y-70571428D02*
X130007200Y-70428571D01*
X130007200Y-70428571D02*
X129911961Y-70333333D01*
X129911961Y-70333333D02*
X129816723Y-70285714D01*
X129816723Y-70285714D02*
X129626247Y-70238095D01*
X129626247Y-70238095D02*
X129483390Y-70238095D01*
X129483390Y-70238095D02*
X129292914Y-70285714D01*
X129292914Y-70285714D02*
X129197676Y-70333333D01*
X129197676Y-70333333D02*
X129102438Y-70428571D01*
X129102438Y-70428571D02*
X129054819Y-70571428D01*
X129054819Y-70571428D02*
X129054819Y-70666666D01*
X129054819Y-70666666D02*
X129102438Y-70809523D01*
X129102438Y-70809523D02*
X129150057Y-70857142D01*
X129150057Y-71238095D02*
X129102438Y-71285714D01*
X129102438Y-71285714D02*
X129054819Y-71380952D01*
X129054819Y-71380952D02*
X129054819Y-71619047D01*
X129054819Y-71619047D02*
X129102438Y-71714285D01*
X129102438Y-71714285D02*
X129150057Y-71761904D01*
X129150057Y-71761904D02*
X129245295Y-71809523D01*
X129245295Y-71809523D02*
X129340533Y-71809523D01*
X129340533Y-71809523D02*
X129483390Y-71761904D01*
X129483390Y-71761904D02*
X130054819Y-71190476D01*
X130054819Y-71190476D02*
X130054819Y-71809523D01*
X129054819Y-72142857D02*
X129054819Y-72809523D01*
X129054819Y-72809523D02*
X130054819Y-72380952D01*
X136242857Y-74059580D02*
X136290476Y-74107200D01*
X136290476Y-74107200D02*
X136433333Y-74154819D01*
X136433333Y-74154819D02*
X136528571Y-74154819D01*
X136528571Y-74154819D02*
X136671428Y-74107200D01*
X136671428Y-74107200D02*
X136766666Y-74011961D01*
X136766666Y-74011961D02*
X136814285Y-73916723D01*
X136814285Y-73916723D02*
X136861904Y-73726247D01*
X136861904Y-73726247D02*
X136861904Y-73583390D01*
X136861904Y-73583390D02*
X136814285Y-73392914D01*
X136814285Y-73392914D02*
X136766666Y-73297676D01*
X136766666Y-73297676D02*
X136671428Y-73202438D01*
X136671428Y-73202438D02*
X136528571Y-73154819D01*
X136528571Y-73154819D02*
X136433333Y-73154819D01*
X136433333Y-73154819D02*
X136290476Y-73202438D01*
X136290476Y-73202438D02*
X136242857Y-73250057D01*
X135861904Y-73250057D02*
X135814285Y-73202438D01*
X135814285Y-73202438D02*
X135719047Y-73154819D01*
X135719047Y-73154819D02*
X135480952Y-73154819D01*
X135480952Y-73154819D02*
X135385714Y-73202438D01*
X135385714Y-73202438D02*
X135338095Y-73250057D01*
X135338095Y-73250057D02*
X135290476Y-73345295D01*
X135290476Y-73345295D02*
X135290476Y-73440533D01*
X135290476Y-73440533D02*
X135338095Y-73583390D01*
X135338095Y-73583390D02*
X135909523Y-74154819D01*
X135909523Y-74154819D02*
X135290476Y-74154819D01*
X134433333Y-73154819D02*
X134623809Y-73154819D01*
X134623809Y-73154819D02*
X134719047Y-73202438D01*
X134719047Y-73202438D02*
X134766666Y-73250057D01*
X134766666Y-73250057D02*
X134861904Y-73392914D01*
X134861904Y-73392914D02*
X134909523Y-73583390D01*
X134909523Y-73583390D02*
X134909523Y-73964342D01*
X134909523Y-73964342D02*
X134861904Y-74059580D01*
X134861904Y-74059580D02*
X134814285Y-74107200D01*
X134814285Y-74107200D02*
X134719047Y-74154819D01*
X134719047Y-74154819D02*
X134528571Y-74154819D01*
X134528571Y-74154819D02*
X134433333Y-74107200D01*
X134433333Y-74107200D02*
X134385714Y-74059580D01*
X134385714Y-74059580D02*
X134338095Y-73964342D01*
X134338095Y-73964342D02*
X134338095Y-73726247D01*
X134338095Y-73726247D02*
X134385714Y-73631009D01*
X134385714Y-73631009D02*
X134433333Y-73583390D01*
X134433333Y-73583390D02*
X134528571Y-73535771D01*
X134528571Y-73535771D02*
X134719047Y-73535771D01*
X134719047Y-73535771D02*
X134814285Y-73583390D01*
X134814285Y-73583390D02*
X134861904Y-73631009D01*
X134861904Y-73631009D02*
X134909523Y-73726247D01*
X129059580Y-82657142D02*
X129107200Y-82609523D01*
X129107200Y-82609523D02*
X129154819Y-82466666D01*
X129154819Y-82466666D02*
X129154819Y-82371428D01*
X129154819Y-82371428D02*
X129107200Y-82228571D01*
X129107200Y-82228571D02*
X129011961Y-82133333D01*
X129011961Y-82133333D02*
X128916723Y-82085714D01*
X128916723Y-82085714D02*
X128726247Y-82038095D01*
X128726247Y-82038095D02*
X128583390Y-82038095D01*
X128583390Y-82038095D02*
X128392914Y-82085714D01*
X128392914Y-82085714D02*
X128297676Y-82133333D01*
X128297676Y-82133333D02*
X128202438Y-82228571D01*
X128202438Y-82228571D02*
X128154819Y-82371428D01*
X128154819Y-82371428D02*
X128154819Y-82466666D01*
X128154819Y-82466666D02*
X128202438Y-82609523D01*
X128202438Y-82609523D02*
X128250057Y-82657142D01*
X129154819Y-83133333D02*
X129154819Y-83323809D01*
X129154819Y-83323809D02*
X129107200Y-83419047D01*
X129107200Y-83419047D02*
X129059580Y-83466666D01*
X129059580Y-83466666D02*
X128916723Y-83561904D01*
X128916723Y-83561904D02*
X128726247Y-83609523D01*
X128726247Y-83609523D02*
X128345295Y-83609523D01*
X128345295Y-83609523D02*
X128250057Y-83561904D01*
X128250057Y-83561904D02*
X128202438Y-83514285D01*
X128202438Y-83514285D02*
X128154819Y-83419047D01*
X128154819Y-83419047D02*
X128154819Y-83228571D01*
X128154819Y-83228571D02*
X128202438Y-83133333D01*
X128202438Y-83133333D02*
X128250057Y-83085714D01*
X128250057Y-83085714D02*
X128345295Y-83038095D01*
X128345295Y-83038095D02*
X128583390Y-83038095D01*
X128583390Y-83038095D02*
X128678628Y-83085714D01*
X128678628Y-83085714D02*
X128726247Y-83133333D01*
X128726247Y-83133333D02*
X128773866Y-83228571D01*
X128773866Y-83228571D02*
X128773866Y-83419047D01*
X128773866Y-83419047D02*
X128726247Y-83514285D01*
X128726247Y-83514285D02*
X128678628Y-83561904D01*
X128678628Y-83561904D02*
X128583390Y-83609523D01*
X128154819Y-83942857D02*
X128154819Y-84561904D01*
X128154819Y-84561904D02*
X128535771Y-84228571D01*
X128535771Y-84228571D02*
X128535771Y-84371428D01*
X128535771Y-84371428D02*
X128583390Y-84466666D01*
X128583390Y-84466666D02*
X128631009Y-84514285D01*
X128631009Y-84514285D02*
X128726247Y-84561904D01*
X128726247Y-84561904D02*
X128964342Y-84561904D01*
X128964342Y-84561904D02*
X129059580Y-84514285D01*
X129059580Y-84514285D02*
X129107200Y-84466666D01*
X129107200Y-84466666D02*
X129154819Y-84371428D01*
X129154819Y-84371428D02*
X129154819Y-84085714D01*
X129154819Y-84085714D02*
X129107200Y-83990476D01*
X129107200Y-83990476D02*
X129059580Y-83942857D01*
X121259580Y-78357142D02*
X121307200Y-78309523D01*
X121307200Y-78309523D02*
X121354819Y-78166666D01*
X121354819Y-78166666D02*
X121354819Y-78071428D01*
X121354819Y-78071428D02*
X121307200Y-77928571D01*
X121307200Y-77928571D02*
X121211961Y-77833333D01*
X121211961Y-77833333D02*
X121116723Y-77785714D01*
X121116723Y-77785714D02*
X120926247Y-77738095D01*
X120926247Y-77738095D02*
X120783390Y-77738095D01*
X120783390Y-77738095D02*
X120592914Y-77785714D01*
X120592914Y-77785714D02*
X120497676Y-77833333D01*
X120497676Y-77833333D02*
X120402438Y-77928571D01*
X120402438Y-77928571D02*
X120354819Y-78071428D01*
X120354819Y-78071428D02*
X120354819Y-78166666D01*
X120354819Y-78166666D02*
X120402438Y-78309523D01*
X120402438Y-78309523D02*
X120450057Y-78357142D01*
X120354819Y-78690476D02*
X120354819Y-79309523D01*
X120354819Y-79309523D02*
X120735771Y-78976190D01*
X120735771Y-78976190D02*
X120735771Y-79119047D01*
X120735771Y-79119047D02*
X120783390Y-79214285D01*
X120783390Y-79214285D02*
X120831009Y-79261904D01*
X120831009Y-79261904D02*
X120926247Y-79309523D01*
X120926247Y-79309523D02*
X121164342Y-79309523D01*
X121164342Y-79309523D02*
X121259580Y-79261904D01*
X121259580Y-79261904D02*
X121307200Y-79214285D01*
X121307200Y-79214285D02*
X121354819Y-79119047D01*
X121354819Y-79119047D02*
X121354819Y-78833333D01*
X121354819Y-78833333D02*
X121307200Y-78738095D01*
X121307200Y-78738095D02*
X121259580Y-78690476D01*
X120688152Y-80166666D02*
X121354819Y-80166666D01*
X120307200Y-79928571D02*
X121021485Y-79690476D01*
X121021485Y-79690476D02*
X121021485Y-80309523D01*
X136242857Y-68159580D02*
X136290476Y-68207200D01*
X136290476Y-68207200D02*
X136433333Y-68254819D01*
X136433333Y-68254819D02*
X136528571Y-68254819D01*
X136528571Y-68254819D02*
X136671428Y-68207200D01*
X136671428Y-68207200D02*
X136766666Y-68111961D01*
X136766666Y-68111961D02*
X136814285Y-68016723D01*
X136814285Y-68016723D02*
X136861904Y-67826247D01*
X136861904Y-67826247D02*
X136861904Y-67683390D01*
X136861904Y-67683390D02*
X136814285Y-67492914D01*
X136814285Y-67492914D02*
X136766666Y-67397676D01*
X136766666Y-67397676D02*
X136671428Y-67302438D01*
X136671428Y-67302438D02*
X136528571Y-67254819D01*
X136528571Y-67254819D02*
X136433333Y-67254819D01*
X136433333Y-67254819D02*
X136290476Y-67302438D01*
X136290476Y-67302438D02*
X136242857Y-67350057D01*
X135909523Y-67254819D02*
X135290476Y-67254819D01*
X135290476Y-67254819D02*
X135623809Y-67635771D01*
X135623809Y-67635771D02*
X135480952Y-67635771D01*
X135480952Y-67635771D02*
X135385714Y-67683390D01*
X135385714Y-67683390D02*
X135338095Y-67731009D01*
X135338095Y-67731009D02*
X135290476Y-67826247D01*
X135290476Y-67826247D02*
X135290476Y-68064342D01*
X135290476Y-68064342D02*
X135338095Y-68159580D01*
X135338095Y-68159580D02*
X135385714Y-68207200D01*
X135385714Y-68207200D02*
X135480952Y-68254819D01*
X135480952Y-68254819D02*
X135766666Y-68254819D01*
X135766666Y-68254819D02*
X135861904Y-68207200D01*
X135861904Y-68207200D02*
X135909523Y-68159580D01*
X134338095Y-68254819D02*
X134909523Y-68254819D01*
X134623809Y-68254819D02*
X134623809Y-67254819D01*
X134623809Y-67254819D02*
X134719047Y-67397676D01*
X134719047Y-67397676D02*
X134814285Y-67492914D01*
X134814285Y-67492914D02*
X134909523Y-67540533D01*
D12*
%TO.C,C23*%
X120840580Y-74790000D02*
X120559420Y-74790000D01*
X120840580Y-75810000D02*
X120559420Y-75810000D01*
%TO.C,C28*%
X124159420Y-70590000D02*
X124440580Y-70590000D01*
X124159420Y-71610000D02*
X124440580Y-71610000D01*
%TO.C,C19*%
X125990000Y-68459420D02*
X125990000Y-68740580D01*
X127010000Y-68459420D02*
X127010000Y-68740580D01*
%TO.C,C92*%
X131840580Y-74290000D02*
X131559420Y-74290000D01*
X131840580Y-75310000D02*
X131559420Y-75310000D01*
%TO.C,C29*%
X124159420Y-73210000D02*
X124440580Y-73210000D01*
X124159420Y-72190000D02*
X124440580Y-72190000D01*
%TO.C,C91*%
X124190000Y-76540580D02*
X124190000Y-76259420D01*
X125210000Y-76540580D02*
X125210000Y-76259420D01*
%TO.C,C17*%
X121740580Y-65190000D02*
X121459420Y-65190000D01*
X121740580Y-66210000D02*
X121459420Y-66210000D01*
%TO.C,C24*%
X124390000Y-68459420D02*
X124390000Y-68740580D01*
X125410000Y-68459420D02*
X125410000Y-68740580D01*
%TO.C,C16*%
X122311252Y-66790000D02*
X120888748Y-66790000D01*
X122311252Y-68610000D02*
X120888748Y-68610000D01*
%TO.C,C30*%
X132811252Y-64590000D02*
X131388748Y-64590000D01*
X132811252Y-66410000D02*
X131388748Y-66410000D01*
%TO.C,C25*%
X132040580Y-70890000D02*
X131759420Y-70890000D01*
X132040580Y-71910000D02*
X131759420Y-71910000D01*
%TO.C,C33*%
X127690000Y-68434420D02*
X127690000Y-68715580D01*
X128710000Y-68434420D02*
X128710000Y-68715580D01*
%TO.C,C32*%
X131840580Y-76190000D02*
X131559420Y-76190000D01*
X131840580Y-77210000D02*
X131559420Y-77210000D01*
%TO.C,C94*%
X129690000Y-79959420D02*
X129690000Y-80240580D01*
X130710000Y-79959420D02*
X130710000Y-80240580D01*
%TO.C,C27*%
X129290000Y-68459420D02*
X129290000Y-68740580D01*
X130310000Y-68459420D02*
X130310000Y-68740580D01*
%TO.C,C26*%
X131840580Y-72690000D02*
X131559420Y-72690000D01*
X131840580Y-73710000D02*
X131559420Y-73710000D01*
%TO.C,C93*%
X128090000Y-79959420D02*
X128090000Y-80240580D01*
X129110000Y-79959420D02*
X129110000Y-80240580D01*
%TO.C,C34*%
X121990000Y-78859420D02*
X121990000Y-79140580D01*
X123010000Y-78859420D02*
X123010000Y-79140580D01*
%TO.C,C31*%
X132265580Y-67490000D02*
X131984420Y-67490000D01*
X132265580Y-68510000D02*
X131984420Y-68510000D01*
%TD*%
M02*
